<svg id="svg" xmlns="http://www.w3.org/2000/svg" xmlns:xlink="http://www.w3.org/1999/xlink" width="400" height="223.10884991297362" viewBox="0, 0, 400,223.10884991297362"><g id="svgg"><path id="path0" d="M42.067 25.066 C 15.664 26.340,1.324 39.355,0.103 63.156 C -0.776 80.282,5.196 93.847,17.138 101.845 C 30.475 110.778,54.589 111.650,77.976 104.045 L 78.859 103.758 78.873 91.268 C 78.880 84.399,78.874 78.779,78.859 78.779 C 78.844 78.779,78.149 78.983,77.313 79.233 C 64.698 83.008,53.960 84.498,47.236 83.409 C 38.586 82.006,34.277 76.335,34.275 66.349 C 34.274 59.072,37.562 53.210,43.223 50.398 C 50.015 47.025,57.393 49.061,62.375 55.683 L 62.828 56.286 70.857 56.286 L 78.886 56.286 78.886 44.001 L 78.886 31.716 78.069 31.355 C 69.405 27.535,61.526 25.718,51.011 25.113 C 49.711 25.039,43.334 25.005,42.067 25.066 M89.342 37.872 L 89.356 49.502 90.641 49.753 C 91.348 49.892,92.885 50.192,94.056 50.421 L 96.184 50.837 96.171 67.282 L 96.157 83.727 94.470 84.057 C 93.543 84.238,92.006 84.538,91.056 84.723 L 89.329 85.060 89.329 96.647 L 89.329 108.234 113.255 108.221 L 137.180 108.207 137.194 96.651 C 137.206 85.935,137.201 85.093,137.119 85.061 C 137.070 85.042,135.533 84.735,133.704 84.378 L 130.379 83.729 130.365 78.362 L 130.352 72.995 144.009 72.995 L 157.666 72.995 157.652 78.361 L 157.638 83.728 156.647 83.924 C 156.103 84.032,154.578 84.331,153.260 84.589 L 150.864 85.057 150.864 96.646 L 150.864 108.234 174.776 108.234 L 198.688 108.234 198.688 96.646 L 198.688 85.058 196.559 84.642 C 195.388 84.413,193.852 84.113,193.145 83.975 L 191.860 83.723 191.846 67.281 L 191.833 50.839 193.560 50.502 C 194.510 50.317,196.046 50.017,196.974 49.836 L 198.661 49.507 198.675 37.874 L 198.688 26.242 174.776 26.242 L 150.863 26.242 150.877 37.875 L 150.890 49.509 154.077 50.131 C 155.829 50.473,157.354 50.770,157.464 50.791 L 157.665 50.828 157.665 55.887 L 157.665 60.945 144.009 60.945 L 130.352 60.945 130.352 55.891 L 130.352 50.836 132.615 50.394 C 133.859 50.151,135.396 49.850,136.029 49.725 L 137.180 49.499 137.194 37.870 L 137.207 26.242 113.268 26.242 L 89.329 26.242 89.342 37.872 M229.482 26.267 C 229.482 26.340,213.776 79.936,213.746 79.965 C 213.726 79.985,212.246 80.297,210.457 80.659 L 207.203 81.317 207.203 94.775 L 207.203 108.234 222.382 108.234 C 236.792 108.234,237.563 108.229,237.589 108.140 C 237.604 108.089,238.233 105.034,238.987 101.352 C 239.742 97.670,240.371 94.616,240.386 94.564 C 240.413 94.475,240.992 94.470,251.569 94.470 L 262.725 94.470 262.830 94.966 C 262.888 95.238,263.536 98.335,264.270 101.848 L 265.604 108.234 280.801 108.234 L 295.997 108.234 295.997 94.795 C 295.997 87.403,295.979 81.345,295.957 81.331 C 295.935 81.318,294.454 81.010,292.667 80.646 L 289.418 79.986 289.157 79.101 C 289.013 78.615,285.462 66.523,281.267 52.230 L 273.638 26.243 251.560 26.243 C 239.417 26.242,229.482 26.253,229.482 26.267 M304.351 36.834 L 304.351 47.426 306.212 47.788 C 307.236 47.988,308.766 48.286,309.613 48.451 L 311.153 48.751 311.139 66.240 L 311.126 83.729 307.939 84.352 C 306.187 84.694,304.663 84.991,304.552 85.012 L 304.351 85.050 304.351 96.642 L 304.351 108.234 325.599 108.233 C 346.701 108.232,349.073 108.216,352.229 108.044 C 372.150 106.964,385.023 101.750,392.620 91.684 C 397.498 85.220,399.800 77.591,399.981 67.291 C 400.373 44.915,389.555 31.402,367.231 26.379 L 366.621 26.242 335.486 26.242 L 304.351 26.242 304.351 36.834 M254.839 60.651 C 256.621 69.045,258.092 75.968,258.107 76.034 L 258.136 76.155 251.574 76.155 C 247.965 76.155,245.013 76.135,245.013 76.110 C 245.013 76.063,251.466 45.646,251.525 45.414 C 251.573 45.229,251.275 43.862,254.839 60.651 M353.488 48.840 C 361.593 49.481,365.066 52.539,365.562 59.472 C 365.893 64.091,365.812 71.764,365.403 74.548 C 364.647 79.700,361.552 82.529,355.737 83.384 C 353.894 83.655,352.803 83.706,348.789 83.706 L 345.321 83.706 345.321 66.214 L 345.321 48.721 349.029 48.751 C 351.069 48.767,353.075 48.807,353.488 48.840 M289.142 122.372 L 289.142 123.818 290.482 123.818 L 291.821 123.818 291.807 122.386 L 291.793 120.953 290.467 120.939 L 289.142 120.925 289.142 122.372 M90.240 135.574 L 90.240 146.901 97.054 146.887 L 103.869 146.874 103.883 138.934 L 103.896 130.995 102.397 130.995 L 100.897 130.995 100.897 137.609 L 100.897 144.223 97.068 144.223 L 93.239 144.223 93.239 134.235 L 93.239 124.247 91.739 124.247 L 90.240 124.247 90.240 135.574 M269.487 135.574 L 269.487 146.901 278.192 146.901 C 283.857 146.901,287.078 146.881,287.417 146.845 C 288.365 146.743,289.192 146.488,289.768 146.120 C 290.113 145.899,290.092 145.900,290.411 146.086 C 291.045 146.454,291.922 146.747,292.688 146.846 C 292.993 146.886,295.942 146.899,302.102 146.889 L 311.072 146.874 311.086 138.934 L 311.100 130.995 309.600 130.995 L 308.100 130.995 308.100 137.609 L 308.100 144.223 304.458 144.223 L 300.817 144.223 300.816 140.755 C 300.816 137.004,300.811 136.921,300.494 134.770 C 300.245 133.079,299.896 131.074,299.841 131.019 C 299.807 130.985,297.027 131.446,296.979 131.494 C 296.960 131.513,297.008 131.848,297.085 132.239 C 297.400 133.835,297.703 135.908,297.816 137.234 C 297.846 137.587,297.870 139.304,297.871 141.050 L 297.871 144.223 295.475 144.222 C 292.694 144.221,292.350 144.167,291.701 143.622 L 291.556 143.500 291.634 143.178 C 291.929 141.974,291.979 140.999,291.980 136.471 L 291.980 132.601 290.481 132.601 L 288.981 132.601 288.980 136.230 C 288.979 142.231,288.860 143.238,288.082 143.831 C 287.630 144.175,287.523 144.189,285.192 144.210 L 283.090 144.230 283.090 139.219 L 283.090 134.208 281.591 134.208 L 280.091 134.208 280.091 139.215 L 280.091 144.223 276.289 144.223 L 272.486 144.223 272.486 134.235 L 272.486 124.247 270.987 124.247 L 269.487 124.247 269.487 135.574 M286.625 126.602 L 286.625 128.156 288.098 128.156 L 289.572 128.156 289.558 126.617 L 289.543 125.077 288.084 125.063 L 286.625 125.048 286.625 126.602 M291.338 126.602 L 291.338 128.156 292.811 128.156 L 294.285 128.156 294.270 126.617 L 294.256 125.077 292.797 125.063 L 291.338 125.048 291.338 126.602 M98.285 126.911 L 98.300 128.451 99.799 128.451 L 101.299 128.451 101.313 126.911 L 101.327 125.372 99.799 125.372 L 98.271 125.372 98.285 126.911 M102.623 126.911 L 102.638 128.451 104.137 128.451 L 105.637 128.451 105.651 126.911 L 105.665 125.372 104.137 125.372 L 102.609 125.372 102.623 126.911 M154.250 126.911 L 154.264 128.451 155.764 128.451 L 157.263 128.451 157.278 126.911 L 157.292 125.372 155.764 125.372 L 154.236 125.372 154.250 126.911 M158.588 126.911 L 158.602 128.451 160.102 128.451 L 161.601 128.451 161.615 126.911 L 161.630 125.372 160.102 125.372 L 158.574 125.372 158.588 126.911 M305.489 126.911 L 305.503 128.451 307.002 128.451 L 308.502 128.451 308.516 126.911 L 308.530 125.372 307.002 125.372 L 305.474 125.372 305.489 126.911 M309.826 126.911 L 309.841 128.451 311.340 128.451 L 312.840 128.451 312.854 126.911 L 312.868 125.372 311.340 125.372 L 309.812 125.372 309.826 126.911 M113.515 131.056 C 109.594 131.402,107.909 133.407,107.644 138.039 C 107.382 142.625,108.584 145.382,111.276 146.364 C 112.455 146.795,113.025 146.857,116.074 146.886 L 118.692 146.911 118.662 147.722 C 118.536 151.059,116.607 151.872,110.377 151.213 C 109.634 151.134,109.161 151.105,109.141 151.136 C 109.041 151.298,108.700 153.444,108.767 153.486 C 108.807 153.511,109.179 153.595,109.594 153.674 C 117.139 155.108,121.480 153.033,121.609 147.932 L 121.635 146.901 126.730 146.887 L 131.825 146.874 131.838 138.934 L 131.852 130.995 130.352 130.995 L 128.853 130.995 128.853 137.609 L 128.853 144.223 125.238 144.223 L 121.623 144.223 121.623 137.609 L 121.623 130.995 117.834 131.002 C 115.750 131.006,113.806 131.031,113.515 131.056 M141.471 131.056 C 137.550 131.402,135.864 133.407,135.599 138.039 C 135.337 142.625,136.540 145.382,139.231 146.364 C 140.411 146.795,140.981 146.857,144.029 146.886 L 146.648 146.911 146.617 147.722 C 146.492 151.059,144.562 151.872,138.333 151.213 C 137.590 151.134,137.116 151.105,137.097 151.136 C 136.997 151.298,136.655 153.444,136.723 153.486 C 136.762 153.511,137.135 153.595,137.550 153.674 C 145.094 155.108,149.435 153.033,149.565 147.932 L 149.591 146.901 154.712 146.887 L 159.834 146.874 159.848 138.934 L 159.861 130.995 158.361 130.995 L 156.862 130.995 156.862 137.609 L 156.862 144.223 153.220 144.223 L 149.578 144.223 149.578 137.609 L 149.578 130.995 145.789 131.002 C 143.705 131.006,141.762 131.031,141.471 131.056 M189.369 137.609 L 189.369 144.223 184.268 144.223 C 177.679 144.222,176.975 144.160,175.511 143.443 C 173.469 142.442,173.116 140.673,174.032 136.012 C 174.164 135.335,174.254 134.765,174.230 134.745 C 174.153 134.678,171.416 134.199,171.374 134.244 C 171.285 134.339,170.848 136.665,170.681 137.930 C 169.933 143.591,172.471 146.405,178.722 146.845 C 179.197 146.879,182.053 146.901,185.939 146.901 L 192.368 146.901 192.368 138.948 L 192.368 130.995 190.869 130.995 L 189.369 130.995 189.369 137.609 M198.392 131.062 C 198.378 131.099,198.361 135.033,198.353 139.805 L 198.340 148.480 198.219 148.909 C 197.664 150.892,196.508 151.608,194.189 151.404 C 193.939 151.382,193.725 151.371,193.714 151.379 C 193.688 151.399,193.435 153.984,193.457 154.006 C 193.584 154.132,195.869 154.165,196.479 154.049 C 199.533 153.470,201.398 150.826,201.418 147.048 L 201.419 146.901 211.062 146.901 L 220.705 146.901 220.684 141.826 C 220.664 136.938,220.659 136.733,220.553 136.243 C 219.739 132.507,216.421 130.651,211.271 131.051 C 210.073 131.144,207.059 131.661,206.917 131.797 C 206.891 131.821,206.941 132.368,207.026 133.011 L 207.181 134.181 207.393 134.175 C 207.510 134.171,208.099 134.105,208.703 134.029 C 214.477 133.294,216.774 133.927,217.549 136.466 C 217.668 136.854,217.669 136.905,217.687 140.541 L 217.705 144.223 209.562 144.223 L 201.419 144.223 201.419 137.609 L 201.419 130.995 199.918 130.995 C 198.766 130.995,198.411 131.010,198.392 131.062 M253.903 132.328 L 253.903 133.673 255.335 133.673 C 259.166 133.674,260.500 134.203,261.268 136.025 C 261.743 137.151,261.829 137.988,261.829 141.477 L 261.829 144.222 257.103 144.236 L 252.376 144.250 252.362 145.575 L 252.348 146.901 258.592 146.901 L 264.836 146.901 264.813 142.549 C 264.789 137.854,264.779 137.671,264.482 136.428 C 263.800 133.575,262.140 131.922,259.323 131.289 C 258.356 131.072,257.909 131.035,255.898 131.009 L 253.903 130.983 253.903 132.328 M118.677 138.948 L 118.677 144.223 116.361 144.222 C 112.585 144.222,111.736 143.968,111.125 142.657 C 110.337 140.963,110.439 136.282,111.293 134.949 C 111.974 133.885,112.770 133.693,116.548 133.680 L 118.677 133.673 118.677 138.948 M146.633 138.948 L 146.633 144.223 144.317 144.222 C 140.541 144.222,139.691 143.968,139.081 142.657 C 138.293 140.963,138.394 136.282,139.248 134.949 C 139.930 133.885,140.726 133.693,144.504 133.680 L 146.633 133.673 146.633 138.948 M232.856 138.921 L 232.856 143.420 236.859 143.406 L 240.862 143.393 240.876 138.907 L 240.890 134.422 236.873 134.422 L 232.856 134.422 232.856 138.921 M14.567 138.251 L 14.567 139.564 19.360 139.564 L 24.153 139.564 24.153 138.251 L 24.153 136.939 19.360 136.939 L 14.567 136.939 14.567 138.251 M28.116 138.251 L 28.116 139.564 32.909 139.564 L 37.703 139.564 37.703 138.251 L 37.703 136.939 32.909 136.939 L 28.116 136.939 28.116 138.251 M41.666 138.251 L 41.666 139.564 46.459 139.564 L 51.252 139.564 51.252 138.251 L 51.252 136.939 46.459 136.939 L 41.666 136.939 41.666 138.251 M55.215 138.251 L 55.215 139.564 60.008 139.564 L 64.801 139.564 64.801 138.251 L 64.801 136.939 60.008 136.939 L 55.215 136.939 55.215 138.251 M68.764 138.251 L 68.764 139.564 73.557 139.564 L 78.351 139.564 78.351 138.251 L 78.351 136.939 73.557 136.939 L 68.764 136.939 68.764 138.251 M322.506 138.251 L 322.506 139.564 327.300 139.564 L 332.093 139.564 332.093 138.251 L 332.093 136.939 327.300 136.939 L 322.506 136.939 322.506 138.251 M336.056 138.251 L 336.056 139.564 340.849 139.564 L 345.642 139.564 345.642 138.251 L 345.642 136.939 340.849 136.939 L 336.056 136.939 336.056 138.251 M349.605 138.251 L 349.605 139.564 354.398 139.564 L 359.191 139.564 359.191 138.251 L 359.191 136.939 354.398 136.939 L 349.605 136.939 349.605 138.251 M363.154 138.251 L 363.154 139.564 367.948 139.564 L 372.741 139.564 372.741 138.251 L 372.741 136.939 367.948 136.939 L 363.154 136.939 363.154 138.251 M376.704 138.251 L 376.704 139.564 381.497 139.564 L 386.290 139.564 386.290 138.251 L 386.290 136.939 381.497 136.939 L 376.704 136.939 376.704 138.251 M126.265 149.774 C 126.245 149.794,126.228 150.493,126.228 151.328 L 126.228 152.845 127.756 152.845 L 129.283 152.845 129.268 151.305 L 129.254 149.766 127.778 149.751 C 126.966 149.744,126.285 149.754,126.265 149.774 M130.603 149.774 C 130.583 149.794,130.566 150.493,130.566 151.328 L 130.566 152.845 132.093 152.845 L 133.621 152.845 133.606 151.305 L 133.592 149.766 132.116 149.751 C 131.304 149.744,130.623 149.754,130.603 149.774 M180.051 151.346 L 180.051 152.899 181.550 152.899 L 183.050 152.899 183.050 151.346 L 183.050 149.792 181.550 149.792 L 180.051 149.792 180.051 151.346 M1.660 170.304 L 1.660 173.839 5.141 173.839 L 8.622 173.839 8.622 188.486 L 8.622 203.133 13.576 203.133 L 18.530 203.133 18.530 188.486 L 18.530 173.839 22.038 173.839 L 25.546 173.839 25.546 170.304 L 25.546 166.769 13.603 166.769 L 1.660 166.769 1.660 170.304 M27.581 184.951 L 27.581 203.133 32.454 203.133 L 37.328 203.133 37.328 195.957 L 37.328 188.780 40.889 188.780 L 44.450 188.780 44.450 195.957 L 44.450 203.133 49.324 203.133 L 54.197 203.133 54.197 184.951 L 54.197 166.769 49.324 166.769 L 44.450 166.769 44.450 174.213 L 44.450 181.658 40.889 181.658 L 37.328 181.658 37.328 174.213 L 37.328 166.769 32.454 166.769 L 27.581 166.769 27.581 184.951 M58.160 184.951 L 58.160 203.133 69.327 203.133 L 80.493 203.133 80.493 199.598 L 80.493 196.064 74.280 196.064 L 68.068 196.064 68.068 192.208 L 68.068 188.352 73.209 188.352 L 78.351 188.352 78.351 184.817 L 78.351 181.283 73.209 181.283 L 68.068 181.283 68.068 177.561 L 68.068 173.839 74.013 173.839 L 79.957 173.839 79.957 170.304 L 79.957 166.769 69.059 166.769 L 58.160 166.769 58.160 184.951 M91.846 170.304 L 91.846 173.839 95.327 173.839 L 98.808 173.839 98.808 188.486 L 98.808 203.133 103.762 203.133 L 108.716 203.133 108.716 188.486 L 108.716 173.839 112.224 173.839 L 115.732 173.839 115.732 170.304 L 115.732 166.769 103.789 166.769 L 91.846 166.769 91.846 170.304 M124.434 166.829 C 120.174 167.210,117.936 169.205,117.604 172.918 C 117.498 174.099,117.562 197.110,117.673 197.699 C 118.278 200.921,120.288 202.617,124.022 203.053 C 125.023 203.171,135.146 203.171,136.147 203.053 C 139.862 202.619,141.945 200.869,142.492 197.724 C 142.621 196.982,142.646 173.060,142.518 172.339 C 141.939 169.060,140.075 167.442,136.216 166.869 C 135.691 166.791,125.256 166.756,124.434 166.829 M144.169 166.798 C 144.169 166.814,146.423 172.354,149.177 179.109 L 154.184 191.392 154.184 197.262 L 154.184 203.133 159.138 203.133 L 164.092 203.133 164.092 197.198 L 164.092 191.263 168.675 179.404 C 171.195 172.882,173.326 167.371,173.409 167.158 L 173.559 166.769 168.513 166.769 L 163.467 166.769 161.280 174.387 C 160.077 178.577,159.079 182.022,159.062 182.042 C 159.045 182.063,158.056 178.930,156.864 175.080 C 155.673 171.231,154.605 167.786,154.492 167.425 L 154.286 166.769 149.228 166.769 C 146.446 166.769,144.169 166.782,144.169 166.798 M182.017 166.826 C 177.966 167.171,175.763 168.944,175.196 172.314 C 175.049 173.187,175.042 196.728,175.188 197.590 C 175.718 200.712,177.453 202.327,180.988 202.987 C 181.701 203.120,192.227 203.198,193.440 203.080 C 197.205 202.710,199.297 201.069,199.989 197.940 C 200.126 197.324,200.208 173.913,200.078 172.687 C 199.725 169.351,197.717 167.462,193.922 166.896 C 193.235 166.793,183.098 166.734,182.017 166.826 M201.955 170.304 L 201.955 173.839 205.436 173.839 L 208.917 173.839 208.917 188.486 L 208.917 203.133 213.871 203.133 L 218.824 203.133 218.838 188.499 L 218.851 173.865 222.372 173.852 L 225.894 173.838 225.894 170.304 L 225.894 166.769 213.924 166.769 L 201.955 166.769 201.955 170.304 M234.919 166.836 C 234.864 167.002,225.626 203.028,225.626 203.078 C 225.626 203.115,227.174 203.133,230.486 203.133 L 235.346 203.133 235.935 200.429 L 236.524 197.724 240.893 197.724 L 245.261 197.724 245.821 200.415 L 246.381 203.106 251.378 203.120 C 255.369 203.131,256.371 203.120,256.352 203.066 C 256.339 203.029,254.234 194.847,251.674 184.884 L 247.021 166.769 240.981 166.769 C 236.197 166.769,234.936 166.783,234.919 166.836 M267.220 167.131 C 267.708 169.466,274.802 202.970,274.822 203.039 C 274.848 203.128,275.167 203.133,280.544 203.133 L 286.238 203.133 286.342 202.584 C 286.399 202.282,287.300 197.427,288.343 191.795 C 289.386 186.163,290.254 181.572,290.271 181.593 C 290.288 181.614,291.188 186.427,292.270 192.288 C 293.353 198.150,294.250 202.988,294.264 203.039 C 294.289 203.128,294.607 203.133,299.985 203.133 L 305.679 203.133 305.765 202.745 C 306.109 201.172,313.349 166.904,313.349 166.845 C 313.349 166.780,312.636 166.769,308.462 166.769 L 303.575 166.770 301.786 178.886 C 300.802 185.550,299.981 191.033,299.963 191.070 C 299.944 191.106,298.861 185.768,297.557 179.207 C 296.252 172.646,295.160 167.164,295.131 167.024 L 295.077 166.769 290.241 166.769 C 286.420 166.769,285.399 166.783,285.380 166.836 C 285.366 166.873,284.274 172.344,282.952 178.993 C 281.630 185.643,280.535 191.083,280.520 191.083 C 280.505 191.083,279.821 185.703,279.001 179.127 C 278.182 172.551,277.498 167.081,277.482 166.970 L 277.453 166.769 272.299 166.769 L 267.144 166.769 267.220 167.131 M322.721 166.792 C 322.721 166.805,320.624 174.979,318.061 184.957 C 315.499 194.935,313.402 203.106,313.402 203.116 C 313.402 203.125,315.595 203.133,318.276 203.133 C 320.956 203.133,323.149 203.124,323.149 203.113 C 323.149 203.076,324.277 197.914,324.306 197.818 C 324.333 197.729,324.588 197.724,328.690 197.724 L 333.045 197.724 333.075 197.844 C 333.092 197.911,333.335 199.074,333.616 200.428 C 333.897 201.783,334.140 202.946,334.155 203.012 L 334.183 203.133 339.163 203.133 C 341.902 203.133,344.142 203.121,344.142 203.107 C 344.142 203.081,335.123 167.938,334.922 167.184 L 334.812 166.769 328.766 166.769 C 325.441 166.769,322.721 166.780,322.721 166.792 M345.856 184.949 L 345.856 203.133 350.810 203.133 L 355.764 203.133 355.764 196.677 L 355.764 190.221 356.089 190.237 L 356.415 190.253 359.289 196.691 L 362.164 203.130 367.479 203.131 C 370.402 203.132,372.794 203.117,372.794 203.099 C 372.794 203.080,371.301 200.090,369.477 196.455 C 367.465 192.447,366.184 189.839,366.223 189.827 C 368.911 189.050,370.333 187.572,370.876 184.994 C 371.020 184.308,371.102 174.051,370.973 172.778 C 370.653 169.620,368.848 167.687,365.618 167.044 C 364.377 166.798,364.631 166.804,355.027 166.784 L 345.856 166.766 345.856 184.949 M381.015 166.803 C 376.826 167.177,374.744 168.708,374.033 171.937 L 373.892 172.580 373.892 177.534 C 373.892 182.117,373.899 182.530,373.991 183.049 C 374.468 185.749,375.787 187.350,378.069 187.999 C 379.334 188.359,379.468 188.369,383.639 188.402 L 387.441 188.432 387.749 188.583 C 387.988 188.701,388.090 188.791,388.205 188.985 L 388.352 189.236 388.369 192.074 C 388.394 196.203,388.488 196.025,386.255 196.054 C 384.600 196.075,384.340 196.007,384.041 195.473 L 383.907 195.234 383.890 193.506 L 383.873 191.779 378.919 191.779 L 373.964 191.779 373.986 194.524 C 374.010 197.574,374.029 197.783,374.381 198.847 C 375.204 201.334,377.306 202.750,380.667 203.080 C 381.710 203.182,391.692 203.121,392.333 203.008 C 395.992 202.365,397.879 200.512,398.231 197.215 C 398.337 196.227,398.281 187.559,398.165 186.931 C 397.660 184.199,396.218 182.645,393.640 182.056 C 392.447 181.783,392.032 181.757,388.272 181.730 C 384.347 181.701,384.409 181.707,384.076 181.338 C 383.771 181.002,383.763 180.898,383.783 177.614 L 383.800 174.669 383.947 174.418 C 384.061 174.224,384.163 174.134,384.402 174.017 L 384.710 173.865 385.995 173.865 C 388.234 173.865,388.272 173.910,388.272 176.553 L 388.272 178.176 393.225 178.176 L 398.179 178.176 398.179 175.749 C 398.179 173.089,398.139 172.457,397.912 171.557 C 397.230 168.853,395.346 167.400,391.833 166.870 C 391.434 166.810,381.620 166.750,381.015 166.803 M132.012 173.978 C 132.351 174.133,132.580 174.413,132.651 174.759 C 132.693 174.961,132.706 177.958,132.696 185.139 L 132.682 195.234 132.548 195.473 C 132.238 196.026,132.029 196.073,129.988 196.053 C 127.898 196.033,127.685 195.954,127.516 195.137 C 127.424 194.694,127.464 174.774,127.557 174.562 C 127.711 174.211,128.043 173.967,128.473 173.890 C 129.033 173.790,131.750 173.857,132.012 173.978 M189.597 174.017 C 189.836 174.134,189.938 174.224,190.052 174.418 L 190.199 174.669 190.216 184.790 C 190.233 195.550,190.238 195.325,189.975 195.638 C 189.646 196.029,189.598 196.037,187.629 196.037 C 185.604 196.037,185.500 196.017,185.202 195.566 L 185.058 195.349 185.044 185.062 C 185.027 173.640,185.001 174.500,185.382 174.165 C 185.549 174.018,185.735 173.943,186.103 173.874 C 186.176 173.860,186.923 173.853,187.763 173.857 L 189.289 173.865 189.597 174.017 M360.490 174.017 C 360.729 174.134,360.831 174.224,360.945 174.418 L 361.093 174.669 361.108 178.525 C 361.130 183.943,361.442 183.444,358.027 183.467 L 355.764 183.483 355.764 178.696 C 355.764 176.064,355.782 173.892,355.803 173.871 C 355.825 173.849,356.819 173.839,358.012 173.848 L 360.182 173.865 360.490 174.017 M330.134 184.133 C 330.887 187.688,331.504 190.622,331.504 190.653 C 331.504 190.690,330.598 190.708,328.692 190.708 C 326.495 190.708,325.880 190.694,325.880 190.642 C 325.880 190.606,326.519 187.682,327.300 184.145 C 328.080 180.609,328.719 177.694,328.719 177.669 C 328.719 177.485,328.918 178.394,330.134 184.133 M242.337 184.121 C 243.075 187.611,243.693 190.521,243.709 190.588 L 243.739 190.708 240.891 190.708 C 238.204 190.708,238.045 190.703,238.072 190.615 C 238.087 190.563,238.728 187.665,239.497 184.175 C 240.907 177.765,240.940 177.625,240.974 177.721 C 240.985 177.751,241.598 180.631,242.337 184.121 " stroke="none" fill="#000000" fill-rule="evenodd"></path></g></svg>