<?xml version="1.0" encoding="UTF-8" standalone="yes"?><svg xmlns:dc="http://purl.org/dc/elements/1.1/" xmlns:cc="http://creativecommons.org/ns#" xmlns:rdf="http://www.w3.org/1999/02/22-rdf-syntax-ns#" xmlns:svg="http://www.w3.org/2000/svg" xmlns="http://www.w3.org/2000/svg" viewBox="0 0 1333.3333 666.66669" height="666.66669" width="1333.3333" xml:space="preserve" id="svg2" version="1.1" style="zoom: 1;"><metadata id="metadata8"><rdf:RDF><cc:Work rdf:about=""><dc:format>image/svg+xml</dc:format><dc:type rdf:resource="http://purl.org/dc/dcmitype/StillImage"></dc:type></cc:Work></rdf:RDF></metadata><defs id="defs6"><clipPath id="clipPath20" clipPathUnits="userSpaceOnUse"><path id="path18" d="M 0,0 H 1000 V 500 H 0 Z"></path></clipPath></defs><g transform="matrix(1.3333333,0,0,-1.3333333,0,666.66667)" id="g10"><g id="g12"></g><g id="g14"><g clip-path="url(#clipPath20)" id="g16"><g transform="translate(41.8509,257.4135)" id="g24"><text id="text28" style="font-variant:normal;font-weight:normal;font-size:245px;font-family:HoltwoodOneSC;-inkscape-font-specification:HoltwoodOneSC;writing-mode:lr-tb;fill:#000000;fill-opacity:1;fill-rule:nonzero;stroke:none" transform="scale(1,-1)"><tspan id="tspan26" y="0" x="0 195.70599 465.15701 677.76801">CHAD</tspan></text></g><g transform="translate(72.91582,170.7832)" id="g30"><text id="text34" style="font-variant:normal;font-weight:600;font-size:71px;font-family:Cairo;-inkscape-font-specification:Cairo-SemiBold;writing-mode:lr-tb;fill:#000000;fill-opacity:1;fill-rule:nonzero;stroke:none" transform="scale(1,-1)"><tspan id="tspan32" y="0" x="0 30.3596 60.7192 91.078796 121.4384">---- </tspan></text></g><g transform="translate(72.91582,170.7832)" id="g36"><text id="text40" style="font-variant:normal;font-weight:600;font-size:71px;font-family:Cairo;-inkscape-font-specification:Cairo-SemiBold;writing-mode:lr-tb;fill:#000000;fill-opacity:1;fill-rule:nonzero;stroke:none" transform="matrix(1,0,0,-1,152.5972,0)"><tspan id="tspan38" y="0" x="0 21.7686 42.656799 84.504204 105.3924 147.23981">ﺎﺗﻮﻳﻮﺗ</tspan></text><text id="text44" style="font-variant:normal;font-weight:600;font-size:71px;font-family:Cairo;-inkscape-font-specification:Cairo-SemiBold;writing-mode:lr-tb;fill:#000000;fill-opacity:1;fill-rule:nonzero;stroke:none" transform="matrix(1,0,0,-1,336.3097,0)"><tspan id="tspan42" y="0" x="0 57.041401 96.481903 118.9747">بوﺮﺣ</tspan></text><text id="text48" style="font-variant:normal;font-weight:600;font-size:71px;font-family:Cairo;-inkscape-font-specification:Cairo-SemiBold;writing-mode:lr-tb;fill:#000000;fill-opacity:1;fill-rule:nonzero;stroke:none" transform="matrix(1,0,0,-1,510.7283,0)"><tspan id="tspan46" y="0" x="0 32.801998">• </tspan></text><text id="text52" style="font-variant:normal;font-weight:600;font-size:71px;font-family:Cairo;-inkscape-font-specification:Cairo-SemiBold;writing-mode:lr-tb;fill:#000000;fill-opacity:1;fill-rule:nonzero;stroke:none" transform="matrix(1,0,0,-1,559.1148,0)"><tspan id="tspan50" y="0" x="0 34.548599 56.3172 119.0386">دﺎﺸﺗ</tspan></text></g><g transform="translate(72.91582,170.7832)" id="g54"><text id="text58" style="font-variant:normal;font-weight:600;font-size:71px;font-family:Cairo;-inkscape-font-specification:Cairo-SemiBold;writing-mode:lr-tb;fill:#000000;fill-opacity:1;fill-rule:nonzero;stroke:none" transform="matrix(1,0,0,-1,730.1892,0)"><tspan id="tspan56" y="0" x="0 30.352501 60.705002 91.057503">----</tspan></text></g><g transform="translate(72.91582,170.7832)" id="g60"></g><g transform="translate(52.62899,44.7005)" id="g62"><text id="text66" style="font-variant:normal;font-weight:bold;font-size:127px;font-family:Teko;-inkscape-font-specification:Teko-Bold;writing-mode:lr-tb;fill:#000000;fill-opacity:1;fill-rule:nonzero;stroke:none" transform="scale(1,-1)"><tspan id="tspan64" y="0" x="0 53.594002 122.174 177.927 202.05701 255.651 319.91299 384.556 448.81799 502.41199 570.10303 594.23297 699.13501 766.82599 830.83398">THE TOYOTA WARS</tspan></text></g></g></g></g></svg>