<svg width="554" height="358" viewBox="0 0 554 358" fill="none" xmlns="http://www.w3.org/2000/svg">
<path d="M86.3281 47V73H77.7969C77.2214 72.2552 76.5612 71.4935 75.8164 70.7148C75.0716 69.9362 74.2422 69.2422 73.3281 68.6328C72.4141 67.9896 71.4154 67.4818 70.332 67.1094C69.2487 66.7031 68.0807 66.5 66.8281 66.5V101.691L73.3281 102.961V125H27.8281V102.961L34.3281 101.691V66.5C33.0755 66.5 31.9076 66.7031 30.8242 67.1094C29.7409 67.4818 28.7422 67.9896 27.8281 68.6328C26.9141 69.2422 26.0846 69.9362 25.3398 70.7148C24.5951 71.4935 23.9349 72.2552 23.3594 73H14.8281V47H86.3281ZM136.348 125.914C132.217 125.914 128.223 125.66 124.363 125.152C120.538 124.645 116.932 123.697 113.547 122.309C110.195 120.921 107.132 119.143 104.355 116.977C101.579 114.776 99.1927 112.152 97.1953 109.105C95.1979 106.025 93.6406 102.504 92.5234 98.543C91.4401 94.5482 90.8984 90.0625 90.8984 85.0859C90.8984 80.4141 91.4401 76.1992 92.5234 72.4414C93.6068 68.6836 95.1302 65.349 97.0938 62.4375C99.0573 59.526 101.41 57.0208 104.152 54.9219C106.928 52.8229 109.992 51.1133 113.344 49.793C116.729 48.4388 120.352 47.4401 124.211 46.7969C128.104 46.1536 132.15 45.832 136.348 45.832C140.546 45.832 144.591 46.1536 148.484 46.7969C152.378 47.4401 156.017 48.4388 159.402 49.793C162.788 51.1471 165.852 52.8737 168.594 54.9727C171.37 57.0716 173.74 59.5768 175.703 62.4883C177.667 65.3997 179.19 68.7344 180.273 72.4922C181.357 76.2161 181.898 80.4141 181.898 85.0859C181.898 92.3984 180.697 98.6784 178.293 103.926C175.923 109.139 172.673 113.405 168.543 116.723C164.413 120.04 159.589 122.41 154.07 123.832C148.552 125.22 142.645 125.914 136.348 125.914ZM136.348 69.0391C134.181 69.0391 132.353 69.3268 130.863 69.9023C129.408 70.444 128.189 71.1719 127.207 72.0859C126.259 73 125.531 74.0326 125.023 75.1836C124.516 76.3346 124.126 77.5026 123.855 78.6875C123.618 79.8724 123.483 81.0234 123.449 82.1406C123.415 83.2578 123.398 84.2396 123.398 85.0859C123.398 85.9323 123.415 86.9141 123.449 88.0312C123.483 89.1484 123.618 90.3164 123.855 91.5352C124.126 92.7201 124.516 93.9049 125.023 95.0898C125.531 96.2747 126.259 97.3411 127.207 98.2891C128.189 99.2031 129.408 99.9479 130.863 100.523C132.353 101.099 134.181 101.387 136.348 101.387C138.514 101.387 140.326 101.099 141.781 100.523C143.271 99.9479 144.507 99.2031 145.488 98.2891C146.47 97.3411 147.215 96.2747 147.723 95.0898C148.264 93.9049 148.654 92.7201 148.891 91.5352C149.128 90.3164 149.263 89.1484 149.297 88.0312C149.365 86.9141 149.398 85.9323 149.398 85.0859C149.398 84.2396 149.365 83.2578 149.297 82.1406C149.263 81.0234 149.128 79.8724 148.891 78.6875C148.654 77.5026 148.264 76.3346 147.723 75.1836C147.215 74.0326 146.47 73 145.488 72.0859C144.507 71.1719 143.271 70.444 141.781 69.9023C140.326 69.3268 138.514 69.0391 136.348 69.0391ZM209.016 125V103.062L215.516 101.438L193.223 70.2578L184.996 69.0391V47H228.363V69.0391L223.285 70.2578L233.594 86.2031L243.902 70.2578L238.824 69.0391V47H282.141V69.0391L273.965 70.2578L251.672 101.438L258.172 103.062V125H209.016ZM330.738 125.914C326.608 125.914 322.613 125.66 318.754 125.152C314.928 124.645 311.323 123.697 307.938 122.309C304.586 120.921 301.522 119.143 298.746 116.977C295.97 114.776 293.583 112.152 291.586 109.105C289.589 106.025 288.031 102.504 286.914 98.543C285.831 94.5482 285.289 90.0625 285.289 85.0859C285.289 80.4141 285.831 76.1992 286.914 72.4414C287.997 68.6836 289.521 65.349 291.484 62.4375C293.448 59.526 295.801 57.0208 298.543 54.9219C301.319 52.8229 304.383 51.1133 307.734 49.793C311.12 48.4388 314.742 47.4401 318.602 46.7969C322.495 46.1536 326.54 45.832 330.738 45.832C334.936 45.832 338.982 46.1536 342.875 46.7969C346.768 47.4401 350.408 48.4388 353.793 49.793C357.178 51.1471 360.242 52.8737 362.984 54.9727C365.76 57.0716 368.13 59.5768 370.094 62.4883C372.057 65.3997 373.581 68.7344 374.664 72.4922C375.747 76.2161 376.289 80.4141 376.289 85.0859C376.289 92.3984 375.087 98.6784 372.684 103.926C370.314 109.139 367.064 113.405 362.934 116.723C358.803 120.04 353.979 122.41 348.461 123.832C342.943 125.22 337.035 125.914 330.738 125.914ZM330.738 69.0391C328.572 69.0391 326.743 69.3268 325.254 69.9023C323.798 70.444 322.579 71.1719 321.598 72.0859C320.65 73 319.922 74.0326 319.414 75.1836C318.906 76.3346 318.517 77.5026 318.246 78.6875C318.009 79.8724 317.874 81.0234 317.84 82.1406C317.806 83.2578 317.789 84.2396 317.789 85.0859C317.789 85.9323 317.806 86.9141 317.84 88.0312C317.874 89.1484 318.009 90.3164 318.246 91.5352C318.517 92.7201 318.906 93.9049 319.414 95.0898C319.922 96.2747 320.65 97.3411 321.598 98.2891C322.579 99.2031 323.798 99.9479 325.254 100.523C326.743 101.099 328.572 101.387 330.738 101.387C332.905 101.387 334.716 101.099 336.172 100.523C337.661 99.9479 338.897 99.2031 339.879 98.2891C340.861 97.3411 341.605 96.2747 342.113 95.0898C342.655 93.9049 343.044 92.7201 343.281 91.5352C343.518 90.3164 343.654 89.1484 343.688 88.0312C343.755 86.9141 343.789 85.9323 343.789 85.0859C343.789 84.2396 343.755 83.2578 343.688 82.1406C343.654 81.0234 343.518 79.8724 343.281 78.6875C343.044 77.5026 342.655 76.3346 342.113 75.1836C341.605 74.0326 340.861 73 339.879 72.0859C338.897 71.1719 337.661 70.444 336.172 69.9023C334.716 69.3268 332.905 69.0391 330.738 69.0391ZM452.359 47V73H443.828C443.253 72.2552 442.592 71.4935 441.848 70.7148C441.103 69.9362 440.273 69.2422 439.359 68.6328C438.445 67.9896 437.447 67.4818 436.363 67.1094C435.28 66.7031 434.112 66.5 432.859 66.5V101.691L439.359 102.961V125H393.859V102.961L400.359 101.691V66.5C399.107 66.5 397.939 66.7031 396.855 67.1094C395.772 67.4818 394.773 67.9896 393.859 68.6328C392.945 69.2422 392.116 69.9362 391.371 70.7148C390.626 71.4935 389.966 72.2552 389.391 73H380.859V47H452.359ZM508.473 125L505.73 111.898H484.504L481.812 125H452.918V99.4062L459.164 98.1367L474.145 47H516.09L531.121 98.1367L537.367 99.4062V125H508.473ZM488.871 94.4805H501.363L495.117 65.0781L488.871 94.4805Z" fill="black"/>
<path d="M52.6152 239.066L25.6548 167.94L15.6353 166.358V137.75H79.6416V166.358L72.3906 167.94L83.7944 205.448L95.1982 167.94L87.9473 166.358V137.75H151.954V166.358L144.703 167.94L156.106 205.448L167.51 167.94L160.259 166.358V137.75H208.775V166.358L198.821 167.94L171.861 239.066H124.927L112.205 200.306L99.5488 239.066H52.6152ZM278.187 239L274.627 221.993H247.073L243.58 239H206.072V205.777L214.18 204.129L233.626 137.75H288.074L307.586 204.129L315.694 205.777V239H278.187ZM252.742 199.383H268.958L260.85 161.217L252.742 199.383ZM435.862 239H393.938C392.62 236.495 391.258 233.836 389.852 231.024C388.445 228.211 387.083 225.289 385.765 222.257C384.446 219.225 383.216 216.083 382.073 212.831C380.931 209.579 379.964 206.239 379.173 202.811H376.866V239H326.241V210.392L334.678 208.744V168.006L326.241 166.358V137.75H383.655C391.258 137.75 397.828 138.102 403.365 138.805C408.902 139.508 413.604 140.519 417.471 141.837C421.338 143.111 424.458 144.693 426.832 146.583C429.249 148.429 431.116 150.538 432.435 152.911C433.797 155.24 434.698 157.811 435.137 160.624C435.621 163.392 435.862 166.336 435.862 169.457C435.862 172.621 435.555 175.499 434.939 178.092C434.368 180.641 433.335 182.992 431.841 185.145C430.347 187.298 428.304 189.276 425.711 191.078C423.118 192.835 419.822 194.505 415.823 196.087C416.658 197.845 417.911 199.911 419.581 202.284C421.25 204.613 423.052 207.008 424.986 209.469C426.919 211.886 428.853 214.259 430.787 216.588C432.764 218.873 434.456 220.829 435.862 222.455V239ZM376.866 183.365C379.415 183.365 381.722 183.255 383.787 183.036C385.896 182.816 387.676 182.311 389.126 181.52C390.621 180.729 391.763 179.564 392.554 178.026C393.345 176.488 393.741 174.422 393.741 171.83C393.741 169.281 393.345 167.259 392.554 165.765C391.763 164.227 390.621 163.041 389.126 162.206C387.676 161.371 385.896 160.821 383.787 160.558C381.722 160.294 379.415 160.162 376.866 160.162V183.365ZM534.278 207.228C534.234 211.578 533.597 215.445 532.366 218.829C531.18 222.169 529.51 225.069 527.356 227.53C525.203 229.947 522.676 232.013 519.776 233.727C516.875 235.396 513.755 236.759 510.416 237.813C507.076 238.824 503.56 239.461 499.869 239.725C496.221 240.033 492.552 240.187 488.86 240.187C482.181 240.187 476.314 239.923 471.26 239.396C468.36 239.044 464.031 238.077 458.274 236.495C453.572 235.221 449.881 233.88 447.2 232.474V206.437H467.042C469.327 209.601 471.897 211.93 474.754 213.424C477.654 214.918 480.621 215.665 483.653 215.665C484.444 215.665 485.323 215.599 486.29 215.467C487.256 215.335 488.157 214.962 488.992 214.347C489.871 213.731 490.596 212.765 491.167 211.446C491.783 210.128 492.09 208.282 492.09 205.909C488.311 205.558 484.554 205.052 480.818 204.393C477.127 203.734 473.589 202.833 470.206 201.69C466.822 200.548 463.658 199.12 460.713 197.406C457.813 195.648 455.286 193.539 453.133 191.078C451.023 188.617 449.354 185.738 448.123 182.442C446.937 179.103 446.343 175.257 446.343 170.907C446.343 166.249 446.958 162.162 448.189 158.646C449.419 155.086 451.089 152.032 453.199 149.483C455.352 146.891 457.857 144.759 460.713 143.089C463.614 141.375 466.712 140.013 470.008 139.002C473.348 137.992 476.797 137.354 480.357 137.091C483.96 136.827 487.542 136.695 491.102 136.695C496.287 136.695 500.945 136.893 505.076 137.289C509.251 137.64 513.008 138.211 516.348 139.002C519.688 139.793 522.632 140.694 525.181 141.705C527.774 142.672 530.081 143.617 532.103 144.54V170.248H512.261C510.02 167.083 507.515 164.754 504.747 163.26C502.022 161.766 499.209 161.019 496.309 161.019C495.518 161.019 494.617 161.129 493.606 161.349C492.596 161.524 491.651 161.986 490.772 162.733C489.893 163.436 489.146 164.491 488.531 165.897C487.916 167.259 487.608 169.127 487.608 171.5C495.298 171.764 502.066 172.599 507.911 174.005C513.755 175.411 518.611 177.542 522.479 180.399C526.39 183.211 529.334 186.837 531.312 191.275C533.289 195.67 534.278 200.987 534.278 207.228Z" fill="black"/>
<path d="M36.192 310.269V284.865C36.192 283.794 35.5837 283.259 34.367 283.259H31.301C30.0843 283.259 29.476 283.794 29.476 284.865V310.269C29.476 311.34 30.0843 311.875 31.301 311.875H34.367C35.5837 311.875 36.192 311.34 36.192 310.269ZM27.432 274.134H38.236C45.39 274.134 48.967 277.151 48.967 283.186V311.948C48.967 317.983 45.39 321 38.236 321H27.432C20.278 321 16.701 317.983 16.701 311.948V283.186C16.701 277.151 20.278 274.134 27.432 274.134ZM74.1976 294.939V284.865C74.1976 283.794 73.5893 283.259 72.3726 283.259H67.3356V296.545H72.3726C73.5893 296.545 74.1976 296.01 74.1976 294.939ZM54.5606 274.134H76.2416C83.3956 274.134 86.9726 277.151 86.9726 283.186V296.618C86.9726 302.653 83.3956 305.67 76.2416 305.67H67.3356V321H54.5606V274.134ZM119.962 260.775L110.253 271.725H100.471L107.552 260.775H119.962ZM104.121 311.875H120.108V321H91.3458V274.134H119.451V283.259H104.121V292.822H117.334V301.947H104.121V311.875ZM141.951 283.259H136.914V295.669H141.951C143.167 295.669 143.776 295.134 143.776 294.063V284.865C143.776 283.794 143.167 283.259 141.951 283.259ZM136.914 304.356V321H124.139V274.134H145.82C152.974 274.134 156.551 277.151 156.551 283.186V295.304C156.551 299.927 154.458 302.774 150.273 303.845L158.887 321H145.163L137.717 304.356H136.914ZM174.777 304.94H182.077L178.5 288.077L174.777 304.94ZM185.508 321L184.048 313.992H172.806L171.273 321H158.717L170.762 274.134H186.311L198.356 321H185.508ZM229.525 274.134V283.259H220.473V321H207.698V283.259H198.719V274.134H229.525ZM232.783 274.134H245.558V321H232.783V274.134ZM270.662 310.269V284.865C270.662 283.794 270.053 283.259 268.837 283.259H265.771C264.554 283.259 263.946 283.794 263.946 284.865V310.269C263.946 311.34 264.554 311.875 265.771 311.875H268.837C270.053 311.875 270.662 311.34 270.662 310.269ZM261.902 274.134H272.706C279.86 274.134 283.437 277.151 283.437 283.186V311.948C283.437 317.983 279.86 321 272.706 321H261.902C254.748 321 251.171 317.983 251.171 311.948V283.186C251.171 277.151 254.748 274.134 261.902 274.134ZM310.419 274.134H322.099V321H311.149L300.71 296.399V321H289.03V274.134H299.98L310.419 299.173V274.134ZM353.956 321H342.568V274.134H356.511L364.103 299.173L371.695 274.134H385.638V321H374.323V291.216L368.483 310.853H359.723L353.956 291.362V321ZM404.613 304.94H411.913L408.336 288.077L404.613 304.94ZM415.344 321L413.884 313.992H402.642L401.109 321H388.553L400.598 274.134H416.147L428.192 321H415.344ZM452.498 274.134H464.178V321H453.228L442.789 296.399V321H431.109V274.134H442.059L452.498 299.173V274.134ZM498.284 274.134V283.259H489.232V321H476.457V283.259H467.478V274.134H498.284ZM514.683 304.94H521.983L518.406 288.077L514.683 304.94ZM525.414 321L523.954 313.992H512.712L511.179 321H498.623L510.668 274.134H526.217L538.262 321H525.414Z" fill="black"/>
</svg>
