<svg width="735" height="184" viewBox="0 0 735 184" fill="none" xmlns="http://www.w3.org/2000/svg">
<path d="M70 177C70 177 249.931 182 365.25 182C480.569 182 660.5 177 660.5 177" stroke="black" stroke-width="4"/>
<path d="M71 118.5V176.5C71 177.052 70.5523 177.5 70 177.5H36M36 177.5H16C15.4477 177.5 15 177.052 15 176.5V129.414C15 129.149 15.1054 128.895 15.2929 128.707L34.2929 109.707C34.9229 109.077 36 109.523 36 110.414V177.5Z" stroke="black" stroke-width="4"/>
<path d="M661 121.5V179.5C661 180.052 661.448 180.5 662 180.5H696M696 180.5H716C716.552 180.5 717 180.052 717 179.5V132.414C717 132.149 716.895 131.895 716.707 131.707L697.707 112.707C697.077 112.077 696 112.523 696 113.414V180.5Z" stroke="black" stroke-width="4"/>
<path d="M38 72H64.5C65.0523 72 65.5 72.4477 65.5 73V115.833C65.5 116.491 64.8763 116.969 64.2412 116.799L37.7412 109.699C37.304 109.581 37 109.185 37 108.733V73C37 72.4477 37.4477 72 38 72Z" stroke="black" stroke-width="4"/>
<path d="M40.163 67H69.9995C70.5518 67 70.9995 67.4477 70.9995 68V125.577C70.9995 126.243 70.3611 126.722 69.7216 126.537L37.4799 117.209C37.0522 117.085 36.7578 116.694 36.7578 116.248V73.7023C36.7578 73.5688 36.7845 73.4366 36.8364 73.3136L39.2416 67.6114C39.3979 67.2409 39.7609 67 40.163 67Z" stroke="black" stroke-width="4"/>
<path d="M694 73H667.5C666.948 73 666.5 73.4477 666.5 74V116.833C666.5 117.491 667.124 117.969 667.759 117.799L694.259 110.699C694.696 110.581 695 110.185 695 109.733V74C695 73.4477 694.552 73 694 73Z" stroke="black" stroke-width="4"/>
<path d="M691.837 68H662.001C661.448 68 661.001 68.4477 661.001 69V126.577C661.001 127.243 661.639 127.722 662.278 127.537L694.52 118.209C694.948 118.085 695.242 117.694 695.242 117.248V74.7023C695.242 74.5688 695.215 74.4366 695.164 74.3136L692.758 68.6114C692.602 68.2409 692.239 68 691.837 68Z" stroke="black" stroke-width="4"/>
<path d="M637 65.5H96.5C93.7386 65.5 91.5 67.7386 91.5 70.5V124.929C91.5 126.255 92.0268 127.527 92.9645 128.464L111.536 147.036C112.473 147.973 113.745 148.5 115.071 148.5H621.429C622.755 148.5 624.027 147.973 624.964 147.036L640.536 131.464C641.473 130.527 642 129.255 642 127.929V70.5C642 67.7386 639.761 65.5 637 65.5Z" stroke="black" stroke-width="4"/>
<circle cx="138.5" cy="106.5" r="37.5" stroke="black" stroke-width="4"/>
<circle cx="596.5" cy="106.5" r="37.5" stroke="black" stroke-width="4"/>
<mask id="mask0_1708_79" style="mask-type:alpha" maskUnits="userSpaceOnUse" x="0" y="44" width="735" height="119">
<line x1="150.383" y1="45.0763" x2="432.383" y2="162.076" stroke="black" stroke-width="2"/>
<line x1="197.383" y1="45.0763" x2="479.383" y2="162.076" stroke="black" stroke-width="2"/>
<line x1="244.383" y1="45.0763" x2="526.383" y2="162.076" stroke="black" stroke-width="2"/>
<line x1="291.383" y1="45.0763" x2="573.383" y2="162.076" stroke="black" stroke-width="2"/>
<line x1="338.383" y1="45.0763" x2="620.383" y2="162.076" stroke="black" stroke-width="2"/>
<line x1="385.383" y1="45.0763" x2="667.383" y2="162.076" stroke="black" stroke-width="2"/>
<line x1="432.383" y1="45.0763" x2="714.383" y2="162.076" stroke="black" stroke-width="2"/>
<line x1="100.383" y1="45.0763" x2="382.383" y2="162.076" stroke="black" stroke-width="2"/>
<line x1="50.3832" y1="45.0763" x2="332.383" y2="162.076" stroke="black" stroke-width="2"/>
<line x1="0.38322" y1="45.0763" x2="282.383" y2="162.076" stroke="black" stroke-width="2"/>
<line y1="-1" x2="305.308" y2="-1" transform="matrix(-0.923657 0.38322 0.38322 0.923657 585 46)" stroke="black" stroke-width="2"/>
<line y1="-1" x2="305.308" y2="-1" transform="matrix(-0.923657 0.38322 0.38322 0.923657 538 46)" stroke="black" stroke-width="2"/>
<line y1="-1" x2="305.308" y2="-1" transform="matrix(-0.923657 0.38322 0.38322 0.923657 491 46)" stroke="black" stroke-width="2"/>
<line y1="-1" x2="305.308" y2="-1" transform="matrix(-0.923657 0.38322 0.38322 0.923657 444 46)" stroke="black" stroke-width="2"/>
<line y1="-1" x2="305.308" y2="-1" transform="matrix(-0.923657 0.38322 0.38322 0.923657 397 46)" stroke="black" stroke-width="2"/>
<line y1="-1" x2="305.308" y2="-1" transform="matrix(-0.923657 0.38322 0.38322 0.923657 350 46)" stroke="black" stroke-width="2"/>
<line y1="-1" x2="305.308" y2="-1" transform="matrix(-0.923657 0.38322 0.38322 0.923657 303 46)" stroke="black" stroke-width="2"/>
<line y1="-1" x2="305.308" y2="-1" transform="matrix(-0.923657 0.38322 0.38322 0.923657 635 46)" stroke="black" stroke-width="2"/>
<line y1="-1" x2="305.308" y2="-1" transform="matrix(-0.923657 0.38322 0.38322 0.923657 685 46)" stroke="black" stroke-width="2"/>
<line y1="-1" x2="305.308" y2="-1" transform="matrix(-0.923657 0.38322 0.38322 0.923657 735 46)" stroke="black" stroke-width="2"/>
</mask>
<g mask="url(#mask0_1708_79)">
<path opacity="0.5" d="M526 68C526 68 529 91.7246 529 107C529 122.275 526 146 526 146H204C204 146 201 122.275 201 107C201 91.7246 204 68 204 68H526ZM296 90V115H436V90H296Z" fill="black"/>
</g>
<path d="M299 97.2937V94.2395H318.665V97.2937H311.335V111.76H306.331V97.2937H299Z" fill="black"/>
<path d="M342.814 103C342.814 104.911 342.319 106.536 341.329 107.876C340.347 109.217 339.007 110.24 337.307 110.948C335.616 111.649 333.714 112 331.602 112C329.474 112 327.564 111.646 325.873 110.939C324.182 110.232 322.845 109.208 321.863 107.868C320.881 106.528 320.39 104.905 320.39 103C320.39 101.089 320.881 99.4639 321.863 98.1236C322.845 96.7833 324.182 95.7624 325.873 95.0608C327.564 94.3536 329.474 94 331.602 94C333.714 94 335.616 94.3536 337.307 95.0608C339.007 95.7624 340.347 96.7833 341.329 98.1236C342.319 99.4639 342.814 101.089 342.814 103ZM337.682 103C337.682 101.762 337.428 100.719 336.922 99.8688C336.423 99.019 335.717 98.3745 334.805 97.9354C333.893 97.4962 332.826 97.2766 331.602 97.2766C330.378 97.2766 329.31 97.4962 328.398 97.9354C327.487 98.3745 326.777 99.019 326.271 99.8688C325.772 100.719 325.522 101.762 325.522 103C325.522 104.238 325.772 105.281 326.271 106.131C326.777 106.981 327.487 107.625 328.398 108.065C329.31 108.504 330.378 108.723 331.602 108.723C332.826 108.723 333.893 108.504 334.805 108.065C335.717 107.625 336.423 106.981 336.922 106.131C337.428 105.281 337.682 104.238 337.682 103Z" fill="black"/>
<path d="M343.714 94.2395H349.385L354.845 101.785H355.079L360.539 94.2395H366.209L357.475 105.567V111.76H352.448V105.567L343.714 94.2395Z" fill="black"/>
<path d="M389.531 103C389.531 104.911 389.036 106.536 388.046 107.876C387.064 109.217 385.723 110.24 384.024 110.948C382.333 111.649 380.431 112 378.319 112C376.191 112 374.281 111.646 372.59 110.939C370.898 110.232 369.562 109.208 368.579 107.868C367.597 106.528 367.106 104.905 367.106 103C367.106 101.089 367.597 99.4639 368.579 98.1236C369.562 96.7833 370.898 95.7624 372.59 95.0608C374.281 94.3536 376.191 94 378.319 94C380.431 94 382.333 94.3536 384.024 95.0608C385.723 95.7624 387.064 96.7833 388.046 98.1236C389.036 99.4639 389.531 101.089 389.531 103ZM384.398 103C384.398 101.762 384.145 100.719 383.638 99.8688C383.139 99.019 382.434 98.3745 381.522 97.9354C380.61 97.4962 379.542 97.2766 378.319 97.2766C377.095 97.2766 376.027 97.4962 375.115 97.9354C374.203 98.3745 373.494 99.019 372.987 99.8688C372.488 100.719 372.239 101.762 372.239 103C372.239 104.238 372.488 105.281 372.987 106.131C373.494 106.981 374.203 107.625 375.115 108.065C376.027 108.504 377.095 108.723 378.319 108.723C379.542 108.723 380.61 108.504 381.522 108.065C382.434 107.625 383.139 106.981 383.638 106.131C384.145 105.281 384.398 104.238 384.398 103Z" fill="black"/>
<path d="M391.276 97.2937V94.2395H410.941V97.2937H403.61V111.76H398.606V97.2937H391.276Z" fill="black"/>
<path d="M415.381 111.76H409.956L418.222 94.2395H424.746L433 111.76H427.575L421.577 98.2433H421.39L415.381 111.76ZM415.042 104.874H427.856V107.765H415.042V104.874Z" fill="black"/>
<path d="M524.205 65C524.279 65.6925 524.374 66.5706 524.479 67.6045C524.76 70.3431 525.133 74.1721 525.507 78.5312C526.256 87.2659 527 98.0708 527 106.5C527 114.929 526.256 125.734 525.507 134.469C525.133 138.828 524.76 142.657 524.479 145.396C524.374 146.429 524.279 147.308 524.205 148H205.795C205.721 147.308 205.626 146.429 205.521 145.396C205.24 142.657 204.867 138.828 204.493 134.469C203.744 125.734 203 114.929 203 106.5C203 98.0708 203.744 87.2659 204.493 78.5312C204.867 74.1721 205.24 70.3431 205.521 67.6045C205.626 66.5706 205.721 65.6925 205.795 65H524.205Z" stroke="black" stroke-width="4"/>
<path d="M72 65.9999L68.6964 59.8646C68.5706 59.6311 68.5428 59.3572 68.619 59.1032L83.2862 10.2126C83.4131 9.78961 83.8024 9.49994 84.244 9.49994H92.5M660.5 65L662.876 58.823C662.956 58.6138 662.964 58.3835 662.898 58.1693L648.718 12.2052C648.588 11.786 648.201 11.5 647.762 11.5H640M640 11.5H575.42C575.155 11.5 574.9 11.3946 574.713 11.2071L565.793 2.28728C565.605 2.09974 565.351 1.99438 565.086 1.99438H426.42C426.155 1.99438 425.9 2.09974 425.713 2.28728L416.793 11.2071C416.605 11.3946 416.351 11.5 416.086 11.5H314.92C314.655 11.5 314.4 11.3946 314.213 11.2071L305.293 2.28728C305.105 2.09974 304.851 1.99438 304.586 1.99438H169.268C169.092 1.99438 168.92 2.04059 168.768 2.12836L156.232 9.36596C156.08 9.45373 155.908 9.49994 155.732 9.49994H92.5M640 11.5L643.908 57.4152C643.957 57.9988 643.497 58.5 642.911 58.5H519.914C519.649 58.5 519.395 58.3946 519.207 58.2071L505.293 44.2929C505.105 44.1054 504.851 44 504.586 44H228.377C228.134 44 227.899 44.0885 227.717 44.2488L211.786 58.2483C211.602 58.4104 211.364 58.499 211.119 58.4971L89.0897 57.576C88.5036 57.5715 88.0469 57.0663 88.1016 56.4828L92.5 9.49994" stroke="black" stroke-width="4"/>
<rect x="317" y="158" width="101" height="16" rx="1" stroke="black" stroke-width="4"/>
<path d="M306 158H209.416C208.608 158 208.133 158.909 208.595 159.572L218.702 174.072C218.889 174.34 219.195 174.5 219.522 174.5H306C306.552 174.5 307 174.052 307 173.5V159C307 158.448 306.552 158 306 158Z" stroke="black" stroke-width="4"/>
<path d="M428 158H524.584C525.392 158 525.867 158.909 525.405 159.572L515.298 174.072C515.111 174.34 514.805 174.5 514.478 174.5H428C427.448 174.5 427 174.052 427 173.5V159C427 158.448 427.448 158 428 158Z" stroke="black" stroke-width="4"/>
<path d="M553.5 65.5V148.5" stroke="black" stroke-width="4"/>
<path d="M182 65V148" stroke="black" stroke-width="4"/>
<path d="M661 176V66C661 65.4477 660.552 65 660 65H72C71.4477 65 71 65.4477 71 66V158.578" stroke="black" stroke-width="4"/>
</svg>
