<svg id="svg" version="1.1" xmlns="http://www.w3.org/2000/svg" xmlns:xlink="http://www.w3.org/1999/xlink" width="400" height="400" viewBox="0, 0, 400,400"><g id="svgg"><path id="path0" d="M174.489 37.003 L 174.600 49.607 124.704 49.503 C 83.451 49.418,74.773 49.492,74.604 49.933 C 74.492 50.226,74.400 55.851,74.400 62.433 L 74.400 74.400 62.433 74.400 C 55.851 74.400,50.226 74.492,49.933 74.604 C 49.502 74.769,49.421 77.174,49.511 87.215 L 49.622 99.622 37.215 99.511 C 27.174 99.421,24.769 99.502,24.604 99.933 C 24.492 100.226,24.400 151.123,24.400 213.038 L 24.400 325.611 37.500 325.505 L 50.600 325.400 50.600 288.000 L 50.600 250.600 62.500 250.711 L 74.400 250.823 74.400 313.213 L 74.400 375.604 112.500 375.502 L 150.600 375.400 150.600 338.000 L 150.600 300.600 162.500 300.711 L 174.400 300.823 174.400 338.213 L 174.400 375.604 212.500 375.502 L 250.600 375.400 250.702 325.500 L 250.803 275.600 263.202 275.600 L 275.600 275.600 275.600 263.200 L 275.600 250.800 300.000 250.800 L 324.400 250.800 324.400 287.600 L 324.400 324.400 312.433 324.400 C 305.851 324.400,300.226 324.492,299.933 324.604 C 299.263 324.862,299.328 350.267,299.999 350.100 C 300.219 350.045,300.400 350.180,300.400 350.400 C 300.400 351.248,349.372 350.915,350.144 350.062 C 350.755 349.386,350.803 347.251,350.706 324.962 L 350.600 300.600 363.000 300.600 L 375.400 300.600 375.509 175.800 C 375.569 107.160,375.532 50.640,375.427 50.200 C 375.240 49.419,374.952 49.403,363.018 49.511 L 350.800 49.623 350.800 37.254 C 350.800 26.345,350.725 24.857,350.167 24.643 C 349.819 24.509,310.124 24.400,261.956 24.400 L 174.378 24.400 174.489 37.003 M324.489 87.600 L 324.600 99.600 312.700 99.600 L 300.800 99.600 300.800 87.600 L 300.800 75.600 312.589 75.600 L 324.377 75.600 324.489 87.600 " stroke="none" fill="#f4b43c" fill-rule="evenodd"></path><path id="path1" d="M100.131 49.500 C 113.953 49.558,136.453 49.558,150.131 49.500 C 163.809 49.442,152.500 49.394,125.000 49.394 C 97.500 49.394,86.309 49.442,100.131 49.500 M356.700 49.499 C 360.055 49.566,365.545 49.566,368.900 49.499 C 372.255 49.432,369.510 49.378,362.800 49.378 C 356.090 49.378,353.345 49.432,356.700 49.499 M49.200 87.194 L 49.200 99.188 37.100 99.300 L 25.000 99.412 37.300 99.506 L 49.600 99.600 49.600 87.400 C 49.600 80.690,49.510 75.200,49.400 75.200 C 49.290 75.200,49.200 80.597,49.200 87.194 M306.700 99.499 C 310.055 99.566,315.545 99.566,318.900 99.499 C 322.255 99.432,319.510 99.378,312.800 99.378 C 306.090 99.378,303.345 99.432,306.700 99.499 M299.378 337.400 C 299.378 344.220,299.432 347.066,299.499 343.725 C 299.566 340.384,299.566 334.804,299.499 331.325 C 299.433 327.846,299.378 330.580,299.378 337.400 M350.000 350.200 C 349.592 350.691,349.620 350.800,350.151 350.800 C 350.508 350.800,350.800 350.530,350.800 350.200 C 350.800 349.870,350.732 349.600,350.649 349.600 C 350.566 349.600,350.274 349.870,350.000 350.200 " stroke="none" fill="#f8b43c" fill-rule="evenodd"></path><path id="path2" d="M100.131 49.500 C 113.953 49.558,136.453 49.558,150.131 49.500 C 163.809 49.442,152.500 49.394,125.000 49.394 C 97.500 49.394,86.309 49.442,100.131 49.500 M356.700 49.499 C 360.055 49.566,365.545 49.566,368.900 49.499 C 372.255 49.432,369.510 49.378,362.800 49.378 C 356.090 49.378,353.345 49.432,356.700 49.499 M49.200 87.194 L 49.200 99.188 37.100 99.300 L 25.000 99.412 37.300 99.506 L 49.600 99.600 49.600 87.400 C 49.600 80.690,49.510 75.200,49.400 75.200 C 49.290 75.200,49.200 80.597,49.200 87.194 M306.700 99.499 C 310.055 99.566,315.545 99.566,318.900 99.499 C 322.255 99.432,319.510 99.378,312.800 99.378 C 306.090 99.378,303.345 99.432,306.700 99.499 M299.378 337.400 C 299.378 344.220,299.432 347.066,299.499 343.725 C 299.566 340.384,299.566 334.804,299.499 331.325 C 299.433 327.846,299.378 330.580,299.378 337.400 M350.000 350.200 C 349.592 350.691,349.620 350.800,350.151 350.800 C 350.508 350.800,350.800 350.530,350.800 350.200 C 350.800 349.870,350.732 349.600,350.649 349.600 C 350.566 349.600,350.274 349.870,350.000 350.200 " stroke="none" fill="#f8b43c" fill-rule="evenodd"></path><path id="path3" d="M100.131 49.500 C 113.953 49.558,136.453 49.558,150.131 49.500 C 163.809 49.442,152.500 49.394,125.000 49.394 C 97.500 49.394,86.309 49.442,100.131 49.500 M356.700 49.499 C 360.055 49.566,365.545 49.566,368.900 49.499 C 372.255 49.432,369.510 49.378,362.800 49.378 C 356.090 49.378,353.345 49.432,356.700 49.499 M49.200 87.194 L 49.200 99.188 37.100 99.300 L 25.000 99.412 37.300 99.506 L 49.600 99.600 49.600 87.400 C 49.600 80.690,49.510 75.200,49.400 75.200 C 49.290 75.200,49.200 80.597,49.200 87.194 M306.700 99.499 C 310.055 99.566,315.545 99.566,318.900 99.499 C 322.255 99.432,319.510 99.378,312.800 99.378 C 306.090 99.378,303.345 99.432,306.700 99.499 M299.378 337.400 C 299.378 344.220,299.432 347.066,299.499 343.725 C 299.566 340.384,299.566 334.804,299.499 331.325 C 299.433 327.846,299.378 330.580,299.378 337.400 M350.000 350.200 C 349.592 350.691,349.620 350.800,350.151 350.800 C 350.508 350.800,350.800 350.530,350.800 350.200 C 350.800 349.870,350.732 349.600,350.649 349.600 C 350.566 349.600,350.274 349.870,350.000 350.200 " stroke="none" fill="#f8b43c" fill-rule="evenodd"></path><path id="path4" d="M100.131 49.500 C 113.953 49.558,136.453 49.558,150.131 49.500 C 163.809 49.442,152.500 49.394,125.000 49.394 C 97.500 49.394,86.309 49.442,100.131 49.500 M356.700 49.499 C 360.055 49.566,365.545 49.566,368.900 49.499 C 372.255 49.432,369.510 49.378,362.800 49.378 C 356.090 49.378,353.345 49.432,356.700 49.499 M49.200 87.194 L 49.200 99.188 37.100 99.300 L 25.000 99.412 37.300 99.506 L 49.600 99.600 49.600 87.400 C 49.600 80.690,49.510 75.200,49.400 75.200 C 49.290 75.200,49.200 80.597,49.200 87.194 M306.700 99.499 C 310.055 99.566,315.545 99.566,318.900 99.499 C 322.255 99.432,319.510 99.378,312.800 99.378 C 306.090 99.378,303.345 99.432,306.700 99.499 M299.378 337.400 C 299.378 344.220,299.432 347.066,299.499 343.725 C 299.566 340.384,299.566 334.804,299.499 331.325 C 299.433 327.846,299.378 330.580,299.378 337.400 M350.000 350.200 C 349.592 350.691,349.620 350.800,350.151 350.800 C 350.508 350.800,350.800 350.530,350.800 350.200 C 350.800 349.870,350.732 349.600,350.649 349.600 C 350.566 349.600,350.274 349.870,350.000 350.200 " stroke="none" fill="#f8b43c" fill-rule="evenodd"></path></g></svg>