<svg id="svg" xmlns="http://www.w3.org/2000/svg" xmlns:xlink="http://www.w3.org/1999/xlink" width="400" height="399.83058026260056" viewBox="0, 0, 400,399.83058026260056"><g id="svgg"><path id="path0" d="M189.496 0.188 C 83.233 5.576,0.077 93.265,0.095 199.915 C 0.114 321.318,106.301 414.065,226.938 398.045 C 332.124 384.078,408.247 289.054,399.232 182.973 C 390.090 75.402,297.502 -5.289,189.496 0.188 M205.252 49.966 C 239.242 54.969,248.382 99.950,219.046 117.850 C 191.151 134.871,156.351 108.999,164.352 77.188 C 168.081 62.362,180.447 51.676,196.103 49.753 C 197.838 49.540,203.208 49.665,205.252 49.966 M206.428 137.594 C 221.400 140.132,232.945 152.156,234.311 166.634 C 234.639 170.100,234.401 320.489,234.065 322.490 C 231.297 338.988,215.625 351.001,198.362 349.855 C 180.087 348.642,168.828 339.203,166.427 323.083 C 166.123 321.042,165.943 170.059,166.240 166.878 C 168.017 147.906,186.745 134.258,206.428 137.594 " stroke="none" fill="#000000" fill-rule="evenodd"></path></g></svg>