<svg id="svg" xmlns="http://www.w3.org/2000/svg" xmlns:xlink="http://www.w3.org/1999/xlink" width="400" height="360.84656084656086" viewBox="0, 0, 400,360.84656084656086"><g id="svgg"><path id="path0" d="M91.019 0.926 C 90.906 1.071,70.480 36.483,45.629 79.618 L 0.444 158.046 0.966 158.983 C 1.254 159.499,17.592 187.822,37.275 221.923 L 73.061 283.926 72.160 284.886 C 51.718 306.679,58.837 343.188,86.043 356.078 C 114.918 369.759,148.365 350.024,150.430 318.086 L 150.607 315.345 211.824 315.278 L 273.040 315.212 306.031 257.873 C 329.771 216.611,339.132 200.562,339.418 200.634 C 339.636 200.689,340.858 201.041,342.133 201.417 C 374.221 210.884,405.506 181.917,398.690 149.054 C 393.346 123.289,367.022 107.340,342.063 114.748 C 340.827 115.115,339.599 115.429,339.335 115.446 C 338.965 115.469,331.311 102.409,305.865 58.333 L 272.876 1.190 269.061 0.999 C 262.880 0.689,91.258 0.619,91.019 0.926 M263.378 17.263 C 263.610 17.519,321.554 117.816,324.297 122.710 L 324.940 123.859 322.569 126.281 C 304.949 144.277,304.978 171.754,322.636 189.947 L 325.075 192.460 294.241 245.966 L 263.408 299.471 205.561 299.471 L 147.715 299.471 146.833 297.421 C 137.338 275.332,111.967 264.721,89.168 273.302 C 87.649 273.874,86.315 274.252,86.206 274.142 C 86.005 273.940,19.320 158.474,19.229 158.170 C 19.202 158.080,37.485 126.235,59.857 87.403 L 100.534 16.799 181.807 16.866 C 246.251 16.920,263.141 17.002,263.378 17.263 M360.394 124.204 C 387.865 128.994,398.388 162.792,378.564 182.558 C 360.816 200.255,329.907 192.933,321.984 169.155 C 313.733 144.391,334.797 119.740,360.394 124.204 M112.037 281.611 C 139.011 287.188,149.093 320.128,129.775 339.562 C 108.258 361.207,71.172 345.954,71.165 315.457 C 71.160 293.747,91.055 277.272,112.037 281.611 " stroke="none" fill="#000000" fill-rule="evenodd"></path></g></svg>