<svg id="svg" xmlns="http://www.w3.org/2000/svg" xmlns:xlink="http://www.w3.org/1999/xlink" width="400" height="88.97535667963683" viewBox="0, 0, 400,88.97535667963683"><g id="svgg"><path id="path0" d="M178.210 31.811 C 174.251 38.676,171.012 44.383,171.012 44.494 C 171.012 44.604,174.251 50.309,178.210 57.171 L 185.409 69.648 200.000 69.648 L 214.591 69.648 221.790 57.171 C 225.749 50.309,228.988 44.604,228.988 44.494 C 228.988 44.383,225.749 38.676,221.790 31.811 L 214.591 19.329 200.000 19.329 L 185.409 19.329 178.210 31.811 M203.188 28.696 L 213.223 33.787 213.226 38.804 C 213.230 44.407,213.281 44.115,212.331 43.906 C 212.105 43.856,211.921 43.883,211.865 43.973 C 211.809 44.064,211.610 44.091,211.352 44.043 C 210.826 43.944,210.579 44.195,210.693 44.713 C 210.755 44.996,210.685 45.196,210.384 45.594 C 210.170 45.877,209.993 46.235,209.991 46.390 C 209.988 46.572,209.874 46.709,209.664 46.779 C 209.355 46.883,209.350 46.902,209.535 47.259 C 209.799 47.767,209.796 47.775,209.202 48.341 L 208.676 48.841 208.839 49.453 L 209.003 50.064 208.505 50.574 C 207.961 51.131,207.908 51.658,208.429 51.333 C 208.812 51.094,209.414 51.446,209.378 51.888 C 209.336 52.400,209.453 52.764,209.747 53.038 C 209.960 53.237,210.004 53.386,209.941 53.701 C 209.842 54.197,210.028 54.577,210.449 54.737 C 211.257 55.044,210.682 56.291,209.749 56.257 C 208.926 56.227,207.902 56.740,207.765 57.250 C 207.670 57.606,205.057 60.311,204.808 60.311 C 204.742 60.311,204.587 60.412,204.465 60.534 C 204.158 60.841,202.696 61.203,201.726 61.212 C 200.956 61.219,200.550 61.399,200.955 61.554 C 201.352 61.707,201.262 62.007,200.561 62.865 C 199.773 63.829,199.622 63.911,198.598 63.930 C 197.811 63.945,196.784 64.169,196.498 64.388 C 195.753 64.959,195.042 65.083,194.778 64.689 C 194.591 64.408,194.574 64.406,194.327 64.627 C 193.483 65.385,191.493 65.410,191.781 64.658 C 191.813 64.575,191.662 64.132,191.445 63.674 C 191.228 63.215,191.051 62.742,191.051 62.622 C 191.051 62.502,190.811 62.239,190.518 62.038 C 189.548 61.372,189.087 60.920,188.574 60.132 C 187.973 59.206,187.980 59.271,188.406 58.626 L 188.745 58.114 190.180 58.196 L 191.615 58.278 191.283 57.836 C 190.584 56.902,190.491 56.583,190.570 55.373 C 190.640 54.294,190.584 53.823,190.287 52.983 C 190.212 52.769,190.119 52.437,190.081 52.246 C 190.043 52.055,189.901 51.863,189.764 51.819 C 189.628 51.776,189.457 51.572,189.385 51.366 C 189.282 51.071,189.164 50.982,188.831 50.949 C 187.596 50.829,186.291 47.541,187.142 46.690 C 187.346 46.486,187.551 46.130,187.597 45.899 C 187.707 45.348,189.264 43.278,190.609 41.894 L 191.681 40.791 191.742 39.559 C 191.931 35.784,192.329 32.824,192.720 32.292 L 192.961 31.965 192.460 31.400 C 192.100 30.995,191.958 30.718,191.958 30.421 C 191.958 30.142,191.848 29.903,191.622 29.692 C 191.113 29.215,191.012 28.945,190.965 27.928 C 190.941 27.415,190.863 26.842,190.791 26.654 C 190.720 26.466,190.661 25.998,190.661 25.613 L 190.661 24.913 191.861 24.277 C 192.521 23.927,193.082 23.632,193.107 23.623 C 193.132 23.613,197.669 25.897,203.188 28.696 M297.222 38.253 L 296.066 40.293 293.817 40.731 C 292.581 40.971,291.571 41.200,291.572 41.239 C 291.573 41.278,292.273 42.069,293.126 42.996 C 294.407 44.388,294.668 44.739,294.622 45.006 C 294.467 45.906,294.141 49.178,294.201 49.238 C 294.238 49.275,294.450 49.212,294.671 49.098 C 294.893 48.983,295.819 48.551,296.730 48.137 L 298.386 47.384 300.458 48.323 C 302.886 49.424,302.708 49.537,302.409 47.082 C 302.095 44.501,301.993 44.824,303.696 42.966 C 304.517 42.071,305.188 41.302,305.188 41.257 C 305.188 41.212,304.181 40.972,302.951 40.724 L 300.713 40.272 299.639 38.392 C 299.048 37.357,298.523 36.444,298.472 36.362 C 298.418 36.276,297.895 37.067,297.222 38.253 M100.439 38.351 L 99.287 40.394 97.049 40.837 C 95.819 41.081,94.812 41.317,94.812 41.360 C 94.812 41.404,95.501 42.194,96.343 43.115 L 97.873 44.790 97.638 46.747 C 97.509 47.823,97.418 48.856,97.437 49.043 L 97.471 49.383 99.527 48.439 C 101.495 47.536,101.602 47.503,101.992 47.670 C 102.216 47.766,103.158 48.193,104.086 48.621 C 105.193 49.131,105.784 49.342,105.809 49.237 C 105.829 49.149,105.732 48.121,105.593 46.952 L 105.340 44.827 105.750 44.352 C 105.976 44.090,106.680 43.312,107.314 42.622 C 107.949 41.933,108.445 41.349,108.417 41.324 C 108.389 41.299,107.403 41.087,106.226 40.853 C 103.704 40.351,104.040 40.599,102.719 38.262 C 102.134 37.228,101.641 36.365,101.623 36.345 C 101.605 36.324,101.072 37.227,100.439 38.351 M131.376 38.293 L 130.261 40.269 128.036 40.724 C 126.812 40.975,125.811 41.229,125.811 41.290 C 125.811 41.350,126.482 42.122,127.302 43.004 C 128.319 44.098,128.792 44.703,128.789 44.905 C 128.786 45.068,128.675 46.106,128.542 47.211 C 128.410 48.317,128.318 49.239,128.338 49.261 C 128.358 49.282,129.270 48.889,130.363 48.385 C 132.767 47.280,132.354 47.280,134.757 48.381 C 135.849 48.882,136.763 49.273,136.787 49.249 C 136.811 49.225,136.711 48.196,136.566 46.962 C 136.311 44.797,136.310 44.710,136.536 44.442 C 136.665 44.290,137.371 43.513,138.106 42.716 C 138.840 41.919,139.394 41.241,139.338 41.210 C 139.281 41.178,138.254 40.954,137.056 40.712 L 134.876 40.272 133.763 38.294 C 133.151 37.207,132.614 36.317,132.570 36.317 C 132.526 36.317,131.989 37.207,131.376 38.293 M266.270 38.359 C 265.681 39.411,265.182 40.295,265.159 40.322 C 265.137 40.350,264.083 40.587,262.818 40.850 L 260.518 41.328 261.939 42.875 C 262.721 43.726,263.434 44.517,263.524 44.633 C 263.656 44.803,263.639 45.269,263.430 47.091 C 263.289 48.327,263.188 49.353,263.206 49.371 C 263.223 49.388,264.184 48.972,265.340 48.445 L 267.442 47.488 269.540 48.453 C 270.693 48.983,271.651 49.403,271.667 49.385 C 271.683 49.366,271.578 48.320,271.433 47.059 L 271.169 44.767 272.757 43.041 L 274.345 41.314 272.354 40.914 C 271.259 40.695,270.217 40.477,270.039 40.430 C 269.786 40.365,269.473 39.917,268.617 38.396 C 268.013 37.324,267.478 36.446,267.429 36.446 C 267.380 36.446,266.858 37.307,266.270 38.359 M71.336 44.617 L 71.336 45.136 81.204 45.136 L 91.072 45.136 90.661 44.617 L 90.251 44.099 80.793 44.099 L 71.336 44.099 71.336 44.617 M112.607 44.526 C 112.379 44.762,112.192 44.995,112.192 45.045 C 112.192 45.095,114.451 45.136,117.212 45.136 L 122.232 45.136 121.725 44.617 L 121.218 44.099 117.120 44.099 L 113.021 44.099 112.607 44.526 M143.385 44.617 L 142.879 45.136 153.610 45.136 L 164.341 45.136 164.195 44.864 C 164.115 44.714,164.078 44.480,164.114 44.345 C 164.176 44.105,163.932 44.099,154.035 44.099 L 143.892 44.099 143.385 44.617 M235.886 44.345 C 235.922 44.480,235.885 44.714,235.805 44.864 L 235.659 45.136 246.325 45.136 L 256.992 45.136 256.485 44.617 L 255.978 44.099 245.900 44.099 C 236.067 44.099,235.824 44.105,235.886 44.345 M278.357 44.628 L 277.921 45.136 282.940 45.136 L 287.960 45.136 287.549 44.617 L 287.138 44.099 282.966 44.110 L 278.794 44.121 278.357 44.628 M309.234 44.620 L 308.805 45.136 318.735 45.136 L 328.664 45.136 328.664 44.617 L 328.664 44.099 319.163 44.101 L 309.663 44.103 309.234 44.620 " stroke="none" fill="#000000" fill-rule="evenodd"></path></g></svg>