<svg id="svg" xmlns="http://www.w3.org/2000/svg" xmlns:xlink="http://www.w3.org/1999/xlink" width="400" height="201.84994861253853" viewBox="0, 0, 400,201.84994861253853"><g id="svgg"><path id="path0" d="M0.411 100.925 L 0.411 201.439 200.000 201.439 L 399.589 201.439 399.589 100.925 L 399.589 0.411 200.000 0.411 L 0.411 0.411 0.411 100.925 M185.300 15.592 C 184.850 16.027,182.446 18.321,179.959 20.688 C 164.301 35.593,54.701 139.977,36.743 157.089 C 24.788 168.480,14.960 177.801,14.903 177.801 C 14.846 177.801,14.800 141.125,14.800 96.300 L 14.800 14.800 100.459 14.800 L 186.119 14.800 185.300 15.592 M385.200 96.030 L 385.200 177.261 384.635 176.739 C 384.016 176.168,267.527 64.944,235.303 34.157 C 224.252 23.599,215.211 14.924,215.211 14.880 C 215.211 14.836,253.458 14.800,300.206 14.800 L 385.200 14.800 385.200 96.030 M241.552 60.021 L 282.328 98.972 241.353 99.024 C 218.816 99.053,181.981 99.053,159.496 99.024 L 118.615 98.972 159.564 59.969 C 182.087 38.518,200.573 20.989,200.645 21.018 C 200.717 21.046,219.125 38.597,241.552 60.021 M335.982 150.211 L 374.431 186.948 287.421 186.999 C 239.566 187.028,161.226 187.028,113.334 186.999 L 26.256 186.948 64.826 150.206 L 103.396 113.464 200.465 113.469 L 297.533 113.474 335.982 150.211 " stroke="none" fill="#000000" fill-rule="evenodd"></path></g></svg>