<svg id="svg" xmlns="http://www.w3.org/2000/svg" xmlns:xlink="http://www.w3.org/1999/xlink" width="400" height="201.84994861253853" viewBox="0, 0, 400,201.84994861253853"><g id="svgg"><path id="path0" d="M0.411 100.925 L 0.411 201.439 200.000 201.439 L 399.589 201.439 399.589 100.925 L 399.589 0.411 200.000 0.411 L 0.411 0.411 0.411 100.925 M385.200 100.925 L 385.200 187.050 200.000 187.050 L 14.800 187.050 14.800 100.925 L 14.800 14.800 200.000 14.800 L 385.200 14.800 385.200 100.925 M93.320 52.436 C 64.011 54.981,45.501 83.151,53.016 113.772 C 58.570 136.400,78.778 150.984,101.336 148.644 C 115.592 147.165,122.903 146.121,131.963 144.270 C 160.127 138.517,181.215 129.156,203.778 112.394 C 205.574 111.061,207.111 109.969,207.194 109.969 C 207.277 109.969,208.815 111.061,210.610 112.394 C 233.173 129.156,254.262 138.517,282.425 144.270 C 291.485 146.121,298.796 147.165,313.052 148.644 C 340.698 151.512,362.912 129.961,362.873 100.308 C 362.834 70.318,341.507 50.425,311.614 52.497 C 270.112 55.373,242.657 64.999,211.357 87.648 L 207.194 90.660 203.032 87.648 C 181.454 72.035,164.536 63.948,141.556 58.263 C 126.029 54.422,102.784 51.614,93.320 52.436 M102.672 66.907 C 137.013 69.484,161.458 77.124,184.892 92.604 C 190.500 96.309,195.279 99.721,195.150 99.928 C 195.085 100.034,195.134 100.245,195.260 100.396 C 195.821 101.072,181.601 110.500,173.792 114.629 C 154.283 124.945,133.073 130.795,103.803 133.933 C 91.693 135.232,83.763 133.200,76.734 126.998 C 62.092 114.079,62.141 86.624,76.828 74.086 C 83.801 68.133,91.289 66.053,102.672 66.907 M320.071 66.815 C 337.200 68.556,348.613 81.990,348.613 100.411 C 348.613 120.194,335.524 134.430,317.337 134.430 C 313.973 134.430,301.572 133.010,293.910 131.748 C 267.712 127.432,246.912 119.666,228.273 107.242 C 222.297 103.258,218.878 100.699,219.129 100.396 C 219.254 100.245,219.304 100.034,219.238 99.928 C 219.110 99.721,223.888 96.309,229.496 92.604 C 253.070 77.032,277.585 69.421,312.539 66.824 C 315.883 66.576,317.698 66.573,320.071 66.815 " stroke="none" fill="#000000" fill-rule="evenodd"></path></g></svg>