<svg id="svg" xmlns="http://www.w3.org/2000/svg" xmlns:xlink="http://www.w3.org/1999/xlink" width="400" height="357.3170731707317" viewBox="0, 0, 400,357.3170731707317"><g id="svgg"><path id="path0" d="M371.646 13.710 L 344.970 26.786 328.293 41.518 C 319.120 49.621,311.486 56.250,311.328 56.250 C 311.170 56.250,307.925 52.477,304.117 47.866 C 300.308 43.255,297.028 39.307,296.826 39.094 C 296.530 38.781,294.255 38.801,284.946 39.197 L 273.432 39.688 255.695 53.772 C 245.939 61.518,215.732 85.467,188.567 106.991 C 161.402 128.516,138.948 146.346,138.669 146.615 C 138.347 146.925,137.583 149.669,136.580 154.116 C 135.710 157.973,134.865 161.292,134.701 161.492 C 134.538 161.692,128.599 166.118,121.504 171.327 L 108.603 180.798 105.800 179.728 C 102.242 178.371,102.779 178.224,99.278 181.514 L 96.269 184.342 98.112 186.909 C 100.326 189.993,100.457 189.805,96.520 189.188 L 93.302 188.683 89.975 191.243 L 86.648 193.803 87.836 196.331 C 88.490 197.722,89.024 198.979,89.024 199.125 C 89.024 199.271,87.590 199.390,85.837 199.390 L 82.650 199.390 79.511 201.264 C 75.169 203.855,75.340 203.454,77.483 206.029 C 79.641 208.622,79.821 208.130,75.448 211.617 L 72.237 214.177 80.097 221.843 L 87.957 229.509 86.890 229.679 C 86.303 229.773,77.045 230.346,66.316 230.953 C 53.367 231.685,46.655 232.177,46.352 232.415 C 45.869 232.795,6.622 270.475,2.786 274.241 L 0.542 276.445 1.354 295.453 C 1.800 305.908,2.203 314.500,2.249 314.546 C 2.295 314.592,3.695 314.440,5.359 314.208 C 7.023 313.975,8.412 313.809,8.446 313.839 C 8.479 313.869,8.661 317.179,8.848 321.196 C 9.036 325.212,9.214 328.516,9.244 328.538 C 9.274 328.560,14.770 332.735,21.457 337.815 L 33.615 347.052 62.311 351.579 L 91.006 356.105 208.232 356.551 L 325.457 356.996 352.134 344.610 C 366.806 337.798,380.470 331.441,382.499 330.483 L 386.187 328.743 392.776 315.759 L 399.365 302.775 398.687 295.463 C 398.314 291.441,397.913 288.056,397.796 287.939 C 397.680 287.822,395.250 287.564,392.396 287.366 C 389.543 287.168,387.159 286.945,387.099 286.872 C 386.226 285.807,379.943 272.824,380.248 272.713 C 380.464 272.635,383.178 272.048,386.280 271.408 L 391.921 270.246 392.111 267.821 C 392.216 266.487,392.389 263.030,392.496 260.137 L 392.690 254.878 378.255 254.878 L 363.820 254.878 363.463 249.466 C 363.267 246.490,363.107 243.540,363.108 242.912 C 363.110 241.550,364.262 241.643,353.025 242.102 L 344.857 242.436 334.752 234.937 L 324.646 227.439 305.540 227.439 L 286.433 227.439 280.208 220.122 L 273.984 212.805 272.434 212.805 C 271.582 212.804,256.753 213.291,239.482 213.885 C 222.210 214.480,207.607 214.926,207.029 214.876 L 205.980 214.787 204.702 210.518 C 204.000 208.171,203.477 206.162,203.540 206.053 C 203.603 205.945,208.418 202.104,214.240 197.517 C 224.007 189.821,226.933 187.278,241.921 173.463 L 242.835 172.620 248.628 175.798 C 251.814 177.547,254.632 178.926,254.890 178.863 C 255.320 178.759,264.634 173.204,264.634 173.052 C 264.634 173.015,264.219 170.327,263.713 167.079 C 263.206 163.830,262.897 161.081,263.027 160.968 C 263.156 160.856,268.819 156.125,275.610 150.455 C 282.401 144.785,288.060 140.058,288.186 139.951 C 288.312 139.843,287.949 138.391,287.379 136.722 C 286.809 135.054,285.165 130.259,283.726 126.067 L 281.109 118.445 287.504 124.944 L 293.899 131.442 300.813 126.468 C 304.615 123.732,307.826 121.425,307.947 121.341 C 308.069 121.258,309.090 113.986,310.216 105.183 C 311.342 96.380,312.282 89.163,312.305 89.147 C 312.328 89.130,323.392 80.578,336.890 70.142 L 361.433 51.167 372.833 35.721 C 379.103 27.225,387.502 15.850,391.498 10.442 C 395.493 5.034,398.663 0.615,398.543 0.622 C 398.422 0.629,386.319 6.519,371.646 13.710 M300.305 51.123 C 303.742 55.425,306.728 59.187,306.939 59.482 C 307.275 59.953,298.603 68.344,297.269 68.838 C 297.137 68.887,293.691 65.346,289.610 60.969 C 283.577 54.497,282.074 53.042,281.568 53.177 C 281.225 53.268,277.625 54.125,273.567 55.082 L 266.190 56.821 260.610 61.081 C 257.541 63.424,235.978 79.877,212.691 97.643 L 170.352 129.946 169.280 128.873 L 168.207 127.801 182.960 116.049 C 191.074 109.586,214.931 90.578,235.976 73.809 L 274.238 43.321 284.146 43.311 L 294.055 43.300 300.305 51.123 M286.059 62.862 C 288.536 65.897,290.508 68.435,290.441 68.502 C 290.374 68.569,287.706 67.841,284.512 66.883 L 278.705 65.142 275.709 67.674 C 272.081 70.740,272.293 70.142,273.728 73.247 L 274.923 75.832 267.809 82.289 C 263.896 85.841,260.591 88.764,260.464 88.787 C 260.337 88.809,258.010 86.081,255.293 82.726 L 250.352 76.625 258.104 68.876 L 265.856 61.128 273.553 59.255 C 277.786 58.224,281.319 57.373,281.402 57.363 C 281.486 57.352,283.582 59.827,286.059 62.862 M254.524 88.796 C 258.408 93.616,261.585 97.683,261.585 97.834 C 261.585 97.984,258.876 100.272,255.564 102.919 C 252.252 105.565,248.980 108.186,248.293 108.742 L 247.042 109.755 242.652 104.211 C 240.238 101.162,238.079 98.413,237.856 98.103 C 237.454 97.545,238.167 88.513,238.683 87.636 C 239.139 86.860,247.099 79.602,247.271 79.805 C 247.376 79.929,250.640 83.975,254.524 88.796 M233.840 87.962 C 232.963 90.557,232.927 90.874,232.928 96.018 L 232.929 101.372 237.637 107.427 L 242.345 113.482 232.072 121.736 C 201.346 146.422,197.457 149.473,197.064 149.205 C 196.846 149.055,193.769 145.373,190.228 141.021 C 186.175 136.039,183.150 132.612,182.063 131.768 C 181.113 131.030,180.335 130.318,180.335 130.186 C 180.335 129.943,234.540 85.064,234.678 85.192 C 234.719 85.230,234.342 86.476,233.840 87.962 M177.683 134.691 C 179.859 136.070,185.484 142.345,185.079 142.942 C 185.005 143.051,179.243 147.440,172.274 152.696 C 165.305 157.952,159.557 162.297,159.501 162.352 C 158.580 163.246,159.967 166.631,162.873 170.582 C 164.550 172.863,165.873 174.756,165.812 174.791 C 165.751 174.826,165.412 175.096,165.059 175.392 C 164.440 175.910,164.140 175.864,156.561 174.093 C 152.239 173.083,148.509 172.256,148.271 172.256 C 147.829 172.256,139.692 175.839,139.225 176.239 C 139.083 176.360,139.332 177.655,139.778 179.116 C 140.815 182.516,141.256 181.988,134.335 185.628 C 131.045 187.359,128.354 188.810,128.354 188.854 C 128.354 188.897,130.343 190.223,132.774 191.799 C 135.205 193.375,137.160 194.759,137.119 194.874 C 137.077 194.989,132.858 198.651,127.744 203.012 L 118.445 210.941 118.364 202.422 L 118.283 193.902 115.534 193.902 L 112.784 193.902 112.995 192.302 C 113.111 191.421,113.287 190.407,113.387 190.048 C 113.498 189.646,119.017 185.244,127.744 178.596 L 141.921 167.797 142.073 163.782 L 142.226 159.768 158.383 146.344 C 168.493 137.945,174.705 132.982,174.978 133.087 C 175.219 133.179,176.436 133.901,177.683 134.691 M190.203 149.009 C 191.732 150.979,192.984 152.693,192.986 152.817 C 192.987 152.942,187.610 157.347,181.037 162.608 L 169.087 172.172 165.914 168.221 C 163.561 165.290,162.831 164.182,163.086 163.927 C 163.994 163.018,186.782 145.472,187.081 145.451 C 187.269 145.438,188.675 147.039,190.203 149.009 M144.391 199.509 L 147.304 201.458 141.802 206.566 L 136.299 211.674 137.187 212.773 C 139.653 215.828,145.618 222.681,145.885 222.767 C 146.053 222.822,148.865 220.954,152.135 218.617 C 155.404 216.280,158.167 214.462,158.275 214.577 C 158.592 214.916,161.598 225.089,161.430 225.257 C 161.346 225.341,154.041 225.821,145.196 226.323 L 129.116 227.235 125.892 223.907 C 124.119 222.077,121.971 219.825,121.119 218.902 L 119.570 217.226 130.415 207.393 C 136.380 201.986,141.309 197.561,141.369 197.561 C 141.428 197.561,142.788 198.438,144.391 199.509 " stroke="none" fill="#000000" fill-rule="evenodd"></path></g></svg>