<svg id="svg" version="1.1" xmlns="http://www.w3.org/2000/svg" xmlns:xlink="http://www.w3.org/1999/xlink" width="400" height="206.4015518913676" viewBox="0, 0, 400,206.4015518913676"><g id="svgg"><path id="path0" d="M0.194 103.201 L 0.194 206.208 199.903 206.208 L 399.612 206.208 399.612 103.201 L 399.612 0.194 199.903 0.194 L 0.194 0.194 0.194 103.201 M387.197 103.201 L 387.197 193.792 316.537 193.786 L 245.878 193.781 245.032 191.604 C 244.130 189.284,241.831 184.561,240.667 182.638 L 239.962 181.474 239.962 122.430 C 239.961 57.897,240.032 62.118,238.859 57.129 C 232.957 32.047,207.279 16.599,182.083 22.973 C 163.842 27.588,150.142 43.145,147.827 61.877 C 147.689 62.989,147.624 82.317,147.624 121.652 L 147.624 179.783 146.541 181.599 C 144.689 184.703,142.969 188.429,141.335 192.871 L 140.996 193.792 76.803 193.792 L 12.609 193.792 12.609 103.201 L 12.609 12.609 199.903 12.609 L 387.197 12.609 387.197 103.201 M197.866 34.227 C 211.968 36.106,223.267 46.013,226.644 59.459 C 227.590 63.223,227.565 61.584,227.505 115.478 L 227.449 166.455 226.285 165.459 C 218.612 158.893,208.635 153.957,200.989 152.942 L 200.000 152.811 200.000 115.397 L 200.000 77.983 193.792 77.983 L 187.585 77.983 187.585 115.313 L 187.585 152.644 186.663 152.770 C 178.533 153.884,169.120 158.161,161.734 164.095 L 160.034 165.461 160.088 113.914 L 160.143 62.367 160.694 60.136 C 164.089 46.389,174.966 36.252,188.361 34.349 C 189.161 34.236,190.034 34.111,190.301 34.072 C 191.538 33.890,196.032 33.982,197.866 34.227 M197.493 164.975 C 205.557 166.049,213.411 170.181,220.726 177.197 C 223.574 179.929,227.546 184.753,227.546 185.480 C 227.546 185.677,227.658 185.839,227.795 185.839 C 228.112 185.839,230.109 189.034,231.402 191.610 L 232.399 193.598 193.406 193.598 C 171.960 193.598,154.413 193.563,154.413 193.521 C 154.413 193.260,156.085 189.900,157.028 188.264 C 166.111 172.510,182.639 162.998,197.493 164.975 " stroke="none" fill="#000000" fill-rule="evenodd"></path></g></svg>