<svg id="svg" xmlns="http://www.w3.org/2000/svg" xmlns:xlink="http://www.w3.org/1999/xlink" width="400" height="206.18556701030928" viewBox="0, 0, 400,206.18556701030928"><g id="svgg"><path id="path0" d="M0.412 103.093 L 0.412 205.773 200.000 205.773 L 399.588 205.773 399.588 103.093 L 399.588 0.412 200.000 0.412 L 0.412 0.412 0.412 103.093 M387.216 103.093 L 387.216 193.402 200.000 193.402 L 12.784 193.402 12.784 103.093 L 12.784 12.784 200.000 12.784 L 387.216 12.784 387.216 103.093 M196.520 31.515 C 177.715 42.299,164.720 61.382,160.930 83.779 L 160.412 86.837 160.412 130.223 L 160.412 173.608 166.598 173.608 L 172.784 173.608 172.784 130.655 C 172.784 88.235,172.789 87.672,173.207 85.345 C 175.599 72.032,181.625 60.402,190.927 51.147 L 193.711 48.376 193.763 110.992 L 193.815 173.608 200.000 173.608 L 206.185 173.608 206.237 110.992 L 206.289 48.376 209.073 51.147 C 218.375 60.402,224.401 72.032,226.793 85.345 C 227.211 87.672,227.216 88.235,227.216 130.655 L 227.216 173.608 233.402 173.608 L 239.588 173.608 239.588 130.223 L 239.588 86.837 239.070 83.779 C 235.280 61.382,222.285 42.299,203.480 31.515 C 199.651 29.319,200.349 29.319,196.520 31.515 " stroke="none" fill="#000000" fill-rule="evenodd"></path></g></svg>