<svg id="svg" xmlns="http://www.w3.org/2000/svg" xmlns:xlink="http://www.w3.org/1999/xlink" width="400" height="400" viewBox="0, 0, 400,400"><g id="svgg"><path id="path0" d="M25.497 25.503 L 14.000 37.005 14.000 200.005 L 14.000 363.005 25.503 374.503 L 37.005 386.000 200.005 386.000 L 363.005 386.000 374.503 374.497 L 386.000 362.995 386.000 199.995 L 386.000 36.995 374.497 25.497 L 362.995 14.000 199.995 14.000 L 36.995 14.000 25.497 25.503 M365.896 34.096 L 374.000 42.193 374.000 199.993 L 374.000 357.793 365.904 365.896 L 357.807 374.000 200.007 374.000 L 42.207 374.000 34.104 365.904 L 26.000 357.807 26.000 200.007 L 26.000 42.207 34.096 34.104 L 42.193 26.000 199.993 26.000 L 357.793 26.000 365.896 34.096 M164.400 61.000 L 164.400 77.200 166.800 77.200 L 169.200 77.200 169.200 69.800 L 169.200 62.400 175.800 62.400 L 182.400 62.400 182.400 60.400 L 182.400 58.400 175.800 58.400 L 169.200 58.400 169.200 53.600 L 169.200 48.800 176.400 48.800 L 183.600 48.800 183.600 46.800 L 183.600 44.800 174.000 44.800 L 164.400 44.800 164.400 61.000 M196.675 45.083 C 196.568 45.257,194.388 52.240,191.831 60.600 C 189.275 68.960,187.084 76.115,186.964 76.500 C 186.773 77.113,187.044 77.200,189.145 77.200 L 191.543 77.200 192.137 75.100 C 192.463 73.945,192.977 72.100,193.279 71.000 L 193.827 69.000 199.371 69.000 L 204.916 69.000 205.429 70.800 C 205.712 71.790,206.238 73.635,206.600 74.900 L 207.257 77.200 209.628 77.200 C 210.933 77.200,211.986 77.065,211.969 76.900 C 211.951 76.735,209.745 69.490,207.066 60.800 L 202.195 45.000 199.532 44.883 C 198.067 44.818,196.781 44.908,196.675 45.083 M215.600 60.982 L 215.600 77.200 217.794 77.200 L 219.989 77.200 220.094 64.559 L 220.200 51.918 225.355 64.559 L 230.510 77.200 233.455 77.200 L 236.400 77.200 236.400 61.000 L 236.400 44.800 234.200 44.800 L 232.000 44.800 231.976 57.500 C 231.960 66.318,231.827 70.017,231.542 69.600 C 231.316 69.270,228.926 63.600,226.231 57.000 L 221.330 45.000 218.465 44.882 L 215.600 44.765 215.600 60.982 M201.557 57.105 C 202.681 61.123,203.600 64.588,203.600 64.805 C 203.600 65.040,201.895 65.200,199.400 65.200 C 196.788 65.200,195.200 65.044,195.200 64.788 C 195.200 64.562,196.100 61.147,197.200 57.200 C 198.300 53.253,199.200 49.898,199.200 49.745 C 199.200 48.909,199.710 50.502,201.557 57.105 M110.800 120.400 L 110.800 136.400 117.336 136.400 C 128.477 136.400,131.737 134.398,131.694 127.583 C 131.669 123.650,130.224 121.128,127.286 119.893 L 125.995 119.350 127.400 118.680 C 131.204 116.866,131.854 110.281,128.555 106.981 C 126.500 104.927,124.128 104.400,116.927 104.400 L 110.800 104.400 110.800 120.400 M138.000 106.184 L 138.000 107.968 141.300 108.084 L 144.600 108.200 144.706 120.500 L 144.812 132.800 141.406 132.800 L 138.000 132.800 138.000 134.600 L 138.000 136.400 147.000 136.400 L 156.000 136.400 156.000 134.600 L 156.000 132.800 152.594 132.800 L 149.188 132.800 149.294 120.500 L 149.400 108.200 152.700 108.084 L 156.000 107.968 156.000 106.184 L 156.000 104.400 147.000 104.400 L 138.000 104.400 138.000 106.184 M164.800 120.400 L 164.800 136.400 174.800 136.400 L 184.800 136.400 184.800 134.609 L 184.800 132.817 177.100 132.709 L 169.400 132.600 169.295 118.500 L 169.190 104.400 166.995 104.400 L 164.800 104.400 164.800 120.400 M187.600 106.200 L 187.600 108.000 192.600 108.000 L 197.600 108.000 197.600 122.200 L 197.600 136.400 200.000 136.400 L 202.400 136.400 202.400 122.200 L 202.400 108.000 207.400 108.000 L 212.400 108.000 212.400 106.200 L 212.400 104.400 200.000 104.400 L 187.600 104.400 187.600 106.200 M217.600 106.200 L 217.600 108.000 220.800 108.000 L 224.000 108.000 224.000 120.400 L 224.000 132.800 220.800 132.800 L 217.600 132.800 217.600 134.600 L 217.600 136.400 226.600 136.400 L 235.600 136.400 235.600 134.600 L 235.600 132.800 232.200 132.800 L 228.800 132.800 228.800 120.400 L 228.800 108.000 232.200 108.000 L 235.600 108.000 235.600 106.200 L 235.600 104.400 226.600 104.400 L 217.600 104.400 217.600 106.200 M242.800 120.382 L 242.800 136.400 244.994 136.400 L 247.189 136.400 247.294 124.042 L 247.400 111.683 252.427 123.942 L 257.454 136.200 260.327 136.318 L 263.200 136.435 263.200 120.418 L 263.200 104.400 261.006 104.400 L 258.811 104.400 258.706 116.847 L 258.600 129.295 253.538 116.947 L 248.477 104.600 245.638 104.482 L 242.800 104.365 242.800 120.382 M270.400 120.400 L 270.400 136.400 280.200 136.400 L 290.000 136.400 290.000 134.609 L 290.000 132.818 282.500 132.709 L 275.000 132.600 275.000 127.000 L 275.000 121.400 281.900 121.291 L 288.800 121.181 288.800 119.400 L 288.800 117.619 281.900 117.509 L 275.000 117.400 275.000 112.800 L 275.000 108.200 282.300 108.091 L 289.600 107.982 289.600 106.191 L 289.600 104.400 280.000 104.400 L 270.400 104.400 270.400 120.400 M122.882 108.416 C 125.176 109.053,126.117 110.535,125.901 113.168 C 125.611 116.705,123.522 117.829,117.800 117.527 L 115.400 117.400 115.285 113.227 C 115.222 110.932,115.261 108.817,115.373 108.527 C 115.622 107.878,120.675 107.803,122.882 108.416 M124.164 122.021 C 127.008 123.435,128.122 127.748,126.327 130.390 C 125.126 132.156,123.290 132.729,118.700 132.769 L 115.200 132.800 115.200 127.267 C 115.200 124.223,115.335 121.595,115.500 121.427 C 115.995 120.921,122.904 121.395,124.164 122.021 M90.497 198.500 L 90.600 226.200 94.500 226.314 L 98.400 226.429 98.400 213.214 L 98.400 200.000 108.600 200.000 L 118.800 200.000 118.800 213.200 L 118.800 226.400 122.600 226.400 L 126.400 226.400 126.400 198.600 L 126.400 170.800 122.600 170.800 L 118.800 170.800 118.800 182.000 L 118.800 193.200 108.600 193.200 L 98.400 193.200 98.400 182.000 L 98.400 170.800 94.397 170.800 L 90.395 170.800 90.497 198.500 M149.390 171.300 C 148.719 173.118,132.806 225.500,132.803 225.900 C 132.801 226.265,133.827 226.400,136.610 226.400 C 141.086 226.400,140.351 227.358,142.824 218.300 L 144.544 212.000 154.204 212.000 L 163.864 212.000 165.849 219.100 L 167.834 226.200 171.717 226.314 C 174.668 226.402,175.604 226.306,175.615 225.914 C 175.624 225.632,171.889 213.117,167.315 198.104 L 159.000 170.809 154.287 170.804 C 150.879 170.801,149.524 170.938,149.390 171.300 M183.200 198.600 L 183.200 226.400 191.500 226.393 C 204.128 226.383,208.978 225.691,213.083 223.317 C 222.666 217.775,221.151 200.881,210.742 197.216 L 208.698 196.496 210.249 195.985 C 219.876 192.818,220.036 177.716,210.494 172.848 C 207.048 171.090,204.663 170.800,193.642 170.800 L 183.200 170.800 183.200 198.600 M228.000 198.614 L 228.000 226.429 231.900 226.314 L 235.800 226.200 235.906 214.500 L 236.012 202.800 240.029 202.800 C 248.964 202.800,249.754 203.550,256.996 218.900 L 260.535 226.400 264.667 226.400 C 266.940 226.400,268.800 226.308,268.800 226.197 C 268.800 225.717,259.770 208.000,258.506 206.000 C 256.742 203.208,255.010 201.384,253.547 200.778 C 252.215 200.226,252.037 199.600,253.213 199.600 C 262.255 199.600,265.802 181.975,258.121 175.214 C 253.883 171.483,250.921 170.832,238.100 170.814 L 228.000 170.800 228.000 198.614 M276.000 198.600 L 276.000 226.400 292.800 226.400 L 309.600 226.400 309.600 223.000 L 309.600 219.600 296.600 219.600 L 283.600 219.600 283.600 209.806 L 283.600 200.012 295.700 199.906 L 307.800 199.800 307.800 196.600 L 307.800 193.400 295.700 193.294 L 283.600 193.188 283.600 185.194 L 283.600 177.200 296.200 177.200 L 308.800 177.200 308.800 174.000 L 308.800 170.800 292.400 170.800 L 276.000 170.800 276.000 198.600 M206.330 178.326 C 210.393 180.488,210.816 188.526,207.025 191.509 C 205.106 193.019,203.285 193.358,197.000 193.380 L 191.000 193.400 190.892 185.267 L 190.783 177.134 197.692 177.269 C 203.987 177.393,204.753 177.487,206.330 178.326 M249.809 178.422 C 255.978 181.599,256.003 192.072,249.850 195.301 C 248.420 196.051,247.388 196.188,242.100 196.326 L 236.000 196.485 236.000 186.806 L 236.000 177.127 241.912 177.263 C 247.322 177.388,247.994 177.487,249.809 178.422 M158.210 192.200 C 160.090 199.020,161.706 204.825,161.801 205.100 C 161.936 205.489,160.254 205.600,154.241 205.600 L 146.508 205.600 148.655 197.900 C 149.835 193.665,151.552 187.509,152.470 184.221 C 153.711 179.770,154.221 178.441,154.465 179.021 C 154.645 179.449,156.331 185.380,158.210 192.200 M205.151 200.623 C 209.689 201.970,211.903 205.670,211.504 211.240 C 211.020 218.010,206.807 220.253,195.200 219.920 L 191.000 219.800 190.893 209.900 L 190.786 200.000 196.920 200.000 C 201.307 200.000,203.652 200.177,205.151 200.623 M64.219 285.245 C 61.521 285.638,60.216 286.003,56.100 287.518 L 53.200 288.585 53.200 292.726 C 53.200 295.003,53.335 296.807,53.500 296.733 C 53.665 296.660,55.150 295.941,56.800 295.136 C 67.932 289.703,76.777 291.040,78.990 298.492 C 81.045 305.410,78.697 309.665,64.265 325.180 C 60.489 329.239,56.365 333.698,55.100 335.088 L 52.800 337.616 52.800 341.008 L 52.800 344.400 70.600 344.400 L 88.400 344.400 88.400 341.005 L 88.400 337.611 74.918 337.505 L 61.436 337.400 69.435 329.189 C 81.176 317.137,85.172 312.130,86.779 307.460 C 91.557 293.575,80.664 282.848,64.219 285.245 M173.200 285.589 C 170.890 286.018,168.190 286.608,167.200 286.901 L 165.400 287.433 165.285 291.117 C 165.164 295.005,165.210 295.089,167.074 294.359 C 178.425 289.913,188.998 291.488,190.776 297.889 C 192.917 305.600,187.730 309.935,176.300 309.988 L 173.600 310.000 173.600 313.141 L 173.600 316.282 178.300 316.515 C 188.596 317.025,192.818 320.668,192.309 328.600 C 191.680 338.387,180.153 341.640,166.700 335.828 L 163.600 334.488 163.600 338.616 L 163.600 342.743 165.900 343.413 C 175.638 346.248,185.424 346.155,191.783 343.166 C 203.323 337.742,203.568 319.661,192.175 314.329 L 189.622 313.135 192.390 311.750 C 196.828 309.530,198.751 306.623,199.094 301.613 C 199.928 289.448,188.964 282.663,173.200 285.589 M329.000 286.418 C 326.160 286.858,322.100 288.047,319.479 289.206 L 317.600 290.037 317.600 294.019 C 317.600 296.208,317.698 298.000,317.818 298.000 C 317.938 298.000,319.693 297.196,321.718 296.213 C 333.398 290.546,342.369 292.553,344.001 301.197 C 345.178 307.429,342.630 311.687,328.945 326.370 C 324.795 330.821,320.500 335.468,319.400 336.696 L 317.400 338.929 317.259 342.265 L 317.118 345.600 334.959 345.600 L 352.800 345.600 352.800 342.200 L 352.800 338.800 339.600 338.800 C 332.340 338.800,326.400 338.684,326.400 338.542 C 326.400 338.400,329.865 334.755,334.100 330.442 C 349.107 315.156,352.426 310.149,352.442 302.767 C 352.467 291.270,342.509 284.326,329.000 286.418 M279.083 294.803 L 272.366 302.387 274.455 304.993 C 277.142 308.347,275.662 309.294,285.669 297.820 C 285.851 297.611,286.000 306.746,286.000 318.120 L 286.000 338.800 279.800 338.800 L 273.600 338.800 273.600 342.200 L 273.600 345.600 289.800 345.600 L 306.000 345.600 306.000 342.200 L 306.000 338.800 300.000 338.800 L 294.000 338.800 294.000 313.000 L 294.000 287.200 289.900 287.210 L 285.800 287.219 279.083 294.803 " stroke="none" fill="#000000" fill-rule="evenodd"></path></g></svg>