<svg id="svg" version="1.1" xmlns="http://www.w3.org/2000/svg" xmlns:xlink="http://www.w3.org/1999/xlink" width="400" height="400" viewBox="0, 0, 400,400"><g id="svgg"><path id="path0" d="M25.497 25.503 L 14.000 37.005 14.000 200.005 L 14.000 363.005 25.503 374.503 L 37.005 386.000 200.005 386.000 L 363.005 386.000 374.503 374.497 L 386.000 362.995 386.000 199.995 L 386.000 36.995 374.497 25.497 L 362.995 14.000 199.995 14.000 L 36.995 14.000 25.497 25.503 M365.896 34.096 L 374.000 42.193 374.000 199.993 L 374.000 357.793 365.904 365.896 L 357.807 374.000 200.007 374.000 L 42.207 374.000 34.104 365.904 L 26.000 357.807 26.000 200.007 L 26.000 42.207 34.096 34.104 L 42.193 26.000 199.993 26.000 L 357.793 26.000 365.896 34.096 M223.772 51.330 C 223.651 51.644,223.608 52.779,223.676 53.851 L 223.800 55.800 226.120 55.921 L 228.439 56.041 228.320 53.521 L 228.200 51.000 226.096 50.879 C 224.555 50.790,223.932 50.911,223.772 51.330 M112.000 68.400 L 112.000 84.400 114.400 84.400 L 116.800 84.400 116.800 77.000 L 116.800 69.600 123.400 69.600 L 130.000 69.600 130.000 67.800 L 130.000 66.000 123.400 66.000 L 116.800 66.000 116.800 61.000 L 116.800 56.000 124.000 56.000 L 131.200 56.000 131.200 54.200 L 131.200 52.400 121.600 52.400 L 112.000 52.400 112.000 68.400 M197.717 53.181 L 196.035 53.945 195.917 57.073 L 195.800 60.200 192.700 60.317 L 189.600 60.434 189.600 62.017 L 189.600 63.600 192.778 63.600 L 195.956 63.600 196.078 72.172 C 196.241 83.633,196.842 84.472,204.951 84.557 L 209.000 84.600 209.000 83.000 L 209.000 81.400 205.509 81.200 C 200.145 80.893,200.231 81.048,200.069 71.390 L 199.939 63.600 204.569 63.600 L 209.200 63.600 209.200 62.000 L 209.200 60.400 204.600 60.400 L 200.000 60.400 200.000 56.400 C 200.000 54.200,199.865 52.404,199.700 52.409 C 199.535 52.414,198.643 52.761,197.717 53.181 M144.200 59.833 C 143.760 59.934,142.275 60.304,140.900 60.653 L 138.400 61.289 138.400 63.398 L 138.400 65.507 140.896 64.499 C 146.950 62.053,152.400 63.682,152.400 67.938 L 152.400 69.116 147.700 69.273 C 139.543 69.546,136.717 71.655,136.733 77.462 C 136.752 84.651,145.341 87.922,151.149 82.951 C 152.824 81.517,152.930 81.534,153.352 83.300 C 153.599 84.332,153.749 84.400,155.780 84.400 L 157.944 84.400 157.528 83.100 C 157.299 82.385,156.985 78.183,156.830 73.762 C 156.492 64.120,156.041 62.853,152.301 61.042 C 150.251 60.050,146.003 59.416,144.200 59.833 M171.917 60.137 C 160.749 63.284,160.854 82.126,172.054 84.813 C 174.534 85.408,178.402 85.135,180.700 84.203 L 182.400 83.513 182.400 81.357 C 182.400 78.860,182.469 78.906,180.592 80.179 C 173.943 84.692,166.599 78.476,168.389 69.851 C 169.717 63.454,176.742 61.163,181.700 65.510 C 182.357 66.086,182.400 65.978,182.400 63.741 L 182.400 61.358 180.408 60.642 C 177.768 59.693,174.239 59.483,171.917 60.137 M249.939 60.133 C 240.284 62.848,239.905 81.848,249.449 84.708 C 257.988 87.266,263.560 81.847,263.100 71.433 C 262.701 62.401,257.563 57.990,249.939 60.133 M280.200 59.797 C 279.980 59.870,279.300 60.040,278.690 60.175 C 278.079 60.310,276.864 61.067,275.990 61.857 C 274.595 63.117,274.400 63.193,274.400 62.479 C 274.400 60.789,273.980 60.400,272.157 60.400 L 270.400 60.400 270.400 72.400 L 270.400 84.400 272.365 84.400 L 274.330 84.400 274.469 76.100 C 274.646 65.515,275.498 63.600,280.032 63.600 C 284.175 63.600,284.777 65.232,284.790 76.500 L 284.800 84.400 286.800 84.400 L 288.800 84.400 288.800 75.577 C 288.800 65.698,288.500 63.787,286.640 61.815 C 285.111 60.193,281.966 59.208,280.200 59.797 M218.800 62.000 L 218.800 63.600 221.353 63.600 L 223.905 63.600 224.092 71.300 C 224.374 82.920,225.706 84.792,233.700 84.798 L 236.800 84.800 236.800 83.000 L 236.800 81.200 234.226 81.200 C 228.646 81.200,228.400 80.686,228.400 69.013 L 228.400 60.400 223.600 60.400 L 218.800 60.400 218.800 62.000 M255.991 64.331 C 261.387 68.353,259.150 81.400,253.063 81.400 C 249.068 81.400,247.223 78.591,247.209 72.487 C 247.191 64.973,251.492 60.979,255.991 64.331 M152.398 73.700 C 152.386 80.441,144.865 84.426,141.424 79.513 C 138.737 75.677,142.236 72.534,149.300 72.441 L 152.400 72.400 152.398 73.700 M252.000 111.092 C 250.299 111.952,249.201 113.994,249.201 116.300 L 249.200 118.000 246.600 118.000 L 244.000 118.000 244.000 119.400 L 244.000 120.800 246.600 120.800 L 249.200 120.800 249.200 129.400 L 249.200 138.000 251.000 138.000 L 252.800 138.000 252.800 129.416 L 252.800 120.832 256.100 120.716 L 259.400 120.600 259.400 119.400 L 259.400 118.200 256.100 118.084 L 252.800 117.968 252.800 116.460 C 252.800 114.046,253.441 113.533,256.751 113.296 L 259.642 113.089 259.521 111.845 L 259.400 110.600 256.400 110.492 C 254.159 110.412,253.046 110.564,252.000 111.092 M70.000 124.800 L 70.000 138.000 71.800 138.000 L 73.600 138.000 73.600 131.800 L 73.600 125.600 78.400 125.600 L 83.200 125.600 83.200 131.800 L 83.200 138.000 85.200 138.000 L 87.200 138.000 87.200 124.800 L 87.200 111.600 85.200 111.600 L 83.200 111.600 83.200 117.013 L 83.200 122.425 78.500 122.313 L 73.800 122.200 73.688 116.900 L 73.577 111.600 71.788 111.600 L 70.000 111.600 70.000 124.800 M178.800 124.763 L 178.800 138.000 180.800 138.000 L 182.800 138.000 182.800 132.860 L 182.800 127.720 186.403 127.464 C 193.446 126.964,195.760 124.883,195.678 119.120 C 195.598 113.488,193.228 111.880,184.700 111.671 L 178.800 111.527 178.800 124.763 M314.900 112.298 C 313.639 112.926,313.600 113.020,313.600 115.473 L 313.600 118.000 311.000 118.000 L 308.400 118.000 308.400 119.400 L 308.400 120.800 311.000 120.800 L 313.600 120.800 313.601 127.300 C 313.602 136.743,314.481 137.998,321.100 137.999 L 324.400 138.000 324.400 136.600 L 324.400 135.200 321.675 135.200 C 317.306 135.200,317.200 135.010,317.200 127.184 L 317.200 120.800 320.800 120.800 L 324.400 120.800 324.400 119.400 L 324.400 118.000 320.800 118.000 L 317.200 118.000 317.200 114.800 C 317.200 111.294,317.111 111.198,314.900 112.298 M189.880 115.583 C 194.303 118.280,191.627 123.939,185.749 124.316 L 182.800 124.505 182.800 119.653 L 182.800 114.800 185.700 114.801 C 187.870 114.803,188.922 115.000,189.880 115.583 M96.583 118.352 C 89.416 121.608,90.343 136.827,97.795 138.225 C 104.651 139.512,108.544 135.966,108.581 128.400 C 108.617 121.236,105.804 117.618,100.200 117.618 C 99.100 117.618,97.473 117.948,96.583 118.352 M117.095 118.396 C 116.240 119.069,116.047 119.100,115.854 118.596 C 115.711 118.224,115.095 118.000,114.213 118.000 L 112.800 118.000 112.800 128.000 L 112.800 138.000 114.370 138.000 L 115.940 138.000 116.070 129.964 C 116.198 122.043,116.214 121.917,117.157 121.153 C 119.626 119.156,120.308 121.188,120.360 130.700 L 120.400 138.000 122.000 138.000 L 123.600 138.000 123.600 130.626 C 123.600 121.391,124.372 119.154,126.863 121.170 C 127.781 121.912,127.803 122.093,127.930 129.964 L 128.060 138.000 129.670 138.000 L 131.281 138.000 131.121 129.700 C 130.994 123.114,130.824 121.090,130.300 119.897 C 129.238 117.485,126.156 116.816,124.131 118.558 L 123.016 119.517 121.878 118.558 C 120.472 117.375,118.479 117.308,117.095 118.396 M140.600 118.172 C 136.910 119.522,134.528 124.111,134.891 129.170 C 135.422 136.557,141.210 140.010,149.274 137.747 L 151.600 137.095 151.600 135.347 C 151.600 134.386,151.525 133.600,151.433 133.600 C 151.341 133.600,150.441 133.954,149.432 134.386 C 144.743 136.396,140.849 135.606,139.259 132.322 C 137.520 128.730,137.396 128.800,145.458 128.800 L 152.516 128.800 152.276 125.936 C 151.735 119.479,146.513 116.007,140.600 118.172 M210.141 118.014 C 209.448 118.227,208.343 119.015,207.686 119.763 L 206.490 121.125 206.240 119.563 C 205.998 118.049,205.941 118.000,204.395 118.000 L 202.800 118.000 202.800 128.000 L 202.800 138.000 204.572 138.000 L 206.345 138.000 206.472 131.700 C 206.671 121.914,209.423 118.831,215.500 121.589 L 217.200 122.361 217.200 120.595 C 217.200 118.114,213.823 116.879,210.141 118.014 M227.200 118.238 C 220.070 121.326,219.519 133.713,226.352 137.282 C 228.908 138.618,232.379 138.784,236.074 137.747 L 238.400 137.095 238.400 135.347 C 238.400 134.386,238.355 133.601,238.300 133.602 C 238.245 133.603,236.940 134.049,235.400 134.593 C 229.861 136.552,225.913 134.904,225.307 130.381 L 225.095 128.800 232.203 128.800 L 239.310 128.800 239.047 126.229 C 238.343 119.359,232.974 115.737,227.200 118.238 M270.600 118.196 C 264.325 120.397,262.817 131.620,268.166 136.316 C 270.609 138.462,274.802 139.002,279.274 137.747 L 281.600 137.095 281.600 135.347 C 281.600 134.386,281.525 133.600,281.433 133.600 C 281.341 133.600,280.441 133.954,279.432 134.386 C 273.858 136.776,269.498 135.132,268.592 130.300 L 268.311 128.800 275.355 128.800 L 282.400 128.800 282.398 126.900 C 282.390 119.873,277.051 115.934,270.600 118.196 M293.012 118.213 C 287.020 120.499,285.203 130.459,289.841 135.593 C 293.480 139.620,302.425 139.415,302.723 135.297 C 302.866 133.321,302.896 133.334,300.945 134.486 C 294.914 138.044,289.089 132.163,291.454 124.905 C 292.722 121.013,297.152 119.432,300.710 121.601 C 302.541 122.718,302.800 122.620,302.800 120.810 C 302.800 118.122,297.169 116.628,293.012 118.213 M103.462 122.171 C 106.650 125.814,105.010 134.674,101.010 135.425 C 97.156 136.147,94.528 131.440,95.581 125.700 C 96.473 120.839,100.657 118.965,103.462 122.171 M147.208 121.900 C 147.992 122.607,148.513 123.535,148.666 124.500 L 148.905 126.000 143.852 126.000 C 138.304 126.000,138.190 125.939,139.392 123.615 C 140.939 120.624,144.842 119.768,147.208 121.900 M233.553 121.452 C 234.065 121.811,234.735 122.705,235.042 123.439 C 236.118 126.015,236.144 126.000,230.428 126.000 L 225.256 126.000 225.579 124.873 C 226.598 121.322,230.796 119.521,233.553 121.452 M277.208 121.900 C 277.992 122.607,278.513 123.535,278.666 124.500 L 278.905 126.000 273.852 126.000 C 268.304 126.000,268.190 125.939,269.392 123.615 C 270.939 120.624,274.842 119.768,277.208 121.900 M336.416 133.275 C 334.613 135.210,336.033 138.400,338.697 138.400 C 340.118 138.400,341.600 136.869,341.600 135.400 C 341.600 132.812,338.160 131.403,336.416 133.275 M154.684 184.650 C 154.528 184.806,154.400 191.473,154.400 199.467 L 154.400 214.000 156.400 214.000 L 158.400 214.000 158.416 202.500 C 158.430 192.664,158.509 191.145,158.967 192.000 C 159.261 192.550,161.435 197.725,163.798 203.500 L 168.096 214.000 170.648 214.000 L 173.200 214.000 173.200 199.178 L 173.200 184.356 171.300 184.478 L 169.400 184.600 169.200 195.965 L 169.000 207.329 164.342 195.965 L 159.683 184.600 157.325 184.483 C 156.028 184.419,154.840 184.494,154.684 184.650 M185.200 191.464 C 184.650 191.572,183.255 191.929,182.100 192.258 L 180.000 192.857 180.000 194.806 L 180.000 196.755 181.900 195.913 C 187.289 193.523,192.800 194.945,192.800 198.723 L 192.800 199.899 188.286 200.072 C 181.438 200.334,178.400 202.586,178.400 207.400 C 178.400 213.973,187.623 217.036,192.300 212.015 C 193.172 211.079,193.342 211.182,193.752 212.900 C 193.996 213.920,194.162 214.000,196.035 214.000 C 197.948 214.000,198.039 213.953,197.765 213.100 C 196.996 210.701,196.817 208.957,196.792 203.600 C 196.755 195.781,196.131 194.098,192.647 192.433 C 190.965 191.629,186.999 191.113,185.200 191.464 M207.608 191.646 C 207.063 191.864,206.298 192.331,205.908 192.683 C 205.258 193.272,205.200 193.270,205.200 192.662 C 205.200 192.156,204.822 192.000,203.600 192.000 L 202.000 192.000 202.000 203.000 L 202.000 214.000 203.800 214.000 L 205.600 214.000 205.606 205.500 C 205.612 195.994,205.805 195.080,207.843 194.880 C 210.061 194.662,210.186 195.171,210.333 205.061 L 210.467 214.000 212.233 214.000 L 214.000 214.000 214.006 205.500 C 214.012 195.994,214.205 195.080,216.243 194.880 C 218.462 194.661,218.586 195.170,218.727 205.061 L 218.855 214.000 220.675 214.000 L 222.494 214.000 222.325 204.900 C 222.127 194.254,221.694 192.489,219.068 191.623 C 217.262 191.026,214.692 191.655,213.796 192.911 C 213.194 193.757,213.142 193.764,212.741 193.063 C 211.922 191.633,209.392 190.935,207.608 191.646 M233.738 191.642 C 225.202 193.645,223.768 209.157,231.739 213.283 C 234.095 214.503,239.333 214.702,242.600 213.696 L 245.000 212.956 245.124 211.025 C 245.264 208.842,245.555 208.891,241.400 210.405 C 235.809 212.443,230.400 209.743,230.400 204.915 L 230.400 204.000 238.258 204.000 L 246.115 204.000 245.888 201.100 C 245.315 193.788,240.516 190.052,233.738 191.642 M239.795 195.667 C 240.958 196.582,242.000 198.624,242.000 199.987 C 242.000 200.766,241.763 200.800,236.400 200.800 C 231.021 200.800,230.800 200.768,230.800 199.980 C 230.800 196.037,236.680 193.217,239.795 195.667 M192.681 205.039 C 192.280 208.927,190.039 211.200,186.608 211.200 C 181.406 211.200,180.737 204.253,185.855 203.394 C 186.705 203.251,187.580 203.073,187.800 202.999 C 188.020 202.924,189.260 202.849,190.556 202.832 L 192.912 202.800 192.681 205.039 M99.200 283.000 C 99.200 284.349,99.279 284.444,100.300 284.327 C 101.227 284.220,101.400 284.012,101.400 283.000 C 101.400 281.988,101.227 281.780,100.300 281.673 C 99.279 281.556,99.200 281.651,99.200 283.000 M185.884 281.850 C 184.999 282.734,185.614 284.400,186.825 284.400 C 187.967 284.400,188.042 284.311,187.925 283.100 C 187.803 281.830,186.625 281.109,185.884 281.850 M195.200 282.600 C 195.200 283.500,195.360 283.600,196.800 283.600 L 198.400 283.600 198.400 289.746 C 198.400 297.349,198.702 298.000,202.229 298.000 C 204.133 298.000,204.400 297.902,204.400 297.200 C 204.400 296.559,204.133 296.400,203.062 296.400 C 200.605 296.400,200.400 295.773,200.400 288.269 L 200.400 281.600 197.800 281.600 C 195.293 281.600,195.200 281.636,195.200 282.600 M211.484 281.850 C 210.630 282.703,211.207 284.452,212.300 284.327 C 213.227 284.220,213.400 284.012,213.400 283.000 C 213.400 281.819,212.221 281.112,211.484 281.850 M45.200 290.200 L 45.200 298.000 46.400 298.000 L 47.600 298.000 47.600 294.400 L 47.600 290.800 50.800 290.800 C 53.947 290.800,54.000 290.783,54.000 289.800 C 54.000 288.817,53.947 288.800,50.800 288.800 L 47.600 288.800 47.600 286.600 L 47.600 284.400 51.200 284.400 C 54.773 284.400,54.800 284.393,54.800 283.400 L 54.800 282.400 50.000 282.400 L 45.200 282.400 45.200 290.200 M168.800 290.176 L 168.800 298.000 169.800 298.000 L 170.800 298.000 170.832 291.700 L 170.863 285.400 172.072 288.923 C 173.741 293.782,174.787 293.800,176.437 289.000 L 177.537 285.800 177.569 291.900 L 177.600 298.000 178.800 298.000 L 180.000 298.000 180.000 290.200 L 180.000 282.400 178.429 282.400 C 176.732 282.400,176.596 282.615,174.794 288.186 C 174.207 290.000,174.327 290.166,172.623 285.200 C 171.760 282.686,171.682 282.596,170.265 282.476 L 168.800 282.352 168.800 290.176 M283.600 290.200 L 283.600 298.000 284.800 298.000 L 286.000 298.000 286.031 291.900 L 286.063 285.800 287.163 289.000 C 288.813 293.800,289.859 293.782,291.528 288.923 L 292.737 285.400 292.768 291.700 L 292.800 298.000 293.800 298.000 L 294.800 298.000 294.800 290.176 L 294.800 282.352 293.341 282.476 C 291.892 282.599,291.872 282.625,290.606 286.146 L 289.331 289.691 288.016 286.046 L 286.702 282.400 285.151 282.400 L 283.600 282.400 283.600 290.200 M351.899 282.900 C 351.539 283.175,351.190 284.030,351.122 284.800 C 351.008 286.103,350.896 286.209,349.500 286.324 C 347.231 286.512,347.320 288.000,349.600 288.000 L 351.200 288.000 351.200 291.946 C 351.200 297.178,351.747 298.000,355.229 298.000 C 357.333 298.000,357.600 297.910,357.600 297.200 C 357.600 296.536,357.333 296.400,356.029 296.400 C 353.591 296.400,353.200 295.733,353.200 291.571 L 353.200 288.000 355.400 288.000 C 358.628 288.000,358.717 286.506,355.500 286.321 L 353.400 286.200 353.278 284.300 C 353.149 282.293,352.953 282.094,351.899 282.900 M59.553 286.601 C 56.213 288.416,56.429 296.417,59.856 297.849 C 64.296 299.704,67.592 296.700,67.098 291.248 C 66.690 286.746,63.219 284.609,59.553 286.601 M75.400 286.462 C 74.960 286.703,74.375 287.181,74.100 287.526 C 73.661 288.076,73.600 288.045,73.600 287.276 C 73.600 286.608,73.362 286.400,72.600 286.400 L 71.600 286.400 71.600 292.200 L 71.600 298.000 72.600 298.000 C 73.575 298.000,73.600 297.926,73.602 295.100 C 73.607 288.998,75.419 286.926,79.300 288.586 C 80.330 289.027,80.260 286.967,79.226 286.414 C 78.230 285.881,76.421 285.904,75.400 286.462 M85.767 286.388 C 82.569 287.681,81.387 293.295,83.695 296.230 C 85.817 298.927,92.400 299.158,92.400 296.535 C 92.400 295.647,92.277 295.547,91.500 295.805 C 87.969 296.974,84.800 295.940,84.800 293.618 C 84.800 292.848,85.037 292.800,88.800 292.800 L 92.800 292.800 92.800 291.180 C 92.800 287.295,89.345 284.940,85.767 286.388 M110.800 286.517 C 107.812 288.026,107.574 295.335,110.447 297.348 C 111.686 298.216,114.325 298.190,115.318 297.300 C 116.082 296.616,116.093 296.632,115.805 298.000 C 115.240 300.687,113.339 301.447,110.300 300.201 C 109.741 299.972,109.600 300.120,109.600 300.934 C 109.600 302.271,110.017 302.480,112.737 302.506 C 117.351 302.549,118.000 301.333,118.000 292.640 L 118.000 286.400 117.000 286.400 C 116.450 286.400,116.000 286.590,116.000 286.823 C 116.000 287.060,115.609 286.972,115.111 286.623 C 114.041 285.873,112.166 285.827,110.800 286.517 M125.000 286.478 C 124.560 286.727,124.068 287.127,123.906 287.366 C 123.727 287.630,123.610 287.526,123.606 287.100 C 123.602 286.622,123.283 286.400,122.600 286.400 L 121.600 286.400 121.600 292.200 L 121.600 298.000 122.564 298.000 C 123.511 298.000,123.529 297.931,123.664 293.841 C 123.812 289.310,124.389 288.000,126.233 288.000 C 128.052 288.000,128.400 288.905,128.400 293.629 L 128.400 298.000 129.600 298.000 L 130.800 298.000 130.800 294.855 C 130.800 287.340,128.736 284.359,125.000 286.478 M299.505 286.626 C 296.201 288.419,296.316 296.102,299.673 297.838 C 303.431 299.781,307.200 296.958,307.200 292.200 C 307.200 287.324,303.353 284.538,299.505 286.626 M324.874 286.346 C 324.585 286.529,323.910 286.595,323.374 286.493 L 322.400 286.307 322.400 292.153 L 322.400 298.000 323.388 298.000 L 324.375 298.000 324.488 293.100 C 324.594 288.454,324.644 288.194,325.448 288.079 C 326.578 287.918,326.788 288.823,326.795 293.900 C 326.800 297.992,326.802 298.000,327.788 298.000 L 328.775 298.000 328.888 293.105 C 328.989 288.681,329.072 288.196,329.752 288.066 C 330.953 287.835,331.187 288.718,331.194 293.500 L 331.200 298.000 332.240 298.000 L 333.280 298.000 333.140 292.842 C 333.021 288.454,332.886 287.557,332.238 286.842 C 331.356 285.868,329.520 285.733,328.809 286.589 C 328.379 287.107,328.250 287.107,327.732 286.589 C 327.085 285.942,325.697 285.824,324.874 286.346 M339.400 286.478 C 338.960 286.727,338.468 287.127,338.306 287.366 C 338.127 287.630,338.010 287.526,338.006 287.100 C 338.002 286.622,337.683 286.400,337.000 286.400 L 336.000 286.400 336.000 292.200 L 336.000 298.000 336.964 298.000 C 337.911 298.000,337.929 297.931,338.064 293.841 C 338.216 289.179,338.779 288.000,340.848 288.000 C 342.473 288.000,342.800 288.967,342.800 293.774 L 342.800 298.000 344.000 298.000 L 345.200 298.000 345.183 294.500 C 345.146 287.106,343.157 284.347,339.400 286.478 M96.800 287.200 C 96.800 287.822,97.067 288.000,98.000 288.000 L 99.200 288.000 99.200 291.103 C 99.200 296.673,100.007 297.966,103.500 297.987 C 105.338 297.998,105.600 297.900,105.600 297.200 C 105.600 296.574,105.333 296.400,104.374 296.400 C 101.773 296.400,101.600 296.063,101.600 290.986 L 101.600 286.400 99.200 286.400 C 97.067 286.400,96.800 286.489,96.800 287.200 M183.200 287.200 C 183.200 287.848,183.467 288.000,184.600 288.000 L 186.000 288.000 186.000 291.946 C 186.000 297.095,186.573 298.000,189.829 298.000 C 191.733 298.000,192.000 297.902,192.000 297.200 C 192.000 296.559,191.733 296.400,190.662 296.400 C 188.395 296.400,188.000 295.550,188.000 290.669 L 188.000 286.400 185.600 286.400 C 183.467 286.400,183.200 286.489,183.200 287.200 M208.800 287.200 C 208.800 287.814,209.067 288.000,209.945 288.000 L 211.091 288.000 211.291 291.832 C 211.556 296.884,212.132 297.750,215.341 297.920 C 217.391 298.029,217.600 297.964,217.600 297.220 C 217.600 296.553,217.344 296.400,216.229 296.400 C 213.917 296.400,213.600 295.721,213.600 290.771 L 213.600 286.400 211.200 286.400 C 209.067 286.400,208.800 286.489,208.800 287.200 M309.626 286.873 C 309.640 287.163,310.508 289.740,311.553 292.600 L 313.454 297.800 314.927 297.924 C 315.737 297.992,316.400 297.964,316.400 297.861 C 316.400 297.758,317.294 295.137,318.387 292.037 L 320.374 286.400 319.235 286.400 C 318.146 286.400,318.031 286.590,316.569 290.787 C 315.728 293.200,314.943 295.076,314.824 294.957 C 314.704 294.838,313.954 292.909,313.156 290.670 C 311.854 287.016,311.598 286.587,310.653 286.473 C 309.976 286.392,309.609 286.535,309.626 286.873 M63.802 288.552 C 65.016 289.440,65.153 293.851,64.010 295.300 C 62.454 297.272,60.213 296.516,59.603 293.814 C 58.669 289.674,61.126 286.595,63.802 288.552 M90.338 289.339 C 91.095 290.926,90.569 291.262,87.559 291.121 C 85.253 291.012,85.013 290.921,85.136 290.200 C 85.555 287.737,89.279 287.121,90.338 289.339 M115.009 288.810 C 116.468 290.422,115.906 295.150,114.160 295.945 C 111.277 297.259,109.255 291.426,111.609 288.589 C 112.311 287.744,114.152 287.863,115.009 288.810 M303.971 289.054 C 305.907 291.515,304.583 296.400,301.980 296.400 C 300.362 296.400,299.429 294.863,299.429 292.200 C 299.429 288.347,302.009 286.560,303.971 289.054 M220.872 291.700 C 220.995 292.561,221.185 292.605,225.300 292.714 L 229.600 292.827 229.600 291.814 L 229.600 290.800 225.172 290.800 C 220.809 290.800,220.746 290.813,220.872 291.700 M61.084 306.250 C 60.230 307.103,60.807 308.852,61.900 308.727 C 62.827 308.620,63.000 308.412,63.000 307.400 C 63.000 306.219,61.821 305.512,61.084 306.250 M77.484 306.250 C 77.328 306.406,77.200 307.603,77.200 308.909 C 77.200 311.021,77.122 311.252,76.500 310.982 C 72.078 309.063,68.793 312.996,70.023 318.735 C 70.770 322.216,73.886 323.876,76.386 322.125 C 77.070 321.646,77.396 321.588,77.508 321.925 C 77.595 322.186,78.105 322.400,78.642 322.400 L 79.617 322.400 79.508 314.300 C 79.397 305.978,79.067 304.666,77.484 306.250 M297.600 306.981 C 297.600 307.874,297.769 308.000,298.963 308.000 L 300.327 308.000 300.463 313.972 C 300.634 321.430,300.976 322.131,304.541 322.320 C 306.591 322.429,306.800 322.364,306.800 321.620 C 306.800 320.963,306.542 320.799,305.500 320.794 C 303.050 320.782,303.019 320.695,302.800 313.115 L 302.600 306.200 300.100 306.081 C 297.656 305.965,297.600 305.985,297.600 306.981 M310.400 306.981 C 310.400 307.874,310.569 308.000,311.764 308.000 L 313.128 308.000 313.264 314.169 C 313.394 320.054,313.444 320.384,314.370 321.369 C 315.672 322.754,319.600 322.927,319.600 321.600 C 319.600 320.965,319.331 320.799,318.300 320.794 C 315.850 320.782,315.819 320.695,315.600 313.115 L 315.400 306.200 312.900 306.081 C 310.456 305.965,310.400 305.985,310.400 306.981 M46.592 311.500 C 45.794 314.085,44.720 317.550,44.206 319.200 C 43.285 322.154,43.283 322.202,44.065 322.332 C 45.414 322.555,45.871 322.136,46.350 320.234 L 46.812 318.400 49.400 318.400 L 51.988 318.400 52.450 320.234 C 52.929 322.136,53.386 322.555,54.735 322.332 C 55.517 322.202,55.515 322.155,54.599 319.200 C 54.087 317.550,53.017 314.085,52.220 311.500 L 50.772 306.800 49.408 306.800 L 48.044 306.800 46.592 311.500 M173.099 307.300 C 172.739 307.575,172.390 308.430,172.322 309.200 C 172.208 310.503,172.096 310.609,170.700 310.724 C 168.431 310.912,168.520 312.400,170.800 312.400 L 172.400 312.400 172.400 316.600 C 172.400 321.872,172.764 322.400,176.400 322.400 C 178.533 322.400,178.800 322.311,178.800 321.600 C 178.800 320.936,178.533 320.800,177.229 320.800 C 174.791 320.800,174.400 320.133,174.400 315.971 L 174.400 312.400 176.600 312.400 C 178.533 312.400,178.800 312.303,178.800 311.600 C 178.800 310.897,178.533 310.800,176.600 310.800 L 174.400 310.800 174.400 308.800 C 174.400 306.713,174.188 306.468,173.099 307.300 M287.805 307.300 C 287.711 307.575,286.701 310.860,285.561 314.600 C 284.420 318.340,283.398 321.638,283.289 321.929 C 283.145 322.316,283.447 322.424,284.407 322.329 C 285.597 322.212,285.773 322.020,286.273 320.300 L 286.824 318.400 289.375 318.400 L 291.926 318.400 292.439 320.400 C 292.919 322.274,293.031 322.400,294.226 322.400 L 295.501 322.400 294.195 318.100 C 293.476 315.735,292.408 312.225,291.820 310.300 L 290.752 306.800 289.363 306.800 C 288.600 306.800,287.898 307.025,287.805 307.300 M50.982 315.100 L 51.264 316.400 49.432 316.400 C 48.424 316.400,47.600 316.277,47.600 316.127 C 47.600 315.977,47.995 314.402,48.477 312.627 L 49.354 309.400 50.027 311.600 C 50.397 312.810,50.826 314.385,50.982 315.100 M291.021 315.300 C 291.258 316.375,291.222 316.400,289.432 316.400 C 287.452 316.400,287.315 316.189,287.980 314.160 C 288.190 313.522,288.576 312.190,288.840 311.200 L 289.318 309.400 290.049 311.800 C 290.450 313.120,290.888 314.695,291.021 315.300 M184.000 310.756 C 183.283 310.954,182.963 311.354,182.868 312.171 C 182.756 313.140,182.845 313.265,183.468 313.007 C 185.218 312.281,188.007 312.283,188.811 313.010 C 190.063 314.143,189.802 314.800,188.100 314.802 C 184.212 314.808,182.000 316.250,182.000 318.778 C 182.000 322.057,185.309 323.732,188.500 322.068 C 189.674 321.456,190.000 321.407,190.000 321.843 C 190.000 322.199,190.448 322.400,191.243 322.400 C 192.256 322.400,192.437 322.272,192.221 321.709 C 192.075 321.329,191.851 319.214,191.723 317.009 C 191.373 310.964,189.307 309.291,184.000 310.756 M199.989 311.077 C 199.445 311.449,198.868 311.944,198.706 312.177 C 198.542 312.413,198.410 312.202,198.406 311.700 C 198.401 311.008,198.169 310.800,197.400 310.800 L 196.400 310.800 196.400 316.600 L 196.400 322.400 197.400 322.400 C 198.367 322.400,198.400 322.311,198.410 319.700 C 198.432 313.428,200.231 311.303,204.100 312.982 C 204.679 313.233,204.800 313.077,204.800 312.086 C 204.800 310.290,201.997 309.703,199.989 311.077 M325.105 311.003 C 321.696 312.924,321.809 320.446,325.273 322.238 C 329.621 324.486,333.560 320.482,332.599 314.791 C 332.002 311.262,328.124 309.302,325.105 311.003 M58.400 311.600 C 58.400 312.214,58.667 312.400,59.545 312.400 L 60.691 312.400 60.891 316.232 C 61.156 321.284,61.732 322.150,64.941 322.320 C 66.991 322.429,67.200 322.364,67.200 321.620 C 67.200 320.953,66.944 320.800,65.829 320.800 C 63.517 320.800,63.200 320.121,63.200 315.171 L 63.200 310.800 60.800 310.800 C 58.667 310.800,58.400 310.889,58.400 311.600 M207.382 311.500 C 207.529 311.885,208.548 314.485,209.647 317.277 C 211.909 323.026,211.819 324.536,209.183 325.063 C 207.288 325.442,207.559 326.800,209.530 326.800 C 211.790 326.800,212.485 325.787,215.407 318.226 C 218.387 310.518,218.349 310.706,216.907 310.873 C 215.918 310.988,215.682 311.366,214.407 314.867 C 213.633 316.993,212.908 318.825,212.796 318.938 C 212.683 319.050,211.892 317.265,211.037 314.971 C 209.544 310.966,209.435 310.800,208.298 310.800 C 207.336 310.800,207.164 310.931,207.382 311.500 M76.590 313.580 C 78.041 316.387,76.845 320.800,74.633 320.800 C 73.008 320.800,72.200 319.405,72.200 316.600 C 72.200 312.638,75.078 310.658,76.590 313.580 M329.610 313.500 C 330.708 314.891,330.593 318.682,329.414 319.985 C 328.251 321.269,326.542 321.052,325.596 319.500 C 323.149 315.488,326.833 309.982,329.610 313.500 M336.000 316.200 L 336.000 317.200 340.400 317.200 L 344.800 317.200 344.800 316.200 L 344.800 315.200 340.400 315.200 L 336.000 315.200 336.000 316.200 M189.600 317.420 C 189.600 320.061,186.537 321.772,184.731 320.138 C 183.788 319.284,183.807 318.593,184.800 317.600 C 185.831 316.569,189.600 316.427,189.600 317.420 M58.000 338.573 L 58.000 346.800 59.200 346.800 C 60.397 346.800,60.400 346.795,60.400 344.449 C 60.400 340.667,61.125 340.559,63.607 343.972 C 65.345 346.361,65.846 346.800,66.832 346.800 C 68.365 346.800,68.388 346.869,65.514 342.913 L 63.027 339.491 65.332 337.345 L 67.637 335.200 66.195 335.200 C 65.008 335.200,64.369 335.563,62.590 337.245 L 60.428 339.290 60.314 334.945 L 60.200 330.600 59.100 330.473 L 58.000 330.347 58.000 338.573 M73.884 330.650 C 73.030 331.503,73.607 333.252,74.700 333.127 C 75.627 333.020,75.800 332.812,75.800 331.800 C 75.800 330.619,74.621 329.912,73.884 330.650 M83.200 331.381 C 83.200 332.274,83.369 332.400,84.564 332.400 L 85.928 332.400 86.064 338.569 C 86.194 344.454,86.244 344.784,87.170 345.769 C 88.472 347.154,92.400 347.327,92.400 346.000 C 92.400 345.365,92.131 345.199,91.100 345.194 C 88.650 345.182,88.619 345.095,88.400 337.515 L 88.200 330.600 85.700 330.481 C 83.256 330.365,83.200 330.385,83.200 331.381 M96.000 331.381 C 96.000 332.279,96.166 332.400,97.400 332.400 L 98.800 332.400 98.800 337.703 C 98.800 345.646,99.329 346.764,103.100 346.787 C 104.938 346.798,105.200 346.700,105.200 346.000 C 105.200 345.361,104.933 345.200,103.876 345.200 C 101.314 345.200,101.223 344.944,101.106 337.400 L 101.000 330.600 98.500 330.481 C 96.056 330.365,96.000 330.385,96.000 331.381 M183.084 330.650 C 182.928 330.806,182.800 334.503,182.800 338.867 L 182.800 346.800 184.000 346.800 C 185.197 346.800,185.200 346.795,185.200 344.449 C 185.200 342.404,185.984 340.533,186.543 341.243 C 186.611 341.329,187.523 342.615,188.569 344.100 C 190.304 346.565,190.593 346.800,191.883 346.800 L 193.295 346.800 192.320 345.500 C 191.783 344.785,190.552 343.141,189.584 341.846 L 187.823 339.493 190.211 337.356 L 192.600 335.219 191.200 335.227 C 190.092 335.233,189.341 335.647,187.600 337.207 L 185.400 339.180 185.200 334.890 C 185.000 330.609,184.376 329.358,183.084 330.650 M198.684 330.650 C 197.799 331.534,198.414 333.200,199.625 333.200 C 200.767 333.200,200.842 333.111,200.725 331.900 C 200.603 330.630,199.425 329.909,198.684 330.650 M208.000 331.381 C 208.000 332.273,208.169 332.400,209.356 332.400 L 210.713 332.400 210.858 338.373 C 211.040 345.833,211.382 346.531,214.941 346.720 C 216.991 346.829,217.200 346.764,217.200 346.020 C 217.200 345.363,216.942 345.199,215.900 345.194 C 213.450 345.182,213.419 345.095,213.200 337.515 L 213.000 330.600 210.500 330.481 C 208.056 330.365,208.000 330.385,208.000 331.381 M220.800 331.381 C 220.800 332.274,220.969 332.400,222.163 332.400 L 223.527 332.400 223.663 338.372 C 223.834 345.830,224.176 346.531,227.741 346.720 C 229.791 346.829,230.000 346.764,230.000 346.020 C 230.000 345.363,229.742 345.199,228.700 345.194 C 226.250 345.182,226.219 345.095,226.000 337.515 L 225.800 330.600 223.300 330.481 C 220.856 330.365,220.800 330.385,220.800 331.381 M46.992 331.532 C 42.662 333.543,43.638 338.392,48.659 339.819 C 51.438 340.609,52.100 341.152,52.100 342.640 C 52.100 344.895,49.466 345.823,46.538 344.600 C 44.614 343.796,44.400 343.835,44.400 344.986 C 44.400 347.681,51.532 347.938,53.594 345.317 C 55.984 342.279,54.115 338.899,49.347 337.633 C 47.338 337.100,46.701 336.404,46.871 334.927 C 47.110 332.850,49.528 332.396,52.900 333.795 C 53.477 334.034,53.600 333.872,53.600 332.870 C 53.600 331.540,53.346 331.392,50.400 331.015 C 49.099 330.849,48.155 330.992,46.992 331.532 M171.931 331.435 C 169.557 332.446,168.583 335.246,169.791 337.584 C 170.355 338.673,171.457 339.249,175.000 340.306 C 176.790 340.840,177.550 342.406,176.671 343.748 C 175.584 345.407,173.471 345.561,170.300 344.212 C 169.721 343.966,169.600 344.126,169.600 345.138 C 169.600 346.212,169.784 346.414,171.100 346.779 C 179.420 349.089,183.051 340.298,174.808 337.802 C 172.017 336.957,171.493 336.477,171.671 334.927 C 171.910 332.850,174.328 332.396,177.700 333.795 C 178.277 334.034,178.400 333.872,178.400 332.870 C 178.400 331.537,178.132 331.383,175.200 331.027 C 174.020 330.885,172.894 331.025,171.931 331.435 M299.200 335.156 C 298.488 335.352,298.163 335.754,298.070 336.552 C 297.952 337.571,298.024 337.643,298.870 337.342 C 300.975 336.592,303.734 336.928,304.276 338.000 C 304.671 338.783,304.674 339.016,304.290 339.075 C 304.021 339.117,302.779 339.263,301.532 339.400 C 298.477 339.736,297.200 340.887,297.200 343.305 C 297.200 346.816,301.402 348.551,304.065 346.141 C 304.728 345.541,304.803 345.541,305.034 346.146 C 305.582 347.572,307.592 346.967,307.172 345.503 C 306.967 344.789,306.800 342.821,306.800 341.129 C 306.800 335.596,304.410 333.718,299.200 335.156 M313.454 335.629 C 312.580 336.316,312.400 336.350,312.400 335.829 C 312.400 335.425,312.043 335.200,311.400 335.200 L 310.400 335.200 310.400 341.000 L 310.400 346.800 311.353 346.800 C 312.283 346.800,312.311 346.700,312.465 342.865 C 312.651 338.235,313.297 336.800,315.195 336.800 C 316.879 336.800,317.200 337.724,317.200 342.574 L 317.200 346.800 318.400 346.800 L 319.600 346.800 319.598 342.900 C 319.594 335.650,317.132 332.736,313.454 335.629 M325.646 335.485 C 321.961 337.300,321.908 343.853,325.559 346.292 C 328.027 347.941,332.000 347.229,332.000 345.138 C 332.000 343.995,331.970 343.976,331.111 344.577 C 329.011 346.048,325.965 344.993,325.361 342.586 C 324.305 338.379,327.886 335.164,331.111 337.423 C 331.972 338.026,332.000 338.007,332.000 336.813 C 332.000 334.811,328.499 334.080,325.646 335.485 M337.761 335.559 C 334.277 337.683,334.504 344.819,338.110 346.530 C 340.847 347.829,345.200 347.095,345.200 345.335 C 345.200 344.453,345.072 344.346,344.300 344.583 C 340.572 345.727,337.600 344.767,337.600 342.418 C 337.600 341.648,337.837 341.600,341.600 341.600 L 345.600 341.600 345.600 340.160 C 345.600 335.841,341.370 333.358,337.761 335.559 M71.200 336.000 C 71.200 336.615,71.467 336.800,72.352 336.800 L 73.505 336.800 73.671 340.595 C 73.891 345.625,74.504 346.548,77.741 346.720 C 79.791 346.829,80.000 346.764,80.000 346.020 C 80.000 345.353,79.744 345.200,78.629 345.200 C 76.317 345.200,76.000 344.521,76.000 339.571 L 76.000 335.200 73.600 335.200 C 71.467 335.200,71.200 335.289,71.200 336.000 M196.000 336.000 C 196.000 336.648,196.267 336.800,197.400 336.800 L 198.800 336.800 198.800 340.746 C 198.800 345.895,199.373 346.800,202.629 346.800 C 204.533 346.800,204.800 346.702,204.800 346.000 C 204.800 345.359,204.533 345.200,203.462 345.200 C 201.195 345.200,200.800 344.350,200.800 339.469 L 200.800 335.200 198.400 335.200 C 196.267 335.200,196.000 335.289,196.000 336.000 M282.961 335.900 C 283.079 336.285,283.548 338.220,284.003 340.200 C 285.555 346.948,285.521 346.864,286.688 346.724 C 287.600 346.616,287.823 346.278,288.448 344.051 C 289.386 340.715,289.376 340.716,290.224 343.986 C 290.904 346.606,291.030 346.800,292.046 346.800 C 293.120 346.800,293.159 346.711,294.490 341.100 L 295.843 335.400 294.885 335.270 C 293.628 335.099,293.757 334.839,292.727 339.619 L 291.827 343.800 291.039 341.100 C 289.960 337.399,288.780 337.253,287.808 340.700 C 287.451 341.965,287.107 343.180,287.042 343.400 C 286.917 343.830,285.200 336.720,285.200 335.770 C 285.200 335.401,284.768 335.200,283.973 335.200 C 282.989 335.200,282.789 335.339,282.961 335.900 M342.275 337.114 C 342.872 337.494,343.631 339.436,343.308 339.759 C 342.776 340.291,337.600 340.014,337.600 339.454 C 337.600 337.613,340.655 336.084,342.275 337.114 M304.800 341.613 C 304.800 342.892,303.564 344.794,302.570 345.043 C 300.049 345.676,298.275 343.685,299.830 341.967 C 300.592 341.125,304.800 340.825,304.800 341.613 " stroke="none" fill="#000000" fill-rule="evenodd"></path></g></svg>