<svg id="svg" version="1.1" xmlns="http://www.w3.org/2000/svg" xmlns:xlink="http://www.w3.org/1999/xlink" width="400" height="400" viewBox="0, 0, 400,400"><g id="svgg"><path id="path0" d="M25.497 25.503 L 14.000 37.005 14.000 200.005 L 14.000 363.005 25.503 374.503 L 37.005 386.000 200.005 386.000 L 363.005 386.000 374.503 374.497 L 386.000 362.995 386.000 199.995 L 386.000 36.995 374.497 25.497 L 362.995 14.000 199.995 14.000 L 36.995 14.000 25.497 25.503 M365.896 34.096 L 374.000 42.193 374.000 199.993 L 374.000 357.793 365.904 365.896 L 357.807 374.000 200.007 374.000 L 42.207 374.000 34.104 365.904 L 26.000 357.807 26.000 200.007 L 26.000 42.207 34.096 34.104 L 42.193 26.000 199.993 26.000 L 357.793 26.000 365.896 34.096 M184.267 51.067 C 184.120 51.213,184.000 52.392,184.000 53.687 L 184.000 56.040 186.300 55.920 L 188.600 55.800 188.728 54.238 C 188.968 51.304,188.635 50.800,186.459 50.800 C 185.400 50.800,184.413 50.920,184.267 51.067 M157.121 52.136 C 152.656 53.395,150.405 56.032,150.095 60.370 C 149.702 65.856,151.790 68.103,159.108 70.072 C 164.167 71.434,165.213 72.091,165.951 74.377 C 167.921 80.477,160.400 83.437,152.748 79.574 L 150.361 78.369 150.481 80.884 L 150.600 83.400 152.800 84.163 C 160.724 86.912,169.135 84.123,170.376 78.336 C 171.962 70.942,169.259 67.965,158.437 65.188 C 155.838 64.521,154.400 62.909,154.400 60.661 C 154.400 55.958,160.407 54.089,166.500 56.896 L 168.800 57.956 168.800 55.631 L 168.800 53.305 166.300 52.601 C 162.980 51.666,159.427 51.486,157.121 52.136 M236.407 60.359 C 227.069 63.686,226.514 79.969,235.596 84.163 C 238.028 85.286,243.547 85.321,247.100 84.237 L 249.600 83.473 249.600 81.294 C 249.600 79.373,249.517 79.149,248.900 79.407 C 239.810 83.209,233.600 81.329,233.600 74.774 L 233.600 73.600 242.000 73.600 L 250.400 73.600 250.400 71.073 C 250.400 62.631,243.931 57.678,236.407 60.359 M179.200 62.000 L 179.200 63.600 181.770 63.600 L 184.340 63.600 184.470 71.500 C 184.658 82.935,185.950 84.800,193.685 84.800 L 197.200 84.800 197.200 83.000 L 197.200 81.200 194.374 81.200 C 188.993 81.200,188.800 80.786,188.800 69.220 L 188.800 60.400 184.000 60.400 L 179.200 60.400 179.200 62.000 M204.800 62.000 L 204.800 63.600 211.200 63.600 C 214.720 63.600,217.600 63.694,217.600 63.808 C 217.600 63.923,214.630 67.723,211.000 72.254 C 204.491 80.377,204.400 80.518,204.400 82.446 L 204.400 84.400 213.400 84.400 L 222.400 84.400 222.400 82.800 L 222.400 81.200 215.800 81.200 C 212.170 81.200,209.207 81.065,209.215 80.900 C 209.224 80.735,212.193 76.910,215.815 72.400 C 222.251 64.384,222.399 64.157,222.399 62.300 L 222.400 60.400 213.600 60.400 L 204.800 60.400 204.800 62.000 M242.023 63.600 C 244.277 64.226,246.379 67.157,246.398 69.700 C 246.399 69.865,243.508 70.000,239.973 70.000 L 233.546 70.000 233.818 69.100 C 235.172 64.610,238.245 62.550,242.023 63.600 M74.955 159.400 L 73.426 165.600 68.893 165.600 L 64.360 165.600 64.480 167.900 L 64.600 170.200 68.456 170.314 L 72.311 170.428 71.532 173.514 C 71.104 175.211,70.579 177.269,70.365 178.087 L 69.976 179.573 65.688 179.687 L 61.400 179.800 61.280 182.100 L 61.160 184.400 64.780 184.400 C 69.089 184.400,68.889 183.802,67.028 191.127 C 65.517 197.075,65.474 196.926,68.651 196.724 L 70.600 196.600 72.154 190.500 L 73.708 184.400 77.054 184.400 C 79.126 184.400,80.400 184.560,80.400 184.820 C 80.400 185.052,79.770 187.742,79.000 190.800 C 78.230 193.858,77.600 196.467,77.600 196.599 C 77.600 196.730,78.714 196.785,80.076 196.719 L 82.553 196.600 83.806 191.600 C 84.496 188.850,85.185 186.105,85.337 185.500 L 85.615 184.400 89.828 184.400 L 94.040 184.400 93.920 182.100 L 93.800 179.800 90.296 179.684 C 86.905 179.572,86.800 179.540,87.016 178.684 C 87.138 178.198,87.646 176.180,88.144 174.200 L 89.049 170.600 93.124 170.486 L 97.200 170.372 97.200 167.986 L 97.200 165.600 93.800 165.600 C 91.930 165.600,90.400 165.501,90.400 165.380 C 90.400 165.258,91.030 162.658,91.800 159.600 C 93.552 152.642,93.639 153.200,90.808 153.200 C 88.532 153.200,88.402 153.254,88.137 154.300 C 87.985 154.905,87.295 157.650,86.606 160.400 L 85.352 165.400 81.844 165.516 C 78.631 165.622,78.354 165.572,78.550 164.916 C 79.186 162.785,81.200 154.356,81.200 153.823 C 81.200 153.329,80.711 153.200,78.842 153.200 L 76.484 153.200 74.955 159.400 M148.000 160.794 L 148.000 162.800 153.000 162.800 L 158.000 162.800 158.000 177.000 L 158.000 191.200 160.200 191.200 L 162.400 191.200 162.400 177.000 L 162.400 162.800 167.622 162.800 L 172.844 162.800 172.722 160.900 L 172.600 159.000 160.300 158.894 L 148.000 158.788 148.000 160.794 M210.889 167.248 C 209.948 167.714,208.962 168.478,208.700 168.947 C 208.248 169.753,208.210 169.723,208.011 168.400 C 207.807 167.048,207.735 166.996,205.900 166.878 L 204.000 166.756 204.000 183.578 L 204.000 200.400 206.000 200.400 L 208.000 200.400 208.000 194.559 L 208.000 188.717 209.407 189.953 C 210.181 190.632,211.306 191.292,211.907 191.418 C 212.508 191.545,213.346 191.719,213.770 191.805 C 220.732 193.222,226.025 182.675,223.105 173.200 C 221.364 167.547,215.780 164.827,210.889 167.248 M236.364 166.948 C 231.759 168.595,229.213 172.970,229.204 179.254 C 229.192 188.060,234.808 192.847,243.674 191.588 C 248.634 190.884,249.382 190.433,249.521 188.062 C 249.661 185.669,249.712 185.686,246.410 187.027 C 239.726 189.743,233.600 187.059,233.600 181.416 L 233.600 180.000 242.056 180.000 L 250.513 180.000 250.303 176.640 C 249.812 168.761,243.524 164.389,236.364 166.948 M175.767 167.479 C 175.914 167.875,178.031 173.271,180.470 179.469 L 184.905 190.737 184.153 192.615 C 182.905 195.727,181.646 196.800,179.240 196.800 L 177.200 196.800 177.200 198.600 L 177.200 200.400 179.613 200.400 C 184.283 200.400,186.271 198.664,188.616 192.538 C 189.445 190.372,191.986 183.780,194.262 177.888 C 196.538 171.996,198.400 167.082,198.400 166.968 C 198.400 166.854,197.393 166.814,196.162 166.880 L 193.924 167.000 190.611 175.918 C 188.789 180.822,187.224 184.910,187.133 185.001 C 187.042 185.092,185.420 181.079,183.528 176.083 L 180.090 167.000 177.794 166.879 C 175.723 166.769,175.524 166.828,175.767 167.479 M216.379 170.589 C 220.360 172.648,220.571 184.835,216.670 187.391 C 213.104 189.728,209.051 186.869,208.427 181.577 C 207.454 173.327,211.327 167.976,216.379 170.589 M243.481 170.784 C 244.918 171.661,245.763 173.082,246.165 175.300 L 246.436 176.800 240.018 176.800 C 233.084 176.800,233.231 176.858,234.215 174.502 C 235.887 170.501,240.187 168.775,243.481 170.784 M83.883 171.204 C 83.767 171.647,83.261 173.717,82.758 175.804 L 81.843 179.600 78.362 179.600 L 74.882 179.600 75.664 176.500 C 76.094 174.795,76.623 172.725,76.839 171.900 L 77.231 170.400 80.662 170.400 C 83.902 170.400,84.082 170.445,83.883 171.204 M48.703 282.468 C 43.738 283.828,42.737 293.935,47.235 297.287 C 49.702 299.126,54.400 298.496,54.400 296.326 C 54.400 295.328,54.277 295.166,53.700 295.406 C 51.137 296.476,50.778 296.546,49.755 296.182 C 46.172 294.906,45.647 286.760,49.006 284.559 C 50.075 283.859,51.311 283.972,53.700 284.988 C 54.262 285.227,54.400 285.083,54.400 284.257 C 54.400 282.584,51.549 281.689,48.703 282.468 M168.883 282.268 C 161.802 283.754,163.491 298.200,170.747 298.200 C 174.572 298.200,175.200 297.522,175.200 293.391 L 175.200 290.000 172.772 290.000 C 170.055 290.000,169.146 291.633,171.700 291.927 C 172.731 292.045,172.800 292.175,172.800 293.984 C 172.800 298.337,167.660 296.733,166.973 292.165 C 166.098 286.339,169.205 282.508,172.994 284.743 L 174.400 285.573 174.400 284.401 C 174.400 282.732,171.680 281.681,168.883 282.268 M283.600 290.200 L 283.600 298.000 284.800 298.000 L 286.000 298.000 286.031 291.900 L 286.063 285.800 287.163 289.000 C 288.813 293.800,289.859 293.782,291.528 288.923 L 292.737 285.400 292.768 291.700 L 292.800 298.000 293.800 298.000 L 294.800 298.000 294.800 290.176 L 294.800 282.352 293.341 282.476 C 291.892 282.599,291.872 282.625,290.606 286.146 L 289.331 289.691 288.016 286.046 L 286.702 282.400 285.151 282.400 L 283.600 282.400 283.600 290.200 M351.899 282.900 C 351.539 283.175,351.190 284.030,351.122 284.800 C 351.008 286.103,350.896 286.209,349.500 286.324 C 347.231 286.512,347.320 288.000,349.600 288.000 L 351.200 288.000 351.200 291.946 C 351.200 297.178,351.747 298.000,355.229 298.000 C 357.333 298.000,357.600 297.910,357.600 297.200 C 357.600 296.536,357.333 296.400,356.029 296.400 C 353.591 296.400,353.200 295.733,353.200 291.571 L 353.200 288.000 355.400 288.000 C 358.628 288.000,358.717 286.506,355.500 286.321 L 353.400 286.200 353.278 284.300 C 353.149 282.293,352.953 282.094,351.899 282.900 M59.553 286.601 C 56.213 288.416,56.429 296.417,59.856 297.849 C 64.296 299.704,67.592 296.700,67.098 291.248 C 66.690 286.746,63.219 284.609,59.553 286.601 M73.454 286.829 C 72.580 287.516,72.400 287.550,72.400 287.029 C 72.400 286.625,72.043 286.400,71.400 286.400 L 70.400 286.400 70.400 292.200 L 70.400 298.000 71.347 298.000 C 72.266 298.000,72.299 297.885,72.484 294.024 C 72.706 289.429,73.333 288.000,75.129 288.000 C 76.983 288.000,77.200 288.575,77.200 293.480 L 77.200 298.000 78.400 298.000 L 79.600 298.000 79.600 293.787 C 79.600 286.814,77.088 283.970,73.454 286.829 M97.737 286.823 C 94.316 289.014,94.444 295.144,97.959 297.492 C 100.339 299.082,105.200 298.439,105.200 296.535 C 105.200 295.647,105.077 295.547,104.300 295.805 C 100.769 296.974,97.600 295.940,97.600 293.618 C 97.600 292.848,97.837 292.800,101.600 292.800 L 105.600 292.800 105.600 291.180 C 105.600 286.915,101.307 284.536,97.737 286.823 M112.200 286.478 C 111.760 286.727,111.268 287.127,111.106 287.366 C 110.927 287.630,110.810 287.526,110.806 287.100 C 110.802 286.622,110.483 286.400,109.800 286.400 L 108.800 286.400 108.800 292.200 L 108.800 298.000 109.764 298.000 C 110.711 298.000,110.729 297.931,110.864 293.841 C 111.016 289.179,111.579 288.000,113.648 288.000 C 115.273 288.000,115.600 288.967,115.600 293.774 L 115.600 298.000 116.800 298.000 L 118.000 298.000 117.983 294.500 C 117.946 287.106,115.957 284.347,112.200 286.478 M192.919 286.784 C 186.593 290.641,191.510 300.291,198.600 297.932 C 200.641 297.253,201.314 295.281,199.335 295.779 C 195.504 296.743,193.691 296.396,192.844 294.537 C 192.087 292.874,192.248 292.800,196.625 292.800 L 200.849 292.800 200.571 290.900 C 199.944 286.622,196.353 284.690,192.919 286.784 M208.600 286.462 C 208.160 286.703,207.575 287.181,207.300 287.526 C 206.861 288.076,206.800 288.045,206.800 287.276 C 206.800 286.608,206.562 286.400,205.800 286.400 L 204.800 286.400 204.800 292.200 L 204.800 298.000 205.800 298.000 C 206.767 298.000,206.800 297.911,206.810 295.300 C 206.832 289.028,208.631 286.903,212.500 288.582 C 213.078 288.833,213.200 288.678,213.200 287.689 C 213.200 286.075,210.584 285.377,208.600 286.462 M299.505 286.626 C 296.201 288.419,296.316 296.102,299.673 297.838 C 303.431 299.781,307.200 296.958,307.200 292.200 C 307.200 287.324,303.353 284.538,299.505 286.626 M324.874 286.346 C 324.585 286.529,323.910 286.595,323.374 286.493 L 322.400 286.307 322.400 292.153 L 322.400 298.000 323.388 298.000 L 324.375 298.000 324.488 293.100 C 324.594 288.454,324.644 288.194,325.448 288.079 C 326.578 287.918,326.788 288.823,326.795 293.900 C 326.800 297.992,326.802 298.000,327.788 298.000 L 328.775 298.000 328.888 293.105 C 328.989 288.681,329.072 288.196,329.752 288.066 C 330.953 287.835,331.187 288.718,331.194 293.500 L 331.200 298.000 332.240 298.000 L 333.280 298.000 333.140 292.842 C 333.021 288.454,332.886 287.557,332.238 286.842 C 331.356 285.868,329.520 285.733,328.809 286.589 C 328.379 287.107,328.250 287.107,327.732 286.589 C 327.085 285.942,325.697 285.824,324.874 286.346 M339.400 286.478 C 338.960 286.727,338.468 287.127,338.306 287.366 C 338.127 287.630,338.010 287.526,338.006 287.100 C 338.002 286.622,337.683 286.400,337.000 286.400 L 336.000 286.400 336.000 292.200 L 336.000 298.000 336.964 298.000 C 337.911 298.000,337.929 297.931,338.064 293.841 C 338.216 289.179,338.779 288.000,340.848 288.000 C 342.473 288.000,342.800 288.967,342.800 293.774 L 342.800 298.000 344.000 298.000 L 345.200 298.000 345.183 294.500 C 345.146 287.106,343.157 284.347,339.400 286.478 M82.400 286.675 C 82.400 286.855,83.266 289.432,84.325 292.401 L 86.249 297.800 87.725 297.924 C 88.536 297.992,89.200 297.964,89.200 297.861 C 89.200 297.758,90.094 295.137,91.187 292.037 L 93.174 286.400 92.031 286.400 C 90.934 286.400,90.827 286.578,89.381 290.803 C 88.552 293.225,87.773 295.106,87.649 294.982 C 87.526 294.859,86.774 292.922,85.978 290.679 C 84.672 286.995,84.429 286.588,83.466 286.473 C 82.880 286.404,82.400 286.494,82.400 286.675 M178.017 289.900 C 178.055 297.462,180.321 300.383,184.025 297.644 C 184.968 296.948,185.200 296.897,185.200 297.388 C 185.200 297.774,185.569 298.000,186.200 298.000 L 187.200 298.000 187.200 292.200 L 187.200 286.400 186.245 286.400 C 185.310 286.400,185.288 286.485,185.136 290.568 C 184.969 295.104,184.397 296.400,182.567 296.400 C 180.748 296.400,180.400 295.495,180.400 290.771 L 180.400 286.400 179.200 286.400 L 178.000 286.400 178.017 289.900 M309.626 286.873 C 309.640 287.163,310.508 289.740,311.553 292.600 L 313.454 297.800 314.927 297.924 C 315.737 297.992,316.400 297.964,316.400 297.861 C 316.400 297.758,317.294 295.137,318.387 292.037 L 320.374 286.400 319.235 286.400 C 318.146 286.400,318.031 286.590,316.569 290.787 C 315.728 293.200,314.943 295.076,314.824 294.957 C 314.704 294.838,313.954 292.909,313.156 290.670 C 311.854 287.016,311.598 286.587,310.653 286.473 C 309.976 286.392,309.609 286.535,309.626 286.873 M63.802 288.552 C 65.016 289.440,65.153 293.851,64.010 295.300 C 62.454 297.272,60.213 296.516,59.603 293.814 C 58.669 289.674,61.126 286.595,63.802 288.552 M102.495 288.500 C 104.364 289.944,103.564 291.000,100.600 291.000 C 98.021 291.000,97.811 290.937,97.936 290.200 C 98.267 288.254,100.904 287.271,102.495 288.500 M197.777 288.889 C 199.086 290.758,198.670 291.200,195.600 291.200 C 193.241 291.200,192.800 291.094,192.800 290.526 C 192.800 288.351,196.539 287.122,197.777 288.889 M303.971 289.054 C 305.907 291.515,304.583 296.400,301.980 296.400 C 300.362 296.400,299.429 294.863,299.429 292.200 C 299.429 288.347,302.009 286.560,303.971 289.054 M121.600 291.800 L 121.600 292.800 126.000 292.800 L 130.400 292.800 130.400 291.800 L 130.400 290.800 126.000 290.800 L 121.600 290.800 121.600 291.800 M216.472 291.700 C 216.595 292.561,216.785 292.605,220.900 292.714 L 225.200 292.827 225.200 291.814 L 225.200 290.800 220.772 290.800 C 216.409 290.800,216.346 290.813,216.472 291.700 M61.084 306.250 C 60.230 307.103,60.807 308.852,61.900 308.727 C 62.827 308.620,63.000 308.412,63.000 307.400 C 63.000 306.219,61.821 305.512,61.084 306.250 M108.552 306.581 C 108.191 307.522,108.754 308.000,110.224 308.000 L 111.600 308.000 111.600 313.574 C 111.600 321.316,112.111 322.364,115.900 322.387 C 117.738 322.398,118.000 322.300,118.000 321.600 C 118.000 320.961,117.733 320.800,116.676 320.800 C 113.946 320.800,113.815 320.454,113.666 312.833 L 113.533 306.000 111.154 306.000 C 109.443 306.000,108.712 306.163,108.552 306.581 M181.484 306.250 C 180.599 307.134,181.214 308.800,182.425 308.800 C 183.567 308.800,183.642 308.711,183.525 307.500 C 183.403 306.230,182.225 305.509,181.484 306.250 M190.800 307.000 C 190.800 307.900,190.960 308.000,192.400 308.000 L 194.000 308.000 194.000 314.146 C 194.000 321.749,194.302 322.400,197.829 322.400 C 199.733 322.400,200.000 322.302,200.000 321.600 C 200.000 320.959,199.733 320.800,198.662 320.800 C 196.205 320.800,196.000 320.173,196.000 312.669 L 196.000 306.000 193.400 306.000 C 190.893 306.000,190.800 306.036,190.800 307.000 M203.600 306.981 C 203.600 307.873,203.769 308.000,204.956 308.000 L 206.313 308.000 206.458 313.973 C 206.640 321.433,206.982 322.131,210.541 322.320 C 212.591 322.429,212.800 322.364,212.800 321.620 C 212.800 320.963,212.542 320.799,211.500 320.794 C 209.050 320.782,209.019 320.695,208.800 313.115 L 208.600 306.200 206.100 306.081 C 203.656 305.965,203.600 305.985,203.600 306.981 M297.600 306.981 C 297.600 307.874,297.769 308.000,298.963 308.000 L 300.327 308.000 300.463 313.972 C 300.634 321.430,300.976 322.131,304.541 322.320 C 306.591 322.429,306.800 322.364,306.800 321.620 C 306.800 320.963,306.542 320.799,305.500 320.794 C 303.050 320.782,303.019 320.695,302.800 313.115 L 302.600 306.200 300.100 306.081 C 297.656 305.965,297.600 305.985,297.600 306.981 M310.400 306.981 C 310.400 307.874,310.569 308.000,311.764 308.000 L 313.128 308.000 313.264 314.169 C 313.394 320.054,313.444 320.384,314.370 321.369 C 315.672 322.754,319.600 322.927,319.600 321.600 C 319.600 320.965,319.331 320.799,318.300 320.794 C 315.850 320.782,315.819 320.695,315.600 313.115 L 315.400 306.200 312.900 306.081 C 310.456 305.965,310.400 305.985,310.400 306.981 M48.100 307.288 C 47.398 307.627,47.200 308.061,47.200 309.261 C 47.200 310.753,47.157 310.800,45.800 310.800 C 44.667 310.800,44.400 310.952,44.400 311.600 C 44.400 312.248,44.667 312.400,45.800 312.400 L 47.200 312.400 47.202 315.500 C 47.206 321.302,47.934 322.400,51.774 322.400 C 53.733 322.400,54.000 322.304,54.000 321.600 C 54.000 320.950,53.733 320.800,52.574 320.800 C 49.839 320.800,49.600 320.432,49.600 316.207 L 49.600 312.442 51.696 312.321 C 54.892 312.137,55.009 310.800,51.829 310.800 L 49.600 310.800 49.600 308.800 C 49.600 306.684,49.520 306.603,48.100 307.288 M287.805 307.300 C 287.711 307.575,286.701 310.860,285.561 314.600 C 284.420 318.340,283.398 321.638,283.289 321.929 C 283.145 322.316,283.447 322.424,284.407 322.329 C 285.597 322.212,285.773 322.020,286.273 320.300 L 286.824 318.400 289.375 318.400 L 291.926 318.400 292.439 320.400 C 292.919 322.274,293.031 322.400,294.226 322.400 L 295.501 322.400 294.195 318.100 C 293.476 315.735,292.408 312.225,291.820 310.300 L 290.752 306.800 289.363 306.800 C 288.600 306.800,287.898 307.025,287.805 307.300 M291.021 315.300 C 291.258 316.375,291.222 316.400,289.432 316.400 C 287.452 316.400,287.315 316.189,287.980 314.160 C 288.190 313.522,288.576 312.190,288.840 311.200 L 289.318 309.400 290.049 311.800 C 290.450 313.120,290.888 314.695,291.021 315.300 M72.305 311.026 C 69.059 312.787,69.149 320.519,72.435 322.218 C 76.232 324.182,80.000 321.383,80.000 316.600 C 80.000 311.724,76.153 308.938,72.305 311.026 M86.254 311.229 C 85.380 311.916,85.200 311.950,85.200 311.429 C 85.200 311.025,84.843 310.800,84.200 310.800 L 83.200 310.800 83.200 316.600 L 83.200 322.400 84.153 322.400 C 85.083 322.400,85.111 322.300,85.265 318.465 C 85.451 313.835,86.097 312.400,87.995 312.400 C 89.679 312.400,90.000 313.324,90.000 318.174 L 90.000 322.400 91.200 322.400 L 92.400 322.400 92.398 318.500 C 92.394 311.250,89.932 308.336,86.254 311.229 M97.300 310.812 C 96.685 311.060,96.400 311.509,96.400 312.230 C 96.400 313.088,96.531 313.227,97.100 312.972 C 98.373 312.401,101.596 312.299,102.212 312.810 C 103.574 313.940,102.917 314.674,100.300 314.944 C 96.348 315.353,94.797 317.107,95.652 320.204 C 96.345 322.713,100.359 323.647,102.423 321.779 C 103.121 321.148,103.204 321.145,103.434 321.746 C 103.573 322.105,104.097 322.400,104.600 322.400 C 105.618 322.400,105.692 315.250,104.701 312.651 C 103.973 310.743,99.955 309.745,97.300 310.812 M169.891 311.200 C 168.674 312.157,168.400 312.194,168.400 311.400 C 168.400 311.027,168.022 310.800,167.400 310.800 L 166.400 310.800 166.400 316.600 L 166.400 322.400 167.600 322.400 L 168.800 322.400 168.800 318.819 C 168.800 314.841,169.217 313.503,170.663 312.844 C 171.875 312.292,173.472 312.269,173.800 312.800 C 174.281 313.578,174.800 313.185,174.800 312.043 C 174.800 310.223,171.790 309.706,169.891 311.200 M218.000 310.756 C 217.283 310.954,216.963 311.354,216.868 312.171 C 216.756 313.141,216.845 313.265,217.468 313.003 C 219.474 312.161,222.273 312.284,222.946 313.244 C 223.889 314.591,223.776 314.800,222.100 314.802 C 218.119 314.808,216.000 316.240,216.000 318.925 C 216.000 322.417,220.210 324.144,222.865 321.741 C 223.528 321.141,223.603 321.141,223.834 321.746 C 224.382 323.172,226.392 322.567,225.972 321.103 C 225.767 320.389,225.600 318.421,225.600 316.729 C 225.600 311.196,223.210 309.318,218.000 310.756 M325.105 311.003 C 321.696 312.924,321.809 320.446,325.273 322.238 C 329.621 324.486,333.560 320.482,332.599 314.791 C 332.002 311.262,328.124 309.302,325.105 311.003 M58.400 311.600 C 58.400 312.214,58.667 312.400,59.545 312.400 L 60.691 312.400 60.891 316.232 C 61.156 321.284,61.732 322.150,64.941 322.320 C 66.991 322.429,67.200 322.364,67.200 321.620 C 67.200 320.953,66.944 320.800,65.829 320.800 C 63.517 320.800,63.200 320.121,63.200 315.171 L 63.200 310.800 60.800 310.800 C 58.667 310.800,58.400 310.889,58.400 311.600 M178.800 311.600 C 178.800 312.248,179.067 312.400,180.200 312.400 L 181.600 312.400 181.600 316.346 C 181.600 321.495,182.173 322.400,185.429 322.400 C 187.333 322.400,187.600 322.302,187.600 321.600 C 187.600 320.959,187.333 320.800,186.262 320.800 C 183.995 320.800,183.600 319.950,183.600 315.069 L 183.600 310.800 181.200 310.800 C 179.067 310.800,178.800 310.889,178.800 311.600 M76.771 313.454 C 78.707 315.915,77.383 320.800,74.780 320.800 C 73.182 320.800,72.297 319.343,72.258 316.647 C 72.202 312.761,74.787 310.932,76.771 313.454 M329.610 313.500 C 330.708 314.891,330.593 318.682,329.414 319.985 C 328.251 321.269,326.542 321.052,325.596 319.500 C 323.149 315.488,326.833 309.982,329.610 313.500 M336.000 316.200 L 336.000 317.200 340.400 317.200 L 344.800 317.200 344.800 316.200 L 344.800 315.200 340.400 315.200 L 336.000 315.200 336.000 316.200 M102.894 317.900 C 102.321 321.120,97.600 322.055,97.600 318.949 C 97.600 317.464,98.642 316.800,100.973 316.800 C 103.062 316.800,103.087 316.814,102.894 317.900 M223.600 317.213 C 223.600 318.451,222.364 320.394,221.426 320.629 C 218.869 321.271,217.055 319.307,218.615 317.584 C 219.390 316.727,223.600 316.413,223.600 317.213 M134.400 338.600 L 134.400 346.800 135.400 346.800 C 136.392 346.800,136.400 346.772,136.400 343.226 C 136.400 338.336,137.031 336.820,139.071 336.806 C 140.847 336.794,141.200 337.726,141.200 342.429 L 141.200 346.800 142.200 346.800 L 143.200 346.800 143.200 341.782 C 143.200 335.158,141.592 333.335,137.580 335.410 L 136.400 336.021 136.400 333.210 C 136.400 330.479,136.372 330.400,135.400 330.400 L 134.400 330.400 134.400 338.600 M254.800 338.600 L 254.800 346.800 255.755 346.800 C 256.690 346.800,256.712 346.715,256.864 342.632 C 257.036 337.966,257.593 336.800,259.648 336.800 C 261.273 336.800,261.600 337.767,261.600 342.574 L 261.600 346.800 262.800 346.800 L 264.000 346.800 263.983 343.300 C 263.945 335.677,262.115 333.272,257.980 335.410 L 256.800 336.021 256.800 333.210 C 256.800 330.479,256.772 330.400,255.800 330.400 L 254.800 330.400 254.800 338.600 M46.992 331.532 C 42.662 333.543,43.638 338.392,48.659 339.819 C 51.438 340.609,52.100 341.152,52.100 342.640 C 52.100 344.895,49.466 345.823,46.538 344.600 C 44.614 343.796,44.400 343.835,44.400 344.986 C 44.400 347.681,51.532 347.938,53.594 345.317 C 55.984 342.279,54.115 338.899,49.347 337.633 C 47.338 337.100,46.701 336.404,46.871 334.927 C 47.110 332.850,49.528 332.396,52.900 333.795 C 53.477 334.034,53.600 333.872,53.600 332.870 C 53.600 331.540,53.346 331.392,50.400 331.015 C 49.099 330.849,48.155 330.992,46.992 331.532 M167.531 331.435 C 165.157 332.446,164.183 335.246,165.391 337.584 C 165.955 338.673,167.057 339.249,170.600 340.306 C 172.390 340.840,173.150 342.406,172.271 343.748 C 171.184 345.407,169.071 345.561,165.900 344.212 C 165.321 343.966,165.200 344.126,165.200 345.138 C 165.200 346.212,165.384 346.414,166.700 346.779 C 175.020 349.089,178.651 340.298,170.408 337.802 C 167.617 336.957,167.093 336.477,167.271 334.927 C 167.510 332.850,169.928 332.396,173.300 333.795 C 173.877 334.034,174.000 333.872,174.000 332.870 C 174.000 331.537,173.732 331.383,170.800 331.027 C 169.620 330.885,168.494 331.025,167.531 331.435 M60.900 331.688 C 60.198 332.027,60.000 332.461,60.000 333.661 C 60.000 335.153,59.957 335.200,58.600 335.200 C 57.467 335.200,57.200 335.352,57.200 336.000 C 57.200 336.648,57.467 336.800,58.600 336.800 L 60.000 336.800 60.002 339.900 C 60.006 345.622,60.753 346.800,64.374 346.800 C 66.133 346.800,66.400 346.695,66.400 346.000 C 66.400 345.340,66.133 345.200,64.880 345.200 C 62.643 345.200,62.400 344.741,62.400 340.520 L 62.400 336.800 64.400 336.800 C 66.133 336.800,66.400 336.693,66.400 336.000 C 66.400 335.307,66.133 335.200,64.400 335.200 L 62.400 335.200 62.400 333.200 C 62.400 331.084,62.320 331.003,60.900 331.688 M124.699 331.700 C 124.339 331.975,123.990 332.830,123.922 333.600 C 123.808 334.903,123.696 335.009,122.300 335.124 C 120.031 335.312,120.120 336.800,122.400 336.800 L 124.000 336.800 124.000 340.746 C 124.000 345.978,124.547 346.800,128.029 346.800 C 130.133 346.800,130.400 346.710,130.400 346.000 C 130.400 345.336,130.133 345.200,128.829 345.200 C 126.391 345.200,126.000 344.533,126.000 340.371 L 126.000 336.800 128.200 336.800 C 131.428 336.800,131.517 335.306,128.300 335.121 L 126.200 335.000 126.078 333.100 C 125.949 331.093,125.753 330.894,124.699 331.700 M181.300 331.688 C 180.598 332.027,180.400 332.461,180.400 333.661 C 180.400 335.153,180.357 335.200,179.000 335.200 C 177.867 335.200,177.600 335.352,177.600 336.000 C 177.600 336.648,177.867 336.800,179.000 336.800 L 180.400 336.800 180.410 339.700 C 180.429 345.615,181.175 346.800,184.876 346.800 C 186.933 346.800,187.200 346.708,187.200 346.000 C 187.200 345.350,186.933 345.200,185.774 345.200 C 183.036 345.200,182.800 344.834,182.800 340.586 L 182.800 336.800 185.000 336.800 C 186.933 336.800,187.200 336.703,187.200 336.000 C 187.200 335.297,186.933 335.200,185.000 335.200 L 182.800 335.200 182.800 333.200 C 182.800 331.084,182.720 331.003,181.300 331.688 M245.300 331.638 C 244.571 331.910,244.400 332.281,244.400 333.587 L 244.400 335.200 242.800 335.200 C 241.467 335.200,241.200 335.333,241.200 336.000 C 241.200 336.667,241.467 336.800,242.800 336.800 L 244.400 336.800 244.400 340.818 C 244.400 345.911,245.021 346.800,248.582 346.800 C 251.523 346.800,251.984 345.332,249.109 345.123 C 246.913 344.963,246.414 343.999,246.406 339.900 L 246.400 336.800 248.600 336.800 C 251.828 336.800,251.917 335.306,248.700 335.121 L 246.600 335.000 246.400 333.151 C 246.214 331.430,246.138 331.325,245.300 331.638 M75.400 335.262 C 74.960 335.503,74.375 335.981,74.100 336.326 C 73.661 336.876,73.600 336.845,73.600 336.076 C 73.600 335.408,73.362 335.200,72.600 335.200 L 71.600 335.200 71.600 341.000 L 71.600 346.800 72.600 346.800 C 73.575 346.800,73.600 346.726,73.602 343.900 C 73.607 337.798,75.419 335.726,79.300 337.386 C 80.330 337.827,80.260 335.767,79.226 335.214 C 78.230 334.681,76.421 334.704,75.400 335.262 M85.767 335.188 C 82.569 336.481,81.387 342.095,83.695 345.030 C 85.817 347.727,92.400 347.958,92.400 345.335 C 92.400 344.447,92.277 344.347,91.500 344.605 C 87.969 345.774,84.800 344.740,84.800 342.418 C 84.800 341.648,85.037 341.600,88.800 341.600 L 92.800 341.600 92.800 339.980 C 92.800 336.095,89.345 333.740,85.767 335.188 M99.054 335.629 C 98.180 336.316,98.000 336.350,98.000 335.829 C 98.000 335.425,97.643 335.200,97.000 335.200 L 96.000 335.200 96.000 341.000 L 96.000 346.800 96.955 346.800 C 97.890 346.800,97.912 346.715,98.064 342.632 C 98.236 337.966,98.793 336.800,100.848 336.800 C 102.473 336.800,102.800 337.767,102.800 342.574 L 102.800 346.800 104.000 346.800 L 105.200 346.800 105.190 343.100 C 105.171 335.681,102.744 332.726,99.054 335.629 M110.800 335.317 C 107.812 336.826,107.574 344.135,110.447 346.148 C 111.686 347.016,114.325 346.990,115.318 346.100 C 116.082 345.416,116.093 345.432,115.805 346.800 C 115.240 349.487,113.339 350.247,110.300 349.001 C 109.741 348.772,109.600 348.920,109.600 349.734 C 109.600 351.071,110.017 351.280,112.737 351.306 C 117.351 351.349,118.000 350.133,118.000 341.440 L 118.000 335.200 117.000 335.200 C 116.450 335.200,116.000 335.390,116.000 335.623 C 116.000 335.860,115.609 335.772,115.111 335.423 C 114.041 334.673,112.166 334.627,110.800 335.317 M195.589 335.477 C 195.045 335.849,194.468 336.344,194.306 336.577 C 194.142 336.813,194.010 336.602,194.006 336.100 C 194.001 335.408,193.769 335.200,193.000 335.200 L 192.000 335.200 192.000 341.000 L 192.000 346.800 193.000 346.800 C 193.967 346.800,194.000 346.711,194.010 344.100 C 194.032 337.828,195.831 335.703,199.700 337.382 C 200.279 337.633,200.400 337.477,200.400 336.486 C 200.400 334.690,197.597 334.103,195.589 335.477 M206.012 335.312 C 202.979 336.846,201.955 342.691,204.264 345.284 C 206.474 347.766,212.800 347.803,212.800 345.335 C 212.800 344.449,212.676 344.347,211.900 344.599 C 208.759 345.618,206.473 345.157,205.644 343.337 C 204.903 341.709,205.058 341.632,209.300 341.514 L 213.400 341.400 213.266 339.800 C 212.931 335.789,209.394 333.600,206.012 335.312 M219.454 335.629 C 218.580 336.316,218.400 336.350,218.400 335.829 C 218.400 335.425,218.043 335.200,217.400 335.200 L 216.400 335.200 216.400 341.000 L 216.400 346.800 217.347 346.800 C 218.266 346.800,218.299 346.685,218.484 342.824 C 218.706 338.229,219.333 336.800,221.129 336.800 C 222.983 336.800,223.200 337.375,223.200 342.280 L 223.200 346.800 224.400 346.800 L 225.600 346.800 225.600 342.587 C 225.600 335.614,223.088 332.770,219.454 335.629 M231.148 335.403 C 228.231 336.989,228.053 344.191,230.883 346.173 C 232.090 347.019,234.736 346.979,235.725 346.100 C 236.498 345.413,236.508 345.431,236.231 347.000 C 235.792 349.494,233.726 350.242,230.700 349.001 C 230.141 348.772,230.000 348.920,230.000 349.734 C 230.000 351.071,230.417 351.280,233.137 351.306 C 237.823 351.350,238.400 350.288,238.400 341.620 L 238.400 335.200 237.400 335.200 C 236.850 335.200,236.400 335.390,236.400 335.623 C 236.400 335.860,236.009 335.772,235.511 335.423 C 234.414 334.654,232.543 334.646,231.148 335.403 M299.200 335.156 C 298.488 335.352,298.163 335.754,298.070 336.552 C 297.952 337.571,298.024 337.643,298.870 337.342 C 300.975 336.592,303.734 336.928,304.276 338.000 C 304.671 338.783,304.674 339.016,304.290 339.075 C 304.021 339.117,302.779 339.263,301.532 339.400 C 298.477 339.736,297.200 340.887,297.200 343.305 C 297.200 346.816,301.402 348.551,304.065 346.141 C 304.728 345.541,304.803 345.541,305.034 346.146 C 305.582 347.572,307.592 346.967,307.172 345.503 C 306.967 344.789,306.800 342.821,306.800 341.129 C 306.800 335.596,304.410 333.718,299.200 335.156 M313.454 335.629 C 312.580 336.316,312.400 336.350,312.400 335.829 C 312.400 335.425,312.043 335.200,311.400 335.200 L 310.400 335.200 310.400 341.000 L 310.400 346.800 311.353 346.800 C 312.283 346.800,312.311 346.700,312.465 342.865 C 312.651 338.235,313.297 336.800,315.195 336.800 C 316.879 336.800,317.200 337.724,317.200 342.574 L 317.200 346.800 318.400 346.800 L 319.600 346.800 319.598 342.900 C 319.594 335.650,317.132 332.736,313.454 335.629 M325.646 335.485 C 321.961 337.300,321.908 343.853,325.559 346.292 C 328.027 347.941,332.000 347.229,332.000 345.138 C 332.000 343.995,331.970 343.976,331.111 344.577 C 329.011 346.048,325.965 344.993,325.361 342.586 C 324.305 338.379,327.886 335.164,331.111 337.423 C 331.972 338.026,332.000 338.007,332.000 336.813 C 332.000 334.811,328.499 334.080,325.646 335.485 M337.761 335.559 C 334.277 337.683,334.504 344.819,338.110 346.530 C 340.847 347.829,345.200 347.095,345.200 345.335 C 345.200 344.453,345.072 344.346,344.300 344.583 C 340.572 345.727,337.600 344.767,337.600 342.418 C 337.600 341.648,337.837 341.600,341.600 341.600 L 345.600 341.600 345.600 340.160 C 345.600 335.841,341.370 333.358,337.761 335.559 M282.961 335.900 C 283.079 336.285,283.548 338.220,284.003 340.200 C 285.555 346.948,285.521 346.864,286.688 346.724 C 287.600 346.616,287.823 346.278,288.448 344.051 C 289.386 340.715,289.376 340.716,290.224 343.986 C 290.904 346.606,291.030 346.800,292.046 346.800 C 293.120 346.800,293.159 346.711,294.490 341.100 L 295.843 335.400 294.885 335.270 C 293.628 335.099,293.757 334.839,292.727 339.619 L 291.827 343.800 291.039 341.100 C 289.960 337.399,288.780 337.253,287.808 340.700 C 287.451 341.965,287.107 343.180,287.042 343.400 C 286.917 343.830,285.200 336.720,285.200 335.770 C 285.200 335.401,284.768 335.200,283.973 335.200 C 282.989 335.200,282.789 335.339,282.961 335.900 M90.338 338.139 C 91.095 339.726,90.569 340.062,87.559 339.921 C 85.253 339.812,85.013 339.721,85.136 339.000 C 85.555 336.537,89.279 335.921,90.338 338.139 M115.009 337.610 C 116.468 339.222,115.906 343.950,114.160 344.745 C 111.277 346.059,109.255 340.226,111.609 337.389 C 112.311 336.544,114.152 336.663,115.009 337.610 M210.577 337.689 C 211.886 339.558,211.470 340.000,208.400 340.000 C 205.964 340.000,205.600 339.906,205.600 339.275 C 205.600 337.078,209.319 335.892,210.577 337.689 M235.333 337.526 C 237.283 339.681,236.167 345.200,233.782 345.200 C 231.572 345.200,230.213 339.987,231.823 337.689 C 232.590 336.594,234.413 336.509,235.333 337.526 M342.275 337.114 C 342.872 337.494,343.631 339.436,343.308 339.759 C 342.776 340.291,337.600 340.014,337.600 339.454 C 337.600 337.613,340.655 336.084,342.275 337.114 M304.800 341.613 C 304.800 342.892,303.564 344.794,302.570 345.043 C 300.049 345.676,298.275 343.685,299.830 341.967 C 300.592 341.125,304.800 340.825,304.800 341.613 " stroke="none" fill="#000000" fill-rule="evenodd"></path></g></svg>