<svg id="svg" xmlns="http://www.w3.org/2000/svg" xmlns:xlink="http://www.w3.org/1999/xlink" width="400" height="400" viewBox="0, 0, 400,400"><g id="svgg"><path id="path0" d="M57.186 14.521 L 37.226 14.573 25.798 25.998 L 14.371 37.424 14.371 200.000 L 14.371 362.576 25.899 374.102 L 37.426 385.629 200.001 385.629 L 362.576 385.629 374.102 374.101 L 385.629 362.574 385.629 199.999 L 385.629 37.424 374.101 25.898 L 362.574 14.371 219.860 14.420 C 141.367 14.447,68.164 14.492,57.186 14.521 M365.618 34.380 L 373.653 42.413 373.653 200.000 L 373.653 357.587 365.618 365.620 L 357.583 373.653 200.000 373.653 L 42.417 373.653 34.382 365.620 L 26.347 357.587 26.347 200.000 L 26.347 42.413 34.281 34.481 L 42.216 26.549 59.581 26.497 C 69.132 26.468,140.089 26.423,217.265 26.396 L 357.583 26.347 365.618 34.380 M184.232 78.348 C 184.232 78.628,180.027 106.666,179.978 106.716 C 179.789 106.904,176.139 107.752,176.034 107.632 C 175.963 107.551,171.932 102.475,167.076 96.353 L 158.246 85.220 157.616 85.603 C 157.270 85.813,149.621 90.230,140.619 95.417 C 131.617 100.604,124.216 104.878,124.173 104.915 C 124.129 104.951,126.442 110.934,129.312 118.209 C 132.183 125.485,134.531 131.529,134.531 131.642 C 134.531 131.755,133.917 132.456,133.167 133.200 L 131.803 134.554 120.343 130.032 C 114.039 127.544,108.018 125.170,106.961 124.756 L 105.040 124.002 95.347 140.793 C 90.016 150.029,85.598 157.732,85.529 157.912 C 85.430 158.170,101.067 170.875,107.757 175.971 C 107.830 176.027,106.856 179.848,106.746 179.935 C 106.713 179.961,100.444 180.899,92.814 182.019 C 85.185 183.139,78.785 184.101,78.593 184.157 C 78.230 184.262,78.036 217.173,78.370 221.882 L 78.497 223.666 92.492 225.734 C 100.189 226.872,106.557 227.864,106.642 227.938 C 106.907 228.171,107.805 231.800,107.627 231.921 C 105.208 233.570,85.440 249.641,85.532 249.884 C 85.660 250.225,104.777 283.445,104.972 283.667 C 105.037 283.741,111.063 281.438,118.363 278.550 L 131.637 273.300 133.116 274.757 L 134.595 276.215 129.349 289.513 C 126.464 296.828,124.136 302.845,124.177 302.886 C 124.218 302.926,131.886 307.365,141.218 312.750 L 158.184 322.540 158.605 322.099 C 158.836 321.856,162.816 316.876,167.449 311.032 C 172.081 305.189,175.954 300.357,176.055 300.295 C 176.224 300.190,179.786 301.077,179.982 301.272 C 180.030 301.321,181.009 307.674,182.157 315.391 C 183.305 323.108,184.264 329.440,184.288 329.463 C 184.441 329.609,223.753 329.765,223.755 329.620 C 223.763 329.146,227.930 301.345,228.004 301.270 C 228.199 301.076,231.761 300.191,231.929 300.295 C 232.030 300.357,235.903 305.189,240.535 311.032 C 245.168 316.876,249.148 321.856,249.380 322.099 L 249.800 322.540 266.766 312.750 C 276.098 307.365,283.766 302.926,283.807 302.886 C 283.848 302.845,281.520 296.828,278.635 289.513 L 273.389 276.215 274.868 274.757 L 276.347 273.300 289.621 278.550 C 296.921 281.438,302.947 283.741,303.012 283.667 C 303.207 283.445,322.324 250.225,322.452 249.884 C 322.544 249.641,302.776 233.570,300.357 231.921 C 300.179 231.800,301.077 228.171,301.342 227.938 C 301.427 227.864,307.795 226.872,315.492 225.734 L 329.487 223.666 329.614 221.882 C 329.948 217.173,329.754 184.262,329.391 184.157 C 329.199 184.101,322.799 183.139,315.170 182.019 C 307.540 180.899,301.271 179.961,301.238 179.935 C 301.128 179.848,300.154 176.027,300.227 175.971 C 306.917 170.875,322.554 158.170,322.455 157.912 C 322.386 157.732,317.968 150.029,312.637 140.793 L 302.944 124.002 301.023 124.756 C 299.966 125.170,293.945 127.544,287.641 130.032 L 276.181 134.554 274.817 133.200 C 274.067 132.456,273.453 131.755,273.453 131.642 C 273.453 131.529,275.801 125.485,278.672 118.209 C 281.542 110.934,283.855 104.951,283.811 104.915 C 283.768 104.878,276.367 100.604,267.365 95.417 C 258.363 90.230,250.714 85.813,250.368 85.603 L 249.738 85.220 240.908 96.353 C 236.052 102.475,232.021 107.551,231.950 107.632 C 231.845 107.752,228.195 106.904,228.006 106.716 C 227.957 106.666,223.752 78.628,223.752 78.348 C 223.752 78.291,214.860 78.244,203.992 78.244 C 193.124 78.244,184.232 78.291,184.232 78.348 M208.483 115.972 C 257.077 118.618,294.198 159.498,292.003 207.947 C 289.479 263.658,236.466 303.029,182.335 289.392 C 136.977 277.965,108.379 232.627,117.576 186.727 C 126.169 143.835,165.011 113.604,208.483 115.972 " stroke="none" fill="#000000" fill-rule="evenodd"></path></g></svg>