<svg id="svg" xmlns="http://www.w3.org/2000/svg" xmlns:xlink="http://www.w3.org/1999/xlink" width="400" height="400" viewBox="0, 0, 400,400"><g id="svgg"><path id="path0" d="M57.186 14.521 L 37.226 14.573 25.798 25.998 L 14.371 37.424 14.371 200.000 L 14.371 362.576 25.899 374.102 L 37.426 385.629 200.001 385.629 L 362.576 385.629 374.102 374.101 L 385.629 362.574 385.629 199.999 L 385.629 37.424 374.101 25.898 L 362.574 14.371 219.860 14.420 C 141.367 14.447,68.164 14.492,57.186 14.521 M365.618 34.380 L 373.653 42.413 373.653 200.000 L 373.653 357.587 365.618 365.620 L 357.583 373.653 200.000 373.653 L 42.417 373.653 34.382 365.620 L 26.347 357.587 26.347 200.000 L 26.347 42.413 34.281 34.481 L 42.216 26.549 59.581 26.497 C 69.132 26.468,140.089 26.423,217.265 26.396 L 357.583 26.347 365.618 34.380 M133.732 133.832 L 67.565 200.000 133.783 266.218 L 200.000 332.435 266.217 266.218 L 332.435 200.000 266.268 133.832 C 229.875 97.440,200.055 67.665,200.000 67.665 C 199.945 67.665,170.125 97.440,133.732 133.832 M257.784 142.315 L 315.469 200.000 257.734 257.735 L 200.000 315.469 142.266 257.735 L 84.531 200.000 142.216 142.315 C 173.942 110.589,199.945 84.631,200.000 84.631 C 200.055 84.631,226.058 110.589,257.784 142.315 M225.050 160.609 C 220.783 160.947,215.462 161.936,209.531 163.492 L 208.782 163.688 208.782 168.293 C 208.782 172.596,208.805 172.888,209.132 172.762 C 228.226 165.391,242.005 169.097,241.014 181.337 C 240.431 188.545,235.927 191.405,224.900 191.568 L 219.162 191.653 219.162 195.727 L 219.162 199.800 222.705 199.804 C 231.812 199.812,235.549 200.837,239.027 204.283 C 244.658 209.861,243.868 220.268,237.474 224.759 C 231.452 228.989,219.902 228.641,209.481 223.916 C 208.273 223.368,207.128 222.873,206.936 222.814 C 206.610 222.715,206.587 223.034,206.587 227.612 L 206.587 232.516 208.533 233.140 C 232.403 240.790,251.051 233.861,252.499 216.803 C 253.352 206.763,248.846 199.466,239.835 196.289 C 238.318 195.754,238.277 195.724,238.837 195.546 C 247.220 192.872,251.233 187.336,250.841 178.984 C 250.283 167.083,239.578 159.456,225.050 160.609 M166.467 188.024 L 166.467 198.802 155.689 198.802 L 144.910 198.802 144.910 202.994 L 144.910 207.186 155.687 207.186 L 166.464 207.186 166.515 217.914 L 166.567 228.643 170.709 228.697 L 174.850 228.751 174.850 217.968 L 174.850 207.186 185.729 207.186 L 196.607 207.186 196.607 202.994 L 196.607 198.802 185.729 198.802 L 174.850 198.802 174.850 188.024 L 174.850 177.246 170.659 177.246 L 166.467 177.246 166.467 188.024 " stroke="none" fill="#000000" fill-rule="evenodd"></path></g></svg>