<svg id="svg" xmlns="http://www.w3.org/2000/svg" xmlns:xlink="http://www.w3.org/1999/xlink" width="400" height="400" viewBox="0, 0, 400,400"><g id="svgg"><path id="path0" d="M25.497 25.503 L 14.000 37.005 14.000 200.005 L 14.000 363.005 25.503 374.503 L 37.005 386.000 200.005 386.000 L 363.005 386.000 374.503 374.497 L 386.000 362.995 386.000 199.995 L 386.000 36.995 374.497 25.497 L 362.995 14.000 199.995 14.000 L 36.995 14.000 25.497 25.503 M365.896 34.096 L 374.000 42.193 374.000 199.993 L 374.000 357.793 365.904 365.896 L 357.807 374.000 200.007 374.000 L 42.207 374.000 34.104 365.904 L 26.000 357.807 26.000 200.007 L 26.000 42.207 34.096 34.104 L 42.193 26.000 199.993 26.000 L 357.793 26.000 365.896 34.096 M165.200 62.400 L 165.200 78.400 167.391 78.400 L 169.582 78.400 169.691 71.100 L 169.800 63.800 176.300 63.690 L 182.800 63.580 182.800 61.800 L 182.800 60.020 176.300 59.910 L 169.800 59.800 169.800 55.000 L 169.800 50.200 177.100 50.091 L 184.400 49.982 184.400 48.191 L 184.400 46.400 174.800 46.400 L 165.200 46.400 165.200 62.400 M196.453 48.900 C 195.072 53.152,187.600 77.805,187.600 78.111 C 187.600 78.270,188.659 78.400,189.953 78.400 L 192.305 78.400 192.777 76.500 C 193.037 75.455,193.521 73.655,193.853 72.500 L 194.457 70.400 200.013 70.400 L 205.569 70.400 206.019 72.100 C 206.266 73.035,206.753 74.835,207.100 76.100 L 207.731 78.400 210.066 78.400 C 211.350 78.400,212.399 78.265,212.398 78.100 C 212.397 77.842,208.141 63.799,204.032 50.500 L 202.766 46.400 200.015 46.400 L 197.265 46.400 196.453 48.900 M216.000 62.400 L 216.000 78.400 218.200 78.400 L 220.400 78.400 220.432 65.700 L 220.465 53.000 221.214 54.600 C 221.625 55.480,223.996 61.193,226.481 67.296 L 231.000 78.392 233.900 78.396 L 236.800 78.400 236.800 62.400 L 236.800 46.400 234.606 46.400 L 232.411 46.400 232.306 58.959 L 232.200 71.519 227.050 58.959 L 221.899 46.400 218.950 46.400 L 216.000 46.400 216.000 62.400 M202.256 58.900 L 204.261 66.200 202.131 66.320 C 200.959 66.386,199.035 66.386,197.856 66.320 L 195.713 66.200 197.723 58.900 C 198.828 54.885,199.849 51.600,199.991 51.600 C 200.134 51.600,201.153 54.885,202.256 58.900 M192.587 122.193 L 185.400 144.387 161.861 144.493 L 138.322 144.600 155.641 157.200 C 165.167 164.130,173.718 170.342,174.645 171.005 L 176.329 172.209 169.172 194.205 C 165.236 206.302,162.062 216.348,162.118 216.530 C 162.174 216.711,170.585 210.781,180.810 203.351 C 191.034 195.922,199.670 189.843,200.000 189.843 C 200.330 189.843,208.966 195.922,219.190 203.351 C 229.415 210.781,237.826 216.711,237.882 216.530 C 237.938 216.348,234.764 206.302,230.828 194.205 L 223.671 172.209 225.355 171.005 C 226.282 170.342,234.833 164.130,244.359 157.200 L 261.678 144.600 238.139 144.493 L 214.600 144.387 207.413 122.193 C 203.460 109.987,200.124 100.000,200.000 100.000 C 199.876 100.000,196.540 109.987,192.587 122.193 M204.538 139.195 L 208.830 152.390 222.967 152.495 L 237.103 152.600 225.762 160.800 C 219.524 165.310,214.416 169.135,214.410 169.300 C 214.405 169.464,216.307 175.463,218.637 182.629 C 220.967 189.796,222.809 195.724,222.730 195.803 C 222.651 195.883,217.504 192.254,211.293 187.741 L 200.000 179.534 188.707 187.741 C 182.496 192.254,177.349 195.883,177.270 195.803 C 177.191 195.724,179.033 189.796,181.363 182.629 C 183.693 175.463,185.595 169.464,185.590 169.300 C 185.584 169.135,180.476 165.310,174.238 160.800 L 162.897 152.600 177.033 152.495 L 191.170 152.390 195.462 139.195 C 197.823 131.938,199.865 126.000,200.000 126.000 C 200.135 126.000,202.177 131.938,204.538 139.195 M328.800 136.812 C 327.810 137.019,325.875 137.584,324.500 138.068 L 322.000 138.948 322.000 141.848 L 322.000 144.748 324.900 143.417 C 332.019 140.150,337.305 140.701,339.214 144.908 C 341.539 150.029,339.645 153.274,325.666 168.117 L 321.600 172.434 321.600 174.817 L 321.600 177.200 333.800 177.200 L 346.000 177.200 346.000 174.808 L 346.000 172.415 336.900 172.308 L 327.800 172.200 334.000 165.779 C 343.712 155.720,345.575 152.797,345.587 147.600 C 345.603 139.868,337.892 134.912,328.800 136.812 M71.200 137.174 C 65.226 138.998,62.600 142.945,62.600 150.100 L 62.600 154.800 58.100 154.800 L 53.600 154.800 53.600 147.200 L 53.600 139.600 51.200 139.600 L 48.800 139.600 48.800 149.600 L 48.800 159.600 58.843 159.600 C 68.252 159.600,68.867 159.556,68.595 158.900 C 64.627 149.351,68.358 141.889,76.798 142.493 C 83.711 142.987,86.410 149.117,83.450 157.600 C 82.875 159.250,82.358 160.780,82.302 161.000 C 82.241 161.238,83.319 161.400,84.960 161.400 L 87.719 161.400 88.278 159.800 C 90.633 153.053,89.165 143.430,85.240 139.884 C 82.319 137.245,75.365 135.902,71.200 137.174 M84.000 172.800 L 84.000 176.800 66.400 176.800 L 48.800 176.800 48.800 179.711 L 48.800 182.623 53.786 187.011 C 59.376 191.932,59.169 191.844,61.246 190.200 C 63.197 188.656,63.302 188.945,59.628 185.754 C 57.883 184.239,56.443 182.865,56.428 182.700 C 56.412 182.535,62.610 182.400,70.200 182.400 L 84.000 182.400 84.000 186.600 L 84.000 190.800 86.400 190.800 L 88.800 190.800 88.800 179.800 L 88.800 168.800 86.400 168.800 L 84.000 168.800 84.000 172.800 M323.705 285.378 C 310.484 288.397,304.101 305.281,307.839 327.344 C 310.221 341.402,318.797 347.748,331.712 345.011 C 341.713 342.892,347.189 331.522,344.212 319.058 C 340.843 304.952,322.956 300.621,315.069 312.000 C 313.418 314.383,315.341 302.844,317.204 299.193 C 320.765 292.213,329.002 289.895,337.775 293.405 C 339.143 293.952,340.384 294.400,340.531 294.400 C 340.679 294.400,340.800 292.795,340.800 290.833 L 340.800 287.266 339.100 286.649 C 334.400 284.943,327.942 284.410,323.705 285.378 M60.000 289.395 L 60.000 292.790 73.933 292.895 L 87.865 293.000 79.928 313.200 C 75.562 324.310,71.019 335.875,69.832 338.900 L 67.674 344.400 71.961 344.400 L 76.249 344.400 86.724 316.794 C 94.053 297.480,97.200 288.709,97.200 287.594 L 97.200 286.000 78.600 286.000 L 60.000 286.000 60.000 289.395 M203.760 288.862 C 202.751 290.436,197.442 298.801,191.963 307.451 L 182.000 323.177 182.000 326.789 L 182.000 330.400 194.400 330.400 L 206.800 330.400 206.800 337.400 L 206.800 344.400 211.000 344.400 L 215.200 344.400 215.200 337.400 L 215.200 330.400 219.000 330.400 L 222.800 330.400 222.800 327.200 L 222.800 324.000 219.000 324.000 L 215.200 324.000 215.200 305.000 L 215.200 286.000 210.397 286.000 L 205.595 286.000 203.760 288.862 M206.800 309.200 L 206.800 324.000 198.000 324.000 C 193.160 324.000,189.200 323.877,189.200 323.727 C 189.200 323.379,206.440 294.400,206.646 294.400 C 206.731 294.400,206.800 301.060,206.800 309.200 M329.156 312.428 C 339.104 314.561,339.690 335.685,329.882 338.598 C 321.615 341.053,316.210 335.996,316.203 325.800 C 316.198 317.633,318.657 313.506,324.182 312.409 C 326.498 311.949,326.931 311.951,329.156 312.428 " stroke="none" fill="#000000" fill-rule="evenodd"></path></g></svg>