<svg id="svg" version="1.1" xmlns="http://www.w3.org/2000/svg" xmlns:xlink="http://www.w3.org/1999/xlink" width="400" height="400" viewBox="0, 0, 400,400"><g id="svgg"><path id="path0" d="M25.497 25.503 L 14.000 37.005 14.000 200.005 L 14.000 363.005 25.503 374.503 L 37.005 386.000 200.005 386.000 L 363.005 386.000 374.503 374.497 L 386.000 362.995 386.000 199.995 L 386.000 36.995 374.497 25.497 L 362.995 14.000 199.995 14.000 L 36.995 14.000 25.497 25.503 M365.896 34.096 L 374.000 42.193 374.000 199.993 L 374.000 357.793 365.904 365.896 L 357.807 374.000 200.007 374.000 L 42.207 374.000 34.104 365.904 L 26.000 357.807 26.000 200.007 L 26.000 42.207 34.096 34.104 L 42.193 26.000 199.993 26.000 L 357.793 26.000 365.896 34.096 M223.772 51.330 C 223.651 51.644,223.608 52.779,223.676 53.851 L 223.800 55.800 226.120 55.921 L 228.439 56.041 228.320 53.521 L 228.200 51.000 226.096 50.879 C 224.555 50.790,223.932 50.911,223.772 51.330 M112.000 68.400 L 112.000 84.400 114.400 84.400 L 116.800 84.400 116.800 77.000 L 116.800 69.600 123.400 69.600 L 130.000 69.600 130.000 67.800 L 130.000 66.000 123.400 66.000 L 116.800 66.000 116.800 61.000 L 116.800 56.000 124.000 56.000 L 131.200 56.000 131.200 54.200 L 131.200 52.400 121.600 52.400 L 112.000 52.400 112.000 68.400 M197.717 53.181 L 196.035 53.945 195.917 57.073 L 195.800 60.200 192.700 60.317 L 189.600 60.434 189.600 62.017 L 189.600 63.600 192.778 63.600 L 195.956 63.600 196.078 72.172 C 196.241 83.633,196.842 84.472,204.951 84.557 L 209.000 84.600 209.000 83.000 L 209.000 81.400 205.509 81.200 C 200.145 80.893,200.231 81.048,200.069 71.390 L 199.939 63.600 204.569 63.600 L 209.200 63.600 209.200 62.000 L 209.200 60.400 204.600 60.400 L 200.000 60.400 200.000 56.400 C 200.000 54.200,199.865 52.404,199.700 52.409 C 199.535 52.414,198.643 52.761,197.717 53.181 M144.200 59.833 C 143.760 59.934,142.275 60.304,140.900 60.653 L 138.400 61.289 138.400 63.398 L 138.400 65.507 140.896 64.499 C 146.950 62.053,152.400 63.682,152.400 67.938 L 152.400 69.116 147.700 69.273 C 139.543 69.546,136.717 71.655,136.733 77.462 C 136.752 84.651,145.341 87.922,151.149 82.951 C 152.824 81.517,152.930 81.534,153.352 83.300 C 153.599 84.332,153.749 84.400,155.780 84.400 L 157.944 84.400 157.528 83.100 C 157.299 82.385,156.985 78.183,156.830 73.762 C 156.492 64.120,156.041 62.853,152.301 61.042 C 150.251 60.050,146.003 59.416,144.200 59.833 M171.917 60.137 C 160.749 63.284,160.854 82.126,172.054 84.813 C 174.534 85.408,178.402 85.135,180.700 84.203 L 182.400 83.513 182.400 81.357 C 182.400 78.860,182.469 78.906,180.592 80.179 C 173.943 84.692,166.599 78.476,168.389 69.851 C 169.717 63.454,176.742 61.163,181.700 65.510 C 182.357 66.086,182.400 65.978,182.400 63.741 L 182.400 61.358 180.408 60.642 C 177.768 59.693,174.239 59.483,171.917 60.137 M249.939 60.133 C 240.284 62.848,239.905 81.848,249.449 84.708 C 257.988 87.266,263.560 81.847,263.100 71.433 C 262.701 62.401,257.563 57.990,249.939 60.133 M280.200 59.797 C 279.980 59.870,279.300 60.040,278.690 60.175 C 278.079 60.310,276.864 61.067,275.990 61.857 C 274.595 63.117,274.400 63.193,274.400 62.479 C 274.400 60.789,273.980 60.400,272.157 60.400 L 270.400 60.400 270.400 72.400 L 270.400 84.400 272.365 84.400 L 274.330 84.400 274.469 76.100 C 274.646 65.515,275.498 63.600,280.032 63.600 C 284.175 63.600,284.777 65.232,284.790 76.500 L 284.800 84.400 286.800 84.400 L 288.800 84.400 288.800 75.577 C 288.800 65.698,288.500 63.787,286.640 61.815 C 285.111 60.193,281.966 59.208,280.200 59.797 M218.800 62.000 L 218.800 63.600 221.353 63.600 L 223.905 63.600 224.092 71.300 C 224.374 82.920,225.706 84.792,233.700 84.798 L 236.800 84.800 236.800 83.000 L 236.800 81.200 234.226 81.200 C 228.646 81.200,228.400 80.686,228.400 69.013 L 228.400 60.400 223.600 60.400 L 218.800 60.400 218.800 62.000 M255.991 64.331 C 261.387 68.353,259.150 81.400,253.063 81.400 C 249.068 81.400,247.223 78.591,247.209 72.487 C 247.191 64.973,251.492 60.979,255.991 64.331 M152.398 73.700 C 152.386 80.441,144.865 84.426,141.424 79.513 C 138.737 75.677,142.236 72.534,149.300 72.441 L 152.400 72.400 152.398 73.700 M74.955 159.400 L 73.426 165.600 68.893 165.600 L 64.360 165.600 64.480 167.900 L 64.600 170.200 68.456 170.314 L 72.311 170.428 71.532 173.514 C 71.104 175.211,70.579 177.269,70.365 178.087 L 69.976 179.573 65.688 179.687 L 61.400 179.800 61.280 182.100 L 61.160 184.400 64.780 184.400 C 69.089 184.400,68.889 183.802,67.028 191.127 C 65.517 197.075,65.474 196.926,68.651 196.724 L 70.600 196.600 72.154 190.500 L 73.708 184.400 77.054 184.400 C 79.126 184.400,80.400 184.560,80.400 184.820 C 80.400 185.052,79.770 187.742,79.000 190.800 C 78.230 193.858,77.600 196.467,77.600 196.599 C 77.600 196.730,78.714 196.785,80.076 196.719 L 82.553 196.600 83.806 191.600 C 84.496 188.850,85.185 186.105,85.337 185.500 L 85.615 184.400 89.828 184.400 L 94.040 184.400 93.920 182.100 L 93.800 179.800 90.296 179.684 C 86.905 179.572,86.800 179.540,87.016 178.684 C 87.138 178.198,87.646 176.180,88.144 174.200 L 89.049 170.600 93.124 170.486 L 97.200 170.372 97.200 167.986 L 97.200 165.600 93.800 165.600 C 91.930 165.600,90.400 165.501,90.400 165.380 C 90.400 165.258,91.030 162.658,91.800 159.600 C 93.552 152.642,93.639 153.200,90.808 153.200 C 88.532 153.200,88.402 153.254,88.137 154.300 C 87.985 154.905,87.295 157.650,86.606 160.400 L 85.352 165.400 81.844 165.516 C 78.631 165.622,78.354 165.572,78.550 164.916 C 79.186 162.785,81.200 154.356,81.200 153.823 C 81.200 153.329,80.711 153.200,78.842 153.200 L 76.484 153.200 74.955 159.400 M335.274 155.500 C 335.367 155.989,335.857 156.237,336.903 156.324 L 338.400 156.448 338.400 162.037 C 338.400 169.790,339.506 171.719,343.618 171.139 C 345.471 170.877,345.176 169.200,343.277 169.200 C 340.773 169.200,340.618 168.768,340.466 161.339 L 340.331 154.800 337.736 154.800 C 335.481 154.800,335.159 154.892,335.274 155.500 M284.800 162.973 L 284.800 170.800 289.600 170.800 C 294.133 170.800,294.400 170.756,294.400 170.000 C 294.400 169.259,294.133 169.200,290.809 169.200 L 287.219 169.200 287.109 162.300 L 287.000 155.400 285.900 155.273 L 284.800 155.147 284.800 162.973 M299.328 159.445 C 296.095 161.040,295.802 168.415,298.887 170.576 C 301.166 172.172,305.116 170.993,306.150 168.407 C 308.527 162.468,304.343 156.972,299.328 159.445 M325.800 158.979 C 325.580 159.062,324.905 159.239,324.300 159.373 C 323.445 159.561,323.200 159.846,323.200 160.654 C 323.200 161.552,323.323 161.653,324.100 161.401 C 327.259 160.376,329.600 160.893,329.600 162.614 C 329.600 163.544,329.473 163.600,327.380 163.600 C 322.627 163.600,320.353 167.794,323.639 170.500 C 325.041 171.655,329.600 171.156,329.600 169.847 C 329.600 169.613,329.880 169.822,330.223 170.311 C 332.020 172.877,333.119 165.505,331.563 161.321 C 330.998 159.803,327.442 158.358,325.800 158.979 M309.200 159.480 C 309.200 159.634,310.130 162.109,311.267 164.980 C 312.405 167.851,313.315 170.531,313.290 170.936 C 313.209 172.244,312.039 173.600,310.991 173.600 C 310.201 173.600,310.000 173.802,310.000 174.600 C 310.000 175.701,310.326 175.783,312.400 175.206 C 314.184 174.709,314.303 174.503,317.406 166.509 C 320.395 158.807,320.333 159.108,318.916 159.273 C 317.942 159.387,317.683 159.797,316.341 163.342 C 315.520 165.511,314.769 167.364,314.673 167.460 C 314.576 167.557,313.800 165.739,312.949 163.420 C 311.496 159.465,311.332 159.205,310.300 159.202 C 309.695 159.201,309.200 159.326,309.200 159.480 M303.571 161.854 C 305.388 164.164,304.407 168.901,302.065 169.127 C 300.412 169.287,299.716 168.718,299.195 166.781 C 298.054 162.543,301.267 158.925,303.571 161.854 M187.886 163.848 C 186.745 164.988,187.628 167.200,189.223 167.200 L 190.846 167.200 190.723 165.500 C 190.602 163.826,188.899 162.834,187.886 163.848 M240.400 165.376 L 240.400 167.200 242.023 167.200 L 243.646 167.200 243.523 165.500 C 243.404 163.850,243.356 163.796,241.900 163.676 L 240.400 163.552 240.400 165.376 M130.800 165.789 L 130.800 167.200 133.000 167.200 L 135.200 167.200 135.200 175.400 L 135.200 183.600 133.000 183.600 C 130.822 183.600,130.800 183.612,130.800 184.800 L 130.800 186.000 136.800 186.000 L 142.800 186.000 142.800 184.800 C 142.800 183.612,142.778 183.600,140.600 183.600 L 138.400 183.600 138.400 175.400 L 138.400 167.200 140.625 167.200 L 142.851 167.200 142.725 165.900 L 142.600 164.600 136.700 164.489 L 130.800 164.379 130.800 165.789 M329.580 166.689 C 328.884 169.774,324.400 170.339,324.400 167.343 C 324.400 166.063,325.869 165.200,328.047 165.200 L 329.916 165.200 329.580 166.689 M152.408 170.655 C 151.165 171.701,151.152 171.703,150.930 170.855 C 150.767 170.231,150.395 170.000,149.553 170.000 L 148.400 170.000 148.400 178.000 L 148.400 186.000 149.800 186.000 L 151.200 186.000 151.201 180.500 C 151.203 174.230,151.709 172.703,153.947 172.212 C 156.930 171.556,157.702 173.127,157.924 180.300 L 158.101 186.000 159.450 186.000 L 160.800 186.000 160.800 180.577 C 160.800 174.129,160.349 171.965,158.720 170.594 C 157.027 169.169,154.140 169.197,152.408 170.655 M168.476 170.410 C 166.670 171.511,165.847 173.547,166.391 175.568 C 166.930 177.569,167.306 177.843,171.270 179.124 C 174.447 180.150,174.606 180.258,174.722 181.462 C 174.950 183.810,172.067 184.694,168.400 183.400 C 166.085 182.583,166.000 182.610,166.000 184.153 C 166.000 185.750,167.711 186.400,171.918 186.400 C 179.118 186.400,180.347 178.218,173.359 176.804 C 170.387 176.203,169.200 175.463,169.200 174.213 C 169.200 172.191,172.468 171.349,175.462 172.600 C 177.308 173.372,177.200 173.420,177.200 171.819 C 177.200 169.578,171.381 168.639,168.476 170.410 M204.167 169.988 C 200.558 171.448,199.182 178.969,201.729 183.315 C 203.383 186.138,207.200 187.037,209.695 185.193 L 210.916 184.290 210.698 186.232 C 210.313 189.647,207.915 190.781,204.000 189.400 C 203.065 189.070,202.232 188.800,202.150 188.800 C 202.067 188.800,202.000 189.427,202.000 190.192 C 202.000 191.883,202.790 192.200,207.000 192.200 C 212.822 192.200,213.600 190.596,213.600 178.592 L 213.600 170.000 212.443 170.000 C 211.782 170.000,211.187 170.258,211.055 170.601 C 210.857 171.117,210.636 171.088,209.512 170.403 C 208.153 169.574,205.667 169.381,204.167 169.988 M222.693 170.614 C 221.257 171.590,221.200 171.598,221.200 170.814 C 221.200 170.150,220.942 170.000,219.800 170.000 L 218.400 170.000 218.400 178.000 L 218.400 186.000 220.000 186.000 L 221.600 186.000 221.600 180.580 C 221.600 173.811,222.358 172.000,225.192 172.000 C 227.491 172.000,228.000 173.447,228.000 179.982 L 228.000 186.000 229.400 186.000 L 230.800 186.000 230.800 179.580 C 230.800 172.724,230.526 171.494,228.713 170.224 C 227.308 169.240,224.442 169.426,222.693 170.614 M255.800 170.141 C 254.344 170.578,254.189 170.755,254.076 172.114 L 253.951 173.608 255.990 172.804 C 259.638 171.366,262.936 172.138,263.273 174.508 C 263.393 175.349,263.190 175.425,259.719 175.842 C 255.516 176.346,254.202 177.020,253.325 179.117 C 251.118 184.400,257.598 188.814,262.375 185.282 C 263.840 184.199,264.000 184.191,264.000 185.200 C 264.000 185.869,264.267 186.000,265.624 186.000 C 266.821 186.000,267.166 185.869,266.937 185.500 C 266.767 185.225,266.524 182.348,266.397 179.107 C 266.054 170.362,263.179 167.929,255.800 170.141 M184.400 170.977 C 184.400 171.840,184.598 171.968,186.100 172.077 L 187.800 172.200 188.000 177.673 C 188.267 184.972,189.270 186.315,194.500 186.377 L 196.400 186.400 196.400 185.000 L 196.400 183.600 194.223 183.600 C 190.982 183.600,190.800 183.191,190.800 175.911 L 190.800 170.000 187.600 170.000 C 184.473 170.000,184.400 170.022,184.400 170.977 M237.200 170.977 C 237.200 171.840,237.398 171.968,238.900 172.077 L 240.600 172.200 240.800 177.869 C 241.055 185.097,242.371 186.751,247.527 186.323 C 250.229 186.098,249.701 183.840,246.908 183.679 C 243.779 183.499,243.600 183.078,243.600 175.911 L 243.600 170.000 240.400 170.000 C 237.273 170.000,237.200 170.022,237.200 170.977 M83.883 171.204 C 83.767 171.647,83.261 173.717,82.758 175.804 L 81.843 179.600 78.362 179.600 L 74.882 179.600 75.664 176.500 C 76.094 174.795,76.623 172.725,76.839 171.900 L 77.231 170.400 80.662 170.400 C 83.902 170.400,84.082 170.445,83.883 171.204 M208.791 172.395 C 210.839 173.491,211.457 179.989,209.734 182.305 C 207.764 184.956,204.386 183.588,203.605 179.824 C 202.542 174.703,205.415 170.588,208.791 172.395 M263.278 178.211 C 263.865 178.798,262.789 181.854,261.631 182.889 C 258.636 185.565,253.888 182.427,256.384 179.420 C 257.247 178.379,262.521 177.454,263.278 178.211 M284.800 187.387 L 284.800 195.200 286.000 195.200 L 287.200 195.200 287.200 191.817 L 287.200 188.434 290.300 188.317 C 293.169 188.209,293.410 188.133,293.528 187.300 C 293.651 186.430,293.546 186.400,290.428 186.400 L 287.200 186.400 287.200 184.000 L 287.200 181.600 290.828 181.600 C 294.361 181.600,294.452 181.577,294.328 180.700 C 294.205 179.833,294.030 179.796,289.500 179.687 L 284.800 179.575 284.800 187.387 M326.100 180.118 C 325.393 180.436,325.200 180.852,325.200 182.061 C 325.200 183.590,325.189 183.600,323.600 183.600 C 322.267 183.600,322.000 183.733,322.000 184.400 C 322.000 185.067,322.267 185.200,323.600 185.200 L 325.200 185.200 325.200 188.981 C 325.200 193.542,325.624 194.658,327.564 195.197 C 330.238 195.940,331.600 195.738,331.600 194.600 C 331.600 193.712,331.432 193.599,330.100 193.594 C 327.581 193.584,327.400 193.283,327.400 189.115 L 327.400 185.400 329.500 185.279 C 332.701 185.095,332.631 183.600,329.421 183.600 L 327.242 183.600 327.121 181.657 C 327.006 179.805,326.958 179.733,326.100 180.118 M300.200 183.381 C 299.980 183.463,299.305 183.639,298.700 183.773 C 297.845 183.961,297.600 184.246,297.600 185.054 C 297.600 185.946,297.728 186.055,298.500 185.821 C 301.756 184.836,303.796 185.268,304.072 187.000 C 304.184 187.699,303.949 187.813,302.200 187.905 C 297.958 188.126,296.800 188.965,296.800 191.818 C 296.800 195.151,299.941 196.685,303.255 194.972 C 304.371 194.394,304.510 194.398,304.962 195.015 C 305.543 195.811,307.074 195.616,306.839 194.776 C 306.750 194.459,306.604 192.490,306.514 190.400 C 306.335 186.239,305.957 184.815,304.847 184.122 C 304.075 183.640,300.875 183.130,300.200 183.381 M313.448 183.614 C 310.086 184.620,308.678 189.060,310.471 192.997 C 311.859 196.043,318.800 196.701,318.800 193.786 C 318.800 192.753,318.426 192.534,317.773 193.187 C 316.614 194.346,313.434 193.612,312.596 191.992 C 310.489 187.917,313.882 183.787,317.700 185.779 C 318.779 186.341,318.800 186.330,318.800 185.195 C 318.800 183.552,316.210 182.787,313.448 183.614 M337.726 183.785 C 335.559 184.728,334.404 188.249,335.158 191.616 C 336.339 196.895,343.431 197.085,344.834 191.875 C 346.361 186.202,342.437 181.736,337.726 183.785 M353.107 183.946 C 351.921 184.550,351.604 184.588,351.435 184.146 C 351.319 183.846,350.859 183.600,350.413 183.600 C 349.633 183.600,349.600 183.837,349.600 189.400 L 349.600 195.200 350.563 195.200 C 351.506 195.200,351.528 195.120,351.663 191.210 C 351.846 185.887,353.033 184.653,356.900 185.769 C 357.902 186.058,358.000 185.993,358.000 185.033 C 358.000 183.225,355.577 182.686,353.107 183.946 M341.838 186.042 C 342.417 186.682,342.600 187.487,342.600 189.400 C 342.600 194.520,337.985 195.441,337.317 190.455 C 336.777 186.432,339.652 183.626,341.838 186.042 M304.216 190.700 C 303.622 193.118,302.732 193.834,300.600 193.607 C 297.009 193.225,298.758 189.600,302.532 189.600 C 304.463 189.600,304.483 189.613,304.216 190.700 M48.703 282.468 C 43.738 283.828,42.737 293.935,47.235 297.287 C 49.702 299.126,54.400 298.496,54.400 296.326 C 54.400 295.328,54.277 295.166,53.700 295.406 C 51.137 296.476,50.778 296.546,49.755 296.182 C 46.172 294.906,45.647 286.760,49.006 284.559 C 50.075 283.859,51.311 283.972,53.700 284.988 C 54.262 285.227,54.400 285.083,54.400 284.257 C 54.400 282.584,51.549 281.689,48.703 282.468 M168.883 282.268 C 161.802 283.754,163.491 298.200,170.747 298.200 C 174.572 298.200,175.200 297.522,175.200 293.391 L 175.200 290.000 172.772 290.000 C 170.055 290.000,169.146 291.633,171.700 291.927 C 172.731 292.045,172.800 292.175,172.800 293.984 C 172.800 298.337,167.660 296.733,166.973 292.165 C 166.098 286.339,169.205 282.508,172.994 284.743 L 174.400 285.573 174.400 284.401 C 174.400 282.732,171.680 281.681,168.883 282.268 M283.600 290.200 L 283.600 298.000 284.800 298.000 L 286.000 298.000 286.031 291.900 L 286.063 285.800 287.163 289.000 C 288.813 293.800,289.859 293.782,291.528 288.923 L 292.737 285.400 292.768 291.700 L 292.800 298.000 293.800 298.000 L 294.800 298.000 294.800 290.176 L 294.800 282.352 293.341 282.476 C 291.892 282.599,291.872 282.625,290.606 286.146 L 289.331 289.691 288.016 286.046 L 286.702 282.400 285.151 282.400 L 283.600 282.400 283.600 290.200 M351.899 282.900 C 351.539 283.175,351.190 284.030,351.122 284.800 C 351.008 286.103,350.896 286.209,349.500 286.324 C 347.231 286.512,347.320 288.000,349.600 288.000 L 351.200 288.000 351.200 291.946 C 351.200 297.178,351.747 298.000,355.229 298.000 C 357.333 298.000,357.600 297.910,357.600 297.200 C 357.600 296.536,357.333 296.400,356.029 296.400 C 353.591 296.400,353.200 295.733,353.200 291.571 L 353.200 288.000 355.400 288.000 C 358.628 288.000,358.717 286.506,355.500 286.321 L 353.400 286.200 353.278 284.300 C 353.149 282.293,352.953 282.094,351.899 282.900 M59.553 286.601 C 56.213 288.416,56.429 296.417,59.856 297.849 C 64.296 299.704,67.592 296.700,67.098 291.248 C 66.690 286.746,63.219 284.609,59.553 286.601 M73.454 286.829 C 72.580 287.516,72.400 287.550,72.400 287.029 C 72.400 286.625,72.043 286.400,71.400 286.400 L 70.400 286.400 70.400 292.200 L 70.400 298.000 71.347 298.000 C 72.266 298.000,72.299 297.885,72.484 294.024 C 72.706 289.429,73.333 288.000,75.129 288.000 C 76.983 288.000,77.200 288.575,77.200 293.480 L 77.200 298.000 78.400 298.000 L 79.600 298.000 79.600 293.787 C 79.600 286.814,77.088 283.970,73.454 286.829 M97.737 286.823 C 94.316 289.014,94.444 295.144,97.959 297.492 C 100.339 299.082,105.200 298.439,105.200 296.535 C 105.200 295.647,105.077 295.547,104.300 295.805 C 100.769 296.974,97.600 295.940,97.600 293.618 C 97.600 292.848,97.837 292.800,101.600 292.800 L 105.600 292.800 105.600 291.180 C 105.600 286.915,101.307 284.536,97.737 286.823 M112.200 286.478 C 111.760 286.727,111.268 287.127,111.106 287.366 C 110.927 287.630,110.810 287.526,110.806 287.100 C 110.802 286.622,110.483 286.400,109.800 286.400 L 108.800 286.400 108.800 292.200 L 108.800 298.000 109.764 298.000 C 110.711 298.000,110.729 297.931,110.864 293.841 C 111.016 289.179,111.579 288.000,113.648 288.000 C 115.273 288.000,115.600 288.967,115.600 293.774 L 115.600 298.000 116.800 298.000 L 118.000 298.000 117.983 294.500 C 117.946 287.106,115.957 284.347,112.200 286.478 M192.919 286.784 C 186.593 290.641,191.510 300.291,198.600 297.932 C 200.641 297.253,201.314 295.281,199.335 295.779 C 195.504 296.743,193.691 296.396,192.844 294.537 C 192.087 292.874,192.248 292.800,196.625 292.800 L 200.849 292.800 200.571 290.900 C 199.944 286.622,196.353 284.690,192.919 286.784 M208.600 286.462 C 208.160 286.703,207.575 287.181,207.300 287.526 C 206.861 288.076,206.800 288.045,206.800 287.276 C 206.800 286.608,206.562 286.400,205.800 286.400 L 204.800 286.400 204.800 292.200 L 204.800 298.000 205.800 298.000 C 206.767 298.000,206.800 297.911,206.810 295.300 C 206.832 289.028,208.631 286.903,212.500 288.582 C 213.078 288.833,213.200 288.678,213.200 287.689 C 213.200 286.075,210.584 285.377,208.600 286.462 M299.505 286.626 C 296.201 288.419,296.316 296.102,299.673 297.838 C 303.431 299.781,307.200 296.958,307.200 292.200 C 307.200 287.324,303.353 284.538,299.505 286.626 M324.874 286.346 C 324.585 286.529,323.910 286.595,323.374 286.493 L 322.400 286.307 322.400 292.153 L 322.400 298.000 323.388 298.000 L 324.375 298.000 324.488 293.100 C 324.594 288.454,324.644 288.194,325.448 288.079 C 326.578 287.918,326.788 288.823,326.795 293.900 C 326.800 297.992,326.802 298.000,327.788 298.000 L 328.775 298.000 328.888 293.105 C 328.989 288.681,329.072 288.196,329.752 288.066 C 330.953 287.835,331.187 288.718,331.194 293.500 L 331.200 298.000 332.240 298.000 L 333.280 298.000 333.140 292.842 C 333.021 288.454,332.886 287.557,332.238 286.842 C 331.356 285.868,329.520 285.733,328.809 286.589 C 328.379 287.107,328.250 287.107,327.732 286.589 C 327.085 285.942,325.697 285.824,324.874 286.346 M339.400 286.478 C 338.960 286.727,338.468 287.127,338.306 287.366 C 338.127 287.630,338.010 287.526,338.006 287.100 C 338.002 286.622,337.683 286.400,337.000 286.400 L 336.000 286.400 336.000 292.200 L 336.000 298.000 336.964 298.000 C 337.911 298.000,337.929 297.931,338.064 293.841 C 338.216 289.179,338.779 288.000,340.848 288.000 C 342.473 288.000,342.800 288.967,342.800 293.774 L 342.800 298.000 344.000 298.000 L 345.200 298.000 345.183 294.500 C 345.146 287.106,343.157 284.347,339.400 286.478 M82.400 286.675 C 82.400 286.855,83.266 289.432,84.325 292.401 L 86.249 297.800 87.725 297.924 C 88.536 297.992,89.200 297.964,89.200 297.861 C 89.200 297.758,90.094 295.137,91.187 292.037 L 93.174 286.400 92.031 286.400 C 90.934 286.400,90.827 286.578,89.381 290.803 C 88.552 293.225,87.773 295.106,87.649 294.982 C 87.526 294.859,86.774 292.922,85.978 290.679 C 84.672 286.995,84.429 286.588,83.466 286.473 C 82.880 286.404,82.400 286.494,82.400 286.675 M178.017 289.900 C 178.055 297.462,180.321 300.383,184.025 297.644 C 184.968 296.948,185.200 296.897,185.200 297.388 C 185.200 297.774,185.569 298.000,186.200 298.000 L 187.200 298.000 187.200 292.200 L 187.200 286.400 186.245 286.400 C 185.310 286.400,185.288 286.485,185.136 290.568 C 184.969 295.104,184.397 296.400,182.567 296.400 C 180.748 296.400,180.400 295.495,180.400 290.771 L 180.400 286.400 179.200 286.400 L 178.000 286.400 178.017 289.900 M309.626 286.873 C 309.640 287.163,310.508 289.740,311.553 292.600 L 313.454 297.800 314.927 297.924 C 315.737 297.992,316.400 297.964,316.400 297.861 C 316.400 297.758,317.294 295.137,318.387 292.037 L 320.374 286.400 319.235 286.400 C 318.146 286.400,318.031 286.590,316.569 290.787 C 315.728 293.200,314.943 295.076,314.824 294.957 C 314.704 294.838,313.954 292.909,313.156 290.670 C 311.854 287.016,311.598 286.587,310.653 286.473 C 309.976 286.392,309.609 286.535,309.626 286.873 M63.802 288.552 C 65.016 289.440,65.153 293.851,64.010 295.300 C 62.454 297.272,60.213 296.516,59.603 293.814 C 58.669 289.674,61.126 286.595,63.802 288.552 M102.495 288.500 C 104.364 289.944,103.564 291.000,100.600 291.000 C 98.021 291.000,97.811 290.937,97.936 290.200 C 98.267 288.254,100.904 287.271,102.495 288.500 M197.777 288.889 C 199.086 290.758,198.670 291.200,195.600 291.200 C 193.241 291.200,192.800 291.094,192.800 290.526 C 192.800 288.351,196.539 287.122,197.777 288.889 M303.971 289.054 C 305.907 291.515,304.583 296.400,301.980 296.400 C 300.362 296.400,299.429 294.863,299.429 292.200 C 299.429 288.347,302.009 286.560,303.971 289.054 M121.600 291.800 L 121.600 292.800 126.000 292.800 L 130.400 292.800 130.400 291.800 L 130.400 290.800 126.000 290.800 L 121.600 290.800 121.600 291.800 M216.472 291.700 C 216.595 292.561,216.785 292.605,220.900 292.714 L 225.200 292.827 225.200 291.814 L 225.200 290.800 220.772 290.800 C 216.409 290.800,216.346 290.813,216.472 291.700 M61.084 306.250 C 60.230 307.103,60.807 308.852,61.900 308.727 C 62.827 308.620,63.000 308.412,63.000 307.400 C 63.000 306.219,61.821 305.512,61.084 306.250 M108.552 306.581 C 108.191 307.522,108.754 308.000,110.224 308.000 L 111.600 308.000 111.600 313.574 C 111.600 321.316,112.111 322.364,115.900 322.387 C 117.738 322.398,118.000 322.300,118.000 321.600 C 118.000 320.961,117.733 320.800,116.676 320.800 C 113.946 320.800,113.815 320.454,113.666 312.833 L 113.533 306.000 111.154 306.000 C 109.443 306.000,108.712 306.163,108.552 306.581 M181.484 306.250 C 180.599 307.134,181.214 308.800,182.425 308.800 C 183.567 308.800,183.642 308.711,183.525 307.500 C 183.403 306.230,182.225 305.509,181.484 306.250 M190.800 307.000 C 190.800 307.900,190.960 308.000,192.400 308.000 L 194.000 308.000 194.000 314.146 C 194.000 321.749,194.302 322.400,197.829 322.400 C 199.733 322.400,200.000 322.302,200.000 321.600 C 200.000 320.959,199.733 320.800,198.662 320.800 C 196.205 320.800,196.000 320.173,196.000 312.669 L 196.000 306.000 193.400 306.000 C 190.893 306.000,190.800 306.036,190.800 307.000 M203.600 306.981 C 203.600 307.873,203.769 308.000,204.956 308.000 L 206.313 308.000 206.458 313.973 C 206.640 321.433,206.982 322.131,210.541 322.320 C 212.591 322.429,212.800 322.364,212.800 321.620 C 212.800 320.963,212.542 320.799,211.500 320.794 C 209.050 320.782,209.019 320.695,208.800 313.115 L 208.600 306.200 206.100 306.081 C 203.656 305.965,203.600 305.985,203.600 306.981 M297.600 306.981 C 297.600 307.874,297.769 308.000,298.963 308.000 L 300.327 308.000 300.463 313.972 C 300.634 321.430,300.976 322.131,304.541 322.320 C 306.591 322.429,306.800 322.364,306.800 321.620 C 306.800 320.963,306.542 320.799,305.500 320.794 C 303.050 320.782,303.019 320.695,302.800 313.115 L 302.600 306.200 300.100 306.081 C 297.656 305.965,297.600 305.985,297.600 306.981 M310.400 306.981 C 310.400 307.874,310.569 308.000,311.764 308.000 L 313.128 308.000 313.264 314.169 C 313.394 320.054,313.444 320.384,314.370 321.369 C 315.672 322.754,319.600 322.927,319.600 321.600 C 319.600 320.965,319.331 320.799,318.300 320.794 C 315.850 320.782,315.819 320.695,315.600 313.115 L 315.400 306.200 312.900 306.081 C 310.456 305.965,310.400 305.985,310.400 306.981 M48.100 307.288 C 47.398 307.627,47.200 308.061,47.200 309.261 C 47.200 310.753,47.157 310.800,45.800 310.800 C 44.667 310.800,44.400 310.952,44.400 311.600 C 44.400 312.248,44.667 312.400,45.800 312.400 L 47.200 312.400 47.202 315.500 C 47.206 321.302,47.934 322.400,51.774 322.400 C 53.733 322.400,54.000 322.304,54.000 321.600 C 54.000 320.950,53.733 320.800,52.574 320.800 C 49.839 320.800,49.600 320.432,49.600 316.207 L 49.600 312.442 51.696 312.321 C 54.892 312.137,55.009 310.800,51.829 310.800 L 49.600 310.800 49.600 308.800 C 49.600 306.684,49.520 306.603,48.100 307.288 M287.805 307.300 C 287.711 307.575,286.701 310.860,285.561 314.600 C 284.420 318.340,283.398 321.638,283.289 321.929 C 283.145 322.316,283.447 322.424,284.407 322.329 C 285.597 322.212,285.773 322.020,286.273 320.300 L 286.824 318.400 289.375 318.400 L 291.926 318.400 292.439 320.400 C 292.919 322.274,293.031 322.400,294.226 322.400 L 295.501 322.400 294.195 318.100 C 293.476 315.735,292.408 312.225,291.820 310.300 L 290.752 306.800 289.363 306.800 C 288.600 306.800,287.898 307.025,287.805 307.300 M291.021 315.300 C 291.258 316.375,291.222 316.400,289.432 316.400 C 287.452 316.400,287.315 316.189,287.980 314.160 C 288.190 313.522,288.576 312.190,288.840 311.200 L 289.318 309.400 290.049 311.800 C 290.450 313.120,290.888 314.695,291.021 315.300 M72.305 311.026 C 69.059 312.787,69.149 320.519,72.435 322.218 C 76.232 324.182,80.000 321.383,80.000 316.600 C 80.000 311.724,76.153 308.938,72.305 311.026 M86.254 311.229 C 85.380 311.916,85.200 311.950,85.200 311.429 C 85.200 311.025,84.843 310.800,84.200 310.800 L 83.200 310.800 83.200 316.600 L 83.200 322.400 84.153 322.400 C 85.083 322.400,85.111 322.300,85.265 318.465 C 85.451 313.835,86.097 312.400,87.995 312.400 C 89.679 312.400,90.000 313.324,90.000 318.174 L 90.000 322.400 91.200 322.400 L 92.400 322.400 92.398 318.500 C 92.394 311.250,89.932 308.336,86.254 311.229 M97.300 310.812 C 96.685 311.060,96.400 311.509,96.400 312.230 C 96.400 313.088,96.531 313.227,97.100 312.972 C 98.373 312.401,101.596 312.299,102.212 312.810 C 103.574 313.940,102.917 314.674,100.300 314.944 C 96.348 315.353,94.797 317.107,95.652 320.204 C 96.345 322.713,100.359 323.647,102.423 321.779 C 103.121 321.148,103.204 321.145,103.434 321.746 C 103.573 322.105,104.097 322.400,104.600 322.400 C 105.618 322.400,105.692 315.250,104.701 312.651 C 103.973 310.743,99.955 309.745,97.300 310.812 M169.891 311.200 C 168.674 312.157,168.400 312.194,168.400 311.400 C 168.400 311.027,168.022 310.800,167.400 310.800 L 166.400 310.800 166.400 316.600 L 166.400 322.400 167.600 322.400 L 168.800 322.400 168.800 318.819 C 168.800 314.841,169.217 313.503,170.663 312.844 C 171.875 312.292,173.472 312.269,173.800 312.800 C 174.281 313.578,174.800 313.185,174.800 312.043 C 174.800 310.223,171.790 309.706,169.891 311.200 M218.000 310.756 C 217.283 310.954,216.963 311.354,216.868 312.171 C 216.756 313.141,216.845 313.265,217.468 313.003 C 219.474 312.161,222.273 312.284,222.946 313.244 C 223.889 314.591,223.776 314.800,222.100 314.802 C 218.119 314.808,216.000 316.240,216.000 318.925 C 216.000 322.417,220.210 324.144,222.865 321.741 C 223.528 321.141,223.603 321.141,223.834 321.746 C 224.382 323.172,226.392 322.567,225.972 321.103 C 225.767 320.389,225.600 318.421,225.600 316.729 C 225.600 311.196,223.210 309.318,218.000 310.756 M325.105 311.003 C 321.696 312.924,321.809 320.446,325.273 322.238 C 329.621 324.486,333.560 320.482,332.599 314.791 C 332.002 311.262,328.124 309.302,325.105 311.003 M58.400 311.600 C 58.400 312.214,58.667 312.400,59.545 312.400 L 60.691 312.400 60.891 316.232 C 61.156 321.284,61.732 322.150,64.941 322.320 C 66.991 322.429,67.200 322.364,67.200 321.620 C 67.200 320.953,66.944 320.800,65.829 320.800 C 63.517 320.800,63.200 320.121,63.200 315.171 L 63.200 310.800 60.800 310.800 C 58.667 310.800,58.400 310.889,58.400 311.600 M178.800 311.600 C 178.800 312.248,179.067 312.400,180.200 312.400 L 181.600 312.400 181.600 316.346 C 181.600 321.495,182.173 322.400,185.429 322.400 C 187.333 322.400,187.600 322.302,187.600 321.600 C 187.600 320.959,187.333 320.800,186.262 320.800 C 183.995 320.800,183.600 319.950,183.600 315.069 L 183.600 310.800 181.200 310.800 C 179.067 310.800,178.800 310.889,178.800 311.600 M76.771 313.454 C 78.707 315.915,77.383 320.800,74.780 320.800 C 73.182 320.800,72.297 319.343,72.258 316.647 C 72.202 312.761,74.787 310.932,76.771 313.454 M329.610 313.500 C 330.708 314.891,330.593 318.682,329.414 319.985 C 328.251 321.269,326.542 321.052,325.596 319.500 C 323.149 315.488,326.833 309.982,329.610 313.500 M336.000 316.200 L 336.000 317.200 340.400 317.200 L 344.800 317.200 344.800 316.200 L 344.800 315.200 340.400 315.200 L 336.000 315.200 336.000 316.200 M102.894 317.900 C 102.321 321.120,97.600 322.055,97.600 318.949 C 97.600 317.464,98.642 316.800,100.973 316.800 C 103.062 316.800,103.087 316.814,102.894 317.900 M223.600 317.213 C 223.600 318.451,222.364 320.394,221.426 320.629 C 218.869 321.271,217.055 319.307,218.615 317.584 C 219.390 316.727,223.600 316.413,223.600 317.213 M134.400 338.600 L 134.400 346.800 135.400 346.800 C 136.392 346.800,136.400 346.772,136.400 343.226 C 136.400 338.336,137.031 336.820,139.071 336.806 C 140.847 336.794,141.200 337.726,141.200 342.429 L 141.200 346.800 142.200 346.800 L 143.200 346.800 143.200 341.782 C 143.200 335.158,141.592 333.335,137.580 335.410 L 136.400 336.021 136.400 333.210 C 136.400 330.479,136.372 330.400,135.400 330.400 L 134.400 330.400 134.400 338.600 M254.800 338.600 L 254.800 346.800 255.755 346.800 C 256.690 346.800,256.712 346.715,256.864 342.632 C 257.036 337.966,257.593 336.800,259.648 336.800 C 261.273 336.800,261.600 337.767,261.600 342.574 L 261.600 346.800 262.800 346.800 L 264.000 346.800 263.983 343.300 C 263.945 335.677,262.115 333.272,257.980 335.410 L 256.800 336.021 256.800 333.210 C 256.800 330.479,256.772 330.400,255.800 330.400 L 254.800 330.400 254.800 338.600 M46.992 331.532 C 42.662 333.543,43.638 338.392,48.659 339.819 C 51.438 340.609,52.100 341.152,52.100 342.640 C 52.100 344.895,49.466 345.823,46.538 344.600 C 44.614 343.796,44.400 343.835,44.400 344.986 C 44.400 347.681,51.532 347.938,53.594 345.317 C 55.984 342.279,54.115 338.899,49.347 337.633 C 47.338 337.100,46.701 336.404,46.871 334.927 C 47.110 332.850,49.528 332.396,52.900 333.795 C 53.477 334.034,53.600 333.872,53.600 332.870 C 53.600 331.540,53.346 331.392,50.400 331.015 C 49.099 330.849,48.155 330.992,46.992 331.532 M167.531 331.435 C 165.157 332.446,164.183 335.246,165.391 337.584 C 165.955 338.673,167.057 339.249,170.600 340.306 C 172.390 340.840,173.150 342.406,172.271 343.748 C 171.184 345.407,169.071 345.561,165.900 344.212 C 165.321 343.966,165.200 344.126,165.200 345.138 C 165.200 346.212,165.384 346.414,166.700 346.779 C 175.020 349.089,178.651 340.298,170.408 337.802 C 167.617 336.957,167.093 336.477,167.271 334.927 C 167.510 332.850,169.928 332.396,173.300 333.795 C 173.877 334.034,174.000 333.872,174.000 332.870 C 174.000 331.537,173.732 331.383,170.800 331.027 C 169.620 330.885,168.494 331.025,167.531 331.435 M60.900 331.688 C 60.198 332.027,60.000 332.461,60.000 333.661 C 60.000 335.153,59.957 335.200,58.600 335.200 C 57.467 335.200,57.200 335.352,57.200 336.000 C 57.200 336.648,57.467 336.800,58.600 336.800 L 60.000 336.800 60.002 339.900 C 60.006 345.622,60.753 346.800,64.374 346.800 C 66.133 346.800,66.400 346.695,66.400 346.000 C 66.400 345.340,66.133 345.200,64.880 345.200 C 62.643 345.200,62.400 344.741,62.400 340.520 L 62.400 336.800 64.400 336.800 C 66.133 336.800,66.400 336.693,66.400 336.000 C 66.400 335.307,66.133 335.200,64.400 335.200 L 62.400 335.200 62.400 333.200 C 62.400 331.084,62.320 331.003,60.900 331.688 M124.699 331.700 C 124.339 331.975,123.990 332.830,123.922 333.600 C 123.808 334.903,123.696 335.009,122.300 335.124 C 120.031 335.312,120.120 336.800,122.400 336.800 L 124.000 336.800 124.000 340.746 C 124.000 345.978,124.547 346.800,128.029 346.800 C 130.133 346.800,130.400 346.710,130.400 346.000 C 130.400 345.336,130.133 345.200,128.829 345.200 C 126.391 345.200,126.000 344.533,126.000 340.371 L 126.000 336.800 128.200 336.800 C 131.428 336.800,131.517 335.306,128.300 335.121 L 126.200 335.000 126.078 333.100 C 125.949 331.093,125.753 330.894,124.699 331.700 M181.300 331.688 C 180.598 332.027,180.400 332.461,180.400 333.661 C 180.400 335.153,180.357 335.200,179.000 335.200 C 177.867 335.200,177.600 335.352,177.600 336.000 C 177.600 336.648,177.867 336.800,179.000 336.800 L 180.400 336.800 180.410 339.700 C 180.429 345.615,181.175 346.800,184.876 346.800 C 186.933 346.800,187.200 346.708,187.200 346.000 C 187.200 345.350,186.933 345.200,185.774 345.200 C 183.036 345.200,182.800 344.834,182.800 340.586 L 182.800 336.800 185.000 336.800 C 186.933 336.800,187.200 336.703,187.200 336.000 C 187.200 335.297,186.933 335.200,185.000 335.200 L 182.800 335.200 182.800 333.200 C 182.800 331.084,182.720 331.003,181.300 331.688 M245.300 331.638 C 244.571 331.910,244.400 332.281,244.400 333.587 L 244.400 335.200 242.800 335.200 C 241.467 335.200,241.200 335.333,241.200 336.000 C 241.200 336.667,241.467 336.800,242.800 336.800 L 244.400 336.800 244.400 340.818 C 244.400 345.911,245.021 346.800,248.582 346.800 C 251.523 346.800,251.984 345.332,249.109 345.123 C 246.913 344.963,246.414 343.999,246.406 339.900 L 246.400 336.800 248.600 336.800 C 251.828 336.800,251.917 335.306,248.700 335.121 L 246.600 335.000 246.400 333.151 C 246.214 331.430,246.138 331.325,245.300 331.638 M75.400 335.262 C 74.960 335.503,74.375 335.981,74.100 336.326 C 73.661 336.876,73.600 336.845,73.600 336.076 C 73.600 335.408,73.362 335.200,72.600 335.200 L 71.600 335.200 71.600 341.000 L 71.600 346.800 72.600 346.800 C 73.575 346.800,73.600 346.726,73.602 343.900 C 73.607 337.798,75.419 335.726,79.300 337.386 C 80.330 337.827,80.260 335.767,79.226 335.214 C 78.230 334.681,76.421 334.704,75.400 335.262 M85.767 335.188 C 82.569 336.481,81.387 342.095,83.695 345.030 C 85.817 347.727,92.400 347.958,92.400 345.335 C 92.400 344.447,92.277 344.347,91.500 344.605 C 87.969 345.774,84.800 344.740,84.800 342.418 C 84.800 341.648,85.037 341.600,88.800 341.600 L 92.800 341.600 92.800 339.980 C 92.800 336.095,89.345 333.740,85.767 335.188 M99.054 335.629 C 98.180 336.316,98.000 336.350,98.000 335.829 C 98.000 335.425,97.643 335.200,97.000 335.200 L 96.000 335.200 96.000 341.000 L 96.000 346.800 96.955 346.800 C 97.890 346.800,97.912 346.715,98.064 342.632 C 98.236 337.966,98.793 336.800,100.848 336.800 C 102.473 336.800,102.800 337.767,102.800 342.574 L 102.800 346.800 104.000 346.800 L 105.200 346.800 105.190 343.100 C 105.171 335.681,102.744 332.726,99.054 335.629 M110.800 335.317 C 107.812 336.826,107.574 344.135,110.447 346.148 C 111.686 347.016,114.325 346.990,115.318 346.100 C 116.082 345.416,116.093 345.432,115.805 346.800 C 115.240 349.487,113.339 350.247,110.300 349.001 C 109.741 348.772,109.600 348.920,109.600 349.734 C 109.600 351.071,110.017 351.280,112.737 351.306 C 117.351 351.349,118.000 350.133,118.000 341.440 L 118.000 335.200 117.000 335.200 C 116.450 335.200,116.000 335.390,116.000 335.623 C 116.000 335.860,115.609 335.772,115.111 335.423 C 114.041 334.673,112.166 334.627,110.800 335.317 M195.589 335.477 C 195.045 335.849,194.468 336.344,194.306 336.577 C 194.142 336.813,194.010 336.602,194.006 336.100 C 194.001 335.408,193.769 335.200,193.000 335.200 L 192.000 335.200 192.000 341.000 L 192.000 346.800 193.000 346.800 C 193.967 346.800,194.000 346.711,194.010 344.100 C 194.032 337.828,195.831 335.703,199.700 337.382 C 200.279 337.633,200.400 337.477,200.400 336.486 C 200.400 334.690,197.597 334.103,195.589 335.477 M206.012 335.312 C 202.979 336.846,201.955 342.691,204.264 345.284 C 206.474 347.766,212.800 347.803,212.800 345.335 C 212.800 344.449,212.676 344.347,211.900 344.599 C 208.759 345.618,206.473 345.157,205.644 343.337 C 204.903 341.709,205.058 341.632,209.300 341.514 L 213.400 341.400 213.266 339.800 C 212.931 335.789,209.394 333.600,206.012 335.312 M219.454 335.629 C 218.580 336.316,218.400 336.350,218.400 335.829 C 218.400 335.425,218.043 335.200,217.400 335.200 L 216.400 335.200 216.400 341.000 L 216.400 346.800 217.347 346.800 C 218.266 346.800,218.299 346.685,218.484 342.824 C 218.706 338.229,219.333 336.800,221.129 336.800 C 222.983 336.800,223.200 337.375,223.200 342.280 L 223.200 346.800 224.400 346.800 L 225.600 346.800 225.600 342.587 C 225.600 335.614,223.088 332.770,219.454 335.629 M231.148 335.403 C 228.231 336.989,228.053 344.191,230.883 346.173 C 232.090 347.019,234.736 346.979,235.725 346.100 C 236.498 345.413,236.508 345.431,236.231 347.000 C 235.792 349.494,233.726 350.242,230.700 349.001 C 230.141 348.772,230.000 348.920,230.000 349.734 C 230.000 351.071,230.417 351.280,233.137 351.306 C 237.823 351.350,238.400 350.288,238.400 341.620 L 238.400 335.200 237.400 335.200 C 236.850 335.200,236.400 335.390,236.400 335.623 C 236.400 335.860,236.009 335.772,235.511 335.423 C 234.414 334.654,232.543 334.646,231.148 335.403 M299.200 335.156 C 298.488 335.352,298.163 335.754,298.070 336.552 C 297.952 337.571,298.024 337.643,298.870 337.342 C 300.975 336.592,303.734 336.928,304.276 338.000 C 304.671 338.783,304.674 339.016,304.290 339.075 C 304.021 339.117,302.779 339.263,301.532 339.400 C 298.477 339.736,297.200 340.887,297.200 343.305 C 297.200 346.816,301.402 348.551,304.065 346.141 C 304.728 345.541,304.803 345.541,305.034 346.146 C 305.582 347.572,307.592 346.967,307.172 345.503 C 306.967 344.789,306.800 342.821,306.800 341.129 C 306.800 335.596,304.410 333.718,299.200 335.156 M313.454 335.629 C 312.580 336.316,312.400 336.350,312.400 335.829 C 312.400 335.425,312.043 335.200,311.400 335.200 L 310.400 335.200 310.400 341.000 L 310.400 346.800 311.353 346.800 C 312.283 346.800,312.311 346.700,312.465 342.865 C 312.651 338.235,313.297 336.800,315.195 336.800 C 316.879 336.800,317.200 337.724,317.200 342.574 L 317.200 346.800 318.400 346.800 L 319.600 346.800 319.598 342.900 C 319.594 335.650,317.132 332.736,313.454 335.629 M325.646 335.485 C 321.961 337.300,321.908 343.853,325.559 346.292 C 328.027 347.941,332.000 347.229,332.000 345.138 C 332.000 343.995,331.970 343.976,331.111 344.577 C 329.011 346.048,325.965 344.993,325.361 342.586 C 324.305 338.379,327.886 335.164,331.111 337.423 C 331.972 338.026,332.000 338.007,332.000 336.813 C 332.000 334.811,328.499 334.080,325.646 335.485 M337.761 335.559 C 334.277 337.683,334.504 344.819,338.110 346.530 C 340.847 347.829,345.200 347.095,345.200 345.335 C 345.200 344.453,345.072 344.346,344.300 344.583 C 340.572 345.727,337.600 344.767,337.600 342.418 C 337.600 341.648,337.837 341.600,341.600 341.600 L 345.600 341.600 345.600 340.160 C 345.600 335.841,341.370 333.358,337.761 335.559 M282.961 335.900 C 283.079 336.285,283.548 338.220,284.003 340.200 C 285.555 346.948,285.521 346.864,286.688 346.724 C 287.600 346.616,287.823 346.278,288.448 344.051 C 289.386 340.715,289.376 340.716,290.224 343.986 C 290.904 346.606,291.030 346.800,292.046 346.800 C 293.120 346.800,293.159 346.711,294.490 341.100 L 295.843 335.400 294.885 335.270 C 293.628 335.099,293.757 334.839,292.727 339.619 L 291.827 343.800 291.039 341.100 C 289.960 337.399,288.780 337.253,287.808 340.700 C 287.451 341.965,287.107 343.180,287.042 343.400 C 286.917 343.830,285.200 336.720,285.200 335.770 C 285.200 335.401,284.768 335.200,283.973 335.200 C 282.989 335.200,282.789 335.339,282.961 335.900 M90.338 338.139 C 91.095 339.726,90.569 340.062,87.559 339.921 C 85.253 339.812,85.013 339.721,85.136 339.000 C 85.555 336.537,89.279 335.921,90.338 338.139 M115.009 337.610 C 116.468 339.222,115.906 343.950,114.160 344.745 C 111.277 346.059,109.255 340.226,111.609 337.389 C 112.311 336.544,114.152 336.663,115.009 337.610 M210.577 337.689 C 211.886 339.558,211.470 340.000,208.400 340.000 C 205.964 340.000,205.600 339.906,205.600 339.275 C 205.600 337.078,209.319 335.892,210.577 337.689 M235.333 337.526 C 237.283 339.681,236.167 345.200,233.782 345.200 C 231.572 345.200,230.213 339.987,231.823 337.689 C 232.590 336.594,234.413 336.509,235.333 337.526 M342.275 337.114 C 342.872 337.494,343.631 339.436,343.308 339.759 C 342.776 340.291,337.600 340.014,337.600 339.454 C 337.600 337.613,340.655 336.084,342.275 337.114 M304.800 341.613 C 304.800 342.892,303.564 344.794,302.570 345.043 C 300.049 345.676,298.275 343.685,299.830 341.967 C 300.592 341.125,304.800 340.825,304.800 341.613 " stroke="none" fill="#000000" fill-rule="evenodd"></path></g></svg>