<svg id="svg" xmlns="http://www.w3.org/2000/svg" xmlns:xlink="http://www.w3.org/1999/xlink" width="400" height="400" viewBox="0, 0, 400,400"><g id="svgg"><path id="path0" d="M57.186 14.521 L 37.226 14.573 25.798 25.998 L 14.371 37.424 14.371 200.000 L 14.371 362.576 25.899 374.102 L 37.426 385.629 200.001 385.629 L 362.576 385.629 374.102 374.101 L 385.629 362.574 385.629 199.999 L 385.629 37.424 374.101 25.898 L 362.574 14.371 219.860 14.420 C 141.367 14.447,68.164 14.492,57.186 14.521 M365.618 34.380 L 373.653 42.413 373.653 200.000 L 373.653 357.587 365.618 365.620 L 357.583 373.653 200.000 373.653 L 42.417 373.653 34.382 365.620 L 26.347 357.587 26.347 200.000 L 26.347 42.413 34.281 34.481 L 42.216 26.549 59.581 26.497 C 69.132 26.468,140.089 26.423,217.265 26.396 L 357.583 26.347 365.618 34.380 M201.297 101.817 C 187.010 102.890,178.575 113.569,177.414 132.056 C 176.433 147.654,180.881 160.026,189.541 165.788 C 198.332 171.637,211.847 170.898,220.080 164.117 L 221.357 163.065 221.357 148.898 L 221.357 134.731 212.275 134.731 L 203.194 134.731 203.194 138.423 L 203.194 142.116 207.984 142.116 L 212.774 142.116 212.774 150.877 L 212.774 159.639 211.826 160.241 C 206.630 163.539,198.434 163.021,193.663 159.094 C 184.794 151.793,184.037 123.400,192.455 113.777 C 198.261 107.139,210.104 107.513,217.834 114.578 C 218.430 115.123,218.973 115.569,219.040 115.569 C 219.107 115.569,219.162 113.512,219.162 110.999 L 219.162 106.429 218.214 105.821 C 213.394 102.728,207.558 101.347,201.297 101.817 M127.545 106.583 L 127.545 110.374 134.381 110.427 L 141.218 110.479 141.268 135.679 L 141.319 160.878 134.432 160.878 L 127.545 160.878 127.545 164.671 L 127.545 168.463 145.808 168.463 L 164.072 168.463 164.072 164.671 L 164.072 160.878 157.186 160.878 L 150.299 160.878 150.299 135.629 L 150.299 110.379 157.190 110.379 L 164.081 110.379 164.026 106.637 L 163.972 102.894 145.758 102.843 L 127.545 102.792 127.545 106.583 M237.126 135.628 L 237.126 168.463 241.617 168.463 L 246.108 168.463 246.108 153.293 L 246.108 138.124 259.581 138.124 L 273.054 138.124 273.054 134.331 L 273.054 130.539 259.581 130.539 L 246.108 130.539 246.108 120.459 L 246.108 110.379 260.982 110.379 L 275.857 110.379 275.803 106.637 L 275.749 102.894 256.437 102.843 L 237.126 102.792 237.126 135.628 M195.626 199.152 C 195.517 199.563,194.566 203.358,193.513 207.585 C 192.459 211.811,191.509 215.606,191.400 216.018 L 191.202 216.766 184.523 216.766 L 177.844 216.766 177.844 220.160 L 177.844 223.553 183.715 223.553 L 189.585 223.553 187.753 230.788 L 185.920 238.024 179.387 238.077 L 172.854 238.129 172.854 241.520 L 172.854 244.910 178.526 244.910 L 184.198 244.910 181.923 253.842 C 180.672 258.755,179.646 262.842,179.644 262.924 C 179.642 263.006,181.237 263.074,183.187 263.074 L 186.734 263.074 189.026 253.993 L 191.317 244.913 196.678 244.911 C 201.292 244.910,202.023 244.951,201.927 245.201 C 201.822 245.476,197.405 262.867,197.405 263.008 C 197.405 263.044,199.011 263.074,200.974 263.074 L 204.544 263.074 206.810 253.992 L 209.077 244.910 215.417 244.910 L 221.756 244.910 221.756 241.517 L 221.756 238.124 216.367 238.124 C 212.192 238.124,210.977 238.068,210.973 237.874 C 210.970 237.737,211.755 234.459,212.716 230.589 L 214.465 223.553 220.606 223.553 L 226.747 223.553 226.747 220.160 L 226.747 216.766 221.457 216.766 C 218.548 216.766,216.168 216.719,216.168 216.661 C 216.168 216.602,217.192 212.522,218.444 207.592 C 219.695 202.663,220.668 198.579,220.606 198.517 C 220.196 198.106,213.616 198.417,213.493 198.852 C 213.424 199.099,212.466 202.894,211.365 207.285 C 210.263 211.677,209.273 215.606,209.164 216.018 L 208.967 216.766 203.685 216.766 C 200.780 216.766,198.403 216.720,198.403 216.663 C 198.403 216.606,199.391 212.611,200.599 207.784 C 201.806 202.958,202.794 198.873,202.794 198.706 C 202.794 198.447,202.292 198.403,199.309 198.403 L 195.824 198.403 195.626 199.152 M205.516 230.838 L 203.697 238.124 198.455 238.124 C 193.895 238.124,193.214 238.084,193.214 237.820 C 193.214 237.462,196.579 223.959,196.728 223.717 C 196.784 223.627,199.193 223.553,202.082 223.553 L 207.334 223.553 205.516 230.838 " stroke="none" fill="#000000" fill-rule="evenodd"></path></g></svg>