<svg id="svg" version="1.1" xmlns="http://www.w3.org/2000/svg" xmlns:xlink="http://www.w3.org/1999/xlink" width="400" height="400" viewBox="0, 0, 400,400"><g id="svgg"><path id="path0" d="M25.497 25.503 L 14.000 37.005 14.000 200.005 L 14.000 363.005 25.503 374.503 L 37.005 386.000 200.005 386.000 L 363.005 386.000 374.503 374.497 L 386.000 362.995 386.000 199.995 L 386.000 36.995 374.497 25.497 L 362.995 14.000 199.995 14.000 L 36.995 14.000 25.497 25.503 M365.896 34.096 L 374.000 42.193 374.000 199.993 L 374.000 357.793 365.904 365.896 L 357.807 374.000 200.007 374.000 L 42.207 374.000 34.104 365.904 L 26.000 357.807 26.000 200.007 L 26.000 42.207 34.096 34.104 L 42.193 26.000 199.993 26.000 L 357.793 26.000 365.896 34.096 M199.076 64.792 C 186.405 67.087,179.019 76.904,177.524 93.436 C 175.989 110.425,181.506 124.908,191.421 129.910 C 200.834 134.660,212.641 133.365,220.900 126.679 C 221.543 126.158,221.600 124.950,221.600 111.856 L 221.600 97.600 212.400 97.600 L 203.200 97.600 203.200 101.400 L 203.200 105.200 208.000 105.200 L 212.800 105.200 212.800 113.971 L 212.800 122.741 210.532 123.851 C 206.262 125.940,199.256 125.560,195.236 123.022 C 189.760 119.566,186.800 111.066,186.800 98.800 C 186.800 80.541,193.098 71.376,205.146 72.102 C 210.097 72.401,212.451 73.398,217.963 77.527 L 219.200 78.454 219.200 73.698 L 219.200 68.942 216.300 67.491 C 211.393 65.035,204.070 63.888,199.076 64.792 M127.600 69.400 L 127.600 73.200 134.400 73.200 L 141.200 73.200 141.200 98.400 L 141.200 123.600 134.400 123.600 L 127.600 123.600 127.600 127.600 L 127.600 131.600 145.800 131.600 L 164.000 131.600 164.000 127.600 L 164.000 123.600 157.200 123.600 L 150.400 123.600 150.400 98.400 L 150.400 73.200 157.200 73.200 L 164.000 73.200 164.000 69.400 L 164.000 65.600 145.800 65.600 L 127.600 65.600 127.600 69.400 M237.200 98.600 L 237.200 131.600 241.800 131.600 L 246.400 131.600 246.400 116.400 L 246.400 101.200 259.800 101.200 L 273.200 101.200 273.200 97.200 L 273.200 93.200 259.800 93.200 L 246.400 93.200 246.400 83.200 L 246.400 73.200 261.200 73.200 L 276.000 73.200 276.000 69.400 L 276.000 65.600 256.600 65.600 L 237.200 65.600 237.200 98.600 M192.600 172.645 C 188.150 173.111,181.999 174.201,176.700 175.462 L 170.800 176.867 170.800 183.233 C 170.800 187.380,170.945 189.600,171.217 189.600 C 171.446 189.600,173.458 188.965,175.689 188.188 C 200.535 179.540,218.371 186.026,215.993 202.847 C 214.681 212.130,207.850 216.000,192.774 216.000 L 185.600 216.000 185.600 221.749 L 185.600 227.498 193.500 227.723 C 209.650 228.182,216.962 233.019,218.345 244.159 C 220.925 264.939,198.016 273.373,172.100 261.184 L 168.000 259.256 168.000 266.415 L 168.000 273.574 171.300 274.565 C 188.113 279.615,205.839 279.707,216.326 274.800 C 226.604 269.990,231.900 261.771,232.309 249.994 C 232.797 235.940,226.719 226.625,214.434 222.601 L 212.269 221.892 215.311 220.783 C 226.834 216.582,232.168 206.099,229.410 193.079 C 226.524 179.460,210.813 170.738,192.600 172.645 " stroke="none" fill="#000000" fill-rule="evenodd"></path></g></svg>