<svg id="svg" version="1.1" xmlns="http://www.w3.org/2000/svg" xmlns:xlink="http://www.w3.org/1999/xlink" width="400" height="400" viewBox="0, 0, 400,400"><g id="svgg"><path id="path0" d="M25.497 25.503 L 14.000 37.005 14.000 200.005 L 14.000 363.005 25.503 374.503 L 37.005 386.000 200.005 386.000 L 363.005 386.000 374.503 374.497 L 386.000 362.995 386.000 199.995 L 386.000 36.995 374.497 25.497 L 362.995 14.000 199.995 14.000 L 36.995 14.000 25.497 25.503 M365.896 34.096 L 374.000 42.193 374.000 199.993 L 374.000 357.793 365.904 365.896 L 357.807 374.000 200.007 374.000 L 42.207 374.000 34.104 365.904 L 26.000 357.807 26.000 200.007 L 26.000 42.207 34.096 34.104 L 42.193 26.000 199.993 26.000 L 357.793 26.000 365.896 34.096 M223.772 51.330 C 223.651 51.644,223.608 52.779,223.676 53.851 L 223.800 55.800 226.120 55.921 L 228.439 56.041 228.320 53.521 L 228.200 51.000 226.096 50.879 C 224.555 50.790,223.932 50.911,223.772 51.330 M112.000 68.400 L 112.000 84.400 114.400 84.400 L 116.800 84.400 116.800 77.000 L 116.800 69.600 123.400 69.600 L 130.000 69.600 130.000 67.800 L 130.000 66.000 123.400 66.000 L 116.800 66.000 116.800 61.000 L 116.800 56.000 124.000 56.000 L 131.200 56.000 131.200 54.200 L 131.200 52.400 121.600 52.400 L 112.000 52.400 112.000 68.400 M197.717 53.181 L 196.035 53.945 195.917 57.073 L 195.800 60.200 192.700 60.317 L 189.600 60.434 189.600 62.017 L 189.600 63.600 192.778 63.600 L 195.956 63.600 196.078 72.172 C 196.241 83.633,196.842 84.472,204.951 84.557 L 209.000 84.600 209.000 83.000 L 209.000 81.400 205.509 81.200 C 200.145 80.893,200.231 81.048,200.069 71.390 L 199.939 63.600 204.569 63.600 L 209.200 63.600 209.200 62.000 L 209.200 60.400 204.600 60.400 L 200.000 60.400 200.000 56.400 C 200.000 54.200,199.865 52.404,199.700 52.409 C 199.535 52.414,198.643 52.761,197.717 53.181 M144.200 59.833 C 143.760 59.934,142.275 60.304,140.900 60.653 L 138.400 61.289 138.400 63.398 L 138.400 65.507 140.896 64.499 C 146.950 62.053,152.400 63.682,152.400 67.938 L 152.400 69.116 147.700 69.273 C 139.543 69.546,136.717 71.655,136.733 77.462 C 136.752 84.651,145.341 87.922,151.149 82.951 C 152.824 81.517,152.930 81.534,153.352 83.300 C 153.599 84.332,153.749 84.400,155.780 84.400 L 157.944 84.400 157.528 83.100 C 157.299 82.385,156.985 78.183,156.830 73.762 C 156.492 64.120,156.041 62.853,152.301 61.042 C 150.251 60.050,146.003 59.416,144.200 59.833 M171.917 60.137 C 160.749 63.284,160.854 82.126,172.054 84.813 C 174.534 85.408,178.402 85.135,180.700 84.203 L 182.400 83.513 182.400 81.357 C 182.400 78.860,182.469 78.906,180.592 80.179 C 173.943 84.692,166.599 78.476,168.389 69.851 C 169.717 63.454,176.742 61.163,181.700 65.510 C 182.357 66.086,182.400 65.978,182.400 63.741 L 182.400 61.358 180.408 60.642 C 177.768 59.693,174.239 59.483,171.917 60.137 M249.939 60.133 C 240.284 62.848,239.905 81.848,249.449 84.708 C 257.988 87.266,263.560 81.847,263.100 71.433 C 262.701 62.401,257.563 57.990,249.939 60.133 M280.200 59.797 C 279.980 59.870,279.300 60.040,278.690 60.175 C 278.079 60.310,276.864 61.067,275.990 61.857 C 274.595 63.117,274.400 63.193,274.400 62.479 C 274.400 60.789,273.980 60.400,272.157 60.400 L 270.400 60.400 270.400 72.400 L 270.400 84.400 272.365 84.400 L 274.330 84.400 274.469 76.100 C 274.646 65.515,275.498 63.600,280.032 63.600 C 284.175 63.600,284.777 65.232,284.790 76.500 L 284.800 84.400 286.800 84.400 L 288.800 84.400 288.800 75.577 C 288.800 65.698,288.500 63.787,286.640 61.815 C 285.111 60.193,281.966 59.208,280.200 59.797 M218.800 62.000 L 218.800 63.600 221.353 63.600 L 223.905 63.600 224.092 71.300 C 224.374 82.920,225.706 84.792,233.700 84.798 L 236.800 84.800 236.800 83.000 L 236.800 81.200 234.226 81.200 C 228.646 81.200,228.400 80.686,228.400 69.013 L 228.400 60.400 223.600 60.400 L 218.800 60.400 218.800 62.000 M255.991 64.331 C 261.387 68.353,259.150 81.400,253.063 81.400 C 249.068 81.400,247.223 78.591,247.209 72.487 C 247.191 64.973,251.492 60.979,255.991 64.331 M152.398 73.700 C 152.386 80.441,144.865 84.426,141.424 79.513 C 138.737 75.677,142.236 72.534,149.300 72.441 L 152.400 72.400 152.398 73.700 M82.632 148.410 C 80.009 150.385,77.706 152.000,77.513 152.000 C 77.238 152.000,72.551 148.613,68.500 145.488 C 68.115 145.191,68.000 145.567,68.000 147.124 L 68.000 149.146 71.400 151.600 C 73.270 152.950,74.800 154.116,74.800 154.191 C 74.800 154.267,73.270 155.461,71.400 156.846 L 68.000 159.365 68.000 161.331 C 68.000 162.849,68.114 163.208,68.500 162.903 C 72.034 160.111,77.491 156.426,77.874 156.573 C 78.144 156.677,80.414 158.300,82.918 160.181 C 88.260 164.193,88.002 164.116,87.994 161.700 C 87.987 159.812,87.971 159.788,85.294 157.902 C 83.812 156.859,82.079 155.586,81.442 155.074 L 80.285 154.143 84.134 151.372 L 87.983 148.600 87.992 146.700 C 88.002 144.272,88.222 144.202,82.632 148.410 M187.886 163.848 C 186.745 164.988,187.628 167.200,189.223 167.200 L 190.846 167.200 190.723 165.500 C 190.602 163.826,188.899 162.834,187.886 163.848 M240.400 165.376 L 240.400 167.200 242.023 167.200 L 243.646 167.200 243.523 165.500 C 243.404 163.850,243.356 163.796,241.900 163.676 L 240.400 163.552 240.400 165.376 M130.800 165.789 L 130.800 167.200 133.000 167.200 L 135.200 167.200 135.200 175.400 L 135.200 183.600 133.000 183.600 C 130.822 183.600,130.800 183.612,130.800 184.800 L 130.800 186.000 136.800 186.000 L 142.800 186.000 142.800 184.800 C 142.800 183.612,142.778 183.600,140.600 183.600 L 138.400 183.600 138.400 175.400 L 138.400 167.200 140.625 167.200 L 142.851 167.200 142.725 165.900 L 142.600 164.600 136.700 164.489 L 130.800 164.379 130.800 165.789 M72.662 167.783 C 68.357 169.318,66.301 174.900,68.365 179.446 C 70.721 184.633,80.022 186.325,85.143 182.497 C 89.443 179.284,89.553 167.988,85.288 167.677 C 83.346 167.536,83.306 167.658,84.441 170.267 C 86.729 175.527,84.558 180.793,80.100 180.799 L 78.800 180.800 78.800 174.000 L 78.800 167.200 76.500 167.218 C 75.235 167.227,73.508 167.482,72.662 167.783 M152.408 170.655 C 151.165 171.701,151.152 171.703,150.930 170.855 C 150.767 170.231,150.395 170.000,149.553 170.000 L 148.400 170.000 148.400 178.000 L 148.400 186.000 149.800 186.000 L 151.200 186.000 151.201 180.500 C 151.203 174.230,151.709 172.703,153.947 172.212 C 156.930 171.556,157.702 173.127,157.924 180.300 L 158.101 186.000 159.450 186.000 L 160.800 186.000 160.800 180.577 C 160.800 174.129,160.349 171.965,158.720 170.594 C 157.027 169.169,154.140 169.197,152.408 170.655 M168.476 170.410 C 166.670 171.511,165.847 173.547,166.391 175.568 C 166.930 177.569,167.306 177.843,171.270 179.124 C 174.447 180.150,174.606 180.258,174.722 181.462 C 174.950 183.810,172.067 184.694,168.400 183.400 C 166.085 182.583,166.000 182.610,166.000 184.153 C 166.000 185.750,167.711 186.400,171.918 186.400 C 179.118 186.400,180.347 178.218,173.359 176.804 C 170.387 176.203,169.200 175.463,169.200 174.213 C 169.200 172.191,172.468 171.349,175.462 172.600 C 177.308 173.372,177.200 173.420,177.200 171.819 C 177.200 169.578,171.381 168.639,168.476 170.410 M204.167 169.988 C 200.558 171.448,199.182 178.969,201.729 183.315 C 203.383 186.138,207.200 187.037,209.695 185.193 L 210.916 184.290 210.698 186.232 C 210.313 189.647,207.915 190.781,204.000 189.400 C 203.065 189.070,202.232 188.800,202.150 188.800 C 202.067 188.800,202.000 189.427,202.000 190.192 C 202.000 191.883,202.790 192.200,207.000 192.200 C 212.822 192.200,213.600 190.596,213.600 178.592 L 213.600 170.000 212.443 170.000 C 211.782 170.000,211.187 170.258,211.055 170.601 C 210.857 171.117,210.636 171.088,209.512 170.403 C 208.153 169.574,205.667 169.381,204.167 169.988 M222.693 170.614 C 221.257 171.590,221.200 171.598,221.200 170.814 C 221.200 170.150,220.942 170.000,219.800 170.000 L 218.400 170.000 218.400 178.000 L 218.400 186.000 220.000 186.000 L 221.600 186.000 221.600 180.580 C 221.600 173.811,222.358 172.000,225.192 172.000 C 227.491 172.000,228.000 173.447,228.000 179.982 L 228.000 186.000 229.400 186.000 L 230.800 186.000 230.800 179.580 C 230.800 172.724,230.526 171.494,228.713 170.224 C 227.308 169.240,224.442 169.426,222.693 170.614 M255.800 170.141 C 254.344 170.578,254.189 170.755,254.076 172.114 L 253.951 173.608 255.990 172.804 C 259.638 171.366,262.936 172.138,263.273 174.508 C 263.393 175.349,263.190 175.425,259.719 175.842 C 255.516 176.346,254.202 177.020,253.325 179.117 C 251.118 184.400,257.598 188.814,262.375 185.282 C 263.840 184.199,264.000 184.191,264.000 185.200 C 264.000 185.869,264.267 186.000,265.624 186.000 C 266.821 186.000,267.166 185.869,266.937 185.500 C 266.767 185.225,266.524 182.348,266.397 179.107 C 266.054 170.362,263.179 167.929,255.800 170.141 M184.400 170.977 C 184.400 171.840,184.598 171.968,186.100 172.077 L 187.800 172.200 188.000 177.673 C 188.267 184.972,189.270 186.315,194.500 186.377 L 196.400 186.400 196.400 185.000 L 196.400 183.600 194.223 183.600 C 190.982 183.600,190.800 183.191,190.800 175.911 L 190.800 170.000 187.600 170.000 C 184.473 170.000,184.400 170.022,184.400 170.977 M237.200 170.977 C 237.200 171.840,237.398 171.968,238.900 172.077 L 240.600 172.200 240.800 177.869 C 241.055 185.097,242.371 186.751,247.527 186.323 C 250.229 186.098,249.701 183.840,246.908 183.679 C 243.779 183.499,243.600 183.078,243.600 175.911 L 243.600 170.000 240.400 170.000 C 237.273 170.000,237.200 170.022,237.200 170.977 M76.000 175.643 L 76.000 180.887 74.900 180.612 C 73.240 180.198,71.236 178.500,70.970 177.282 C 70.840 176.687,70.669 175.988,70.591 175.730 C 69.933 173.561,72.793 170.588,75.700 170.418 C 75.865 170.408,76.000 172.760,76.000 175.643 M208.791 172.395 C 210.839 173.491,211.457 179.989,209.734 182.305 C 207.764 184.956,204.386 183.588,203.605 179.824 C 202.542 174.703,205.415 170.588,208.791 172.395 M263.278 178.211 C 263.865 178.798,262.789 181.854,261.631 182.889 C 258.636 185.565,253.888 182.427,256.384 179.420 C 257.247 178.379,262.521 177.454,263.278 178.211 M61.600 191.000 L 61.600 192.800 67.013 192.800 L 72.425 192.800 72.313 197.500 L 72.200 202.200 66.900 202.312 L 61.600 202.423 61.600 204.212 L 61.600 206.000 74.800 206.000 L 88.000 206.000 88.000 204.200 L 88.000 202.400 81.800 202.400 L 75.600 202.400 75.600 197.600 L 75.600 192.800 81.800 192.800 L 88.000 192.800 88.000 191.000 L 88.000 189.200 74.800 189.200 L 61.600 189.200 61.600 191.000 M241.600 290.200 L 241.600 298.000 242.800 298.000 L 244.000 298.000 244.031 291.900 L 244.063 285.800 245.163 289.000 C 246.813 293.800,247.859 293.782,249.528 288.923 L 250.737 285.400 250.768 291.700 L 250.800 298.000 251.800 298.000 L 252.800 298.000 252.800 290.176 L 252.800 282.352 251.341 282.476 C 249.892 282.599,249.872 282.625,248.606 286.146 L 247.331 289.691 246.016 286.046 L 244.702 282.400 243.151 282.400 L 241.600 282.400 241.600 290.200 M309.899 282.900 C 309.539 283.175,309.190 284.030,309.122 284.800 C 309.008 286.103,308.896 286.209,307.500 286.324 C 305.231 286.512,305.320 288.000,307.600 288.000 L 309.200 288.000 309.200 291.946 C 309.200 297.178,309.747 298.000,313.229 298.000 C 315.333 298.000,315.600 297.910,315.600 297.200 C 315.600 296.536,315.333 296.400,314.029 296.400 C 311.591 296.400,311.200 295.733,311.200 291.571 L 311.200 288.000 313.400 288.000 C 316.628 288.000,316.717 286.506,313.500 286.321 L 311.400 286.200 311.278 284.300 C 311.149 282.293,310.953 282.094,309.899 282.900 M257.505 286.626 C 254.201 288.419,254.316 296.102,257.673 297.838 C 261.431 299.781,265.200 296.958,265.200 292.200 C 265.200 287.324,261.353 284.538,257.505 286.626 M282.874 286.346 C 282.585 286.529,281.910 286.595,281.374 286.493 L 280.400 286.307 280.400 292.153 L 280.400 298.000 281.388 298.000 L 282.375 298.000 282.488 293.100 C 282.594 288.454,282.644 288.194,283.448 288.079 C 284.578 287.918,284.788 288.823,284.795 293.900 C 284.800 297.992,284.802 298.000,285.788 298.000 L 286.775 298.000 286.888 293.105 C 286.989 288.681,287.072 288.196,287.752 288.066 C 288.953 287.835,289.187 288.718,289.194 293.500 L 289.200 298.000 290.240 298.000 L 291.280 298.000 291.140 292.842 C 291.021 288.454,290.886 287.557,290.238 286.842 C 289.356 285.868,287.520 285.733,286.809 286.589 C 286.379 287.107,286.250 287.107,285.732 286.589 C 285.085 285.942,283.697 285.824,282.874 286.346 M297.400 286.478 C 296.960 286.727,296.468 287.127,296.306 287.366 C 296.127 287.630,296.010 287.526,296.006 287.100 C 296.002 286.622,295.683 286.400,295.000 286.400 L 294.000 286.400 294.000 292.200 L 294.000 298.000 294.964 298.000 C 295.911 298.000,295.929 297.931,296.064 293.841 C 296.216 289.179,296.779 288.000,298.848 288.000 C 300.473 288.000,300.800 288.967,300.800 293.774 L 300.800 298.000 302.000 298.000 L 303.200 298.000 303.183 294.500 C 303.146 287.106,301.157 284.347,297.400 286.478 M267.626 286.873 C 267.640 287.163,268.508 289.740,269.553 292.600 L 271.454 297.800 272.927 297.924 C 273.737 297.992,274.400 297.964,274.400 297.861 C 274.400 297.758,275.294 295.137,276.387 292.037 L 278.374 286.400 277.235 286.400 C 276.146 286.400,276.031 286.590,274.569 290.787 C 273.728 293.200,272.943 295.076,272.824 294.957 C 272.704 294.838,271.954 292.909,271.156 290.670 C 269.854 287.016,269.598 286.587,268.653 286.473 C 267.976 286.392,267.609 286.535,267.626 286.873 M261.971 289.054 C 263.907 291.515,262.583 296.400,259.980 296.400 C 258.362 296.400,257.429 294.863,257.429 292.200 C 257.429 288.347,260.009 286.560,261.971 289.054 M137.600 306.981 C 137.600 307.879,137.766 308.000,139.000 308.000 L 140.400 308.000 140.400 313.303 C 140.400 321.246,140.929 322.364,144.700 322.387 C 146.538 322.398,146.800 322.300,146.800 321.600 C 146.800 320.961,146.533 320.800,145.476 320.800 C 142.914 320.800,142.823 320.544,142.706 313.000 L 142.600 306.200 140.100 306.081 C 137.656 305.965,137.600 305.985,137.600 306.981 M255.600 306.981 C 255.600 307.874,255.769 308.000,256.963 308.000 L 258.327 308.000 258.463 313.972 C 258.634 321.430,258.976 322.131,262.541 322.320 C 264.591 322.429,264.800 322.364,264.800 321.620 C 264.800 320.963,264.542 320.799,263.500 320.794 C 261.050 320.782,261.019 320.695,260.800 313.115 L 260.600 306.200 258.100 306.081 C 255.656 305.965,255.600 305.985,255.600 306.981 M268.400 306.981 C 268.400 307.874,268.569 308.000,269.764 308.000 L 271.128 308.000 271.264 314.169 C 271.394 320.054,271.444 320.384,272.370 321.369 C 273.672 322.754,277.600 322.927,277.600 321.600 C 277.600 320.965,277.331 320.799,276.300 320.794 C 273.850 320.782,273.819 320.695,273.600 313.115 L 273.400 306.200 270.900 306.081 C 268.456 305.965,268.400 305.985,268.400 306.981 M86.800 314.600 L 86.800 322.400 91.600 322.400 L 96.400 322.400 96.400 321.400 C 96.400 320.407,96.373 320.400,92.800 320.400 L 89.200 320.400 89.200 313.600 L 89.200 306.800 88.000 306.800 L 86.800 306.800 86.800 314.600 M153.500 307.232 C 153.020 307.511,152.800 308.137,152.800 309.220 C 152.800 310.797,152.797 310.800,151.200 310.800 C 149.867 310.800,149.600 310.933,149.600 311.600 C 149.600 312.267,149.867 312.400,151.200 312.400 L 152.800 312.400 152.800 316.346 C 152.800 321.578,153.347 322.400,156.829 322.400 C 158.933 322.400,159.200 322.310,159.200 321.600 C 159.200 320.935,158.933 320.800,157.623 320.800 C 155.332 320.800,154.800 319.841,154.800 315.711 L 154.800 312.400 157.000 312.400 C 160.228 312.400,160.317 310.906,157.100 310.721 L 155.000 310.600 154.878 308.700 C 154.750 306.702,154.630 306.574,153.500 307.232 M245.805 307.300 C 245.711 307.575,244.701 310.860,243.561 314.600 C 242.420 318.340,241.398 321.638,241.289 321.929 C 241.145 322.316,241.447 322.424,242.407 322.329 C 243.597 322.212,243.773 322.020,244.273 320.300 L 244.824 318.400 247.375 318.400 L 249.926 318.400 250.439 320.400 C 250.919 322.274,251.031 322.400,252.226 322.400 L 253.501 322.400 252.195 318.100 C 251.476 315.735,250.408 312.225,249.820 310.300 L 248.752 306.800 247.363 306.800 C 246.600 306.800,245.898 307.025,245.805 307.300 M249.021 315.300 C 249.258 316.375,249.222 316.400,247.432 316.400 C 245.452 316.400,245.315 316.189,245.980 314.160 C 246.190 313.522,246.576 312.190,246.840 311.200 L 247.318 309.400 248.049 311.800 C 248.450 313.120,248.888 314.695,249.021 315.300 M101.153 311.001 C 97.813 312.816,98.029 320.817,101.456 322.249 C 105.896 324.104,109.192 321.100,108.698 315.648 C 108.290 311.146,104.819 309.009,101.153 311.001 M126.400 310.756 C 125.683 310.954,125.363 311.354,125.268 312.171 C 125.155 313.150,125.239 313.263,125.868 312.972 C 127.615 312.167,130.940 312.539,131.476 313.600 C 131.871 314.383,131.874 314.616,131.490 314.675 C 131.221 314.717,129.979 314.863,128.732 315.000 C 125.677 315.336,124.400 316.487,124.400 318.905 C 124.400 322.416,128.602 324.151,131.265 321.741 C 131.928 321.141,132.003 321.141,132.234 321.746 C 132.782 323.172,134.792 322.567,134.372 321.103 C 134.167 320.389,134.000 318.400,134.000 316.683 C 134.000 311.251,131.544 309.336,126.400 310.756 M283.105 311.003 C 279.696 312.924,279.809 320.446,283.273 322.238 C 287.621 324.486,291.560 320.482,290.599 314.791 C 290.002 311.262,286.124 309.302,283.105 311.003 M111.200 310.973 C 111.200 311.068,112.176 313.622,113.370 316.650 C 115.845 322.931,115.831 324.218,113.278 324.983 C 111.353 325.559,111.526 326.800,113.530 326.800 C 115.771 326.800,116.399 325.877,119.369 318.213 C 122.396 310.403,122.310 310.800,120.980 310.800 C 119.878 310.800,119.906 310.751,117.792 316.375 L 116.673 319.349 115.044 315.075 C 113.516 311.063,113.347 310.800,112.308 310.800 C 111.698 310.800,111.200 310.878,111.200 310.973 M162.400 311.167 C 162.400 311.398,163.300 313.843,164.400 316.600 C 166.893 322.849,166.679 325.200,163.618 325.200 C 163.067 325.200,162.800 325.461,162.800 326.000 C 162.800 327.058,165.511 327.126,166.770 326.100 C 167.412 325.576,173.200 311.919,173.200 310.928 C 173.200 310.857,172.685 310.800,172.055 310.800 C 170.966 310.800,170.836 311.003,169.376 314.988 C 168.533 317.291,167.777 319.110,167.697 319.030 C 167.617 318.950,166.880 317.111,166.059 314.942 C 164.717 311.397,164.458 310.987,163.484 310.873 C 162.888 310.804,162.400 310.936,162.400 311.167 M105.402 312.952 C 106.616 313.840,106.753 318.251,105.610 319.700 C 104.054 321.672,101.813 320.916,101.203 318.214 C 100.269 314.074,102.726 310.995,105.402 312.952 M287.610 313.500 C 288.708 314.891,288.593 318.682,287.414 319.985 C 286.251 321.269,284.542 321.052,283.596 319.500 C 281.149 315.488,284.833 309.982,287.610 313.500 M294.000 316.200 L 294.000 317.200 298.400 317.200 L 302.800 317.200 302.800 316.200 L 302.800 315.200 298.400 315.200 L 294.000 315.200 294.000 316.200 M131.843 317.433 C 131.709 317.781,131.600 318.287,131.600 318.557 C 131.600 319.562,129.980 320.800,128.664 320.800 C 126.493 320.800,125.654 319.087,127.062 317.531 C 127.965 316.534,132.221 316.446,131.843 317.433 M86.800 339.000 L 86.800 346.800 88.000 346.800 L 89.200 346.800 89.200 343.200 L 89.200 339.600 92.400 339.600 C 95.547 339.600,95.600 339.583,95.600 338.600 C 95.600 337.617,95.547 337.600,92.400 337.600 L 89.200 337.600 89.200 335.400 L 89.200 333.200 92.800 333.200 C 96.373 333.200,96.400 333.193,96.400 332.200 L 96.400 331.200 91.600 331.200 L 86.800 331.200 86.800 339.000 M128.100 331.638 C 127.371 331.910,127.200 332.281,127.200 333.587 L 127.200 335.200 125.600 335.200 C 124.267 335.200,124.000 335.333,124.000 336.000 C 124.000 336.664,124.267 336.800,125.564 336.800 L 127.127 336.800 127.264 341.036 C 127.429 346.169,127.886 346.800,131.444 346.800 C 133.333 346.800,133.600 346.701,133.600 346.000 C 133.600 345.338,133.333 345.200,132.049 345.200 C 129.861 345.200,129.471 344.521,129.273 340.364 L 129.102 336.800 131.351 336.800 C 134.620 336.800,134.752 335.308,131.500 335.121 L 129.400 335.000 129.200 333.151 C 129.014 331.430,128.938 331.325,128.100 331.638 M100.800 335.156 C 100.083 335.354,99.763 335.754,99.668 336.571 C 99.556 337.541,99.645 337.665,100.268 337.403 C 102.274 336.561,105.073 336.684,105.746 337.644 C 106.689 338.991,106.576 339.200,104.900 339.202 C 100.926 339.208,98.793 340.644,98.813 343.300 C 98.839 346.785,101.879 348.236,105.306 346.399 C 106.546 345.735,106.800 345.701,106.800 346.199 C 106.800 346.605,107.204 346.800,108.043 346.800 C 109.073 346.800,109.235 346.680,108.990 346.100 C 108.827 345.715,108.582 343.510,108.447 341.200 C 108.311 338.890,108.043 336.757,107.851 336.459 C 106.985 335.116,103.367 334.447,100.800 335.156 M114.359 335.715 C 109.672 338.870,111.757 347.200,117.233 347.200 C 119.750 347.200,120.800 346.608,120.800 345.187 C 120.800 343.993,120.772 343.974,119.911 344.577 C 116.863 346.712,113.418 343.826,114.178 339.775 C 114.691 337.045,117.642 335.834,119.911 337.423 C 120.772 338.026,120.800 338.007,120.800 336.813 C 120.800 334.673,116.895 334.008,114.359 335.715 M139.505 335.403 C 136.116 337.313,136.229 344.857,139.673 346.638 C 144.021 348.886,147.960 344.882,146.999 339.191 C 146.402 335.662,142.524 333.702,139.505 335.403 M154.654 335.629 C 153.780 336.316,153.600 336.350,153.600 335.829 C 153.600 335.425,153.243 335.200,152.600 335.200 L 151.600 335.200 151.600 341.000 L 151.600 346.800 152.563 346.800 C 153.507 346.800,153.528 346.722,153.663 342.765 C 153.848 337.328,155.512 335.738,159.300 337.382 C 159.864 337.627,160.000 337.486,160.000 336.657 C 160.000 334.739,156.613 334.088,154.654 335.629 M257.200 335.156 C 256.488 335.352,256.163 335.754,256.070 336.552 C 255.952 337.571,256.024 337.643,256.870 337.342 C 258.975 336.592,261.734 336.928,262.276 338.000 C 262.671 338.783,262.674 339.016,262.290 339.075 C 262.021 339.117,260.779 339.263,259.532 339.400 C 256.477 339.736,255.200 340.887,255.200 343.305 C 255.200 346.816,259.402 348.551,262.065 346.141 C 262.728 345.541,262.803 345.541,263.034 346.146 C 263.582 347.572,265.592 346.967,265.172 345.503 C 264.967 344.789,264.800 342.821,264.800 341.129 C 264.800 335.596,262.410 333.718,257.200 335.156 M271.454 335.629 C 270.580 336.316,270.400 336.350,270.400 335.829 C 270.400 335.425,270.043 335.200,269.400 335.200 L 268.400 335.200 268.400 341.000 L 268.400 346.800 269.353 346.800 C 270.283 346.800,270.311 346.700,270.465 342.865 C 270.651 338.235,271.297 336.800,273.195 336.800 C 274.879 336.800,275.200 337.724,275.200 342.574 L 275.200 346.800 276.400 346.800 L 277.600 346.800 277.598 342.900 C 277.594 335.650,275.132 332.736,271.454 335.629 M283.646 335.485 C 279.961 337.300,279.908 343.853,283.559 346.292 C 286.027 347.941,290.000 347.229,290.000 345.138 C 290.000 343.995,289.970 343.976,289.111 344.577 C 287.011 346.048,283.965 344.993,283.361 342.586 C 282.305 338.379,285.886 335.164,289.111 337.423 C 289.972 338.026,290.000 338.007,290.000 336.813 C 290.000 334.811,286.499 334.080,283.646 335.485 M295.761 335.559 C 292.277 337.683,292.504 344.819,296.110 346.530 C 298.847 347.829,303.200 347.095,303.200 345.335 C 303.200 344.453,303.072 344.346,302.300 344.583 C 298.572 345.727,295.600 344.767,295.600 342.418 C 295.600 341.648,295.837 341.600,299.600 341.600 L 303.600 341.600 303.600 340.160 C 303.600 335.841,299.370 333.358,295.761 335.559 M240.961 335.900 C 241.079 336.285,241.548 338.220,242.003 340.200 C 243.555 346.948,243.521 346.864,244.688 346.724 C 245.600 346.616,245.823 346.278,246.448 344.051 C 247.386 340.715,247.376 340.716,248.224 343.986 C 248.904 346.606,249.030 346.800,250.046 346.800 C 251.120 346.800,251.159 346.711,252.490 341.100 L 253.843 335.400 252.885 335.270 C 251.628 335.099,251.757 334.839,250.727 339.619 L 249.827 343.800 249.039 341.100 C 247.960 337.399,246.780 337.253,245.808 340.700 C 245.451 341.965,245.107 343.180,245.042 343.400 C 244.917 343.830,243.200 336.720,243.200 335.770 C 243.200 335.401,242.768 335.200,241.973 335.200 C 240.989 335.200,240.789 335.339,240.961 335.900 M144.010 337.900 C 144.730 338.812,144.850 339.390,144.715 341.285 C 144.317 346.841,139.400 346.577,139.400 341.000 C 139.400 337.131,142.015 335.372,144.010 337.900 M300.275 337.114 C 300.872 337.494,301.631 339.436,301.308 339.759 C 300.776 340.291,295.600 340.014,295.600 339.454 C 295.600 337.613,298.655 336.084,300.275 337.114 M106.400 341.613 C 106.400 342.851,105.164 344.794,104.226 345.029 C 101.669 345.671,99.855 343.707,101.415 341.984 C 102.190 341.127,106.400 340.813,106.400 341.613 M262.800 341.613 C 262.800 342.892,261.564 344.794,260.570 345.043 C 258.049 345.676,256.275 343.685,257.830 341.967 C 258.592 341.125,262.800 340.825,262.800 341.613 " stroke="none" fill="#000000" fill-rule="evenodd"></path></g></svg>