<svg id="svg" xmlns="http://www.w3.org/2000/svg" xmlns:xlink="http://www.w3.org/1999/xlink" width="400" height="400" viewBox="0, 0, 400,400"><g id="svgg"><path id="path0" d="M25.497 25.503 L 14.000 37.005 14.000 200.005 L 14.000 363.005 25.503 374.503 L 37.005 386.000 200.005 386.000 L 363.005 386.000 374.503 374.497 L 386.000 362.995 386.000 199.995 L 386.000 36.995 374.497 25.497 L 362.995 14.000 199.995 14.000 L 36.995 14.000 25.497 25.503 M365.896 34.096 L 374.000 42.193 374.000 199.993 L 374.000 357.793 365.904 365.896 L 357.807 374.000 200.007 374.000 L 42.207 374.000 34.104 365.904 L 26.000 357.807 26.000 200.007 L 26.000 42.207 34.096 34.104 L 42.193 26.000 199.993 26.000 L 357.793 26.000 365.896 34.096 M162.000 68.400 L 162.000 84.400 164.200 84.400 L 166.400 84.400 166.432 71.100 L 166.463 57.800 169.072 65.520 L 171.680 73.241 173.509 73.120 L 175.337 73.000 177.969 65.200 L 180.600 57.400 180.705 70.900 L 180.811 84.400 182.805 84.400 L 184.800 84.400 184.800 68.400 L 184.800 52.400 181.852 52.400 L 178.903 52.400 176.185 60.259 L 173.466 68.118 170.924 60.759 C 169.526 56.712,168.301 53.175,168.203 52.900 C 168.082 52.560,167.061 52.400,165.013 52.400 L 162.000 52.400 162.000 68.400 M189.600 68.367 L 189.600 84.400 192.000 84.400 L 194.400 84.400 194.400 77.800 L 194.400 71.200 197.300 71.214 C 201.834 71.236,202.415 71.782,206.011 79.391 L 208.379 84.400 210.789 84.400 C 213.720 84.400,213.786 85.105,210.196 78.018 C 207.457 72.610,205.334 69.614,204.224 69.591 C 203.991 69.586,204.527 69.252,205.417 68.848 C 211.339 66.158,211.188 57.014,205.164 53.600 C 203.503 52.659,202.995 52.592,196.500 52.467 L 189.600 52.334 189.600 68.367 M216.800 68.368 L 216.800 84.400 218.990 84.400 L 221.180 84.400 221.290 78.100 L 221.400 71.800 226.000 71.571 C 234.175 71.165,237.173 68.707,237.189 62.400 C 237.209 54.605,234.622 52.672,223.900 52.469 L 216.800 52.335 216.800 68.368 M201.600 56.563 C 203.570 57.270,204.800 59.236,204.800 61.679 C 204.800 65.695,202.780 67.200,197.392 67.200 L 194.400 67.200 194.400 61.600 L 194.400 56.000 197.300 56.030 C 198.895 56.047,200.830 56.287,201.600 56.563 M229.876 56.990 C 231.798 58.126,232.547 59.826,232.321 62.542 C 231.991 66.527,229.497 68.155,224.090 67.918 L 221.400 67.800 221.288 62.420 C 221.226 59.461,221.274 56.784,221.394 56.472 C 221.729 55.597,228.186 55.992,229.876 56.990 M108.800 176.000 L 108.800 230.800 179.058 230.800 L 249.316 230.800 228.358 210.120 C 216.831 198.745,204.340 186.414,200.600 182.716 L 193.800 175.993 221.400 148.618 L 249.000 121.243 178.900 121.221 L 108.800 121.200 108.800 176.000 M229.200 129.398 C 229.200 129.507,218.715 140.042,205.900 152.808 L 182.600 176.020 206.200 199.402 L 229.800 222.784 173.300 222.792 L 116.800 222.800 116.800 176.000 L 116.800 129.200 173.000 129.200 C 203.910 129.200,229.200 129.289,229.200 129.398 M68.497 135.382 C 62.368 136.776,59.419 141.925,61.834 147.015 C 65.114 153.927,84.922 153.549,87.860 146.519 C 91.232 138.449,80.969 132.545,68.497 135.382 M255.000 137.836 C 221.947 142.475,208.354 179.990,231.382 203.018 C 255.427 227.064,296.546 210.015,296.546 176.000 C 296.546 153.695,276.064 134.880,255.000 137.836 M81.474 139.436 C 84.628 140.305,86.070 142.826,84.787 145.225 C 82.841 148.860,68.021 149.117,65.035 145.568 C 60.834 140.576,71.360 136.649,81.474 139.436 M70.463 141.998 C 66.054 143.040,69.114 145.239,74.877 145.169 C 80.020 145.107,82.953 143.035,79.324 142.028 C 77.585 141.545,72.453 141.528,70.463 141.998 M266.405 146.828 C 284.981 151.976,294.072 172.901,285.167 190.016 C 273.952 211.572,242.841 211.550,231.613 189.977 C 219.476 166.658,241.115 139.820,266.405 146.828 M77.331 157.224 C 72.554 158.151,70.068 161.594,70.491 166.697 L 70.666 168.800 67.733 168.800 L 64.800 168.800 64.800 163.800 L 64.800 158.800 63.200 158.800 L 61.600 158.800 61.600 165.600 L 61.600 172.400 68.200 172.400 C 71.830 172.400,74.797 172.265,74.794 172.100 C 74.791 171.935,74.529 171.080,74.212 170.200 C 72.408 165.192,74.863 160.800,79.467 160.800 C 84.214 160.800,86.376 165.183,84.400 170.800 C 83.377 173.707,83.339 173.600,85.410 173.600 C 87.632 173.600,87.980 172.945,88.286 168.200 C 88.795 160.306,84.358 155.860,77.331 157.224 M76.600 178.350 C 70.909 179.851,68.408 186.296,71.904 190.450 L 72.975 191.724 71.132 191.516 C 65.630 190.896,62.891 186.386,64.980 181.387 L 65.559 180.000 63.811 180.000 C 59.759 180.000,60.147 189.659,64.314 192.537 C 71.028 197.174,85.105 195.819,87.613 190.295 C 90.843 183.179,84.475 176.272,76.600 178.350 M82.981 182.566 C 85.869 183.773,86.227 188.130,83.590 190.007 C 78.617 193.548,71.356 188.941,74.031 183.941 C 74.992 182.147,80.099 181.362,82.981 182.566 M84.800 202.600 L 84.800 205.200 73.200 205.200 L 61.600 205.200 61.630 207.300 L 61.659 209.400 65.010 212.327 L 68.360 215.253 69.580 214.351 C 71.142 213.196,71.176 213.323,68.708 211.113 L 66.600 209.225 75.700 209.213 L 84.800 209.200 84.800 212.024 L 84.800 214.848 86.300 214.724 L 87.800 214.600 87.909 207.300 L 88.018 200.000 86.409 200.000 L 84.800 200.000 84.800 202.600 M109.600 285.059 C 107.296 285.405,103.625 286.097,101.100 286.661 L 98.400 287.264 98.400 291.075 C 98.400 294.541,98.463 294.861,99.100 294.614 C 111.180 289.935,122.443 291.513,123.754 298.068 C 125.290 305.748,121.470 309.313,111.109 309.870 L 106.400 310.123 106.400 313.201 L 106.400 316.278 111.300 316.526 C 120.314 316.982,124.050 319.360,125.156 325.343 C 127.291 336.896,114.317 342.430,100.153 336.008 C 96.283 334.253,96.400 334.167,96.400 338.742 L 96.400 342.683 99.300 343.518 C 119.758 349.405,134.865 341.970,133.447 326.713 C 132.896 320.787,130.398 317.031,125.350 314.536 L 122.351 313.054 124.462 312.267 C 132.780 309.164,134.762 296.973,128.061 290.128 C 124.280 286.266,116.248 284.061,109.600 285.059 M279.919 285.232 C 277.029 285.656,273.592 286.646,270.900 287.832 L 268.800 288.756 268.800 292.778 C 268.800 294.990,268.913 296.800,269.051 296.800 C 269.190 296.800,270.228 296.270,271.360 295.623 C 289.121 285.461,302.370 297.163,290.788 312.783 C 288.489 315.884,283.677 321.273,273.915 331.678 L 268.400 337.556 268.400 340.978 L 268.400 344.400 286.200 344.400 L 304.000 344.400 304.000 341.005 L 304.000 337.611 290.616 337.505 L 277.232 337.400 285.798 328.486 C 299.290 314.445,302.354 310.165,303.303 304.037 C 305.234 291.565,294.670 283.069,279.919 285.232 M230.227 293.448 C 222.563 302.061,223.063 300.913,225.633 304.002 C 228.089 306.952,227.398 307.220,232.603 301.300 C 234.972 298.605,236.976 296.400,237.056 296.400 C 237.135 296.400,237.200 305.670,237.200 317.000 L 237.200 337.600 231.000 337.600 L 224.800 337.600 224.800 341.000 L 224.800 344.400 241.000 344.400 L 257.200 344.400 257.200 341.000 L 257.200 337.600 251.200 337.600 L 245.200 337.600 245.200 311.800 L 245.200 286.000 241.027 286.000 L 236.854 286.000 230.227 293.448 " stroke="none" fill="#000000" fill-rule="evenodd"></path></g></svg>