<svg id="svg" version="1.1" xmlns="http://www.w3.org/2000/svg" xmlns:xlink="http://www.w3.org/1999/xlink" width="400" height="400" viewBox="0, 0, 400,400"><g id="svgg"><path id="path0" d="M25.497 25.503 L 14.000 37.005 14.000 200.005 L 14.000 363.005 25.503 374.503 L 37.005 386.000 200.005 386.000 L 363.005 386.000 374.503 374.497 L 386.000 362.995 386.000 199.995 L 386.000 36.995 374.497 25.497 L 362.995 14.000 199.995 14.000 L 36.995 14.000 25.497 25.503 M365.896 34.096 L 374.000 42.193 374.000 199.993 L 374.000 357.793 365.904 365.896 L 357.807 374.000 200.007 374.000 L 42.207 374.000 34.104 365.904 L 26.000 357.807 26.000 200.007 L 26.000 42.207 34.096 34.104 L 42.193 26.000 199.993 26.000 L 357.793 26.000 365.896 34.096 M219.618 105.637 C 210.782 107.369,205.872 115.358,204.706 129.900 C 202.697 154.961,211.658 168.699,227.992 165.602 C 238.918 163.529,243.368 154.847,243.368 135.600 C 243.368 112.487,235.474 102.529,219.618 105.637 M157.200 135.614 L 157.200 164.829 161.100 164.714 L 165.000 164.600 165.200 141.471 L 165.400 118.341 174.875 141.471 L 184.349 164.600 189.575 164.712 L 194.800 164.823 194.800 135.612 L 194.800 106.400 190.803 106.400 L 186.806 106.400 186.703 129.779 L 186.600 153.159 177.027 129.779 L 167.455 106.400 162.327 106.400 L 157.200 106.400 157.200 135.614 M227.713 112.539 C 232.678 114.620,234.709 120.198,235.090 132.800 C 235.636 150.811,232.602 158.527,224.742 159.120 C 216.540 159.738,213.087 152.840,213.068 135.800 C 213.053 121.718,215.108 115.057,220.178 112.754 C 222.113 111.875,225.872 111.768,227.713 112.539 M79.600 201.734 C 79.600 202.028,81.490 214.919,83.800 230.381 C 86.110 245.843,88.000 258.742,88.000 259.047 C 88.000 260.145,95.864 259.810,96.126 258.700 C 96.244 258.205,97.903 250.870,99.815 242.400 C 101.727 233.930,103.416 226.863,103.569 226.696 C 103.722 226.529,105.547 233.863,107.624 242.993 L 111.400 259.594 115.264 259.597 L 119.128 259.600 119.567 256.900 C 119.809 255.415,121.715 242.680,123.802 228.600 C 125.888 214.520,127.690 202.595,127.806 202.100 C 128.012 201.213,127.958 201.200,124.039 201.200 L 120.064 201.200 119.845 202.300 C 119.725 202.905,118.527 212.940,117.184 224.600 C 115.841 236.260,114.644 246.070,114.524 246.400 C 114.329 246.938,113.385 242.847,109.149 223.100 L 107.884 217.200 103.616 217.200 L 99.349 217.200 96.184 232.262 C 93.705 244.062,92.962 247.028,92.754 245.962 C 92.608 245.213,91.348 234.835,89.954 222.900 L 87.420 201.200 83.510 201.200 C 80.514 201.200,79.600 201.325,79.600 201.734 M146.650 201.900 C 146.538 202.285,142.566 215.300,137.823 230.822 C 133.080 246.344,129.200 259.169,129.200 259.322 C 129.200 259.475,131.069 259.600,133.353 259.600 L 137.506 259.600 139.621 252.000 L 141.736 244.400 151.811 244.400 L 161.886 244.400 164.010 252.000 L 166.134 259.600 170.267 259.600 C 172.712 259.600,174.400 259.439,174.400 259.206 C 174.400 258.888,168.393 239.116,157.962 205.100 L 156.766 201.200 151.810 201.200 C 147.434 201.200,146.830 201.282,146.650 201.900 M177.600 204.600 L 177.600 208.000 186.800 208.000 L 196.000 208.000 196.000 233.800 L 196.000 259.600 200.000 259.600 L 204.000 259.600 204.000 233.800 L 204.000 208.000 213.200 208.000 L 222.400 208.000 222.400 204.600 L 222.400 201.200 200.000 201.200 L 177.600 201.200 177.600 204.600 M231.600 230.400 L 231.600 259.600 249.400 259.600 L 267.200 259.600 267.200 256.200 L 267.200 252.800 253.400 252.800 L 239.600 252.800 239.600 242.400 L 239.600 232.000 252.400 232.000 L 265.200 232.000 265.200 228.606 L 265.200 225.211 252.500 225.106 L 239.800 225.000 239.692 216.500 L 239.584 208.000 252.992 208.000 L 266.400 208.000 266.400 204.600 L 266.400 201.200 249.000 201.200 L 231.600 201.200 231.600 230.400 M277.600 230.400 L 277.600 259.600 281.800 259.600 L 286.000 259.600 286.000 247.400 L 286.000 235.200 291.100 235.209 C 300.151 235.224,301.054 236.231,310.395 256.700 L 311.718 259.600 316.059 259.600 C 318.447 259.600,320.400 259.498,320.400 259.373 C 320.400 259.248,317.963 254.310,314.985 248.400 C 309.205 236.928,307.285 234.136,304.241 232.773 L 302.664 232.067 304.432 231.601 C 316.796 228.339,317.451 208.866,305.382 203.340 C 301.503 201.564,298.603 201.214,287.700 201.207 L 277.600 201.200 277.600 230.400 M300.285 209.106 C 305.173 211.702,306.902 218.120,304.158 223.485 C 302.243 227.229,300.144 228.077,292.196 228.319 L 286.000 228.507 286.000 218.218 L 286.000 207.930 292.300 208.070 C 297.893 208.195,298.789 208.312,300.285 209.106 M155.972 223.656 L 159.897 237.800 155.970 237.914 C 153.811 237.976,150.171 237.976,147.883 237.914 L 143.723 237.800 145.446 231.600 C 150.344 213.976,151.727 209.193,151.879 209.345 C 151.971 209.437,153.812 215.877,155.972 223.656 " stroke="none" fill="#000000" fill-rule="evenodd"></path></g></svg>