<svg id="eDKy2fiSdvH1" xmlns="http://www.w3.org/2000/svg" xmlns:xlink="http://www.w3.org/1999/xlink" viewBox="0 0 500 500" shape-rendering="geometricPrecision" text-rendering="geometricPrecision"><style><![CDATA[#eDKy2fiSdvH2 {animation: eDKy2fiSdvH2_c_o 300ms linear infinite normal forwards}@keyframes eDKy2fiSdvH2_c_o { 0% {opacity: 0} 16.666667% {opacity: 1} 33.333333% {opacity: 0} 100% {opacity: 0}} #eDKy2fiSdvH3 {animation: eDKy2fiSdvH3_c_o 300ms linear infinite normal forwards}@keyframes eDKy2fiSdvH3_c_o { 0% {opacity: 0} 16.666667% {opacity: 0} 33.333333% {opacity: 1} 50% {opacity: 0} 100% {opacity: 0}} #eDKy2fiSdvH4 {animation: eDKy2fiSdvH4_c_o 300ms linear infinite normal forwards}@keyframes eDKy2fiSdvH4_c_o { 0% {opacity: 1} 16.666667% {opacity: 0} 86.666667% {opacity: 0} 100% {opacity: 1}} #eDKy2fiSdvH5 {animation: eDKy2fiSdvH5_c_o 300ms linear infinite normal forwards}@keyframes eDKy2fiSdvH5_c_o { 0% {opacity: 0} 33.333333% {opacity: 0} 50% {opacity: 1} 66.666667% {opacity: 0} 100% {opacity: 0}} #eDKy2fiSdvH6 {animation: eDKy2fiSdvH6_c_o 300ms linear infinite normal forwards}@keyframes eDKy2fiSdvH6_c_o { 0% {opacity: 0} 66.666667% {opacity: 0} 83.333333% {opacity: 1} 100% {opacity: 0}} #eDKy2fiSdvH7 {animation: eDKy2fiSdvH7_c_o 300ms linear infinite normal forwards}@keyframes eDKy2fiSdvH7_c_o { 0% {opacity: 0} 50% {opacity: 0} 66.666667% {opacity: 1} 83.333333% {opacity: 0} 100% {opacity: 0}} #eDKy2fiSdvH8 {animation: eDKy2fiSdvH8_c_o 300ms linear infinite normal forwards}@keyframes eDKy2fiSdvH8_c_o { 0% {opacity: 1} 16.666667% {opacity: 0} 83.333333% {opacity: 0} 100% {opacity: 1}} #eDKy2fiSdvH15 {animation: eDKy2fiSdvH15_c_o 300ms linear infinite normal forwards}@keyframes eDKy2fiSdvH15_c_o { 0% {opacity: 0} 16.666667% {opacity: 1} 33.333333% {opacity: 0} 100% {opacity: 0}} #eDKy2fiSdvH22 {animation: eDKy2fiSdvH22_c_o 300ms linear infinite normal forwards}@keyframes eDKy2fiSdvH22_c_o { 0% {opacity: 0} 16.666667% {opacity: 0} 33.333333% {opacity: 1} 50% {opacity: 0} 100% {opacity: 0}} #eDKy2fiSdvH30 {animation: eDKy2fiSdvH30_c_o 300ms linear infinite normal forwards}@keyframes eDKy2fiSdvH30_c_o { 0% {opacity: 0} 33.333333% {opacity: 0} 50% {opacity: 1} 66.666667% {opacity: 0} 100% {opacity: 0}} #eDKy2fiSdvH37 {animation: eDKy2fiSdvH37_c_o 300ms linear infinite normal forwards}@keyframes eDKy2fiSdvH37_c_o { 0% {opacity: 0} 50% {opacity: 0} 66.666667% {opacity: 1} 83.333333% {opacity: 0} 100% {opacity: 0}} #eDKy2fiSdvH44 {animation: eDKy2fiSdvH44_c_o 300ms linear infinite normal forwards}@keyframes eDKy2fiSdvH44_c_o { 0% {opacity: 0} 66.666667% {opacity: 0} 83.333333% {opacity: 1} 100% {opacity: 0}}]]></style><path id="eDKy2fiSdvH2" d="M93.444918,394.840591L33.62455,244.740636L39.521432,211.981346L121.896069,28.529319L145.240604,22.705444L346.587211,55.464733Q367.031195,69.296433,367.743195,69.296433C368.455195,69.296433,474.553981,192.325778,474.553981,192.325778L483.809993,221.445143L373.579326,451.48815L334.914942,462.407915L121.896069,408.368607L93.444918,394.840591Z" transform="matrix(0.993312 0 0 0.995403 1.745258 -3.76049)" opacity="0" fill="none" stroke="rgb(0,0,0)" stroke-width="15" stroke-miterlimit="1"/><path id="eDKy2fiSdvH3" d="M267.069891,462.407918L80.313618,426.736697L50.201444,401.257245L22.6818,186.501902L39.521432,148.64672L180.986922,44.544969Q215.291723,33.144133,216.003723,33.144133C216.715723,33.144133,414.432261,78.712189,414.432261,78.712189L436.317763,115.159436L481.67399,312.443175L469.87553,348.114395L303.545724,456.584045L267.069891,462.407918Z" transform="matrix(0.993312 0 0 0.995403 1.745258 -3.76049)" opacity="0" fill="none" stroke="rgb(0,0,0)" stroke-width="15" stroke-miterlimit="1"/><path id="eDKy2fiSdvH4" d="M39.521431,390.568588L38.097429,140.656273L63.017461,107.192224L238.881683,33.144137L262.377713,32.432135L474.553981,78.712192Q483.097993,92.952209,483.809993,92.952209C484.521993,92.952209,481.67399,374.904565,481.67399,374.904565L475.265982,394.840591L290.145748,472.448686L250,477.432694L50.201445,408.368607L39.521431,390.568588Z" transform="matrix(0.993312 0 0 0.995403 1.745258 -3.76049)" fill="none" stroke="rgb(0,0,0)" stroke-width="15" stroke-miterlimit="1"/><path id="eDKy2fiSdvH5" d="M294.565217,488.405797L334.420289,466.51635L480.197813,225.36232L482.359246,166.666668L252.236588,10.869565L169.202899,18.840577L9.057971,286.231885L14.130436,326.086957L294.565217,488.405797Z" opacity="0" fill="none" stroke="rgb(0,0,0)" stroke-width="15" stroke-miterlimit="1"/><path id="eDKy2fiSdvH6" d="M453.985507,395.652176L480.197813,363.043477L413.405796,34.782607L372.826086,18.840576L51.610955,51.449272L19.927536,82.608696L69.927535,466.51635L122.826087,471.477446L453.985507,395.652176Z" opacity="0" fill="none" stroke="rgb(0,0,0)" stroke-width="15" stroke-miterlimit="1"/><path id="eDKy2fiSdvH7" d="M93.444918,394.840591L33.62455,244.740636L39.521432,211.981346L121.896069,28.529319L145.240604,22.705444L346.587211,55.464733Q367.031195,69.296433,367.743195,69.296433C368.455195,69.296433,474.553981,192.325778,474.553981,192.325778L483.809993,221.445143L373.579326,451.48815L334.914942,462.407915L121.896069,408.368607L93.444918,394.840591Z" transform="matrix(0.993312 0 0 0.995403 1.745258 -3.76049)" opacity="0" fill="none" stroke="rgb(0,0,0)" stroke-width="15" stroke-miterlimit="1"/><g id="eDKy2fiSdvH8" transform="matrix(1 0 0 1 0 0.000001)"><ellipse id="eDKy2fiSdvH9" rx="16.304348" ry="32.608696" transform="matrix(1.424189 -0.051517 0.042064 1.162866 108.159427 192.753624)" fill="rgb(0,4,12)" stroke="none" stroke-width="0" stroke-miterlimit="1"/><ellipse id="eDKy2fiSdvH10" rx="16.304348" ry="32.608696" transform="matrix(1.424189 -0.051517 0.042064 1.162866 110.902748 331.784016)" fill="rgb(0,4,12)" stroke="none" stroke-width="0" stroke-miterlimit="1"/><ellipse id="eDKy2fiSdvH11" rx="16.304348" ry="32.608696" transform="matrix(1.424189 -0.051517 0.042064 1.162866 210.478573 206.399501)" fill="rgb(0,4,12)" stroke="none" stroke-width="0" stroke-miterlimit="1"/><ellipse id="eDKy2fiSdvH12" rx="16.304348" ry="32.608696" transform="matrix(1.424189 -0.051517 0.042064 1.162866 207.735252 357.642021)" fill="rgb(0,4,12)" stroke="none" stroke-width="0" stroke-miterlimit="1"/><ellipse id="eDKy2fiSdvH13" rx="16.304348" ry="32.608696" transform="matrix(-0.028686 0.8559 -1.113271 -0.037312 258.291164 98.369132)" fill="rgb(0,4,12)" stroke="none" stroke-width="0" stroke-miterlimit="1"/><ellipse id="eDKy2fiSdvH14" rx="16.304348" ry="32.608696" transform="matrix(-0.087581 2.613177 -0.526504 -0.017646 396.382161 268.45898)" fill="rgb(0,4,12)" stroke="none" stroke-width="0" stroke-miterlimit="1"/></g><g id="eDKy2fiSdvH15" transform="matrix(1 0 0 1 0 0.000001)" opacity="0"><ellipse id="eDKy2fiSdvH16" rx="16.304348" ry="32.608696" transform="matrix(1.328109 0.516812 -0.421983 1.084416 136.341274 99.585815)" fill="rgb(0,4,12)" stroke="none" stroke-width="0" stroke-miterlimit="1"/><ellipse id="eDKy2fiSdvH17" rx="16.304348" ry="32.608696" transform="matrix(2.494628 0.087105 0.013335 -0.381912 216.715339 64.22442)" fill="rgb(0,4,12)" stroke="none" stroke-width="0" stroke-miterlimit="1"/><ellipse id="eDKy2fiSdvH18" rx="16.304348" ry="32.608696" transform="matrix(0.076111 -0.832582 1.292147 0.118122 296.131782 115.795644)" fill="rgb(0,4,12)" stroke="none" stroke-width="0" stroke-miterlimit="1"/><ellipse id="eDKy2fiSdvH19" rx="16.304348" ry="32.608696" transform="matrix(1.353798 0.445194 -0.363506 1.105392 134.853277 306.860884)" fill="rgb(0,4,12)" stroke="none" stroke-width="0" stroke-miterlimit="1"/><ellipse id="eDKy2fiSdvH20" rx="16.304348" ry="32.608696" transform="matrix(-0.028686 0.8559 -1.113271 -0.037312 394.954204 174.374715)" fill="rgb(0,4,12)" stroke="none" stroke-width="0" stroke-miterlimit="1"/><ellipse id="eDKy2fiSdvH21" rx="16.304348" ry="32.608696" transform="matrix(-1.146103 1.858864 -0.79587 -0.490702 303.397593 312.173257)" fill="rgb(0,4,12)" stroke="none" stroke-width="0" stroke-miterlimit="1"/></g><g id="eDKy2fiSdvH22" transform="matrix(1 0 0 1 0 0.000001)" opacity="0"><ellipse id="eDKy2fiSdvH23" rx="16.304348" ry="32.608696" transform="matrix(0.191145 -1.412243 1.153113 0.156072 210.478573 111.107348)" fill="rgb(0,4,12)" stroke="none" stroke-width="0" stroke-miterlimit="1"/><ellipse id="eDKy2fiSdvH24" rx="16.304348" ry="32.608696" transform="matrix(1.386416 -0.329873 0.269346 1.132025 261.958462 215.420426)" fill="rgb(0,4,12)" stroke="none" stroke-width="0" stroke-miterlimit="1"/><ellipse id="eDKy2fiSdvH25" rx="16.304348" ry="32.608696" transform="matrix(0.721756 2.389523 0.571017 -0.172476 392.012552 160.975711)" fill="rgb(0,4,12)" stroke="none" stroke-width="0" stroke-miterlimit="1"/><ellipse id="eDKy2fiSdvH26" rx="16.304348" ry="32.608696" transform="matrix(1.429466 -0.56152 0.474406 1.207699 430.788815 289.434372)" fill="rgb(0,4,12)" stroke="none" stroke-width="0" stroke-miterlimit="1"/><ellipse id="eDKy2fiSdvH27" rx="16.304348" ry="32.608696" transform="matrix(1.366737 -0.40373 0.32965 1.115956 342.014102 248.531984)" fill="rgb(0,4,12)" stroke="none" stroke-width="0" stroke-miterlimit="1"/><ellipse id="eDKy2fiSdvH28" rx="16.304348" ry="32.608696" transform="matrix(-1.340922 0.536539 -0.413804 -1.034181 313.05084 367.084761)" fill="rgb(0,4,12)" stroke="none" stroke-width="0" stroke-miterlimit="1"/><ellipse id="eDKy2fiSdvH29" rx="16.304348" ry="32.608696" transform="matrix(0.241765 2.170363 -0.929238 0.103511 157.242861 306.645293)" fill="rgb(0,4,12)" stroke="none" stroke-width="0" stroke-miterlimit="1"/></g><g id="eDKy2fiSdvH30" transform="matrix(1 0 0 1 0 0.000001)" opacity="0"><ellipse id="eDKy2fiSdvH31" rx="16.304348" ry="32.608696" transform="matrix(1.152177 -1.852029 0.875422 0.544614 216.111386 95.418216)" fill="rgb(0,4,12)" stroke="none" stroke-width="0" stroke-miterlimit="1"/><ellipse id="eDKy2fiSdvH32" rx="16.304348" ry="32.608696" transform="matrix(1.863358 1.217253 -0.636392 0.974183 150.873314 186.067806)" fill="rgb(0,4,12)" stroke="none" stroke-width="0" stroke-miterlimit="1"/><ellipse id="eDKy2fiSdvH33" rx="16.304348" ry="32.608696" transform="matrix(-1.673753 1.851839 0.812853 0.734684 410.63268 217.834644)" fill="rgb(0,4,12)" stroke="none" stroke-width="0" stroke-miterlimit="1"/><ellipse id="eDKy2fiSdvH34" rx="16.304348" ry="32.608696" transform="matrix(1.848186 1.348318 -0.764724 1.048234 346.063103 294.704409)" fill="rgb(0,4,12)" stroke="none" stroke-width="0" stroke-miterlimit="1"/><ellipse id="eDKy2fiSdvH35" rx="16.304348" ry="32.608696" transform="matrix(1.720334 1.365514 -0.723433 0.911413 290.992976 390.640057)" fill="rgb(0,4,12)" stroke="none" stroke-width="0" stroke-miterlimit="1"/><ellipse id="eDKy2fiSdvH36" rx="16.304348" ry="32.608696" transform="matrix(-1.417874 1.660891 -0.832973 -0.711095 90.03546 276.708429)" fill="rgb(0,4,12)" stroke="none" stroke-width="0" stroke-miterlimit="1"/></g><g id="eDKy2fiSdvH37" transform="matrix(1 0 0 1 0 0.000001)" opacity="0"><ellipse id="eDKy2fiSdvH38" rx="16.304348" ry="32.608696" transform="matrix(1.328109 0.516812 -0.421983 1.084416 136.341274 99.585815)" fill="rgb(0,4,12)" stroke="none" stroke-width="0" stroke-miterlimit="1"/><ellipse id="eDKy2fiSdvH39" rx="16.304348" ry="32.608696" transform="matrix(1.958664 0.068391 0.030697 -0.87914 272.28958 225.331853)" fill="rgb(0,4,12)" stroke="none" stroke-width="0" stroke-miterlimit="1"/><ellipse id="eDKy2fiSdvH40" rx="16.304348" ry="32.608696" transform="matrix(0.076111 -0.832582 1.292147 0.118122 296.131782 115.795644)" fill="rgb(0,4,12)" stroke="none" stroke-width="0" stroke-miterlimit="1"/><ellipse id="eDKy2fiSdvH41" rx="16.304348" ry="32.608696" transform="matrix(1.353798 0.445194 -0.363506 1.105392 134.853277 306.860884)" fill="rgb(0,4,12)" stroke="none" stroke-width="0" stroke-miterlimit="1"/><ellipse id="eDKy2fiSdvH42" rx="16.304348" ry="32.608696" transform="matrix(-0.059344 1.770657 -0.871759 -0.029217 337.026082 394.721628)" fill="rgb(0,4,12)" stroke="none" stroke-width="0" stroke-miterlimit="1"/><ellipse id="eDKy2fiSdvH43" rx="16.304348" ry="32.608696" transform="matrix(-1.146103 1.858864 -0.79587 -0.490702 303.397593 312.173257)" fill="rgb(0,4,12)" stroke="none" stroke-width="0" stroke-miterlimit="1"/></g><g id="eDKy2fiSdvH44" transform="matrix(1 0 0 1 0 0.000001)" opacity="0"><ellipse id="eDKy2fiSdvH45" rx="16.304348" ry="32.608696" transform="matrix(-0.122658 -2.3788 1.165284 -0.060086 337.026082 93.170958)" fill="rgb(0,4,12)" stroke="none" stroke-width="0" stroke-miterlimit="1"/><ellipse id="eDKy2fiSdvH46" rx="16.304348" ry="32.608696" transform="matrix(1.863358 1.217253 -0.636392 0.974183 99.74055 126.893215)" fill="rgb(0,4,12)" stroke="none" stroke-width="0" stroke-miterlimit="1"/><ellipse id="eDKy2fiSdvH47" rx="16.304348" ry="32.608696" transform="matrix(0.704481 2.394674 1.051127 -0.309228 364.803898 207.239453)" fill="rgb(0,4,12)" stroke="none" stroke-width="0" stroke-miterlimit="1"/><ellipse id="eDKy2fiSdvH48" rx="16.304348" ry="32.608696" transform="matrix(2.177988 -0.700086 0.397067 1.235287 385.160193 326.479661)" fill="rgb(0,4,12)" stroke="none" stroke-width="0" stroke-miterlimit="1"/><ellipse id="eDKy2fiSdvH49" rx="16.304348" ry="32.608696" transform="matrix(1.720334 1.365514 -0.723433 0.911413 106.787767 250.052888)" fill="rgb(0,4,12)" stroke="none" stroke-width="0" stroke-miterlimit="1"/><ellipse id="eDKy2fiSdvH50" rx="16.304348" ry="32.608696" transform="matrix(-1.417874 1.660891 -0.832973 -0.711095 130.97447 374.276147)" fill="rgb(0,4,12)" stroke="none" stroke-width="0" stroke-miterlimit="1"/></g></svg>