<svg id="e0CY4E93g7q1" xmlns="http://www.w3.org/2000/svg" xmlns:xlink="http://www.w3.org/1999/xlink" viewBox="0 0 500 500" shape-rendering="geometricPrecision" text-rendering="geometricPrecision"><style><![CDATA[#e0CY4E93g7q2 {animation: e0CY4E93g7q2_c_o 300ms linear infinite normal forwards}@keyframes e0CY4E93g7q2_c_o { 0% {opacity: 0} 16.666667% {opacity: 1} 33.333333% {opacity: 0} 100% {opacity: 0}} #e0CY4E93g7q3 {animation: e0CY4E93g7q3_c_o 300ms linear infinite normal forwards}@keyframes e0CY4E93g7q3_c_o { 0% {opacity: 0} 16.666667% {opacity: 0} 33.333333% {opacity: 1} 50% {opacity: 0} 100% {opacity: 0}} #e0CY4E93g7q4 {animation: e0CY4E93g7q4_c_o 300ms linear infinite normal forwards}@keyframes e0CY4E93g7q4_c_o { 0% {opacity: 1} 16.666667% {opacity: 0} 86.666667% {opacity: 0} 100% {opacity: 1}} #e0CY4E93g7q5 {animation: e0CY4E93g7q5_c_o 300ms linear infinite normal forwards}@keyframes e0CY4E93g7q5_c_o { 0% {opacity: 0} 33.333333% {opacity: 0} 50% {opacity: 1} 66.666667% {opacity: 0} 100% {opacity: 0}} #e0CY4E93g7q6 {animation: e0CY4E93g7q6_c_o 300ms linear infinite normal forwards}@keyframes e0CY4E93g7q6_c_o { 0% {opacity: 0} 66.666667% {opacity: 0} 83.333333% {opacity: 1} 100% {opacity: 0}} #e0CY4E93g7q7 {animation: e0CY4E93g7q7_c_o 300ms linear infinite normal forwards}@keyframes e0CY4E93g7q7_c_o { 0% {opacity: 0} 50% {opacity: 0} 66.666667% {opacity: 1} 83.333333% {opacity: 0} 100% {opacity: 0}} #e0CY4E93g7q8 {animation: e0CY4E93g7q8_c_o 300ms linear infinite normal forwards}@keyframes e0CY4E93g7q8_c_o { 0% {opacity: 1} 16.666667% {opacity: 0} 83.333333% {opacity: 0} 100% {opacity: 1}} #e0CY4E93g7q15 {animation: e0CY4E93g7q15_c_o 300ms linear infinite normal forwards}@keyframes e0CY4E93g7q15_c_o { 0% {opacity: 0} 16.666667% {opacity: 1} 33.333333% {opacity: 0} 100% {opacity: 0}} #e0CY4E93g7q22 {animation: e0CY4E93g7q22_c_o 300ms linear infinite normal forwards}@keyframes e0CY4E93g7q22_c_o { 0% {opacity: 0} 16.666667% {opacity: 0} 33.333333% {opacity: 1} 50% {opacity: 0} 100% {opacity: 0}} #e0CY4E93g7q30 {animation: e0CY4E93g7q30_c_o 300ms linear infinite normal forwards}@keyframes e0CY4E93g7q30_c_o { 0% {opacity: 0} 33.333333% {opacity: 0} 50% {opacity: 1} 66.666667% {opacity: 0} 100% {opacity: 0}} #e0CY4E93g7q37 {animation: e0CY4E93g7q37_c_o 300ms linear infinite normal forwards}@keyframes e0CY4E93g7q37_c_o { 0% {opacity: 0} 50% {opacity: 0} 66.666667% {opacity: 1} 83.333333% {opacity: 0} 100% {opacity: 0}} #e0CY4E93g7q44 {animation: e0CY4E93g7q44_c_o 300ms linear infinite normal forwards}@keyframes e0CY4E93g7q44_c_o { 0% {opacity: 0} 66.666667% {opacity: 0} 83.333333% {opacity: 1} 100% {opacity: 0}}]]></style><path id="e0CY4E93g7q2" d="M68.641351,408.368607L-1.757008,248.583335L5.648948,201.350334L110.238512,9.689906L152.576208,9.689906L346.587211,55.464733Q367.031195,69.296433,367.743195,69.296433C368.455195,69.296433,483.849976,177.735574,483.849976,177.735574L491.643894,220.193145L384.523493,487.476762L330.786454,494.439224L102.754267,430.282266L68.641351,408.368607Z" transform="matrix(0.993312 0 0 0.995403 1.745258 -3.76049)" opacity="0" fill="none" stroke="rgb(0,0,0)" stroke-width="15" stroke-miterlimit="1"/><path id="e0CY4E93g7q3" d="M267.446197,487.476762L80.313618,426.736697L50.201444,401.257245L22.6818,186.501902L39.521432,148.64672L168.158923,9.689905Q215.70548,9.689905,216.41748,9.689905C217.12948,9.689905,436.317762,66.872132,436.317762,66.872132L470.969664,106.470869L481.67399,312.443175L469.87553,348.114395L322.495644,477.432695L267.446197,487.476762Z" transform="matrix(0.993312 0 0 0.995403 1.745258 -3.76049)" opacity="0" fill="none" stroke="rgb(0,0,0)" stroke-width="15" stroke-miterlimit="1"/><path id="e0CY4E93g7q4" d="M12.468567,400.422314L12.468566,137.400047L30.098961,102.436029L238.881683,34.201187L262.377713,33.489185L474.553981,79.769242Q483.097993,94.009259,483.809993,94.009259C484.521993,94.009259,481.67399,375.961615,481.67399,375.961615L475.265982,395.897641L290.145748,473.505736L250,478.489744L30.098961,431.339316L12.468567,400.422314Z" transform="matrix(0.993312 0 0 0.995403 1.745258 -3.76049)" fill="none" stroke="rgb(0,0,0)" stroke-width="15" stroke-miterlimit="1"/><path id="e0CY4E93g7q5" d="M294.565217,488.405797L334.420289,466.51635L480.197813,225.36232L482.359246,166.666668L252.236588,10.869565L169.202899,18.840577L9.057971,286.231885L14.130436,326.086957L294.565217,488.405797Z" opacity="0" fill="none" stroke="rgb(0,0,0)" stroke-width="15" stroke-miterlimit="1"/><path id="e0CY4E93g7q6" d="M446.258561,420.360031L489.260047,378.175223L413.405796,34.782607L367.028987,10.869565L51.610955,51.449272L9.057971,82.981224L57.998476,471.477446L122.826087,471.477446L446.258561,420.360031Z" transform="matrix(1 0 0 1 0.840991 0)" opacity="0" fill="none" stroke="rgb(0,0,0)" stroke-width="15" stroke-miterlimit="1"/><path id="e0CY4E93g7q7" d="M78.45563,421.104567L5.648948,281.764191L5.648949,233.209897L112.157831,9.689907L163.638883,8.632855L346.587211,55.464733Q367.031195,69.296433,367.743195,69.296433C368.455195,69.296433,492.915791,194.199522,492.915791,194.199522L492.915791,243.418912L373.579326,451.48815L334.914942,462.407915L106.82615,448.354118Q85.325565,426.079206,78.45563,421.104567Z" transform="matrix(0.993312 0 0 0.995403 1.745258 -3.76049)" opacity="0" fill="none" stroke="rgb(0,0,0)" stroke-width="15" stroke-miterlimit="1"/><g id="e0CY4E93g7q8" transform="matrix(1 0 0 1 0 0.000001)"><ellipse id="e0CY4E93g7q9" rx="16.304348" ry="32.608696" transform="matrix(1.899374 -0.068706 0.051403 1.421034 76.334893 182.039288)" fill="rgb(0,4,12)" stroke="none" stroke-width="0" stroke-miterlimit="1"/><ellipse id="e0CY4E93g7q10" rx="16.304348" ry="32.608696" transform="matrix(1.748104 -0.063234 0.053316 1.473932 59.737053 368.376247)" fill="rgb(0,4,12)" stroke="none" stroke-width="0" stroke-miterlimit="1"/><ellipse id="e0CY4E93g7q11" rx="16.304348" ry="32.608696" transform="matrix(1.769796 -0.064019 0.054832 1.515831 210.478573 206.399501)" fill="rgb(0,4,12)" stroke="none" stroke-width="0" stroke-miterlimit="1"/><ellipse id="e0CY4E93g7q12" rx="16.304348" ry="32.608696" transform="matrix(1.835109 -0.066381 0.06156 1.701826 196.217366 385.955916)" fill="rgb(0,4,12)" stroke="none" stroke-width="0" stroke-miterlimit="1"/><ellipse id="e0CY4E93g7q13" rx="16.304348" ry="32.608696" transform="matrix(-0.028686 0.8559 -1.113271 -0.037312 258.291164 98.369132)" fill="rgb(0,4,12)" stroke="none" stroke-width="0" stroke-miterlimit="1"/><ellipse id="e0CY4E93g7q14" rx="16.304348" ry="32.608696" transform="matrix(-0.109359 3.262957 -0.84669 -0.028377 372.212347 271.738895)" fill="rgb(0,4,12)" stroke="none" stroke-width="0" stroke-miterlimit="1"/></g><g id="e0CY4E93g7q15" transform="matrix(1 0 0 1 0 0.000001)" opacity="0"><ellipse id="e0CY4E93g7q16" rx="16.304348" ry="32.608696" transform="matrix(1.556926 0.605852 -0.477033 1.225884 122.419609 84.728538)" fill="rgb(0,4,12)" stroke="none" stroke-width="0" stroke-miterlimit="1"/><ellipse id="e0CY4E93g7q17" rx="16.304348" ry="32.608696" transform="matrix(2.869505 0.100195 0.021065 -0.603279 216.715339 64.22442)" fill="rgb(0,4,12)" stroke="none" stroke-width="0" stroke-miterlimit="1"/><ellipse id="e0CY4E93g7q18" rx="16.304348" ry="32.608696" transform="matrix(0.112118 -1.226466 1.47623 0.13495 296.131782 115.795644)" fill="rgb(0,4,12)" stroke="none" stroke-width="0" stroke-miterlimit="1"/><ellipse id="e0CY4E93g7q19" rx="16.304348" ry="32.608696" transform="matrix(1.943503 0.639118 -0.511617 1.555785 134.853277 306.860884)" fill="rgb(0,4,12)" stroke="none" stroke-width="0" stroke-miterlimit="1"/><ellipse id="e0CY4E93g7q20" rx="16.304348" ry="32.608696" transform="matrix(-0.051827 1.546376 -1.443781 -0.048389 394.954204 174.374715)" fill="rgb(0,4,12)" stroke="none" stroke-width="0" stroke-miterlimit="1"/><ellipse id="e0CY4E93g7q21" rx="16.304348" ry="32.608696" transform="matrix(-1.024868 2.905551 -1.126453 -0.397331 303.397593 312.173257)" fill="rgb(0,4,12)" stroke="none" stroke-width="0" stroke-miterlimit="1"/></g><g id="e0CY4E93g7q22" transform="matrix(1 0 0 1 0 0.000001)" opacity="0"><ellipse id="e0CY4E93g7q23" rx="16.304348" ry="32.608696" transform="matrix(0.191145 -1.412243 1.153113 0.156072 210.478573 111.107348)" fill="rgb(0,4,12)" stroke="none" stroke-width="0" stroke-miterlimit="1"/><ellipse id="e0CY4E93g7q24" rx="16.304348" ry="32.608696" transform="matrix(1.386416 -0.329873 0.269346 1.132025 261.958462 215.420426)" fill="rgb(0,4,12)" stroke="none" stroke-width="0" stroke-miterlimit="1"/><ellipse id="e0CY4E93g7q25" rx="16.304348" ry="32.608696" transform="matrix(0.320375 2.669356 0.866301 -0.103973 407.482298 152.409714)" fill="rgb(0,4,12)" stroke="none" stroke-width="0" stroke-miterlimit="1"/><ellipse id="e0CY4E93g7q26" rx="16.304348" ry="32.608696" transform="matrix(1.535248 -0.041147 0.034764 1.297069 430.788815 289.434372)" fill="rgb(0,4,12)" stroke="none" stroke-width="0" stroke-miterlimit="1"/><ellipse id="e0CY4E93g7q27" rx="16.304348" ry="32.608696" transform="matrix(1.666331 -0.121578 0.089891 1.232026 354.556628 255.828761)" fill="rgb(0,4,12)" stroke="none" stroke-width="0" stroke-miterlimit="1"/><ellipse id="e0CY4E93g7q28" rx="16.304348" ry="32.608696" transform="matrix(-2.063639 0.102077 -0.069268 -1.40036 323.214567 382.853106)" fill="rgb(0,4,12)" stroke="none" stroke-width="0" stroke-miterlimit="1"/><ellipse id="e0CY4E93g7q29" rx="16.304348" ry="32.608696" transform="matrix(0.312452 2.804933 -1.229328 0.13694 157.242861 306.645293)" fill="rgb(0,4,12)" stroke="none" stroke-width="0" stroke-miterlimit="1"/></g><g id="e0CY4E93g7q30" transform="matrix(1 0 0 1 0 0.000001)" opacity="0"><ellipse id="e0CY4E93g7q31" rx="16.304348" ry="32.608696" transform="matrix(1.517366 -2.439041 1.12166 0.697802 216.111386 95.418216)" fill="rgb(0,4,12)" stroke="none" stroke-width="0" stroke-miterlimit="1"/><ellipse id="e0CY4E93g7q32" rx="16.304348" ry="32.608696" transform="matrix(2.354301 1.537965 -0.763971 1.169479 150.873314 187.112931)" fill="rgb(0,4,12)" stroke="none" stroke-width="0" stroke-miterlimit="1"/><ellipse id="e0CY4E93g7q33" rx="16.304348" ry="32.608696" transform="matrix(-1.790494 1.981 1.026985 0.928223 410.63268 217.834644)" fill="rgb(0,4,12)" stroke="none" stroke-width="0" stroke-miterlimit="1"/><ellipse id="e0CY4E93g7q34" rx="16.304348" ry="32.608696" transform="matrix(2.308216 1.683926 -0.894592 1.226248 346.063103 295.538556)" fill="rgb(0,4,12)" stroke="none" stroke-width="0" stroke-miterlimit="1"/><ellipse id="e0CY4E93g7q35" rx="16.304348" ry="32.608696" transform="matrix(2.052459 1.629137 -0.871061 1.097401 290.992976 391.807817)" fill="rgb(0,4,12)" stroke="none" stroke-width="0" stroke-miterlimit="1"/><ellipse id="e0CY4E93g7q36" rx="16.304348" ry="32.608696" transform="matrix(-1.784634 2.090511 -1.102717 -0.941371 90.03546 276.708429)" fill="rgb(0,4,12)" stroke="none" stroke-width="0" stroke-miterlimit="1"/></g><g id="e0CY4E93g7q37" transform="matrix(1 0 0 1 0 0.000001)" opacity="0"><ellipse id="e0CY4E93g7q38" rx="16.304348" ry="32.608696" transform="matrix(1.797121 0.69932 -0.529068 1.359606 136.341274 100.542172)" fill="rgb(0,4,12)" stroke="none" stroke-width="0" stroke-miterlimit="1"/><ellipse id="e0CY4E93g7q39" rx="16.304348" ry="32.608696" transform="matrix(2.628989 0.091796 0.050783 -1.454392 270.789662 225.248113)" fill="rgb(0,4,12)" stroke="none" stroke-width="0" stroke-miterlimit="1"/><ellipse id="e0CY4E93g7q40" rx="16.304348" ry="32.608696" transform="matrix(0.137566 -1.504848 1.518704 0.138833 296.131782 115.795644)" fill="rgb(0,4,12)" stroke="none" stroke-width="0" stroke-miterlimit="1"/><ellipse id="e0CY4E93g7q41" rx="16.304348" ry="32.608696" transform="matrix(1.748393 0.574956 -0.477675 1.452569 134.853277 307.78428)" fill="rgb(0,4,12)" stroke="none" stroke-width="0" stroke-miterlimit="1"/><ellipse id="e0CY4E93g7q42" rx="16.304348" ry="32.608696" transform="matrix(-0.075217 2.244254 -1.264258 -0.042372 337.026082 394.721628)" fill="rgb(0,4,12)" stroke="none" stroke-width="0" stroke-miterlimit="1"/><ellipse id="e0CY4E93g7q43" rx="16.304348" ry="32.608696" transform="matrix(-1.146103 1.858864 -0.79587 -0.490702 303.397593 312.173257)" fill="rgb(0,4,12)" stroke="none" stroke-width="0" stroke-miterlimit="1"/></g><g id="e0CY4E93g7q44" transform="matrix(1 0 0 1 0 0.000001)" opacity="0"><ellipse id="e0CY4E93g7q45" rx="16.304348" ry="32.608696" transform="matrix(-0.155161 -3.009155 1.5099 -0.077855 336.058516 92.478065)" fill="rgb(0,4,12)" stroke="none" stroke-width="0" stroke-miterlimit="1"/><ellipse id="e0CY4E93g7q46" rx="16.304348" ry="32.608696" transform="matrix(2.317392 1.513854 -0.784912 1.201535 85.20851 119.647443)" fill="rgb(0,4,12)" stroke="none" stroke-width="0" stroke-miterlimit="1"/><ellipse id="e0CY4E93g7q47" rx="16.304348" ry="32.608696" transform="matrix(0.844636 2.871089 1.33802 -0.393628 364.803898 208.330233)" fill="rgb(0,4,12)" stroke="none" stroke-width="0" stroke-miterlimit="1"/><ellipse id="e0CY4E93g7q48" rx="16.304348" ry="32.608696" transform="matrix(2.816116 -0.905205 0.457312 1.422709 379.869177 336.94477)" fill="rgb(0,4,12)" stroke="none" stroke-width="0" stroke-miterlimit="1"/><ellipse id="e0CY4E93g7q49" rx="16.304348" ry="32.608696" transform="matrix(2.163697 1.717432 -0.86421 1.08877 107.856954 250.052888)" fill="rgb(0,4,12)" stroke="none" stroke-width="0" stroke-miterlimit="1"/><ellipse id="e0CY4E93g7q50" rx="16.304348" ry="32.608696" transform="matrix(-1.803886 2.113063 -1.053237 -0.89913 130.97447 374.276147)" fill="rgb(0,4,12)" stroke="none" stroke-width="0" stroke-miterlimit="1"/></g></svg>