<?xml version="1.0" standalone="no"?>
<!DOCTYPE svg PUBLIC "-//W3C//DTD SVG 20010904//EN"
 "http://www.w3.org/TR/2001/REC-SVG-20010904/DTD/svg10.dtd">
<svg version="1.0" xmlns="http://www.w3.org/2000/svg"
 width="256.000000pt" height="256.000000pt" viewBox="0 0 256.000000 256.000000"
 preserveAspectRatio="xMidYMid meet">

<g transform="translate(0.000000,256.000000) scale(0.100000,-0.100000)"
fill="#000000" stroke="none">
<path d="M1120 2320 l0 -80 -320 0 -320 0 0 -80 0 -80 -80 0 -80 0 0 -80 0
-80 -80 0 -80 0 0 -720 0 -720 80 0 80 0 0 240 0 240 80 0 80 0 0 -400 0 -400
240 0 240 0 0 240 0 240 80 0 80 0 0 -240 0 -240 240 0 240 0 0 320 0 320 80
0 80 0 0 80 0 80 160 0 160 0 0 -240 0 -240 -80 0 -80 0 0 -80 0 -80 160 0
160 0 0 160 0 160 80 0 80 0 0 800 0 800 -80 0 -80 0 0 80 0 80 -560 0 -560 0
0 -80z m960 -320 l0 -80 -80 0 -80 0 0 80 0 80 80 0 80 0 0 -80z"/>
</g>
</svg>
