<svg id="svg" xmlns="http://www.w3.org/2000/svg" xmlns:xlink="http://www.w3.org/1999/xlink" width="400" height="99.04761904761905" viewBox="0, 0, 400,99.04761904761905"><g id="svgg"><path id="path0" d="M25.304 0.816 C 25.300 0.891,25.049 2.789,24.748 5.034 C 24.434 7.371,24.128 11.649,24.032 15.043 L 23.863 20.970 22.118 23.614 C 21.158 25.069,19.589 27.864,18.631 29.827 L 16.889 33.395 15.759 33.547 C 10.858 34.204,6.365 39.406,4.519 46.561 C 2.388 54.823,0.690 72.198,0.866 83.926 L 0.952 89.621 4.492 90.353 C 7.478 90.969,8.294 91.253,9.703 92.163 C 14.199 95.069,14.453 95.092,58.639 96.457 C 106.415 97.933,120.435 98.095,200.136 98.095 C 279.853 98.095,293.378 97.939,341.633 96.458 C 385.626 95.108,385.846 95.089,390.476 92.193 C 391.958 91.266,392.819 90.967,395.782 90.352 L 399.320 89.619 399.298 81.340 C 399.255 64.487,396.999 47.902,393.873 41.452 C 391.895 37.373,388.099 34.107,384.702 33.564 C 383.677 33.400,383.640 33.350,381.905 29.828 C 380.938 27.865,379.430 25.149,378.552 23.793 L 376.957 21.327 376.765 16.105 C 376.522 9.508,375.667 1.361,375.217 1.361 C 375.095 1.361,374.223 1.942,373.280 2.653 C 371.156 4.254,368.263 5.603,365.811 6.136 C 364.069 6.515,44.839 7.371,35.616 7.022 C 31.537 6.867,29.040 5.460,26.055 1.633 C 25.646 1.109,25.308 0.741,25.304 0.816 M373.976 6.871 C 375.520 21.977,373.874 38.355,370.197 44.490 C 366.803 50.152,359.891 52.666,343.673 54.136 C 341.551 54.329,294.971 54.421,198.912 54.424 L 57.279 54.428 51.156 53.467 C 40.751 51.834,39.259 51.509,36.871 50.351 C 29.582 46.817,26.563 38.679,26.196 21.575 C 26.072 15.816,26.460 5.986,26.811 5.986 C 26.851 5.986,27.507 6.406,28.268 6.918 C 29.029 7.430,30.358 8.134,31.221 8.482 L 32.789 9.116 168.299 9.008 C 242.830 8.948,317.707 8.816,334.694 8.714 C 369.324 8.505,366.781 8.664,371.156 6.434 C 372.429 5.786,373.544 5.236,373.636 5.213 C 373.727 5.189,373.881 5.935,373.976 6.871 M63.810 9.799 C 47.381 10.816,45.455 11.653,44.088 18.367 C 41.460 31.278,43.033 47.191,47.228 50.139 C 52.085 53.553,90.925 53.563,95.861 50.152 C 100.064 47.247,101.634 31.453,99.017 18.397 C 98.253 14.587,97.354 13.066,95.216 11.966 C 92.273 10.451,73.832 9.179,63.810 9.799 M319.456 9.800 C 315.522 10.037,310.330 10.582,306.322 11.180 C 302.227 11.792,300.706 13.529,299.688 18.754 C 298.063 27.102,298.122 36.709,299.845 44.607 C 301.160 50.630,302.723 51.357,316.818 52.505 C 327.314 53.360,347.588 52.225,350.765 50.604 C 354.351 48.774,355.751 43.414,355.771 31.429 C 355.790 19.803,354.467 14.131,351.285 12.201 C 348.437 10.474,330.627 9.130,319.456 9.800 M84.199 12.383 C 95.659 13.481,95.984 13.674,97.122 20.054 C 99.366 32.640,97.401 48.980,93.643 48.980 C 93.525 48.980,92.090 49.168,90.456 49.398 C 76.934 51.299,52.284 50.729,48.561 48.429 C 43.892 45.544,43.804 17.448,48.454 14.137 C 49.564 13.346,56.716 12.417,65.986 11.860 C 69.157 11.670,80.002 11.981,84.199 12.383 M334.150 11.980 C 344.714 12.565,349.742 13.415,350.981 14.826 C 353.953 18.212,354.634 36.860,352.109 45.751 C 351.298 48.609,350.336 48.965,340.272 50.130 C 330.651 51.243,307.046 50.116,304.238 48.408 C 301.140 46.524,299.643 31.744,301.472 21.088 C 302.715 13.843,302.787 13.779,310.748 12.798 C 318.888 11.794,326.193 11.539,334.150 11.980 M61.224 13.083 C 51.279 13.838,48.944 14.695,47.937 17.959 C 45.254 26.650,46.509 42.839,50.056 45.298 C 54.018 48.044,83.629 48.285,88.977 45.614 C 94.257 42.978,94.857 19.296,89.748 15.168 C 87.535 13.379,72.149 12.254,61.224 13.083 M320.272 13.083 C 310.327 13.838,307.992 14.695,306.984 17.959 C 304.301 26.650,305.556 42.839,309.103 45.298 C 313.066 48.044,342.677 48.285,348.025 45.614 C 353.305 42.978,353.904 19.296,348.796 15.168 C 346.582 13.379,331.196 12.254,320.272 13.083 M77.823 15.240 C 83.646 15.673,87.613 16.285,88.448 16.880 C 91.939 19.366,91.756 41.514,88.227 43.591 C 85.482 45.207,68.084 45.869,57.899 44.746 C 50.496 43.929,50.387 43.861,49.469 39.447 C 48.294 33.802,48.744 21.312,50.238 18.083 C 51.030 16.372,52.722 15.982,62.993 15.146 C 65.600 14.934,74.456 14.990,77.823 15.240 M336.871 15.240 C 342.694 15.673,346.661 16.285,347.496 16.880 C 350.987 19.366,350.803 41.514,347.275 43.591 C 344.529 45.207,327.132 45.869,316.947 44.746 C 309.544 43.929,309.435 43.861,308.516 39.447 C 307.341 33.802,307.791 21.312,309.285 18.083 C 310.077 16.372,311.770 15.982,322.041 15.146 C 324.648 14.934,333.504 14.990,336.871 15.240 M103.401 20.136 L 103.401 21.224 200.272 21.224 L 297.143 21.224 297.143 20.136 L 297.143 19.048 200.272 19.048 L 103.401 19.048 103.401 20.136 M164.807 22.494 C 164.707 22.594,164.626 23.329,164.626 24.127 L 164.626 25.578 166.531 25.578 L 168.435 25.578 168.435 27.755 L 168.435 29.932 135.918 29.932 L 103.401 29.932 103.401 31.020 L 103.401 32.109 135.918 32.109 L 168.435 32.109 168.435 33.197 L 168.435 34.286 170.204 34.286 L 171.973 34.286 171.973 33.197 L 171.973 32.109 174.510 32.109 C 176.850 32.109,177.097 32.161,177.673 32.774 C 179.751 34.986,184.875 34.986,186.953 32.774 C 187.524 32.167,187.785 32.109,189.963 32.109 L 192.348 32.109 192.433 33.129 L 192.517 34.150 194.354 34.230 L 196.190 34.311 196.190 33.210 L 196.190 32.109 198.728 32.109 C 201.067 32.109,201.314 32.161,201.890 32.774 C 204.003 35.023,209.196 34.972,211.267 32.682 C 211.723 32.177,212.088 32.109,214.328 32.109 L 216.871 32.109 216.871 33.197 L 216.871 34.286 218.639 34.286 L 220.408 34.286 220.408 33.197 L 220.408 32.109 222.345 32.109 C 224.156 32.109,224.270 32.144,224.113 32.653 C 223.563 34.437,223.432 34.286,225.525 34.286 L 227.441 34.286 227.755 33.333 L 228.069 32.381 230.077 32.381 L 232.084 32.381 232.263 33.333 L 232.442 34.286 234.481 34.286 C 236.235 34.286,236.498 34.225,236.354 33.852 C 236.263 33.614,236.114 33.124,236.024 32.764 L 235.859 32.109 266.501 32.109 L 297.143 32.109 297.143 31.020 L 297.143 29.932 266.032 29.932 L 234.921 29.932 233.475 26.112 L 232.029 22.291 230.006 22.370 L 227.983 22.449 226.583 26.190 L 225.183 29.932 222.795 29.932 L 220.408 29.932 220.408 27.755 L 220.408 25.578 222.313 25.578 L 224.218 25.578 224.218 23.940 L 224.218 22.302 218.707 22.375 L 213.197 22.449 213.116 24.014 L 213.034 25.578 214.952 25.578 L 216.871 25.578 216.871 27.755 L 216.871 29.932 214.711 29.932 L 212.551 29.932 212.551 28.148 C 212.551 24.296,210.457 22.304,206.422 22.319 C 202.633 22.333,200.510 24.443,200.510 28.195 L 200.510 29.932 198.321 29.932 C 195.711 29.932,195.688 30.256,198.612 25.892 C 201.082 22.204,201.082 22.313,198.606 22.313 L 196.759 22.313 195.627 24.218 C 194.269 26.505,194.575 26.505,193.216 24.218 L 192.085 22.313 190.056 22.313 C 187.584 22.313,187.573 22.038,190.204 25.986 C 192.899 30.031,192.896 29.932,190.357 29.932 L 188.333 29.932 188.333 28.148 C 188.333 24.296,186.240 22.304,182.204 22.319 C 178.415 22.333,176.293 24.443,176.293 28.195 L 176.293 29.932 174.133 29.932 L 171.973 29.932 171.973 27.755 L 171.973 25.578 173.878 25.578 L 175.782 25.578 175.782 23.946 L 175.782 22.313 170.385 22.313 C 167.417 22.313,164.907 22.395,164.807 22.494 M24.359 29.257 C 26.008 46.503,30.962 52.636,44.898 54.678 C 46.918 54.974,50.476 55.529,52.805 55.910 L 57.038 56.604 200.696 56.526 L 344.354 56.448 348.435 55.850 C 369.759 52.723,373.768 49.140,375.908 31.293 C 376.151 29.272,376.436 27.007,376.543 26.259 L 376.737 24.898 378.163 27.377 C 384.849 38.999,388.058 55.795,388.490 81.422 L 388.649 90.870 387.318 91.446 C 385.060 92.422,382.685 92.769,376.327 93.052 C 300.491 96.426,162.314 97.169,72.381 94.687 C 27.392 93.445,16.876 92.904,13.501 91.655 L 11.899 91.063 12.053 81.518 C 12.468 55.803,15.763 38.615,22.472 27.172 C 24.019 24.534,23.894 24.396,24.359 29.257 M183.869 25.918 C 184.549 26.659,184.869 28.009,184.626 29.116 L 184.447 29.932 182.313 29.932 L 180.179 29.932 180.000 29.116 C 179.559 27.110,180.654 25.306,182.313 25.306 C 182.995 25.306,183.483 25.498,183.869 25.918 M208.086 25.918 C 208.767 26.659,209.087 28.009,208.844 29.116 L 208.664 29.932 206.531 29.932 L 204.397 29.932 204.218 29.116 C 203.777 27.110,204.872 25.306,206.531 25.306 C 207.213 25.306,207.700 25.498,208.086 25.918 M230.940 29.559 C 230.865 29.634,230.376 29.657,229.853 29.610 L 228.904 29.524 229.463 27.755 L 230.023 25.986 230.550 27.704 C 230.840 28.648,231.016 29.483,230.940 29.559 M15.936 36.106 C 12.463 45.156,9.806 65.665,9.799 83.479 C 9.796 89.167,9.766 89.528,9.320 89.294 C 9.058 89.157,7.509 88.765,5.879 88.424 L 2.914 87.804 3.076 79.752 C 3.419 62.726,5.631 47.590,8.609 41.883 C 10.226 38.783,16.940 33.490,15.936 36.106 M387.079 36.861 C 389.513 38.282,391.732 41.305,392.973 44.892 C 395.195 51.313,397.274 69.534,397.278 82.608 L 397.279 87.800 394.354 88.424 C 392.746 88.768,391.295 89.100,391.130 89.164 C 390.917 89.245,390.782 86.759,390.665 80.626 C 390.331 63.020,388.355 47.657,385.186 38.019 C 384.803 36.854,384.490 35.847,384.490 35.781 C 384.490 35.585,385.900 36.174,387.079 36.861 M103.401 41.905 L 103.401 42.993 200.272 42.993 L 297.143 42.993 297.143 41.905 L 297.143 40.816 200.272 40.816 L 103.401 40.816 103.401 41.905 M47.947 66.379 C 45.986 67.292,45.781 68.092,45.574 75.646 C 45.353 83.723,45.705 84.491,49.772 84.802 C 52.080 84.978,89.750 86.259,92.605 86.257 C 97.311 86.256,97.648 85.705,97.999 77.442 C 98.280 70.843,98.222 70.067,97.362 68.974 C 96.214 67.515,96.325 67.526,75.583 66.811 C 64.917 66.444,54.599 66.074,52.653 65.990 C 49.492 65.852,48.991 65.894,47.947 66.379 M329.169 66.682 C 304.324 67.597,305.474 67.415,304.782 70.538 C 304.426 72.148,304.984 83.214,305.474 84.247 C 306.586 86.590,304.883 86.506,332.381 85.578 C 356.406 84.767,354.894 84.898,356.289 83.503 L 357.360 82.431 357.211 75.784 C 357.047 68.493,356.886 67.718,355.292 66.553 C 354.228 65.775,353.777 65.777,329.169 66.682 M75.584 68.988 C 95.185 69.663,95.654 69.706,95.919 70.824 C 96.111 71.634,95.631 82.728,95.377 83.336 C 95.023 84.187,94.053 84.190,71.429 83.416 C 45.477 82.529,47.629 82.900,47.624 79.320 C 47.608 68.052,47.676 67.908,52.866 68.157 C 54.844 68.252,65.067 68.626,75.584 68.988 M354.156 68.406 C 355.123 69.113,355.571 81.449,354.658 82.207 C 354.143 82.634,353.678 82.657,327.023 83.561 C 304.975 84.310,307.364 84.697,307.109 80.329 C 306.712 73.513,306.784 70.782,307.378 70.188 C 307.903 69.663,308.791 69.610,329.269 68.869 C 355.708 67.912,353.535 67.952,354.156 68.406 M138.251 69.592 C 136.343 70.565,136.190 71.053,136.190 76.190 C 136.190 84.042,132.855 83.264,166.531 83.264 C 200.206 83.264,196.871 84.042,196.871 76.190 C 196.871 71.053,196.719 70.565,194.811 69.592 C 193.370 68.857,139.692 68.857,138.251 69.592 M204.101 69.592 C 202.193 70.565,202.041 71.053,202.041 76.190 C 202.041 84.039,198.750 83.264,232.109 83.264 C 265.468 83.264,262.177 84.039,262.177 76.190 C 262.177 71.053,262.025 70.565,260.117 69.592 C 258.676 68.858,205.542 68.858,204.101 69.592 M194.286 71.837 C 194.778 72.329,194.830 72.744,194.830 76.190 C 194.830 81.768,198.759 81.088,166.531 81.088 C 134.302 81.088,138.231 81.768,138.231 76.190 C 138.231 70.613,134.302 71.293,166.531 71.293 C 193.379 71.293,193.749 71.300,194.286 71.837 M259.592 71.837 C 260.084 72.329,260.136 72.744,260.136 76.190 C 260.136 81.767,264.021 81.088,232.109 81.088 C 200.197 81.088,204.082 81.767,204.082 76.190 C 204.082 70.614,200.197 71.293,232.109 71.293 C 258.685 71.293,259.055 71.300,259.592 71.837 " stroke="none" fill="#000000" fill-rule="evenodd"></path></g></svg>