<svg width="802" height="334" viewBox="0 0 802 334" fill="none" xmlns="http://www.w3.org/2000/svg">
<rect x="293.5" y="269.877" width="216" height="46" rx="3" stroke="black" stroke-width="4"/>
<path d="M64.7666 255.268L19.9749 248.588C13.9315 247.687 8.5 252.369 8.5 258.479V308.543C8.5 313.069 11.54 317.031 15.9118 318.203L64.2283 331.149C65.0725 331.375 65.9426 331.49 66.8165 331.49H734.683C735.557 331.49 736.428 331.375 737.272 331.149L790.588 316.863C794.96 315.692 798 311.73 798 307.204V258.341C798 252.279 792.648 247.611 786.642 248.434L736 255.377H66.2415C65.7478 255.377 65.2549 255.34 64.7666 255.268Z" stroke="black" stroke-width="4"/>
<path d="M109.5 48.3771L133.7 18.2509C133.89 18.0146 134.176 17.8771 134.479 17.8771H186.559C186.84 17.8771 187.108 17.7589 187.297 17.5515L201.203 2.32564C201.392 2.11819 201.66 2 201.941 2H377.232C377.408 2 377.58 2.04621 377.732 2.13397L383.268 5.33013C383.42 5.4179 383.592 5.4641 383.768 5.4641H424.732C424.908 5.4641 425.08 5.4179 425.232 5.33013L430.768 2.13397C430.92 2.04621 431.092 2 431.268 2H604.586C604.851 2 605.105 2.10536 605.293 2.29289L620.084 17.0841C620.272 17.2716 620.526 17.377 620.791 17.377H671.01C671.319 17.377 671.611 17.5201 671.8 17.7648L695.5 48.377" stroke="black" stroke-width="4"/>
<rect x="110.5" y="49" width="583" height="111" stroke="black" stroke-width="4"/>
<rect x="122.5" y="54" width="100" height="100" rx="18" stroke="black" stroke-width="4"/>
<circle cx="172.5" cy="104" r="42" stroke="black" stroke-width="4"/>
<rect x="581.5" y="54" width="100" height="100" rx="18" stroke="black" stroke-width="4"/>
<circle cx="631.5" cy="104" r="42" stroke="black" stroke-width="4"/>
<rect x="354.5" y="184" width="95" height="24" rx="5" stroke="black" stroke-width="4"/>
<rect x="469.5" y="184" width="95" height="24" rx="5" stroke="black" stroke-width="4"/>
<rect x="239.5" y="184" width="95" height="24" rx="5" stroke="black" stroke-width="4"/>
<path d="M110 160V193.858C110 196.51 111.054 199.054 112.929 200.929L137.571 225.571C139.446 227.446 141.99 228.5 144.642 228.5H655.213C657.653 228.5 660.009 227.608 661.837 225.992L690.123 200.985C692.27 199.087 693.5 196.359 693.5 193.493V160" stroke="black" stroke-width="4"/>
<path d="M693 195H789.118C795.152 195 799.812 189.696 799.035 183.713L788.131 99.7127C787.484 94.7293 783.239 91 778.214 91H750" stroke="black" stroke-width="4"/>
<path d="M108.5 195H12.382C6.34801 195 1.68844 189.696 2.46518 183.713L13.369 99.7127C14.0159 94.7293 18.2606 91 23.2858 91H51.5" stroke="black" stroke-width="4"/>
<path d="M111 49H53C52.4477 49 52 49.4477 52 50V53C52 53.5523 51.5523 54 51 54H48C47.4477 54 47 54.4477 47 55V85.5C47 86.0523 47.4477 86.5 48 86.5H51C51.5523 86.5 52 86.9477 52 87.5V92M52 92L69.7113 122.677C69.89 122.986 70.2201 123.177 70.5774 123.177H111M52 92H111" stroke="black" stroke-width="4"/>
<path d="M692 49H750C750.552 49 751 49.4477 751 50V53C751 53.5523 751.448 54 752 54H755C755.552 54 756 54.4477 756 55V85.5C756 86.0523 755.552 86.5 755 86.5H752C751.448 86.5 751 86.9477 751 87.5V92M751 92L733.289 122.677C733.11 122.986 732.78 123.177 732.423 123.177H692M751 92H692" stroke="black" stroke-width="4"/>
<mask id="mask0_1715_529" style="mask-type:alpha" maskUnits="userSpaceOnUse" x="21" y="41" width="765" height="122">
<line y1="-1" x2="316.631" y2="-1" transform="matrix(0.926252 0.376906 -0.389602 0.920983 177.3 43)" stroke="black" stroke-width="2"/>
<line y1="-1" x2="316.631" y2="-1" transform="matrix(0.926252 0.376906 -0.389602 0.920983 226.18 43)" stroke="black" stroke-width="2"/>
<line y1="-1" x2="316.631" y2="-1" transform="matrix(0.926252 0.376906 -0.389602 0.920983 275.06 43)" stroke="black" stroke-width="2"/>
<line y1="-1" x2="316.631" y2="-1" transform="matrix(0.926252 0.376906 -0.389602 0.920983 323.94 43)" stroke="black" stroke-width="2"/>
<line y1="-1" x2="316.631" y2="-1" transform="matrix(0.926252 0.376906 -0.389602 0.920983 372.82 43)" stroke="black" stroke-width="2"/>
<line y1="-1" x2="316.631" y2="-1" transform="matrix(0.926252 0.376906 -0.389602 0.920983 421.7 43)" stroke="black" stroke-width="2"/>
<line y1="-1" x2="316.631" y2="-1" transform="matrix(0.926252 0.376906 -0.389602 0.920983 470.58 43)" stroke="black" stroke-width="2"/>
<line y1="-1" x2="316.631" y2="-1" transform="matrix(0.926252 0.376906 -0.389602 0.920983 125.3 43)" stroke="black" stroke-width="2"/>
<line y1="-1" x2="316.631" y2="-1" transform="matrix(0.926252 0.376906 -0.389602 0.920983 73.2998 43)" stroke="black" stroke-width="2"/>
<line y1="-1" x2="316.631" y2="-1" transform="matrix(0.926252 0.376906 -0.389602 0.920983 21.2998 43)" stroke="black" stroke-width="2"/>
<line y1="-1" x2="316.631" y2="-1" transform="matrix(-0.926252 0.376906 0.389602 0.920983 629.7 43)" stroke="black" stroke-width="2"/>
<line y1="-1" x2="316.631" y2="-1" transform="matrix(-0.926252 0.376906 0.389602 0.920983 580.82 43)" stroke="black" stroke-width="2"/>
<line y1="-1" x2="316.631" y2="-1" transform="matrix(-0.926252 0.376906 0.389602 0.920983 531.94 43)" stroke="black" stroke-width="2"/>
<line y1="-1" x2="316.631" y2="-1" transform="matrix(-0.926252 0.376906 0.389602 0.920983 483.06 43)" stroke="black" stroke-width="2"/>
<line y1="-1" x2="316.631" y2="-1" transform="matrix(-0.926252 0.376906 0.389602 0.920983 434.18 43)" stroke="black" stroke-width="2"/>
<line y1="-1" x2="316.631" y2="-1" transform="matrix(-0.926252 0.376906 0.389602 0.920983 385.3 43)" stroke="black" stroke-width="2"/>
<line y1="-1" x2="316.631" y2="-1" transform="matrix(-0.926252 0.376906 0.389602 0.920983 336.42 43)" stroke="black" stroke-width="2"/>
<line y1="-1" x2="316.631" y2="-1" transform="matrix(-0.926252 0.376906 0.389602 0.920983 681.7 43)" stroke="black" stroke-width="2"/>
<line y1="-1" x2="316.631" y2="-1" transform="matrix(-0.926252 0.376906 0.389602 0.920983 733.7 43)" stroke="black" stroke-width="2"/>
<line y1="-1" x2="316.631" y2="-1" transform="matrix(-0.926252 0.376906 0.389602 0.920983 785.7 43)" stroke="black" stroke-width="2"/>
</mask>
<g mask="url(#mask0_1715_529)">
<path opacity="0.5" d="M567.849 47.9038C567.849 47.9134 568 81.6158 568 103.317C568 125.021 567.849 158.731 567.849 158.731H237.151C237.151 158.731 237 125.021 237 103.317C237 81.6157 237.151 47.9134 237.151 47.9038H567.849ZM309.18 81.2505V121.461H492.18V81.2505H309.18Z" fill="black"/>
</g>
<path d="M569.854 48.9229C569.858 49.8986 569.863 51.2061 569.869 52.7852C569.884 56.439 569.902 61.5472 569.922 67.3633C569.961 78.996 570 93.4594 570 104.788C570 116.117 569.961 130.581 569.922 142.214C569.902 148.03 569.884 153.137 569.869 156.791C569.863 158.37 569.858 159.678 569.854 160.653H235.146C235.142 159.678 235.137 158.37 235.131 156.791C235.116 153.137 235.098 148.03 235.078 142.214C235.039 130.581 235 116.117 235 104.788C235 93.4594 235.039 78.996 235.078 67.3633C235.098 61.5472 235.116 56.439 235.131 52.7852C235.137 51.2061 235.142 49.8986 235.146 48.9229H569.854Z" stroke="black" stroke-width="4"/>
<path d="M313.872 87.2217H339.422V93.9385H330.85V114.423H322.444V93.9385H313.872V87.2217ZM342.187 100.841C342.187 96.4001 343.424 92.9427 345.897 90.4688C348.371 87.9948 351.816 86.7578 356.232 86.7578C360.76 86.7578 364.248 87.9762 366.697 90.4131C369.146 92.8376 370.371 96.2393 370.371 100.618C370.371 103.797 369.833 106.407 368.757 108.448C367.693 110.477 366.147 112.06 364.118 113.198C362.102 114.324 359.585 114.887 356.566 114.887C353.499 114.887 350.957 114.398 348.94 113.421C346.937 112.444 345.31 110.897 344.061 108.782C342.811 106.667 342.187 104.02 342.187 100.841ZM350.592 100.878C350.592 103.624 351.099 105.597 352.113 106.797C353.14 107.997 354.532 108.597 356.288 108.597C358.094 108.597 359.492 108.009 360.481 106.834C361.471 105.659 361.966 103.55 361.966 100.507C361.966 97.9463 361.446 96.0785 360.407 94.9033C359.381 93.7158 357.983 93.1221 356.214 93.1221C354.519 93.1221 353.159 93.722 352.132 94.9219C351.105 96.1217 350.592 98.1071 350.592 100.878ZM372.152 87.2217H381.485L386.978 96.4062L392.47 87.2217H401.747L391.171 103.03V114.423H382.747V103.03L372.152 87.2217ZM403.417 100.841C403.417 96.4001 404.654 92.9427 407.128 90.4688C409.602 87.9948 413.047 86.7578 417.463 86.7578C421.99 86.7578 425.479 87.9762 427.928 90.4131C430.377 92.8376 431.602 96.2393 431.602 100.618C431.602 103.797 431.063 106.407 429.987 108.448C428.924 110.477 427.377 112.06 425.349 113.198C423.332 114.324 420.815 114.887 417.797 114.887C414.729 114.887 412.187 114.398 410.171 113.421C408.167 112.444 406.54 110.897 405.291 108.782C404.042 106.667 403.417 104.02 403.417 100.841ZM411.822 100.878C411.822 103.624 412.329 105.597 413.344 106.797C414.37 107.997 415.762 108.597 417.519 108.597C419.325 108.597 420.722 108.009 421.712 106.834C422.701 105.659 423.196 103.55 423.196 100.507C423.196 97.9463 422.677 96.0785 421.638 94.9033C420.611 93.7158 419.213 93.1221 417.444 93.1221C415.75 93.1221 414.389 93.722 413.362 94.9219C412.336 96.1217 411.822 98.1071 411.822 100.878ZM434.218 87.2217H459.768V93.9385H451.195V114.423H442.79V93.9385H434.218V87.2217ZM480.326 109.933H470.752L469.435 114.423H460.844L471.067 87.2217H480.233L490.457 114.423H481.662L480.326 109.933ZM478.563 104.051L475.558 94.2725L472.57 104.051H478.563Z" fill="black"/>
</svg>
