<svg id="svg" xmlns="http://www.w3.org/2000/svg" xmlns:xlink="http://www.w3.org/1999/xlink" width="400" height="94.21052631578947" viewBox="0, 0, 400,94.21052631578947"><g id="svgg"><path id="path0" d="M52.829 0.680 C 52.732 0.777,46.638 0.930,39.287 1.020 L 25.921 1.184 25.850 2.105 C 25.728 3.683,25.543 4.170,24.999 4.342 C 24.488 4.505,24.474 4.744,24.474 13.176 L 24.474 21.842 22.829 21.846 C 17.174 21.859,12.163 25.056,9.428 30.395 C 3.733 41.513,0.568 57.165,0.529 74.408 L 0.526 75.789 25.461 75.797 L 50.395 75.805 59.477 84.701 L 68.559 93.597 112.503 93.777 C 168.402 94.006,231.550 94.006,287.386 93.778 L 331.220 93.598 340.392 84.694 L 349.565 75.789 374.542 75.789 L 399.519 75.789 399.364 73.882 C 399.280 72.832,399.088 69.250,398.938 65.921 C 398.403 54.053,396.600 45.332,392.573 35.132 C 389.057 26.226,384.848 22.421,377.961 21.921 L 375.789 21.764 375.789 13.029 L 375.789 4.295 375.171 4.013 C 374.675 3.787,374.520 3.459,374.390 2.356 C 374.300 1.600,374.154 0.908,374.065 0.820 C 373.844 0.598,53.050 0.458,52.829 0.680 M345.088 19.013 C 345.184 28.023,345.263 40.339,345.263 46.382 L 345.263 57.368 200.132 57.368 L 55.000 57.368 55.000 46.776 C 55.000 40.951,55.079 28.635,55.175 19.408 L 55.350 2.632 200.132 2.632 L 344.914 2.632 345.088 19.013 M368.325 2.894 L 372.309 2.895 372.486 4.078 C 372.603 4.859,372.839 5.356,373.178 5.537 C 373.672 5.801,373.690 6.099,373.623 12.962 L 373.553 20.112 372.697 20.357 C 371.911 20.583,371.842 20.690,371.842 21.683 L 371.842 22.763 361.776 22.706 C 356.240 22.674,350.734 22.574,349.539 22.485 L 347.368 22.321 347.368 12.434 L 347.368 2.547 355.855 2.720 C 360.523 2.816,366.135 2.894,368.325 2.894 M52.895 12.895 L 52.895 22.895 43.421 22.955 C 38.211 22.988,32.674 23.018,31.118 23.021 L 28.289 23.026 28.206 22.010 C 28.136 21.162,27.995 20.945,27.351 20.702 L 26.579 20.411 26.579 13.241 C 26.579 6.340,26.599 6.061,27.105 5.789 C 27.462 5.598,27.633 5.236,27.636 4.662 C 27.643 3.112,27.271 3.171,37.513 3.092 C 42.717 3.052,48.306 2.991,49.934 2.957 L 52.895 2.895 52.895 12.895 M295.312 4.885 C 293.513 5.369,291.802 6.554,290.799 8.012 C 289.222 10.305,289.211 10.462,289.211 29.868 C 289.211 49.275,289.222 49.432,290.799 51.725 C 291.829 53.221,293.520 54.369,295.428 54.866 C 297.720 55.463,331.513 55.457,333.807 54.860 C 336.747 54.094,338.832 52.006,339.600 49.058 C 340.197 46.765,340.197 12.972,339.600 10.679 C 338.832 7.731,336.747 5.643,333.807 4.877 C 331.583 4.298,297.467 4.305,295.312 4.885 M66.866 5.675 C 64.028 6.449,61.943 8.576,61.190 11.468 C 60.600 13.734,60.592 47.552,61.181 49.813 C 61.863 52.434,63.060 53.911,65.526 55.178 L 66.974 55.921 85.349 55.997 C 107.466 56.088,107.409 56.096,109.908 52.612 C 111.572 50.294,111.579 50.204,111.579 30.658 C 111.579 8.378,111.584 8.400,106.184 5.778 C 104.990 5.198,68.963 5.104,66.866 5.675 M333.651 6.988 C 334.590 7.267,335.359 7.737,336.066 8.466 C 337.926 10.383,337.895 10.014,337.895 29.868 C 337.895 49.723,337.926 49.354,336.066 51.271 C 334.202 53.192,334.587 53.158,314.605 53.158 C 294.666 53.158,295.100 53.196,293.189 51.285 C 291.278 49.374,291.316 49.807,291.316 29.868 C 291.316 9.925,291.277 10.363,293.192 8.449 C 295.068 6.573,294.548 6.618,314.492 6.597 C 329.847 6.581,332.461 6.635,333.651 6.988 M105.812 7.929 C 109.479 9.596,109.474 9.565,109.474 30.658 C 109.474 51.750,109.479 51.720,105.812 53.387 C 104.417 54.021,69.363 54.182,67.237 53.564 C 65.365 53.020,63.846 51.529,63.304 49.703 C 62.700 47.671,62.689 13.684,63.291 11.656 C 63.800 9.941,65.404 8.295,67.072 7.776 C 69.002 7.174,104.461 7.315,105.812 7.929 M309.737 9.060 C 293.399 12.691,287.207 32.424,298.559 44.686 C 308.661 55.596,326.711 52.957,333.311 39.605 C 341.226 23.591,327.043 5.213,309.737 9.060 M81.862 9.744 C 61.765 13.967,58.108 41.243,76.447 50.129 C 94.672 58.960,114.040 39.583,105.118 21.445 C 100.973 13.019,90.750 7.876,81.862 9.744 M318.839 11.312 C 334.259 15.184,338.693 35.411,326.255 45.143 C 313.401 55.201,294.920 46.270,294.919 30.000 C 294.918 17.540,306.770 8.281,318.839 11.312 M90.418 12.104 C 105.130 15.813,110.166 33.801,99.483 44.483 C 86.973 56.994,65.835 47.605,66.642 29.896 C 67.194 17.791,78.731 9.157,90.418 12.104 M179.079 23.885 C 174.509 24.430,172.115 28.427,173.514 33.178 C 175.159 38.759,184.199 39.157,186.459 33.748 C 188.682 28.428,184.775 23.206,179.079 23.885 M205.902 23.966 C 201.785 24.508,199.343 29.124,200.887 33.445 C 202.899 39.074,212.361 38.955,213.950 33.281 C 215.583 27.447,211.894 23.177,205.902 23.966 M24.864 24.178 C 25.532 24.321,26.514 25.561,31.455 32.502 L 37.261 40.658 45.078 40.728 L 52.895 40.797 52.895 49.447 C 52.895 57.527,52.864 58.105,52.425 58.219 C 51.633 58.426,50.796 62.786,50.440 68.553 L 50.132 73.553 26.382 73.620 C 7.466 73.673,2.632 73.620,2.635 73.357 C 2.786 57.110,5.848 42.118,11.137 31.726 C 14.069 25.967,19.435 23.016,24.864 24.178 M160.175 24.123 C 160.079 24.219,160.000 24.989,160.000 25.833 L 160.000 27.368 162.105 27.368 L 164.211 27.368 164.211 32.368 L 164.211 37.368 166.316 37.368 L 168.421 37.368 168.421 32.368 L 168.421 27.368 170.526 27.368 L 172.632 27.368 172.632 25.658 L 172.632 23.947 166.491 23.947 C 163.114 23.947,160.272 24.026,160.175 24.123 M186.665 24.319 C 186.748 24.535,187.888 26.313,189.197 28.270 L 191.579 31.828 191.579 34.598 L 191.579 37.368 193.684 37.368 L 195.789 37.368 195.789 34.592 L 195.789 31.815 198.289 28.158 C 201.330 23.710,201.314 23.947,198.567 23.947 L 196.345 23.947 195.083 26.053 C 193.563 28.589,193.810 28.584,192.357 26.112 L 191.162 24.079 188.838 24.002 C 186.866 23.938,186.537 23.985,186.665 24.319 M215.000 25.647 L 215.000 27.346 217.039 27.423 L 219.079 27.500 219.151 32.434 L 219.222 37.368 221.322 37.368 L 223.421 37.368 223.421 32.368 L 223.421 27.368 225.395 27.368 L 227.368 27.368 227.368 25.658 L 227.368 23.947 221.184 23.947 L 215.000 23.947 215.000 25.647 M231.450 24.266 C 231.384 24.453,230.261 27.433,228.955 30.890 C 227.648 34.347,226.579 37.219,226.579 37.272 C 226.579 37.325,227.565 37.368,228.769 37.368 L 230.960 37.368 231.204 36.382 L 231.447 35.395 233.736 35.319 L 236.025 35.243 236.344 36.306 L 236.662 37.368 238.857 37.368 C 240.065 37.368,241.047 37.280,241.040 37.171 C 241.034 37.063,239.935 34.072,238.599 30.526 L 236.170 24.079 233.870 24.003 C 232.175 23.947,231.539 24.016,231.450 24.266 M380.121 24.350 C 385.280 25.694,388.052 28.996,391.269 37.632 C 395.170 48.104,397.105 59.578,397.105 72.237 L 397.105 73.684 373.684 73.684 C 360.803 73.684,350.260 73.655,350.257 73.618 C 350.254 73.582,350.085 71.125,349.881 68.158 C 349.446 61.823,348.637 57.632,347.850 57.632 C 347.393 57.632,347.368 57.189,347.368 49.079 L 347.368 40.526 355.197 40.522 L 363.026 40.518 368.789 32.377 C 372.673 26.890,374.732 24.201,375.105 24.128 C 376.395 23.874,378.681 23.975,380.121 24.350 M360.988 24.737 C 370.018 24.737,371.353 24.787,371.224 25.124 C 371.142 25.337,369.027 28.411,366.524 31.955 L 361.974 38.399 354.671 38.410 L 347.368 38.421 347.368 31.410 L 347.368 24.399 348.986 24.568 C 349.876 24.661,355.276 24.737,360.988 24.737 M52.895 31.842 L 52.895 38.684 45.663 38.684 L 38.431 38.684 33.709 32.039 L 28.986 25.395 31.664 25.249 C 33.137 25.169,38.516 25.080,43.618 25.052 L 52.895 25.000 52.895 31.842 M181.755 27.735 C 182.682 28.532,182.986 31.709,182.268 33.097 C 181.452 34.675,178.732 34.722,177.903 33.173 C 176.063 29.736,179.100 25.451,181.755 27.735 M208.699 27.376 C 210.158 28.157,210.508 32.171,209.235 33.526 C 207.341 35.543,204.737 33.897,204.737 30.683 C 204.737 27.896,206.664 26.287,208.699 27.376 M234.448 29.975 C 234.752 30.975,235.000 31.863,235.000 31.949 C 235.000 32.035,234.467 32.105,233.816 32.105 C 232.447 32.105,232.466 32.170,233.168 29.896 C 233.826 27.766,233.776 27.763,234.448 29.975 M346.731 60.197 C 346.820 60.595,347.006 61.336,347.145 61.842 C 347.283 62.349,347.575 65.309,347.793 68.421 L 348.189 74.079 339.301 82.797 L 330.413 91.514 275.535 91.716 C 245.353 91.827,186.678 91.839,145.147 91.742 L 69.636 91.565 67.910 89.929 C 66.961 89.029,63.024 85.214,59.161 81.449 L 52.138 74.605 52.511 69.079 C 52.824 64.440,53.389 60.522,53.867 59.671 C 53.928 59.563,119.811 59.474,200.274 59.474 L 346.569 59.474 346.731 60.197 M120.382 68.789 C 118.180 69.754,117.827 70.926,117.942 76.898 C 118.034 81.678,118.129 81.997,119.838 83.273 C 120.983 84.128,165.333 84.128,166.478 83.273 C 168.244 81.954,168.289 81.778,168.289 76.184 C 168.289 70.591,168.244 70.414,166.478 69.095 C 165.548 68.401,121.927 68.111,120.382 68.789 M176.434 68.789 C 174.232 69.754,173.880 70.926,173.995 76.898 C 174.087 81.678,174.182 81.997,175.891 83.273 C 177.036 84.128,221.649 84.128,222.793 83.273 C 224.560 81.954,224.605 81.778,224.605 76.184 C 224.605 70.591,224.560 70.414,222.793 69.095 C 221.864 68.401,177.979 68.111,176.434 68.789 M232.487 68.789 C 230.285 69.754,229.933 70.926,230.047 76.898 C 230.139 81.678,230.234 81.997,231.943 83.273 C 233.088 84.128,277.701 84.128,278.846 83.273 C 280.613 81.954,280.658 81.778,280.658 76.184 C 280.658 70.591,280.613 70.414,278.846 69.095 C 277.917 68.401,234.032 68.111,232.487 68.789 M165.670 71.172 C 166.304 71.806,166.316 71.900,166.316 76.184 C 166.316 80.469,166.304 80.562,165.670 81.196 L 165.024 81.842 143.158 81.842 L 121.292 81.842 120.646 81.196 C 120.012 80.562,120.000 80.469,120.000 76.184 C 120.000 71.900,120.012 71.806,120.646 71.172 L 121.292 70.526 143.158 70.526 L 165.024 70.526 165.670 71.172 M221.986 71.172 C 222.620 71.806,222.632 71.900,222.632 76.184 C 222.632 80.469,222.620 80.562,221.986 81.196 L 221.340 81.842 199.342 81.842 L 177.344 81.842 176.699 81.196 C 176.065 80.562,176.053 80.469,176.053 76.184 C 176.053 71.900,176.065 71.806,176.699 71.172 L 177.344 70.526 199.342 70.526 L 221.340 70.526 221.986 71.172 M278.038 71.172 C 278.672 71.806,278.684 71.900,278.684 76.184 C 278.684 80.469,278.672 80.562,278.038 81.196 L 277.392 81.842 255.395 81.842 L 233.397 81.842 232.751 81.196 C 232.117 80.562,232.105 80.469,232.105 76.184 C 232.105 71.900,232.117 71.806,232.751 71.172 L 233.397 70.526 255.395 70.526 L 277.392 70.526 278.038 71.172 " stroke="none" fill="#000000" fill-rule="evenodd"></path></g></svg>