<svg width="802" height="334" viewBox="0 0 802 334" fill="none" xmlns="http://www.w3.org/2000/svg">
<rect x="294" y="269.877" width="216" height="46" rx="3" stroke="black" stroke-width="4"/>
<path d="M65.2666 255.268L20.4749 248.588C14.4315 247.687 9 252.369 9 258.479V308.543C9 313.069 12.04 317.031 16.4118 318.203L64.7283 331.149C65.5725 331.375 66.4426 331.49 67.3165 331.49H735.183C736.057 331.49 736.928 331.375 737.772 331.149L791.088 316.863C795.46 315.692 798.5 311.73 798.5 307.204V258.341C798.5 252.279 793.148 247.611 787.142 248.434L736.5 255.377H66.7415C66.2478 255.377 65.7549 255.34 65.2666 255.268Z" stroke="black" stroke-width="4"/>
<path d="M110 48.3771L134.2 18.2509C134.39 18.0146 134.676 17.8771 134.979 17.8771H187.059C187.34 17.8771 187.608 17.7589 187.797 17.5515L201.703 2.32564C201.892 2.11819 202.16 2 202.441 2H377.732C377.908 2 378.08 2.04621 378.232 2.13397L383.768 5.33013C383.92 5.4179 384.092 5.4641 384.268 5.4641H425.232C425.408 5.4641 425.58 5.4179 425.732 5.33013L431.268 2.13397C431.42 2.04621 431.592 2 431.768 2H605.086C605.351 2 605.605 2.10536 605.793 2.29289L620.584 17.0841C620.772 17.2716 621.026 17.377 621.291 17.377H671.51C671.819 17.377 672.111 17.5201 672.3 17.7648L696 48.377" stroke="black" stroke-width="4"/>
<rect x="111" y="49" width="583" height="111" stroke="black" stroke-width="4"/>
<rect x="124" y="54" width="100" height="100" rx="18" stroke="black" stroke-width="4"/>
<circle cx="174" cy="104" r="42" stroke="black" stroke-width="4"/>
<rect x="582" y="54" width="100" height="100" rx="18" stroke="black" stroke-width="4"/>
<circle cx="632" cy="104" r="42" stroke="black" stroke-width="4"/>
<line x1="224" y1="68" x2="581" y2="68" stroke="black" stroke-width="4"/>
<line x1="224" y1="138" x2="581" y2="138" stroke="black" stroke-width="4"/>
<path d="M367.874 91C366.848 92.2742 365.968 93.6109 365.25 95H228V112H364.763C365.39 113.385 366.179 114.72 367.109 116H224V91H367.874ZM582 116H437.891C438.821 114.72 439.61 113.385 440.237 112H578V95H439.75C439.032 93.6109 438.152 92.2742 437.126 91H582V116Z" fill="black"/>
<path d="M402.5 79C413.058 79 422.527 81.9289 429.302 86.5596C436.086 91.1969 440 97.3977 440 104C440 110.602 436.086 116.803 429.302 121.44C422.527 126.071 413.058 129 402.5 129C391.942 129 382.473 126.071 375.698 121.44C368.914 116.803 365 110.602 365 104C365 97.3977 368.914 91.1969 375.698 86.5596C382.473 81.9289 391.942 79 402.5 79Z" stroke="black" stroke-width="4"/>
<rect x="355" y="184" width="95" height="24" rx="5" stroke="black" stroke-width="4"/>
<rect x="470" y="184" width="95" height="24" rx="5" stroke="black" stroke-width="4"/>
<rect x="240" y="184" width="95" height="24" rx="5" stroke="black" stroke-width="4"/>
<path d="M110.5 160V193.858C110.5 196.51 111.554 199.054 113.429 200.929L138.071 225.571C139.946 227.446 142.49 228.5 145.142 228.5H655.713C658.153 228.5 660.509 227.608 662.337 225.992L690.623 200.985C692.77 199.087 694 196.359 694 193.493V160" stroke="black" stroke-width="4"/>
<path d="M693.5 195H789.618C795.652 195 800.312 189.696 799.535 183.713L788.631 99.7127C787.984 94.7293 783.739 91 778.714 91H750.5" stroke="black" stroke-width="4"/>
<path d="M109 195H12.882C6.84801 195 2.18844 189.696 2.96518 183.713L13.869 99.7127C14.5159 94.7293 18.7606 91 23.7858 91H52" stroke="black" stroke-width="4"/>
<path d="M111.5 49H53.5C52.9477 49 52.5 49.4477 52.5 50V53C52.5 53.5523 52.0523 54 51.5 54H48.5C47.9477 54 47.5 54.4477 47.5 55V85.5C47.5 86.0523 47.9477 86.5 48.5 86.5H51.5C52.0523 86.5 52.5 86.9477 52.5 87.5V92M52.5 92L70.2113 122.677C70.39 122.986 70.7201 123.177 71.0774 123.177H111.5M52.5 92H111.5" stroke="black" stroke-width="4"/>
<path d="M692.5 49H750.5C751.052 49 751.5 49.4477 751.5 50V53C751.5 53.5523 751.948 54 752.5 54H755.5C756.052 54 756.5 54.4477 756.5 55V85.5C756.5 86.0523 756.052 86.5 755.5 86.5H752.5C751.948 86.5 751.5 86.9477 751.5 87.5V92M751.5 92L733.789 122.677C733.61 122.986 733.28 123.177 732.923 123.177H692.5M751.5 92H692.5" stroke="black" stroke-width="4"/>
</svg>
