<?xml version="1.0" encoding="UTF-8"?>
<!DOCTYPE svg PUBLIC "-//W3C//DTD SVG 1.1//EN" "http://www.w3.org/Graphics/SVG/1.1/DTD/svg11.dtd">
<svg version="1.2" viewBox="14720 22026 26817 6044" preserveAspectRatio="xMidYMid" fill-rule="evenodd" stroke-width="28.222" stroke-linejoin="round" xmlns="http://www.w3.org/2000/svg" xmlns:ooo="http://xml.openoffice.org/svg/export" xmlns:xlink="http://www.w3.org/1999/xlink" xmlns:presentation="http://sun.com/xmlns/staroffice/presentation" xmlns:smil="http://www.w3.org/2001/SMIL20/" xmlns:anim="urn:oasis:names:tc:opendocument:xmlns:animation:1.0" xml:space="preserve">
 <defs class="EmbeddedBulletChars">
  <g id="bullet-char-template-57356" transform="scale(0.00048828125,-0.00048828125)">
   <path d="M 580,1141 L 1163,571 580,0 -4,571 580,1141 Z"/>
  </g>
  <g id="bullet-char-template-57354" transform="scale(0.00048828125,-0.00048828125)">
   <path d="M 8,1128 L 1137,1128 1137,0 8,0 8,1128 Z"/>
  </g>
  <g id="bullet-char-template-10146" transform="scale(0.00048828125,-0.00048828125)">
   <path d="M 174,0 L 602,739 174,1481 1456,739 174,0 Z M 1358,739 L 309,1346 659,739 1358,739 Z"/>
  </g>
  <g id="bullet-char-template-10132" transform="scale(0.00048828125,-0.00048828125)">
   <path d="M 2015,739 L 1276,0 717,0 1260,543 174,543 174,936 1260,936 717,1481 1274,1481 2015,739 Z"/>
  </g>
  <g id="bullet-char-template-10007" transform="scale(0.00048828125,-0.00048828125)">
   <path d="M 0,-2 C -7,14 -16,27 -25,37 L 356,567 C 262,823 215,952 215,954 215,979 228,992 255,992 264,992 276,990 289,987 310,991 331,999 354,1012 L 381,999 492,748 772,1049 836,1024 860,1049 C 881,1039 901,1025 922,1006 886,937 835,863 770,784 769,783 710,716 594,584 L 774,223 C 774,196 753,168 711,139 L 727,119 C 717,90 699,76 672,76 641,76 570,178 457,381 L 164,-76 C 142,-110 111,-127 72,-127 30,-127 9,-110 8,-76 1,-67 -2,-52 -2,-32 -2,-23 -1,-13 0,-2 Z"/>
  </g>
  <g id="bullet-char-template-10004" transform="scale(0.00048828125,-0.00048828125)">
   <path d="M 285,-33 C 182,-33 111,30 74,156 52,228 41,333 41,471 41,549 55,616 82,672 116,743 169,778 240,778 293,778 328,747 346,684 L 369,508 C 377,444 397,411 428,410 L 1163,1116 C 1174,1127 1196,1133 1229,1133 1271,1133 1292,1118 1292,1087 L 1292,965 C 1292,929 1282,901 1262,881 L 442,47 C 390,-6 338,-33 285,-33 Z"/>
  </g>
  <g id="bullet-char-template-9679" transform="scale(0.00048828125,-0.00048828125)">
   <path d="M 813,0 C 632,0 489,54 383,161 276,268 223,411 223,592 223,773 276,916 383,1023 489,1130 632,1184 813,1184 992,1184 1136,1130 1245,1023 1353,916 1407,772 1407,592 1407,412 1353,268 1245,161 1136,54 992,0 813,0 Z"/>
  </g>
  <g id="bullet-char-template-8226" transform="scale(0.00048828125,-0.00048828125)">
   <path d="M 346,457 C 273,457 209,483 155,535 101,586 74,649 74,723 74,796 101,859 155,911 209,963 273,989 346,989 419,989 480,963 531,910 582,859 608,796 608,723 608,648 583,586 532,535 482,483 420,457 346,457 Z"/>
  </g>
  <g id="bullet-char-template-8211" transform="scale(0.00048828125,-0.00048828125)">
   <path d="M -4,459 L 1135,459 1135,606 -4,606 -4,459 Z"/>
  </g>
  <g id="bullet-char-template-61548" transform="scale(0.00048828125,-0.00048828125)">
   <path d="M 173,740 C 173,903 231,1043 346,1159 462,1274 601,1332 765,1332 928,1332 1067,1274 1183,1159 1299,1043 1357,903 1357,740 1357,577 1299,437 1183,322 1067,206 928,148 765,148 601,148 462,206 346,322 231,437 173,577 173,740 Z"/>
  </g>
 </defs>
 <g ooo:name="page7" class="Page">
  <g class="Group">
   <g class="com.sun.star.drawing.CustomShape">
    <g id="id3">
     <rect class="BoundingBox" stroke="none" fill="none" x="26351" y="26345" width="3404" height="1046"/>
     <path fill="none" stroke="rgb(0,0,0)" stroke-width="141" stroke-linejoin="miter" d="M 26422,26624 L 26422,26624 C 26422,26587 26432,26551 26450,26520 26468,26488 26495,26462 26526,26443 26558,26425 26594,26416 26630,26416 L 29474,26416 29474,26416 C 29511,26416 29547,26426 29578,26444 29610,26462 29636,26489 29655,26520 29673,26552 29682,26588 29682,26624 L 29682,26624 29683,27110 29683,27110 C 29683,27147 29673,27183 29655,27214 29637,27246 29610,27272 29579,27291 29547,27309 29511,27318 29475,27318 L 26630,27319 26630,27319 C 26593,27319 26557,27309 26526,27291 26494,27273 26468,27246 26449,27215 26431,27183 26422,27147 26422,27111 L 26422,26624 Z"/>
    </g>
   </g>
   <g class="com.sun.star.drawing.CustomShape">
    <g id="id4">
     <rect class="BoundingBox" stroke="none" fill="none" x="30115" y="26345" width="3404" height="1046"/>
     <path fill="none" stroke="rgb(0,0,0)" stroke-width="141" stroke-linejoin="miter" d="M 30186,26624 L 30186,26624 C 30186,26587 30196,26551 30214,26520 30232,26488 30259,26462 30290,26443 30322,26425 30358,26416 30394,26416 L 33238,26416 33238,26416 C 33275,26416 33311,26426 33342,26444 33374,26462 33400,26489 33419,26520 33437,26552 33446,26588 33446,26624 L 33446,26624 33447,27110 33447,27110 C 33447,27147 33437,27183 33419,27214 33401,27246 33374,27272 33343,27291 33311,27309 33275,27318 33239,27318 L 30394,27319 30394,27319 C 30357,27319 30321,27309 30290,27291 30258,27273 30232,27246 30213,27215 30195,27183 30186,27147 30186,27111 L 30186,26624 Z"/>
    </g>
   </g>
   <g class="com.sun.star.drawing.CustomShape">
    <g id="id5">
     <rect class="BoundingBox" stroke="none" fill="none" x="22587" y="26345" width="3404" height="1046"/>
     <path fill="none" stroke="rgb(0,0,0)" stroke-width="141" stroke-linejoin="miter" d="M 22658,26624 L 22658,26624 C 22658,26587 22668,26551 22686,26520 22704,26488 22731,26462 22762,26443 22794,26425 22830,26416 22866,26416 L 25710,26416 25710,26416 C 25747,26416 25783,26426 25814,26444 25846,26462 25872,26489 25891,26520 25909,26552 25918,26588 25918,26624 L 25918,26624 25919,27110 25919,27110 C 25919,27147 25909,27183 25891,27214 25873,27246 25846,27272 25815,27291 25783,27309 25747,27318 25711,27318 L 22866,27319 22866,27319 C 22829,27319 22793,27309 22762,27291 22730,27273 22704,27246 22685,27215 22667,27183 22658,27147 22658,27111 L 22658,26624 Z"/>
    </g>
   </g>
   <g class="com.sun.star.drawing.CustomShape">
    <g id="id6">
     <rect class="BoundingBox" stroke="none" fill="none" x="18046" y="25726" width="240" height="1013"/>
     <path fill="none" stroke="rgb(0,0,0)" stroke-width="141" stroke-linejoin="miter" d="M 18215,25739 L 18166,26016 18117,26733"/>
    </g>
   </g>
   <g class="com.sun.star.drawing.CustomShape">
    <g id="id7">
     <rect class="BoundingBox" stroke="none" fill="none" x="37934" y="25726" width="240" height="1013"/>
     <path fill="none" stroke="rgb(0,0,0)" stroke-width="141" stroke-linejoin="miter" d="M 38004,25739 L 38053,26016 38102,26733"/>
    </g>
   </g>
   <g class="com.sun.star.drawing.CustomShape">
    <g id="id8">
     <rect class="BoundingBox" stroke="none" fill="none" x="19010" y="22614" width="2880" height="2879"/>
     <path fill="none" stroke="rgb(0,0,0)" stroke-width="141" stroke-linejoin="miter" d="M 19081,24053 L 19081,24053 C 19081,23813 19144,23577 19264,23369 19384,23161 19557,22988 19765,22868 19973,22748 20209,22685 20450,22685 L 20450,22685 C 20690,22685 20926,22748 21134,22868 21342,22988 21515,23161 21635,23369 21755,23577 21818,23813 21818,24053 L 21818,24053 21818,24053 C 21818,24293 21755,24529 21635,24737 21515,24945 21342,25118 21134,25238 20926,25358 20690,25422 20450,25422 L 20450,25422 C 20209,25422 19973,25358 19765,25238 19557,25118 19384,24945 19264,24737 19144,24529 19081,24293 19081,24053 Z"/>
    </g>
   </g>
   <g class="com.sun.star.drawing.CustomShape">
    <g id="id9">
     <rect class="BoundingBox" stroke="none" fill="none" x="18774" y="22333" width="4014" height="3404"/>
     <path fill="none" stroke="rgb(0,0,0)" stroke-width="141" stroke-linejoin="miter" d="M 19592,22404 L 21358,22404 C 21468,22404 21555,22404 21627,22408 21698,22413 21753,22422 21797,22440 21860,22463 21916,22500 21963,22546 22009,22593 22046,22649 22069,22712 L 22699,25665 19592,25665 C 19483,25665 19395,25665 19323,25660 19252,25655 19197,25646 19153,25628 19090,25605 19034,25568 18987,25522 18941,25475 18904,25419 18881,25356 18863,25312 18854,25257 18849,25186 18845,25114 18845,25026 18845,24917 L 18845,23151 C 18845,23042 18845,22954 18849,22882 18854,22811 18863,22756 18881,22712 18904,22649 18941,22593 18987,22546 19034,22500 19090,22463 19153,22440 19197,22422 19252,22413 19323,22408 19395,22404 19483,22404 19592,22404 Z"/>
    </g>
   </g>
   <g class="com.sun.star.drawing.CustomShape">
    <g id="id10">
     <rect class="BoundingBox" stroke="none" fill="none" x="18237" y="22026" width="19735" height="3942"/>
     <path fill="none" stroke="rgb(0,0,0)" stroke-width="141" stroke-linejoin="miter" d="M 28104,25896 L 18308,25896 18308,22097 37900,22097 37900,25896 28104,25896 Z"/>
    </g>
   </g>
   <g class="com.sun.star.drawing.CustomShape">
    <g id="id11">
     <rect class="BoundingBox" stroke="none" fill="none" x="34313" y="22559" width="2880" height="2879"/>
     <path fill="none" stroke="rgb(0,0,0)" stroke-width="141" stroke-linejoin="miter" d="M 34384,23998 L 34384,23998 C 34384,23758 34447,23522 34567,23314 34687,23106 34860,22933 35068,22813 35276,22693 35512,22630 35753,22630 L 35753,22630 C 35993,22630 36229,22693 36437,22813 36645,22933 36818,23106 36938,23314 37058,23522 37121,23758 37121,23998 L 37121,23998 37121,23998 C 37121,24238 37058,24474 36938,24682 36818,24890 36645,25063 36437,25183 36229,25303 35993,25367 35753,25367 L 35753,25367 C 35512,25367 35276,25303 35068,25183 34860,25063 34687,24890 34567,24682 34447,24474 34384,24238 34384,23998 Z"/>
    </g>
   </g>
   <g class="com.sun.star.drawing.CustomShape">
    <g id="id12">
     <rect class="BoundingBox" stroke="none" fill="none" x="15753" y="22031" width="2500" height="3851"/>
     <path fill="none" stroke="rgb(0,0,0)" stroke-width="141" stroke-linejoin="miter" d="M 18238,22102 L 15826,22108 15883,23913 C 16117,24247 16387,24555 16692,24832 17144,25243 17662,25575 18224,25816"/>
    </g>
   </g>
   <g class="com.sun.star.drawing.LineShape">
    <g id="id13">
     <rect class="BoundingBox" stroke="none" fill="none" x="15859" y="23766" width="2404" height="143"/>
     <path fill="none" stroke="rgb(0,0,0)" stroke-width="141" stroke-linejoin="miter" d="M 15859,23837 L 18262,23837"/>
    </g>
   </g>
   <g class="com.sun.star.drawing.CustomShape">
    <g id="id14">
     <rect class="BoundingBox" stroke="none" fill="none" x="37948" y="22031" width="2592" height="3851"/>
     <path fill="none" stroke="rgb(0,0,0)" stroke-width="141" stroke-linejoin="miter" d="M 37949,22102 L 40466,22108 40409,23913 C 40176,24247 39905,24555 39600,24832 39148,25243 38630,25575 38069,25816"/>
    </g>
   </g>
   <g class="com.sun.star.drawing.LineShape">
    <g id="id15">
     <rect class="BoundingBox" stroke="none" fill="none" x="37945" y="23781" width="2507" height="205"/>
     <path fill="none" stroke="rgb(0,0,0)" stroke-width="141" stroke-linejoin="miter" d="M 40449,23852 L 37947,23914"/>
    </g>
   </g>
   <g class="Group">
    <g class="com.sun.star.drawing.CustomShape">
     <g id="id16">
      <rect class="BoundingBox" stroke="none" fill="none" x="22463" y="23776" width="5538" height="896"/>
      <path fill="none" stroke="rgb(0,0,0)" stroke-width="141" stroke-linejoin="miter" d="M 22552,23855 L 22724,24582 27995,24600 C 27848,24591 27703,24561 27565,24511 27396,24449 27239,24357 27102,24240 L 23503,24245 23326,24157 23264,23848 22552,23855 Z"/>
     </g>
    </g>
    <g class="com.sun.star.drawing.CustomShape">
     <g id="id17">
      <rect class="BoundingBox" stroke="none" fill="none" x="22179" y="22500" width="6128" height="882"/>
      <path fill="none" stroke="rgb(0,0,0)" stroke-width="141" stroke-linejoin="miter" d="M 22268,22579 L 22440,23306 27210,23310 C 27315,23250 27424,23197 27536,23152 27780,23054 28038,22993 28300,22972 L 23219,22969 23042,22881 22980,22572 22268,22579 Z"/>
     </g>
    </g>
    <g class="com.sun.star.drawing.CustomShape">
     <g id="id18">
      <rect class="BoundingBox" stroke="none" fill="none" x="22745" y="25055" width="10790" height="883"/>
      <path fill="none" stroke="rgb(0,0,0)" stroke-width="141" stroke-linejoin="miter" d="M 33445,25134 L 33273,25861 30552,25863 27903,25864 23009,25866 22835,25147 23526,25137 23610,25428 23880,25520 32423,25524 32671,25436 32733,25127 33445,25134 33445,25134 Z"/>
     </g>
    </g>
    <g class="com.sun.star.drawing.CustomShape">
     <g id="id19">
      <rect class="BoundingBox" stroke="none" fill="none" x="27975" y="23776" width="5824" height="908"/>
      <path fill="none" stroke="rgb(0,0,0)" stroke-width="141" stroke-linejoin="miter" d="M 33709,23855 L 33537,24582 27984,24600 C 28237,24631 28493,24600 28732,24511 28900,24448 29057,24356 29194,24240 L 32758,24245 32935,24157 32997,23848 33709,23855 Z"/>
     </g>
    </g>
    <g class="com.sun.star.drawing.CustomShape">
     <g id="id20">
      <rect class="BoundingBox" stroke="none" fill="none" x="27703" y="22500" width="6366" height="882"/>
      <path fill="none" stroke="rgb(0,0,0)" stroke-width="141" stroke-linejoin="miter" d="M 33979,22579 L 33807,23306 29072,23310 C 28966,23252 28857,23199 28746,23152 28578,23080 28405,23020 28229,22972 L 33028,22969 33205,22881 33267,22572 33979,22579 Z"/>
     </g>
    </g>
   </g>
   <g class="com.sun.star.drawing.CustomShape">
    <g id="id21">
     <rect class="BoundingBox" stroke="none" fill="none" x="26859" y="22941" width="2562" height="1705"/>
     <path fill="none" stroke="rgb(0,0,0)" stroke-width="141" stroke-linejoin="miter" d="M 26930,23793 L 26930,23793 C 26930,23656 26986,23521 27092,23402 27198,23283 27351,23185 27535,23116 27719,23048 27927,23012 28140,23012 L 28140,23012 C 28352,23012 28560,23048 28744,23116 28928,23185 29081,23283 29187,23402 29293,23521 29349,23656 29349,23793 L 29349,23793 29349,23793 C 29349,23930 29293,24065 29187,24184 29081,24303 28928,24401 28744,24470 28560,24538 28352,24575 28140,24575 L 28140,24575 C 27927,24575 27719,24538 27535,24470 27351,24401 27198,24303 27092,24184 26986,24065 26930,23930 26930,23793 Z"/>
    </g>
   </g>
   <g class="com.sun.star.drawing.CustomShape">
    <g id="id22">
     <rect class="BoundingBox" stroke="none" fill="none" x="33502" y="22333" width="4014" height="3404"/>
     <path fill="none" stroke="rgb(0,0,0)" stroke-width="141" stroke-linejoin="miter" d="M 36697,22404 L 34931,22404 C 34821,22404 34734,22404 34662,22408 34591,22413 34536,22422 34492,22440 34429,22463 34373,22500 34326,22546 34280,22593 34243,22649 34220,22712 L 33590,25665 36697,25665 C 36806,25665 36894,25665 36966,25660 37037,25655 37092,25646 37136,25628 37199,25605 37255,25568 37302,25522 37348,25475 37385,25419 37408,25356 37426,25312 37435,25257 37440,25186 37444,25114 37444,25026 37444,24917 L 37444,23151 C 37444,23042 37444,22954 37440,22882 37435,22811 37426,22756 37408,22712 37385,22649 37348,22593 37302,22546 37255,22500 37199,22463 37136,22440 37092,22422 37037,22413 36966,22408 36894,22404 36806,22404 36697,22404 Z"/>
    </g>
   </g>
   <g class="com.sun.star.drawing.CustomShape">
    <g id="id23">
     <rect class="BoundingBox" stroke="none" fill="none" x="14720" y="23278" width="13409" height="4792"/>
     <path fill="none" stroke="rgb(0,0,0)" stroke-width="141" stroke-linejoin="miter" d="M 15880,23342 C 15755,23400 15644,23484 15552,23588 15436,23721 15358,23879 15288,24040 15048,24592 14898,25180 14844,25784 L 14795,26772 18094,26780 19321,27970 28127,27998"/>
    </g>
   </g>
   <g class="com.sun.star.drawing.CustomShape">
    <g id="id24">
     <rect class="BoundingBox" stroke="none" fill="none" x="28128" y="23278" width="13409" height="4792"/>
     <path fill="none" stroke="rgb(0,0,0)" stroke-width="141" stroke-linejoin="miter" d="M 40376,23342 C 40501,23400 40612,23484 40704,23588 40820,23721 40898,23879 40968,24040 41208,24592 41358,25180 41412,25784 L 41461,26772 38162,26780 36935,27970 28129,27998"/>
    </g>
   </g>
  </g>
 </g>
</svg>