<svg width="802" height="334" viewBox="0 0 802 334" fill="none" xmlns="http://www.w3.org/2000/svg">
<rect x="294" y="269.877" width="216" height="46" rx="3" stroke="black" stroke-width="4"/>
<path d="M65.2666 255.268L20.4749 248.588C14.4315 247.687 9 252.369 9 258.479V308.543C9 313.069 12.04 317.031 16.4118 318.203L64.7283 331.149C65.5725 331.375 66.4426 331.49 67.3165 331.49H735.183C736.057 331.49 736.928 331.375 737.772 331.149L791.088 316.863C795.46 315.692 798.5 311.73 798.5 307.204V258.341C798.5 252.279 793.148 247.611 787.142 248.434L736.5 255.377H66.7415C66.2478 255.377 65.7549 255.34 65.2666 255.268Z" stroke="black" stroke-width="4"/>
<path d="M110 48.3771L134.2 18.2509C134.39 18.0146 134.676 17.8771 134.979 17.8771H187.059C187.34 17.8771 187.608 17.7589 187.797 17.5515L201.703 2.32564C201.892 2.11819 202.16 2 202.441 2H377.732C377.908 2 378.08 2.04621 378.232 2.13397L383.768 5.33013C383.92 5.4179 384.092 5.4641 384.268 5.4641H425.232C425.408 5.4641 425.58 5.4179 425.732 5.33013L431.268 2.13397C431.42 2.04621 431.592 2 431.768 2H605.086C605.351 2 605.605 2.10536 605.793 2.29289L620.584 17.0841C620.772 17.2716 621.026 17.377 621.291 17.377H671.51C671.819 17.377 672.111 17.5201 672.3 17.7648L696 48.377" stroke="black" stroke-width="4"/>
<rect x="111" y="49" width="583" height="111" stroke="black" stroke-width="4"/>
<rect x="124" y="54" width="100" height="100" rx="18" stroke="black" stroke-width="4"/>
<circle cx="174" cy="104" r="42" stroke="black" stroke-width="4"/>
<rect x="582" y="54" width="100" height="100" rx="18" stroke="black" stroke-width="4"/>
<circle cx="632" cy="104" r="42" stroke="black" stroke-width="4"/>
<path d="M268.024 137.5H249.002C248.316 137.5 247.834 138.174 248.055 138.823L254.874 158.823C255.012 159.228 255.392 159.5 255.82 159.5H551.306C551.773 159.5 552.178 159.177 552.281 158.722L556.827 138.722C556.969 138.096 556.493 137.5 555.852 137.5H539.019C538.753 137.5 538.499 137.605 538.312 137.793L528.397 147.707C528.21 147.895 527.955 148 527.69 148H275.185C274.826 148 274.495 147.808 274.317 147.496L268.892 138.004C268.714 137.692 268.383 137.5 268.024 137.5Z" stroke="black" stroke-width="4"/>
<path d="M258.025 95.5C259.034 95.5002 259.971 96.0073 260.524 96.8408L260.63 97.0117L265.766 106H368.787C369.163 107.373 369.692 108.709 370.359 110H265.186C264.109 110 263.115 109.423 262.581 108.488L257.445 99.5H240.4L246.536 117.5H376.344C377.994 118.959 379.858 120.3 381.904 121.5H245.821C244.538 121.5 243.396 120.683 242.981 119.468L236.163 99.4678C235.5 97.5216 236.947 95.5 239.003 95.5H258.025ZM565.853 95.5C567.778 95.5002 569.205 97.2879 568.778 99.165L564.232 119.165C563.922 120.531 562.707 121.5 561.307 121.5H433.313C435.36 120.3 437.224 118.959 438.875 117.5H560.509L564.6 99.5H549.434L539.812 109.121C539.25 109.683 538.487 110 537.691 110H444.858C445.526 108.709 446.055 107.373 446.431 106H537.277L546.898 96.3789L547.118 96.1797C547.652 95.7423 548.323 95.5 549.02 95.5H565.853ZM248.025 55.5C249.034 55.5002 249.971 56.0073 250.524 56.8408L250.63 57.0117L255.766 66H547.277L556.898 56.3789L557.118 56.1797C557.652 55.7423 558.323 55.5 559.02 55.5H575.853C577.778 55.5002 579.205 57.2879 578.778 59.165L574.232 79.165C573.922 80.5306 572.707 81.4998 571.307 81.5H434.929C432.569 79.9552 429.93 78.6095 427.068 77.5H570.509L574.6 59.5H559.434L549.812 69.1211C549.25 69.6834 548.487 69.9998 547.691 70H255.186C254.109 70 253.115 69.4229 252.581 68.4883L247.445 59.5H230.4L236.536 77.5H388.149C385.288 78.6095 382.648 79.9552 380.289 81.5H235.821C234.538 81.5 233.396 80.6828 232.981 79.4678L226.163 59.4678C225.5 57.5216 226.947 55.5 229.003 55.5H248.025Z" fill="black"/>
<path d="M407.604 76C418.162 76 427.632 78.9289 434.406 83.5596C441.191 88.1969 445.104 94.3977 445.104 101C445.104 107.602 441.191 113.803 434.406 118.44C427.632 123.071 418.162 126 407.604 126C397.047 126 387.577 123.071 380.803 118.44C374.018 113.803 370.104 107.602 370.104 101C370.104 94.3977 374.018 88.1969 380.803 83.5596C387.577 78.9289 397.047 76 407.604 76Z" stroke="black" stroke-width="4"/>
<rect x="355" y="184" width="95" height="24" rx="5" stroke="black" stroke-width="4"/>
<rect x="470" y="184" width="95" height="24" rx="5" stroke="black" stroke-width="4"/>
<rect x="240" y="184" width="95" height="24" rx="5" stroke="black" stroke-width="4"/>
<path d="M110.5 160V193.858C110.5 196.51 111.554 199.054 113.429 200.929L138.071 225.571C139.946 227.446 142.49 228.5 145.142 228.5H655.713C658.153 228.5 660.509 227.608 662.337 225.992L690.623 200.985C692.77 199.087 694 196.359 694 193.493V160" stroke="black" stroke-width="4"/>
<path d="M693.5 195H789.618C795.652 195 800.312 189.696 799.535 183.713L788.631 99.7127C787.984 94.7293 783.739 91 778.714 91H770.5" stroke="black" stroke-width="4"/>
<path d="M109 195H12.882C6.84801 195 2.18844 189.696 2.96518 183.713L13.869 99.7127C14.5159 94.7293 18.7606 91 23.7858 91H33" stroke="black" stroke-width="4"/>
<path d="M694.5 50H770.5C771.052 50 771.5 50.4477 771.5 51V103.5M688 160C688 160 711.993 160.075 723.5 157C744.912 151.279 768.951 120.793 771.311 117.746C771.445 117.573 771.5 117.382 771.5 117.163V103.5M771.5 103.5H694.5" stroke="black" stroke-width="4"/>
<path d="M109 50H33C32.4477 50 32 50.4477 32 51V103.5M115.5 160C115.5 160 91.5073 160.075 80 157C58.5885 151.279 34.5493 120.793 32.189 117.746C32.0551 117.573 32 117.382 32 117.163V103.5M32 103.5H109" stroke="black" stroke-width="4"/>
</svg>
