<?xml version="1.0" encoding="UTF-8"?>
<!DOCTYPE svg PUBLIC "-//W3C//DTD SVG 1.1//EN" "http://www.w3.org/Graphics/SVG/1.1/DTD/svg11.dtd">
<svg version="1.2" viewBox="15680 32120 24861 4668" preserveAspectRatio="xMidYMid" fill-rule="evenodd" stroke-width="28.222" stroke-linejoin="round" xmlns="http://www.w3.org/2000/svg" xmlns:ooo="http://xml.openoffice.org/svg/export" xmlns:xlink="http://www.w3.org/1999/xlink" xmlns:presentation="http://sun.com/xmlns/staroffice/presentation" xmlns:smil="http://www.w3.org/2001/SMIL20/" xmlns:anim="urn:oasis:names:tc:opendocument:xmlns:animation:1.0" xml:space="preserve">
 <defs class="EmbeddedBulletChars">
  <g id="bullet-char-template-57356" transform="scale(0.00048828125,-0.00048828125)">
   <path d="M 580,1141 L 1163,571 580,0 -4,571 580,1141 Z"/>
  </g>
  <g id="bullet-char-template-57354" transform="scale(0.00048828125,-0.00048828125)">
   <path d="M 8,1128 L 1137,1128 1137,0 8,0 8,1128 Z"/>
  </g>
  <g id="bullet-char-template-10146" transform="scale(0.00048828125,-0.00048828125)">
   <path d="M 174,0 L 602,739 174,1481 1456,739 174,0 Z M 1358,739 L 309,1346 659,739 1358,739 Z"/>
  </g>
  <g id="bullet-char-template-10132" transform="scale(0.00048828125,-0.00048828125)">
   <path d="M 2015,739 L 1276,0 717,0 1260,543 174,543 174,936 1260,936 717,1481 1274,1481 2015,739 Z"/>
  </g>
  <g id="bullet-char-template-10007" transform="scale(0.00048828125,-0.00048828125)">
   <path d="M 0,-2 C -7,14 -16,27 -25,37 L 356,567 C 262,823 215,952 215,954 215,979 228,992 255,992 264,992 276,990 289,987 310,991 331,999 354,1012 L 381,999 492,748 772,1049 836,1024 860,1049 C 881,1039 901,1025 922,1006 886,937 835,863 770,784 769,783 710,716 594,584 L 774,223 C 774,196 753,168 711,139 L 727,119 C 717,90 699,76 672,76 641,76 570,178 457,381 L 164,-76 C 142,-110 111,-127 72,-127 30,-127 9,-110 8,-76 1,-67 -2,-52 -2,-32 -2,-23 -1,-13 0,-2 Z"/>
  </g>
  <g id="bullet-char-template-10004" transform="scale(0.00048828125,-0.00048828125)">
   <path d="M 285,-33 C 182,-33 111,30 74,156 52,228 41,333 41,471 41,549 55,616 82,672 116,743 169,778 240,778 293,778 328,747 346,684 L 369,508 C 377,444 397,411 428,410 L 1163,1116 C 1174,1127 1196,1133 1229,1133 1271,1133 1292,1118 1292,1087 L 1292,965 C 1292,929 1282,901 1262,881 L 442,47 C 390,-6 338,-33 285,-33 Z"/>
  </g>
  <g id="bullet-char-template-9679" transform="scale(0.00048828125,-0.00048828125)">
   <path d="M 813,0 C 632,0 489,54 383,161 276,268 223,411 223,592 223,773 276,916 383,1023 489,1130 632,1184 813,1184 992,1184 1136,1130 1245,1023 1353,916 1407,772 1407,592 1407,412 1353,268 1245,161 1136,54 992,0 813,0 Z"/>
  </g>
  <g id="bullet-char-template-8226" transform="scale(0.00048828125,-0.00048828125)">
   <path d="M 346,457 C 273,457 209,483 155,535 101,586 74,649 74,723 74,796 101,859 155,911 209,963 273,989 346,989 419,989 480,963 531,910 582,859 608,796 608,723 608,648 583,586 532,535 482,483 420,457 346,457 Z"/>
  </g>
  <g id="bullet-char-template-8211" transform="scale(0.00048828125,-0.00048828125)">
   <path d="M -4,459 L 1135,459 1135,606 -4,606 -4,459 Z"/>
  </g>
  <g id="bullet-char-template-61548" transform="scale(0.00048828125,-0.00048828125)">
   <path d="M 173,740 C 173,903 231,1043 346,1159 462,1274 601,1332 765,1332 928,1332 1067,1274 1183,1159 1299,1043 1357,903 1357,740 1357,577 1299,437 1183,322 1067,206 928,148 765,148 601,148 462,206 346,322 231,437 173,577 173,740 Z"/>
  </g>
 </defs>
 <g ooo:name="page7" class="Page">
  <g class="Group">
   <g class="com.sun.star.drawing.CustomShape">
    <g id="id3">
     <rect class="BoundingBox" stroke="none" fill="none" x="17646" y="32741" width="2967" height="2967"/>
     <path fill="none" stroke="rgb(0,0,0)" stroke-width="141" stroke-linejoin="miter" d="M 17717,34224 L 17717,34224 C 17717,33976 17782,33733 17906,33518 18030,33303 18208,33125 18423,33001 18638,32877 18881,32812 19129,32812 L 19129,32812 C 19377,32812 19620,32877 19835,33001 20050,33125 20228,33303 20352,33518 20476,33733 20541,33976 20541,34224 L 20541,34224 20541,34224 C 20541,34472 20476,34715 20352,34930 20228,35145 20050,35323 19835,35447 19620,35571 19377,35636 19129,35636 L 19129,35636 C 18881,35636 18638,35571 18423,35447 18208,35323 18030,35145 17906,34930 17782,34715 17717,34472 17717,34224 Z"/>
    </g>
   </g>
   <g class="com.sun.star.drawing.CustomShape">
    <g id="id4">
     <rect class="BoundingBox" stroke="none" fill="none" x="17282" y="32536" width="3664" height="3471"/>
     <path fill="none" stroke="rgb(0,0,0)" stroke-width="141" stroke-linejoin="miter" d="M 17475,32607 L 20873,32610 20829,35930 17356,35707 17475,32607 17475,32607 Z"/>
    </g>
   </g>
   <g class="com.sun.star.drawing.CustomShape">
    <g id="id5">
     <rect class="BoundingBox" stroke="none" fill="none" x="15747" y="32486" width="1772" height="3282"/>
     <path fill="none" stroke="rgb(0,0,0)" stroke-width="141" stroke-linejoin="miter" d="M 17446,32603 L 16792,32558 16064,33034 C 15984,33362 15923,33695 15881,34030 15847,34305 15826,34581 15818,34858 15829,35052 15926,35231 16083,35346 16210,35440 16364,35482 16515,35519 16808,35591 17106,35646 17407,35686 L 17446,32603 Z"/>
    </g>
   </g>
   <g class="com.sun.star.drawing.CustomShape">
    <g id="id6">
     <rect class="BoundingBox" stroke="none" fill="none" x="15890" y="33197" width="1342" height="1926"/>
     <path fill="none" stroke="rgb(0,0,0)" stroke-width="141" stroke-linejoin="miter" d="M 16042,33268 L 17158,33309 17109,35050 15891,35039"/>
    </g>
   </g>
   <g class="com.sun.star.drawing.CustomShape">
    <g id="id7">
     <rect class="BoundingBox" stroke="none" fill="none" x="35618" y="32741" width="2967" height="2967"/>
     <path fill="none" stroke="rgb(0,0,0)" stroke-width="141" stroke-linejoin="miter" d="M 38513,34224 L 38513,34224 C 38513,33976 38448,33733 38324,33518 38200,33303 38022,33125 37807,33001 37592,32877 37349,32812 37101,32812 L 37101,32812 C 36853,32812 36610,32877 36395,33001 36180,33125 36002,33303 35878,33518 35754,33733 35689,33976 35689,34224 L 35689,34224 35689,34224 C 35689,34472 35754,34715 35878,34930 36002,35145 36180,35323 36395,35447 36610,35571 36853,35636 37101,35636 L 37101,35636 C 37349,35636 37592,35571 37807,35447 38022,35323 38200,35145 38324,34930 38448,34715 38513,34472 38513,34224 Z"/>
    </g>
   </g>
   <g class="com.sun.star.drawing.CustomShape">
    <g id="id8">
     <rect class="BoundingBox" stroke="none" fill="none" x="35288" y="32536" width="3664" height="3471"/>
     <path fill="none" stroke="rgb(0,0,0)" stroke-width="141" stroke-linejoin="miter" d="M 38758,32607 L 35360,32610 35404,35930 38877,35707 38758,32607 38758,32607 Z"/>
    </g>
   </g>
   <g class="com.sun.star.drawing.CustomShape">
    <g id="id9">
     <rect class="BoundingBox" stroke="none" fill="none" x="38713" y="32486" width="1772" height="3282"/>
     <path fill="none" stroke="rgb(0,0,0)" stroke-width="141" stroke-linejoin="miter" d="M 38785,32603 L 39439,32558 40167,33034 C 40247,33362 40308,33695 40350,34030 40384,34305 40405,34581 40413,34858 40402,35052 40305,35231 40148,35346 40021,35440 39867,35482 39716,35519 39423,35591 39125,35646 38824,35686 L 38785,32603 Z"/>
    </g>
   </g>
   <g class="com.sun.star.drawing.CustomShape">
    <g id="id10">
     <rect class="BoundingBox" stroke="none" fill="none" x="39002" y="33197" width="1342" height="1926"/>
     <path fill="none" stroke="rgb(0,0,0)" stroke-width="141" stroke-linejoin="miter" d="M 40191,33268 L 39075,33309 39124,35050 40342,35039"/>
    </g>
   </g>
   <g class="com.sun.star.drawing.LineShape">
    <g id="id11">
     <rect class="BoundingBox" stroke="none" fill="none" x="21170" y="33506" width="6274" height="143"/>
     <path fill="none" stroke="rgb(0,0,0)" stroke-width="141" stroke-linejoin="miter" d="M 21170,33577 L 27443,33577"/>
    </g>
   </g>
   <g class="com.sun.star.drawing.CustomShape">
    <g id="id12">
     <rect class="BoundingBox" stroke="none" fill="none" x="20765" y="32120" width="14772" height="4115"/>
     <path fill="none" stroke="rgb(0,0,0)" stroke-width="141" stroke-linejoin="miter" d="M 20836,32649 L 21675,32191 34698,32281 35447,32734 35465,36096 35160,36163 21179,36110 20870,36011 20836,32649 20836,32649 Z"/>
    </g>
   </g>
   <g class="com.sun.star.drawing.CustomShape">
    <g id="id13">
     <rect class="BoundingBox" stroke="none" fill="none" x="21108" y="32716" width="13952" height="3467"/>
     <path fill="none" stroke="rgb(0,0,0)" stroke-width="141" stroke-linejoin="miter" d="M 21193,33126 L 21675,32787 34578,32877 34970,33211 34988,36096 21179,36111 21193,33126 21193,33126 Z"/>
    </g>
   </g>
   <g class="com.sun.star.drawing.CustomShape">
    <g id="id14">
     <rect class="BoundingBox" stroke="none" fill="none" x="15680" y="34954" width="24861" height="1834"/>
     <path fill="none" stroke="rgb(0,0,0)" stroke-width="141" stroke-linejoin="miter" d="M 15751,35038 L 15751,36102 C 19808,36487 23881,36691 27957,36714 32104,36736 36250,36570 40383,36216 L 40469,34959"/>
    </g>
   </g>
   <g class="com.sun.star.drawing.CustomShape">
    <g id="id15">
     <rect class="BoundingBox" stroke="none" fill="none" x="21136" y="33816" width="6061" height="1056"/>
     <path fill="none" stroke="rgb(0,0,0)" stroke-width="141" stroke-linejoin="miter" d="M 21207,33887 L 26985,33887 C 26875,34011 26816,34175 26820,34343 26825,34516 26897,34680 27021,34800 L 21207,34800 21207,33887 Z"/>
    </g>
   </g>
   <g class="com.sun.star.drawing.CustomShape">
    <g id="id16">
     <rect class="BoundingBox" stroke="none" fill="none" x="26748" y="33387" width="2724" height="1903"/>
     <path fill="none" stroke="rgb(0,0,0)" stroke-width="141" stroke-linejoin="miter" d="M 26819,34338 L 26819,34338 C 26819,34183 26879,34032 26992,33898 27105,33764 27268,33653 27464,33575 27660,33498 27883,33458 28110,33458 L 28110,33458 C 28336,33458 28559,33498 28755,33575 28951,33653 29114,33764 29227,33898 29340,34032 29400,34183 29400,34338 L 29400,34338 29400,34338 C 29400,34493 29340,34644 29227,34778 29114,34912 28951,35023 28755,35101 28559,35178 28336,35219 28110,35219 L 28110,35219 C 27883,35219 27660,35178 27464,35101 27268,35023 27105,34912 26992,34778 26879,34644 26819,34493 26819,34338 Z"/>
    </g>
   </g>
   <g class="com.sun.star.drawing.CustomShape">
    <g id="id17">
     <rect class="BoundingBox" stroke="none" fill="none" x="29071" y="33816" width="5971" height="1056"/>
     <path fill="none" stroke="rgb(0,0,0)" stroke-width="141" stroke-linejoin="miter" d="M 34970,33887 L 29223,33887 C 29329,34013 29387,34175 29387,34343 29387,34511 29329,34673 29223,34800 L 34970,34800 34970,33887 Z"/>
    </g>
   </g>
   <g class="com.sun.star.drawing.LineShape">
    <g id="id18">
     <rect class="BoundingBox" stroke="none" fill="none" x="28755" y="33506" width="6273" height="143"/>
     <path fill="none" stroke="rgb(0,0,0)" stroke-width="141" stroke-linejoin="miter" d="M 28755,33577 L 35027,33577"/>
    </g>
   </g>
   <g class="com.sun.star.drawing.LineShape">
    <g id="id19">
     <rect class="BoundingBox" stroke="none" fill="none" x="28755" y="35023" width="6273" height="143"/>
     <path fill="none" stroke="rgb(0,0,0)" stroke-width="141" stroke-linejoin="miter" d="M 28755,35094 L 35027,35094"/>
    </g>
   </g>
   <g class="com.sun.star.drawing.LineShape">
    <g id="id20">
     <rect class="BoundingBox" stroke="none" fill="none" x="21170" y="35023" width="6274" height="143"/>
     <path fill="none" stroke="rgb(0,0,0)" stroke-width="141" stroke-linejoin="miter" d="M 21170,35094 L 27443,35094"/>
    </g>
   </g>
  </g>
 </g>
</svg>