<svg id="svg" xmlns="http://www.w3.org/2000/svg" xmlns:xlink="http://www.w3.org/1999/xlink" width="400" height="75.81329561527582" viewBox="0, 0, 400,75.81329561527582"><g id="svgg"><path id="path0" d="M89.958 3.994 L 83.876 7.378 55.870 7.205 C 38.621 7.099,25.981 6.900,22.961 6.689 L 18.057 6.345 11.928 10.352 L 5.799 14.359 5.197 16.727 C 2.884 25.824,0.997 43.248,1.960 46.607 C 2.215 47.493,2.195 47.525,1.395 47.525 L 0.566 47.525 0.566 56.409 L 0.566 65.293 1.909 65.463 C 8.694 66.316,46.761 69.353,67.751 70.715 C 169.373 77.308,277.449 76.667,376.803 68.883 C 392.568 67.648,397.594 67.236,397.683 67.170 C 397.774 67.103,399.133 48.247,399.145 46.888 C 399.149 46.382,399.003 46.110,398.727 46.110 C 398.389 46.110,398.303 45.692,398.303 44.045 C 398.303 36.900,395.298 15.491,394.143 14.413 C 394.019 14.297,391.216 12.436,387.913 10.276 L 381.907 6.350 377.163 6.685 C 374.366 6.883,360.611 7.108,343.653 7.233 L 314.887 7.446 311.262 5.234 C 309.269 4.017,307.231 2.779,306.733 2.482 C 305.899 1.984,147.791 0.511,104.102 0.595 L 96.040 0.610 89.958 3.994 M208.835 3.522 L 305.223 4.200 310.136 7.204 L 315.048 10.208 315.234 25.260 C 315.674 60.824,315.731 62.801,316.309 62.801 C 316.597 62.801,316.832 62.914,316.832 63.053 C 316.832 63.343,313.199 64.215,311.988 64.215 L 311.174 64.215 311.168 40.806 L 311.162 17.397 307.580 14.434 L 303.997 11.471 272.720 11.263 C 255.517 11.148,212.928 10.859,178.076 10.619 C 143.225 10.379,110.538 10.177,105.440 10.169 L 96.169 10.155 91.933 13.069 L 87.697 15.983 87.696 39.425 L 87.694 62.867 87.058 62.685 C 86.708 62.586,86.086 62.431,85.677 62.341 L 84.932 62.177 84.726 48.840 C 84.613 41.504,84.630 29.600,84.764 22.385 L 85.007 9.269 90.806 6.069 L 96.605 2.869 104.526 2.856 C 108.883 2.849,155.822 3.149,208.835 3.522 M26.840 9.247 L 27.796 9.412 27.600 18.780 C 27.403 28.191,26.396 56.019,26.247 56.166 C 26.083 56.328,18.120 54.832,14.710 53.999 C 10.267 52.913,8.085 51.892,6.476 50.146 L 5.233 48.798 14.922 48.723 L 24.611 48.649 24.626 46.177 C 24.635 44.818,24.809 38.041,25.014 31.117 C 25.219 24.194,25.371 18.513,25.352 18.494 C 25.334 18.475,21.310 18.307,16.412 18.121 C 6.480 17.745,7.180 17.860,7.525 16.669 C 7.738 15.932,8.649 15.218,13.154 12.254 L 18.529 8.718 22.207 8.901 C 24.229 9.001,26.314 9.157,26.840 9.247 M386.841 12.288 C 391.470 15.318,392.244 15.927,392.444 16.702 C 392.749 17.876,393.676 17.728,383.593 18.117 C 378.692 18.306,374.656 18.480,374.624 18.505 C 374.592 18.530,374.749 24.847,374.971 32.542 C 375.194 40.238,375.379 47.010,375.383 47.592 L 375.389 48.649 385.070 48.723 L 394.752 48.798 393.680 49.984 C 391.833 52.028,389.457 53.082,383.876 54.333 C 380.346 55.125,373.863 56.275,373.722 56.135 C 373.529 55.944,372.601 30.571,372.391 19.755 L 372.190 9.383 373.436 9.216 C 374.964 9.012,376.885 8.887,379.491 8.822 L 381.471 8.774 386.841 12.288 M82.037 9.822 C 82.251 10.014,82.181 59.922,81.966 60.137 C 81.863 60.240,70.030 59.573,55.670 58.656 L 29.562 56.987 29.626 44.123 C 29.688 31.733,30.182 10.433,30.426 9.676 C 30.540 9.321,81.639 9.466,82.037 9.822 M369.568 10.537 C 369.774 12.152,370.241 30.182,370.457 44.896 L 370.632 56.836 369.970 56.973 C 369.033 57.166,319.314 60.285,319.188 60.159 C 319.101 60.073,318.556 19.756,318.535 11.954 L 318.529 9.623 334.300 9.547 C 342.974 9.506,354.423 9.441,359.742 9.404 L 369.414 9.335 369.568 10.537 M51.096 10.912 C 28.931 15.868,25.138 45.547,45.403 55.460 C 63.462 64.294,83.569 48.162,78.916 28.571 C 76.031 16.426,63.112 8.225,51.096 10.912 M339.325 10.917 C 317.186 15.876,313.413 45.554,333.663 55.460 C 351.592 64.230,371.830 48.149,367.222 28.795 C 364.264 16.368,351.502 8.190,339.325 10.917 M156.153 12.720 C 174.434 12.863,213.642 13.120,243.281 13.290 C 272.921 13.461,298.575 13.670,300.290 13.755 L 303.409 13.909 306.160 16.187 L 308.911 18.464 308.911 40.915 L 308.911 63.366 199.434 63.366 L 89.958 63.366 89.971 40.240 L 89.985 17.115 93.295 14.808 L 96.605 12.502 109.760 12.481 C 116.994 12.470,137.871 12.577,156.153 12.720 M60.164 13.174 C 77.010 16.653,83.056 37.132,70.857 49.392 C 57.400 62.917,34.336 53.223,34.443 34.088 C 34.520 20.466,46.866 10.427,60.164 13.174 M348.455 13.180 C 365.270 16.653,371.294 37.125,359.112 49.392 C 345.664 62.935,322.607 53.245,322.697 34.088 C 322.760 20.465,335.127 10.427,348.455 13.180 M19.774 20.550 L 22.999 20.724 22.810 29.245 C 22.707 33.931,22.541 39.707,22.442 42.079 L 22.262 46.393 13.258 46.393 L 4.254 46.393 4.066 45.643 C 3.471 43.274,5.418 24.624,6.685 20.545 C 6.858 19.986,9.367 19.987,19.774 20.550 M393.326 20.580 C 394.477 24.288,396.413 42.760,395.923 45.368 L 395.731 46.393 386.692 46.393 C 378.278 46.393,377.651 46.359,377.633 45.898 C 377.505 42.586,376.909 20.774,376.945 20.721 C 377.008 20.628,387.233 20.183,390.575 20.128 C 392.824 20.091,393.193 20.151,393.326 20.580 M178.468 31.825 C 172.955 33.593,172.729 43.077,178.150 45.169 C 183.116 47.085,187.784 44.680,188.474 39.852 C 189.342 33.772,184.503 29.889,178.468 31.825 M206.757 31.825 C 201.244 33.593,201.018 43.077,206.439 45.169 C 211.404 47.085,216.073 44.680,216.762 39.852 C 217.630 33.772,212.791 29.889,206.757 31.825 M160.396 33.369 L 160.396 35.054 162.588 35.137 L 164.781 35.219 164.858 40.382 L 164.935 45.545 167.044 45.545 L 169.153 45.545 169.230 40.382 L 169.307 35.219 171.499 35.137 L 173.692 35.054 173.692 33.369 L 173.692 31.683 167.044 31.683 L 160.396 31.683 160.396 33.369 M188.295 32.037 C 188.410 32.231,189.627 34.074,190.999 36.131 L 193.494 39.872 193.494 42.708 L 193.494 45.545 195.615 45.545 L 197.737 45.545 197.737 42.729 L 197.737 39.913 200.424 35.956 C 201.902 33.779,203.112 31.922,203.112 31.830 C 203.112 31.737,202.008 31.698,200.658 31.743 L 198.204 31.825 197.051 33.714 C 196.417 34.752,195.818 35.682,195.719 35.779 C 195.620 35.875,194.984 34.995,194.305 33.822 L 193.069 31.690 190.577 31.687 C 188.660 31.684,188.134 31.765,188.295 32.037 M217.539 33.369 L 217.539 35.054 219.731 35.137 L 221.924 35.219 222.001 40.382 L 222.078 45.545 224.187 45.545 L 226.296 45.545 226.373 40.382 L 226.450 35.219 228.642 35.137 L 230.835 35.054 230.835 33.369 L 230.835 31.683 224.187 31.683 L 217.539 31.683 217.539 33.369 M234.939 32.026 C 234.868 32.226,233.725 35.255,232.398 38.755 C 231.072 42.256,229.987 45.216,229.986 45.332 C 229.986 45.449,230.984 45.545,232.204 45.545 L 234.422 45.545 234.761 44.413 L 235.101 43.281 237.449 43.281 L 239.797 43.281 240.136 44.413 L 240.475 45.545 242.727 45.545 C 243.966 45.545,244.979 45.434,244.979 45.300 C 244.979 45.165,243.849 42.078,242.469 38.440 L 239.960 31.825 237.514 31.743 C 235.714 31.683,235.034 31.757,234.939 32.026 M182.703 35.198 C 184.816 36.291,184.662 41.238,182.486 42.139 C 179.985 43.175,178.638 41.459,178.756 37.390 C 178.813 35.431,180.906 34.269,182.703 35.198 M210.992 35.198 C 213.105 36.291,212.951 41.238,210.775 42.139 C 209.035 42.860,207.163 41.654,207.059 39.745 C 206.835 35.653,208.391 33.853,210.992 35.198 M238.755 39.942 C 238.755 40.067,238.182 40.170,237.482 40.170 C 236.006 40.170,236.027 40.247,236.814 37.724 L 237.419 35.785 238.087 37.750 C 238.455 38.830,238.755 39.817,238.755 39.942 M6.054 52.877 C 8.457 54.787,13.421 56.327,22.047 57.838 C 24.293 58.232,26.203 58.667,26.290 58.805 C 26.423 59.014,78.840 62.531,81.663 62.521 C 82.377 62.518,82.582 62.647,82.654 63.143 C 82.727 63.650,83.169 63.907,85.007 64.512 C 86.252 64.922,87.461 65.338,87.694 65.436 C 87.928 65.535,138.720 65.804,200.566 66.033 L 313.013 66.451 315.983 65.828 L 318.953 65.205 319.038 63.899 L 319.123 62.593 321.160 62.421 C 322.280 62.326,334.526 61.531,348.373 60.653 C 362.221 59.775,373.619 58.948,373.704 58.815 C 373.788 58.681,375.634 58.244,377.806 57.844 C 389.407 55.705,392.362 54.631,395.305 51.486 C 396.020 50.721,396.608 50.249,396.612 50.436 C 396.616 50.624,396.404 53.983,396.140 57.901 L 395.662 65.024 394.365 65.186 C 390.506 65.668,361.389 67.801,343.989 68.876 C 317.275 70.526,293.839 71.531,259.972 72.478 C 242.990 72.953,176.106 72.953,158.699 72.478 C 103.875 70.981,55.664 68.213,9.760 63.926 C 6.492 63.621,3.596 63.370,3.324 63.369 C 2.866 63.367,2.829 62.839,2.829 56.266 L 2.829 49.165 3.900 50.591 C 4.490 51.376,5.459 52.404,6.054 52.877 " stroke="none" fill="#000000" fill-rule="evenodd"></path></g></svg>