<svg width="856" height="367" viewBox="0 0 856 367" fill="none" xmlns="http://www.w3.org/2000/svg">
<g clip-path="url(#clip0_1710_326)">
<path d="M180 183L180 345" stroke="black" stroke-width="4"/>
<path d="M678.5 348.5V184.5" stroke="black" stroke-width="4"/>
<path d="M49.5 81L8.42894 122.071C6.55357 123.946 5.5 126.49 5.5 129.142V288.576C5.5 291.681 6.94204 294.609 9.40289 296.502L18.5 303.5" stroke="black" stroke-width="4"/>
<path d="M819 82C828.705 92.7829 838.721 107.677 848.475 119.114C850.078 120.994 851 123.367 851 125.837V285.694C851 288.732 849.619 291.605 847.247 293.502L836 302.5" stroke="black" stroke-width="4"/>
<path d="M20.037 199.155L31.0176 186.844C32.915 184.717 35.6301 183.5 38.4806 183.5H820.354C823.3 183.5 826.096 184.799 827.996 187.051L836.143 196.706C837.665 198.51 838.5 200.795 838.5 203.155V296.187C838.5 300.713 835.46 304.675 831.088 305.846L678.772 346.659C677.928 346.885 677.057 347 676.183 347H180.235C179.415 347 178.598 346.899 177.802 346.7L25.0676 308.398C20.6194 307.282 17.5 303.284 17.5 298.698V205.812C17.5 203.357 18.403 200.988 20.037 199.155Z" stroke="black" stroke-width="4"/>
<path d="M642 247H217C211.477 247 207 251.477 207 257V287.9C207 290.026 207.662 292.109 209.068 293.703C210.646 295.492 212.935 297.793 215.237 299.086C219.938 301.724 229.475 303 229.475 303H628.13C628.726 303 629.319 302.948 629.903 302.828C632.231 302.349 638.655 300.887 642.513 298.626C644.85 297.256 647.476 294.872 649.371 292.997C651.113 291.274 652 288.899 652 286.449V257C652 251.477 647.523 247 642 247Z" stroke="black" stroke-width="4"/>
<path d="M207.5 271.5H651.5" stroke="black" stroke-width="4"/>
<path d="M120.5 231H69.5C58.4543 231 49.5 239.954 49.5 251V271.604C49.5 276.072 50.9962 280.412 53.7499 283.93L62.1079 294.61C65.5454 299.002 70.6609 301.76 76.2197 302.217L118.862 305.722C130.514 306.679 140.5 297.481 140.5 285.789V251C140.5 239.954 131.546 231 120.5 231Z" stroke="black" stroke-width="4"/>
<circle cx="93.5" cy="267.5" r="28.5" stroke="black" stroke-width="4"/>
<path d="M739 227H790C801.046 227 810 235.954 810 247V267.604C810 272.072 808.504 276.412 805.75 279.93L797.392 290.61C793.955 295.002 788.839 297.76 783.28 298.217L740.638 301.722C728.986 302.679 719 293.481 719 281.789V247C719 235.954 727.954 227 739 227Z" stroke="black" stroke-width="4"/>
<circle cx="30.5" cy="30.5" r="28.5" transform="matrix(-1 0 0 1 796.5 233)" stroke="black" stroke-width="4"/>
<path d="M70.5 61.0001L83.877 37.2006C87.4184 30.8999 94.0839 27.0001 101.312 27.0001H196.141C199.652 27.0001 203.101 26.076 206.141 24.3207L219.359 16.6893C222.399 14.9339 225.848 14.0098 229.359 14.0098H626.641C630.152 14.0098 633.601 14.9339 636.641 16.6893L649.859 24.3207C652.899 26.076 656.348 27.0001 659.859 27.0001H764.953C772.098 27.0001 778.701 30.8121 782.274 37.0002L796.13 61.0001" stroke="black" stroke-width="4"/>
<path d="M48 139L42.1674 143.01C40.8106 143.943 40 145.484 40 147.13V179.5" stroke="black" stroke-width="4"/>
<path d="M818 139L823.833 143.01C825.189 143.943 826 145.484 826 147.13V179.5" stroke="black" stroke-width="4"/>
<path d="M50 79.5H75C77.7614 79.5 80 81.7386 80 84.5V129C80 131.761 77.7614 134 75 134H50" stroke="black" stroke-width="4"/>
<path d="M817 79H792C789.239 79 787 81.2386 787 84V128.5C787 131.261 789.239 133.5 792 133.5H817" stroke="black" stroke-width="4"/>
<path d="M71 60H71.409M71.409 60H197.842C198.279 60 198.714 59.9427 199.136 59.8296L231.364 51.1941C231.786 51.081 232.221 51.0237 232.658 51.0237H631.342C631.779 51.0237 632.214 51.081 632.636 51.1941L664.864 59.8296C665.286 59.9427 665.721 60 666.158 60H795.928C796.951 60 797.95 60.3139 798.789 60.8993L816.861 73.5076C818.201 74.4427 819 75.9739 819 77.6082V135.098C819 136.323 818.55 137.506 817.735 138.421L805.635 152.021C804.79 152.971 803.614 153.563 802.348 153.678L666.597 165.901C665.874 165.966 665.174 166.188 664.546 166.551L653.67 172.83C652.91 173.269 652.048 173.5 651.17 173.5H213.658C213.221 173.5 212.786 173.443 212.364 173.33L198.858 169.711C198.62 169.647 198.377 169.601 198.132 169.573L63.7335 154.198C62.611 154.07 61.5651 153.565 60.7662 152.766L49.9645 141.964C49.0268 141.027 48.5 139.755 48.5 138.429V81.349C48.5 79.861 49.1627 78.4503 50.3081 77.5004L71.409 60Z" stroke="black" stroke-width="4"/>
<path d="M212 173.5V87.6421C212 84.99 213.054 82.4464 214.929 80.5711L221.571 73.9289C223.446 72.0536 225.99 71 228.642 71H629.32C631.076 71 632.8 71.4621 634.321 72.3397L646.919 79.6132C650.013 81.3996 651.919 84.7008 651.919 88.2735V173" stroke="black" stroke-width="4"/>
<line opacity="0.5" x1="775" y1="61" x2="775" y2="158" stroke="black" stroke-width="4"/>
<line opacity="0.5" x1="92" y1="60" x2="92" y2="157" stroke="black" stroke-width="4"/>
<circle opacity="0.5" cx="146.5" cy="111.5" r="49.5" stroke="black" stroke-width="4"/>
<circle opacity="0.5" cx="719.5" cy="110.5" r="49.5" stroke="black" stroke-width="4"/>
<line x1="201" y1="60" x2="201" y2="169" stroke="black" stroke-width="4"/>
<line x1="664" y1="59" x2="664" y2="168" stroke="black" stroke-width="4"/>
<path d="M386.588 107.111C385.688 108.402 384.909 109.737 384.262 111.111H214V130H383.864C384.446 131.372 385.159 132.707 385.991 134H210V107.111H386.588ZM654 134H477.009C477.841 132.707 478.554 131.372 479.136 130H650V111.111H478.738C478.091 109.737 477.312 108.402 476.412 107.111H654V134Z" fill="black"/>
<line x1="213" y1="99" x2="398" y2="99" stroke="black" stroke-width="4"/>
<line x1="465" y1="99" x2="650" y2="99" stroke="black" stroke-width="4"/>
<line x1="213" y1="143" x2="398" y2="143" stroke="black" stroke-width="4"/>
<line x1="465" y1="143" x2="650" y2="143" stroke="black" stroke-width="4"/>
<path d="M431.5 90C444.829 90 456.806 93.605 465.393 99.3291C473.993 105.063 479 112.764 479 121C479 129.236 473.993 136.937 465.393 142.671C456.806 148.395 444.829 152 431.5 152C418.171 152 406.194 148.395 397.607 142.671C389.007 136.937 384 129.236 384 121C384 112.764 389.007 105.063 397.607 99.3291C406.194 93.605 418.171 90 431.5 90Z" stroke="black" stroke-width="4"/>
</g>
<defs>
<clipPath id="clip0_1710_326">
<rect width="856" height="367" fill="white"/>
</clipPath>
</defs>
</svg>
