<svg width="780" height="324" viewBox="0 0 780 324" fill="none" xmlns="http://www.w3.org/2000/svg">
<path d="M74.2861 188.322C74.2861 188.322 265.233 193.628 387.613 193.628C509.992 193.628 700.939 188.322 700.939 188.322" stroke="black" stroke-width="4"/>
<path d="M75.3465 126.24V183.853C75.3465 186.614 73.108 188.853 70.3465 188.853H38.2037M38.2037 188.853H20.918C18.1565 188.853 15.918 186.614 15.918 183.853V139.454C15.918 138.128 16.4448 136.856 17.3824 135.919L29.6681 123.633C32.818 120.483 38.2037 122.714 38.2037 127.168V188.853Z" stroke="black" stroke-width="4"/>
<path d="M701.47 129.424V187.036C701.47 189.798 703.708 192.036 706.47 192.036H738.613M738.613 192.036H755.898C758.66 192.036 760.898 189.798 760.898 187.036V142.638C760.898 141.312 760.372 140.04 759.434 139.102L747.148 126.817C743.998 123.667 738.613 125.898 738.613 130.352V192.036Z" stroke="black" stroke-width="4"/>
<path d="M40.2656 76.8933H68.5105C69.0628 76.8933 69.5105 77.341 69.5105 77.8933V123.49C69.5105 124.148 68.8868 124.626 68.2517 124.456L40.0068 116.888C39.5696 116.771 39.2656 116.375 39.2656 115.922V77.8933C39.2656 77.341 39.7133 76.8933 40.2656 76.8933Z" stroke="black" stroke-width="4"/>
<path d="M42.5809 71.5872H74.3459C74.8982 71.5872 75.3459 72.0349 75.3459 72.5872V133.832C75.3459 134.497 74.7075 134.977 74.068 134.792L39.7299 124.857C39.3022 124.734 39.0078 124.342 39.0078 123.897V78.6874C39.0078 78.5539 39.0345 78.4217 39.0864 78.2987L41.6595 72.1985C41.8157 71.828 42.1787 71.5872 42.5809 71.5872Z" stroke="black" stroke-width="4"/>
<path d="M736.551 77.9546H708.306C707.754 77.9546 707.306 78.4023 707.306 78.9546V124.551C707.306 125.209 707.93 125.687 708.565 125.517L736.81 117.949C737.247 117.832 737.551 117.436 737.551 116.983V78.9546C737.551 78.4023 737.103 77.9546 736.551 77.9546Z" stroke="black" stroke-width="4"/>
<path d="M734.235 72.6484H702.47C701.917 72.6484 701.47 73.0962 701.47 73.6484V134.893C701.47 135.559 702.108 136.039 702.747 135.854L737.086 125.919C737.513 125.795 737.808 125.403 737.808 124.958V79.7487C737.808 79.6152 737.781 79.483 737.729 79.36L735.156 73.2598C735 72.8893 734.637 72.6484 734.235 72.6484Z" stroke="black" stroke-width="4"/>
<path d="M676.306 69.9954H102.102C99.3401 69.9954 97.1016 72.2339 97.1016 74.9954V133.19C97.1016 134.516 97.6283 135.787 98.566 136.725L118.453 156.613C119.391 157.55 120.663 158.077 121.989 158.077H659.602C660.928 158.077 662.2 157.55 663.138 156.613L679.841 139.909C680.779 138.971 681.306 137.699 681.306 136.373V74.9954C681.306 72.2339 679.067 69.9954 676.306 69.9954Z" stroke="black" stroke-width="4"/>
<circle cx="146.98" cy="113.506" r="39.9184" stroke="black" stroke-width="4"/>
<circle cx="633.02" cy="113.506" r="39.9184" stroke="black" stroke-width="4"/>
<mask id="mask0_1708_79" style="mask-type:alpha" maskUnits="userSpaceOnUse" x="0" y="47" width="780" height="127">
<line x1="159.567" y1="48.3779" x2="458.832" y2="172.541" stroke="black" stroke-width="2"/>
<line x1="209.445" y1="48.3779" x2="508.71" y2="172.541" stroke="black" stroke-width="2"/>
<line x1="259.322" y1="48.3779" x2="558.587" y2="172.541" stroke="black" stroke-width="2"/>
<line x1="309.2" y1="48.3779" x2="608.465" y2="172.541" stroke="black" stroke-width="2"/>
<line x1="359.078" y1="48.3779" x2="658.343" y2="172.541" stroke="black" stroke-width="2"/>
<line x1="408.955" y1="48.3779" x2="708.22" y2="172.541" stroke="black" stroke-width="2"/>
<line x1="458.832" y1="48.3779" x2="758.098" y2="172.541" stroke="black" stroke-width="2"/>
<line x1="106.505" y1="48.3779" x2="405.771" y2="172.541" stroke="black" stroke-width="2"/>
<line x1="53.4447" y1="48.3779" x2="352.71" y2="172.541" stroke="black" stroke-width="2"/>
<line x1="0.38322" y1="48.3779" x2="299.649" y2="172.541" stroke="black" stroke-width="2"/>
<line y1="-1" x2="324" y2="-1" transform="matrix(-0.923657 0.38322 0.38322 0.923657 620.816 49.3015)" stroke="black" stroke-width="2"/>
<line y1="-1" x2="324" y2="-1" transform="matrix(-0.923657 0.38322 0.38322 0.923657 570.938 49.3015)" stroke="black" stroke-width="2"/>
<line y1="-1" x2="324" y2="-1" transform="matrix(-0.923657 0.38322 0.38322 0.923657 521.062 49.3015)" stroke="black" stroke-width="2"/>
<line y1="-1" x2="324" y2="-1" transform="matrix(-0.923657 0.38322 0.38322 0.923657 471.184 49.3015)" stroke="black" stroke-width="2"/>
<line y1="-1" x2="324" y2="-1" transform="matrix(-0.923657 0.38322 0.38322 0.923657 421.306 49.3015)" stroke="black" stroke-width="2"/>
<line y1="-1" x2="324" y2="-1" transform="matrix(-0.923657 0.38322 0.38322 0.923657 371.429 49.3015)" stroke="black" stroke-width="2"/>
<line y1="-1" x2="324" y2="-1" transform="matrix(-0.923657 0.38322 0.38322 0.923657 321.551 49.3015)" stroke="black" stroke-width="2"/>
<line y1="-1" x2="324" y2="-1" transform="matrix(-0.923657 0.38322 0.38322 0.923657 673.878 49.3015)" stroke="black" stroke-width="2"/>
<line y1="-1" x2="324" y2="-1" transform="matrix(-0.923657 0.38322 0.38322 0.923657 726.938 49.3015)" stroke="black" stroke-width="2"/>
<line y1="-1" x2="324" y2="-1" transform="matrix(-0.923657 0.38322 0.38322 0.923657 780 49.3015)" stroke="black" stroke-width="2"/>
</mask>
<g mask="url(#mask0_1708_79)">
<path opacity="0.5" d="M561.388 72.6484C561.388 72.6484 564.571 97.8255 564.571 114.036C564.571 130.224 561.397 155.352 561.388 155.424H219.674C219.666 155.362 216.49 130.227 216.49 114.036C216.49 97.8255 219.674 72.6484 219.674 72.6484H561.388ZM314.122 95.9951V122.526H462.694V95.9951H314.122Z" fill="black"/>
</g>
<path d="M317.306 103.736V100.494H338.175V103.736H330.395V119.088H325.085V103.736H317.306Z" fill="black"/>
<path d="M363.802 109.791C363.802 111.819 363.277 113.544 362.227 114.966C361.184 116.389 359.762 117.475 357.958 118.226C356.164 118.97 354.145 119.342 351.904 119.342C349.646 119.342 347.619 118.967 345.824 118.216C344.029 117.466 342.611 116.38 341.568 114.957C340.526 113.535 340.005 111.813 340.005 109.791C340.005 107.764 340.526 106.039 341.568 104.616C342.611 103.194 344.029 102.11 345.824 101.366C347.619 100.615 349.646 100.24 351.904 100.24C354.145 100.24 356.164 100.615 357.958 101.366C359.762 102.11 361.184 103.194 362.227 104.616C363.277 106.039 363.802 107.764 363.802 109.791ZM358.355 109.791C358.355 108.478 358.087 107.37 357.549 106.468C357.02 105.567 356.271 104.883 355.303 104.417C354.335 103.95 353.202 103.717 351.904 103.717C350.605 103.717 349.472 103.95 348.504 104.417C347.536 104.883 346.784 105.567 346.246 106.468C345.716 107.37 345.452 108.478 345.452 109.791C345.452 111.105 345.716 112.212 346.246 113.114C346.784 114.016 347.536 114.7 348.504 115.166C349.472 115.632 350.605 115.865 351.904 115.865C353.202 115.865 354.335 115.632 355.303 115.166C356.271 114.7 357.02 114.016 357.549 113.114C358.087 112.212 358.355 111.105 358.355 109.791Z" fill="black"/>
<path d="M364.758 100.494H370.775L376.57 108.502H376.818L382.612 100.494H388.629L379.361 112.515V119.088H374.026V112.515L364.758 100.494Z" fill="black"/>
<path d="M413.379 109.791C413.379 111.819 412.854 113.544 411.803 114.966C410.761 116.389 409.338 117.475 407.535 118.226C405.74 118.97 403.722 119.342 401.48 119.342C399.222 119.342 397.196 118.967 395.401 118.216C393.606 117.466 392.187 116.38 391.145 114.957C390.103 113.535 389.582 111.813 389.582 109.791C389.582 107.764 390.103 106.039 391.145 104.616C392.187 103.194 393.606 102.11 395.401 101.366C397.196 100.615 399.222 100.24 401.48 100.24C403.722 100.24 405.74 100.615 407.535 101.366C409.338 102.11 410.761 103.194 411.803 104.616C412.854 106.039 413.379 107.764 413.379 109.791ZM407.932 109.791C407.932 108.478 407.663 107.37 407.126 106.468C406.596 105.567 405.848 104.883 404.88 104.417C403.912 103.95 402.779 103.717 401.48 103.717C400.182 103.717 399.049 103.95 398.081 104.417C397.113 104.883 396.36 105.567 395.823 106.468C395.293 107.37 395.029 108.478 395.029 109.791C395.029 111.105 395.293 112.212 395.823 113.114C396.36 114.016 397.113 114.7 398.081 115.166C399.049 115.632 400.182 115.865 401.48 115.865C402.779 115.865 403.912 115.632 404.88 115.166C405.848 114.7 406.596 114.016 407.126 113.114C407.663 112.212 407.932 111.105 407.932 109.791Z" fill="black"/>
<path d="M415.231 103.736V100.494H436.1V103.736H428.321V119.088H423.01V103.736H415.231Z" fill="black"/>
<path d="M440.812 119.088H435.055L443.827 100.494H450.75L459.51 119.088H453.753L447.388 104.743H447.189L440.812 119.088ZM440.452 111.78H454.051V114.848H440.452V111.78Z" fill="black"/>
<path d="M559.594 69.3423C559.674 70.0934 559.778 71.0637 559.896 72.2163C560.194 75.1232 560.59 79.1871 560.987 83.814C561.782 93.084 562.572 104.555 562.572 113.505C562.572 122.456 561.782 133.927 560.987 143.197C560.591 147.824 560.194 151.888 559.896 154.794C559.778 155.947 559.674 156.917 559.594 157.668H221.469C221.388 156.917 221.284 155.947 221.166 154.794C220.868 151.888 220.472 147.824 220.075 143.197C219.28 133.927 218.49 122.456 218.49 113.505C218.49 104.555 219.28 93.084 220.075 83.814C220.472 79.1871 220.868 75.1231 221.166 72.2163C221.284 71.0637 221.388 70.0934 221.469 69.3423H559.594Z" stroke="black" stroke-width="4"/>
<path d="M76.4086 70.5261L73.6762 65.4516C73.0475 64.284 72.9084 62.9145 73.2895 61.6444L87.5437 14.1301C88.1782 12.0152 90.1248 10.5669 92.3329 10.5669H98.1637M700.939 69.4649L702.971 64.1822C703.373 63.1358 703.413 61.9845 703.082 60.9133L689.292 16.2154C688.646 14.1192 686.708 12.6894 684.515 12.6894H679.184M679.184 12.6894H612.282C610.955 12.6894 609.684 12.1626 608.746 11.2249L601.587 4.06627C600.65 3.12859 599.378 2.60181 598.052 2.60181H454.159C452.833 2.60181 451.561 3.12859 450.624 4.06627L443.465 11.2249C442.527 12.1626 441.255 12.6894 439.929 12.6894H335.833C334.506 12.6894 333.235 12.1626 332.297 11.2249L325.138 4.06627C324.201 3.12859 322.929 2.60181 321.603 2.60181H180.687C179.809 2.60181 178.947 2.83284 178.187 3.27168L166.712 9.89701C165.952 10.3359 165.089 10.5669 164.212 10.5669H98.1637M679.184 12.6894L682.967 57.1429C683.216 60.0611 680.914 62.5669 677.985 62.5669H553.378C552.052 62.5669 550.78 62.0402 549.842 61.1025L537.383 48.6437C536.446 47.706 535.174 47.1792 533.848 47.1792H243.844C242.63 47.1792 241.456 47.6215 240.544 48.4234L225.881 61.3085C224.959 62.119 223.771 62.5618 222.543 62.5526L98.8366 61.6187C95.9062 61.5966 93.6229 59.0705 93.8961 56.1528L98.1637 10.5669" stroke="black" stroke-width="4"/>
<rect x="336.408" y="168.159" width="107.184" height="16.9796" rx="1" stroke="black" stroke-width="4"/>
<path d="M324.796 168.159H222.12C221.312 168.159 220.838 169.068 221.3 169.73L232.11 185.241C232.297 185.509 232.603 185.669 232.93 185.669H324.796C325.348 185.669 325.796 185.221 325.796 184.669V169.159C325.796 168.606 325.348 168.159 324.796 168.159Z" stroke="black" stroke-width="4"/>
<path d="M454.143 168.159H556.818C557.627 168.159 558.101 169.068 557.639 169.73L546.829 185.241C546.642 185.509 546.335 185.669 546.008 185.669H454.143C453.59 185.669 453.143 185.221 453.143 184.669V169.159C453.143 168.606 453.59 168.159 454.143 168.159Z" stroke="black" stroke-width="4"/>
<path d="M587.388 69.9954V158.077" stroke="black" stroke-width="4"/>
<path d="M193.143 69.4648V157.546" stroke="black" stroke-width="4"/>
<path d="M701.469 187.261V70.4648C701.469 69.9126 701.021 69.4648 700.469 69.4648H76.3467C75.7944 69.4648 75.3467 69.9126 75.3467 70.4648V168.773" stroke="black" stroke-width="4"/>
<mask id="path-41-inside-1_1708_79" fill="white">
<rect x="140.082" y="199.995" width="497.714" height="116.735" rx="1"/>
</mask>
<rect x="140.082" y="199.995" width="497.714" height="116.735" rx="1" stroke="black" stroke-width="8" mask="url(#path-41-inside-1_1708_79)"/>
<path d="M142.204 316.506V207.648C142.204 204.887 139.965 202.648 137.204 202.648H39.8843C38.098 202.648 36.4474 203.601 35.5542 205.148L33.0722 209.447C32.6334 210.207 32.4023 211.07 32.4023 211.947V282.643C32.4023 283.08 32.4596 283.515 32.5727 283.937L38.9589 307.771C39.4681 309.671 41.0443 311.096 42.9861 311.412L104.662 321.441C104.928 321.484 105.196 321.506 105.465 321.506H137.204C139.965 321.506 142.204 319.267 142.204 316.506Z" stroke="black" stroke-width="4"/>
<path d="M32.3677 211.138H15.082C12.3206 211.138 10.082 213.377 10.082 216.138V283.023C10.082 283.901 10.3131 284.763 10.7519 285.523L18.9546 299.73C19.5549 300.77 20.5092 301.559 21.6432 301.953L38.2045 307.71" stroke="black" stroke-width="4"/>
<path d="M41.918 255.348V219.567C41.918 219.015 42.3657 218.567 42.918 218.567H87.6118C88.1641 218.567 88.6118 219.015 88.6118 219.567V260.426C88.6118 261.023 88.0921 261.487 87.4989 261.42L42.8051 256.341C42.2997 256.284 41.918 255.856 41.918 255.348Z" stroke="black" stroke-width="4"/>
<circle cx="60.4896" cy="237.138" r="10.7347" stroke="black" stroke-width="4"/>
<path d="M635.673 315.975V207.118C635.673 204.356 637.912 202.118 640.673 202.118H737.993C739.779 202.118 741.43 203.071 742.323 204.618L744.805 208.917C745.244 209.677 745.475 210.539 745.475 211.417V282.113C745.475 282.55 745.417 282.985 745.304 283.407L738.918 307.241C738.409 309.141 736.833 310.566 734.891 310.882L673.215 320.91C672.949 320.953 672.681 320.975 672.412 320.975H640.673C637.912 320.975 635.673 318.736 635.673 315.975Z" stroke="black" stroke-width="4"/>
<path d="M745.51 210.608H762.796C765.557 210.608 767.796 212.846 767.796 215.608V282.492C767.796 283.37 767.565 284.232 767.126 284.992L758.923 299.2C758.323 300.24 757.369 301.029 756.235 301.423L739.673 307.179" stroke="black" stroke-width="4"/>
<path d="M735.959 254.817V219.036C735.959 218.484 735.511 218.036 734.959 218.036H690.265C689.713 218.036 689.265 218.484 689.265 219.036V259.896C689.265 260.493 689.785 260.957 690.378 260.889L735.072 255.81C735.577 255.753 735.959 255.325 735.959 254.817Z" stroke="black" stroke-width="4"/>
<circle cx="12.7347" cy="12.7347" r="10.7347" transform="matrix(-1 0 0 1 730.122 223.873)" stroke="black" stroke-width="4"/>
<rect x="162.245" y="215.791" width="449.143" height="15.102" rx="3" stroke="black" stroke-width="4"/>
<line x1="229.102" y1="216.975" x2="229.102" y2="229.71" stroke="black" stroke-width="4"/>
<line x1="307.633" y1="216.975" x2="307.633" y2="229.71" stroke="black" stroke-width="4"/>
<line x1="386.163" y1="216.975" x2="386.163" y2="229.71" stroke="black" stroke-width="4"/>
<line x1="464.694" y1="216.975" x2="464.694" y2="229.71" stroke="black" stroke-width="4"/>
<line x1="543.225" y1="216.975" x2="543.225" y2="229.71" stroke="black" stroke-width="4"/>
<rect x="309.755" y="231.71" width="154.122" height="56.4898" rx="3" stroke="black" stroke-width="4"/>
</svg>
