<svg width="735" height="138" viewBox="0 0 735 138" fill="none" xmlns="http://www.w3.org/2000/svg">
<path d="M512.027 19H221.081C220.242 19 219.776 18.0301 220.3 17.3753L230.7 4.3753C230.89 4.13809 231.177 4 231.481 4H502.493C502.812 4 503.111 4.15176 503.3 4.40864L512.833 17.4086C513.317 18.0692 512.846 19 512.027 19Z" stroke="black" stroke-width="4"/>
<path d="M70 131C70 131 249.931 136 365.25 136C480.569 136 660.5 131 660.5 131" stroke="black" stroke-width="4"/>
<path d="M71 72.5V130.5C71 131.052 70.5523 131.5 70 131.5H36M36 131.5H16C15.4477 131.5 15 131.052 15 130.5V83.4142C15 83.149 15.1054 82.8946 15.2929 82.7071L34.2929 63.7071C34.9229 63.0771 36 63.5233 36 64.4142V131.5Z" stroke="black" stroke-width="4"/>
<path d="M661 75.5V133.5C661 134.052 661.448 134.5 662 134.5H696M696 134.5H716C716.552 134.5 717 134.052 717 133.5V86.4142C717 86.149 716.895 85.8946 716.707 85.7071L697.707 66.7071C697.077 66.0771 696 66.5233 696 67.4142V134.5Z" stroke="black" stroke-width="4"/>
<path d="M38 26H64.5C65.0523 26 65.5 26.4477 65.5 27V69.8333C65.5 70.4909 64.8763 70.9694 64.2412 70.7993L37.7412 63.6986C37.304 63.5815 37 63.1853 37 62.7327V27C37 26.4477 37.4477 26 38 26Z" stroke="black" stroke-width="4"/>
<path d="M40.163 21H69.9995C70.5518 21 70.9995 21.4477 70.9995 22V79.5767C70.9995 80.2425 70.3611 80.7224 69.7216 80.5373L37.4799 71.2089C37.0522 71.0852 36.7578 70.6936 36.7578 70.2483V27.7023C36.7578 27.5688 36.7845 27.4366 36.8364 27.3136L39.2416 21.6114C39.3979 21.2409 39.7609 21 40.163 21Z" stroke="black" stroke-width="4"/>
<path d="M694 27H667.5C666.948 27 666.5 27.4477 666.5 28V70.8333C666.5 71.4909 667.124 71.9694 667.759 71.7993L694.259 64.6986C694.696 64.5815 695 64.1853 695 63.7327V28C695 27.4477 694.552 27 694 27Z" stroke="black" stroke-width="4"/>
<path d="M691.837 22H662.001C661.448 22 661.001 22.4477 661.001 23V80.5767C661.001 81.2425 661.639 81.7224 662.278 81.5373L694.52 72.2089C694.948 72.0852 695.242 71.6936 695.242 71.2483V28.7023C695.242 28.5688 695.215 28.4366 695.164 28.3136L692.758 22.6114C692.602 22.2409 692.239 22 691.837 22Z" stroke="black" stroke-width="4"/>
<path d="M637 19.5H96.5C93.7386 19.5 91.5 21.7386 91.5 24.5V78.9289C91.5 80.255 92.0268 81.5268 92.9645 82.4645L111.536 101.036C112.473 101.973 113.745 102.5 115.071 102.5H621.429C622.755 102.5 624.027 101.973 624.964 101.036L640.536 85.4645C641.473 84.5268 642 83.255 642 81.9289V24.5C642 21.7386 639.761 19.5 637 19.5Z" stroke="black" stroke-width="4"/>
<circle cx="138.5" cy="60.5" r="37.5" stroke="black" stroke-width="4"/>
<circle cx="596.5" cy="60.5" r="37.5" stroke="black" stroke-width="4"/>
<mask id="mask0_1708_79" style="mask-type:alpha" maskUnits="userSpaceOnUse" x="0" y="-2" width="735" height="119">
<line x1="150.383" y1="-0.923657" x2="432.383" y2="116.076" stroke="black" stroke-width="2"/>
<line x1="197.383" y1="-0.923657" x2="479.383" y2="116.076" stroke="black" stroke-width="2"/>
<line x1="244.383" y1="-0.923657" x2="526.383" y2="116.076" stroke="black" stroke-width="2"/>
<line x1="291.383" y1="-0.923657" x2="573.383" y2="116.076" stroke="black" stroke-width="2"/>
<line x1="338.383" y1="-0.923657" x2="620.383" y2="116.076" stroke="black" stroke-width="2"/>
<line x1="385.383" y1="-0.923657" x2="667.383" y2="116.076" stroke="black" stroke-width="2"/>
<line x1="432.383" y1="-0.923657" x2="714.383" y2="116.076" stroke="black" stroke-width="2"/>
<line x1="100.383" y1="-0.923657" x2="382.383" y2="116.076" stroke="black" stroke-width="2"/>
<line x1="50.3832" y1="-0.923657" x2="332.383" y2="116.076" stroke="black" stroke-width="2"/>
<line x1="0.38322" y1="-0.923657" x2="282.383" y2="116.076" stroke="black" stroke-width="2"/>
<line y1="-1" x2="305.308" y2="-1" transform="matrix(-0.923657 0.38322 0.38322 0.923657 585 0)" stroke="black" stroke-width="2"/>
<line y1="-1" x2="305.308" y2="-1" transform="matrix(-0.923657 0.38322 0.38322 0.923657 538 0)" stroke="black" stroke-width="2"/>
<line y1="-1" x2="305.308" y2="-1" transform="matrix(-0.923657 0.38322 0.38322 0.923657 491 0)" stroke="black" stroke-width="2"/>
<line y1="-1" x2="305.308" y2="-1" transform="matrix(-0.923657 0.38322 0.38322 0.923657 444 0)" stroke="black" stroke-width="2"/>
<line y1="-1" x2="305.308" y2="-1" transform="matrix(-0.923657 0.38322 0.38322 0.923657 397 0)" stroke="black" stroke-width="2"/>
<line y1="-1" x2="305.308" y2="-1" transform="matrix(-0.923657 0.38322 0.38322 0.923657 350 0)" stroke="black" stroke-width="2"/>
<line y1="-1" x2="305.308" y2="-1" transform="matrix(-0.923657 0.38322 0.38322 0.923657 303 0)" stroke="black" stroke-width="2"/>
<line y1="-1" x2="305.308" y2="-1" transform="matrix(-0.923657 0.38322 0.38322 0.923657 635 0)" stroke="black" stroke-width="2"/>
<line y1="-1" x2="305.308" y2="-1" transform="matrix(-0.923657 0.38322 0.38322 0.923657 685 0)" stroke="black" stroke-width="2"/>
<line y1="-1" x2="305.308" y2="-1" transform="matrix(-0.923657 0.38322 0.38322 0.923657 735 0)" stroke="black" stroke-width="2"/>
</mask>
<g mask="url(#mask0_1708_79)">
<path opacity="0.5" d="M526 22C526 22 529 45.7246 529 61C529 76.2754 526 100 526 100H204C204 100 201 76.2754 201 61C201 45.7246 204 22 204 22H526ZM296 44V69H436V44H296Z" fill="black"/>
</g>
<path d="M299 51.2937V48.2395H318.665V51.2937H311.335V65.7605H306.331V51.2937H299Z" fill="black"/>
<path d="M342.814 57C342.814 58.9106 342.319 60.5361 341.329 61.8764C340.347 63.2167 339.007 64.2405 337.307 64.9477C335.616 65.6492 333.714 66 331.602 66C329.474 66 327.564 65.6464 325.873 64.9392C324.182 64.2319 322.845 63.2082 321.863 61.8679C320.881 60.5276 320.39 58.9049 320.39 57C320.39 55.0894 320.881 53.4639 321.863 52.1236C322.845 50.7833 324.182 49.7624 325.873 49.0608C327.564 48.3536 329.474 48 331.602 48C333.714 48 335.616 48.3536 337.307 49.0608C339.007 49.7624 340.347 50.7833 341.329 52.1236C342.319 53.4639 342.814 55.0894 342.814 57ZM337.682 57C337.682 55.7624 337.428 54.7186 336.922 53.8688C336.423 53.019 335.717 52.3745 334.805 51.9354C333.893 51.4962 332.826 51.2766 331.602 51.2766C330.378 51.2766 329.31 51.4962 328.398 51.9354C327.487 52.3745 326.777 53.019 326.271 53.8688C325.772 54.7186 325.522 55.7624 325.522 57C325.522 58.2376 325.772 59.2814 326.271 60.1312C326.777 60.981 327.487 61.6255 328.398 62.0646C329.31 62.5038 330.378 62.7234 331.602 62.7234C332.826 62.7234 333.893 62.5038 334.805 62.0646C335.717 61.6255 336.423 60.981 336.922 60.1312C337.428 59.2814 337.682 58.2376 337.682 57Z" fill="black"/>
<path d="M343.714 48.2395H349.385L354.845 55.7852H355.079L360.539 48.2395H366.209L357.475 59.5665V65.7605H352.448V59.5665L343.714 48.2395Z" fill="black"/>
<path d="M389.531 57C389.531 58.9106 389.036 60.5361 388.046 61.8764C387.064 63.2167 385.723 64.2405 384.024 64.9477C382.333 65.6492 380.431 66 378.319 66C376.191 66 374.281 65.6464 372.59 64.9392C370.898 64.2319 369.562 63.2082 368.579 61.8679C367.597 60.5276 367.106 58.9049 367.106 57C367.106 55.0894 367.597 53.4639 368.579 52.1236C369.562 50.7833 370.898 49.7624 372.59 49.0608C374.281 48.3536 376.191 48 378.319 48C380.431 48 382.333 48.3536 384.024 49.0608C385.723 49.7624 387.064 50.7833 388.046 52.1236C389.036 53.4639 389.531 55.0894 389.531 57ZM384.398 57C384.398 55.7624 384.145 54.7186 383.638 53.8688C383.139 53.019 382.434 52.3745 381.522 51.9354C380.61 51.4962 379.542 51.2766 378.319 51.2766C377.095 51.2766 376.027 51.4962 375.115 51.9354C374.203 52.3745 373.494 53.019 372.987 53.8688C372.488 54.7186 372.239 55.7624 372.239 57C372.239 58.2376 372.488 59.2814 372.987 60.1312C373.494 60.981 374.203 61.6255 375.115 62.0646C376.027 62.5038 377.095 62.7234 378.319 62.7234C379.542 62.7234 380.61 62.5038 381.522 62.0646C382.434 61.6255 383.139 60.981 383.638 60.1312C384.145 59.2814 384.398 58.2376 384.398 57Z" fill="black"/>
<path d="M391.276 51.2937V48.2395H410.941V51.2937H403.61V65.7605H398.606V51.2937H391.276Z" fill="black"/>
<path d="M415.381 65.7605H409.956L418.222 48.2395H424.746L433 65.7605H427.575L421.577 52.2433H421.39L415.381 65.7605ZM415.042 58.8736H427.856V61.7652H415.042V58.8736Z" fill="black"/>
<path d="M524.205 19C524.279 19.6925 524.374 20.5706 524.479 21.6045C524.76 24.3431 525.133 28.1721 525.507 32.5312C526.256 41.2659 527 52.0708 527 60.5C527 68.9292 526.256 79.7341 525.507 88.4688C525.133 92.8279 524.76 96.6569 524.479 99.3955C524.374 100.429 524.279 101.308 524.205 102H205.795C205.721 101.308 205.626 100.429 205.521 99.3955C205.24 96.6569 204.867 92.8279 204.493 88.4688C203.744 79.7341 203 68.9292 203 60.5C203 52.0708 203.744 41.2659 204.493 32.5312C204.867 28.1721 205.24 24.3431 205.521 21.6045C205.626 20.5706 205.721 19.6925 205.795 19H524.205Z" stroke="black" stroke-width="4"/>
<rect x="317" y="112" width="101" height="16" rx="1" stroke="black" stroke-width="4"/>
<path d="M306 112H209.416C208.608 112 208.133 112.909 208.595 113.572L218.702 128.072C218.889 128.34 219.195 128.5 219.522 128.5H306C306.552 128.5 307 128.052 307 127.5V113C307 112.448 306.552 112 306 112Z" stroke="black" stroke-width="4"/>
<path d="M428 112H524.584C525.392 112 525.867 112.909 525.405 113.572L515.298 128.072C515.111 128.34 514.805 128.5 514.478 128.5H428C427.448 128.5 427 128.052 427 127.5V113C427 112.448 427.448 112 428 112Z" stroke="black" stroke-width="4"/>
<path d="M553.5 19.5V102.5" stroke="black" stroke-width="4"/>
<path d="M182 19V102" stroke="black" stroke-width="4"/>
<path d="M661 130V20C661 19.4477 660.552 19 660 19H72C71.4477 19 71 19.4477 71 20V112.578" stroke="black" stroke-width="4"/>
</svg>
