<svg id="svg" xmlns="http://www.w3.org/2000/svg" xmlns:xlink="http://www.w3.org/1999/xlink" width="400" height="97.5609756097561" viewBox="0, 0, 400,97.5609756097561"><g id="svgg"><path id="path0" d="M17.886 13.008 C 17.886 24.251,17.909 24.391,19.715 24.454 C 21.277 24.509,21.188 24.645,19.106 25.383 C 12.789 27.623,9.708 32.275,6.545 44.346 C 5.048 50.063,1.626 72.441,1.626 76.517 C 1.626 77.984,2.683 78.049,26.640 78.049 L 51.654 78.049 60.569 86.992 L 69.484 95.935 200.407 95.935 L 331.329 95.935 340.244 86.992 L 349.159 78.049 373.767 78.049 L 398.374 78.049 398.374 69.478 C 398.374 50.145,391.496 30.005,383.584 26.169 C 380.908 24.872,380.513 24.462,381.911 24.431 C 383.719 24.391,383.740 24.258,383.740 13.008 L 383.740 1.626 200.813 1.626 L 17.886 1.626 17.886 13.008 M55.285 18.699 L 55.285 29.268 41.463 29.268 L 27.642 29.268 27.642 23.577 C 27.642 18.428,27.487 17.886,26.016 17.886 C 24.571 17.886,24.390 17.344,24.390 13.008 L 24.390 8.130 39.837 8.130 L 55.285 8.130 55.285 18.699 M67.073 8.899 C 62.320 10.844,62.195 11.471,62.195 33.333 C 62.195 52.012,62.309 53.613,63.744 55.199 L 65.293 56.911 61.915 56.911 L 58.537 56.911 58.537 32.520 L 58.537 8.130 63.618 8.182 C 67.077 8.217,68.180 8.446,67.073 8.899 M289.760 9.841 C 287.379 12.472,287.379 52.568,289.760 55.199 L 291.309 56.911 200.813 56.911 L 110.317 56.911 111.866 55.199 C 113.301 53.613,113.415 52.012,113.415 33.333 C 113.415 11.471,113.290 10.844,108.537 8.899 C 107.642 8.533,148.400 8.210,199.110 8.182 L 291.309 8.130 289.760 9.841 M341.463 32.520 L 341.463 56.911 339.036 56.911 L 336.609 56.911 338.220 54.268 C 340.681 50.232,340.681 14.808,338.220 10.772 L 336.609 8.130 339.036 8.130 L 341.463 8.130 341.463 32.520 M377.236 13.008 C 377.236 17.344,377.055 17.886,375.610 17.886 C 374.139 17.886,373.984 18.428,373.984 23.577 L 373.984 29.268 360.163 29.268 L 346.341 29.268 346.341 18.699 L 346.341 8.130 361.789 8.130 L 377.236 8.130 377.236 13.008 M306.430 11.019 C 300.176 12.946,293.802 19.485,291.817 26.011 C 291.416 27.327,291.172 25.516,291.127 20.898 C 291.028 10.783,292.114 9.734,302.605 9.813 L 310.163 9.869 306.430 11.019 M334.590 11.752 L 336.585 13.747 336.585 32.520 L 336.585 51.293 334.590 53.289 C 332.750 55.129,332.006 55.281,325.037 55.242 L 317.480 55.200 321.686 53.582 C 340.862 46.209,340.008 17.055,320.439 11.031 L 316.667 9.869 324.630 9.813 C 332.040 9.760,332.733 9.895,334.590 11.752 M76.601 13.478 C 71.930 15.806,68.789 19.092,66.559 23.984 L 65.076 27.236 65.059 20.994 C 65.035 12.781,66.492 11.382,75.066 11.382 L 80.807 11.382 76.601 13.478 M108.884 13.524 C 110.473 15.544,110.569 16.688,110.569 33.594 C 110.569 55.720,110.772 55.285,100.468 55.284 L 93.902 55.283 97.368 53.568 C 113.204 45.729,113.639 22.717,98.120 13.816 L 93.902 11.397 100.551 11.390 C 106.769 11.383,107.308 11.521,108.884 13.524 M321.692 16.949 C 335.353 23.954,333.450 45.078,318.762 49.479 C 304.085 53.876,290.904 38.548,297.552 24.815 C 301.842 15.953,312.791 12.385,321.692 16.949 M92.276 16.357 C 96.830 17.617,102.794 23.736,104.063 28.448 C 108.749 45.850,88.348 58.371,75.142 46.198 C 61.414 33.545,74.163 11.342,92.276 16.357 M143.089 27.642 C 143.089 28.959,143.631 29.268,145.935 29.268 L 148.780 29.268 148.780 34.146 C 148.780 38.808,148.871 39.024,150.813 39.024 C 152.755 39.024,152.846 38.808,152.846 34.146 L 152.846 29.268 156.098 29.268 C 158.808 29.268,159.350 28.997,159.350 27.642 C 159.350 26.125,158.808 26.016,151.220 26.016 C 143.631 26.016,143.089 26.125,143.089 27.642 M163.947 27.503 C 159.294 32.645,163.128 39.024,170.873 39.024 C 178.387 39.024,182.369 31.881,177.375 27.362 C 175.180 25.375,165.783 25.474,163.947 27.503 M184.896 29.415 C 187.132 32.027,187.805 33.532,187.805 35.919 C 187.805 38.689,188.024 39.024,189.837 39.024 C 191.628 39.024,191.870 38.677,191.870 36.105 C 191.870 33.931,192.611 32.322,194.773 29.804 C 197.601 26.510,197.628 26.415,195.817 26.140 C 194.539 25.946,193.386 26.574,192.130 28.149 L 190.302 30.441 187.993 28.229 C 183.882 24.291,181.342 25.263,184.896 29.415 M202.972 27.503 C 198.318 32.645,202.153 39.024,209.897 39.024 C 217.411 39.024,221.393 31.881,216.399 27.362 C 214.205 25.375,204.808 25.474,202.972 27.503 M221.138 27.642 C 221.138 28.959,221.680 29.268,223.984 29.268 L 226.829 29.268 226.829 34.146 C 226.829 38.808,226.920 39.024,228.862 39.024 C 230.804 39.024,230.894 38.808,230.894 34.146 L 230.894 29.268 234.146 29.268 C 236.856 29.268,237.398 28.997,237.398 27.642 C 237.398 26.125,236.856 26.016,229.268 26.016 C 221.680 26.016,221.138 26.125,221.138 27.642 M243.469 32.004 C 241.919 35.359,240.650 38.312,240.650 38.565 C 240.650 39.364,243.784 39.061,244.309 38.211 C 244.585 37.764,246.436 37.398,248.422 37.398 C 250.408 37.398,252.033 37.764,252.033 38.211 C 252.033 38.659,252.932 39.024,254.032 39.024 L 256.031 39.024 253.347 32.724 C 249.473 23.625,247.410 23.475,243.469 32.004 M21.190 32.317 L 21.242 36.179 36.732 49.159 L 52.221 62.139 51.699 67.238 C 50.848 75.539,53.222 74.797,27.540 74.797 L 4.847 74.797 5.226 72.967 C 5.435 71.961,5.829 68.943,6.102 66.260 C 8.170 45.950,12.933 31.381,18.202 29.252 C 20.988 28.126,21.136 28.278,21.190 32.317 M384.910 31.098 C 389.680 35.882,395.122 55.517,395.122 67.939 L 395.122 74.797 372.358 74.797 L 349.593 74.797 349.593 69.985 C 349.593 67.339,349.384 64.629,349.129 63.963 C 348.806 63.121,353.502 58.698,364.522 49.465 L 380.379 36.179 380.434 32.317 C 380.498 27.737,381.333 27.509,384.910 31.098 M175.610 32.520 L 175.610 35.772 170.732 35.772 L 165.854 35.772 165.854 32.520 L 165.854 29.268 170.732 29.268 L 175.610 29.268 175.610 32.520 M214.634 32.520 L 214.634 35.772 209.756 35.772 L 204.878 35.772 204.878 32.520 L 204.878 29.268 209.756 29.268 L 214.634 29.268 214.634 32.520 M249.693 32.359 C 250.266 33.909,250.076 34.146,248.261 34.146 C 246.686 34.146,246.290 33.828,246.661 32.860 C 246.932 32.153,247.154 31.208,247.154 30.760 C 247.154 29.335,249.006 30.502,249.693 32.359 M55.285 45.528 C 55.285 50.894,55.057 55.285,54.780 55.285 C 54.218 55.285,31.707 36.536,31.707 36.068 C 31.707 35.905,37.012 35.772,43.496 35.772 L 55.285 35.772 55.285 45.528 M369.919 36.043 C 369.919 36.492,347.380 55.285,346.842 55.285 C 346.566 55.285,346.341 50.894,346.341 45.528 L 346.341 35.772 358.130 35.772 C 364.614 35.772,369.919 35.894,369.919 36.043 M298.214 49.087 C 300.095 50.892,303.352 52.879,305.832 53.736 L 310.163 55.231 302.605 55.258 C 292.236 55.294,291.053 54.197,291.065 44.549 L 291.073 37.805 293.000 41.870 C 294.060 44.106,296.406 47.354,298.214 49.087 M69.594 47.741 C 70.723 49.221,73.545 51.520,75.864 52.851 L 80.081 55.269 74.443 55.277 C 66.373 55.288,65.030 53.899,65.072 45.590 L 65.104 39.431 66.323 42.240 C 66.993 43.786,68.465 46.261,69.594 47.741 M345.848 64.701 C 346.119 65.408,346.341 68.250,346.341 71.016 L 346.341 76.045 337.994 84.364 L 329.647 92.683 200.379 92.683 L 71.110 92.683 62.475 83.943 L 53.839 75.203 54.676 69.309 L 55.513 63.415 200.434 63.415 C 331.833 63.415,345.401 63.535,345.848 64.701 M120.045 71.405 C 118.058 73.600,118.157 82.997,120.186 84.833 C 122.565 86.986,165.800 86.858,167.760 84.692 C 169.747 82.497,169.648 73.100,167.619 71.264 C 165.240 69.111,122.005 69.240,120.045 71.405 M175.610 71.545 C 174.345 72.809,173.984 74.255,173.984 78.049 C 173.984 86.428,173.188 86.179,200.000 86.179 C 226.812 86.179,226.016 86.428,226.016 78.049 C 226.016 69.670,226.812 69.919,200.000 69.919 C 178.320 69.919,177.158 69.996,175.610 71.545 M230.894 71.545 C 229.630 72.809,229.268 74.255,229.268 78.049 C 229.268 86.428,228.472 86.179,255.285 86.179 C 282.097 86.179,281.301 86.428,281.301 78.049 C 281.301 69.670,282.097 69.919,255.285 69.919 C 233.604 69.919,232.443 69.996,230.894 71.545 M165.447 78.049 L 165.447 82.520 143.902 82.520 L 122.358 82.520 122.103 78.972 C 121.658 72.769,120.287 73.119,144.085 73.360 L 165.447 73.577 165.447 78.049 M222.358 78.049 L 222.358 82.520 200.000 82.520 L 177.642 82.520 177.388 78.972 C 176.942 72.761,175.483 73.120,200.183 73.361 L 222.358 73.577 222.358 78.049 M277.642 78.049 L 277.642 82.520 255.285 82.520 L 232.927 82.520 232.672 78.972 C 232.227 72.761,230.767 73.120,255.467 73.361 L 277.642 73.577 277.642 78.049 " stroke="none" fill="#000000" fill-rule="evenodd"></path></g></svg>