<svg id="svg" xmlns="http://www.w3.org/2000/svg" xmlns:xlink="http://www.w3.org/1999/xlink" width="400" height="97.5609756097561" viewBox="0, 0, 400,97.5609756097561"><g id="svgg"><path id="path0" d="M47.561 0.844 C 44.878 1.177,38.933 1.489,34.350 1.538 L 26.016 1.626 26.016 4.065 C 26.016 5.407,25.650 6.504,25.203 6.504 C 24.721 6.504,24.390 9.485,24.390 13.821 C 24.390 18.157,24.721 21.138,25.203 21.138 C 27.054 21.138,25.842 23.582,23.780 24.005 C 14.649 25.880,11.783 28.363,8.674 37.095 C 5.707 45.430,1.626 68.303,1.626 76.602 C 1.626 77.958,3.199 78.049,26.640 78.049 L 51.654 78.049 60.569 86.992 L 69.484 95.935 200.407 95.935 L 331.329 95.935 340.244 86.992 L 349.159 78.049 373.767 78.049 L 398.374 78.049 398.374 69.092 C 398.374 58.982,396.409 48.357,392.585 37.789 C 389.151 28.298,385.967 25.428,377.236 23.955 C 375.224 23.615,374.035 23.178,374.593 22.983 C 375.855 22.543,376.053 8.130,374.797 8.130 C 374.350 8.130,373.984 6.667,373.984 4.878 L 373.984 1.626 360.976 1.626 C 352.846 1.626,347.967 1.321,347.967 0.813 C 347.967 -0.146,55.293 -0.115,47.561 0.844 M53.659 13.415 L 53.659 22.764 41.463 22.764 L 29.268 22.764 29.268 20.325 C 29.268 18.984,28.902 17.886,28.455 17.886 C 28.008 17.886,27.642 16.057,27.642 13.821 C 27.642 11.585,28.008 9.756,28.455 9.756 C 28.902 9.756,29.268 8.672,29.268 7.348 L 29.268 4.939 36.789 4.671 C 40.925 4.523,46.413 4.327,48.984 4.234 L 53.659 4.065 53.659 13.415 M370.732 8.130 C 370.732 9.919,371.098 11.382,371.545 11.382 C 371.992 11.382,372.358 13.211,372.358 15.447 C 372.358 17.683,371.992 19.512,371.545 19.512 C 371.098 19.512,370.732 20.610,370.732 21.951 L 370.732 24.390 359.350 24.390 L 347.967 24.390 347.967 14.634 L 347.967 4.878 359.350 4.878 L 370.732 4.878 370.732 8.130 M67.073 7.273 C 62.297 9.227,62.195 9.756,62.195 32.520 C 62.195 51.998,62.305 53.609,63.744 55.199 L 65.293 56.911 61.915 56.911 L 58.537 56.911 58.537 31.707 L 58.537 6.504 63.618 6.556 C 67.077 6.591,68.180 6.820,67.073 7.273 M293.089 7.273 C 288.337 9.218,288.211 9.845,288.211 31.707 C 288.211 53.570,288.337 54.197,293.089 56.142 C 293.984 56.508,253.226 56.831,202.516 56.859 L 110.317 56.911 111.866 55.199 C 113.305 53.609,113.415 51.998,113.415 32.520 C 113.415 9.756,113.312 9.227,108.537 7.273 C 107.642 6.907,149.167 6.607,200.813 6.607 C 252.459 6.607,293.984 6.907,293.089 7.273 M341.463 31.707 L 341.463 56.911 337.195 56.859 C 334.162 56.822,333.397 56.615,334.553 56.142 C 339.306 54.197,339.431 53.570,339.431 31.707 C 339.431 9.845,339.306 9.218,334.553 7.273 C 333.397 6.800,334.162 6.592,337.195 6.556 L 341.463 6.504 341.463 31.707 M82.927 10.514 C 76.108 11.881,69.387 17.084,66.577 23.171 L 65.076 26.423 65.059 20.085 C 65.032 10.710,66.220 9.725,77.402 9.850 C 82.993 9.912,84.828 10.133,82.927 10.514 M108.574 11.752 L 110.569 13.747 110.569 32.520 L 110.569 51.293 108.574 53.289 C 106.728 55.134,106.008 55.279,99.021 55.215 C 94.213 55.170,92.205 54.919,93.501 54.525 C 115.634 47.792,114.239 15.076,91.629 10.609 C 88.932 10.077,90.148 9.915,97.395 9.845 C 106.119 9.761,106.678 9.856,108.574 11.752 M305.026 10.991 C 298.933 13.638,294.265 18.446,292.217 24.185 C 291.150 27.176,291.128 27.101,291.093 20.378 C 291.043 10.841,292.086 9.744,301.158 9.788 C 307.592 9.819,307.669 9.843,305.026 10.991 M334.900 11.898 C 336.491 13.920,336.585 15.060,336.585 32.164 L 336.585 50.288 334.443 51.974 C 332.725 53.325,331.156 53.655,326.516 53.640 C 320.792 53.622,320.758 53.609,323.224 52.392 C 340.354 43.938,340.077 19.274,322.764 11.446 L 319.106 9.792 326.161 9.774 C 332.824 9.757,333.309 9.875,334.900 11.898 M115.447 14.634 C 115.447 16.250,115.989 16.260,200.813 16.260 C 285.637 16.260,286.179 16.250,286.179 14.634 C 286.179 13.018,285.637 13.008,200.813 13.008 C 115.989 13.008,115.447 13.018,115.447 14.634 M321.944 16.576 C 332.283 21.689,334.153 36.645,325.481 44.876 C 314.412 55.381,295.971 47.406,295.971 32.114 C 295.971 18.357,309.354 10.351,321.944 16.576 M95.199 17.135 C 103.986 21.550,107.198 31.719,102.642 40.703 C 94.313 57.128,69.420 51.327,69.546 32.991 C 69.641 19.222,82.963 10.988,95.199 17.135 M192.140 18.528 C 187.800 20.080,182.114 23.888,182.114 25.245 C 182.114 25.719,169.569 26.016,149.593 26.016 L 117.073 26.016 117.073 32.520 L 117.073 39.024 149.641 39.024 L 182.209 39.024 185.301 41.509 C 193.314 47.948,207.361 47.894,215.603 41.392 L 218.604 39.024 252.391 39.024 L 286.179 39.024 286.179 32.520 L 286.179 26.016 252.533 26.016 L 218.886 26.016 217.603 24.058 C 213.981 18.530,200.393 15.579,192.140 18.528 M206.892 23.124 C 215.494 25.713,218.195 32.378,212.624 37.270 C 200.755 47.691,176.615 36.782,188.038 26.159 C 192.139 22.346,200.066 21.070,206.892 23.124 M53.659 32.520 L 53.659 39.024 46.113 39.024 C 35.656 39.024,29.268 35.455,29.268 29.612 L 29.268 26.016 41.463 26.016 L 53.659 26.016 53.659 32.520 M26.177 31.080 L 26.423 35.331 32.084 38.804 C 37.634 42.209,37.886 42.276,44.989 42.276 L 52.234 42.276 51.802 56.707 C 51.564 64.644,51.110 71.961,50.793 72.967 L 50.217 74.797 27.625 74.797 L 5.033 74.797 5.412 71.341 C 9.226 36.607,12.633 29.021,25.364 26.923 C 25.676 26.871,26.042 28.742,26.177 31.080 M383.009 28.933 C 388.593 31.744,395.122 52.724,395.122 67.852 L 395.122 74.797 372.424 74.797 L 349.727 74.797 349.224 68.902 C 348.947 65.661,348.530 58.946,348.297 53.981 L 347.873 44.953 352.189 44.435 C 354.562 44.150,357.929 43.913,359.671 43.910 C 361.965 43.904,364.372 42.955,368.411 40.463 L 373.984 37.024 373.984 31.917 L 373.984 26.810 377.439 27.339 C 379.339 27.630,381.846 28.348,383.009 28.933 M370.709 31.504 C 370.675 37.062,365.545 40.177,355.081 40.993 L 347.967 41.548 347.967 34.595 L 347.967 27.642 359.350 27.642 L 370.732 27.642 370.709 31.504 M295.995 46.426 C 296.937 47.749,299.596 49.914,301.903 51.237 L 306.098 53.643 300.459 53.651 C 292.297 53.662,291.051 52.322,291.075 43.557 L 291.093 36.992 292.687 40.506 C 293.565 42.439,295.053 45.103,295.995 46.426 M72.110 49.564 C 74.101 51.316,77.258 53.292,79.125 53.953 L 82.520 55.156 75.776 55.220 C 66.528 55.308,65.023 53.921,65.081 45.362 L 65.122 39.431 66.806 42.904 C 67.732 44.814,70.119 47.811,72.110 49.564 M115.447 48.780 C 115.447 50.396,115.989 50.407,200.813 50.407 C 285.637 50.407,286.179 50.396,286.179 48.780 C 286.179 47.165,285.637 47.154,200.813 47.154 C 115.989 47.154,115.447 47.165,115.447 48.780 M345.848 64.701 C 346.119 65.408,346.341 68.250,346.341 71.016 L 346.341 76.045 337.994 84.364 L 329.647 92.683 200.406 92.683 L 71.165 92.683 62.586 84.131 L 54.008 75.579 54.779 69.497 L 55.550 63.415 200.452 63.415 C 331.834 63.415,345.401 63.535,345.848 64.701 M120.045 71.405 C 118.058 73.600,118.157 82.997,120.186 84.833 C 122.565 86.986,165.800 86.858,167.760 84.692 C 169.747 82.497,169.648 73.100,167.619 71.264 C 165.240 69.111,122.005 69.240,120.045 71.405 M175.610 71.545 C 174.345 72.809,173.984 74.255,173.984 78.049 C 173.984 86.428,173.188 86.179,200.000 86.179 C 226.812 86.179,226.016 86.428,226.016 78.049 C 226.016 69.670,226.812 69.919,200.000 69.919 C 178.320 69.919,177.158 69.996,175.610 71.545 M230.894 71.545 C 229.630 72.809,229.268 74.255,229.268 78.049 C 229.268 86.428,228.472 86.179,255.285 86.179 C 282.097 86.179,281.301 86.428,281.301 78.049 C 281.301 69.670,282.097 69.919,255.285 69.919 C 233.604 69.919,232.443 69.996,230.894 71.545 M165.447 78.049 L 165.447 82.520 143.902 82.520 L 122.358 82.520 122.103 78.972 C 121.658 72.769,120.287 73.119,144.085 73.360 L 165.447 73.577 165.447 78.049 M222.358 78.049 L 222.358 82.520 200.000 82.520 L 177.642 82.520 177.388 78.972 C 176.942 72.761,175.483 73.120,200.183 73.361 L 222.358 73.577 222.358 78.049 M277.642 78.049 L 277.642 82.520 255.285 82.520 L 232.927 82.520 232.672 78.972 C 232.227 72.761,230.767 73.120,255.467 73.361 L 277.642 73.577 277.642 78.049 " stroke="none" fill="#000000" fill-rule="evenodd"></path></g></svg>