<svg id="svg" xmlns="http://www.w3.org/2000/svg" xmlns:xlink="http://www.w3.org/1999/xlink" width="400" height="95.93495934959348" viewBox="0, 0, 400,95.93495934959348"><g id="svgg"><path id="path0" d="M52.033 2.439 C 52.033 2.958,45.240 3.252,33.280 3.252 L 14.527 3.252 15.094 13.677 L 15.661 24.103 13.499 26.265 C 8.449 31.315,1.626 59.222,1.626 74.828 C 1.626 76.378,2.331 76.423,26.640 76.423 L 51.654 76.423 60.569 85.366 L 69.484 94.309 200.407 94.309 L 331.329 94.309 340.244 85.366 L 349.159 76.423 373.767 76.423 L 398.374 76.423 398.374 67.445 C 398.374 53.620,393.840 35.379,388.488 27.672 L 385.968 24.044 386.534 13.648 L 387.099 3.252 367.533 3.252 C 355.031 3.252,347.967 2.959,347.967 2.439 C 347.967 1.900,298.103 1.626,200.000 1.626 C 101.897 1.626,52.033 1.900,52.033 2.439 M52.188 18.089 C 52.326 23.567,52.326 28.323,52.188 28.659 C 52.050 28.994,45.029 29.268,36.587 29.268 L 21.238 29.268 20.819 25.813 C 20.589 23.913,20.218 19.157,19.996 15.244 L 19.591 8.130 35.764 8.130 L 51.937 8.130 52.188 18.089 M67.073 8.899 C 62.297 10.853,62.195 11.382,62.195 34.146 C 62.195 53.624,62.305 55.235,63.744 56.825 L 65.293 58.537 61.915 58.537 L 58.537 58.537 58.537 33.333 L 58.537 8.130 63.618 8.182 C 67.077 8.217,68.180 8.446,67.073 8.899 M293.496 8.707 C 292.825 8.953,291.636 9.713,290.854 10.395 C 289.951 11.181,289.431 11.291,289.431 10.695 C 289.431 10.056,287.139 9.756,282.257 9.756 L 275.084 9.756 274.330 12.805 L 273.577 15.854 201.146 16.061 L 128.715 16.269 127.740 13.012 L 126.764 9.756 119.505 9.756 C 112.939 9.756,112.295 9.892,112.757 11.179 C 113.184 12.367,112.946 12.317,111.309 10.876 C 110.231 9.927,108.801 8.949,108.130 8.704 C 107.459 8.459,149.167 8.258,200.813 8.258 C 252.459 8.258,294.167 8.460,293.496 8.707 M341.463 33.333 L 341.463 58.537 337.195 58.485 C 334.162 58.448,333.397 58.241,334.553 57.768 C 339.306 55.823,339.431 55.196,339.431 33.333 C 339.431 11.471,339.306 10.844,334.553 8.899 C 333.397 8.426,334.162 8.218,337.195 8.182 L 341.463 8.130 341.463 33.333 M381.630 15.244 C 381.408 19.157,381.037 23.913,380.807 25.813 L 380.388 29.268 364.178 29.268 L 347.967 29.268 347.967 18.699 L 347.967 8.130 365.001 8.130 L 382.035 8.130 381.630 15.244 M79.841 12.922 C 74.083 14.911,69.983 18.381,67.276 23.554 L 65.041 27.828 65.041 21.601 C 65.041 12.536,66.359 11.373,76.589 11.409 L 84.146 11.435 79.841 12.922 M108.574 13.378 L 110.569 15.373 110.569 34.146 L 110.569 52.919 108.574 54.915 C 106.715 56.774,106.033 56.906,98.614 56.841 C 93.618 56.797,91.408 56.540,92.683 56.150 C 115.121 49.300,115.125 18.967,92.688 12.142 C 91.410 11.753,93.618 11.496,98.614 11.452 C 106.033 11.387,106.715 11.519,108.574 13.378 M304.354 12.558 C 300.249 14.344,295.018 19.594,292.970 23.984 L 291.073 28.049 291.065 21.597 C 291.054 12.617,292.240 11.370,300.751 11.414 C 306.678 11.445,306.814 11.488,304.354 12.558 M334.704 13.150 C 336.564 14.897,336.585 15.131,336.585 33.416 L 336.585 51.915 334.443 53.600 C 332.696 54.974,331.160 55.281,326.110 55.267 L 319.919 55.249 323.171 53.748 C 339.788 46.078,339.788 20.494,323.171 12.903 L 319.919 11.418 326.370 11.400 C 331.890 11.385,333.094 11.637,334.704 13.150 M116.227 20.528 L 117.033 22.764 151.161 22.764 L 185.288 22.764 183.284 24.927 C 182.182 26.116,180.987 28.220,180.629 29.602 L 179.979 32.114 156.740 32.329 L 133.501 32.545 132.646 30.094 L 131.792 27.642 124.839 27.642 C 121.015 27.642,117.886 27.818,117.886 28.033 C 117.886 28.248,119.062 30.809,120.500 33.724 L 123.113 39.024 152.709 39.024 L 182.306 39.024 185.044 41.429 C 192.357 47.849,208.456 47.849,215.769 41.429 L 218.507 39.024 248.610 39.024 L 278.713 39.024 281.633 33.712 C 283.239 30.790,284.553 28.229,284.553 28.021 C 284.553 27.813,281.340 27.642,277.414 27.642 L 270.275 27.642 269.355 30.081 L 268.434 32.520 244.380 32.520 L 220.325 32.520 220.325 30.516 C 220.325 29.414,219.190 27.219,217.802 25.638 L 215.279 22.764 250.290 22.764 L 285.301 22.764 286.349 19.309 C 287.296 16.192,287.438 17.694,287.805 34.673 C 288.243 54.963,288.451 55.869,293.089 57.768 C 293.984 58.134,253.288 58.457,202.654 58.485 L 110.593 58.537 112.204 55.894 C 113.684 53.466,113.820 51.703,113.873 34.146 C 113.930 15.497,114.087 14.589,116.227 20.528 M320.325 17.141 C 327.618 20.448,330.894 25.467,330.894 33.333 C 330.894 46.962,317.734 55.117,305.639 48.984 C 285.644 38.845,299.920 7.891,320.325 17.141 M94.844 18.149 C 110.463 26.226,106.600 49.343,89.233 51.723 C 77.333 53.355,67.220 42.230,69.864 30.416 C 72.330 19.395,85.114 13.117,94.844 18.149 M209.445 25.133 C 221.310 30.521,215.363 40.984,200.407 41.035 C 185.141 41.087,179.304 30.690,191.463 25.106 C 195.894 23.072,204.936 23.085,209.445 25.133 M19.501 38.143 C 25.875 47.423,37.037 56.551,47.499 61.038 C 52.548 63.203,52.365 62.641,50.721 70.935 L 50.277 73.171 27.562 73.171 L 4.847 73.171 5.222 71.341 C 5.428 70.335,5.817 67.134,6.087 64.228 C 7.354 50.596,11.282 34.475,14.408 30.081 L 15.854 28.049 16.119 30.826 C 16.266 32.370,17.769 35.621,19.501 38.143 M390.199 39.345 C 393.703 49.929,395.122 57.588,395.122 65.907 L 395.122 73.171 372.358 73.171 L 349.593 73.171 349.593 67.949 C 349.593 62.770,349.615 62.721,352.259 61.848 C 364.635 57.764,385.309 38.638,385.392 31.198 C 385.433 27.448,387.320 30.646,390.199 39.345 M52.846 45.990 L 52.846 57.833 51.016 57.296 C 43.760 55.163,26.924 42.027,23.682 35.967 L 22.707 34.146 37.776 34.146 L 52.846 34.146 52.846 45.990 M377.118 36.789 C 372.151 43.867,360.813 52.817,351.829 56.753 L 347.967 58.445 347.967 46.296 L 347.967 34.146 363.470 34.146 L 378.973 34.146 377.118 36.789 M298.332 49.872 C 300.238 51.590,302.948 53.497,304.354 54.108 C 306.810 55.177,306.665 55.222,300.669 55.253 C 292.345 55.295,291.053 53.891,291.065 44.809 L 291.073 38.618 292.970 42.683 C 294.013 44.919,296.426 48.154,298.332 49.872 M69.526 48.464 C 71.736 51.362,75.945 54.199,80.392 55.788 C 83.206 56.794,83.023 56.841,76.183 56.875 C 66.367 56.924,65.027 55.682,65.072 46.582 L 65.104 40.244 66.323 43.053 C 66.993 44.599,68.435 47.034,69.526 48.464 M124.390 44.294 C 124.390 44.509,125.566 47.070,127.004 49.985 L 129.617 55.285 201.191 55.252 L 272.764 55.219 275.367 49.561 L 277.969 43.902 271.144 43.902 C 264.423 43.902,264.298 43.940,262.879 46.341 L 261.438 48.780 201.197 48.780 L 140.956 48.780 139.153 46.341 C 137.508 44.117,124.390 42.297,124.390 44.294 M346.469 69.528 L 346.748 74.014 338.198 82.536 L 329.648 91.057 200.379 91.057 L 71.110 91.057 62.324 82.243 C 52.916 72.806,52.851 72.663,54.916 66.057 C 55.168 65.249,85.041 65.041,200.712 65.041 L 346.191 65.041 346.469 69.528 M120.045 69.779 C 118.058 71.974,118.157 81.371,120.186 83.207 C 122.565 85.360,165.800 85.232,167.760 83.066 C 169.747 80.871,169.648 71.474,167.619 69.638 C 165.240 67.485,122.005 67.614,120.045 69.779 M175.610 69.919 C 174.345 71.183,173.984 72.629,173.984 76.423 C 173.984 84.813,173.138 84.553,200.360 84.553 C 227.176 84.553,226.016 84.928,226.016 76.242 C 226.016 68.073,226.734 68.293,200.000 68.293 C 178.320 68.293,177.158 68.370,175.610 69.919 M230.894 69.919 C 229.630 71.183,229.268 72.629,229.268 76.423 C 229.268 84.802,228.472 84.553,255.285 84.553 C 282.097 84.553,281.301 84.802,281.301 76.423 C 281.301 68.044,282.097 68.293,255.285 68.293 C 233.604 68.293,232.443 68.370,230.894 69.919 M165.447 76.423 L 165.447 80.894 143.902 80.894 L 122.358 80.894 122.103 77.346 C 121.658 71.143,120.287 71.493,144.085 71.734 L 165.447 71.951 165.447 76.423 M222.358 76.423 L 222.358 80.894 200.000 80.894 L 177.642 80.894 177.388 77.346 C 176.942 71.135,175.483 71.494,200.183 71.735 L 222.358 71.951 222.358 76.423 M277.642 76.423 L 277.642 80.894 255.285 80.894 L 232.927 80.894 232.672 77.346 C 232.227 71.135,230.767 71.494,255.467 71.735 L 277.642 71.951 277.642 76.423 " stroke="none" fill="#000000" fill-rule="evenodd"></path></g></svg>