<svg id="svg" xmlns="http://www.w3.org/2000/svg" xmlns:xlink="http://www.w3.org/1999/xlink" width="400" height="78.60262008733625" viewBox="0, 0, 400,78.60262008733625"><g id="svgg"><path id="path0" d="M90.393 5.314 L 84.279 8.807 54.148 8.400 C 37.576 8.176,22.838 7.756,21.397 7.467 C 19.182 7.023,17.833 7.655,12.664 11.561 L 6.550 16.180 5.062 23.592 C 3.392 31.904,1.747 50.158,1.747 60.360 L 1.747 67.095 5.022 67.604 C 17.637 69.564,92.201 74.387,134.498 75.979 C 164.152 77.094,252.937 77.100,282.969 75.988 C 326.683 74.369,394.822 70.098,396.018 68.902 C 396.942 67.978,398.258 47.600,397.412 47.318 C 396.914 47.152,396.499 44.789,396.489 42.067 C 396.470 36.670,395.312 27.475,393.757 20.381 C 392.825 16.127,392.406 15.617,386.386 11.414 L 380.003 6.958 372.316 7.839 C 368.088 8.323,353.150 8.723,339.121 8.726 L 313.614 8.734 309.274 6.175 L 304.933 3.615 206.048 2.681 C 151.661 2.167,104.765 1.763,101.835 1.784 C 97.257 1.816,95.646 2.313,90.393 5.314 M205.684 6.172 L 304.093 7.103 308.282 9.681 L 312.471 12.258 312.992 23.378 C 314.777 61.476,314.760 64.629,312.764 64.629 C 310.931 64.629,310.917 64.451,310.888 41.703 L 310.860 18.777 307.096 15.561 L 303.332 12.345 200.042 11.380 L 96.752 10.415 92.044 13.969 L 87.336 17.524 87.336 40.640 C 87.336 55.468,87.023 63.755,86.463 63.755 C 85.900 63.755,85.595 54.523,85.605 37.773 L 85.620 11.790 91.500 8.559 C 96.272 5.936,98.313 5.319,102.328 5.284 C 105.049 5.260,151.559 5.659,205.684 6.172 M25.983 11.342 C 27.727 11.352,27.948 11.794,27.948 15.284 L 27.948 19.214 18.777 19.214 C 13.734 19.214,9.619 18.919,9.633 18.559 C 9.694 17.046,20.578 10.425,22.271 10.870 C 23.231 11.123,24.902 11.335,25.983 11.342 M384.322 14.146 C 391.172 18.976,391.006 19.214,380.786 19.214 L 372.052 19.214 372.052 28.093 C 372.052 32.977,371.876 36.796,371.660 36.580 C 371.444 36.364,371.203 30.698,371.125 23.989 L 370.983 11.790 373.919 11.250 C 375.534 10.953,377.366 10.659,377.990 10.595 C 378.614 10.532,381.464 12.130,384.322 14.146 M43.517 14.755 C 37.312 18.690,32.411 26.218,32.245 32.068 C 32.208 33.404,31.966 33.970,31.709 33.325 C 31.452 32.681,31.522 27.670,31.864 22.190 L 32.487 12.227 39.995 12.227 L 47.504 12.227 43.517 14.755 M82.068 22.489 L 82.039 32.751 80.479 28.238 C 78.455 22.380,74.981 17.901,70.020 14.755 L 66.034 12.227 74.065 12.227 L 82.096 12.227 82.068 22.489 M332.055 13.143 C 326.748 15.272,321.556 20.998,319.062 27.470 C 318.166 29.795,318.028 29.002,317.970 21.179 L 317.904 12.227 325.983 12.282 C 331.825 12.322,333.506 12.561,332.055 13.143 M366.818 15.939 C 366.822 17.980,367.018 22.402,367.255 25.764 C 367.534 29.716,367.424 31.106,366.944 29.694 C 364.538 22.611,360.660 17.708,354.585 14.066 L 351.528 12.234 359.170 12.230 L 366.812 12.227 366.818 15.939 M203.118 14.906 L 301.580 15.838 304.502 18.066 C 306.373 19.494,307.424 21.042,307.424 22.374 L 307.424 24.454 260.810 24.454 C 214.794 24.454,214.141 24.430,209.936 22.550 C 203.970 19.882,193.410 19.882,187.444 22.550 C 183.240 24.429,182.574 24.454,137.007 24.454 L 90.830 24.454 90.830 21.919 C 90.830 18.183,96.159 14.042,101.018 14.003 C 103.018 13.987,148.964 14.393,203.118 14.906 M66.558 19.002 C 79.571 25.955,79.840 45.250,67.028 52.758 C 47.328 64.303,27.141 39.145,42.676 22.411 C 48.939 15.665,57.914 14.384,66.558 19.002 M350.681 17.890 C 360.856 22.021,365.279 35.921,359.530 45.701 C 349.259 63.175,323.144 56.069,323.144 35.799 C 323.144 21.345,336.999 12.334,350.681 17.890 M24.023 29.476 C 23.745 33.199,23.305 38.701,23.043 41.703 L 22.568 47.162 14.341 47.162 L 6.114 47.162 6.114 43.864 C 6.114 40.130,7.687 26.558,8.389 24.236 C 8.785 22.928,9.983 22.707,16.689 22.707 L 24.527 22.707 24.023 29.476 M391.430 26.201 C 391.797 27.882,392.363 33.286,392.688 38.210 L 393.279 47.162 384.412 47.162 L 375.546 47.162 375.546 34.900 L 375.546 22.639 383.154 22.892 L 390.762 23.144 391.430 26.201 M208.353 27.478 C 222.139 33.238,215.758 46.399,199.088 46.585 C 192.424 46.659,188.446 45.303,184.498 41.612 C 174.496 32.261,193.231 21.160,208.353 27.478 M27.517 43.403 L 26.882 56.938 23.004 56.357 C 8.485 54.179,4.630 50.719,16.684 50.683 L 25.945 50.655 26.509 43.973 C 26.820 40.298,27.105 35.091,27.143 32.401 C 27.181 29.711,27.423 28.041,27.682 28.689 C 27.940 29.338,27.866 35.959,27.517 43.403 M178.166 29.694 C 177.250 31.405,176.337 31.441,134.030 31.441 C 91.412 31.441,90.830 31.418,90.830 29.694 C 90.830 27.971,91.412 27.948,134.965 27.948 C 178.830 27.948,179.095 27.958,178.166 29.694 M307.424 29.694 C 307.424 31.418,306.841 31.441,263.786 31.441 C 221.043 31.441,220.130 31.405,219.214 29.694 C 218.285 27.958,218.550 27.948,262.851 27.948 C 306.841 27.948,307.424 27.970,307.424 29.694 M34.409 46.990 C 36.357 50.757,40.152 55.033,43.194 56.888 L 45.852 58.509 40.611 58.500 C 31.037 58.484,31.427 58.966,31.537 47.278 C 31.611 39.385,31.793 37.931,32.353 40.763 C 32.750 42.768,33.675 45.570,34.409 46.990 M81.807 60.842 C 81.617 61.032,77.630 60.918,72.946 60.589 L 64.431 59.990 67.784 58.359 C 74.146 55.265,80.864 46.637,81.412 40.859 C 81.515 39.762,81.724 43.732,81.876 49.681 C 82.028 55.630,81.996 60.653,81.807 60.842 M368.473 53.392 C 368.573 58.085,367.887 58.484,359.677 58.503 L 354.725 58.515 359.874 53.366 C 363.800 49.441,365.288 47.217,366.136 44.012 L 367.249 39.807 367.818 44.576 C 368.130 47.199,368.425 51.166,368.473 53.392 M323.567 52.235 C 324.908 53.824,328.015 56.277,330.470 57.685 L 334.934 60.246 331.788 60.254 C 330.057 60.258,326.225 60.515,323.272 60.823 L 317.904 61.384 317.923 51.871 L 317.942 42.358 319.535 45.852 C 320.411 47.773,322.225 50.645,323.567 52.235 M181.223 46.288 C 181.580 46.866,166.385 47.162,136.296 47.162 C 106.567 47.162,90.830 46.859,90.830 46.288 C 90.830 45.717,106.387 45.415,135.756 45.415 C 164.765 45.415,180.874 45.724,181.223 46.288 M307.424 46.288 C 307.424 46.859,291.540 47.162,261.521 47.162 C 231.141 47.162,215.800 46.866,216.157 46.288 C 216.506 45.724,232.760 45.415,262.060 45.415 C 291.720 45.415,307.424 45.717,307.424 46.288 M198.690 51.458 C 200.611 51.461,225.862 51.265,254.803 51.021 L 307.424 50.578 307.424 57.603 L 307.424 64.629 199.127 64.629 L 90.830 64.629 90.830 57.609 L 90.830 50.590 143.013 51.020 C 171.714 51.257,196.769 51.454,198.690 51.458 M390.231 52.064 C 388.915 53.380,376.983 56.747,373.581 56.762 C 372.415 56.767,372.052 56.043,372.052 53.712 L 372.052 50.655 381.847 50.655 C 390.859 50.655,391.528 50.768,390.231 52.064 M10.229 56.669 C 15.014 59.143,30.379 61.272,55.418 62.931 C 69.806 63.885,81.793 64.985,82.056 65.377 C 83.808 67.994,89.482 68.122,203.187 68.122 C 317.322 68.122,317.904 68.113,317.904 66.376 C 317.904 65.415,318.210 64.629,318.585 64.629 C 340.981 64.629,383.777 59.446,390.556 55.912 L 393.886 54.177 393.877 57.001 C 393.872 58.554,393.634 61.235,393.349 62.958 L 392.831 66.090 372.616 67.564 C 293.170 73.356,176.328 75.196,111.354 71.679 C 81.603 70.068,53.834 68.224,29.039 66.211 L 5.240 64.279 5.240 58.642 C 5.240 53.347,5.333 53.085,6.769 54.338 C 7.609 55.071,9.166 56.120,10.229 56.669 " stroke="none" fill="#000000" fill-rule="evenodd"></path></g></svg>