<svg id="svg" xmlns="http://www.w3.org/2000/svg" xmlns:xlink="http://www.w3.org/1999/xlink" width="400" height="144.68085106382978" viewBox="0, 0, 400,144.68085106382978"><g id="svgg"><path id="path0" d="M298.026 30.227 C 291.379 30.599,289.268 32.599,288.629 39.125 C 288.445 41.011,288.109 42.553,287.882 42.553 C 287.656 42.553,287.470 43.498,287.470 44.653 C 287.470 45.808,287.283 46.868,287.054 47.010 C 286.825 47.152,286.487 49.079,286.302 51.293 C 285.992 55.016,285.106 57.018,285.106 53.995 C 285.106 52.079,284.295 51.537,281.432 51.537 C 277.955 51.537,277.541 52.064,277.541 56.501 C 277.541 61.023,277.917 61.466,281.763 61.466 C 284.580 61.466,285.821 62.567,284.161 63.593 C 283.893 63.759,283.688 66.088,283.688 68.964 C 283.688 71.835,283.475 74.255,283.198 74.532 C 282.106 75.625,282.853 85.325,284.043 85.494 C 285.178 85.655,285.712 89.362,284.600 89.362 C 283.410 89.362,282.742 90.793,282.742 93.347 C 282.742 94.796,282.955 95.981,283.215 95.981 C 283.518 95.981,283.688 100.391,283.688 108.265 L 283.688 120.549 284.752 120.816 C 285.337 120.963,287.624 121.020,289.835 120.943 L 293.853 120.804 293.980 109.338 L 294.107 97.872 319.867 97.872 L 345.626 97.872 345.626 100.479 C 345.626 101.913,345.363 103.509,345.040 104.025 C 344.573 104.773,344.573 105.156,345.040 105.904 C 345.437 106.539,345.626 109.061,345.626 113.696 C 345.626 121.705,345.175 121.172,351.773 120.943 L 355.792 120.804 355.918 108.865 C 356.028 98.479,356.139 96.927,356.774 96.927 C 357.178 96.927,357.361 96.698,357.185 96.413 C 356.956 96.043,356.723 96.043,356.353 96.413 C 355.529 97.237,285.607 97.097,284.515 96.269 C 283.899 95.801,283.688 94.959,283.688 92.974 L 283.688 90.307 320.567 90.307 C 354.242 90.307,359.241 90.151,356.707 89.179 C 355.455 88.698,356.002 85.853,357.385 85.657 L 358.506 85.499 358.159 73.482 L 357.813 61.466 360.136 61.466 C 363.262 61.466,363.593 61.008,363.593 56.682 C 363.593 51.595,363.555 51.537,360.199 51.537 C 357.065 51.537,356.217 52.059,355.901 54.183 C 355.698 55.550,355.697 55.550,355.626 54.019 C 355.587 53.174,355.368 52.482,355.139 52.482 C 354.910 52.482,354.571 50.461,354.386 47.991 C 354.200 45.521,353.856 43.381,353.620 43.235 C 353.384 43.089,353.191 42.025,353.191 40.870 C 353.191 39.716,353.003 38.771,352.772 38.771 C 352.542 38.771,352.217 37.859,352.050 36.746 C 351.612 33.831,350.180 31.768,347.863 30.716 C 345.812 29.785,311.880 29.452,298.026 30.227 M347.178 31.377 C 348.959 32.130,350.101 33.337,350.599 34.988 C 350.795 35.638,351.143 36.292,351.374 36.441 C 351.604 36.589,351.926 38.132,352.088 39.869 C 352.250 41.605,352.565 43.026,352.787 43.026 C 353.009 43.026,353.191 44.090,353.191 45.390 C 353.191 46.690,353.379 47.754,353.608 47.754 C 353.837 47.754,354.178 49.829,354.366 52.364 C 354.553 54.900,354.870 57.187,355.069 57.447 C 355.912 58.544,356.098 61.466,355.326 61.466 C 354.916 61.466,354.458 61.785,354.308 62.175 C 354.158 62.565,353.740 62.884,353.377 62.884 C 353.015 62.884,352.719 63.097,352.719 63.357 C 352.719 64.157,353.574 63.882,354.297 62.849 C 354.704 62.270,355.107 62.068,355.285 62.356 C 355.450 62.624,355.898 62.723,356.280 62.577 C 356.843 62.360,356.974 62.853,356.974 65.198 L 356.974 68.085 355.122 68.085 C 354.104 68.085,353.199 68.267,353.113 68.490 C 352.835 69.204,348.463 69.471,348.463 68.775 C 348.463 68.438,348.334 67.826,348.176 67.415 C 348.017 67.000,348.132 66.667,348.433 66.667 C 348.732 66.667,349.233 66.454,349.547 66.194 C 349.861 65.934,350.650 65.295,351.300 64.774 C 352.248 64.016,352.295 63.893,351.537 64.157 C 351.017 64.338,350.310 64.764,349.966 65.104 C 349.623 65.443,349.037 65.721,348.666 65.721 C 348.294 65.721,347.991 65.934,347.991 66.194 C 347.991 66.454,347.671 66.667,347.281 66.667 C 346.305 66.667,346.388 65.762,347.400 65.376 C 347.855 65.202,348.757 64.571,349.404 63.972 C 350.052 63.374,350.827 62.884,351.127 62.884 C 351.427 62.884,351.794 62.565,351.944 62.175 C 352.094 61.785,352.542 61.466,352.940 61.466 C 353.338 61.466,353.664 61.276,353.664 61.045 C 353.664 60.521,337.518 59.920,329.551 60.147 C 324.687 60.286,325.253 60.334,332.742 60.418 C 340.945 60.510,343.213 60.839,341.135 61.637 C 340.745 61.786,340.426 62.254,340.426 62.675 C 340.426 64.774,338.732 65.216,330.615 65.232 L 322.931 65.248 322.931 62.856 C 322.931 61.382,322.750 60.576,322.459 60.757 C 322.199 60.917,321.986 62.100,321.986 63.385 C 321.986 65.665,321.952 65.721,320.567 65.721 C 319.161 65.721,319.149 65.698,319.149 63.093 C 319.149 61.461,318.970 60.575,318.676 60.757 C 318.416 60.917,318.203 61.994,318.203 63.148 L 318.203 65.248 310.757 65.353 L 303.310 65.458 310.628 65.602 C 314.652 65.682,318.152 65.954,318.405 66.207 C 319.010 66.811,322.792 66.801,323.168 66.194 C 323.346 65.906,326.867 65.721,332.151 65.721 C 337.435 65.721,340.957 65.906,341.135 66.194 C 341.295 66.454,342.053 66.667,342.818 66.667 C 343.582 66.667,344.208 66.866,344.208 67.110 C 344.208 67.353,344.900 67.638,345.745 67.743 C 346.590 67.848,335.931 67.968,322.059 68.009 C 295.911 68.088,294.090 67.963,294.090 66.092 C 294.090 65.888,293.797 65.721,293.439 65.721 C 293.080 65.721,292.534 65.416,292.224 65.042 C 291.914 64.669,291.046 64.229,290.296 64.064 C 289.039 63.788,287.961 62.236,288.589 61.608 C 289.041 61.156,291.291 62.491,292.932 64.184 C 293.498 64.770,294.188 65.248,294.464 65.248 C 294.741 65.248,295.385 65.780,295.897 66.430 C 296.855 67.649,298.069 67.969,298.582 67.139 C 298.742 66.879,299.393 66.667,300.028 66.667 C 300.663 66.667,301.182 66.454,301.182 66.194 C 301.182 65.934,300.769 65.721,300.264 65.721 C 299.760 65.721,299.215 65.934,299.054 66.194 C 298.540 67.027,296.914 66.701,295.840 65.550 C 295.268 64.936,294.340 64.290,293.779 64.114 C 293.218 63.938,292.637 63.478,292.489 63.091 C 292.341 62.705,291.736 62.194,291.145 61.957 C 290.349 61.637,290.994 61.518,293.632 61.496 L 297.194 61.466 299.755 64.101 C 302.224 66.641,302.332 66.697,302.719 65.649 C 303.011 64.861,302.920 64.414,302.388 64.025 C 301.985 63.730,301.655 63.134,301.655 62.699 C 301.655 62.264,301.336 61.786,300.946 61.637 C 298.932 60.864,301.047 60.524,308.865 60.365 C 313.611 60.268,311.007 60.256,303.079 60.337 C 293.667 60.433,288.608 60.655,288.501 60.975 C 288.411 61.245,287.923 61.466,287.416 61.466 C 286.910 61.466,286.373 61.785,286.223 62.175 C 286.073 62.565,285.761 62.884,285.529 62.884 C 284.963 62.884,284.987 60.355,285.559 59.784 C 285.807 59.536,286.157 57.578,286.336 55.434 C 286.515 53.291,286.843 51.537,287.066 51.537 C 287.288 51.537,287.470 50.473,287.470 49.173 C 287.470 47.872,287.656 46.809,287.882 46.809 C 288.109 46.809,288.445 45.076,288.630 42.958 C 288.815 40.840,289.148 38.766,289.372 38.348 C 289.595 37.930,289.902 36.998,290.054 36.276 C 290.207 35.555,291.089 34.126,292.014 33.102 L 293.697 31.239 298.267 31.085 C 313.424 30.574,345.737 30.767,347.178 31.377 M154.137 34.987 C 143.438 35.329,141.479 35.535,128.487 37.689 C 118.407 39.361,114.421 39.859,114.421 39.447 C 114.421 39.131,114.102 38.749,113.712 38.600 C 113.322 38.450,113.002 38.002,113.002 37.603 C 113.002 36.179,107.973 36.633,106.612 38.180 C 104.979 40.034,104.984 42.810,106.619 43.220 C 109.747 44.005,108.588 45.749,97.271 57.290 L 86.761 68.007 80.032 68.273 C 64.182 68.900,34.145 72.735,31.947 74.412 C 30.376 75.609,29.226 78.999,30.270 79.354 C 30.993 79.600,30.813 82.087,30.024 82.742 C 29.504 83.174,29.314 84.318,29.314 87.028 C 29.314 89.061,29.102 90.856,28.842 91.017 C 27.588 91.791,28.335 96.183,29.907 97.281 L 31.429 98.345 28.008 98.345 L 24.586 98.345 24.586 102.600 L 24.586 106.856 27.896 106.856 C 29.716 106.856,31.206 106.955,31.206 107.076 C 31.206 107.197,30.841 108.061,30.396 108.995 C 29.327 111.236,29.863 111.567,34.569 111.577 L 38.169 111.584 38.463 113.726 C 41.316 134.540,72.852 135.376,78.034 114.775 L 78.599 112.530 81.735 112.528 C 84.702 112.527,85.058 112.402,88.381 110.190 L 91.892 107.854 93.650 109.246 C 95.127 110.416,95.835 110.638,98.082 110.638 C 99.625 110.638,101.384 110.963,102.241 111.406 C 103.588 112.103,106.659 112.141,135.355 111.822 L 166.984 111.471 168.788 113.233 C 170.530 114.934,170.677 114.984,172.994 114.665 C 175.682 114.295,179.196 114.733,179.196 115.437 C 179.196 116.683,181.974 121.523,183.823 123.500 C 194.795 135.229,214.306 130.466,218.402 115.058 L 218.924 113.094 221.637 112.825 C 223.129 112.678,226.950 112.421,230.128 112.255 C 233.949 112.056,237.634 111.521,241.003 110.677 L 246.099 109.401 246.240 106.997 L 246.382 104.592 248.438 104.075 L 250.494 103.557 250.813 100.124 C 250.988 98.235,251.237 96.318,251.366 95.863 C 251.712 94.641,252.482 94.858,252.482 96.178 C 252.482 98.122,259.128 99.076,262.590 97.630 L 264.303 96.914 264.303 77.616 L 264.303 58.318 261.999 57.239 C 259.253 55.953,255.699 56.199,253.054 57.859 L 251.450 58.865 251.738 63.948 C 252.298 73.819,251.049 70.417,248.267 54.492 C 246.870 46.495,245.643 39.724,245.540 39.445 C 245.437 39.166,243.802 38.055,241.906 36.977 L 238.459 35.015 202.090 34.816 C 182.087 34.707,160.508 34.784,154.137 34.987 M241.557 37.828 L 244.698 39.694 247.239 54.244 C 250.130 70.794,249.890 69.806,251.097 70.122 C 251.869 70.324,252.009 70.792,252.009 73.157 L 252.009 75.954 200.879 76.063 L 149.749 76.173 150.042 71.774 C 150.203 69.355,150.476 61.402,150.649 54.100 L 150.962 40.824 146.994 40.992 C 144.812 41.084,137.636 41.349,131.048 41.580 C 120.212 41.961,118.099 42.160,118.716 42.738 C 118.824 42.840,125.910 42.680,134.463 42.383 L 150.013 41.844 149.705 54.374 C 149.536 61.265,149.266 68.978,149.106 71.513 L 148.814 76.123 146.984 76.123 L 145.154 76.123 145.154 73.274 C 145.154 70.499,145.118 70.418,143.761 70.147 L 142.367 69.868 142.586 60.821 C 142.707 55.844,142.895 49.895,143.006 47.599 L 143.206 43.425 130.586 43.733 C 123.646 43.903,117.396 44.258,116.698 44.524 C 115.904 44.825,112.019 49.199,106.333 56.191 C 101.331 62.343,96.917 67.754,96.525 68.216 C 94.864 70.172,98.326 71.884,103.665 71.748 C 108.117 71.635,108.276 71.667,108.275 72.656 C 108.274 74.320,108.786 75.177,109.783 75.177 C 110.319 75.177,110.634 75.429,110.522 75.768 C 110.305 76.426,105.109 76.945,97.991 77.022 L 93.617 77.069 93.617 74.789 C 93.617 69.946,96.214 66.110,109.689 51.048 C 112.545 47.856,113.534 46.349,114.420 43.837 C 115.037 42.091,115.768 40.660,116.045 40.657 C 116.322 40.655,122.506 39.664,129.787 38.456 C 146.471 35.689,151.813 35.491,202.306 35.766 L 238.417 35.963 241.557 37.828 M293.187 36.246 C 292.821 36.661,292.421 38.037,292.300 39.304 C 292.178 40.571,291.893 41.608,291.666 41.608 C 291.439 41.608,291.253 42.355,291.253 43.269 C 291.253 44.183,291.050 45.300,290.803 45.751 C 290.555 46.203,290.219 48.008,290.056 49.764 C 289.893 51.519,289.563 52.955,289.324 52.955 C 288.627 52.955,288.823 56.266,289.564 57.008 C 290.564 58.008,350.904 58.022,351.733 57.022 C 352.322 56.312,351.936 50.118,351.303 50.118 C 351.116 50.118,350.817 48.364,350.638 46.220 C 350.460 44.077,350.110 42.119,349.861 41.871 C 349.612 41.622,349.409 40.610,349.409 39.622 C 349.409 38.634,349.247 37.825,349.048 37.825 C 348.850 37.825,348.478 37.346,348.221 36.761 L 347.754 35.697 320.804 35.595 C 296.641 35.502,293.785 35.570,293.187 36.246 M348.165 37.470 C 348.322 38.056,348.453 39.107,348.457 39.807 C 348.460 40.506,348.676 41.210,348.936 41.371 C 349.196 41.532,349.409 42.502,349.409 43.527 C 349.409 44.552,349.596 45.390,349.826 45.390 C 350.055 45.390,350.394 47.411,350.579 49.881 C 350.764 52.351,351.109 54.491,351.344 54.637 C 351.580 54.783,351.773 55.347,351.773 55.890 C 351.773 57.353,337.795 56.795,336.633 55.286 C 335.667 54.032,318.440 54.063,318.440 55.319 C 318.440 55.905,319.631 56.073,325.296 56.285 L 332.151 56.541 326.241 56.637 C 316.069 56.803,309.605 56.270,309.337 55.243 C 308.971 53.845,292.199 53.907,292.199 55.307 C 292.199 56.191,292.594 56.248,299.645 56.384 L 307.092 56.527 298.398 56.632 L 289.704 56.738 290.030 53.546 C 290.210 51.791,290.558 50.152,290.805 49.905 C 291.051 49.658,291.253 48.554,291.253 47.451 C 291.253 46.348,291.448 45.326,291.686 45.178 C 291.924 45.031,292.268 43.317,292.450 41.368 C 292.633 39.419,292.970 37.825,293.200 37.825 C 293.429 37.825,293.617 37.506,293.617 37.116 C 293.617 36.494,296.947 36.407,320.749 36.407 L 347.880 36.407 348.165 37.470 M154.447 42.945 C 153.778 43.684,153.664 45.081,153.664 52.552 L 153.664 61.294 155.184 63.271 L 156.704 65.248 196.718 65.248 C 240.871 65.248,237.697 65.464,238.460 62.411 C 238.920 60.568,236.458 43.891,235.580 42.908 C 234.418 41.606,200.072 41.641,198.891 42.945 C 197.506 44.476,197.739 61.153,199.160 62.148 C 200.067 62.784,202.744 62.884,218.839 62.884 C 235.345 62.884,237.401 62.965,236.879 63.593 C 236.365 64.213,231.314 64.303,196.690 64.303 C 162.067 64.303,157.016 64.213,156.501 63.593 C 155.980 62.965,158.013 62.884,174.337 62.884 C 191.586 62.884,192.811 62.829,193.544 62.020 C 194.781 60.653,194.709 43.992,193.462 42.863 C 192.068 41.601,155.593 41.678,154.447 42.945 M174.468 52.482 L 174.468 61.939 165.106 61.939 C 153.570 61.939,154.610 62.875,154.610 52.482 C 154.610 42.089,153.570 43.026,165.106 43.026 L 174.468 43.026 174.468 52.482 M192.813 43.593 C 193.611 44.392,193.611 60.573,192.813 61.371 C 192.414 61.770,189.745 61.939,183.830 61.939 L 175.414 61.939 175.414 52.482 L 175.414 43.026 183.830 43.026 C 189.745 43.026,192.414 43.195,192.813 43.593 M218.440 52.482 L 218.440 61.939 209.314 61.939 C 198.050 61.939,199.054 62.864,199.054 52.482 C 199.054 42.101,198.050 43.026,209.314 43.026 L 218.440 43.026 218.440 52.482 M234.928 43.663 C 235.734 44.634,237.827 60.626,237.243 61.348 C 236.891 61.782,234.455 61.939,228.074 61.939 L 219.385 61.939 219.385 52.482 L 219.385 43.026 226.892 43.026 C 232.611 43.026,234.526 43.178,234.928 43.663 M141.964 51.891 C 141.901 55.987,141.720 61.732,141.563 64.657 L 141.278 69.976 136.478 69.978 C 133.838 69.979,128.327 70.118,124.232 70.288 L 116.785 70.597 116.785 66.779 C 116.785 61.392,116.841 61.466,112.773 61.466 C 108.504 61.466,108.352 61.638,108.177 66.690 L 108.038 70.686 103.847 70.823 C 99.707 70.959,97.400 70.315,97.400 69.024 C 97.400 68.690,115.760 45.832,116.446 45.312 C 116.588 45.205,131.601 44.646,137.352 44.535 L 142.080 44.444 141.964 51.891 M284.853 56.011 C 285.269 60.445,285.213 60.520,281.532 60.520 L 278.487 60.520 278.487 56.501 L 278.487 52.482 281.505 52.482 L 284.522 52.482 284.853 56.011 M363.121 56.501 L 363.121 60.520 360.322 60.520 C 356.446 60.520,356.028 60.288,356.028 58.133 C 356.028 57.136,356.241 56.189,356.501 56.028 C 356.761 55.868,356.974 55.004,356.974 54.109 L 356.974 52.482 360.047 52.482 L 363.121 52.482 363.121 56.501 M261.332 57.984 L 263.357 58.757 263.357 77.530 L 263.357 96.302 262.153 96.851 C 260.660 97.531,257.548 97.554,255.201 96.902 L 253.428 96.409 253.403 92.295 C 253.389 90.031,253.293 85.626,253.189 82.506 C 252.376 58.038,252.356 59.404,253.535 58.666 C 255.915 57.177,258.604 56.942,261.332 57.984 M300.118 61.439 C 300.703 61.927,301.182 62.671,301.182 63.093 C 301.182 63.515,301.501 63.982,301.891 64.132 C 302.741 64.458,302.837 65.248,302.027 65.248 C 301.394 65.248,297.400 61.490,297.400 60.894 C 297.400 60.210,299.039 60.539,300.118 61.439 M344.681 60.900 C 344.681 61.108,343.797 62.172,342.716 63.264 C 341.635 64.355,340.923 65.248,341.134 65.248 C 341.344 65.248,342.312 64.386,343.284 63.333 C 345.033 61.439,345.085 61.420,348.046 61.560 L 351.040 61.702 349.870 62.760 C 345.902 66.349,345.087 66.853,344.171 66.281 C 343.678 65.973,342.781 65.721,342.177 65.721 C 340.584 65.721,339.064 64.563,340.123 64.157 C 340.549 63.993,340.898 63.515,340.898 63.093 C 340.898 62.671,341.377 61.927,341.962 61.439 C 343.045 60.536,344.681 60.211,344.681 60.900 M115.737 68.282 C 115.893 74.874,115.872 74.911,112.100 74.473 L 109.220 74.139 109.220 68.590 C 109.220 62.098,109.084 62.332,112.747 62.510 L 115.603 62.648 115.737 68.282 M288.416 63.345 C 288.416 63.599,289.374 64.242,290.544 64.775 C 291.714 65.309,292.671 65.952,292.671 66.206 C 292.671 66.459,292.991 66.667,293.381 66.667 C 293.771 66.667,294.090 66.986,294.090 67.376 C 294.090 67.766,293.677 68.085,293.172 68.085 C 292.667 68.085,292.133 68.282,291.985 68.522 C 291.836 68.762,291.038 69.107,290.210 69.288 C 288.627 69.636,287.470 70.511,287.470 71.361 C 287.470 71.640,286.832 71.868,286.052 71.868 C 284.697 71.868,284.634 71.777,284.634 69.846 L 284.634 67.824 286.525 68.004 C 287.565 68.103,288.416 68.375,288.416 68.608 C 288.416 68.840,288.842 69.031,289.362 69.031 C 289.882 69.031,290.307 68.845,290.307 68.617 C 290.307 68.175,288.051 67.612,286.280 67.612 C 284.568 67.612,284.043 65.266,285.416 63.749 C 286.235 62.843,288.416 62.550,288.416 63.345 M80.266 69.356 C 79.814 69.474,78.962 69.478,78.374 69.365 C 77.786 69.252,78.156 69.155,79.196 69.150 C 80.236 69.145,80.718 69.237,80.266 69.356 M93.389 70.095 C 93.203 70.680,92.942 72.462,92.810 74.056 L 92.569 76.954 76.190 77.285 C 67.181 77.466,53.322 77.793,45.390 78.011 C 29.733 78.442,30.636 78.463,31.126 77.670 C 31.937 76.357,43.666 74.570,78.251 70.489 C 93.152 68.730,93.828 68.713,93.389 70.095 M294.090 74.762 C 294.090 79.804,294.004 80.423,293.381 79.905 C 292.830 79.448,292.671 78.169,292.671 74.174 C 292.671 69.917,292.794 69.031,293.381 69.031 C 293.972 69.031,294.090 69.983,294.090 74.762 M304.861 74.586 L 304.728 80.142 299.882 80.277 L 295.035 80.411 295.035 74.721 L 295.035 69.031 300.015 69.031 L 304.995 69.031 304.861 74.586 M328.044 69.384 C 323.965 69.463,317.156 69.463,312.914 69.385 C 308.672 69.306,312.009 69.242,320.331 69.242 C 328.652 69.241,332.123 69.306,328.044 69.384 M345.626 74.721 L 345.626 80.411 340.780 80.277 L 335.934 80.142 335.801 74.586 L 335.667 69.031 340.647 69.031 L 345.626 69.031 345.626 74.721 M347.991 74.174 C 347.991 78.169,347.832 79.448,347.281 79.905 C 346.658 80.423,346.572 79.804,346.572 74.762 C 346.572 69.983,346.690 69.031,347.281 69.031 C 347.868 69.031,347.991 69.917,347.991 74.174 M356.974 70.922 C 356.974 73.209,355.992 73.446,354.035 71.631 C 353.334 70.981,352.538 70.449,352.266 70.449 C 351.449 70.449,351.712 69.589,352.600 69.357 C 355.780 68.526,356.974 68.953,356.974 70.922 M71.868 70.278 C 49.926 72.971,39.403 74.399,35.934 75.154 C 31.470 76.126,31.034 76.094,32.820 74.924 C 34.564 73.781,67.181 69.623,74.468 69.614 C 76.694 69.612,76.133 69.755,71.868 70.278 M298.602 70.122 C 294.676 72.511,295.273 78.597,299.500 79.283 C 302.641 79.793,305.630 74.613,303.452 72.435 C 303.139 72.123,303.048 71.868,303.249 71.868 C 303.732 71.868,302.591 70.836,301.288 70.095 C 300.047 69.388,299.804 69.391,298.602 70.122 M339.263 70.122 C 337.418 71.245,336.966 71.987,336.748 74.249 C 336.340 78.493,340.777 81.040,343.622 78.195 C 344.711 77.106,344.777 72.345,343.717 71.361 C 341.810 69.590,340.662 69.271,339.263 70.122 M291.962 72.340 C 291.962 74.134,289.724 75.090,288.829 73.679 C 287.693 71.886,288.342 70.386,290.189 70.539 C 291.872 70.678,291.962 70.769,291.962 72.340 M301.182 70.922 C 301.182 71.182,301.501 71.395,301.891 71.395 C 302.281 71.395,302.600 71.714,302.600 72.104 C 302.600 72.494,302.772 72.813,302.981 72.813 C 303.190 72.813,303.411 73.664,303.473 74.704 C 303.536 75.771,303.370 76.596,303.092 76.596 C 302.822 76.596,302.600 76.915,302.600 77.305 C 302.600 77.695,302.281 78.014,301.891 78.014 C 301.501 78.014,301.182 78.227,301.182 78.487 C 301.182 78.747,300.650 78.960,300.000 78.960 C 299.350 78.960,298.818 78.747,298.818 78.487 C 298.818 78.227,298.499 78.014,298.109 78.014 C 297.719 78.014,297.400 77.695,297.400 77.305 C 297.400 76.915,297.187 76.596,296.927 76.596 C 295.861 76.596,296.435 72.961,297.700 71.696 C 298.916 70.480,301.182 69.977,301.182 70.922 M335.107 71.277 C 335.257 71.728,333.958 71.868,329.630 71.868 C 325.654 71.868,323.900 72.037,323.768 72.432 C 323.505 73.221,318.112 73.245,317.849 72.459 C 317.705 72.027,316.010 71.868,311.545 71.868 C 306.406 71.868,305.437 71.754,305.437 71.152 C 305.437 70.180,334.783 70.304,335.107 71.277 M342.962 71.696 C 344.227 72.961,344.801 76.596,343.735 76.596 C 343.475 76.596,343.262 76.915,343.262 77.305 C 343.262 77.695,342.943 78.014,342.553 78.014 C 342.163 78.014,341.844 78.227,341.844 78.487 C 341.844 78.747,341.312 78.960,340.662 78.960 C 340.012 78.960,339.480 78.747,339.480 78.487 C 339.480 78.227,339.161 78.014,338.771 78.014 C 338.381 78.014,338.061 77.695,338.061 77.305 C 338.061 76.915,337.849 76.596,337.589 76.596 C 337.329 76.596,337.116 75.745,337.116 74.704 C 337.116 73.664,337.329 72.813,337.589 72.813 C 337.849 72.813,338.061 72.494,338.061 72.104 C 338.061 71.714,338.381 71.395,338.771 71.395 C 339.161 71.395,339.480 71.182,339.480 70.922 C 339.480 69.977,341.746 70.480,342.962 71.696 M144.208 73.457 L 144.208 75.991 141.726 76.289 C 137.540 76.792,113.475 76.650,113.475 76.123 C 113.475 75.863,113.965 75.650,114.563 75.650 C 116.069 75.650,116.785 74.787,116.785 72.971 L 116.785 71.427 121.868 71.275 C 124.663 71.191,130.833 71.078,135.579 71.022 L 144.208 70.922 144.208 73.457 M353.389 71.682 C 353.801 71.840,354.137 72.489,354.137 73.124 C 354.137 75.025,348.771 74.613,348.550 72.695 C 348.397 71.361,351.085 70.798,353.389 71.682 M319.149 72.340 C 319.149 72.600,319.787 72.813,320.567 72.813 C 321.348 72.813,321.986 72.600,321.986 72.340 C 321.986 72.080,321.348 71.868,320.567 71.868 C 319.787 71.868,319.149 72.080,319.149 72.340 M287.668 73.100 C 288.080 73.258,288.416 73.864,288.416 74.446 C 288.416 75.076,289.230 76.282,290.426 77.422 C 291.531 78.476,292.709 79.679,293.045 80.095 C 293.590 80.772,296.452 80.851,320.335 80.851 L 347.017 80.851 348.065 79.433 C 348.705 78.568,349.541 78.014,350.207 78.014 C 351.260 78.014,353.191 76.537,353.191 75.733 C 353.191 74.842,355.515 73.216,356.573 73.365 C 357.657 73.519,357.686 73.652,357.816 79.078 L 357.950 84.634 351.191 84.634 C 344.534 84.634,344.419 84.651,343.545 85.816 L 342.657 86.998 320.734 86.998 L 298.812 86.998 297.784 85.816 C 296.780 84.661,296.603 84.634,290.222 84.634 L 283.688 84.634 283.688 79.663 C 283.688 73.310,284.542 71.901,287.668 73.100 M318.706 74.113 C 319.373 74.945,319.826 75.200,319.962 74.823 C 320.231 74.071,321.513 74.046,321.513 74.793 C 321.513 75.102,322.110 74.783,322.839 74.084 C 324.344 72.642,335.566 72.020,335.107 73.404 C 334.822 74.264,324.811 74.498,324.277 73.657 C 324.010 73.236,323.889 73.366,323.884 74.081 C 323.879 74.787,323.542 75.159,322.813 75.263 C 322.228 75.347,324.807 75.337,328.545 75.241 C 334.136 75.098,335.302 75.181,335.126 75.713 C 334.778 76.758,323.091 76.887,321.955 75.859 C 321.087 75.073,319.149 75.287,319.149 76.168 C 319.149 76.930,305.796 76.493,305.540 75.723 C 305.367 75.204,306.620 75.116,312.332 75.250 C 316.184 75.340,318.974 75.345,318.533 75.261 C 318.078 75.174,317.730 74.673,317.730 74.102 C 317.730 73.320,317.604 73.223,317.163 73.664 C 316.249 74.578,305.437 74.447,305.437 73.522 C 305.437 72.003,317.441 72.538,318.706 74.113 M292.199 76.155 C 292.199 77.250,290.685 77.079,289.379 75.836 C 288.781 75.267,288.925 75.177,290.442 75.177 C 291.902 75.177,292.199 75.342,292.199 76.155 M352.158 76.005 C 351.908 77.324,348.463 77.461,348.463 76.151 C 348.463 75.327,348.760 75.177,350.389 75.177 C 351.968 75.177,352.287 75.326,352.158 76.005 M143.972 78.960 L 143.972 80.615 139.716 80.919 C 137.376 81.087,125.945 81.246,114.314 81.274 L 93.168 81.324 93.460 79.787 C 93.621 78.942,93.810 78.180,93.881 78.094 C 93.951 78.008,102.219 77.815,112.253 77.666 L 130.496 77.394 130.496 78.650 L 130.496 79.905 135.225 79.905 C 139.909 79.905,139.953 79.895,139.953 78.763 C 139.953 77.446,140.561 77.084,142.553 77.213 C 143.842 77.297,143.972 77.457,143.972 78.960 M226.005 78.960 L 226.005 80.851 185.448 80.851 L 144.892 80.851 145.073 78.960 L 145.253 77.069 185.629 77.069 L 226.005 77.069 226.005 78.960 M251.880 78.957 L 251.773 80.846 245.272 80.849 L 238.771 80.851 238.771 78.960 L 238.771 77.069 245.379 77.069 L 251.988 77.069 251.880 78.957 M334.988 78.014 C 334.988 78.847,306.587 79.353,305.769 78.535 C 304.456 77.222,306.246 77.057,320.481 77.180 C 333.006 77.288,334.988 77.402,334.988 78.014 M92.664 79.078 C 92.648 81.470,93.067 81.413,73.699 81.616 C 63.720 81.720,52.311 81.884,48.345 81.979 L 41.135 82.154 41.135 80.557 L 41.135 78.960 45.981 78.897 C 48.647 78.862,56.678 78.689,63.830 78.512 C 70.981 78.336,80.396 78.151,84.752 78.103 L 92.671 78.014 92.664 79.078 M36.407 80.320 C 36.407 81.069,36.087 81.946,35.697 82.270 C 35.246 82.644,34.976 83.738,34.955 85.282 C 34.930 87.073,34.815 87.460,34.515 86.761 C 33.870 85.260,33.981 83.382,34.752 82.742 C 35.142 82.419,35.461 81.435,35.461 80.557 C 35.461 79.678,35.674 78.960,35.934 78.960 C 36.194 78.960,36.407 79.572,36.407 80.320 M40.189 80.615 C 40.189 82.138,40.077 82.270,38.771 82.270 C 37.465 82.270,37.352 82.138,37.352 80.615 C 37.352 79.091,37.465 78.960,38.771 78.960 C 40.077 78.960,40.189 79.091,40.189 80.615 M34.515 80.557 C 34.515 81.175,34.172 81.966,33.753 82.314 C 33.152 82.812,33.052 83.470,33.281 85.412 C 33.557 87.765,32.275 89.835,30.542 89.835 C 29.883 89.835,30.274 83.792,30.969 83.215 C 31.359 82.891,31.678 81.908,31.678 81.030 C 31.678 79.570,31.801 79.433,33.097 79.433 C 34.275 79.433,34.515 79.623,34.515 80.557 M334.752 79.905 C 334.752 80.210,329.630 80.378,320.331 80.378 C 311.032 80.378,305.910 80.210,305.910 79.905 C 305.910 79.601,311.032 79.433,320.331 79.433 C 329.630 79.433,334.752 79.601,334.752 79.905 M143.735 82.270 C 143.735 82.580,135.102 82.704,118.558 82.631 L 93.381 82.520 115.366 82.270 C 127.459 82.132,138.788 81.969,140.544 81.908 C 142.430 81.842,143.735 81.990,143.735 82.270 M252.009 82.270 C 252.009 82.582,233.797 82.742,198.317 82.742 C 162.643 82.742,144.723 82.584,144.917 82.270 C 145.109 81.959,163.519 81.797,198.609 81.797 C 233.894 81.797,252.009 81.957,252.009 82.270 M87.707 82.765 C 85.106 82.951,74.362 83.079,63.830 83.049 L 44.681 82.995 63.830 82.742 C 74.362 82.603,85.106 82.475,87.707 82.458 L 92.435 82.425 87.707 82.765 M39.716 83.625 C 39.716 83.851,38.865 84.598,37.825 85.287 L 35.934 86.538 35.934 84.877 C 35.934 83.253,35.977 83.215,37.825 83.215 C 38.865 83.215,39.716 83.400,39.716 83.625 M307.329 83.668 C 307.329 83.969,308.798 84.161,311.096 84.161 C 314.251 84.161,314.820 84.276,314.592 84.870 C 314.170 85.970,307.891 85.871,307.041 84.752 C 306.617 84.193,306.408 84.127,306.398 84.549 C 306.365 85.927,307.720 86.525,310.875 86.525 C 314.390 86.525,315.950 85.666,315.046 84.229 C 314.473 83.316,307.329 82.797,307.329 83.668 M316.752 83.964 C 315.511 85.459,316.788 86.288,320.331 86.288 C 322.809 86.288,323.650 86.110,324.035 85.501 C 324.957 84.038,323.623 83.215,320.331 83.215 C 318.209 83.215,317.198 83.427,316.752 83.964 M325.735 83.964 C 324.506 85.445,325.773 86.275,329.495 86.428 C 333.643 86.598,335.292 85.579,333.604 83.891 C 332.615 82.902,326.570 82.959,325.735 83.964 M92.199 88.510 C 92.199 92.662,91.987 93.976,90.680 97.966 L 89.161 102.600 85.752 102.600 L 82.343 102.600 80.642 98.211 C 75.971 86.155,73.157 85.031,51.230 86.462 L 45.958 86.806 42.339 89.975 L 38.720 93.144 34.017 93.144 C 27.836 93.144,27.913 92.792,35.106 88.142 L 40.898 84.397 62.648 84.151 C 74.610 84.016,86.152 83.857,88.298 83.797 L 92.199 83.688 92.199 88.510 M143.561 90.189 C 143.337 94.774,142.956 97.561,142.268 99.645 L 141.294 102.600 118.183 102.600 L 95.072 102.600 94.551 100.591 C 94.264 99.486,93.831 97.837,93.589 96.927 C 93.088 95.039,92.981 84.481,93.459 84.003 C 93.633 83.830,105.048 83.688,118.827 83.688 L 143.879 83.688 143.561 90.189 M252.179 85.461 C 252.867 89.622,252.549 94.090,251.566 94.090 C 250.827 94.090,250.593 94.527,250.362 96.336 C 250.205 97.571,249.925 99.539,249.740 100.709 L 249.403 102.837 246.569 103.149 C 241.704 103.686,225.816 104.178,224.051 103.846 C 222.461 103.548,222.337 103.388,221.780 100.896 C 220.487 95.121,217.504 87.777,215.693 85.912 L 213.950 84.117 200.247 84.451 L 186.544 84.785 184.677 86.137 C 183.006 87.348,182.479 88.298,179.671 95.163 L 176.533 102.837 159.685 102.821 C 150.418 102.812,142.719 102.687,142.575 102.544 C 142.432 102.400,142.731 101.071,143.241 99.589 C 143.889 97.707,144.267 94.905,144.495 90.292 L 144.822 83.688 198.354 83.688 L 251.886 83.688 252.179 85.461 M323.877 84.870 C 323.877 85.437,323.168 85.579,320.331 85.579 C 317.494 85.579,316.785 85.437,316.785 84.870 C 316.785 84.303,317.494 84.161,320.331 84.161 C 323.168 84.161,323.877 84.303,323.877 84.870 M333.333 84.870 C 333.333 85.441,332.598 85.579,329.551 85.579 C 326.504 85.579,325.768 85.441,325.768 84.870 C 325.768 84.299,326.504 84.161,329.551 84.161 C 332.598 84.161,333.333 84.299,333.333 84.870 M215.366 86.998 C 216.382 88.038,216.994 88.889,216.727 88.889 C 216.459 88.889,215.725 88.339,215.094 87.666 L 213.948 86.443 200.674 86.602 L 187.400 86.761 185.436 88.061 C 183.197 89.544,182.906 89.628,183.265 88.692 C 184.180 86.308,186.798 85.608,195.363 85.460 C 199.864 85.383,205.790 85.271,208.533 85.213 L 213.520 85.106 215.366 86.998 M298.067 86.761 L 299.163 87.943 320.657 87.943 L 342.152 87.943 343.262 86.761 C 344.325 85.630,344.611 85.579,349.964 85.579 L 355.556 85.579 355.556 87.470 L 355.556 89.362 320.804 89.362 L 286.052 89.362 286.052 87.470 L 286.052 85.579 291.512 85.579 C 296.729 85.579,297.021 85.632,298.067 86.761 M71.557 87.755 C 74.719 88.832,77.332 92.647,80.307 100.528 L 82.606 106.619 86.925 106.856 L 91.243 107.092 87.975 109.338 C 84.906 111.447,84.521 111.584,81.659 111.584 L 78.611 111.584 78.384 108.036 C 76.953 85.750,42.040 83.575,38.577 105.556 C 38.424 106.531,38.182 108.073,38.040 108.983 L 37.782 110.638 34.494 110.638 C 32.685 110.638,31.206 110.457,31.206 110.236 C 31.206 109.104,32.326 106.856,32.890 106.856 C 34.224 106.856,35.934 103.475,35.934 100.836 L 35.934 98.345 34.355 98.345 C 32.519 98.345,29.358 96.188,29.332 94.917 C 29.316 94.180,29.862 94.090,34.334 94.090 L 39.353 94.090 42.490 91.334 C 46.822 87.528,46.139 87.736,55.319 87.445 C 59.870 87.300,64.885 87.141,66.464 87.090 C 68.102 87.037,70.290 87.323,71.557 87.755 M215.334 88.924 C 216.761 90.176,217.313 91.365,219.342 97.552 L 221.695 104.728 226.332 105.089 C 228.918 105.291,233.805 105.238,237.379 104.971 C 240.904 104.707,244.149 104.492,244.589 104.492 C 245.221 104.492,245.390 104.933,245.390 106.580 L 245.390 108.668 240.307 109.847 C 237.512 110.496,232.884 111.158,230.024 111.317 C 227.163 111.476,223.521 111.722,221.930 111.863 L 219.038 112.119 218.822 108.387 C 217.796 90.665,195.367 83.265,183.509 96.737 C 179.983 100.743,178.052 106.674,178.599 111.820 L 178.799 113.712 174.533 113.712 C 170.330 113.712,170.242 113.688,168.624 112.120 L 166.982 110.529 135.357 110.880 C 106.639 111.199,103.595 111.161,102.244 110.462 C 101.415 110.033,99.639 109.693,98.233 109.693 C 96.116 109.693,95.445 109.466,94.072 108.287 L 92.435 106.882 134.483 106.987 L 176.531 107.092 177.101 104.965 C 177.415 103.794,179.054 99.965,180.743 96.454 C 185.108 87.382,184.533 87.621,202.229 87.530 L 213.679 87.470 215.334 88.924 M358.071 93.144 C 358.071 94.835,358.157 95.526,358.262 94.681 C 358.367 93.836,358.367 92.453,358.262 91.608 C 358.157 90.762,358.071 91.454,358.071 93.144 M66.313 92.311 C 78.278 97.831,81.334 113.614,72.290 123.177 C 61.413 134.677,41.420 128.343,39.270 112.715 C 37.219 97.812,52.783 86.069,66.313 92.311 M206.739 92.311 C 218.703 97.831,221.760 113.614,212.716 123.177 C 201.839 134.677,181.845 128.343,179.695 112.715 C 177.645 97.812,193.208 86.069,206.739 92.311 M93.790 101.300 C 94.098 102.560,94.047 102.600,92.157 102.600 C 90.795 102.600,90.272 102.422,90.424 102.009 C 90.544 101.684,91.032 100.248,91.508 98.818 L 92.373 96.217 92.923 98.109 C 93.225 99.149,93.615 100.585,93.790 101.300 M289.693 97.872 L 293.617 97.872 293.617 109.220 L 293.617 120.567 289.125 120.567 L 284.634 120.567 284.634 108.652 C 284.634 99.385,284.760 96.864,285.201 97.305 C 285.551 97.655,287.271 97.872,289.693 97.872 M53.572 98.566 C 41.452 103.837,45.131 121.986,58.320 121.986 C 71.280 121.986,75.285 104.527,63.593 98.999 C 60.845 97.700,56.042 97.492,53.572 98.566 M355.556 109.220 L 355.556 120.567 351.064 120.567 L 346.572 120.567 346.572 109.220 L 346.572 97.872 351.064 97.872 L 355.556 97.872 355.556 109.220 M62.781 99.551 C 70.058 102.586,71.874 112.614,66.133 118.061 C 58.993 124.836,47.121 119.758,47.121 109.929 C 47.121 101.983,55.422 96.482,62.781 99.551 M34.988 101.201 C 34.988 104.769,33.592 105.910,29.226 105.910 L 25.532 105.910 25.532 102.600 L 25.532 99.291 30.260 99.291 L 34.988 99.291 34.988 101.201 M55.265 100.501 C 52.509 101.350,49.449 104.547,48.689 107.370 C 46.055 117.152,58.696 124.237,65.447 116.764 C 72.434 109.030,65.182 97.447,55.265 100.501 M195.734 100.489 C 190.869 101.989,187.742 107.502,189.056 112.261 C 191.182 119.961,200.685 122.506,205.873 116.764 C 212.840 109.052,205.608 97.444,195.734 100.489 M60.651 101.210 C 67.609 103.143,69.557 111.900,64.097 116.695 C 59.118 121.066,51.766 118.859,49.657 112.360 C 47.571 105.930,54.036 99.373,60.651 101.210 M202.600 101.768 C 208.476 104.723,209.459 112.360,204.522 116.695 C 196.495 123.743,185.314 113.165,191.543 104.416 C 193.769 101.291,199.109 100.011,202.600 101.768 M295.981 103.924 C 295.981 104.392,295.744 105.012,295.455 105.301 C 295.166 105.591,295.041 106.112,295.177 106.460 C 295.329 106.847,295.663 106.500,296.038 105.568 C 296.863 103.519,297.872 103.165,297.872 104.925 C 297.872 107.235,304.922 109.332,306.766 107.570 C 307.168 107.186,307.221 104.481,306.832 104.240 C 306.585 104.088,306.383 104.614,306.383 105.409 C 306.383 106.845,306.365 106.856,303.810 106.856 C 302.395 106.856,301.102 107.076,300.936 107.344 C 300.475 108.090,298.818 105.707,298.818 104.299 C 298.818 103.252,298.611 103.073,297.400 103.073 C 296.349 103.073,295.981 103.294,295.981 103.924 M307.329 103.507 C 307.329 104.750,310.936 107.972,311.867 107.560 C 312.681 107.200,312.654 107.144,311.584 106.966 C 310.230 106.741,308.747 105.563,308.747 104.713 C 308.747 104.395,308.428 103.870,308.038 103.546 C 307.522 103.118,307.329 103.107,307.329 103.507 M342.080 103.546 C 342.241 103.806,342.892 104.019,343.527 104.019 C 344.161 104.019,344.681 103.806,344.681 103.546 C 344.681 103.286,344.030 103.073,343.235 103.073 C 342.391 103.073,341.910 103.270,342.080 103.546 M88.587 104.255 C 88.388 104.775,87.569 104.965,85.529 104.965 C 83.367 104.965,82.742 104.806,82.742 104.255 C 82.742 103.698,83.397 103.546,85.801 103.546 C 88.325 103.546,88.812 103.670,88.587 104.255 M94.447 104.374 C 94.587 104.799,93.905 104.965,92.016 104.965 C 89.840 104.965,89.439 104.839,89.673 104.232 C 90.019 103.330,94.144 103.452,94.447 104.374 M127.764 104.019 C 135.807 104.019,139.908 104.181,139.716 104.492 C 139.144 105.418,95.508 105.110,95.508 104.180 C 95.508 103.464,96.384 103.423,105.514 103.707 C 111.017 103.879,121.029 104.019,127.764 104.019 M323.995 103.915 C 319.220 104.025,318.203 104.173,318.203 104.758 C 318.203 105.148,317.832 105.610,317.377 105.784 C 316.923 105.958,316.044 106.608,315.425 107.227 C 314.744 107.908,313.949 108.261,313.414 108.121 C 312.860 107.976,312.530 108.138,312.530 108.555 C 312.530 109.620,314.159 109.323,315.366 108.038 C 315.977 107.388,316.663 106.856,316.890 106.856 C 317.117 106.856,317.790 106.330,318.385 105.688 C 319.418 104.573,319.755 104.514,325.809 104.388 C 329.297 104.315,331.619 104.149,330.969 104.019 C 330.319 103.889,327.181 103.842,323.995 103.915 M55.946 104.709 C 53.076 105.957,51.837 109.373,53.207 112.259 C 54.865 115.753,59.463 116.518,62.222 113.759 C 66.714 109.268,61.789 102.167,55.946 104.709 M176.359 104.492 C 176.359 104.799,170.134 104.965,158.629 104.965 C 147.124 104.965,140.898 104.799,140.898 104.492 C 140.898 104.185,147.124 104.019,158.629 104.019 C 170.134 104.019,176.359 104.185,176.359 104.492 M197.285 104.352 C 194.213 104.945,192.204 109.249,193.614 112.219 C 196.218 117.708,204.255 116.031,204.255 110.000 C 204.255 107.092,201.056 103.676,198.715 104.083 C 198.512 104.119,197.868 104.240,197.285 104.352 M332.861 104.870 C 332.861 105.338,332.624 105.958,332.334 106.247 C 331.271 107.310,332.476 107.801,336.149 107.801 L 339.854 107.801 340.790 105.910 C 341.515 104.444,341.579 104.019,341.075 104.019 C 340.718 104.019,340.426 104.402,340.426 104.870 C 340.426 106.386,339.398 106.856,336.087 106.856 L 332.884 106.856 333.168 105.437 C 333.324 104.657,333.319 104.019,333.156 104.019 C 332.993 104.019,332.861 104.402,332.861 104.870 M60.530 105.679 C 64.790 107.882,63.222 114.421,58.433 114.421 C 53.439 114.421,51.736 108.450,55.991 105.856 C 57.755 104.780,58.719 104.742,60.530 105.679 M200.211 105.437 C 202.623 105.437,204.252 110.501,202.599 112.861 C 200.202 116.284,193.853 114.156,193.853 109.929 C 193.853 107.629,197.161 104.587,198.975 105.218 C 199.321 105.339,199.877 105.437,200.211 105.437 M86.879 105.776 C 86.164 105.884,84.994 105.884,84.279 105.776 C 83.564 105.668,84.149 105.579,85.579 105.579 C 87.009 105.579,87.595 105.668,86.879 105.776 M93.735 105.779 C 92.890 105.884,91.507 105.884,90.662 105.779 C 89.817 105.675,90.508 105.589,92.199 105.589 C 93.889 105.589,94.580 105.675,93.735 105.779 M130.409 105.791 C 125.551 105.868,117.465 105.868,112.442 105.791 C 107.419 105.715,111.395 105.652,121.277 105.652 C 131.158 105.652,135.268 105.714,130.409 105.791 M175.887 105.910 C 175.887 106.217,169.573 106.383,157.892 106.383 C 146.016 106.383,139.996 106.222,140.189 105.910 C 140.376 105.609,146.892 105.437,158.184 105.437 C 169.670 105.437,175.887 105.603,175.887 105.910 M197.319 106.621 C 195.746 107.282,195.272 108.112,195.272 110.204 C 195.272 113.222,199.216 114.638,201.336 112.381 C 204.123 109.415,201.073 105.042,197.319 106.621 M55.792 107.329 C 55.207 107.914,54.846 108.905,54.846 109.929 C 54.846 113.212,58.675 114.760,60.910 112.381 C 63.146 110.002,61.626 106.383,58.392 106.383 C 57.368 106.383,56.377 106.743,55.792 107.329 " stroke="none" fill="#000000" fill-rule="evenodd"></path></g></svg>