<svg id="svg" xmlns="http://www.w3.org/2000/svg" xmlns:xlink="http://www.w3.org/1999/xlink" width="400" height="153.26315789473685" viewBox="0, 0, 400,153.26315789473685"><g id="svgg"><path id="path0" d="M56.632 27.813 C 44.305 28.464,40.921 29.231,38.218 31.987 C 37.196 33.029,37.186 33.053,37.745 33.053 C 38.149 33.053,38.315 33.160,38.315 33.421 C 38.310 35.157,37.448 55.940,37.345 56.800 L 37.212 57.915 35.711 57.773 C 34.087 57.619,33.684 57.428,33.684 56.816 C 33.684 56.508,33.840 56.421,34.393 56.421 C 36.315 56.421,37.549 52.986,36.846 49.596 C 36.188 46.427,31.359 46.333,30.520 49.474 C 29.656 52.708,30.332 55.654,32.066 56.211 C 32.799 56.445,33.052 56.634,33.059 56.947 C 33.073 57.678,33.783 58.316,34.583 58.316 C 34.983 58.316,35.749 58.376,36.286 58.450 L 37.263 58.584 37.263 61.053 C 37.263 63.088,37.185 63.711,36.819 64.593 C 36.394 65.614,36.389 65.707,36.713 66.658 C 36.900 67.206,37.053 67.921,37.053 68.248 L 37.053 68.842 32.895 68.851 C 27.972 68.861,28.440 68.693,24.859 71.738 C 21.719 74.409,21.757 74.325,21.318 79.484 C 20.987 83.366,20.989 83.526,21.376 84.462 L 21.776 85.428 23.163 85.565 L 24.550 85.702 23.757 86.535 C 22.449 87.911,22.316 88.711,22.316 95.226 C 22.316 99.884,22.262 100.943,22.016 101.135 C 21.440 101.584,21.300 109.053,21.868 109.053 C 22.316 109.053,22.316 109.055,22.316 115.962 C 22.316 126.820,22.845 127.579,30.421 127.579 C 37.954 127.579,38.526 126.779,38.526 116.245 L 38.526 109.619 41.211 109.756 C 42.687 109.831,44.534 109.893,45.316 109.894 L 46.737 109.895 46.737 112.827 C 46.737 115.611,46.761 115.779,47.211 116.151 C 47.471 116.367,47.789 116.729,47.918 116.956 C 48.271 117.581,52.360 117.581,52.714 116.956 C 52.842 116.729,53.161 116.367,53.421 116.151 C 53.869 115.780,53.895 115.607,53.895 112.932 L 53.895 110.105 72.211 110.105 L 90.526 110.105 90.526 112.932 C 90.526 115.607,90.552 115.780,91.000 116.151 C 91.261 116.367,91.579 116.729,91.707 116.956 C 92.061 117.581,96.150 117.581,96.503 116.956 C 96.632 116.729,96.950 116.367,97.211 116.151 C 97.660 115.779,97.684 115.611,97.684 112.827 L 97.684 109.895 99.737 109.893 C 100.866 109.893,102.571 109.831,103.526 109.757 L 105.263 109.622 105.263 116.246 C 105.263 126.779,105.835 127.579,113.368 127.579 C 120.944 127.579,121.474 126.820,121.474 115.962 C 121.474 109.193,121.482 109.053,121.895 109.053 C 122.262 109.053,122.316 108.912,122.316 107.947 C 122.317 107.339,122.379 105.355,122.454 103.538 L 122.591 100.235 122.032 100.095 L 121.474 99.954 121.474 94.752 C 121.474 88.712,121.327 87.896,119.992 86.492 C 118.994 85.444,119.001 85.474,119.780 85.474 C 121.081 85.474,121.328 84.213,120.933 79.599 C 120.484 74.362,120.493 74.382,117.523 71.857 C 113.739 68.639,114.283 68.844,109.526 68.843 C 106.966 68.843,105.474 68.765,105.474 68.632 C 105.474 68.516,105.616 68.421,105.789 68.421 C 106.298 68.421,106.219 66.306,105.684 65.627 C 105.228 65.047,105.038 61.263,105.465 61.263 C 105.576 61.263,105.694 60.529,105.728 59.632 L 105.789 58.000 107.921 57.811 C 110.128 57.615,110.737 57.260,110.737 56.172 C 110.737 56.012,111.136 55.743,111.625 55.572 C 114.207 54.673,114.356 47.857,111.817 46.796 C 111.034 46.469,108.697 46.577,107.950 46.975 C 105.591 48.231,106.832 55.789,109.397 55.789 C 110.135 55.789,110.246 55.975,109.899 56.623 C 109.733 56.933,109.319 57.036,107.742 57.158 C 106.668 57.242,105.679 57.399,105.543 57.509 C 105.176 57.806,105.084 56.494,104.846 47.474 C 104.730 43.074,104.577 38.225,104.507 36.699 L 104.380 33.925 105.084 33.857 L 105.789 33.789 104.620 32.628 C 102.073 30.099,98.970 29.296,88.000 28.330 C 79.560 27.586,65.366 27.352,56.632 27.813 M234.632 28.209 C 229.614 28.725,225.694 30.433,228.632 30.822 C 229.946 30.997,230.417 29.170,225.043 44.744 C 222.491 52.142,220.431 58.436,220.465 58.729 C 220.538 59.360,221.097 59.379,214.737 58.533 C 203.408 57.026,162.914 57.377,159.017 59.016 L 157.928 59.474 156.680 62.243 L 155.431 65.012 155.933 65.653 C 156.831 66.801,156.464 67.368,154.823 67.368 C 153.245 67.368,153.381 67.097,153.060 70.878 C 152.697 75.143,152.641 74.892,154.000 75.062 C 155.295 75.224,155.267 75.165,155.019 77.228 C 154.876 78.425,154.923 78.375,152.673 79.724 L 151.978 80.141 154.042 81.044 C 155.177 81.541,156.135 81.973,156.172 82.005 C 156.398 82.201,154.844 86.971,154.427 87.363 L 153.949 87.812 153.508 87.064 L 153.067 86.316 150.134 86.316 L 147.200 86.316 146.812 87.395 C 146.347 88.687,146.596 88.594,143.421 88.673 L 140.842 88.737 140.842 87.762 L 140.842 86.787 138.396 86.634 L 135.949 86.482 135.397 87.034 C 134.850 87.581,134.843 87.627,134.658 92.025 L 134.471 96.463 135.078 97.058 C 135.646 97.616,135.832 97.663,138.041 97.800 L 140.398 97.947 140.462 96.713 C 140.514 95.712,140.600 95.464,140.912 95.404 C 141.239 95.342,141.263 95.396,141.070 95.757 C 140.753 96.350,140.765 103.811,141.085 104.512 C 141.365 105.128,141.167 105.056,144.842 105.885 C 146.405 106.237,147.897 106.575,148.158 106.635 C 148.489 106.712,148.632 106.899,148.632 107.258 C 148.632 107.821,148.468 107.769,151.849 108.290 C 154.073 108.633,153.784 108.352,154.399 110.777 C 157.826 124.284,172.942 131.318,185.579 125.285 C 193.207 121.643,197.890 114.461,198.255 105.842 C 198.323 104.250,198.429 102.947,198.490 102.947 C 198.551 102.947,198.893 103.050,199.248 103.177 C 200.409 103.588,203.242 102.209,203.328 101.191 C 203.405 100.284,203.325 100.294,206.203 100.831 C 207.717 101.113,208.394 101.338,208.639 101.641 C 209.661 102.903,209.192 102.871,244.526 104.122 L 276.947 105.271 279.987 104.491 C 282.146 103.937,283.050 103.783,283.110 103.960 C 283.157 104.102,283.391 104.160,283.653 104.094 C 284.008 104.005,284.760 104.483,286.933 106.176 L 289.752 108.373 295.350 109.798 C 301.819 111.445,301.122 111.086,301.979 113.211 C 308.035 128.231,327.168 132.226,338.548 120.846 C 348.359 111.035,346.854 94.618,335.418 86.712 C 320.981 76.732,301.258 86.639,300.479 104.263 C 300.414 105.739,300.346 106.947,300.328 106.947 C 298.229 106.947,292.125 105.328,289.766 104.146 C 288.294 103.408,287.175 102.751,287.281 102.685 C 288.135 102.158,296.156 99.158,296.713 99.158 L 297.422 99.158 299.711 94.711 L 302.000 90.264 305.053 87.417 C 312.822 80.171,323.659 78.428,334.907 82.616 C 340.867 84.835,342.592 86.663,348.103 96.601 L 349.312 98.781 357.551 98.637 C 362.082 98.558,365.967 98.444,366.184 98.382 C 366.568 98.274,366.575 97.837,366.423 83.458 L 366.267 68.645 366.849 67.954 L 367.430 67.263 350.926 67.115 C 341.848 67.033,324.989 66.904,313.461 66.826 L 292.500 66.686 288.711 62.238 C 284.949 57.823,284.915 57.790,284.145 57.851 L 283.368 57.913 283.368 44.325 L 283.368 30.737 281.786 30.737 L 280.204 30.737 280.223 56.368 C 280.234 70.466,280.173 85.958,280.089 90.796 L 279.935 99.592 282.020 99.477 L 284.105 99.362 282.792 99.986 C 281.892 100.413,281.514 100.703,281.592 100.905 C 281.956 101.855,277.432 102.151,266.401 101.900 C 254.484 101.629,253.086 101.558,258.684 101.509 L 262.737 101.474 262.737 100.842 L 262.737 100.211 267.652 100.211 C 275.213 100.211,275.543 100.164,276.597 98.939 L 277.462 97.936 278.343 75.547 C 278.828 63.233,279.300 53.108,279.392 53.046 C 279.753 52.806,279.864 51.158,279.519 51.158 C 279.111 51.158,279.096 51.055,278.400 43.398 C 277.970 38.674,277.897 37.181,278.089 37.063 C 278.339 36.908,278.219 35.921,277.895 35.474 C 277.596 35.062,277.473 34.141,277.705 34.063 C 278.469 33.809,276.320 30.699,274.947 30.071 C 271.831 28.645,243.227 27.324,234.632 28.209 M80.421 28.424 C 92.087 29.062,99.614 30.129,102.099 31.496 C 103.052 32.021,104.327 33.022,104.182 33.133 C 104.140 33.165,90.605 33.024,74.105 32.820 C 57.605 32.616,42.874 32.439,41.368 32.426 L 38.632 32.404 39.368 31.770 C 40.403 30.880,42.486 29.925,44.159 29.575 C 49.308 28.497,69.838 27.845,80.421 28.424 M250.769 28.743 C 264.874 29.188,272.948 29.836,274.645 30.658 C 275.799 31.217,277.241 32.972,276.837 33.326 C 276.760 33.393,234.072 30.607,230.000 30.269 L 229.158 30.199 230.211 29.694 C 231.037 29.297,232.010 29.111,234.737 28.831 C 239.253 28.367,238.926 28.368,250.769 28.743 M234.000 31.184 C 235.258 31.214,235.259 31.215,234.316 31.350 C 232.126 31.665,232.515 30.769,228.670 44.385 L 225.241 56.526 224.435 71.040 C 223.464 88.517,223.403 88.058,227.094 90.848 C 229.050 92.327,228.817 92.301,245.263 92.844 C 266.158 93.533,265.634 93.629,268.180 88.632 L 268.985 87.053 269.680 72.411 L 270.375 57.769 269.844 55.978 L 269.313 54.187 269.645 44.382 L 269.978 34.577 269.357 34.028 L 268.737 33.479 270.211 33.593 C 271.021 33.655,272.806 33.781,274.177 33.872 C 276.731 34.042,277.042 34.164,277.049 35.000 C 277.052 35.284,276.877 35.368,276.288 35.368 C 274.027 35.368,273.400 36.822,273.059 42.848 C 272.768 47.999,272.895 49.564,273.741 51.263 C 274.521 52.830,274.421 52.772,276.665 52.950 L 278.526 53.097 278.526 54.139 C 278.526 54.711,278.145 64.767,277.679 76.485 L 276.831 97.789 275.992 98.632 L 275.152 99.474 268.997 99.545 L 262.842 99.616 262.006 98.513 L 261.170 97.411 246.217 97.549 C 237.992 97.625,227.758 97.740,223.474 97.805 L 215.684 97.924 213.684 94.922 C 212.584 93.271,211.203 91.331,210.616 90.610 C 209.676 89.457,209.515 89.115,209.279 87.755 C 209.131 86.906,208.919 85.766,208.806 85.223 L 208.602 84.235 205.565 82.592 C 203.341 81.388,202.330 80.711,201.788 80.063 L 201.048 79.178 201.374 74.799 C 201.553 72.391,201.750 70.100,201.812 69.709 L 201.924 68.996 206.173 69.138 C 208.509 69.215,210.973 69.336,211.647 69.405 L 212.873 69.532 212.805 65.134 C 212.737 60.756,212.734 60.733,212.149 59.737 C 211.826 59.187,211.589 58.737,211.623 58.737 C 211.657 58.737,213.753 59.021,216.282 59.368 C 218.810 59.716,220.978 60.000,221.098 60.000 C 221.236 60.000,221.266 59.683,221.180 59.140 C 221.063 58.410,229.692 32.345,230.470 31.079 C 230.532 30.978,231.068 30.954,231.660 31.025 C 232.252 31.096,233.305 31.168,234.000 31.184 M237.842 31.519 C 237.524 31.567,237.003 31.567,236.684 31.519 C 236.366 31.471,236.626 31.432,237.263 31.432 C 237.900 31.432,238.161 31.471,237.842 31.519 M282.737 49.053 L 282.737 66.737 281.789 66.737 L 280.842 66.737 280.842 49.053 L 280.842 31.368 281.789 31.368 L 282.737 31.368 282.737 49.053 M241.108 31.727 C 240.849 31.777,240.376 31.778,240.056 31.730 C 239.736 31.682,239.947 31.641,240.526 31.639 C 241.105 31.638,241.367 31.677,241.108 31.727 M244.263 31.938 C 244.003 31.988,243.576 31.988,243.316 31.938 C 243.055 31.888,243.268 31.847,243.789 31.847 C 244.311 31.847,244.524 31.888,244.263 31.938 M251.466 33.051 C 267.381 34.032,268.538 34.129,268.926 34.517 C 269.338 34.928,269.339 35.027,269.006 44.632 L 268.671 54.332 269.202 56.061 L 269.734 57.789 269.046 72.316 L 268.359 86.842 267.555 88.421 C 265.899 91.673,264.289 92.631,260.480 92.632 C 256.025 92.632,232.574 91.801,230.668 91.575 C 227.165 91.159,223.651 87.251,224.334 84.530 L 224.467 84.000 227.300 84.000 C 230.188 84.000,230.638 83.904,231.526 83.095 C 232.087 82.584,232.153 81.576,231.671 80.888 C 231.023 79.962,230.174 79.714,227.316 79.619 C 224.744 79.533,224.632 79.510,224.633 79.080 C 224.634 78.834,224.822 75.458,225.051 71.579 C 225.280 67.700,225.468 64.408,225.470 64.263 C 225.473 64.066,226.160 64.000,228.197 64.000 C 231.901 64.000,233.053 63.497,233.053 61.877 C 233.053 60.274,231.512 59.582,227.939 59.580 L 225.667 59.579 225.804 57.947 C 226.017 55.417,232.447 32.880,233.099 32.378 C 233.710 31.909,231.810 31.839,251.466 33.051 M63.579 33.471 L 76.105 33.649 60.357 33.581 C 51.082 33.542,44.318 33.594,43.901 33.709 C 41.988 34.238,41.612 35.496,41.174 42.842 C 40.774 49.542,41.124 51.027,43.209 51.485 C 43.716 51.596,43.806 51.702,43.706 52.074 C 43.639 52.323,43.583 52.998,43.582 53.574 L 43.579 54.621 42.048 53.100 C 40.831 51.891,40.388 51.580,39.890 51.582 C 38.888 51.587,38.805 51.762,38.644 54.211 C 38.493 56.500,38.432 56.818,38.193 56.579 C 38.126 56.512,38.268 51.309,38.510 45.018 C 38.751 38.727,38.948 33.484,38.948 33.368 C 38.947 33.145,41.404 33.155,63.579 33.471 M89.433 33.841 C 88.079 33.878,85.806 33.878,84.380 33.842 C 82.955 33.805,84.063 33.775,86.842 33.775 C 89.621 33.775,90.787 33.805,89.433 33.841 M103.862 36.263 C 103.934 37.566,104.046 41.237,104.111 44.421 C 104.176 47.605,104.276 50.518,104.335 50.895 C 104.438 51.564,104.423 51.579,103.646 51.579 C 102.441 51.579,99.368 54.644,99.368 55.845 L 99.368 56.647 91.947 56.527 C 80.104 56.336,57.261 56.328,56.053 56.515 L 54.947 56.685 54.947 54.319 L 54.947 51.952 56.368 52.037 C 57.535 52.106,58.464 52.397,61.552 53.656 C 64.207 54.740,65.380 55.125,65.538 54.968 C 65.831 54.674,65.989 54.759,62.737 53.455 C 59.213 52.042,58.276 52.147,73.368 52.265 L 85.368 52.359 88.261 53.548 C 91.352 54.818,91.579 54.881,91.579 54.473 C 91.579 54.328,90.608 53.831,89.421 53.368 L 87.263 52.526 93.684 52.417 C 103.192 52.256,103.030 52.425,102.439 43.324 C 101.922 35.378,101.714 34.705,99.599 34.140 C 98.988 33.977,99.312 33.934,101.287 33.916 L 103.732 33.895 103.862 36.263 M235.767 34.043 C 234.384 34.256,234.030 34.997,231.403 43.186 C 228.490 52.269,228.410 52.852,229.803 54.876 C 230.234 55.501,230.654 56.054,230.737 56.105 C 231.263 56.430,239.187 56.921,250.822 57.348 L 264.275 57.843 264.765 57.290 C 265.814 56.105,266.037 54.218,266.222 44.930 C 266.392 36.384,266.369 36.155,265.303 35.815 C 264.537 35.571,239.409 33.875,237.368 33.930 C 236.789 33.945,236.069 33.996,235.767 34.043 M87.511 34.494 C 102.823 34.669,101.130 33.669,101.755 42.912 L 102.173 49.087 101.725 50.007 C 100.898 51.710,101.069 51.676,92.925 51.747 L 85.725 51.810 83.862 51.077 L 82.000 50.344 85.316 50.330 C 88.117 50.318,88.632 50.267,88.632 50.000 C 88.632 49.724,87.497 49.684,79.684 49.684 C 71.871 49.684,70.737 49.724,70.737 50.000 C 70.737 50.271,71.403 50.316,75.471 50.316 C 80.212 50.316,82.107 50.620,83.200 51.558 C 83.338 51.676,75.150 51.659,62.842 51.517 C 58.450 51.466,57.457 51.398,56.842 51.105 C 56.118 50.759,56.161 50.753,59.316 50.745 C 62.026 50.738,62.526 50.688,62.526 50.421 C 62.526 50.145,61.404 50.105,53.684 50.105 C 45.965 50.105,44.842 50.145,44.842 50.421 C 44.842 50.692,45.519 50.738,49.632 50.746 C 53.230 50.753,54.578 50.828,55.053 51.045 C 55.608 51.299,55.009 51.336,50.105 51.347 C 41.305 51.366,41.293 51.353,41.801 42.851 C 42.219 35.847,42.597 34.476,44.165 34.266 C 44.881 34.170,71.478 34.310,87.511 34.494 M241.593 34.787 C 241.704 34.899,240.894 56.229,240.774 56.349 C 240.662 56.460,234.014 55.944,231.884 55.658 C 229.522 55.341,229.038 52.733,230.501 48.207 C 231.080 46.414,232.188 42.911,232.963 40.421 C 234.404 35.796,234.861 34.889,235.871 34.656 C 236.302 34.557,241.483 34.675,241.593 34.787 M254.632 35.584 C 265.975 36.294,265.415 36.210,265.606 37.227 C 266.230 40.555,265.170 56.097,264.265 56.885 C 263.949 57.160,241.808 56.648,241.559 56.360 C 241.529 56.326,242.269 34.996,242.307 34.793 C 242.312 34.766,242.861 34.793,243.526 34.854 C 244.192 34.915,249.189 35.243,254.632 35.584 M277.474 36.205 C 277.474 36.320,277.202 36.356,276.858 36.287 C 274.844 35.885,274.316 37.630,274.316 44.690 C 274.316 51.275,274.596 51.789,278.184 51.789 C 278.951 51.789,279.120 51.853,279.024 52.105 C 278.889 52.456,278.255 52.496,276.229 52.284 L 274.922 52.148 274.332 50.969 C 272.915 48.137,273.476 37.699,275.114 36.411 C 275.663 35.978,277.474 35.821,277.474 36.205 M277.152 37.105 C 277.199 37.250,277.480 40.068,277.776 43.368 C 278.072 46.668,278.368 49.771,278.433 50.263 C 278.552 51.154,278.549 51.158,277.879 51.158 C 276.676 51.158,275.573 50.705,275.249 50.078 C 274.872 49.348,274.815 39.970,275.179 38.632 C 275.550 37.270,276.871 36.248,277.152 37.105 M111.741 47.484 C 113.644 48.818,113.322 54.558,111.316 55.059 C 110.599 55.238,110.484 54.575,111.158 54.154 C 111.524 53.926,111.579 53.663,111.579 52.146 C 111.579 50.205,111.419 49.895,110.421 49.895 C 109.423 49.895,109.263 50.205,109.263 52.146 C 109.263 53.663,109.318 53.926,109.684 54.154 C 110.705 54.791,109.727 55.534,108.636 54.950 C 107.519 54.352,106.992 49.313,107.916 48.069 C 108.554 47.210,110.849 46.859,111.741 47.484 M35.669 48.492 C 37.208 50.031,36.276 55.595,34.453 55.750 C 33.564 55.825,33.358 55.252,34.105 54.786 C 34.471 54.557,34.526 54.295,34.526 52.777 C 34.526 50.837,34.367 50.526,33.368 50.526 C 32.370 50.526,32.211 50.837,32.211 52.777 C 32.211 54.295,32.266 54.557,32.632 54.786 C 33.178 55.127,33.186 55.789,32.643 55.789 C 31.045 55.789,30.518 53.784,31.081 49.848 C 31.345 47.998,34.301 47.124,35.669 48.492 M110.911 52.158 C 110.888 53.143,110.842 53.435,110.793 52.895 C 110.741 52.312,110.611 52.000,110.421 52.000 C 110.231 52.000,110.101 52.312,110.049 52.895 C 110.000 53.435,109.954 53.143,109.932 52.158 C 109.895 50.548,109.902 50.526,110.421 50.526 C 110.940 50.526,110.947 50.548,110.911 52.158 M33.858 52.789 C 33.836 53.775,33.789 54.067,33.741 53.526 C 33.688 52.943,33.558 52.632,33.368 52.632 C 33.178 52.632,33.049 52.943,32.996 53.526 C 32.948 54.067,32.901 53.775,32.879 52.789 C 32.843 51.180,32.849 51.158,33.368 51.158 C 33.888 51.158,33.894 51.180,33.858 52.789 M41.847 53.742 C 43.104 55.007,43.368 55.391,43.368 55.952 L 43.368 56.632 41.232 56.632 L 39.096 56.632 39.232 55.021 C 39.307 54.135,39.368 53.140,39.368 52.810 C 39.368 51.740,40.152 52.035,41.847 53.742 M44.877 56.147 C 45.190 56.524,53.267 56.544,53.642 56.168 C 53.801 56.009,53.895 55.214,53.895 54.021 C 53.895 52.710,53.962 52.194,54.114 52.345 C 54.243 52.475,54.308 53.371,54.272 54.545 L 54.211 56.526 49.263 56.526 L 44.316 56.526 44.254 54.648 C 44.221 53.615,44.268 52.621,44.360 52.438 C 44.457 52.243,44.552 52.885,44.588 53.989 C 44.622 55.025,44.752 55.996,44.877 56.147 M104.211 54.421 L 104.211 56.632 102.105 56.632 L 100.000 56.632 100.000 55.952 C 100.000 55.021,102.724 52.211,103.626 52.211 L 104.211 52.211 104.211 54.421 M53.263 54.105 L 53.263 55.789 49.263 55.789 L 45.263 55.789 45.263 54.105 L 45.263 52.421 49.263 52.421 L 53.263 52.421 53.263 54.105 M88.060 58.053 C 92.148 59.227,92.288 59.286,92.775 60.020 C 93.424 61.000,95.506 61.474,97.284 61.048 C 99.988 60.399,101.742 61.212,103.788 64.062 C 105.819 66.893,106.034 67.788,104.684 67.792 C 104.250 67.794,100.863 67.938,97.158 68.113 C 88.044 68.544,88.139 68.557,86.417 66.670 L 85.057 65.179 80.160 64.899 C 66.553 64.120,58.753 64.804,56.520 66.972 L 55.460 68.000 47.452 68.000 C 38.123 68.000,37.712 67.940,37.288 66.525 C 36.337 63.352,41.027 60.665,47.564 60.638 C 49.067 60.632,49.149 60.605,49.698 59.947 C 50.191 59.357,50.769 59.100,53.924 58.073 L 57.579 56.883 70.713 56.863 L 83.846 56.842 88.060 58.053 M38.526 57.815 C 38.526 58.282,38.478 58.327,38.211 58.105 C 38.037 57.961,37.895 57.713,37.895 57.553 C 37.895 57.394,38.037 57.263,38.211 57.263 C 38.411 57.263,38.526 57.465,38.526 57.815 M43.368 57.679 C 43.368 57.950,42.830 58.501,41.823 59.258 C 40.148 60.519,39.370 60.737,39.367 59.947 C 39.366 59.687,39.305 58.976,39.232 58.368 L 39.099 57.263 41.234 57.263 C 43.220 57.263,43.368 57.292,43.368 57.679 M52.013 58.047 C 50.469 58.575,49.674 58.967,49.338 59.366 C 48.883 59.907,48.740 59.941,46.377 60.068 C 45.012 60.142,43.187 60.388,42.322 60.616 C 40.322 61.141,40.322 61.151,42.319 59.682 C 43.727 58.646,44.000 58.349,44.000 57.854 L 44.000 57.263 49.105 57.280 L 54.211 57.296 52.013 58.047 M99.368 57.851 C 99.368 58.798,102.625 61.128,103.793 61.016 L 104.632 60.936 104.632 62.468 C 104.632 64.324,104.710 64.319,103.486 62.544 L 102.483 61.089 100.576 60.618 C 98.877 60.198,98.530 60.174,97.387 60.398 C 95.443 60.778,94.001 60.445,93.053 59.395 C 92.409 58.683,92.049 58.506,90.211 58.003 C 89.053 57.685,88.066 57.389,88.018 57.344 C 87.969 57.300,90.504 57.263,93.649 57.263 L 99.368 57.263 99.368 57.851 M104.211 58.842 C 104.211 60.899,103.809 60.962,101.545 59.258 C 99.297 57.566,99.382 57.263,102.105 57.263 L 104.211 57.263 104.211 58.842 M202.211 58.338 C 210.811 58.602,210.541 58.553,211.527 60.042 C 212.120 60.938,212.579 68.176,212.070 68.625 C 211.944 68.737,157.016 65.838,156.692 65.703 C 155.710 65.293,157.845 60.185,159.247 59.589 C 160.826 58.919,173.917 58.305,190.105 58.142 C 192.479 58.118,197.926 58.206,202.211 58.338 M288.074 62.450 C 290.008 64.724,291.561 66.615,291.524 66.652 C 291.487 66.688,289.637 66.661,287.413 66.590 L 283.368 66.460 283.368 62.508 C 283.368 58.577,283.371 58.555,283.842 58.464 C 284.103 58.414,284.370 58.360,284.436 58.344 C 284.503 58.329,286.140 60.176,288.074 62.450 M38.310 62.004 C 38.706 61.759,38.706 62.278,38.311 62.636 C 37.899 63.009,37.895 62.992,37.938 60.822 C 37.980 58.649,37.981 58.646,38.051 60.376 C 38.091 61.335,38.207 62.067,38.310 62.004 M192.987 59.925 C 192.755 60.157,192.820 61.856,193.067 62.009 C 193.415 62.224,193.513 62.003,193.547 60.926 C 193.577 60.006,193.336 59.576,192.987 59.925 M194.039 59.925 C 193.808 60.157,193.873 61.856,194.119 62.009 C 194.468 62.224,194.566 62.003,194.600 60.926 C 194.629 60.006,194.389 59.576,194.039 59.925 M195.088 59.930 C 194.785 60.233,194.936 62.105,195.263 62.105 C 195.506 62.105,195.579 61.836,195.579 60.947 C 195.579 59.875,195.437 59.581,195.088 59.930 M195.938 60.665 C 195.809 61.629,196.110 62.501,196.453 62.157 C 196.725 61.885,196.590 59.948,196.292 59.851 C 196.156 59.806,196.008 60.146,195.938 60.665 M196.973 60.114 C 196.735 60.733,196.837 61.839,197.155 62.103 C 197.573 62.450,197.733 62.035,197.645 60.830 C 197.577 59.902,197.206 59.507,196.973 60.114 M198.026 60.114 C 197.831 60.621,197.873 61.745,198.100 62.104 C 198.447 62.653,198.767 62.030,198.697 60.941 C 198.631 59.922,198.270 59.477,198.026 60.114 M199.251 60.062 C 199.015 60.676,199.248 62.421,199.566 62.421 C 199.955 62.421,200.005 59.967,199.619 59.838 C 199.481 59.792,199.316 59.893,199.251 60.062 M200.550 59.961 C 200.363 60.264,200.338 62.222,200.518 62.513 C 200.828 63.015,201.105 62.362,201.105 61.130 C 201.105 60.017,200.849 59.478,200.550 59.961 M201.605 60.114 C 201.407 60.630,201.454 62.169,201.679 62.525 C 202.048 63.109,202.342 62.434,202.275 61.153 C 202.212 59.959,201.869 59.426,201.605 60.114 M230.842 60.443 C 231.932 60.741,232.421 61.191,232.421 61.895 C 232.421 63.051,231.857 63.256,228.474 63.332 L 225.412 63.400 225.548 62.408 C 225.623 61.862,225.684 61.144,225.684 60.813 L 225.684 60.211 227.842 60.212 C 229.029 60.212,230.379 60.316,230.842 60.443 M39.965 61.069 L 40.526 61.086 39.895 61.308 C 39.547 61.430,39.145 61.624,39.000 61.738 C 38.803 61.894,38.737 61.802,38.737 61.372 C 38.737 60.934,38.816 60.828,39.070 60.925 C 39.253 60.995,39.656 61.060,39.965 61.069 M284.842 62.947 L 284.842 65.053 286.861 65.053 L 288.880 65.053 286.937 62.947 C 285.869 61.789,284.960 60.842,284.918 60.842 C 284.876 60.842,284.842 61.789,284.842 62.947 M286.517 63.421 L 287.422 64.421 286.448 64.421 L 285.474 64.421 285.474 63.333 C 285.474 62.735,285.505 62.285,285.543 62.333 C 285.581 62.382,286.020 62.871,286.517 63.421 M79.416 65.509 L 84.622 65.763 85.513 66.671 L 86.403 67.579 71.586 67.579 L 56.769 67.579 57.254 67.063 C 58.767 65.452,66.762 64.891,79.416 65.509 M180.388 67.684 C 191.776 68.304,201.122 68.842,201.159 68.880 C 201.210 68.932,200.500 78.114,200.436 78.239 C 200.428 78.254,199.512 77.397,198.400 76.333 L 196.380 74.399 193.927 73.732 C 192.005 73.209,190.881 73.038,188.737 72.942 C 187.232 72.875,182.123 72.545,177.384 72.210 C 166.711 71.454,166.197 71.490,163.789 73.157 C 161.886 74.475,155.807 77.982,155.667 77.843 C 155.613 77.788,155.630 77.218,155.706 76.576 C 155.856 75.297,155.806 75.332,157.946 75.019 C 159.080 74.853,159.445 73.602,159.157 70.871 C 159.046 69.813,158.953 68.782,158.951 68.579 C 158.949 68.347,158.785 68.211,158.507 68.211 C 158.243 68.211,158.022 68.041,157.956 67.789 C 157.884 67.517,157.669 67.368,157.344 67.368 C 156.839 67.368,156.751 67.220,156.949 66.701 C 157.027 66.499,157.420 66.440,158.370 66.489 C 159.093 66.526,169.001 67.064,180.388 67.684 M349.852 67.718 C 363.613 67.837,365.898 67.900,365.799 68.156 C 365.736 68.321,365.684 70.442,365.684 72.871 L 365.684 77.287 365.201 76.725 L 364.718 76.163 323.332 76.320 L 281.946 76.477 281.601 77.200 C 281.272 77.891,281.298 78.316,281.671 78.316 C 281.766 78.316,281.956 78.045,282.093 77.713 L 282.343 77.110 323.381 76.953 L 364.420 76.796 365.068 77.490 L 365.717 78.185 365.838 88.009 L 365.960 97.834 357.938 97.988 C 353.525 98.073,349.826 98.087,349.716 98.020 C 349.607 97.952,348.849 96.688,348.031 95.212 C 343.173 86.430,341.057 84.233,335.449 82.143 C 330.540 80.313,327.507 79.733,323.684 79.894 C 314.163 80.293,310.267 81.727,304.705 86.876 L 301.579 89.771 299.316 94.126 L 297.053 98.481 293.421 98.610 C 291.424 98.681,287.724 98.762,285.199 98.790 L 280.608 98.842 280.730 86.526 C 280.798 79.753,280.908 72.656,280.976 70.756 L 281.100 67.301 307.445 67.441 C 321.934 67.517,341.017 67.642,349.852 67.718 M157.263 68.301 C 157.263 68.467,157.476 68.633,157.737 68.670 C 158.046 68.713,158.235 68.906,158.280 69.225 C 158.348 69.707,158.332 69.711,156.859 69.566 L 155.368 69.419 155.337 70.446 C 155.318 71.061,155.270 71.241,155.218 70.895 C 155.143 70.403,155.029 70.316,154.460 70.316 L 153.789 70.316 153.862 69.158 L 153.934 68.000 155.598 68.000 C 156.902 68.000,157.263 68.065,157.263 68.301 M288.368 68.161 C 283.182 68.209,282.316 68.262,282.316 68.530 C 282.316 68.799,283.150 68.842,288.316 68.842 L 294.316 68.842 294.316 69.342 C 294.316 69.617,294.375 70.138,294.447 70.500 L 294.579 71.158 288.673 71.158 C 282.399 71.158,282.105 71.204,282.105 72.183 C 282.105 73.081,280.765 73.053,323.501 73.053 C 360.393 73.053,364.423 73.020,364.722 72.722 C 365.221 72.223,365.126 71.603,364.508 71.322 C 364.051 71.114,363.984 70.976,364.087 70.458 C 364.155 70.119,364.211 69.617,364.211 69.342 C 364.211 68.927,364.318 68.842,364.842 68.842 C 365.263 68.842,365.474 68.737,365.474 68.526 C 365.474 68.273,365.151 68.210,363.842 68.208 C 362.945 68.207,346.958 68.183,328.316 68.156 C 309.674 68.128,291.697 68.130,288.368 68.161 M47.618 68.632 C 52.962 68.632,56.022 68.556,56.105 68.421 C 56.329 68.059,86.639 68.139,87.218 68.504 C 88.057 69.032,89.897 69.074,97.340 68.734 C 101.376 68.549,104.725 68.444,104.782 68.501 C 104.838 68.557,104.815 71.672,104.730 75.422 L 104.576 82.240 103.243 83.337 L 101.909 84.434 102.318 83.533 C 102.920 82.207,102.936 73.820,102.339 72.526 C 101.869 71.507,101.202 70.866,100.162 70.431 C 98.977 69.936,43.550 69.936,42.365 70.431 C 41.324 70.866,40.658 71.507,40.187 72.526 C 39.738 73.499,39.592 81.980,40.006 83.068 C 40.320 83.893,40.242 83.868,38.784 82.667 L 37.462 81.579 37.595 75.053 C 37.744 67.698,37.673 68.176,38.580 68.437 C 38.954 68.544,43.021 68.632,47.618 68.632 M295.617 70.263 C 295.533 71.637,295.462 71.957,295.284 71.772 C 294.915 71.389,294.930 68.842,295.301 68.842 C 295.667 68.842,295.696 68.973,295.617 70.263 M312.632 69.342 C 312.632 69.617,312.691 70.138,312.763 70.500 L 312.895 71.158 304.553 71.158 L 296.211 71.158 296.211 70.333 C 296.211 68.724,295.550 68.842,304.549 68.842 L 312.632 68.842 312.632 69.342 M313.880 69.947 C 313.857 71.652,313.572 72.120,313.405 70.728 C 313.206 69.070,313.227 68.842,313.579 68.842 C 313.821 68.842,313.891 69.099,313.880 69.947 M330.737 69.342 C 330.737 69.617,330.796 70.138,330.868 70.500 L 331.000 71.158 322.763 71.158 L 314.526 71.158 314.526 70.000 L 314.526 68.842 322.632 68.842 L 330.737 68.842 330.737 69.342 M332.053 70.263 C 331.947 71.650,331.877 71.951,331.705 71.772 C 331.322 71.374,331.352 68.842,331.741 68.842 C 332.131 68.842,332.154 68.946,332.053 70.263 M346.526 69.342 C 346.526 69.617,346.586 70.138,346.658 70.500 L 346.789 71.158 339.711 71.158 L 332.632 71.158 332.634 70.474 C 332.636 70.097,332.694 69.576,332.764 69.316 L 332.891 68.842 339.709 68.842 L 346.526 68.842 346.526 69.342 M347.775 69.947 C 347.752 71.652,347.467 72.120,347.299 70.728 C 347.100 69.070,347.121 68.842,347.474 68.842 C 347.716 68.842,347.786 69.099,347.775 69.947 M362.105 69.342 C 362.105 69.617,362.164 70.138,362.237 70.500 L 362.368 71.158 355.395 71.158 L 348.421 71.158 348.421 70.000 L 348.421 68.842 355.263 68.842 L 362.105 68.842 362.105 69.342 M363.477 70.263 C 363.331 71.644,363.248 71.953,363.073 71.772 C 362.653 71.336,362.725 68.842,363.158 68.842 C 363.613 68.842,363.623 68.888,363.477 70.263 M228.042 69.305 C 227.605 69.742,227.720 71.738,228.197 71.993 C 228.466 72.137,233.622 72.211,243.460 72.211 C 255.873 72.211,258.316 72.258,258.316 72.498 C 258.316 72.656,258.512 73.035,258.752 73.340 L 259.188 73.895 262.341 73.895 C 265.746 73.895,266.526 73.624,266.526 72.443 C 266.526 72.213,266.621 71.966,266.737 71.895 C 267.034 71.711,267.000 69.610,266.695 69.305 C 266.329 68.939,228.408 68.939,228.042 69.305 M36.933 75.632 L 36.782 81.790 38.178 82.947 C 38.946 83.584,39.575 84.167,39.576 84.244 C 39.582 84.532,25.165 85.156,23.352 84.945 C 22.195 84.811,22.153 84.784,21.891 83.988 C 21.553 82.964,22.116 75.730,22.608 74.788 C 22.960 74.112,25.440 71.912,25.151 72.532 C 24.840 73.197,24.778 77.652,25.069 78.355 C 25.512 79.425,26.131 79.579,29.980 79.579 C 34.987 79.579,35.158 79.447,35.158 75.579 C 35.158 72.997,34.929 72.251,34.006 71.830 C 33.303 71.510,26.693 71.485,26.039 71.801 C 25.479 72.070,26.975 70.697,28.000 70.000 C 28.713 69.515,28.871 69.498,32.910 69.486 L 37.083 69.474 36.933 75.632 M114.385 70.125 C 115.905 71.132,115.854 71.158,112.338 71.158 C 107.567 71.158,107.368 71.318,107.368 75.158 C 107.368 79.026,107.539 79.158,112.547 79.158 C 117.516 79.158,117.684 79.026,117.684 75.136 L 117.684 72.818 118.517 73.514 C 119.728 74.527,119.936 75.229,120.299 79.512 C 120.710 84.375,120.620 84.716,118.865 84.935 C 117.813 85.067,108.850 84.794,104.688 84.505 L 102.954 84.384 104.109 83.444 L 105.263 82.503 105.263 80.128 C 105.263 78.821,105.326 75.889,105.402 73.613 L 105.540 69.474 109.471 69.474 L 113.401 69.474 114.385 70.125 M266.316 70.007 C 266.316 70.262,266.229 70.284,265.909 70.113 C 264.202 69.199,258.316 70.010,258.316 71.158 C 258.316 71.575,258.175 71.579,243.368 71.579 L 228.421 71.579 228.421 70.632 L 228.421 69.684 247.368 69.684 C 264.263 69.684,266.316 69.719,266.316 70.007 M158.075 70.428 C 158.116 70.468,158.083 71.074,158.002 71.776 L 157.854 73.051 156.979 72.920 C 155.793 72.741,155.731 72.647,155.903 71.267 L 156.053 70.065 157.027 70.210 C 157.562 70.290,158.034 70.388,158.075 70.428 M265.642 70.779 C 265.781 70.918,265.895 71.231,265.895 71.474 C 265.895 72.323,265.536 72.421,262.421 72.421 C 259.306 72.421,258.947 72.323,258.947 71.474 C 258.947 70.624,259.306 70.526,262.421 70.526 C 264.449 70.526,265.470 70.606,265.642 70.779 M100.551 71.276 C 102.003 72.361,102.000 72.347,102.000 78.000 C 102.000 83.653,102.003 83.639,100.551 84.724 C 99.632 85.410,42.894 85.410,41.976 84.724 C 40.565 83.670,40.533 83.546,40.458 78.775 C 40.361 72.686,40.680 71.526,42.600 70.965 C 44.190 70.501,99.913 70.800,100.551 71.276 M154.526 72.751 C 154.526 74.548,154.283 74.890,153.501 74.194 C 153.187 73.915,153.756 70.947,154.123 70.947 C 154.489 70.947,154.526 71.115,154.526 72.751 M46.089 71.813 C 43.216 72.235,40.842 75.035,40.842 78.000 C 40.842 83.405,47.563 86.301,51.439 82.567 C 55.922 78.250,52.267 70.905,46.089 71.813 M94.737 71.809 C 91.212 72.333,88.847 75.594,89.492 79.042 C 90.899 86.564,101.882 85.625,101.893 77.981 C 101.898 74.110,98.570 71.240,94.737 71.809 M203.842 71.809 C 202.256 72.280,203.089 72.526,206.263 72.526 C 207.971 72.526,209.554 72.574,209.782 72.632 C 210.057 72.702,210.220 72.618,210.269 72.380 C 210.323 72.117,210.159 71.996,209.645 71.916 C 208.140 71.684,204.490 71.617,203.842 71.809 M116.536 72.306 C 117.022 72.793,117.053 72.960,117.053 75.158 C 117.053 78.560,117.098 78.526,112.526 78.526 C 107.955 78.526,108.000 78.560,108.000 75.158 C 108.000 71.756,107.955 71.789,112.526 71.789 C 115.954 71.789,116.029 71.799,116.536 72.306 M294.526 72.105 C 294.526 72.378,293.731 72.421,288.632 72.421 C 283.532 72.421,282.737 72.378,282.737 72.105 C 282.737 71.832,283.532 71.789,288.632 71.789 C 293.731 71.789,294.526 71.832,294.526 72.105 M312.842 72.105 C 312.842 72.381,311.766 72.421,304.421 72.421 C 297.076 72.421,296.000 72.381,296.000 72.105 C 296.000 71.830,297.076 71.789,304.421 71.789 C 311.766 71.789,312.842 71.830,312.842 72.105 M330.947 72.105 C 330.947 72.381,329.883 72.421,322.632 72.421 C 315.380 72.421,314.316 72.381,314.316 72.105 C 314.316 71.830,315.380 71.789,322.632 71.789 C 329.883 71.789,330.947 71.830,330.947 72.105 M346.737 72.105 C 346.737 72.380,345.802 72.421,339.586 72.421 C 333.315 72.421,332.449 72.382,332.555 72.105 C 332.660 71.833,333.652 71.789,339.707 71.789 C 345.815 71.789,346.737 71.831,346.737 72.105 M362.316 72.105 C 362.316 72.380,361.392 72.421,355.263 72.421 C 349.135 72.421,348.211 72.380,348.211 72.105 C 348.211 71.831,349.135 71.789,355.263 71.789 C 361.392 71.789,362.316 71.831,362.316 72.105 M34.010 72.727 C 34.496 73.214,34.526 73.381,34.526 75.579 C 34.526 78.981,34.572 78.947,30.000 78.947 C 25.428 78.947,25.474 78.981,25.474 75.579 C 25.474 72.177,25.428 72.211,30.000 72.211 C 33.428 72.211,33.502 72.220,34.010 72.727 M49.848 73.029 C 52.955 74.614,53.755 78.962,51.438 81.669 C 48.624 84.957,43.140 83.857,41.770 79.731 C 40.182 74.949,45.296 70.706,49.848 73.029 M98.292 72.935 C 103.486 75.621,101.511 83.605,95.653 83.605 C 90.864 83.605,88.325 78.255,91.277 74.384 C 92.728 72.482,96.077 71.790,98.292 72.935 M177.263 72.833 C 182.068 73.175,187.279 73.513,188.842 73.586 C 193.528 73.804,195.623 74.511,197.761 76.596 C 202.357 81.079,216.000 98.376,216.000 99.720 C 216.000 101.043,215.473 101.213,213.621 100.487 L 212.178 99.921 207.814 94.434 C 205.413 91.416,201.876 86.953,199.953 84.514 C 194.724 77.886,196.337 78.434,180.737 77.989 C 166.935 77.596,167.477 77.559,164.811 79.064 C 159.329 82.158,158.637 82.291,155.314 80.897 C 153.101 79.968,152.856 80.289,158.000 77.376 C 160.200 76.130,162.805 74.564,163.789 73.896 C 165.283 72.883,165.806 72.647,166.947 72.473 C 167.700 72.358,168.363 72.252,168.421 72.238 C 168.479 72.224,172.458 72.492,177.263 72.833 M203.640 72.852 C 202.055 73.341,203.082 73.579,206.677 73.556 C 210.007 73.534,210.947 73.360,209.956 72.948 C 209.355 72.697,204.383 72.622,203.640 72.852 M56.316 73.041 C 55.135 73.524,55.058 73.832,54.988 78.320 L 54.923 82.493 55.550 83.194 L 56.176 83.895 71.346 83.895 L 86.517 83.895 87.100 83.311 L 87.684 82.727 87.684 78.399 L 87.684 74.071 86.997 73.456 L 86.309 72.842 71.523 72.855 C 63.391 72.863,56.547 72.946,56.316 73.041 M264.062 73.209 C 263.228 73.249,261.807 73.249,260.904 73.209 C 260.002 73.170,260.684 73.137,262.421 73.137 C 264.158 73.137,264.896 73.169,264.062 73.209 M157.421 73.616 C 158.445 73.760,158.688 74.316,157.726 74.316 C 157.402 74.316,157.035 74.417,156.912 74.541 C 156.414 75.038,155.158 74.540,155.158 73.845 C 155.158 73.241,155.191 73.217,155.842 73.350 C 156.218 73.427,156.929 73.547,157.421 73.616 M86.641 73.990 C 87.449 74.798,87.449 82.044,86.641 82.852 L 86.124 83.368 71.368 83.368 L 56.612 83.368 56.096 82.852 C 55.584 82.340,55.579 82.296,55.579 78.421 C 55.579 74.546,55.584 74.502,56.096 73.990 L 56.612 73.474 71.368 73.474 L 86.124 73.474 86.641 73.990 M203.538 73.925 C 202.767 74.207,202.971 74.832,203.765 74.624 C 204.230 74.502,207.963 74.486,209.663 74.598 C 210.500 74.654,210.410 74.151,209.539 73.909 C 208.543 73.633,204.307 73.644,203.538 73.925 M203.530 74.999 C 202.620 75.417,203.074 75.882,204.128 75.611 C 204.629 75.482,205.928 75.461,207.474 75.558 C 210.004 75.715,210.639 75.607,210.137 75.105 C 209.762 74.730,204.308 74.642,203.530 74.999 M203.430 76.063 C 202.700 76.469,203.116 76.885,203.999 76.632 C 204.577 76.466,207.637 76.501,209.789 76.698 C 210.401 76.754,210.314 76.153,209.684 75.978 C 208.748 75.718,203.934 75.783,203.430 76.063 M213.375 76.290 C 212.893 76.772,212.842 76.986,212.842 78.510 L 212.842 80.197 214.668 82.322 C 217.182 85.249,219.389 86.176,220.263 84.673 C 220.939 83.512,220.804 77.077,220.089 76.405 C 219.218 75.586,214.166 75.499,213.375 76.290 M219.532 76.749 C 220.055 77.115,220.263 83.326,219.782 84.224 C 219.180 85.350,217.317 84.427,215.165 81.937 L 213.474 79.980 213.474 78.608 C 213.474 76.417,213.468 76.421,216.487 76.421 C 218.479 76.421,219.170 76.495,219.532 76.749 M203.397 77.068 C 202.594 77.390,203.183 77.937,204.019 77.646 C 204.567 77.455,208.594 77.505,209.767 77.717 C 210.392 77.831,210.413 77.290,209.793 77.054 C 209.094 76.788,204.068 76.799,203.397 77.068 M203.842 78.125 C 202.256 78.595,203.089 78.842,206.263 78.842 C 207.971 78.842,209.554 78.889,209.782 78.947 C 210.057 79.017,210.220 78.933,210.269 78.696 C 210.323 78.433,210.159 78.312,209.645 78.232 C 208.140 78.000,204.490 77.933,203.842 78.125 M181.263 78.636 C 193.382 78.977,193.951 79.038,195.410 80.150 C 196.653 81.097,210.770 99.114,211.011 100.060 C 211.287 101.150,211.483 101.136,207.035 100.336 C 204.845 99.942,203.011 99.660,202.961 99.708 C 202.911 99.757,202.816 100.190,202.750 100.670 C 202.635 101.519,202.594 101.558,201.178 102.157 C 199.000 103.079,198.315 102.733,197.815 100.456 C 193.558 81.076,167.919 76.467,157.158 93.149 C 155.498 95.721,155.580 95.701,148.474 95.280 C 145.376 95.096,142.345 94.892,141.737 94.826 L 140.632 94.707 140.632 92.090 C 140.632 90.651,140.655 89.462,140.684 89.447 C 140.713 89.433,142.110 89.362,143.788 89.289 L 146.838 89.158 147.235 88.053 L 147.632 86.947 150.185 86.947 L 152.738 86.947 153.240 87.895 C 154.111 89.536,155.128 88.450,156.130 84.807 L 156.787 82.421 157.990 82.477 C 159.371 82.542,161.506 81.687,164.986 79.678 C 167.697 78.113,166.168 78.211,181.263 78.636 M229.789 80.443 C 230.880 80.741,231.368 81.191,231.368 81.895 C 231.368 83.048,230.802 83.256,227.452 83.331 L 224.421 83.399 224.424 82.279 C 224.429 80.165,224.377 80.210,226.814 80.212 C 227.987 80.212,229.326 80.316,229.789 80.443 M207.914 84.709 C 208.149 84.952,208.721 87.770,208.567 87.924 C 208.499 87.992,205.224 84.213,204.028 82.686 C 203.737 82.315,207.487 84.267,207.914 84.709 M178.211 83.586 C 195.802 85.571,203.810 106.085,192.240 119.527 C 183.458 129.731,166.894 129.108,158.724 118.266 C 148.616 104.851,156.862 85.539,173.526 83.601 C 175.699 83.348,176.091 83.347,178.211 83.586 M326.236 83.690 C 346.655 87.198,351.172 114.407,332.966 124.228 C 319.176 131.666,302.040 122.062,301.117 106.378 C 300.301 92.529,312.669 81.358,326.236 83.690 M44.789 88.576 L 48.842 92.023 48.842 93.169 C 48.842 93.800,48.937 94.316,49.053 94.316 C 49.180 94.316,49.263 95.228,49.263 96.632 C 49.263 98.550,49.317 98.947,49.579 98.947 C 49.839 98.947,49.895 98.573,49.895 96.842 C 49.895 95.684,49.966 94.739,50.053 94.742 C 50.139 94.745,51.726 94.970,53.579 95.241 C 55.797 95.566,57.487 95.701,58.526 95.637 C 59.502 95.576,60.596 95.653,61.389 95.839 L 62.673 96.139 63.340 95.543 L 64.007 94.947 71.335 94.947 L 78.663 94.947 79.174 95.495 C 79.644 95.999,79.768 96.029,80.737 95.876 C 81.316 95.784,82.879 95.690,84.211 95.666 C 85.542 95.643,87.939 95.424,89.538 95.180 C 91.136 94.936,92.486 94.737,92.538 94.737 C 92.589 94.737,92.632 95.684,92.632 96.842 C 92.632 98.573,92.688 98.947,92.947 98.947 C 93.210 98.947,93.263 98.538,93.263 96.526 C 93.263 95.053,93.346 94.105,93.474 94.105 C 93.589 94.105,93.684 93.644,93.684 93.079 L 93.684 92.054 97.947 88.527 L 102.211 85.000 104.085 85.132 C 105.116 85.204,106.473 85.263,107.101 85.263 L 108.243 85.263 107.344 85.949 C 106.254 86.780,105.511 88.151,105.332 89.657 L 105.200 90.777 104.685 90.119 C 103.062 88.045,99.397 88.167,97.958 90.342 C 96.461 92.604,97.357 95.739,99.777 96.707 L 100.617 97.043 100.489 98.469 C 100.420 99.253,100.320 99.942,100.269 100.000 C 100.218 100.058,87.592 100.139,72.211 100.179 L 44.247 100.253 44.176 98.744 L 44.105 97.235 44.938 96.776 C 49.617 94.192,45.815 86.885,41.057 89.316 C 37.871 90.944,37.966 95.618,41.214 96.983 C 41.960 97.296,41.956 97.241,41.372 99.224 L 41.113 100.105 39.832 100.168 L 38.551 100.230 38.486 94.477 C 38.412 87.914,38.278 87.346,36.475 85.971 L 35.604 85.307 37.960 85.120 C 40.806 84.893,39.949 84.460,44.789 88.576 M35.626 86.163 C 36.271 86.543,36.826 87.098,37.205 87.742 L 37.789 88.737 37.855 94.503 L 37.920 100.268 30.879 100.114 C 25.670 100.000,23.719 100.023,23.380 100.204 L 22.923 100.449 22.988 94.593 L 23.053 88.737 23.630 87.755 C 24.770 85.815,25.870 85.497,31.263 85.547 C 34.540 85.578,34.659 85.595,35.626 86.163 M96.869 88.579 C 93.095 91.669,93.077 91.688,93.065 92.544 L 93.053 93.404 77.228 93.544 C 68.525 93.621,58.720 93.684,55.439 93.684 L 49.474 93.684 49.470 92.684 L 49.465 91.684 45.996 88.754 C 44.088 87.142,42.526 85.816,42.526 85.806 C 42.526 85.797,55.305 85.814,70.923 85.844 C 88.446 85.878,99.510 85.823,99.818 85.700 C 100.092 85.590,100.393 85.494,100.488 85.487 C 100.583 85.480,98.954 86.871,96.869 88.579 M118.663 86.218 C 119.220 86.544,119.792 87.130,120.152 87.742 L 120.737 88.737 120.802 94.243 L 120.867 99.750 115.644 99.770 C 112.771 99.781,109.397 99.851,108.145 99.926 L 105.869 100.062 105.935 94.399 L 106.000 88.737 106.577 87.755 C 107.147 86.785,108.093 86.036,109.213 85.667 C 110.553 85.226,117.679 85.641,118.663 86.218 M138.593 87.293 L 140.197 87.429 140.092 89.767 C 140.034 91.053,139.933 93.275,139.866 94.705 L 139.745 97.304 137.820 97.156 C 134.968 96.936,135.092 97.176,135.267 92.214 C 135.459 86.789,135.305 87.016,138.593 87.293 M53.767 87.899 C 53.438 88.402,53.446 88.480,53.920 89.400 C 54.833 91.168,54.776 91.156,62.163 91.157 L 68.642 91.158 68.871 90.579 C 69.110 89.977,69.147 88.839,68.949 88.215 C 68.705 87.447,67.964 87.368,60.942 87.368 L 54.115 87.368 53.767 87.899 M74.373 87.623 C 73.650 87.972,73.403 89.411,73.865 90.579 L 74.095 91.158 80.574 91.157 C 87.961 91.156,87.904 91.168,88.816 89.400 C 89.291 88.480,89.299 88.402,88.970 87.899 L 88.622 87.368 81.732 87.383 C 77.277 87.392,74.676 87.477,74.373 87.623 M68.198 88.300 C 68.335 88.465,68.417 89.010,68.381 89.511 L 68.316 90.421 62.211 90.477 C 58.335 90.513,55.913 90.453,55.579 90.315 C 55.005 90.076,54.009 88.537,54.214 88.205 C 54.436 87.845,67.896 87.936,68.198 88.300 M88.523 88.205 C 88.728 88.537,87.731 90.076,87.158 90.315 C 86.824 90.453,84.402 90.513,80.526 90.477 L 74.421 90.421 74.356 89.511 C 74.243 87.943,73.971 88.000,81.592 88.000 C 85.788 88.000,88.445 88.079,88.523 88.205 M103.092 89.612 C 105.265 90.643,105.645 93.772,103.800 95.439 C 101.210 97.779,97.140 95.453,97.903 92.069 C 98.418 89.784,100.939 88.590,103.092 89.612 M44.273 89.758 C 45.772 90.385,46.753 92.185,46.441 93.741 C 45.689 97.502,40.168 97.603,39.388 93.869 C 38.793 91.021,41.614 88.647,44.273 89.758 M173.321 93.567 C 162.560 96.022,160.828 110.898,170.737 115.761 C 178.692 119.665,187.789 114.008,187.789 105.158 C 187.789 97.533,180.730 91.877,173.321 93.567 M319.847 93.566 C 310.937 95.725,307.921 106.964,314.502 113.482 C 322.045 120.951,334.640 115.601,334.595 104.947 C 334.563 97.394,327.272 91.767,319.847 93.566 M179.555 94.513 C 186.179 96.769,189.198 104.564,185.796 110.631 C 181.151 118.914,168.803 118.007,165.484 109.138 C 162.180 100.306,170.666 91.486,179.555 94.513 M325.536 94.208 C 334.254 96.479,336.899 107.339,330.218 113.432 C 323.098 119.926,311.596 114.814,311.581 105.149 C 311.571 97.770,318.463 92.366,325.536 94.208 M88.737 94.632 C 86.677 94.944,85.093 95.072,84.182 95.000 C 83.414 94.940,82.153 95.010,81.379 95.156 C 79.988 95.418,79.967 95.415,79.402 94.874 C 78.838 94.334,78.779 94.325,75.257 94.263 C 73.292 94.228,76.232 94.189,81.789 94.177 L 91.895 94.153 88.737 94.632 M63.116 94.874 C 62.564 95.427,62.545 95.430,61.273 95.160 C 60.525 95.001,59.354 94.933,58.468 94.997 C 57.524 95.065,56.030 94.966,54.526 94.735 L 52.105 94.365 57.890 94.340 L 63.675 94.316 63.116 94.874 M105.263 97.381 L 105.263 100.024 104.380 99.959 L 103.496 99.895 103.120 98.632 C 102.616 96.946,102.618 96.936,103.533 96.421 C 103.972 96.175,104.516 95.696,104.744 95.356 C 104.972 95.016,105.182 94.738,105.211 94.737 C 105.239 94.737,105.263 95.926,105.263 97.381 M321.078 95.606 C 316.077 96.436,312.423 101.546,313.264 106.533 C 314.568 114.263,323.749 117.380,329.356 111.996 C 335.109 106.471,332.090 96.846,324.211 95.590 C 322.675 95.345,322.647 95.345,321.078 95.606 M142.961 95.797 C 143.623 96.151,143.586 104.079,142.921 104.435 C 142.596 104.609,142.336 104.612,141.973 104.447 L 141.474 104.220 141.474 100.120 C 141.474 96.438,141.511 95.999,141.842 95.806 C 142.313 95.532,142.464 95.531,142.961 95.797 M150.211 96.014 C 153.131 96.182,154.375 96.181,154.819 96.011 C 155.635 95.698,155.662 95.773,155.173 97.015 C 154.460 98.824,153.867 101.480,153.741 103.431 C 153.627 105.186,153.595 105.287,153.178 105.190 C 152.936 105.134,150.842 104.782,148.526 104.408 C 146.211 104.033,144.250 103.670,144.170 103.600 C 144.091 103.531,143.996 101.691,143.960 99.511 L 143.895 95.549 145.053 95.667 C 145.689 95.731,148.011 95.888,150.211 96.014 M173.632 95.807 C 168.949 96.911,165.658 101.960,166.511 106.733 C 168.563 118.213,185.562 116.805,185.526 105.158 C 185.506 98.863,179.777 94.359,173.632 95.807 M325.154 96.462 C 329.413 97.541,332.349 102.053,331.627 106.408 C 330.204 114.995,318.648 116.913,314.841 109.194 C 311.334 102.083,317.466 94.512,325.154 96.462 M179.633 96.998 C 187.090 100.489,186.548 111.053,178.779 113.670 C 171.293 116.192,164.472 108.286,167.985 101.158 C 170.094 96.879,175.361 94.997,179.633 96.998 M52.000 97.455 C 52.000 98.037,51.934 98.105,51.368 98.105 C 50.835 98.105,50.737 98.023,50.737 97.579 C 50.737 97.251,50.618 97.053,50.421 97.053 C 50.193 97.053,50.105 97.287,50.105 97.895 L 50.105 98.737 51.368 98.737 L 52.632 98.737 52.632 98.093 L 52.632 97.449 58.299 97.514 C 63.876 97.578,63.976 97.587,64.638 98.076 L 65.310 98.574 71.971 98.420 C 76.976 98.304,78.773 98.194,79.200 97.975 C 79.642 97.749,81.030 97.684,85.457 97.684 C 90.426 97.684,91.129 97.644,91.024 97.368 C 90.851 96.918,79.862 96.897,78.990 97.345 C 78.563 97.564,76.800 97.675,71.936 97.792 L 65.451 97.947 64.919 97.447 C 64.388 96.948,64.378 96.947,58.194 96.876 L 52.000 96.804 52.000 97.455 M102.387 98.313 C 102.856 100.003,102.857 100.000,101.895 100.000 C 101.057 100.000,101.053 99.996,101.053 99.184 C 101.053 96.751,101.814 96.253,102.387 98.313 M43.536 98.789 L 43.598 100.211 42.746 100.211 C 41.771 100.211,41.763 100.183,42.241 98.477 C 42.767 96.604,43.447 96.768,43.536 98.789 M322.222 97.966 C 321.950 98.164,321.864 98.433,321.930 98.881 C 322.069 99.827,320.530 100.283,320.344 99.351 C 320.194 98.604,319.485 98.355,318.932 98.856 C 318.413 99.325,318.413 99.926,318.932 100.250 C 319.325 100.495,319.319 100.525,318.774 101.153 C 318.225 101.786,318.202 101.792,317.878 101.396 C 317.634 101.098,317.398 101.026,316.997 101.127 C 316.017 101.373,316.010 102.626,316.988 102.871 C 317.394 102.973,317.482 103.100,317.389 103.448 C 317.323 103.694,317.268 104.111,317.266 104.376 C 317.264 104.786,317.203 104.825,316.856 104.639 C 316.252 104.316,316.045 104.367,315.674 104.933 C 315.072 105.852,316.214 106.860,316.984 106.090 C 317.145 105.929,317.252 106.033,317.358 106.453 C 317.447 106.810,317.417 107.071,317.282 107.117 C 316.502 107.377,316.122 107.954,316.371 108.502 C 316.658 109.131,317.467 109.252,317.901 108.730 C 318.138 108.443,318.223 108.458,318.651 108.860 L 319.133 109.313 318.704 109.895 C 318.353 110.369,318.318 110.558,318.513 110.922 C 318.924 111.690,320.211 111.387,320.211 110.523 C 320.211 110.228,320.335 110.211,321.144 110.399 C 322.018 110.602,322.069 110.653,321.960 111.202 C 321.738 112.310,322.826 112.861,323.456 111.961 C 323.642 111.695,323.726 111.296,323.656 111.014 C 323.573 110.684,323.626 110.525,323.819 110.523 C 323.977 110.522,324.306 110.467,324.552 110.401 C 324.903 110.306,325.027 110.396,325.134 110.821 C 325.292 111.453,326.153 111.765,326.634 111.366 C 327.078 110.998,327.022 110.182,326.530 109.837 C 326.122 109.551,326.126 109.533,326.708 108.975 C 327.234 108.471,327.335 108.443,327.572 108.729 C 327.893 109.115,328.658 109.153,329.011 108.800 C 329.446 108.364,329.288 107.784,328.631 107.411 C 328.269 107.206,328.044 106.933,328.105 106.772 C 328.163 106.618,328.211 106.360,328.211 106.199 C 328.211 105.985,328.382 105.940,328.842 106.031 C 329.551 106.173,330.105 105.836,330.105 105.263 C 330.105 104.727,329.524 104.328,328.821 104.381 C 328.342 104.418,328.211 104.340,328.211 104.021 C 328.211 103.797,328.158 103.475,328.093 103.306 C 328.014 103.102,328.155 102.954,328.511 102.865 C 329.137 102.708,329.448 101.845,329.050 101.366 C 328.713 100.959,327.914 100.965,327.572 101.377 C 327.335 101.663,327.233 101.634,326.706 101.128 C 326.170 100.615,326.141 100.520,326.423 100.209 C 326.865 99.720,326.813 99.003,326.316 98.737 C 325.790 98.455,325.140 98.763,324.941 99.387 C 324.837 99.715,324.685 99.797,324.348 99.706 C 324.099 99.639,323.773 99.583,323.624 99.582 C 323.419 99.580,323.408 99.477,323.579 99.158 C 323.839 98.671,323.579 98.021,323.041 97.814 C 322.610 97.649,322.670 97.638,322.222 97.966 M175.158 98.316 C 175.004 98.604,175.000 98.863,175.146 99.136 C 175.324 99.468,175.275 99.557,174.857 99.662 C 174.581 99.731,174.204 99.846,174.020 99.916 C 173.785 100.006,173.684 99.924,173.684 99.644 C 173.684 99.117,173.287 98.737,172.737 98.737 C 171.819 98.737,171.486 99.678,172.164 100.360 C 172.523 100.721,172.515 100.759,171.972 101.283 C 171.427 101.810,171.394 101.816,171.074 101.441 C 170.666 100.965,170.242 100.946,169.805 101.383 C 169.189 101.999,169.530 102.947,170.367 102.947 C 170.701 102.947,170.736 103.058,170.613 103.737 C 170.424 104.784,170.409 104.802,169.793 104.684 C 168.742 104.483,168.218 105.581,169.078 106.184 C 169.388 106.400,169.672 106.440,170.004 106.314 C 170.400 106.164,170.506 106.212,170.608 106.592 C 170.794 107.289,170.769 107.368,170.358 107.368 C 169.529 107.368,169.193 108.320,169.805 108.932 C 170.245 109.373,170.667 109.350,171.083 108.863 C 171.416 108.474,171.438 108.478,171.901 109.017 C 172.364 109.555,172.366 109.578,171.978 109.850 C 171.433 110.232,171.477 110.871,172.076 111.263 C 172.689 111.665,173.226 111.484,173.393 110.819 C 173.540 110.235,173.501 110.244,174.546 110.557 C 175.238 110.765,175.321 110.852,175.142 111.189 C 174.848 111.736,175.257 112.421,175.876 112.421 C 176.521 112.421,176.917 111.923,176.792 111.269 C 176.719 110.887,176.797 110.717,177.083 110.636 C 177.298 110.576,177.663 110.473,177.895 110.407 C 178.208 110.318,178.316 110.388,178.316 110.681 C 178.316 111.200,178.716 111.579,179.263 111.579 C 180.198 111.579,180.512 110.654,179.796 110.006 C 179.386 109.635,179.388 109.626,179.928 109.053 C 180.462 108.488,180.483 108.483,180.869 108.869 C 181.375 109.375,181.735 109.367,182.211 108.841 C 182.703 108.298,182.358 107.368,181.664 107.368 C 181.300 107.368,181.238 107.278,181.341 106.895 C 181.411 106.634,181.469 106.299,181.471 106.150 C 181.473 105.948,181.577 105.935,181.881 106.098 C 182.485 106.421,182.692 106.370,183.063 105.804 C 183.587 105.003,183.143 104.334,182.190 104.489 C 181.613 104.582,181.473 104.536,181.471 104.250 C 181.469 104.055,181.411 103.682,181.341 103.421 C 181.238 103.038,181.300 102.947,181.664 102.947 C 182.358 102.947,182.703 102.018,182.211 101.475 C 181.735 100.948,181.375 100.941,180.869 101.447 C 180.483 101.832,180.462 101.828,179.905 101.238 C 179.386 100.688,179.365 100.605,179.668 100.302 C 180.311 99.659,179.939 98.737,179.036 98.737 C 178.550 98.737,178.199 99.050,178.075 99.595 C 177.931 100.230,176.667 99.697,176.791 99.053 C 176.989 98.017,175.643 97.409,175.158 98.316 M261.526 98.884 C 261.845 99.303,262.105 99.916,262.105 100.244 L 262.105 100.842 258.053 100.850 C 255.824 100.855,245.522 100.942,235.159 101.045 C 224.797 101.147,216.289 101.201,216.252 101.165 C 216.216 101.128,216.331 100.750,216.509 100.324 C 216.802 99.624,216.801 99.501,216.497 99.038 L 216.162 98.526 219.186 98.496 C 220.850 98.479,227.184 98.403,233.263 98.327 C 239.342 98.250,248.058 98.173,252.632 98.154 L 260.947 98.121 261.526 98.884 M322.969 98.799 C 322.699 99.069,322.425 98.861,322.625 98.537 C 322.703 98.412,322.862 98.369,322.980 98.441 C 323.124 98.530,323.120 98.648,322.969 98.799 M176.211 98.842 C 176.211 99.016,176.121 99.158,176.012 99.158 C 175.747 99.158,175.557 98.829,175.725 98.661 C 175.962 98.424,176.211 98.517,176.211 98.842 M293.568 99.346 C 293.355 99.548,283.920 103.368,283.637 103.368 C 283.544 103.368,283.221 102.809,282.918 102.125 L 282.369 100.881 283.869 100.184 C 285.364 99.489,285.382 99.486,289.474 99.364 C 291.732 99.297,293.622 99.223,293.674 99.200 C 293.726 99.177,293.678 99.243,293.568 99.346 M319.789 99.591 C 319.789 99.700,319.647 99.789,319.474 99.789 C 319.148 99.789,319.055 99.541,319.293 99.304 C 319.461 99.136,319.789 99.326,319.789 99.591 M326.105 99.474 C 326.105 99.647,326.016 99.789,325.907 99.789 C 325.642 99.789,325.452 99.461,325.620 99.293 C 325.857 99.055,326.105 99.148,326.105 99.474 M173.012 99.595 C 172.971 99.719,172.847 99.821,172.737 99.821 C 172.627 99.821,172.503 99.719,172.461 99.595 C 172.420 99.470,172.544 99.368,172.737 99.368 C 172.930 99.368,173.054 99.470,173.012 99.595 M179.328 99.595 C 179.287 99.719,179.163 99.821,179.053 99.821 C 178.943 99.821,178.819 99.719,178.777 99.595 C 178.736 99.470,178.860 99.368,179.053 99.368 C 179.246 99.368,179.370 99.470,179.328 99.595 M121.341 100.546 L 121.946 100.690 121.796 104.503 C 121.714 106.600,121.584 108.375,121.507 108.446 C 121.344 108.600,111.000 108.959,97.263 109.288 C 85.946 109.559,47.898 109.417,37.684 109.066 C 28.055 108.735,22.293 108.469,22.173 108.348 C 22.115 108.290,22.136 106.764,22.220 104.958 C 22.440 100.219,15.965 100.852,65.513 100.728 C 88.591 100.670,110.316 100.550,113.789 100.461 C 117.263 100.372,120.247 100.322,120.421 100.350 C 120.595 100.378,121.009 100.466,121.341 100.546 M177.514 100.458 C 179.432 101.033,180.872 103.048,180.872 105.158 C 180.872 109.366,175.890 111.676,172.812 108.895 C 168.789 105.260,172.331 98.905,177.514 100.458 M325.047 100.734 C 326.851 101.648,327.957 103.731,327.675 105.681 C 326.792 111.785,317.895 111.240,317.895 105.083 C 317.895 101.356,321.704 99.040,325.047 100.734 M214.842 101.648 C 215.592 101.964,216.224 101.984,220.632 101.831 C 226.572 101.626,234.397 101.727,258.581 102.320 L 276.847 102.767 279.127 102.331 C 282.029 101.776,282.033 101.776,282.417 102.518 L 282.739 103.141 281.948 103.348 C 281.514 103.462,280.212 103.793,279.055 104.084 L 276.953 104.612 245.582 103.570 C 214.756 102.547,212.429 102.430,210.526 101.807 L 209.579 101.496 210.421 101.609 C 210.884 101.670,211.435 101.768,211.645 101.826 C 211.979 101.918,212.008 101.838,211.883 101.170 L 211.740 100.408 212.870 100.851 C 213.492 101.095,214.379 101.454,214.842 101.648 M42.632 101.706 C 40.662 102.311,39.555 105.068,40.526 106.947 C 41.632 109.086,44.917 109.485,46.507 107.674 C 49.013 104.820,46.265 100.589,42.632 101.706 M99.263 101.872 C 95.642 103.543,96.752 108.842,100.723 108.842 C 101.910 108.842,102.670 108.476,103.537 107.489 C 106.030 104.649,102.707 100.282,99.263 101.872 M170.737 102.118 C 170.737 102.227,170.595 102.316,170.421 102.316 C 170.095 102.316,170.003 102.067,170.240 101.830 C 170.408 101.662,170.737 101.852,170.737 102.118 M181.895 102.118 C 181.895 102.227,181.753 102.316,181.579 102.316 C 181.253 102.316,181.161 102.067,181.398 101.830 C 181.566 101.662,181.895 101.852,181.895 102.118 M317.474 102.000 C 317.474 102.174,317.385 102.316,317.276 102.316 C 317.010 102.316,316.820 101.987,316.988 101.819 C 317.225 101.582,317.474 101.674,317.474 102.000 M321.255 102.158 C 320.546 102.515,320.194 102.878,319.819 103.634 C 318.143 107.012,322.409 110.061,325.077 107.393 C 327.775 104.696,324.666 100.438,321.255 102.158 M328.583 101.934 C 328.453 102.325,328.000 102.389,328.000 102.018 C 328.000 101.834,328.150 101.684,328.333 101.684 C 328.517 101.684,328.629 101.797,328.583 101.934 M174.359 102.234 C 172.821 103.019,172.214 105.200,173.097 106.771 C 174.515 109.295,178.358 108.858,179.191 106.079 C 180.006 103.356,176.941 100.917,174.359 102.234 M44.911 102.392 C 47.982 103.676,47.128 108.207,43.814 108.210 C 42.733 108.211,41.600 107.593,41.175 106.769 C 39.824 104.156,42.271 101.289,44.911 102.392 M102.098 102.579 C 105.060 104.098,103.789 108.425,100.459 108.158 C 97.397 107.912,96.622 103.856,99.373 102.474 C 100.346 101.985,100.987 102.009,102.098 102.579 M42.621 103.274 C 41.181 103.985,40.829 105.806,41.896 107.022 C 43.419 108.756,46.105 107.768,46.105 105.474 C 46.105 103.604,44.283 102.454,42.621 103.274 M99.582 103.410 C 98.290 104.286,97.989 105.462,98.742 106.697 C 99.874 108.553,102.598 108.186,103.159 106.102 C 103.737 103.954,101.388 102.186,99.582 103.410 M177.499 103.511 C 177.719 103.730,177.977 104.191,178.073 104.534 C 178.818 107.203,175.159 108.519,173.963 106.012 C 172.980 103.950,175.884 101.896,177.499 103.511 M324.261 103.526 C 326.309 105.679,323.304 108.721,321.205 106.621 C 320.583 106.000,320.435 105.405,320.673 104.487 C 321.071 102.951,323.178 102.387,324.261 103.526 M289.337 104.645 C 292.356 106.103,292.496 106.147,296.486 106.885 L 300.556 107.638 300.793 109.023 C 300.924 109.785,301.000 110.438,300.963 110.475 C 300.842 110.596,290.648 108.015,290.103 107.726 C 288.147 106.688,284.809 103.717,285.295 103.447 C 286.025 103.042,286.007 103.037,289.337 104.645 M44.826 104.124 C 45.681 104.844,45.733 105.999,44.942 106.742 C 43.196 108.382,40.816 105.888,42.510 104.194 C 43.273 103.431,43.977 103.410,44.826 104.124 M101.672 103.888 C 102.992 104.571,102.868 106.580,101.469 107.160 C 99.936 107.795,98.338 105.908,99.242 104.529 C 99.838 103.620,100.709 103.390,101.672 103.888 M148.645 105.054 C 154.254 105.969,153.684 105.757,153.684 106.925 L 153.684 107.921 151.484 107.604 C 149.377 107.300,149.281 107.263,149.221 106.748 C 149.161 106.239,149.013 106.178,146.421 105.602 C 143.393 104.929,143.481 104.960,143.676 104.646 C 143.879 104.316,144.368 104.357,148.645 105.054 M329.474 105.276 C 329.474 105.385,329.332 105.474,329.158 105.474 C 328.832 105.474,328.740 105.225,328.977 104.988 C 329.145 104.820,329.474 105.010,329.474 105.276 M182.558 105.368 C 182.558 105.478,182.456 105.602,182.332 105.644 C 182.207 105.685,182.105 105.561,182.105 105.368 C 182.105 105.175,182.207 105.051,182.332 105.093 C 182.456 105.134,182.558 105.258,182.558 105.368 M316.632 105.368 C 316.632 105.542,316.542 105.684,316.433 105.684 C 316.168 105.684,315.978 105.355,316.146 105.187 C 316.383 104.950,316.632 105.043,316.632 105.368 M169.854 105.489 C 169.813 105.614,169.689 105.716,169.579 105.716 C 169.469 105.716,169.345 105.614,169.304 105.489 C 169.262 105.365,169.386 105.263,169.579 105.263 C 169.772 105.263,169.896 105.365,169.854 105.489 M317.474 108.223 C 317.474 108.332,317.332 108.421,317.158 108.421 C 316.832 108.421,316.740 108.173,316.977 107.936 C 317.145 107.767,317.474 107.957,317.474 108.223 M328.632 108.223 C 328.632 108.332,328.489 108.421,328.316 108.421 C 327.990 108.421,327.898 108.173,328.135 107.936 C 328.303 107.767,328.632 107.957,328.632 108.223 M170.696 108.226 C 170.655 108.351,170.531 108.453,170.421 108.453 C 170.311 108.453,170.187 108.351,170.146 108.226 C 170.104 108.102,170.228 108.000,170.421 108.000 C 170.614 108.000,170.738 108.102,170.696 108.226 M181.854 108.226 C 181.813 108.351,181.689 108.453,181.579 108.453 C 181.469 108.453,181.345 108.351,181.304 108.226 C 181.262 108.102,181.386 108.000,181.579 108.000 C 181.772 108.000,181.896 108.102,181.854 108.226 M28.105 109.359 C 30.421 109.424,33.576 109.537,35.116 109.610 L 37.916 109.742 37.853 116.713 L 37.789 123.684 37.205 124.679 C 36.826 125.323,36.271 125.879,35.626 126.258 L 34.632 126.842 30.421 126.842 L 26.211 126.842 25.216 126.258 C 24.571 125.879,24.016 125.323,23.637 124.679 L 23.053 123.684 22.990 116.362 L 22.927 109.039 23.411 109.140 C 23.677 109.195,25.789 109.293,28.105 109.359 M120.800 116.474 L 120.737 123.684 120.152 124.679 C 119.773 125.323,119.218 125.879,118.573 126.258 L 117.579 126.842 113.368 126.842 L 109.158 126.842 108.163 126.258 C 107.519 125.879,106.964 125.323,106.585 124.679 L 106.000 123.684 105.937 116.684 L 105.874 109.684 107.621 109.655 C 108.582 109.639,110.932 109.562,112.842 109.483 C 114.753 109.404,117.339 109.323,118.589 109.301 L 120.863 109.263 120.800 116.474 M52.158 110.031 L 53.263 110.164 53.263 111.292 L 53.263 112.421 50.316 112.421 L 47.368 112.421 47.368 111.158 L 47.368 109.895 49.211 109.897 C 50.224 109.898,51.550 109.958,52.158 110.031 M97.053 111.158 L 97.053 112.421 94.105 112.421 L 91.158 112.421 91.158 111.274 L 91.158 110.127 92.263 110.050 C 92.871 110.007,94.197 109.955,95.211 109.934 L 97.053 109.895 97.053 111.158 M319.579 110.421 C 319.579 110.595,319.490 110.737,319.381 110.737 C 319.115 110.737,318.925 110.408,319.093 110.240 C 319.331 110.003,319.579 110.095,319.579 110.421 M172.802 110.542 C 172.760 110.667,172.636 110.768,172.526 110.768 C 172.416 110.768,172.292 110.667,172.251 110.542 C 172.209 110.418,172.333 110.316,172.526 110.316 C 172.719 110.316,172.843 110.418,172.802 110.542 M179.579 110.749 C 179.579 110.858,179.437 110.947,179.263 110.947 C 178.938 110.947,178.845 110.699,179.082 110.462 C 179.250 110.294,179.579 110.484,179.579 110.749 M326.316 110.632 C 326.316 110.805,326.227 110.947,326.118 110.947 C 325.852 110.947,325.662 110.619,325.830 110.450 C 326.067 110.213,326.316 110.306,326.316 110.632 M176.211 111.474 C 176.211 111.647,176.121 111.789,176.012 111.789 C 175.747 111.789,175.557 111.461,175.725 111.293 C 175.962 111.055,176.211 111.148,176.211 111.474 M322.979 111.474 C 322.979 111.584,322.877 111.708,322.753 111.749 C 322.628 111.791,322.526 111.667,322.526 111.474 C 322.526 111.281,322.628 111.157,322.753 111.198 C 322.877 111.240,322.979 111.364,322.979 111.474 M53.053 113.789 L 53.053 114.526 50.316 114.526 L 47.579 114.526 47.579 113.789 L 47.579 113.053 50.316 113.053 L 53.053 113.053 53.053 113.789 M96.842 113.789 L 96.842 114.526 94.105 114.526 L 91.368 114.526 91.368 113.789 L 91.368 113.053 94.105 113.053 L 96.842 113.053 96.842 113.789 M53.211 115.421 C 53.146 115.614,52.374 115.684,50.316 115.684 C 48.257 115.684,47.485 115.614,47.421 115.421 C 47.354 115.219,48.023 115.158,50.316 115.158 C 52.608 115.158,53.278 115.219,53.211 115.421 M97.000 115.421 C 96.936 115.614,96.164 115.684,94.105 115.684 C 92.047 115.684,91.275 115.614,91.211 115.421 C 91.143 115.219,91.813 115.158,94.105 115.158 C 96.398 115.158,97.067 115.219,97.000 115.421 M52.211 116.632 C 52.211 116.756,51.439 116.842,50.316 116.842 C 49.193 116.842,48.421 116.756,48.421 116.632 C 48.421 116.507,49.193 116.421,50.316 116.421 C 51.439 116.421,52.211 116.507,52.211 116.632 M96.000 116.632 C 96.000 116.756,95.228 116.842,94.105 116.842 C 92.982 116.842,92.211 116.756,92.211 116.632 C 92.211 116.507,92.982 116.421,94.105 116.421 C 95.228 116.421,96.000 116.507,96.000 116.632 " stroke="none" fill="#000000" fill-rule="evenodd"></path></g></svg>