<svg id="svg" xmlns="http://www.w3.org/2000/svg" xmlns:xlink="http://www.w3.org/1999/xlink" width="400" height="170.46728971962617" viewBox="0, 0, 400,170.46728971962617"><g id="svgg"><path id="path0" d="M154.393 37.751 L 140.000 38.020 123.237 40.819 C 111.683 42.749,106.370 43.782,106.140 44.146 C 105.902 44.521,105.804 44.334,105.800 43.501 C 105.796 42.667,105.525 42.152,104.860 41.717 C 104.346 41.380,103.925 40.856,103.925 40.552 C 103.925 39.442,97.632 39.789,97.201 40.923 C 97.008 41.430,96.507 42.060,96.088 42.321 C 94.766 43.147,94.990 46.650,96.397 47.141 C 99.898 48.361,98.952 50.281,90.702 58.693 C 86.769 62.703,81.317 68.274,78.585 71.073 L 73.619 76.163 67.370 76.422 C 59.300 76.757,42.623 78.417,25.421 80.598 L 11.776 82.327 10.053 83.586 C 8.301 84.867,6.733 88.911,7.845 89.282 C 8.527 89.509,8.271 92.347,7.477 93.356 C 6.824 94.185,6.729 94.872,6.729 98.742 C 6.729 101.450,6.583 103.178,6.355 103.178 C 6.141 103.178,5.979 104.334,5.976 105.888 L 5.970 108.598 7.564 109.989 L 9.159 111.380 5.047 111.390 L 0.935 111.401 1.049 116.249 L 1.163 121.097 5.232 121.203 L 9.301 121.308 8.224 123.738 L 7.147 126.168 11.891 126.355 L 16.636 126.542 16.953 128.037 C 18.202 133.922,20.218 137.899,23.756 141.462 C 36.701 154.496,59.092 148.237,63.421 130.374 L 64.033 127.850 67.572 127.850 L 71.111 127.850 75.344 124.995 L 79.577 122.140 81.463 123.642 C 83.240 125.057,83.540 125.160,86.628 125.414 C 88.431 125.562,90.495 125.933,91.215 126.237 C 92.344 126.715,97.630 126.784,129.720 126.743 L 166.916 126.695 168.785 128.612 L 170.654 130.530 173.516 130.289 C 178.872 129.838,180.761 130.277,181.299 132.099 C 187.850 154.282,221.141 153.220,226.610 130.654 C 226.859 129.626,227.176 128.647,227.316 128.477 C 227.455 128.308,231.838 127.922,237.055 127.619 C 245.424 127.134,247.181 126.918,251.963 125.780 C 254.944 125.071,257.755 124.404,258.209 124.298 C 258.960 124.123,259.044 123.846,259.143 121.212 L 259.252 118.318 260.935 118.131 C 263.711 117.822,263.747 117.760,264.284 112.243 C 264.715 107.820,264.841 107.290,265.467 107.290 C 266.032 107.290,266.168 107.571,266.168 108.740 L 266.168 110.189 268.987 110.609 C 272.865 111.185,275.648 111.134,278.121 110.440 L 280.216 109.852 280.106 97.076 C 280.046 90.049,279.895 79.910,279.771 74.546 L 279.545 64.793 277.095 63.585 C 273.740 61.931,270.040 62.159,267.103 64.201 L 265.234 65.501 265.359 71.602 C 265.478 77.407,265.450 77.695,264.786 77.521 C 264.175 77.361,263.719 75.221,261.146 60.445 C 257.693 40.614,258.516 42.881,253.750 40.071 L 249.907 37.804 209.346 37.643 C 187.037 37.554,162.308 37.603,154.393 37.751 M253.580 40.872 L 257.345 43.178 260.252 59.813 C 263.735 79.742,263.335 77.995,264.483 78.284 C 265.298 78.488,265.421 78.725,265.424 80.101 C 265.426 80.970,265.530 82.535,265.655 83.578 L 265.883 85.473 206.025 85.560 L 146.168 85.647 146.168 82.842 C 146.168 80.845,146.317 79.951,146.686 79.738 C 147.109 79.494,147.254 76.266,147.480 62.095 L 147.756 44.751 144.252 44.981 C 142.324 45.108,134.439 45.401,126.729 45.632 C 119.019 45.863,112.290 46.187,111.776 46.352 C 111.148 46.553,111.517 46.604,112.897 46.507 C 114.028 46.428,120.589 46.192,127.477 45.983 C 134.364 45.773,141.661 45.500,143.691 45.374 L 147.382 45.146 147.106 62.106 C 146.881 75.949,146.735 79.120,146.312 79.364 C 145.939 79.580,145.794 80.496,145.794 82.635 L 145.794 85.607 143.551 85.607 L 141.308 85.607 141.308 82.257 L 141.308 78.907 139.768 78.493 L 138.228 78.078 138.465 68.478 C 138.595 63.198,138.805 56.289,138.931 53.124 L 139.161 47.369 134.908 47.604 C 132.568 47.733,125.944 47.940,120.187 48.064 C 106.145 48.366,109.012 46.601,95.427 63.302 L 84.125 77.196 85.797 78.870 L 87.469 80.543 92.893 80.427 L 98.318 80.310 98.318 81.714 C 98.318 83.352,99.183 84.486,100.432 84.486 C 101.418 84.486,101.524 84.803,100.841 85.715 C 100.430 86.265,99.242 86.352,90.934 86.441 L 81.495 86.542 81.495 83.853 C 81.496 78.064,84.433 73.711,100.344 55.912 C 104.000 51.823,104.286 51.383,105.517 47.948 L 106.821 44.312 123.410 41.547 L 140.000 38.781 154.579 38.506 C 162.598 38.354,187.306 38.306,209.486 38.398 L 249.814 38.566 253.580 40.872 M323.212 40.391 L 314.274 40.713 312.954 41.781 C 309.617 44.482,309.270 45.447,306.873 58.692 C 306.259 62.084,305.597 65.020,305.402 65.215 C 305.207 65.410,305.047 66.280,305.047 67.147 C 305.047 68.014,304.945 68.989,304.821 69.313 C 304.444 70.295,303.925 69.577,303.925 68.073 C 303.925 65.884,303.143 65.421,299.451 65.421 C 295.378 65.421,295.354 65.453,295.339 71.148 C 295.324 76.621,295.284 76.570,299.678 76.714 L 302.991 76.822 303.111 77.873 C 303.177 78.451,303.010 79.191,302.738 79.518 C 302.372 79.959,302.260 81.560,302.303 85.741 C 302.349 90.244,302.253 91.449,301.825 91.762 C 301.389 92.080,301.309 93.338,301.392 98.507 L 301.495 104.860 302.710 104.977 C 304.296 105.130,304.663 108.998,303.113 109.226 C 302.667 109.292,302.232 109.556,302.148 109.813 C 302.025 110.185,310.803 110.280,345.202 110.280 L 388.411 110.280 388.411 113.645 C 388.411 116.777,388.359 117.009,387.652 117.009 C 387.234 117.009,386.796 117.262,386.677 117.570 C 386.488 118.064,381.536 118.131,345.234 118.131 C 308.931 118.131,303.980 118.064,303.790 117.570 C 303.672 117.262,303.275 117.009,302.909 117.009 C 302.079 117.009,302.034 143.754,302.862 145.327 C 303.549 146.634,313.275 146.634,313.958 145.327 C 314.265 144.741,314.426 140.634,314.489 131.776 L 314.579 119.065 344.393 118.970 L 374.206 118.874 374.206 122.428 C 374.206 124.548,374.055 125.981,373.832 125.981 C 373.626 125.981,373.458 125.813,373.458 125.607 C 373.458 125.402,372.711 125.234,371.798 125.234 C 370.885 125.234,370.034 125.402,369.907 125.607 C 369.779 125.813,369.349 125.981,368.950 125.981 C 368.386 125.981,368.224 126.242,368.224 127.155 C 368.224 128.984,367.430 129.320,363.084 129.334 C 359.565 129.345,358.364 129.019,359.838 128.453 C 360.220 128.307,360.383 127.870,360.305 127.198 C 360.142 125.775,359.465 125.903,359.322 127.383 C 359.258 128.051,359.036 128.598,358.829 128.598 C 358.622 128.598,358.506 128.977,358.572 129.439 C 358.689 130.260,358.803 130.280,363.364 130.280 C 367.926 130.280,368.040 130.260,368.157 129.439 C 368.223 128.977,368.433 128.598,368.624 128.598 C 368.815 128.598,368.977 128.304,368.984 127.944 C 369.027 125.588,373.458 124.940,373.458 127.290 C 373.458 128.009,373.626 128.598,373.832 128.598 C 374.070 128.598,374.206 131.561,374.206 136.739 C 374.206 146.867,373.739 146.168,380.507 146.168 C 387.162 146.168,386.542 147.678,386.542 131.466 C 386.542 118.936,386.582 118.131,387.207 118.131 C 388.585 118.131,389.159 116.813,389.159 113.645 C 389.159 110.477,388.585 109.159,387.207 109.159 C 385.763 109.159,386.295 105.118,387.757 104.977 L 388.972 104.860 389.074 97.850 C 389.142 93.164,389.046 90.841,388.785 90.841 C 388.524 90.841,388.428 88.518,388.496 83.832 L 388.598 76.822 391.324 76.712 C 395.367 76.549,395.514 76.349,395.514 71.028 C 395.514 65.560,395.399 65.421,390.895 65.421 C 387.290 65.421,386.542 65.891,386.542 68.160 C 386.542 70.048,385.914 69.892,385.673 67.944 C 383.601 51.200,380.771 42.462,376.940 40.977 C 374.835 40.161,340.124 39.782,323.212 40.391 M376.822 41.770 C 379.008 42.749,379.919 44.057,381.083 47.890 C 382.189 51.531,384.352 64.203,384.059 65.323 C 383.950 65.742,384.043 66.197,384.266 66.335 C 384.495 66.476,384.673 67.707,384.673 69.151 C 384.673 70.799,384.896 72.160,385.297 72.960 C 386.434 75.229,386.542 75.499,386.542 76.070 C 386.542 76.381,386.330 76.636,386.071 76.636 C 385.812 76.636,385.146 77.056,384.592 77.570 C 384.038 78.084,383.337 78.505,383.034 78.505 C 382.732 78.505,382.153 78.925,381.749 79.439 C 381.345 79.953,380.756 80.374,380.441 80.374 C 380.125 80.374,379.537 80.794,379.132 81.308 C 378.728 81.822,378.043 82.243,377.610 82.243 C 377.177 82.243,376.822 82.411,376.822 82.617 C 376.822 83.349,378.276 82.975,378.999 82.056 C 379.403 81.542,380.016 81.121,380.361 81.121 C 381.078 81.121,382.056 80.259,382.056 79.628 C 382.056 79.384,382.351 79.296,382.746 79.421 C 383.213 79.569,383.665 79.336,384.143 78.699 C 384.911 77.676,385.622 77.486,385.922 78.224 C 386.065 78.578,386.204 78.558,386.493 78.142 C 387.107 77.258,387.351 77.896,387.553 80.916 C 387.787 84.412,387.497 84.860,385.001 84.860 C 383.998 84.860,383.178 85.028,383.178 85.234 C 383.178 85.441,382.181 85.607,380.935 85.607 C 379.688 85.607,378.692 85.774,378.692 85.981 C 378.692 86.187,378.523 86.355,378.318 86.355 C 378.112 86.355,377.944 85.906,377.944 85.357 C 377.944 84.171,376.983 82.991,376.017 82.991 C 375.637 82.991,375.332 82.864,375.339 82.710 C 375.363 82.134,376.364 81.121,376.910 81.121 C 377.221 81.121,377.978 80.533,378.593 79.813 C 379.207 79.093,379.993 78.505,380.339 78.505 C 380.684 78.505,381.421 78.084,381.975 77.570 C 382.529 77.056,383.195 76.636,383.454 76.636 C 383.713 76.636,383.925 76.467,383.925 76.262 C 383.925 76.030,381.931 75.888,378.692 75.888 C 375.452 75.888,373.458 75.745,373.458 75.514 C 373.458 75.272,369.097 75.140,361.121 75.140 C 353.146 75.140,348.785 75.272,348.785 75.514 C 348.785 75.754,352.498 75.888,359.178 75.888 C 366.978 75.888,369.694 76.004,370.065 76.355 C 370.462 76.729,370.595 76.729,370.732 76.355 C 370.913 75.862,373.466 75.687,373.446 76.168 C 373.429 76.578,372.486 77.757,372.175 77.757 C 371.831 77.757,370.841 78.746,370.841 79.089 C 370.841 79.557,368.804 81.121,368.193 81.121 C 367.155 81.122,367.101 80.670,368.050 79.923 C 368.557 79.524,368.972 78.892,368.972 78.518 C 368.972 78.143,369.235 77.736,369.556 77.613 C 369.878 77.489,370.028 77.206,369.891 76.984 C 369.552 76.436,368.224 77.883,368.224 78.800 C 368.224 79.185,367.804 79.725,367.290 80.000 C 366.776 80.275,366.355 80.640,366.355 80.811 C 366.355 80.982,362.241 81.121,357.213 81.121 L 348.072 81.121 347.961 78.688 C 347.808 75.331,347.143 75.628,346.916 79.154 L 346.729 82.056 345.234 82.056 L 343.738 82.056 343.637 79.439 C 343.495 75.792,343.053 75.189,342.815 78.318 L 342.617 80.935 334.003 81.035 C 325.806 81.130,325.350 81.098,324.579 80.381 C 323.724 79.584,322.896 79.307,323.664 80.075 C 324.315 80.726,324.215 81.121,323.399 81.121 C 322.709 81.121,318.131 76.850,318.131 76.206 C 318.131 75.722,320.163 75.826,320.673 76.336 C 321.022 76.685,321.221 76.685,321.570 76.336 C 321.896 76.010,324.702 75.888,331.850 75.888 C 338.156 75.888,341.682 75.754,341.682 75.514 C 341.682 75.273,337.508 75.140,329.907 75.140 C 322.305 75.140,318.131 75.273,318.131 75.514 C 318.131 75.745,316.137 75.888,312.897 75.888 C 309.657 75.888,307.664 76.030,307.664 76.262 C 307.664 76.467,307.382 76.636,307.039 76.636 C 306.369 76.636,305.047 77.667,305.047 78.189 C 305.047 78.363,305.636 78.505,306.355 78.505 C 307.075 78.505,307.664 78.673,307.664 78.879 C 307.664 79.084,307.865 79.252,308.112 79.252 C 308.461 79.252,308.461 79.153,308.112 78.804 C 306.594 77.285,308.032 76.104,309.614 77.570 C 310.168 78.084,310.819 78.505,311.061 78.505 C 311.303 78.505,312.056 79.093,312.734 79.813 C 313.413 80.533,314.240 81.121,314.572 81.121 C 315.151 81.121,316.973 82.877,316.998 83.458 C 317.021 84.021,315.634 83.718,314.852 82.991 C 314.411 82.579,313.867 82.243,313.643 82.243 C 313.419 82.243,312.846 81.822,312.369 81.308 C 311.893 80.794,311.246 80.374,310.932 80.374 C 310.617 80.374,310.269 80.135,310.157 79.843 C 309.932 79.258,309.080 79.245,308.785 79.821 C 308.682 80.022,308.977 80.241,309.439 80.306 C 309.902 80.372,310.280 80.582,310.280 80.774 C 310.280 80.965,310.541 81.121,310.859 81.121 C 311.177 81.121,311.827 81.542,312.304 82.056 C 312.780 82.570,313.457 82.991,313.807 82.991 C 314.739 82.991,314.419 84.632,313.458 84.782 C 312.724 84.896,311.479 85.370,310.192 86.025 C 309.835 86.207,309.204 86.355,308.790 86.355 C 307.908 86.355,306.542 87.604,306.542 88.411 C 306.542 88.827,306.106 88.972,304.860 88.972 L 303.178 88.972 303.178 86.617 C 303.178 85.246,303.373 84.055,303.645 83.766 C 304.019 83.370,304.019 83.237,303.645 83.100 C 302.917 82.833,303.095 80.805,303.925 79.914 C 304.742 79.038,304.883 78.505,304.299 78.505 C 303.672 78.505,303.846 75.251,304.486 75.005 C 304.891 74.850,305.047 74.215,305.047 72.722 C 305.047 71.585,305.193 70.654,305.372 70.654 C 305.552 70.654,305.813 69.771,305.953 68.692 C 306.377 65.427,308.768 52.374,309.600 48.785 C 310.415 45.265,311.452 43.573,313.684 42.124 C 316.050 40.587,373.462 40.265,376.822 41.770 M152.121 47.074 L 151.028 48.167 151.028 58.148 L 151.028 68.129 152.962 70.513 L 154.897 72.897 201.280 72.885 L 247.664 72.874 248.649 72.005 C 250.287 70.562,250.311 68.654,248.822 57.896 C 247.346 47.222,247.381 47.371,246.150 46.564 C 244.636 45.573,205.297 45.695,204.060 46.695 L 203.178 47.410 203.066 57.622 C 202.947 68.586,203.027 69.148,204.816 69.888 C 205.489 70.167,212.469 70.262,227.196 70.193 C 238.967 70.138,248.598 70.194,248.598 70.316 C 248.598 71.807,249.604 71.776,201.275 71.776 C 155.725 71.776,155.316 71.769,154.853 71.028 C 154.388 70.284,154.480 70.280,175.528 70.280 L 196.669 70.280 197.587 69.363 L 198.505 68.445 198.505 58.130 L 198.505 47.815 197.516 46.898 L 196.526 45.981 174.870 45.981 L 153.214 45.981 152.121 47.074 M104.839 47.570 C 104.088 50.015,103.535 50.744,103.750 49.008 C 103.975 47.175,104.166 46.729,104.720 46.729 C 104.938 46.729,104.988 47.083,104.839 47.570 M329.353 47.095 L 313.099 47.290 310.742 57.383 C 308.124 68.591,307.899 70.421,308.983 71.687 L 309.699 72.523 345.055 72.523 C 372.544 72.523,380.640 72.419,381.438 72.056 C 382.606 71.525,382.604 71.453,381.277 65.794 C 380.868 64.047,379.811 59.084,378.929 54.766 L 377.326 46.916 361.467 46.908 C 352.744 46.904,338.293 46.988,329.353 47.095 M175.701 58.131 L 175.701 69.159 164.756 69.159 C 150.574 69.159,152.150 70.506,152.150 58.380 C 152.150 45.675,150.585 47.103,164.507 47.103 L 175.701 47.103 175.701 58.131 M196.796 47.690 C 197.678 48.572,197.678 67.689,196.796 68.571 C 196.292 69.075,194.829 69.159,186.515 69.159 L 176.822 69.159 176.822 58.131 L 176.822 47.103 186.515 47.103 C 194.829 47.103,196.292 47.186,196.796 47.690 M226.542 58.131 L 226.542 69.159 216.158 69.159 C 207.365 69.159,205.647 69.070,204.943 68.577 C 203.840 67.804,203.618 48.772,204.700 47.690 C 205.206 47.184,206.752 47.103,215.915 47.103 L 226.542 47.103 226.542 58.131 M245.753 47.676 C 246.421 48.344,246.392 48.191,247.850 58.889 C 249.165 68.542,249.126 67.830,248.385 68.571 C 247.880 69.076,246.383 69.159,237.730 69.159 L 227.664 69.159 227.664 58.131 L 227.664 47.103 236.422 47.103 C 243.790 47.103,245.271 47.194,245.753 47.676 M378.305 55.421 C 379.180 59.790,380.139 64.710,380.436 66.355 C 380.733 68.000,381.070 69.808,381.185 70.374 L 381.393 71.402 376.491 71.402 C 373.472 71.402,371.589 71.258,371.589 71.028 C 371.589 70.803,370.040 70.654,367.690 70.654 C 363.931 70.654,363.786 70.624,363.671 69.813 L 363.551 68.972 353.271 68.972 L 342.991 68.972 342.871 69.813 L 342.752 70.654 350.628 70.654 C 355.630 70.654,358.505 70.791,358.505 71.028 C 358.505 71.524,341.219 71.537,340.724 71.042 C 340.526 70.843,338.515 70.633,336.257 70.574 C 332.310 70.471,332.145 70.434,332.029 69.620 L 331.909 68.773 321.936 68.872 C 312.245 68.969,311.963 68.993,311.963 69.720 C 311.963 70.443,312.245 70.471,320.654 70.568 C 326.022 70.630,329.346 70.808,329.346 71.035 C 329.346 71.266,325.606 71.402,319.252 71.402 L 309.159 71.402 309.159 69.803 C 309.159 68.923,309.429 67.819,309.758 67.348 C 310.116 66.837,310.280 66.088,310.165 65.489 C 310.059 64.937,310.798 60.840,311.808 56.385 C 312.818 51.929,313.645 48.188,313.645 48.071 C 313.645 47.873,320.681 47.798,361.161 47.566 L 376.714 47.477 378.305 55.421 M137.805 53.364 C 137.682 55.986,137.477 62.617,137.348 68.101 L 137.113 78.071 134.071 78.281 C 132.397 78.397,125.939 78.597,119.720 78.726 L 108.411 78.961 108.411 74.638 C 108.411 68.360,108.450 68.411,103.614 68.411 C 98.224 68.411,98.318 68.304,98.318 74.450 L 98.318 79.252 94.112 79.257 C 91.799 79.260,89.567 79.354,89.152 79.465 C 88.640 79.603,87.942 79.271,86.981 78.432 L 85.564 77.196 96.225 64.112 C 102.088 56.916,107.325 50.692,107.861 50.280 C 108.766 49.587,109.763 49.503,121.615 49.125 C 128.643 48.901,135.210 48.691,136.210 48.658 L 138.027 48.598 137.805 53.364 M276.595 64.465 L 278.398 65.379 278.635 73.344 C 278.766 77.724,278.908 87.520,278.951 95.113 L 279.030 108.917 277.739 109.383 C 275.821 110.076,268.261 109.885,267.505 109.124 C 267.422 109.040,267.236 103.925,267.093 97.757 C 266.950 91.589,266.725 81.946,266.594 76.328 L 266.355 66.113 267.658 65.120 C 268.888 64.182,270.693 63.718,273.564 63.601 C 274.239 63.574,275.603 63.963,276.595 64.465 M303.178 68.411 C 303.178 69.657,303.344 70.654,303.551 70.654 C 304.145 70.654,304.006 74.739,303.391 75.354 C 303.007 75.738,301.907 75.888,299.466 75.888 L 296.075 75.888 296.075 71.028 L 296.075 66.168 299.626 66.168 L 303.178 66.168 303.178 68.411 M394.393 71.028 L 394.393 75.888 391.121 75.876 C 386.628 75.860,385.226 74.023,387.039 70.529 C 387.313 70.001,387.523 68.805,387.507 67.869 L 387.477 66.168 390.935 66.168 L 394.393 66.168 394.393 71.028 M107.063 70.124 C 107.188 70.449,107.290 73.567,107.290 77.052 C 107.290 84.445,107.612 83.973,102.886 83.502 L 99.626 83.178 99.523 76.836 C 99.467 73.348,99.504 70.278,99.605 70.014 C 99.902 69.241,106.763 69.343,107.063 70.124 M318.131 76.936 C 318.131 77.355,321.861 81.121,322.276 81.121 C 322.464 81.121,322.617 81.374,322.617 81.682 C 322.617 82.074,322.222 82.243,321.308 82.243 C 320.589 82.243,320.000 82.411,320.000 82.617 C 320.000 83.152,321.999 83.079,322.589 82.523 C 322.985 82.150,323.118 82.150,323.255 82.523 C 323.553 83.335,324.112 83.030,324.112 82.056 C 324.112 81.030,325.015 80.761,325.369 81.682 C 325.551 82.158,326.886 82.243,334.194 82.243 C 339.685 82.243,342.804 82.378,342.804 82.617 C 342.804 82.827,343.856 82.991,345.212 82.991 C 346.536 82.991,347.723 82.822,347.850 82.617 C 347.996 82.382,351.959 82.243,358.505 82.243 C 365.050 82.243,369.014 82.382,369.159 82.617 C 369.286 82.822,370.137 82.991,371.050 82.991 C 371.963 82.991,372.710 83.149,372.710 83.343 C 372.710 83.537,373.386 83.747,374.212 83.810 C 375.038 83.874,375.711 84.093,375.708 84.299 C 375.703 84.545,365.728 84.673,346.542 84.673 C 327.414 84.673,317.351 84.544,317.290 84.299 C 317.238 84.093,317.743 83.873,318.411 83.808 C 319.968 83.658,320.002 82.991,318.453 82.991 C 317.575 82.991,317.000 82.662,316.163 81.682 C 315.548 80.963,314.822 80.374,314.550 80.374 C 314.278 80.374,313.483 79.785,312.784 79.065 C 312.085 78.346,311.236 77.757,310.897 77.757 C 310.265 77.757,310.085 77.329,310.530 76.885 C 310.887 76.527,318.131 76.576,318.131 76.936 M380.320 76.922 C 380.580 77.344,377.640 80.374,376.969 80.374 C 376.309 80.374,375.327 81.252,375.327 81.842 C 375.327 82.063,375.075 82.243,374.766 82.243 C 374.458 82.243,374.206 82.411,374.206 82.617 C 374.206 82.822,373.879 82.991,373.480 82.991 C 373.081 82.991,372.650 82.822,372.523 82.617 C 372.396 82.411,371.545 82.243,370.632 82.243 C 368.486 82.243,368.525 82.063,371.308 79.164 L 373.645 76.731 376.894 76.683 C 378.681 76.657,380.222 76.764,380.320 76.922 M71.402 77.227 C 71.093 77.299,64.785 78.046,57.383 78.886 C 34.582 81.475,20.618 83.327,14.834 84.529 C 8.605 85.824,8.410 85.810,10.393 84.217 C 11.944 82.970,24.523 81.133,48.411 78.664 C 59.863 77.480,74.137 76.588,71.402 77.227 M81.237 78.598 C 80.908 79.472,80.537 81.617,80.412 83.364 L 80.187 86.542 57.570 86.979 C 34.305 87.429,13.117 88.096,10.020 88.476 L 8.264 88.691 8.551 87.617 C 8.827 86.587,9.024 86.503,13.485 85.520 C 19.763 84.136,74.373 77.211,80.264 77.052 L 81.836 77.009 81.237 78.598 M322.617 78.505 C 322.617 78.916,322.785 79.252,322.991 79.252 C 323.196 79.252,323.364 78.916,323.364 78.505 C 323.364 78.093,323.196 77.757,322.991 77.757 C 322.785 77.757,322.617 78.093,322.617 78.505 M139.019 79.486 L 140.187 79.720 140.187 82.641 L 140.187 85.562 138.598 85.773 C 134.447 86.324,104.652 86.178,104.760 85.607 C 104.819 85.295,105.361 84.992,105.985 84.922 C 107.752 84.725,108.411 83.879,108.411 81.811 L 108.411 80.000 112.991 79.951 C 117.131 79.907,132.486 79.492,136.308 79.321 C 137.157 79.283,138.376 79.357,139.019 79.486 M304.017 84.206 C 304.103 84.467,304.941 84.723,305.917 84.787 C 306.878 84.850,307.664 85.060,307.664 85.254 C 307.664 85.448,308.252 85.607,308.972 85.607 C 309.692 85.607,310.280 85.439,310.280 85.234 C 310.280 85.028,309.710 84.860,309.012 84.860 C 308.229 84.860,307.661 84.645,307.528 84.299 C 307.251 83.575,303.779 83.483,304.017 84.206 M103.551 85.016 C 103.551 85.613,103.011 86.355,102.577 86.355 C 101.989 86.355,101.965 86.280,102.283 85.451 C 102.478 84.942,103.551 84.574,103.551 85.016 M314.393 92.150 C 314.393 98.841,314.354 99.080,313.431 98.158 C 312.469 97.195,312.666 85.607,313.645 85.607 C 314.364 85.607,314.393 85.857,314.393 92.150 M326.729 92.150 L 326.729 98.692 321.121 98.692 L 315.514 98.692 315.514 92.150 L 315.514 85.607 321.121 85.607 L 326.729 85.607 326.729 92.150 M361.869 85.981 C 361.869 86.225,355.950 86.355,344.860 86.355 C 333.769 86.355,327.850 86.225,327.850 85.981 C 327.850 85.738,333.769 85.607,344.860 85.607 C 355.950 85.607,361.869 85.738,361.869 85.981 M374.206 92.150 L 374.206 98.692 368.598 98.692 L 362.991 98.692 362.991 92.150 L 362.991 85.607 368.598 85.607 L 374.206 85.607 374.206 92.150 M376.822 91.615 C 376.822 97.420,376.592 98.692,375.541 98.692 C 375.423 98.692,375.327 95.748,375.327 92.150 C 375.327 85.857,375.356 85.607,376.075 85.607 C 376.791 85.607,376.822 85.857,376.822 91.615 M387.497 86.490 C 388.349 89.884,386.375 91.282,384.154 88.857 C 383.503 88.146,382.671 87.502,382.306 87.427 C 381.403 87.240,381.476 86.570,382.415 86.423 C 382.834 86.357,383.178 86.147,383.178 85.955 C 383.178 85.072,387.268 85.579,387.497 86.490 M320.000 86.916 C 320.000 87.226,319.668 87.477,319.257 87.477 C 318.285 87.477,317.009 88.585,317.009 89.429 C 317.009 89.794,316.841 90.093,316.636 90.093 C 316.430 90.093,316.262 91.019,316.262 92.150 C 316.262 93.280,316.430 94.206,316.636 94.206 C 316.841 94.206,317.009 94.505,317.009 94.870 C 317.009 95.645,318.259 96.822,319.081 96.822 C 319.394 96.822,319.746 97.075,319.865 97.383 C 319.988 97.705,320.546 97.944,321.173 97.944 C 321.800 97.944,322.358 97.705,322.482 97.383 C 322.600 97.075,322.929 96.822,323.213 96.822 C 323.992 96.822,325.234 95.623,325.234 94.870 C 325.234 94.505,325.402 94.206,325.607 94.206 C 325.813 94.206,325.981 93.280,325.981 92.150 C 325.981 91.019,325.813 90.093,325.607 90.093 C 325.402 90.093,325.234 89.794,325.234 89.429 C 325.234 88.676,323.992 87.477,323.213 87.477 C 322.929 87.477,322.600 87.224,322.482 86.916 C 322.356 86.588,321.796 86.355,321.133 86.355 C 320.375 86.355,320.000 86.541,320.000 86.916 M367.247 86.892 C 367.124 87.214,366.790 87.477,366.506 87.477 C 365.727 87.477,364.486 88.676,364.486 89.429 C 364.486 89.794,364.318 90.093,364.112 90.093 C 363.907 90.093,363.738 91.019,363.738 92.150 C 363.738 93.280,363.907 94.206,364.112 94.206 C 364.318 94.206,364.486 93.298,364.486 92.190 C 364.486 90.742,364.644 90.113,365.047 89.958 C 365.355 89.840,365.607 89.401,365.607 88.984 C 365.607 88.474,365.853 88.224,366.355 88.224 C 366.766 88.224,367.103 88.066,367.103 87.873 C 367.103 87.680,367.734 87.470,368.505 87.406 C 370.227 87.263,370.355 86.585,368.689 86.425 C 367.850 86.344,367.402 86.489,367.247 86.892 M139.914 88.947 C 139.866 90.050,139.770 91.009,139.700 91.079 C 139.630 91.148,126.422 91.319,110.347 91.459 L 81.121 91.712 81.121 89.769 C 81.121 87.303,78.707 87.573,103.271 87.290 L 124.486 87.046 124.486 88.383 L 124.486 89.720 130.093 89.720 L 135.701 89.720 135.701 88.433 C 135.701 87.191,135.757 87.141,137.290 86.999 C 140.030 86.747,140.009 86.731,139.914 88.947 M235.514 88.879 L 235.514 91.028 188.168 91.162 L 140.822 91.296 141.065 89.521 C 141.199 88.545,141.308 87.517,141.308 87.238 C 141.308 86.811,148.939 86.729,188.411 86.729 L 235.514 86.729 235.514 88.879 M265.421 88.381 C 265.421 89.289,265.523 90.298,265.647 90.624 C 265.850 91.151,265.042 91.215,258.171 91.215 L 250.467 91.215 250.467 88.972 L 250.467 86.729 257.944 86.729 L 265.421 86.729 265.421 88.381 M311.776 89.533 L 311.776 91.589 310.168 91.589 C 308.148 91.589,307.664 91.104,307.664 89.084 L 307.664 87.477 309.720 87.477 L 311.776 87.477 311.776 89.533 M322.617 87.850 C 322.617 88.056,322.953 88.224,323.364 88.224 C 323.867 88.224,324.112 88.474,324.112 88.984 C 324.112 89.401,324.364 89.840,324.673 89.958 C 325.073 90.112,325.234 90.738,325.234 92.150 C 325.234 93.561,325.073 94.187,324.673 94.341 C 324.364 94.459,324.112 94.898,324.112 95.315 C 324.112 95.826,323.867 96.075,323.364 96.075 C 322.953 96.075,322.617 96.243,322.617 96.449 C 322.617 96.654,322.038 96.822,321.330 96.822 C 320.623 96.822,319.940 96.654,319.813 96.449 C 319.686 96.243,319.256 96.075,318.856 96.075 C 318.376 96.075,318.131 95.818,318.131 95.315 C 318.131 94.898,317.879 94.459,317.570 94.341 C 317.170 94.187,317.009 93.561,317.009 92.150 C 317.009 90.738,317.170 90.112,317.570 89.958 C 317.879 89.840,318.131 89.401,318.131 88.984 C 318.131 88.481,318.376 88.224,318.856 88.224 C 319.256 88.224,319.686 88.056,319.813 87.850 C 319.940 87.645,320.623 87.477,321.330 87.477 C 322.038 87.477,322.617 87.645,322.617 87.850 M361.869 88.224 C 361.869 88.943,361.620 88.972,355.502 88.972 C 350.188 88.972,349.100 89.065,348.920 89.533 C 348.802 89.841,348.302 90.093,347.810 90.093 C 347.318 90.093,346.916 90.262,346.916 90.467 C 346.916 90.673,346.159 90.841,345.234 90.841 C 344.308 90.841,343.551 90.673,343.551 90.467 C 343.551 90.262,343.149 90.093,342.657 90.093 C 342.165 90.093,341.665 89.841,341.547 89.533 C 341.367 89.063,340.238 88.972,334.591 88.972 C 328.100 88.972,327.850 88.944,327.850 88.224 C 327.850 87.488,328.100 87.477,344.860 87.477 C 361.620 87.477,361.869 87.488,361.869 88.224 M370.093 87.850 C 370.093 88.056,370.430 88.224,370.841 88.224 C 371.343 88.224,371.589 88.474,371.589 88.984 C 371.589 89.401,371.841 89.840,372.150 89.958 C 372.552 90.113,372.710 90.742,372.710 92.190 C 372.710 93.298,372.879 94.206,373.084 94.206 C 373.290 94.206,373.458 93.280,373.458 92.150 C 373.458 91.019,373.290 90.093,373.084 90.093 C 372.879 90.093,372.710 89.794,372.710 89.429 C 372.710 89.063,372.372 88.475,371.958 88.120 C 371.132 87.413,370.093 87.263,370.093 87.850 M80.000 89.690 L 80.000 91.529 77.664 91.735 C 76.379 91.848,62.921 92.046,47.757 92.174 L 20.187 92.406 20.187 90.730 L 20.187 89.053 27.009 88.807 C 36.616 88.461,60.186 87.980,70.935 87.910 L 80.000 87.850 80.000 89.690 M383.391 88.758 C 383.685 89.052,383.925 89.809,383.925 90.441 L 383.925 91.589 380.935 91.589 L 377.944 91.589 377.944 89.907 L 377.944 88.224 380.401 88.224 C 382.031 88.224,383.037 88.404,383.391 88.758 M19.439 90.654 L 19.439 92.710 17.757 92.710 L 16.075 92.710 16.075 90.903 C 16.075 88.725,16.181 88.598,18.006 88.598 L 19.439 88.598 19.439 90.654 M12.710 90.596 C 12.710 91.771,12.493 92.417,11.926 92.930 C 11.207 93.581,11.163 93.893,11.394 96.664 L 11.645 99.688 9.841 100.862 L 8.037 102.037 7.929 98.420 C 7.835 95.263,7.919 94.671,8.584 93.771 C 9.083 93.096,9.346 92.165,9.346 91.069 C 9.346 89.306,9.519 89.165,11.869 89.023 C 12.620 88.977,12.710 89.146,12.710 90.596 M14.953 90.596 C 14.953 91.746,14.735 92.418,14.206 92.897 C 13.597 93.448,13.458 94.049,13.458 96.133 C 13.458 98.896,12.952 99.561,12.576 97.290 C 12.185 94.924,12.305 93.976,13.084 93.271 C 13.636 92.772,13.832 92.120,13.832 90.783 C 13.832 89.422,13.971 88.972,14.393 88.972 C 14.805 88.972,14.953 89.402,14.953 90.596 M343.818 89.203 C 343.204 89.818,343.652 90.093,345.265 90.093 C 346.468 90.093,346.932 89.954,346.825 89.626 C 346.656 89.114,344.247 88.775,343.818 89.203 M307.009 90.614 C 307.369 90.887,307.664 91.549,307.664 92.085 C 307.664 93.242,310.107 96.075,311.106 96.075 C 311.474 96.075,311.776 96.344,311.776 96.673 C 311.776 97.002,312.336 97.831,313.021 98.516 L 314.266 99.762 344.866 99.755 L 375.467 99.748 376.705 98.510 C 377.387 97.828,377.944 97.002,377.944 96.673 C 377.944 96.223,378.320 96.075,379.466 96.075 C 380.934 96.075,382.056 95.439,382.056 94.606 C 382.056 94.386,382.308 94.206,382.617 94.206 C 382.925 94.206,383.178 93.892,383.178 93.509 C 383.178 92.181,384.986 90.841,386.780 90.841 L 388.411 90.841 388.411 97.383 L 388.411 103.925 380.561 103.925 C 373.832 103.925,372.710 104.005,372.710 104.486 C 372.710 104.794,372.495 105.047,372.232 105.047 C 371.969 105.047,371.511 105.383,371.215 105.794 C 370.346 107.001,320.594 106.965,319.298 105.757 C 317.979 104.528,317.914 105.234,319.227 106.518 L 320.400 107.664 345.284 107.664 L 370.168 107.664 371.477 106.355 L 372.785 105.047 379.290 105.047 L 385.794 105.047 385.794 107.103 L 385.794 109.159 345.421 109.159 L 305.047 109.159 305.047 107.112 L 305.047 105.064 311.403 104.962 C 320.601 104.814,319.818 104.157,310.166 103.925 L 302.388 103.738 302.388 97.764 C 302.388 93.904,302.528 91.743,302.783 91.658 C 303.000 91.586,303.178 91.204,303.178 90.810 C 303.178 89.937,305.932 89.796,307.009 90.614 M342.729 91.441 C 343.844 92.590,344.088 92.701,344.374 92.189 C 344.809 91.413,345.663 91.421,346.102 92.205 C 346.401 92.739,346.626 92.638,347.772 91.458 L 349.097 90.093 355.483 90.093 C 361.620 90.093,361.869 90.123,361.869 90.841 C 361.869 91.681,350.229 92.039,349.720 91.215 C 349.294 90.526,348.785 90.832,348.785 91.776 C 348.785 92.523,348.598 92.710,347.850 92.710 C 347.336 92.710,346.916 92.879,346.916 93.084 C 346.916 93.290,347.336 93.458,347.850 93.458 C 348.364 93.458,348.785 93.290,348.785 93.084 C 348.785 92.849,351.215 92.710,355.327 92.710 C 361.620 92.710,361.869 92.739,361.869 93.458 C 361.869 94.180,361.620 94.206,354.650 94.206 C 347.947 94.206,347.373 94.152,346.628 93.458 C 346.187 93.047,345.519 92.710,345.145 92.710 C 344.770 92.710,344.222 93.047,343.925 93.458 C 343.416 94.164,342.957 94.206,335.618 94.206 C 328.100 94.206,327.850 94.182,327.850 93.458 C 327.850 92.617,341.358 92.256,341.869 93.084 C 341.996 93.290,342.427 93.458,342.826 93.458 C 343.225 93.458,343.551 93.290,343.551 93.084 C 343.551 92.879,343.131 92.710,342.617 92.710 C 341.869 92.710,341.682 92.523,341.682 91.776 C 341.682 91.262,341.514 90.841,341.308 90.841 C 341.103 90.841,340.935 91.009,340.935 91.215 C 340.935 91.450,338.505 91.589,334.393 91.589 C 328.100 91.589,327.850 91.560,327.850 90.841 C 327.850 90.121,328.100 90.093,334.635 90.093 L 341.420 90.093 342.729 91.441 M250.748 92.247 C 260.470 92.305,265.794 92.469,265.794 92.710 C 265.794 92.958,244.735 93.084,203.364 93.084 C 162.224 93.084,140.935 92.957,140.935 92.712 C 140.935 92.267,207.117 91.986,250.748 92.247 M139.813 92.649 C 139.813 93.013,115.223 93.457,95.047 93.457 C 86.097 93.458,81.121 93.326,81.121 93.088 C 81.121 92.849,87.942 92.681,100.280 92.617 C 110.818 92.562,124.023 92.476,129.626 92.426 C 135.229 92.377,139.813 92.477,139.813 92.649 M80.000 93.039 C 80.000 93.375,23.171 94.052,21.121 93.741 C 20.505 93.647,24.626 93.521,30.280 93.462 C 47.232 93.284,77.484 92.860,78.785 92.783 C 79.453 92.743,80.000 92.858,80.000 93.039 M311.776 94.077 C 311.776 95.377,311.743 95.413,311.092 94.824 C 310.716 94.484,310.199 94.206,309.944 94.206 C 309.474 94.206,308.411 93.317,308.411 92.924 C 308.411 92.806,309.168 92.710,310.093 92.710 L 311.776 92.710 311.776 94.077 M382.044 93.364 C 382.002 95.689,377.944 96.337,377.944 94.019 L 377.944 92.710 380.000 92.710 C 381.713 92.710,382.054 92.819,382.044 93.364 M19.061 94.299 C 19.058 94.556,18.512 95.116,17.846 95.544 C 17.180 95.971,16.173 96.621,15.607 96.988 L 14.579 97.656 14.579 95.744 L 14.579 93.832 16.822 93.832 C 18.370 93.832,19.064 93.977,19.061 94.299 M139.578 101.402 C 139.341 108.556,138.693 112.247,137.114 115.421 L 136.696 116.262 109.901 116.262 L 83.106 116.262 81.909 111.269 C 80.737 106.377,80.718 106.156,80.973 100.431 L 81.234 94.586 100.150 94.486 C 110.553 94.431,123.734 94.345,129.440 94.296 L 139.815 94.206 139.578 101.402 M265.923 97.850 C 266.417 105.315,266.314 106.476,265.140 106.611 L 264.112 106.729 263.592 111.667 L 263.073 116.605 261.536 116.809 C 253.300 117.901,232.341 118.447,231.486 117.592 C 231.407 117.513,231.006 116.130,230.596 114.518 C 228.294 105.478,225.877 99.686,223.367 97.199 L 220.998 94.851 205.546 95.231 L 190.093 95.610 187.616 97.164 L 185.138 98.718 181.495 107.683 L 177.852 116.648 158.135 116.629 C 147.290 116.619,138.345 116.538,138.256 116.449 C 138.167 116.360,138.641 114.642,139.309 112.630 C 140.342 109.516,140.526 108.416,140.544 105.234 C 140.555 103.178,140.673 99.855,140.806 97.850 L 141.047 94.206 203.364 94.206 L 265.682 94.206 265.923 97.850 M364.622 94.764 C 364.482 95.128,364.700 95.658,365.170 96.096 C 366.000 96.869,367.103 97.070,367.103 96.449 C 367.103 96.243,366.766 96.075,366.355 96.075 C 365.864 96.075,365.607 95.826,365.607 95.349 C 365.607 94.398,364.919 93.989,364.622 94.764 M371.828 94.465 C 371.696 94.596,371.589 95.012,371.589 95.389 C 371.589 95.826,371.317 96.075,370.841 96.075 C 370.430 96.075,370.093 96.243,370.093 96.449 C 370.093 96.654,370.344 96.822,370.650 96.822 C 371.358 96.822,372.710 95.678,372.710 95.079 C 372.710 94.523,372.156 94.137,371.828 94.465 M79.849 100.537 C 79.599 106.222,79.513 106.714,77.985 111.285 L 76.383 116.075 72.368 116.075 L 68.354 116.075 66.222 110.841 C 64.624 106.919,63.478 104.766,61.649 102.252 L 59.209 98.897 56.427 98.006 C 53.655 97.118,53.597 97.116,40.935 97.338 C 25.814 97.603,26.796 97.373,21.709 101.846 L 17.643 105.421 12.186 105.421 C 4.502 105.421,4.551 105.162,13.315 99.439 L 19.899 95.140 35.650 94.947 C 44.314 94.841,57.861 94.715,65.756 94.667 L 80.110 94.579 79.849 100.537 M361.869 96.075 C 361.869 96.811,361.620 96.822,344.860 96.822 C 328.100 96.822,327.850 96.811,327.850 96.075 C 327.850 95.338,328.100 95.327,344.860 95.327 C 361.620 95.327,361.869 95.338,361.869 96.075 M222.934 98.290 C 225.502 100.982,225.753 101.789,223.258 99.332 L 221.470 97.570 209.146 97.580 C 192.608 97.594,190.631 97.798,187.689 99.795 C 186.442 100.643,185.421 101.235,185.421 101.111 C 185.421 100.349,186.488 99.225,188.335 98.044 L 190.455 96.688 199.994 96.445 C 205.240 96.311,212.073 96.174,215.177 96.138 L 220.821 96.075 222.934 98.290 M367.301 97.178 C 367.166 97.396,367.306 97.672,367.613 97.789 C 368.404 98.093,369.907 97.827,369.907 97.383 C 369.907 96.868,367.605 96.686,367.301 97.178 M361.869 98.318 C 361.869 98.562,355.950 98.692,344.860 98.692 C 333.769 98.692,327.850 98.562,327.850 98.318 C 327.850 98.074,333.769 97.944,344.860 97.944 C 355.950 97.944,361.869 98.074,361.869 98.318 M55.904 99.192 C 60.430 100.719,62.114 103.517,68.205 119.626 L 68.700 120.935 74.070 121.121 L 79.439 121.308 75.140 124.208 L 70.841 127.107 67.432 127.105 L 64.023 127.103 63.825 123.271 C 62.343 94.602,19.677 94.310,16.910 122.949 L 16.636 125.794 12.482 125.607 L 8.329 125.421 9.259 123.271 C 9.908 121.770,10.396 121.121,10.877 121.121 C 12.558 121.121,14.579 117.378,14.579 114.265 L 14.579 111.402 12.482 111.402 C 9.986 111.402,6.729 109.160,6.729 107.442 L 6.729 106.542 12.502 106.542 L 18.274 106.542 21.941 103.320 C 27.454 98.475,26.051 98.908,36.992 98.674 C 42.244 98.561,48.065 98.435,49.927 98.393 C 52.629 98.333,53.835 98.494,55.904 99.192 M223.214 100.841 C 225.190 102.944,225.290 103.160,227.833 110.841 C 229.263 115.159,230.451 118.730,230.474 118.778 C 230.743 119.344,243.250 119.532,249.261 119.060 C 253.111 118.757,256.732 118.509,257.307 118.507 L 258.352 118.505 258.241 121.021 L 258.131 123.537 252.336 124.922 C 247.416 126.099,245.470 126.367,239.439 126.702 C 235.533 126.920,231.201 127.193,229.813 127.310 L 227.290 127.522 227.290 124.587 C 227.290 116.307,222.305 108.001,215.046 104.187 C 198.589 95.539,179.305 107.702,180.268 126.124 L 180.447 129.533 175.658 129.533 L 170.870 129.533 169.049 127.739 L 167.228 125.946 130.062 125.991 C 98.226 126.030,92.678 125.958,91.371 125.487 C 90.532 125.185,88.421 124.819,86.679 124.674 C 83.647 124.421,83.435 124.342,81.686 122.826 L 79.860 121.242 128.839 121.420 L 177.818 121.599 178.290 119.771 C 179.041 116.868,179.374 116.094,183.018 108.771 C 188.176 98.406,187.079 98.838,208.448 98.746 L 221.195 98.692 223.214 100.841 M47.842 103.672 C 63.444 109.169,67.992 129.102,56.297 140.734 C 43.926 153.038,23.021 147.209,18.682 130.244 C 14.328 113.219,31.227 97.819,47.842 103.672 M210.841 103.531 C 228.409 109.560,231.670 133.198,216.347 143.446 C 201.767 153.198,182.273 143.453,181.408 125.981 C 180.630 110.243,196.073 98.463,210.841 103.531 M329.065 102.989 C 327.456 104.817,329.138 105.794,333.897 105.794 C 338.575 105.794,340.305 104.738,338.531 102.964 C 337.770 102.203,329.739 102.224,329.065 102.989 M340.654 102.989 C 339.107 104.746,340.744 105.794,345.035 105.794 C 349.153 105.794,350.714 104.680,348.999 102.964 C 348.244 102.209,341.322 102.230,340.654 102.989 M351.121 102.989 C 349.512 104.817,351.194 105.794,355.953 105.794 C 360.631 105.794,362.361 104.738,360.587 102.964 C 359.826 102.203,351.795 102.224,351.121 102.989 M338.318 104.112 L 338.318 105.047 333.832 105.047 L 329.346 105.047 329.346 104.112 L 329.346 103.178 333.832 103.178 L 338.318 103.178 338.318 104.112 M348.785 104.112 L 348.785 105.047 344.860 105.047 L 340.935 105.047 340.935 104.112 L 340.935 103.178 344.860 103.178 L 348.785 103.178 348.785 104.112 M360.374 104.112 L 360.374 105.047 355.888 105.047 L 351.402 105.047 351.402 104.112 L 351.402 103.178 355.888 103.178 L 360.374 103.178 360.374 104.112 M81.860 115.981 C 81.865 116.136,80.869 116.262,79.647 116.262 L 77.425 116.262 78.530 113.178 C 79.138 111.481,79.739 109.841,79.865 109.533 C 80.048 109.088,81.822 114.822,81.860 115.981 M301.308 113.645 C 301.308 116.220,301.425 117.033,301.776 116.916 C 302.100 116.808,302.243 115.805,302.243 113.645 C 302.243 111.485,302.100 110.482,301.776 110.374 C 301.425 110.257,301.308 111.070,301.308 113.645 M36.369 111.175 C 20.698 116.286,24.116 138.879,40.561 138.879 C 58.822 138.879,59.370 111.447,41.121 110.778 C 39.130 110.705,37.356 110.853,36.369 111.175 M46.083 113.026 C 55.976 117.866,55.948 132.120,46.037 136.767 C 37.372 140.829,27.477 134.480,27.477 124.860 C 27.477 115.173,37.475 108.814,46.083 113.026 M13.458 114.612 C 13.458 116.361,13.265 116.968,12.273 118.350 L 11.088 120.000 6.666 120.000 L 2.243 120.000 2.243 116.262 L 2.243 112.523 7.850 112.523 L 13.458 112.523 13.458 114.612 M37.383 113.598 C 24.895 117.708,26.798 135.534,39.813 136.357 C 52.369 137.151,56.784 119.893,45.431 114.398 C 43.497 113.461,39.120 113.027,37.383 113.598 M199.813 113.908 C 195.229 115.466,191.836 120.768,192.240 125.742 C 193.432 140.422,215.140 139.586,215.140 124.860 C 215.140 116.756,207.498 111.295,199.813 113.908 M44.204 115.137 C 49.677 117.184,52.423 123.878,49.960 129.167 C 45.200 139.388,30.112 136.114,30.112 124.860 C 30.112 117.374,37.169 112.505,44.204 115.137 M207.180 114.974 C 214.299 117.399,216.493 126.583,211.267 132.088 C 205.962 137.677,196.338 135.596,193.860 128.324 C 191.058 120.101,198.966 112.175,207.180 114.974 M75.888 117.540 C 75.888 119.125,69.597 119.649,68.785 118.131 C 68.397 117.406,68.501 117.383,72.136 117.383 C 74.200 117.383,75.888 117.454,75.888 117.540 M82.243 117.540 C 82.243 117.626,82.345 117.962,82.470 118.287 C 82.665 118.796,82.276 118.879,79.666 118.879 C 77.999 118.879,76.636 118.808,76.636 118.722 C 76.636 117.646,77.230 117.383,79.666 117.383 C 81.083 117.383,82.243 117.454,82.243 117.540 M123.351 117.756 C 135.200 117.757,135.827 117.791,135.216 118.402 C 134.615 119.003,132.829 119.039,109.248 118.926 C 84.018 118.804,83.390 118.772,83.370 117.603 C 83.367 117.399,88.893 117.361,97.103 117.509 C 104.659 117.645,116.471 117.756,123.351 117.756 M177.499 118.411 C 177.381 119.023,136.449 119.709,136.449 119.099 C 136.449 117.738,136.150 117.757,157.264 117.757 C 176.454 117.757,177.618 117.795,177.499 118.411 M37.473 118.920 C 33.394 120.939,32.586 126.132,35.844 129.390 C 39.262 132.808,44.868 131.725,46.550 127.322 C 48.765 121.520,43.000 116.184,37.473 118.920 M201.591 118.529 C 199.878 119.051,197.864 121.206,197.368 123.048 C 195.438 130.216,205.106 134.789,209.179 128.634 C 212.687 123.334,207.686 116.673,201.591 118.529 M304.137 118.492 C 304.336 118.691,306.514 118.901,308.978 118.959 L 313.458 119.065 313.556 132.243 L 313.654 145.421 308.416 145.421 L 303.178 145.421 303.178 131.776 C 303.178 124.271,303.312 118.131,303.477 118.131 C 303.641 118.131,303.938 118.293,304.137 118.492 M385.706 132.243 L 385.804 145.421 380.566 145.421 L 375.327 145.421 375.327 132.139 L 375.327 118.857 380.467 118.961 L 385.607 119.065 385.706 132.243 M42.964 119.907 C 44.698 120.791,45.652 122.198,45.878 124.203 C 46.604 130.646,37.653 132.684,35.331 126.604 C 33.577 122.012,38.544 117.653,42.964 119.907 M75.140 119.626 C 75.140 119.842,73.964 120.000,72.359 120.000 C 70.829 120.000,69.473 119.832,69.346 119.626 C 69.199 119.389,70.214 119.252,72.127 119.252 C 73.887 119.252,75.140 119.408,75.140 119.626 M82.804 119.626 C 82.951 119.865,81.803 120.000,79.626 120.000 C 77.449 120.000,76.301 119.865,76.449 119.626 C 76.576 119.421,78.006 119.252,79.626 119.252 C 81.247 119.252,82.677 119.421,82.804 119.626 M129.239 119.498 C 132.161 119.632,134.464 119.885,134.355 120.060 C 134.122 120.439,88.056 120.019,85.607 119.617 C 83.507 119.271,121.997 119.167,129.239 119.498 M205.730 119.762 C 209.393 121.293,210.375 125.972,207.613 128.734 C 202.801 133.546,195.151 126.659,199.529 121.457 C 201.247 119.416,203.456 118.812,205.730 119.762 M177.009 120.000 C 176.860 120.242,169.529 120.374,156.240 120.374 C 142.796 120.374,135.701 120.245,135.701 120.000 C 135.701 119.755,142.873 119.626,156.471 119.626 C 170.222 119.626,177.162 119.752,177.009 120.000 M38.646 120.893 C 36.395 121.907,35.564 124.669,36.794 127.049 C 37.800 128.992,41.279 129.651,43.077 128.237 C 47.048 125.113,43.251 118.819,38.646 120.893 M201.566 121.131 C 197.744 123.461,199.342 128.972,203.839 128.972 C 206.982 128.972,208.919 126.124,207.723 123.261 C 207.089 121.745,205.199 120.377,203.738 120.377 C 203.224 120.377,202.247 120.716,201.566 121.131 M316.262 126.522 C 316.262 127.252,316.093 127.850,315.888 127.850 C 315.682 127.850,315.514 128.187,315.514 128.598 C 315.514 129.009,315.682 129.346,315.888 129.346 C 316.093 129.346,316.262 129.119,316.262 128.842 C 316.262 127.777,317.452 125.981,318.158 125.981 C 318.763 125.981,318.879 126.252,318.879 127.664 C 318.879 129.125,318.982 129.346,319.666 129.346 C 320.099 129.346,320.793 129.778,321.209 130.307 C 321.747 130.991,322.081 131.153,322.366 130.868 C 322.590 130.644,324.215 130.467,326.056 130.467 L 329.346 130.467 329.346 128.224 C 329.346 126.480,329.470 125.981,329.907 125.981 C 330.215 125.981,330.467 126.284,330.467 126.655 C 330.467 127.683,333.581 130.467,334.731 130.467 C 335.452 130.467,335.701 130.659,335.701 131.215 C 335.701 131.800,335.950 131.963,336.849 131.963 C 338.026 131.963,339.378 131.014,338.872 130.543 C 338.716 130.399,338.514 130.491,338.422 130.748 C 338.150 131.510,336.965 131.282,336.021 130.287 C 335.536 129.776,334.720 129.356,334.206 129.352 C 333.087 129.344,331.215 127.834,331.215 126.939 C 331.215 126.316,330.384 125.234,329.907 125.234 C 329.225 125.234,328.598 126.474,328.598 127.824 L 328.598 129.346 325.607 129.346 C 323.198 129.346,322.617 129.455,322.617 129.907 C 322.617 131.863,319.909 128.811,319.852 126.791 C 319.813 125.428,319.804 125.420,318.037 125.307 L 316.262 125.193 316.262 126.522 M342.804 126.916 C 342.804 127.497,342.592 127.850,342.243 127.850 C 341.935 127.850,341.682 128.019,341.682 128.224 C 341.682 128.430,341.423 128.598,341.106 128.598 C 340.281 128.598,338.907 129.952,339.414 130.265 C 339.636 130.402,339.919 130.252,340.043 129.930 C 340.166 129.609,340.512 129.346,340.813 129.346 C 341.113 129.346,341.978 128.758,342.735 128.041 L 344.112 126.735 351.308 126.732 C 355.855 126.730,358.505 126.591,358.505 126.355 C 358.505 126.118,355.639 125.981,350.654 125.981 L 342.804 125.981 342.804 126.916 " stroke="none" fill="#000000" fill-rule="evenodd"></path></g></svg>