<svg id="svg" xmlns="http://www.w3.org/2000/svg" xmlns:xlink="http://www.w3.org/1999/xlink" width="400" height="161.79775280898875" viewBox="0, 0, 400,161.79775280898875"><g id="svgg"><path id="path0" d="M44.831 29.002 C 30.912 29.727,27.355 30.509,24.286 33.522 C 23.088 34.699,23.078 34.720,23.668 34.790 C 24.248 34.859,24.269 34.910,24.265 36.251 C 24.256 38.638,23.371 59.385,23.233 60.449 L 23.101 61.461 20.936 61.388 C 19.744 61.348,18.642 61.209,18.486 61.079 C 18.006 60.681,18.161 60.225,18.775 60.225 C 21.017 60.225,22.483 56.154,21.587 52.419 C 20.797 49.125,15.487 49.089,14.603 52.372 C 13.564 56.230,14.671 60.000,16.843 60.000 C 17.161 60.000,17.303 60.146,17.303 60.471 C 17.303 61.805,18.047 62.227,20.515 62.296 L 22.809 62.360 22.979 65.056 C 23.134 67.508,23.107 67.852,22.684 68.840 C 22.243 69.867,22.237 69.982,22.570 70.958 C 22.763 71.526,22.921 72.276,22.921 72.624 L 22.921 73.258 18.528 73.258 C 13.299 73.258,13.765 73.090,9.914 76.363 C 6.424 79.330,6.458 79.255,5.981 84.854 C 5.540 90.027,5.830 91.461,7.315 91.461 C 8.716 91.461,8.795 91.605,8.052 92.800 C 7.057 94.402,6.978 95.054,6.972 101.697 C 6.968 106.152,6.894 107.848,6.694 108.048 C 6.234 108.508,6.134 116.854,6.589 116.854 C 6.899 116.854,6.948 117.765,7.009 124.663 C 7.086 133.243,7.085 133.238,8.600 134.869 C 9.991 136.366,10.655 136.517,15.843 136.517 L 20.562 136.517 21.798 135.822 C 24.485 134.310,24.713 133.413,24.717 124.326 L 24.719 117.528 26.032 117.528 C 26.754 117.528,28.726 117.594,30.414 117.675 L 33.483 117.822 33.483 120.821 C 33.483 123.633,33.515 123.852,33.989 124.322 C 34.267 124.597,34.598 125.027,34.726 125.277 C 34.937 125.690,35.176 125.730,37.416 125.730 C 39.656 125.730,39.895 125.690,40.106 125.277 C 40.233 125.027,40.565 124.597,40.843 124.322 C 41.315 123.853,41.348 123.630,41.348 120.899 L 41.348 117.978 61.011 117.978 L 80.674 117.978 80.674 120.899 C 80.674 123.630,80.707 123.853,81.180 124.322 C 81.458 124.597,81.790 125.027,81.917 125.277 C 82.128 125.690,82.367 125.730,84.607 125.730 C 86.847 125.730,87.086 125.690,87.297 125.277 C 87.424 125.027,87.756 124.597,88.034 124.322 C 88.508 123.851,88.539 123.634,88.539 120.787 L 88.539 117.753 90.056 117.752 C 90.890 117.751,92.711 117.685,94.101 117.605 L 96.629 117.459 96.632 124.292 C 96.635 133.417,96.861 134.309,99.551 135.822 L 100.787 136.517 105.393 136.517 L 110.000 136.517 111.236 135.822 C 113.943 134.300,114.152 133.453,114.155 123.989 L 114.157 116.854 114.719 116.854 L 115.281 116.854 115.281 111.926 L 115.281 106.998 114.775 106.926 L 114.270 106.854 114.157 100.674 C 114.036 93.993,114.045 94.042,112.659 92.191 C 112.148 91.509,112.141 91.461,112.545 91.461 C 112.852 91.461,113.122 91.127,113.468 90.322 L 113.958 89.183 113.573 84.760 C 113.091 79.232,113.143 79.344,109.610 76.341 C 105.807 73.109,106.223 73.262,101.191 73.241 C 98.867 73.231,97.093 73.172,97.247 73.110 C 97.721 72.918,97.597 70.551,97.079 69.888 C 96.600 69.276,96.396 65.169,96.844 65.169 C 96.963 65.169,97.089 64.385,97.125 63.427 L 97.191 61.685 99.486 61.461 C 101.939 61.220,102.449 60.942,102.465 59.831 C 102.470 59.459,102.605 59.326,102.978 59.325 C 106.150 59.320,106.810 51.076,103.757 49.585 C 101.493 48.479,98.627 49.637,98.305 51.786 C 97.688 55.896,98.708 58.957,100.850 59.427 C 101.248 59.515,101.571 59.654,101.570 59.737 C 101.558 60.231,100.993 60.416,98.948 60.595 L 96.661 60.795 96.535 58.993 C 96.466 58.002,96.307 52.944,96.180 47.753 C 96.054 42.562,95.903 37.733,95.844 37.022 L 95.737 35.730 96.569 35.730 L 97.402 35.730 96.060 34.368 C 93.092 31.353,89.548 30.510,74.777 29.306 C 69.654 28.889,50.700 28.696,44.831 29.002 M236.404 29.413 C 232.696 29.755,232.360 29.825,230.506 30.654 C 228.066 31.743,227.805 32.584,229.906 32.584 C 230.773 32.584,231.188 31.150,225.603 47.443 C 222.769 55.710,220.685 62.127,220.740 62.416 C 220.858 63.036,221.359 63.052,215.302 62.245 C 205.424 60.929,180.447 60.705,163.079 61.776 C 153.108 62.391,153.771 62.127,151.925 66.219 L 150.558 69.251 151.009 69.885 C 151.957 71.216,151.672 71.685,149.917 71.685 L 148.373 71.685 148.235 73.427 C 148.160 74.385,148.033 76.240,147.953 77.550 L 147.808 79.932 148.539 80.079 C 148.941 80.159,149.519 80.225,149.824 80.225 C 150.362 80.225,150.375 80.261,150.234 81.404 C 149.951 83.703,149.982 83.651,148.281 84.608 L 146.686 85.506 149.035 86.629 L 151.384 87.753 150.730 90.225 C 150.307 91.823,149.898 92.879,149.573 93.212 L 149.071 93.728 148.638 92.926 L 148.206 92.123 144.948 92.185 L 141.690 92.247 141.271 93.415 L 140.851 94.582 137.953 94.651 L 135.055 94.719 135.056 93.681 L 135.056 92.642 132.329 92.479 L 129.602 92.316 128.979 92.956 L 128.356 93.596 128.146 98.315 L 127.936 103.034 128.631 103.750 C 129.311 104.451,129.380 104.469,131.966 104.623 L 134.607 104.780 134.607 103.514 C 134.607 102.817,134.683 102.247,134.775 102.247 C 134.868 102.247,134.914 104.289,134.878 106.785 C 134.799 112.267,134.850 112.456,136.482 112.800 C 143.257 114.227,143.146 114.193,143.146 114.874 C 143.146 115.221,143.272 115.513,143.427 115.522 C 143.581 115.532,144.862 115.709,146.272 115.916 L 148.836 116.293 149.420 118.542 C 151.783 127.633,159.377 134.708,168.476 136.294 C 183.280 138.876,196.757 127.797,196.934 112.901 L 196.966 110.183 197.701 110.490 C 199.140 111.090,202.472 109.373,202.472 108.032 C 202.472 107.524,202.556 107.409,202.865 107.496 C 203.081 107.556,204.247 107.778,205.456 107.988 C 207.072 108.269,207.733 108.484,207.955 108.800 C 208.970 110.249,208.835 110.239,246.966 111.546 L 281.685 112.735 284.718 111.966 C 286.938 111.403,287.849 111.258,288.119 111.427 C 288.322 111.553,288.694 111.603,288.947 111.537 C 289.288 111.447,290.180 112.019,292.390 113.742 L 295.372 116.067 301.543 117.652 L 307.715 119.236 308.525 121.247 C 317.150 142.660,347.991 141.183,354.257 119.057 C 360.944 95.441,331.963 78.096,314.242 95.109 C 309.416 99.742,305.992 108.253,306.834 113.521 C 306.965 114.339,306.942 114.385,306.464 114.277 C 306.184 114.213,304.287 113.856,302.247 113.484 C 298.296 112.763,292.239 110.337,293.136 109.835 C 294.602 109.015,301.919 106.292,302.658 106.292 C 303.765 106.292,303.552 106.589,306.392 101.080 L 308.789 96.430 312.042 93.440 C 320.547 85.620,331.819 83.836,344.157 88.358 C 350.311 90.613,352.523 92.954,358.097 103.107 L 359.618 105.876 362.000 105.749 C 363.310 105.679,367.492 105.559,371.292 105.482 L 378.202 105.342 378.202 89.173 L 378.202 73.004 378.765 72.265 L 379.329 71.527 360.507 71.382 C 350.155 71.302,331.952 71.171,320.055 71.090 L 298.425 70.945 294.325 66.132 L 290.225 61.319 289.382 61.425 L 288.539 61.530 288.539 46.945 L 288.539 32.360 286.890 32.360 L 285.240 32.360 285.090 67.921 C 285.007 87.480,284.876 104.166,284.798 105.000 L 284.658 106.517 286.655 106.524 L 288.652 106.532 287.605 106.993 C 287.030 107.247,286.515 107.624,286.461 107.832 C 286.386 108.118,285.747 108.323,283.799 108.686 C 281.081 109.193,281.724 109.191,266.517 108.742 C 265.410 108.709,265.008 108.649,265.562 108.600 C 266.450 108.520,266.517 108.467,266.517 107.852 L 266.517 107.191 273.353 107.191 L 280.190 107.191 281.201 106.035 C 282.180 104.916,282.216 104.822,282.343 103.058 C 282.474 101.223,284.051 59.042,284.047 57.472 C 284.046 56.872,284.142 56.629,284.382 56.629 C 284.641 56.629,284.719 56.342,284.719 55.393 C 284.719 54.468,284.638 54.157,284.396 54.157 C 283.994 54.157,283.965 53.943,283.247 45.749 C 282.823 40.915,282.744 39.211,282.936 39.092 C 283.239 38.905,283.003 37.079,282.677 37.079 C 282.564 37.079,282.472 36.826,282.472 36.517 C 282.472 36.208,282.572 35.955,282.695 35.955 C 282.818 35.955,282.495 35.102,281.978 34.059 L 281.038 32.164 279.474 31.473 C 277.204 30.471,247.830 28.604,240.853 29.019 C 240.569 29.036,238.567 29.213,236.404 29.413 M73.371 30.092 C 82.362 30.825,88.755 31.644,91.070 32.359 C 92.421 32.776,95.454 34.508,95.229 34.734 C 95.101 34.862,33.347 34.195,28.585 34.015 L 25.147 33.884 25.888 33.329 C 28.616 31.285,31.476 30.704,41.685 30.119 C 44.034 29.985,46.562 29.840,47.303 29.797 C 50.145 29.634,70.590 29.865,73.371 30.092 M252.531 30.234 C 267.425 30.695,277.143 31.434,279.022 32.249 C 280.255 32.783,281.714 34.541,281.283 34.971 C 281.236 35.019,269.842 34.299,255.962 33.371 C 242.083 32.444,230.665 31.683,230.588 31.680 C 230.512 31.678,230.904 31.461,231.461 31.198 C 232.338 30.784,237.207 30.119,240.845 29.916 C 241.125 29.900,246.383 30.043,252.531 30.234 M234.566 32.930 C 234.606 32.963,234.328 33.173,233.950 33.396 C 233.572 33.620,233.164 34.110,233.044 34.486 C 232.924 34.861,231.252 40.718,229.329 47.501 L 225.833 59.834 224.954 75.558 L 224.074 91.283 224.505 92.664 C 225.604 96.184,228.396 98.407,232.136 98.738 C 234.310 98.930,260.131 99.775,263.851 99.775 C 268.366 99.775,270.392 98.542,272.345 94.607 L 273.181 92.921 273.912 77.079 L 274.643 61.236 274.075 59.382 L 273.507 57.528 273.878 46.946 L 274.249 36.363 273.697 35.918 L 273.146 35.472 275.730 35.607 C 281.188 35.892,281.573 35.953,281.573 36.548 C 281.573 37.006,281.464 37.079,280.777 37.079 C 278.515 37.079,277.831 38.642,277.387 44.831 C 276.948 50.950,277.064 52.424,278.151 54.529 L 278.981 56.137 281.063 56.423 L 283.146 56.709 283.137 58.074 C 283.132 58.824,282.742 69.583,282.269 81.982 L 281.409 104.525 280.547 105.409 L 279.684 106.292 272.992 106.292 L 266.301 106.292 265.454 105.141 L 264.607 103.991 255.393 104.129 C 250.326 104.205,239.303 104.328,230.899 104.402 L 215.618 104.536 213.483 101.335 C 212.309 99.574,210.867 97.551,210.279 96.840 C 209.331 95.695,208.090 91.808,208.090 89.987 C 208.090 89.951,206.598 89.107,204.775 88.111 C 202.379 86.802,201.252 86.046,200.707 85.385 L 199.954 84.470 200.364 79.059 L 200.773 73.648 205.162 73.796 C 207.576 73.878,210.217 74.004,211.031 74.076 L 212.512 74.208 212.656 70.373 C 212.813 66.222,212.641 64.666,211.892 63.454 C 211.513 62.841,211.488 62.697,211.760 62.697 C 212.132 62.697,219.892 63.733,221.100 63.944 L 221.863 64.078 221.719 63.025 C 221.595 62.120,228.222 41.803,231.477 33.110 C 231.638 32.680,234.096 32.536,234.566 32.930 M287.640 52.022 L 287.640 70.787 286.854 70.787 L 286.067 70.787 286.067 52.022 L 286.067 33.258 286.854 33.258 L 287.640 33.258 287.640 52.022 M254.944 34.964 C 268.106 35.752,272.368 36.076,272.753 36.320 C 273.379 36.716,273.380 36.814,272.922 48.873 L 272.589 57.633 273.174 59.547 L 273.758 61.461 273.045 76.966 L 272.332 92.472 271.545 94.133 C 269.781 97.858,268.109 98.876,263.752 98.876 C 258.926 98.876,233.422 97.988,231.607 97.757 C 228.148 97.316,224.625 93.418,224.984 90.429 L 225.056 89.832 227.801 89.871 C 231.950 89.931,233.258 89.332,233.258 87.375 C 233.258 85.640,231.979 85.021,227.921 84.793 C 225.413 84.651,225.393 84.646,225.393 84.089 C 225.393 83.260,226.043 71.603,226.191 69.775 L 226.319 68.202 228.721 68.275 C 233.052 68.405,234.382 67.853,234.382 65.925 C 234.382 64.034,233.237 63.455,229.026 63.218 L 226.478 63.075 226.627 61.481 C 226.721 60.478,228.109 55.182,230.378 47.173 C 234.463 32.750,234.078 33.602,236.404 33.815 C 237.084 33.878,245.427 34.395,254.944 34.964 M33.888 35.267 L 29.912 35.393 29.142 36.140 C 28.088 37.162,27.729 39.035,27.396 45.254 C 27.005 52.555,27.277 53.749,29.551 54.725 C 30.217 55.011,30.224 55.032,30.148 56.526 L 30.071 58.038 28.457 56.435 C 26.913 54.901,26.798 54.831,25.781 54.831 L 24.719 54.831 24.719 57.416 C 24.719 59.087,24.635 60.000,24.481 60.000 C 24.319 60.000,24.286 59.155,24.377 57.360 C 24.563 53.721,25.169 37.482,25.169 36.145 L 25.169 35.056 31.517 35.098 C 37.492 35.138,37.632 35.147,33.888 35.267 M237.452 35.714 C 235.579 36.098,235.374 36.514,232.368 46.037 C 229.796 54.184,229.654 54.729,229.794 55.962 C 229.963 57.454,231.348 59.699,232.209 59.876 C 234.386 60.326,259.871 61.563,267.079 61.569 C 269.417 61.571,269.800 60.120,270.134 50.000 C 270.406 41.720,270.353 38.651,269.927 38.138 C 269.393 37.494,267.598 37.305,254.607 36.523 C 247.376 36.088,240.753 35.688,239.888 35.634 C 239.022 35.580,237.926 35.616,237.452 35.714 M94.922 36.685 C 94.987 37.211,95.096 40.270,95.164 43.483 C 95.233 46.697,95.351 50.565,95.428 52.079 L 95.566 54.831 94.764 54.831 C 93.456 54.831,90.015 58.192,90.194 59.295 L 90.321 60.073 78.138 59.868 C 63.813 59.627,50.704 59.618,45.899 59.847 L 42.472 60.010 42.472 57.758 L 42.472 55.506 43.961 55.506 C 45.293 55.506,45.887 55.682,49.579 57.176 C 51.850 58.094,53.723 58.752,53.742 58.636 C 53.760 58.521,53.785 58.318,53.798 58.185 C 53.810 58.053,52.506 57.391,50.899 56.714 L 47.978 55.485 61.531 55.611 L 75.085 55.737 78.369 57.086 C 81.540 58.389,82.002 58.468,82.019 57.717 C 82.021 57.636,81.040 57.181,79.840 56.706 L 77.657 55.843 84.503 55.726 C 92.610 55.587,92.433 55.638,93.577 53.146 L 94.093 52.022 93.605 45.281 C 93.030 37.332,92.828 36.660,90.787 35.892 C 90.601 35.823,91.429 35.758,92.627 35.748 L 94.804 35.730 94.922 36.685 M76.629 36.377 C 93.764 36.556,92.025 35.741,92.614 43.874 C 93.186 51.765,93.174 52.276,92.386 53.518 C 91.535 54.859,91.724 54.834,82.725 54.820 L 75.169 54.808 73.596 54.157 L 72.022 53.507 75.337 53.495 C 78.498 53.484,78.652 53.462,78.652 53.034 C 78.652 52.591,78.502 52.584,69.101 52.584 C 59.700 52.584,59.551 52.591,59.551 53.034 C 59.551 53.470,59.700 53.483,64.557 53.483 L 69.564 53.483 71.118 54.139 L 72.672 54.795 59.089 54.671 C 48.740 54.577,45.345 54.479,44.831 54.259 C 44.238 54.004,44.539 53.967,47.360 53.951 C 50.406 53.933,50.562 53.911,50.562 53.483 C 50.562 53.041,50.412 53.034,41.011 53.034 C 31.693 53.034,31.461 53.044,31.461 53.472 C 31.461 53.892,31.680 53.913,36.843 53.977 C 40.434 54.022,42.309 54.129,42.477 54.297 C 42.663 54.483,41.240 54.524,37.038 54.456 C 27.708 54.304,27.810 54.411,28.296 45.328 C 28.635 39.004,28.836 37.871,29.791 36.910 L 30.517 36.180 46.888 36.209 C 55.892 36.225,69.275 36.300,76.629 36.377 M243.356 36.777 C 243.456 36.864,243.022 51.749,242.770 56.910 L 242.629 59.775 241.820 59.780 C 241.375 59.782,239.052 59.612,236.657 59.400 L 232.302 59.016 231.560 57.994 C 230.540 56.588,230.361 55.001,231.012 53.146 C 231.273 52.404,232.494 48.612,233.727 44.719 C 236.097 37.236,236.264 36.894,237.679 36.625 C 238.492 36.471,243.147 36.595,243.356 36.777 M256.517 37.530 C 268.541 38.268,269.128 38.348,269.363 39.278 C 269.448 39.613,269.398 43.882,269.254 48.764 C 268.989 57.685,268.842 59.088,268.057 60.189 L 267.687 60.707 255.863 60.309 C 249.360 60.090,243.938 59.848,243.814 59.771 C 243.664 59.679,243.717 55.823,243.974 48.243 L 244.360 36.854 244.933 36.854 C 245.248 36.854,250.461 37.158,256.517 37.530 M279.827 38.739 C 279.022 39.657,278.954 40.193,278.743 47.345 C 278.536 54.358,278.674 54.646,282.416 54.989 C 283.462 55.085,283.820 55.204,283.820 55.457 C 283.820 55.799,281.414 55.742,280.058 55.368 C 278.321 54.889,277.779 51.671,278.284 44.831 C 278.632 40.113,278.902 38.974,279.822 38.330 C 280.568 37.807,280.569 37.894,279.827 38.739 M281.660 39.061 C 281.723 39.162,282.031 42.171,282.345 45.746 C 282.659 49.322,282.974 52.677,283.045 53.202 C 283.191 54.286,282.839 54.413,281.057 53.918 C 279.514 53.489,279.450 53.119,279.705 46.084 C 279.920 40.158,279.940 39.981,280.451 39.436 C 280.984 38.870,281.452 38.724,281.660 39.061 M103.662 50.566 C 105.549 52.051,104.938 58.427,102.909 58.427 C 102.344 58.427,102.350 57.957,102.921 57.468 C 104.036 56.514,103.410 52.809,102.135 52.809 C 100.949 52.809,100.245 56.393,101.236 57.384 C 101.848 57.996,101.673 58.724,100.955 58.554 C 98.464 57.964,98.284 50.584,100.754 50.273 C 102.460 50.059,103.099 50.123,103.662 50.566 M20.209 51.444 C 21.407 52.643,20.940 58.358,19.584 59.083 C 18.410 59.711,17.680 58.974,18.652 58.142 C 19.832 57.131,19.128 53.483,17.753 53.483 C 16.378 53.483,15.674 57.131,16.854 58.142 C 17.501 58.696,17.430 59.146,16.708 59.060 C 15.015 58.858,14.493 53.483,15.983 51.589 C 16.590 50.817,19.482 50.718,20.209 51.444 M102.472 54.494 C 102.472 55.044,102.370 55.281,102.135 55.281 C 101.899 55.281,101.798 55.044,101.798 54.494 C 101.798 53.945,101.899 53.708,102.135 53.708 C 102.370 53.708,102.472 53.945,102.472 54.494 M18.202 55.169 C 18.202 55.703,18.099 55.955,17.879 55.955 C 17.670 55.955,17.524 56.255,17.467 56.798 C 17.418 57.265,17.362 56.914,17.341 56.011 C 17.307 54.519,17.341 54.382,17.753 54.382 C 18.117 54.382,18.202 54.532,18.202 55.169 M41.469 59.954 C 41.249 60.174,41.235 59.907,41.348 57.640 L 41.459 55.393 41.525 57.613 C 41.561 58.834,41.536 59.888,41.469 59.954 M28.140 57.241 C 29.292 58.384,29.663 58.904,29.663 59.376 L 29.663 60.000 27.640 60.000 L 25.618 60.000 25.618 57.865 C 25.618 55.116,25.923 55.041,28.140 57.241 M40.449 57.528 L 40.449 59.326 36.180 59.326 L 31.910 59.326 31.910 57.528 L 31.910 55.730 36.180 55.730 L 40.449 55.730 40.449 57.528 M95.281 57.865 L 95.281 60.000 93.263 60.000 C 90.370 60.000,90.253 59.511,92.613 57.302 C 95.001 55.068,95.281 55.127,95.281 57.865 M77.967 61.896 C 82.111 63.048,82.362 63.149,83.025 63.939 C 83.967 65.061,86.207 65.553,88.099 65.054 C 89.208 64.761,89.445 64.775,91.188 65.234 L 93.077 65.730 94.853 68.249 C 96.979 71.262,97.188 72.133,95.787 72.137 C 95.323 72.138,91.708 72.293,87.753 72.482 C 78.025 72.947,78.147 72.964,76.310 70.911 L 74.859 69.289 68.691 69.007 C 53.211 68.298,45.942 68.970,43.999 71.290 L 43.104 72.360 34.401 72.360 C 24.360 72.360,23.857 72.290,23.414 70.848 C 22.460 67.739,26.641 65.079,32.903 64.811 L 36.067 64.676 36.742 63.920 C 37.322 63.269,37.934 62.997,41.124 61.975 C 45.679 60.515,46.556 60.459,62.814 60.594 L 73.606 60.683 77.967 61.896 M24.719 62.921 C 24.719 64.929,24.723 64.944,25.281 64.944 C 26.032 64.944,25.968 65.140,24.925 66.037 L 24.045 66.794 24.045 63.846 C 24.045 61.376,24.100 60.899,24.382 60.899 C 24.657 60.899,24.719 61.273,24.719 62.921 M29.663 61.323 C 29.663 61.861,26.650 64.328,26.117 64.226 C 25.801 64.166,25.718 63.854,25.664 62.526 L 25.598 60.899 27.631 60.899 C 29.473 60.899,29.663 60.939,29.663 61.323 M39.119 61.685 C 37.303 62.272,36.661 62.589,36.264 63.096 C 35.757 63.744,35.722 63.752,32.764 63.902 C 31.120 63.985,29.295 64.198,28.708 64.375 C 27.345 64.787,27.356 64.760,29.101 63.371 C 30.299 62.418,30.562 62.091,30.562 61.554 L 30.562 60.899 36.011 60.913 L 41.461 60.928 39.119 61.685 M90.166 61.534 C 90.083 62.100,90.258 62.311,91.778 63.475 C 92.716 64.194,93.483 64.807,93.483 64.839 C 93.483 64.870,92.544 64.657,91.396 64.366 C 89.467 63.876,89.219 63.860,88.127 64.148 C 86.216 64.652,84.334 64.243,83.568 63.156 C 83.023 62.385,82.793 62.272,80.590 61.688 C 79.277 61.340,78.202 61.020,78.202 60.977 C 78.202 60.934,80.915 60.899,84.231 60.899 L 90.259 60.899 90.166 61.534 M95.281 62.457 C 95.281 64.651,94.906 64.733,92.682 63.030 C 91.763 62.326,91.011 61.719,91.011 61.680 C 91.011 61.022,91.370 60.899,93.282 60.899 L 95.281 60.899 95.281 62.457 M202.687 62.255 C 210.697 62.512,210.357 62.423,211.315 64.494 C 211.717 65.362,211.982 72.895,211.620 73.162 C 211.348 73.362,152.312 69.903,152.032 69.671 C 151.304 69.067,153.475 64.122,154.730 63.523 C 156.361 62.746,184.199 61.637,193.820 61.966 C 194.809 62.000,198.799 62.130,202.687 62.255 M293.381 66.423 C 297.667 71.414,297.514 71.121,295.728 70.934 C 294.951 70.853,293.016 70.787,291.428 70.787 L 288.539 70.787 288.539 66.648 C 288.539 60.843,288.588 60.840,293.381 66.423 M191.166 63.741 C 190.918 63.988,190.988 65.802,191.251 65.964 C 191.623 66.194,191.728 65.959,191.764 64.809 C 191.795 63.826,191.538 63.368,191.166 63.741 M192.285 63.745 C 192.041 63.989,192.114 65.803,192.375 65.964 C 192.813 66.235,192.952 65.597,192.829 63.876 C 192.807 63.572,192.525 63.505,192.285 63.745 M193.412 63.742 C 193.181 63.973,193.228 66.022,193.468 66.170 C 193.789 66.369,194.002 65.864,194.002 64.899 C 194.002 64.029,193.706 63.448,193.412 63.742 M194.511 63.862 C 194.071 65.265,194.338 66.570,194.959 66.054 C 195.197 65.858,195.360 65.853,195.582 66.038 C 196.027 66.407,196.180 66.120,196.180 64.920 C 196.180 63.298,195.581 63.071,195.383 64.617 C 195.231 65.801,195.056 65.883,195.056 64.770 C 195.056 63.870,194.696 63.271,194.511 63.862 M196.498 64.402 C 196.331 65.294,196.610 66.441,196.972 66.348 C 197.092 66.317,197.191 65.719,197.191 65.019 C 197.191 63.520,196.739 63.118,196.498 64.402 M197.893 63.941 C 197.683 64.488,197.731 65.909,197.972 66.290 C 198.355 66.896,198.681 66.201,198.608 64.937 C 198.540 63.757,198.164 63.234,197.893 63.941 M199.256 63.741 C 199.035 63.961,199.071 66.121,199.301 66.485 C 199.614 66.978,199.824 66.404,199.847 64.996 C 199.866 63.839,199.639 63.357,199.256 63.741 M200.572 63.880 C 200.158 65.223,200.485 67.230,201.029 66.686 C 201.332 66.383,201.261 63.835,200.947 63.714 C 200.787 63.653,200.619 63.728,200.572 63.880 M232.552 64.656 C 233.573 65.155,233.789 66.170,233.022 66.865 C 232.477 67.359,226.908 67.672,226.470 67.234 C 226.338 67.102,226.316 66.412,226.414 65.497 L 226.576 63.979 229.155 64.118 C 230.939 64.213,231.986 64.379,232.552 64.656 M290.120 66.910 L 290.112 69.438 292.380 69.438 L 294.649 69.438 293.732 68.371 C 293.228 67.784,292.211 66.646,291.471 65.843 L 290.127 64.382 290.120 66.910 M95.730 66.470 L 95.730 67.940 94.879 66.723 C 94.410 66.053,93.966 65.404,93.891 65.281 C 93.809 65.146,94.149 65.045,94.742 65.028 L 95.730 65.000 95.730 66.470 M291.883 67.640 L 292.605 68.539 291.808 68.539 C 291.028 68.539,291.011 68.520,291.011 67.640 C 291.011 67.146,291.045 66.742,291.086 66.742 C 291.127 66.742,291.486 67.146,291.883 67.640 M68.989 69.912 L 74.270 70.162 75.165 71.036 L 76.061 71.910 60.355 71.910 C 44.817 71.910,44.654 71.905,45.045 71.473 C 46.484 69.883,55.692 69.282,68.989 69.912 M175.843 72.136 C 187.337 72.747,197.450 73.307,198.316 73.379 L 199.890 73.511 199.512 78.160 C 199.305 80.717,199.127 82.937,199.118 83.093 C 199.109 83.250,198.823 83.088,198.483 82.733 C 194.521 78.598,193.332 78.143,185.169 77.632 C 182.264 77.450,176.543 77.063,172.455 76.773 C 162.928 76.096,162.288 76.161,159.391 78.090 C 157.561 79.308,151.378 82.921,151.123 82.921 C 150.969 82.921,150.983 81.997,151.149 81.163 C 151.283 80.494,151.336 80.467,152.784 80.324 L 154.281 80.177 154.644 78.948 C 155.168 77.174,154.778 72.584,154.103 72.584 C 153.855 72.584,153.615 72.390,153.548 72.135 C 153.472 71.844,153.242 71.685,152.895 71.685 C 152.417 71.685,152.172 71.274,152.472 70.974 C 152.533 70.912,153.115 70.899,153.764 70.944 C 154.413 70.989,164.348 71.525,175.843 72.136 M316.966 72.015 C 332.539 72.082,352.511 72.202,361.348 72.283 L 377.416 72.429 377.351 77.341 L 377.287 82.253 376.779 81.662 L 376.271 81.072 331.639 81.240 L 287.008 81.408 286.625 82.257 C 286.043 83.546,286.651 84.182,287.288 82.951 L 287.621 82.307 331.721 82.139 L 375.821 81.971 376.290 82.558 C 376.548 82.882,376.881 83.146,377.031 83.146 C 377.241 83.146,377.303 85.602,377.303 93.795 L 377.303 104.443 371.292 104.580 C 367.986 104.655,364.118 104.764,362.697 104.823 L 360.112 104.929 358.792 102.521 C 358.066 101.196,356.521 98.538,355.359 96.615 L 353.245 93.117 350.612 90.979 C 346.054 87.279,339.252 85.165,331.930 85.172 C 322.855 85.181,317.627 87.100,311.577 92.643 L 308.202 95.735 305.694 100.508 L 303.186 105.281 294.485 105.458 C 289.699 105.555,285.767 105.605,285.746 105.570 C 285.662 105.425,286.089 72.225,286.179 71.969 C 286.246 71.777,286.645 71.722,287.464 71.792 C 288.117 71.848,301.393 71.948,316.966 72.015 M152.584 72.906 C 152.584 73.083,152.811 73.259,153.088 73.299 C 154.592 73.514,153.733 74.187,152.154 74.031 C 150.630 73.881,150.562 73.895,150.562 74.353 C 150.562 74.753,150.428 74.831,149.746 74.831 L 148.930 74.831 149.069 73.989 C 149.146 73.525,149.210 73.020,149.211 72.865 C 149.213 72.666,149.702 72.584,150.899 72.584 C 152.211 72.584,152.584 72.656,152.584 72.906 M287.416 73.034 C 287.416 73.473,287.566 73.483,293.791 73.483 L 300.166 73.483 300.305 74.326 C 300.382 74.789,300.446 75.295,300.447 75.449 C 300.449 75.668,299.046 75.730,294.173 75.730 C 287.477 75.730,287.191 75.776,287.191 76.854 C 287.191 78.053,284.185 77.978,332.022 77.978 C 379.860 77.978,376.854 78.053,376.854 76.854 C 376.854 76.416,376.296 75.730,375.939 75.730 C 375.824 75.730,375.730 75.225,375.730 74.607 C 375.730 73.508,375.745 73.483,376.404 73.483 C 376.929 73.483,377.079 73.383,377.079 73.034 C 377.079 72.586,376.929 72.584,332.247 72.584 C 287.566 72.584,287.416 72.586,287.416 73.034 M34.213 73.201 C 40.556 73.249,43.596 73.197,43.596 73.041 C 43.596 72.649,76.729 72.725,77.055 73.117 C 77.515 73.671,80.212 73.731,88.168 73.361 C 92.472 73.161,96.046 73.050,96.109 73.113 C 96.173 73.176,96.151 76.505,96.060 80.509 L 95.895 87.790 94.577 88.845 C 93.852 89.425,93.260 89.872,93.262 89.838 C 93.264 89.803,93.411 89.371,93.589 88.876 C 93.994 87.753,94.066 79.028,93.682 77.646 C 93.364 76.500,92.039 75.175,90.894 74.857 C 89.631 74.507,30.144 74.507,28.881 74.857 C 27.736 75.175,26.411 76.500,26.093 77.646 C 25.789 78.742,25.757 87.457,26.054 88.491 L 26.264 89.226 24.943 88.152 L 23.621 87.079 23.608 84.025 C 23.578 76.679,23.845 72.757,24.362 72.952 C 24.620 73.049,29.053 73.161,34.213 73.201 M228.892 73.836 C 228.668 74.060,228.539 74.588,228.539 75.281 C 228.539 77.225,227.171 77.079,245.297 77.079 C 259.625 77.079,261.348 77.116,261.348 77.426 C 261.348 78.839,268.369 79.701,269.884 78.475 C 270.722 77.796,271.111 74.514,270.433 73.836 C 269.895 73.297,229.431 73.297,228.892 73.836 M301.715 73.989 C 301.640 74.267,301.578 74.941,301.576 75.487 C 301.572 76.832,301.440 76.586,301.255 74.888 C 301.121 73.665,301.150 73.483,301.476 73.483 C 301.754 73.483,301.816 73.613,301.715 73.989 M320.000 74.251 C 320.000 74.674,320.061 75.179,320.136 75.375 C 320.259 75.695,319.396 75.730,311.372 75.730 L 302.472 75.730 302.475 75.112 C 302.477 74.772,302.539 74.267,302.614 73.989 L 302.749 73.483 311.375 73.483 L 320.000 73.483 320.000 74.251 M321.333 74.775 C 321.321 75.705,321.263 75.941,321.124 75.618 C 320.853 74.988,320.853 73.483,321.124 73.483 C 321.249 73.483,321.341 74.053,321.333 74.775 M339.554 74.101 C 339.555 74.441,339.618 74.947,339.692 75.225 L 339.828 75.730 331.037 75.730 L 322.247 75.730 322.247 74.607 L 322.247 73.483 330.899 73.483 L 339.551 73.483 339.554 74.101 M340.916 75.000 L 340.821 76.517 340.652 75.506 C 340.399 73.994,340.419 73.483,340.730 73.483 C 340.937 73.482,340.986 73.885,340.916 75.000 M356.493 73.839 C 356.568 74.034,356.629 74.540,356.629 74.962 L 356.629 75.730 349.213 75.730 L 341.798 75.730 341.798 74.757 C 341.798 74.221,341.865 73.715,341.948 73.633 C 342.311 73.270,356.351 73.468,356.493 73.839 M357.961 73.989 C 357.952 74.267,357.863 74.949,357.764 75.506 L 357.584 76.517 357.556 75.355 C 357.541 74.717,357.467 74.034,357.392 73.839 C 357.302 73.605,357.379 73.483,357.616 73.483 C 357.846 73.483,357.971 73.667,357.961 73.989 M373.518 74.607 L 373.596 75.731 366.096 75.730 L 358.596 75.730 358.736 75.028 C 358.813 74.642,358.876 74.136,358.876 73.904 C 358.876 73.501,359.188 73.483,366.158 73.483 L 373.440 73.483 373.518 74.607 M374.828 74.663 C 374.826 75.508,374.763 75.747,374.607 75.506 C 374.319 75.061,374.319 73.483,374.607 73.483 C 374.730 73.483,374.830 74.014,374.828 74.663 M22.771 80.730 L 22.628 87.303 24.133 88.623 C 24.960 89.349,25.608 89.973,25.571 90.010 C 25.395 90.186,9.399 90.801,8.352 90.672 C 6.518 90.446,6.426 90.088,6.873 84.897 C 7.298 79.953,7.424 79.619,9.517 77.876 C 10.401 77.140,10.871 76.820,10.562 77.164 C 9.653 78.175,9.698 83.508,10.623 84.433 L 11.246 85.056 15.506 85.056 L 19.765 85.056 20.388 84.433 C 21.358 83.464,21.358 78.109,20.388 77.140 L 19.765 76.517 15.514 76.517 L 11.263 76.517 11.750 75.999 C 12.018 75.714,12.686 75.183,13.236 74.819 L 14.234 74.157 18.575 74.157 L 22.915 74.157 22.771 80.730 M106.420 74.888 L 107.525 75.618 103.767 75.730 C 98.672 75.883,98.764 75.800,98.764 80.225 C 98.764 83.352,98.766 83.362,99.387 83.984 L 100.010 84.607 104.382 84.607 L 108.754 84.607 109.377 83.984 C 109.978 83.384,110.003 83.266,110.075 80.675 L 110.150 77.988 110.904 78.590 C 112.053 79.507,112.301 80.385,112.685 84.893 C 113.127 90.082,113.034 90.446,111.199 90.673 C 110.092 90.810,94.854 90.210,94.667 90.022 C 94.621 89.977,95.090 89.548,95.709 89.071 L 96.835 88.202 96.845 85.730 C 96.851 84.371,96.921 81.211,97.003 78.708 L 97.150 74.157 101.233 74.157 L 105.316 74.157 106.420 74.888 M261.900 74.934 C 261.597 75.237,261.348 75.641,261.348 75.832 C 261.348 76.142,259.634 76.180,245.393 76.180 L 229.438 76.180 229.438 75.281 L 229.438 74.382 245.945 74.382 L 262.451 74.382 261.900 74.934 M153.003 75.053 C 153.519 75.056,153.530 75.095,153.375 76.348 C 153.181 77.912,153.289 77.799,152.165 77.619 C 151.244 77.472,151.236 77.463,151.236 76.507 C 151.236 75.155,151.422 74.768,151.997 74.923 C 152.258 74.993,152.711 75.051,153.003 75.053 M269.525 75.787 C 270.129 76.745,269.528 76.961,266.074 77.029 C 262.422 77.100,261.396 76.671,262.523 75.545 C 262.997 75.070,269.209 75.284,269.525 75.787 M91.374 76.081 C 92.628 77.017,92.914 77.646,92.989 79.622 L 93.058 81.461 92.518 80.333 C 89.261 73.524,78.705 76.317,79.384 83.807 C 80.024 90.863,89.584 92.437,92.617 85.986 L 93.054 85.056 92.984 86.786 C 92.909 88.644,92.603 89.293,91.374 90.211 C 90.394 90.943,29.382 90.943,28.401 90.211 C 26.889 89.082,26.861 88.968,26.784 83.748 C 26.692 77.520,26.915 76.674,28.865 75.820 C 30.198 75.237,90.581 75.489,91.374 76.081 M149.554 77.472 C 149.379 79.365,149.356 79.440,149.011 79.227 C 148.542 78.937,148.790 75.730,149.282 75.730 C 149.687 75.730,149.705 75.845,149.554 77.472 M31.513 76.766 C 24.189 79.459,26.657 90.575,34.467 90.073 C 41.361 89.629,43.210 80.237,37.032 77.049 C 35.770 76.398,32.912 76.252,31.513 76.766 M202.509 76.643 C 201.900 76.887,201.980 77.450,202.608 77.345 C 203.014 77.277,208.055 77.304,209.191 77.380 C 210.085 77.439,209.988 76.903,209.059 76.645 C 208.012 76.354,203.234 76.353,202.509 76.643 M108.693 77.118 C 109.464 77.842,109.488 82.488,108.725 83.300 C 107.989 84.083,100.898 84.109,100.071 83.332 C 99.300 82.607,99.276 77.961,100.039 77.149 C 100.775 76.366,107.866 76.341,108.693 77.118 M300.449 76.854 C 300.449 76.998,298.240 77.079,294.270 77.079 C 290.300 77.079,288.090 76.998,288.090 76.854 C 288.090 76.710,290.300 76.629,294.270 76.629 C 298.240 76.629,300.449 76.710,300.449 76.854 M320.225 76.854 C 320.225 77.000,317.116 77.079,311.348 77.079 C 305.581 77.079,302.472 77.000,302.472 76.854 C 302.472 76.708,305.581 76.629,311.348 76.629 C 317.116 76.629,320.225 76.708,320.225 76.854 M339.775 76.854 C 339.775 77.000,336.667 77.079,330.899 77.079 C 325.131 77.079,322.022 77.000,322.022 76.854 C 322.022 76.708,325.131 76.629,330.899 76.629 C 336.667 76.629,339.775 76.708,339.775 76.854 M356.629 76.854 C 356.629 76.999,353.970 77.079,349.101 77.079 C 344.232 77.079,341.573 76.999,341.573 76.854 C 341.573 76.709,344.232 76.629,349.101 76.629 C 353.970 76.629,356.629 76.709,356.629 76.854 M373.708 76.854 C 373.708 76.999,371.049 77.079,366.180 77.079 C 361.311 77.079,358.652 76.999,358.652 76.854 C 358.652 76.709,361.311 76.629,366.180 76.629 C 371.049 76.629,373.708 76.709,373.708 76.854 M175.169 77.868 C 179.618 78.171,184.876 78.523,186.854 78.651 C 194.252 79.129,194.460 79.276,204.121 90.853 C 213.699 102.330,216.777 107.053,215.284 107.976 C 214.971 108.169,211.884 106.768,211.459 106.240 C 211.234 105.960,207.458 101.199,203.069 95.662 C 194.529 84.887,194.009 84.344,191.685 83.765 C 190.321 83.425,175.483 82.911,165.830 82.869 L 163.233 82.858 160.886 84.206 C 154.807 87.700,153.914 87.880,150.498 86.302 C 148.685 85.465,148.679 85.459,149.226 85.116 C 149.528 84.927,151.686 83.690,154.022 82.368 C 156.357 81.046,159.037 79.429,159.977 78.774 C 161.836 77.480,163.521 77.045,165.955 77.231 C 166.573 77.278,170.719 77.565,175.169 77.868 M19.775 77.753 C 20.173 78.150,20.225 78.502,20.225 80.787 C 20.225 84.406,20.409 84.270,15.506 84.270 C 10.602 84.270,10.787 84.406,10.787 80.787 C 10.787 77.167,10.602 77.303,15.506 77.303 C 19.026 77.303,19.361 77.339,19.775 77.753 M36.585 77.885 C 42.250 80.708,40.243 89.205,33.910 89.212 C 30.037 89.217,27.113 85.399,28.179 81.731 C 29.259 78.016,33.215 76.206,36.585 77.885 M89.373 78.115 C 94.753 81.425,92.017 89.662,85.707 89.156 C 79.674 88.672,78.210 80.630,83.652 77.868 C 85.315 77.024,87.773 77.130,89.373 78.115 M202.509 77.767 C 201.777 78.060,202.019 78.565,202.833 78.438 C 203.670 78.309,204.524 78.308,207.397 78.435 C 209.912 78.547,210.710 78.227,209.059 77.768 C 208.012 77.478,203.234 77.476,202.509 77.767 M43.542 78.105 C 42.396 78.726,42.247 79.371,42.247 83.708 C 42.247 90.295,40.361 89.663,60.000 89.663 C 79.639 89.663,77.753 90.295,77.753 83.708 C 77.753 79.335,77.603 78.710,76.412 78.094 C 75.431 77.586,44.479 77.597,43.542 78.105 M152.119 78.506 C 152.914 78.657,153.602 78.895,153.648 79.034 C 153.744 79.321,150.977 79.695,150.580 79.449 C 150.308 79.281,150.243 78.194,150.506 78.216 C 150.598 78.224,151.324 78.354,152.119 78.506 M76.302 79.203 C 77.163 80.064,77.163 87.352,76.302 88.212 L 75.751 88.764 60.000 88.764 L 44.249 88.764 43.698 88.212 C 42.837 87.352,42.837 80.064,43.698 79.203 L 44.249 78.652 60.000 78.652 L 75.751 78.652 76.302 79.203 M202.528 78.883 C 201.529 79.285,202.042 79.902,203.075 79.541 C 203.505 79.392,204.733 79.381,206.641 79.512 C 209.662 79.718,210.574 79.520,209.265 78.943 C 208.542 78.623,203.290 78.577,202.528 78.883 M202.360 80.082 C 201.695 80.581,202.180 80.999,203.043 80.671 C 203.685 80.426,208.557 80.523,209.263 80.793 C 209.683 80.955,209.978 80.310,209.597 80.063 C 209.038 79.701,202.846 79.716,202.360 80.082 M213.568 80.821 C 212.703 81.006,212.282 82.191,212.405 84.097 L 212.514 85.794 214.515 88.089 C 216.725 90.622,217.262 90.994,218.958 91.166 C 220.953 91.369,221.148 90.874,221.072 85.813 L 221.011 81.733 220.378 81.260 C 219.756 80.795,215.092 80.494,213.568 80.821 M202.346 81.221 C 201.712 81.689,202.211 82.178,202.931 81.793 C 203.467 81.505,208.532 81.584,209.241 81.891 C 209.474 81.992,209.654 81.920,209.742 81.691 C 210.052 80.884,203.378 80.460,202.346 81.221 M219.854 81.994 C 220.347 82.404,220.411 89.323,219.927 89.984 C 219.077 91.147,216.903 89.737,214.119 86.216 C 213.122 84.956,212.863 82.675,213.629 81.909 C 214.114 81.424,219.253 81.494,219.854 81.994 M202.941 82.092 C 202.227 82.233,202.015 82.371,202.073 82.656 C 202.125 82.907,202.300 82.996,202.592 82.921 C 203.280 82.746,208.357 82.789,209.022 82.976 C 209.805 83.196,210.128 82.552,209.377 82.267 C 208.662 81.995,204.064 81.870,202.941 82.092 M202.753 83.394 C 201.997 83.616,201.909 83.744,202.200 84.202 C 202.313 84.379,202.484 84.399,202.703 84.261 C 203.136 83.987,208.348 83.983,209.067 84.257 C 209.569 84.447,209.888 84.236,209.888 83.714 C 209.888 83.354,203.818 83.082,202.753 83.394 M178.876 84.064 C 191.006 84.332,191.921 84.423,193.492 85.511 C 194.811 86.426,210.276 106.077,210.464 107.078 C 210.647 108.054,210.902 108.049,206.046 107.174 C 201.675 106.387,201.573 106.397,201.573 107.600 C 201.573 108.465,201.560 108.478,199.982 109.175 L 198.390 109.878 197.510 109.429 C 196.860 109.097,196.629 108.840,196.629 108.448 C 196.629 105.102,192.951 98.256,189.338 94.876 C 178.142 84.403,159.366 87.084,151.988 100.208 C 150.897 102.148,150.718 102.175,142.088 101.678 L 134.831 101.260 134.831 98.499 C 134.831 95.238,134.466 95.530,138.644 95.448 L 141.446 95.393 141.901 94.213 L 142.356 93.034 145.009 93.034 L 147.661 93.034 148.044 93.725 C 148.901 95.272,148.887 95.269,149.941 94.157 C 150.801 93.249,150.965 92.887,151.552 90.600 L 152.205 88.054 153.462 88.198 C 154.871 88.360,157.044 87.479,161.107 85.097 C 163.164 83.890,164.268 83.600,166.292 83.732 C 166.972 83.776,172.635 83.926,178.876 84.064 M231.429 86.229 C 232.450 86.728,232.665 87.743,231.898 88.438 C 231.395 88.895,227.005 89.216,225.712 88.892 C 225.160 88.753,224.861 86.241,225.337 85.741 C 225.655 85.407,230.550 85.799,231.429 86.229 M205.505 89.544 L 207.347 90.548 207.598 92.061 C 207.929 94.060,208.013 94.098,205.527 91.132 C 204.332 89.706,203.423 88.539,203.508 88.539 C 203.593 88.539,204.491 88.991,205.505 89.544 M176.544 89.556 C 190.393 91.936,199.053 105.612,195.167 118.964 C 189.938 136.930,166.556 141.686,154.765 127.182 C 141.381 110.718,155.702 85.975,176.544 89.556 M335.225 89.553 C 352.095 92.753,359.992 112.771,349.718 126.292 C 339.085 140.285,317.734 138.287,310.102 122.584 C 301.813 105.528,316.643 86.028,335.225 89.553 M31.348 94.693 C 33.697 96.670,35.643 98.302,35.674 98.320 C 35.705 98.338,35.797 100.037,35.878 102.097 C 36.013 105.533,36.060 105.843,36.440 105.843 C 36.815 105.843,36.854 105.629,36.854 103.591 C 36.854 101.373,36.861 101.341,37.360 101.453 C 39.459 101.924,44.715 102.441,46.233 102.327 C 47.463 102.235,48.369 102.300,49.304 102.547 L 50.631 102.897 51.434 102.235 L 52.237 101.573 60.016 101.573 C 67.625 101.573,67.805 101.583,68.221 102.043 C 68.949 102.848,69.290 102.918,70.694 102.548 C 71.640 102.298,72.514 102.238,73.730 102.337 C 75.220 102.459,80.078 101.963,82.416 101.451 C 82.914 101.341,82.921 101.373,82.921 103.591 C 82.921 105.693,82.951 105.843,83.371 105.843 C 83.784 105.843,83.820 105.692,83.822 103.989 C 83.822 102.969,83.889 101.290,83.969 100.256 L 84.115 98.378 88.712 94.695 L 93.310 91.011 94.689 91.013 C 95.447 91.014,96.744 91.078,97.570 91.156 L 99.073 91.298 98.404 91.967 C 97.456 92.916,96.885 94.148,96.712 95.623 L 96.562 96.897 96.013 96.195 C 94.801 94.647,92.179 94.116,90.350 95.050 C 86.815 96.853,86.989 101.958,90.638 103.482 L 91.494 103.840 91.337 105.347 C 91.251 106.176,91.159 106.879,91.133 106.910 C 90.818 107.286,31.011 107.211,31.009 106.835 C 31.008 106.598,30.946 105.896,30.871 105.273 L 30.735 104.142 31.720 103.520 C 34.691 101.642,34.815 97.644,31.963 95.640 C 29.835 94.144,26.711 94.844,25.419 97.107 L 24.783 98.219 24.667 96.346 C 24.536 94.259,23.998 92.916,22.869 91.861 C 22.053 91.099,22.176 91.040,24.719 90.959 C 27.075 90.885,26.320 90.459,31.348 94.693 M21.377 91.939 C 23.548 93.138,23.817 94.168,23.819 101.292 L 23.820 106.966 16.198 106.966 C 12.006 106.966,8.416 107.028,8.221 107.103 C 7.902 107.225,7.865 106.635,7.866 101.429 C 7.868 92.281,8.187 91.781,14.215 91.461 C 18.954 91.209,20.206 91.293,21.377 91.939 M91.337 91.425 C 91.220 91.530,89.329 93.059,87.135 94.825 L 83.146 98.035 83.146 99.018 L 83.146 100.000 59.888 100.000 L 36.629 100.000 36.629 99.000 L 36.629 98.000 32.978 94.922 C 30.969 93.229,29.255 91.783,29.169 91.708 C 29.082 91.634,42.715 91.599,59.465 91.632 C 77.538 91.666,90.209 91.606,90.634 91.483 C 91.586 91.208,91.582 91.208,91.337 91.425 M111.099 92.089 C 112.960 93.176,113.256 94.403,113.257 101.031 L 113.258 106.445 107.697 106.593 C 104.638 106.674,101.098 106.741,99.831 106.741 L 97.528 106.742 97.529 101.180 C 97.531 94.238,97.801 93.185,99.894 91.954 C 101.085 91.254,109.850 91.359,111.099 92.089 M40.973 93.847 C 40.600 94.417,40.607 94.475,41.200 95.607 C 42.203 97.523,42.228 97.528,50.300 97.528 L 57.213 97.528 57.505 96.720 C 57.902 95.624,57.654 94.046,57.015 93.599 C 56.604 93.311,55.357 93.258,48.944 93.258 L 41.359 93.258 40.973 93.847 M63.207 93.530 C 62.425 93.908,62.144 95.641,62.659 96.910 L 62.910 97.528 69.938 97.527 C 78.027 97.526,77.919 97.550,78.854 95.554 C 79.366 94.460,79.374 94.377,79.017 93.831 L 78.641 93.258 71.175 93.274 C 66.339 93.283,63.531 93.374,63.207 93.530 M134.075 93.557 C 134.148 93.643,133.698 103.680,133.618 103.761 C 133.342 104.036,129.587 103.495,129.248 103.132 C 128.800 102.651,129.011 94.696,129.498 93.737 C 129.729 93.280,133.707 93.124,134.075 93.557 M56.712 94.856 C 56.826 95.179,56.851 95.710,56.770 96.036 L 56.621 96.629 50.119 96.629 C 42.957 96.629,42.792 96.602,42.055 95.291 C 41.389 94.106,41.129 94.145,49.192 94.210 L 56.506 94.270 56.712 94.856 M78.268 94.297 C 78.485 94.515,77.578 96.137,77.093 96.397 C 76.245 96.850,63.649 96.700,63.400 96.234 C 63.150 95.768,63.331 94.566,63.685 94.329 C 63.985 94.129,78.069 94.099,78.268 94.297 M94.384 96.011 C 97.499 98.131,96.220 102.921,92.540 102.921 C 89.332 102.921,87.580 99.463,89.454 96.831 C 90.415 95.482,92.980 95.055,94.384 96.011 M30.860 96.037 C 32.404 96.682,33.422 98.645,33.052 100.264 C 32.012 104.823,25.278 103.879,25.664 99.228 C 25.881 96.606,28.449 95.029,30.860 96.037 M170.112 99.901 C 158.920 102.314,156.271 117.103,165.905 123.386 C 172.152 127.460,180.905 125.093,184.274 118.419 C 189.169 108.721,180.682 97.623,170.112 99.901 M327.865 99.906 C 318.220 102.451,314.895 114.462,321.891 121.486 C 330.039 129.665,343.803 123.990,343.852 112.431 C 343.888 104.115,335.833 97.804,327.865 99.906 M175.339 100.779 C 184.578 102.737,187.966 114.350,181.242 121.011 C 173.632 128.549,160.899 123.193,160.899 112.455 C 160.899 104.810,167.847 99.192,175.339 100.779 M333.528 100.696 C 342.710 102.597,346.149 114.265,339.490 120.924 C 331.972 128.441,319.086 123.103,319.086 112.472 C 319.086 104.765,325.990 99.136,333.528 100.696 M26.304 103.009 C 26.716 103.356,27.297 103.732,27.595 103.846 C 28.172 104.065,28.172 104.016,27.619 106.124 L 27.398 106.966 26.059 106.966 L 24.719 106.966 24.724 103.764 L 24.729 100.562 25.141 101.470 C 25.368 101.969,25.891 102.662,26.304 103.009 M51.068 101.391 C 50.595 101.864,50.519 101.872,49.092 101.588 C 48.187 101.408,46.935 101.343,45.883 101.421 C 44.862 101.497,43.423 101.428,42.360 101.251 C 40.604 100.960,40.692 100.952,46.061 100.926 L 51.561 100.899 51.068 101.391 M78.315 101.166 C 77.697 101.284,75.826 101.408,74.157 101.441 C 72.489 101.475,70.719 101.578,70.223 101.672 C 69.465 101.815,69.256 101.768,68.897 101.371 L 68.470 100.899 73.954 100.925 C 78.129 100.945,79.170 101.003,78.315 101.166 M96.629 104.170 L 96.629 106.767 95.693 106.698 L 94.758 106.629 94.351 105.182 C 94.127 104.386,93.966 103.721,93.994 103.704 C 95.430 102.844,95.813 102.554,96.105 102.109 C 96.622 101.320,96.629 101.348,96.629 104.170 M170.169 102.370 C 162.617 104.403,159.815 113.711,165.021 119.471 C 170.945 126.024,181.681 122.843,183.156 114.098 C 184.383 106.824,177.318 100.445,170.169 102.370 M327.812 102.459 C 320.913 104.664,318.314 113.222,322.809 118.932 C 328.415 126.053,339.879 123.014,341.366 114.014 C 342.606 106.503,335.122 100.122,327.812 102.459 M137.281 102.557 C 137.745 103.116,137.511 111.465,137.022 111.772 C 135.999 112.417,135.847 111.857,135.782 107.196 C 135.718 102.726,135.800 102.247,136.629 102.247 C 136.846 102.247,137.139 102.387,137.281 102.557 M149.897 102.772 L 150.726 102.550 150.086 104.304 C 149.443 106.066,148.888 108.662,148.640 111.067 C 148.542 112.017,148.416 112.360,148.164 112.360 C 147.836 112.360,140.321 111.138,139.045 110.877 L 138.427 110.751 138.427 106.555 L 138.427 102.360 143.747 102.676 C 147.386 102.893,149.329 102.923,149.897 102.772 M176.257 103.598 C 180.280 105.115,182.943 109.606,182.297 113.783 C 180.651 124.413,165.653 124.863,163.461 114.348 C 161.944 107.075,169.235 100.950,176.257 103.598 M334.678 103.583 C 338.535 105.074,341.163 109.749,340.464 113.874 C 339.113 121.837,329.307 124.807,323.969 118.869 C 317.199 111.340,325.200 99.920,334.678 103.583 M39.063 103.954 C 38.970 104.768,37.978 105.070,37.978 104.285 C 37.978 103.970,37.833 103.820,37.528 103.820 C 37.154 103.820,37.079 103.970,37.079 104.719 L 37.079 105.618 38.412 105.618 C 39.700 105.618,39.748 105.597,39.817 105.000 L 39.888 104.382 46.044 104.448 C 51.760 104.509,52.241 104.545,52.760 104.953 C 53.630 105.638,67.392 105.629,68.427 104.944 C 69.058 104.526,69.492 104.497,75.225 104.496 C 81.198 104.494,81.348 104.483,81.348 104.045 C 81.348 103.348,69.254 103.348,68.202 104.045 C 67.166 104.732,54.024 104.738,53.081 104.052 C 52.520 103.644,51.942 103.597,45.805 103.455 L 39.138 103.302 39.063 103.954 M93.362 104.985 C 93.853 106.636,93.826 106.742,92.921 106.742 C 92.048 106.742,92.028 106.683,92.278 104.863 C 92.469 103.468,92.927 103.519,93.362 104.985 M29.888 104.688 C 29.888 104.918,29.952 105.575,30.031 106.148 C 30.180 107.237,29.809 107.492,28.698 107.066 C 28.174 106.864,28.886 104.270,29.466 104.270 C 29.727 104.270,29.888 104.429,29.888 104.688 M172.031 104.935 C 171.759 105.234,171.678 105.558,171.775 105.946 C 171.872 106.332,171.826 106.518,171.633 106.520 C 171.477 106.522,171.121 106.584,170.843 106.658 C 170.437 106.767,170.337 106.702,170.337 106.326 C 170.337 105.356,168.966 105.101,168.399 105.967 C 168.042 106.511,168.047 106.573,168.493 107.176 L 168.963 107.811 168.448 108.295 C 167.991 108.725,167.900 108.740,167.647 108.434 C 166.910 107.547,165.283 108.618,165.826 109.633 C 165.959 109.880,166.279 110.149,166.537 110.231 C 166.886 110.342,166.974 110.505,166.878 110.864 C 166.806 111.131,166.746 111.482,166.745 111.644 C 166.743 111.836,166.586 111.891,166.301 111.800 C 165.283 111.478,164.485 112.600,165.104 113.483 C 165.350 113.834,165.628 113.943,166.147 113.891 C 166.735 113.832,166.866 113.905,166.926 114.326 C 166.980 114.708,166.886 114.831,166.540 114.831 C 165.987 114.831,165.541 115.582,165.733 116.189 C 165.962 116.911,166.656 117.154,167.411 116.778 C 168.237 116.365,169.084 116.983,168.433 117.523 C 168.056 117.836,167.987 118.591,168.292 119.073 C 168.721 119.750,170.074 119.314,170.385 118.399 C 170.536 117.956,171.798 118.572,171.729 119.054 C 171.616 119.841,172.079 120.449,172.789 120.449 C 173.584 120.449,174.019 119.954,173.877 119.209 C 173.756 118.580,173.781 118.552,174.663 118.341 C 175.165 118.221,175.281 118.271,175.281 118.602 C 175.281 119.506,176.487 119.885,177.175 119.197 C 177.644 118.729,177.620 118.295,177.099 117.773 C 176.676 117.350,176.678 117.336,177.223 116.824 C 177.571 116.497,177.835 116.391,177.933 116.539 C 178.404 117.246,179.618 117.028,179.885 116.189 C 180.075 115.589,179.633 114.831,179.093 114.831 C 178.821 114.831,178.653 114.680,178.655 114.438 C 178.660 113.831,178.962 113.483,179.300 113.692 C 180.126 114.202,181.052 113.242,180.680 112.262 C 180.474 111.720,180.161 111.586,179.298 111.669 C 179.091 111.689,178.874 111.482,178.796 111.189 C 178.594 110.437,178.616 110.337,178.984 110.337 C 179.166 110.337,179.481 110.084,179.684 109.775 C 180.404 108.676,178.962 107.536,177.978 108.427 C 177.399 108.951,176.386 107.852,176.938 107.299 C 177.427 106.810,177.399 106.223,176.863 105.739 C 176.259 105.192,175.335 105.438,175.144 106.197 C 175.049 106.577,174.891 106.726,174.673 106.643 C 174.493 106.573,174.216 106.517,174.058 106.517 C 173.871 106.517,173.808 106.317,173.879 105.947 C 174.101 104.788,172.805 104.079,172.031 104.935 M330.100 104.967 C 329.961 105.227,329.897 105.631,329.959 105.865 C 330.084 106.344,330.029 106.394,329.157 106.602 C 328.655 106.722,328.539 106.673,328.539 106.341 C 328.539 105.406,327.336 105.061,326.664 105.804 C 326.182 106.337,326.195 106.644,326.721 107.171 C 327.144 107.593,327.142 107.608,326.597 108.120 C 326.226 108.469,325.992 108.557,325.887 108.387 C 325.549 107.843,324.362 107.946,324.040 108.548 C 323.703 109.178,323.971 109.871,324.651 110.129 C 325.096 110.298,325.190 110.453,325.084 110.847 C 325.010 111.123,324.949 111.457,324.947 111.590 C 324.945 111.729,324.666 111.791,324.290 111.736 C 323.774 111.661,323.554 111.764,323.253 112.225 C 322.693 113.079,323.290 113.997,324.338 113.892 C 325.182 113.807,325.500 114.471,324.732 114.715 C 323.985 114.952,323.724 115.663,324.147 116.307 C 324.552 116.927,325.290 117.017,325.845 116.515 C 326.181 116.211,326.263 116.224,326.644 116.646 C 327.043 117.087,327.046 117.129,326.681 117.333 C 326.233 117.584,326.159 118.653,326.562 119.056 C 327.008 119.502,327.802 119.362,328.241 118.759 C 328.823 117.959,330.186 118.169,329.971 119.025 C 329.813 119.654,330.404 120.449,331.030 120.449 C 331.697 120.449,332.191 119.777,332.049 119.064 C 331.964 118.643,332.014 118.426,332.197 118.424 C 332.348 118.422,332.699 118.360,332.978 118.285 C 333.378 118.178,333.483 118.243,333.483 118.598 C 333.483 119.686,334.921 119.853,335.492 118.832 C 335.807 118.270,335.797 118.189,335.344 117.708 L 334.857 117.189 335.380 116.686 C 335.836 116.247,335.938 116.226,336.181 116.518 C 336.912 117.399,338.533 116.319,337.994 115.311 C 337.861 115.064,337.551 114.798,337.304 114.719 C 336.452 114.449,336.833 113.525,337.741 113.658 C 338.480 113.767,339.220 112.930,338.967 112.273 C 338.772 111.764,338.052 111.407,337.546 111.567 C 337.234 111.666,337.095 111.555,336.986 111.120 C 336.819 110.456,336.967 110.112,337.421 110.112 C 337.595 110.112,337.847 109.906,337.982 109.654 C 338.543 108.606,337.447 107.603,336.439 108.243 C 335.656 108.741,334.611 107.807,335.210 107.145 C 335.503 106.822,335.540 106.590,335.374 106.117 C 335.008 105.071,333.258 105.223,333.258 106.300 C 333.258 106.630,333.146 106.673,332.640 106.537 C 332.130 106.399,332.035 106.264,332.096 105.758 C 332.241 104.556,330.656 103.928,330.100 104.967 M264.698 105.638 C 264.980 106.019,265.293 106.617,265.393 106.966 L 265.575 107.600 263.293 107.729 C 258.605 107.992,216.404 108.146,216.404 107.900 C 216.404 107.769,216.525 107.397,216.673 107.073 C 216.883 106.610,216.880 106.386,216.657 106.029 C 216.501 105.779,216.406 105.542,216.445 105.504 C 216.508 105.442,245.530 105.088,259.227 104.982 L 264.185 104.944 264.698 105.638 M298.764 106.536 C 298.517 106.653,296.191 107.598,293.596 108.636 L 288.876 110.524 288.269 109.363 C 287.935 108.725,287.657 108.145,287.651 108.074 C 287.634 107.871,290.829 106.547,291.573 106.449 C 293.072 106.250,299.209 106.325,298.764 106.536 M174.285 107.522 C 176.578 108.206,177.982 110.111,177.973 112.526 C 177.956 116.996,172.836 119.373,169.456 116.480 C 165.217 112.852,168.949 105.930,174.285 107.522 M333.155 107.723 C 337.595 109.790,337.093 116.071,332.377 117.451 C 329.098 118.410,325.851 115.904,325.845 112.409 C 325.838 108.616,329.724 106.125,333.155 107.723 M114.101 107.710 C 114.309 107.844,114.382 108.942,114.382 111.910 L 114.382 115.928 113.427 116.048 C 112.249 116.196,100.490 116.574,88.202 116.859 C 71.500 117.246,26.730 117.052,30.632 116.609 C 35.779 116.025,35.506 108.539,30.337 108.539 C 25.985 108.539,24.750 114.193,28.652 116.255 C 29.608 116.760,18.472 116.641,9.270 116.047 L 7.191 115.913 7.193 113.069 C 7.197 109.531,7.327 108.706,7.944 108.306 C 8.351 108.043,14.799 107.985,48.989 107.936 C 71.298 107.905,93.242 107.789,97.753 107.679 C 107.402 107.444,113.709 107.456,114.101 107.710 M212.857 108.113 C 213.510 108.373,214.260 108.669,214.523 108.771 C 214.785 108.873,222.572 109.011,231.826 109.077 C 241.080 109.143,256.074 109.387,265.145 109.618 L 281.638 110.038 284.134 109.523 C 287.249 108.880,287.068 108.876,287.388 109.580 C 287.739 110.349,287.887 110.269,284.567 111.101 L 281.685 111.825 247.303 110.647 C 215.773 109.568,210.126 109.316,211.315 109.043 C 211.632 108.970,211.708 108.792,211.634 108.294 C 211.582 107.934,211.568 107.640,211.604 107.640 C 211.639 107.640,212.203 107.853,212.857 108.113 M89.996 108.852 C 87.742 109.835,86.926 112.995,88.420 114.954 C 91.108 118.478,96.459 115.977,95.635 111.582 C 95.209 109.313,92.239 107.875,89.996 108.852 M171.349 109.118 C 169.840 109.905,169.162 110.988,169.162 112.611 C 169.162 116.884,175.287 117.522,176.434 113.368 C 177.208 110.565,173.890 107.793,171.349 109.118 M329.158 109.276 C 326.978 110.596,326.685 113.255,328.519 115.089 C 331.595 118.165,336.478 113.969,334.080 110.310 C 333.115 108.838,330.715 108.333,329.158 109.276 M32.068 109.879 C 34.533 111.382,33.457 115.787,30.640 115.720 C 30.412 115.715,30.625 115.568,31.115 115.394 C 33.216 114.645,33.659 112.253,31.970 110.771 C 29.830 108.892,26.475 111.434,27.740 113.976 C 28.084 114.667,28.083 114.693,27.738 114.349 C 25.468 112.090,29.265 108.170,32.068 109.879 M93.339 109.865 C 95.002 110.961,95.340 114.074,93.894 114.968 C 93.779 115.039,93.893 114.710,94.146 114.237 C 95.522 111.670,92.487 108.823,90.251 110.582 C 88.050 112.313,88.849 115.074,91.685 115.538 L 92.697 115.704 91.495 115.636 C 87.476 115.407,87.659 109.453,91.685 109.443 C 92.302 109.442,92.947 109.606,93.339 109.865 M174.608 111.176 C 175.461 112.260,175.055 113.928,173.779 114.580 C 171.720 115.633,169.589 112.983,171.025 111.157 C 171.930 110.007,173.696 110.016,174.608 111.176 M331.981 110.363 C 334.129 111.462,333.406 114.668,331.011 114.668 C 330.194 114.668,329.924 114.550,329.397 113.960 C 327.731 112.096,329.784 109.240,331.981 110.363 M295.082 112.119 C 298.219 113.631,298.440 113.700,302.552 114.465 C 304.882 114.898,306.829 115.293,306.878 115.343 C 307.009 115.473,307.461 118.007,307.370 118.098 C 307.247 118.222,295.980 115.354,295.672 115.121 C 291.382 111.872,290.294 110.919,290.696 110.761 C 291.490 110.450,291.842 110.559,295.082 112.119 M31.114 111.151 C 32.114 111.535,32.391 113.247,31.583 114.055 C 30.557 115.082,28.728 114.627,28.430 113.271 C 28.099 111.766,29.609 110.573,31.114 111.151 M92.828 111.299 C 94.309 112.436,93.632 114.607,91.798 114.607 C 90.886 114.607,90.181 114.082,90.003 113.271 C 89.747 112.106,90.610 111.026,91.798 111.026 C 92.169 111.026,92.632 111.149,92.828 111.299 M143.820 112.600 C 148.676 113.366,148.755 113.398,148.761 114.551 C 148.765 115.387,148.883 115.365,146.261 115.016 C 144.338 114.760,144.270 114.731,144.270 114.170 C 144.270 113.608,144.177 113.569,141.236 112.925 C 139.115 112.461,138.202 112.167,138.202 111.949 C 138.202 111.740,138.369 111.676,138.708 111.755 C 138.986 111.820,141.287 112.200,143.820 112.600 M14.944 117.190 C 17.416 117.258,20.424 117.372,21.629 117.445 L 23.820 117.577 23.819 124.462 C 23.817 135.293,23.584 135.618,15.843 135.618 C 8.054 135.618,7.868 135.349,7.866 124.079 L 7.865 116.810 9.157 116.939 C 9.868 117.009,12.472 117.123,14.944 117.190 M113.257 124.213 C 113.255 135.299,113.036 135.618,105.393 135.618 C 97.779 135.618,97.531 135.267,97.529 124.438 L 97.528 117.528 99.045 117.497 C 99.879 117.480,102.230 117.397,104.270 117.313 C 106.309 117.229,109.166 117.142,110.618 117.120 L 113.258 117.079 113.257 124.213 M40.094 117.889 C 40.357 117.990,40.449 118.340,40.449 119.238 L 40.449 120.449 37.416 120.449 L 34.382 120.449 34.382 119.101 L 34.382 117.753 37.060 117.753 C 38.533 117.753,39.898 117.814,40.094 117.889 M87.640 119.101 L 87.640 120.449 84.607 120.449 L 81.573 120.449 81.573 119.229 C 81.573 117.774,81.442 117.828,85.112 117.783 L 87.640 117.753 87.640 119.101 M40.225 122.022 L 40.225 122.697 37.416 122.697 L 34.607 122.697 34.607 122.022 L 34.607 121.348 37.416 121.348 L 40.225 121.348 40.225 122.022 M87.416 122.022 L 87.416 122.697 84.607 122.697 L 81.798 122.697 81.798 122.022 L 81.798 121.348 84.607 121.348 L 87.416 121.348 87.416 122.022 M38.942 123.762 C 38.175 123.805,36.860 123.806,36.021 123.762 C 35.181 123.719,35.809 123.683,37.416 123.683 C 39.022 123.682,39.709 123.718,38.942 123.762 M86.133 123.762 C 85.366 123.805,84.051 123.806,83.212 123.762 C 82.372 123.719,83.000 123.683,84.607 123.683 C 86.213 123.682,86.900 123.718,86.133 123.762 M38.490 124.883 C 37.968 124.930,37.058 124.931,36.467 124.885 C 35.877 124.838,36.303 124.800,37.416 124.799 C 38.528 124.798,39.011 124.836,38.490 124.883 M85.681 124.883 C 85.159 124.930,84.249 124.931,83.658 124.885 C 83.068 124.838,83.494 124.800,84.607 124.799 C 85.719 124.798,86.202 124.836,85.681 124.883 " stroke="none" fill="#000000" fill-rule="evenodd"></path></g></svg>