<svg id="svg" xmlns="http://www.w3.org/2000/svg" xmlns:xlink="http://www.w3.org/1999/xlink" width="400" height="148.25796886582654" viewBox="0, 0, 400,148.25796886582654"><g id="svgg"><path id="path0" d="M52.519 21.655 C 34.672 22.183,30.139 23.071,26.543 26.748 L 25.733 27.576 26.358 27.576 L 26.983 27.576 26.983 28.503 C 26.984 31.332,26.062 53.009,25.940 53.052 C 25.861 53.079,25.797 53.466,25.797 53.913 C 25.797 54.525,25.751 54.696,25.612 54.609 C 25.510 54.545,24.478 54.458,23.320 54.415 C 21.044 54.330,20.772 54.224,20.761 53.410 C 20.757 53.116,20.830 53.076,21.386 53.076 C 23.187 53.074,24.078 51.542,24.258 48.137 C 24.463 44.249,23.769 43.204,20.877 43.042 C 17.889 42.875,17.110 43.864,16.945 48.036 C 16.817 51.275,17.510 52.684,19.331 52.890 C 19.982 52.963,20.015 52.989,20.015 53.432 C 20.015 54.769,20.772 55.148,23.451 55.150 C 25.533 55.152,25.500 55.118,25.500 57.312 C 25.500 58.343,25.558 59.007,25.649 59.007 C 25.993 59.007,25.806 60.882,25.355 61.940 L 24.914 62.978 25.252 63.994 C 25.438 64.554,25.580 65.111,25.568 65.234 C 25.555 65.356,25.535 65.673,25.523 65.938 L 25.500 66.420 21.122 66.420 L 16.743 66.420 15.980 66.806 C 15.561 67.019,13.971 68.250,12.449 69.541 C 8.872 72.574,9.117 72.049,8.578 77.835 L 8.170 82.209 8.640 83.340 L 9.110 84.470 10.078 84.562 C 10.610 84.612,11.471 84.654,11.991 84.654 L 12.936 84.655 12.312 85.333 C 11.968 85.706,11.476 86.456,11.218 87.001 L 10.749 87.991 10.701 94.292 L 10.654 100.593 9.886 101.043 L 9.118 101.494 9.024 102.452 C 8.972 102.979,8.922 104.928,8.913 106.783 L 8.895 110.156 9.777 110.156 L 10.658 110.156 10.703 117.984 L 10.749 125.813 11.304 126.936 C 11.961 128.265,12.695 128.982,14.066 129.631 L 15.048 130.096 19.496 130.096 L 23.944 130.096 24.926 129.631 C 26.297 128.982,27.031 128.265,27.688 126.936 L 28.243 125.813 28.289 118.355 L 28.335 110.897 30.142 110.898 C 31.136 110.898,32.900 110.942,34.062 110.995 L 36.175 111.091 36.175 114.101 C 36.175 117.372,36.246 117.736,36.935 118.021 C 37.170 118.118,37.361 118.290,37.361 118.402 C 37.361 119.055,37.858 119.199,40.104 119.199 C 42.349 119.199,42.847 119.055,42.847 118.402 C 42.847 118.290,43.038 118.118,43.272 118.021 C 43.959 117.737,44.033 117.367,44.033 114.189 L 44.033 111.268 63.899 111.268 L 83.766 111.268 83.766 114.189 C 83.766 117.290,83.843 117.717,84.449 117.994 C 84.644 118.083,84.804 118.257,84.804 118.381 C 84.804 119.056,85.284 119.199,87.546 119.199 C 89.792 119.199,90.289 119.055,90.289 118.402 C 90.289 118.290,90.481 118.118,90.715 118.021 C 91.405 117.736,91.475 117.372,91.475 114.101 L 91.475 111.092 94.033 110.995 C 95.439 110.942,97.003 110.898,97.508 110.897 L 98.426 110.897 98.472 118.347 L 98.517 125.797 98.983 126.779 C 100.353 129.671,101.852 130.233,107.967 130.148 L 111.712 130.095 112.694 129.631 C 115.852 128.136,116.086 127.299,116.086 117.489 L 116.086 110.347 117.152 110.247 C 117.739 110.193,118.232 110.133,118.248 110.115 C 118.264 110.097,118.326 107.909,118.386 105.254 L 118.493 100.427 117.300 100.155 L 116.107 99.882 116.059 93.928 L 116.012 87.975 115.457 86.852 C 115.140 86.211,114.652 85.504,114.321 85.204 L 113.740 84.680 114.967 84.578 L 116.195 84.475 116.665 83.406 L 117.135 82.336 116.745 77.913 C 116.234 72.120,116.452 72.591,112.896 69.567 C 111.429 68.320,109.881 67.102,109.454 66.860 L 108.678 66.420 104.376 66.420 C 100.651 66.420,100.074 66.390,100.074 66.197 C 100.074 66.075,100.174 65.975,100.297 65.975 C 100.763 65.975,100.596 63.695,100.074 62.936 C 99.546 62.168,99.360 58.265,99.852 58.265 C 100.036 58.265,100.074 57.980,100.074 56.583 C 100.074 54.425,100.087 54.411,102.013 54.409 C 104.880 54.407,105.708 54.014,105.708 52.654 C 105.708 52.254,105.754 52.220,106.392 52.148 C 108.179 51.947,108.950 50.355,108.763 47.250 C 108.514 43.102,107.938 42.326,105.115 42.331 C 102.173 42.336,101.525 43.002,101.431 46.118 C 101.307 50.218,102.292 52.325,104.337 52.333 C 105.060 52.335,105.177 52.636,104.688 53.239 C 104.428 53.560,104.277 53.588,102.332 53.663 C 100.568 53.732,100.206 53.787,99.941 54.026 C 99.631 54.307,99.629 54.306,99.628 53.878 C 99.628 53.641,99.461 48.010,99.259 41.364 C 99.056 34.718,98.890 29.097,98.889 28.873 C 98.888 28.489,98.926 28.466,99.555 28.466 C 100.451 28.466,100.419 28.388,98.956 27.002 C 96.836 24.996,94.526 24.070,90.067 23.440 C 79.087 21.887,65.891 21.260,52.519 21.655 M240.845 22.228 L 236.546 22.632 234.574 23.501 C 232.731 24.313,232.605 24.394,232.647 24.750 C 232.689 25.114,232.736 25.132,233.766 25.173 C 234.357 25.197,234.841 25.280,234.841 25.357 C 234.841 25.434,232.573 32.111,229.801 40.194 C 225.452 52.878,224.774 54.970,224.853 55.466 C 224.904 55.783,224.887 56.042,224.815 56.042 C 224.744 56.042,222.250 55.714,219.274 55.313 L 213.862 54.584 205.411 54.331 C 192.597 53.946,179.717 54.103,167.850 54.790 L 159.051 55.300 157.964 55.782 L 156.878 56.264 155.526 59.282 L 154.174 62.300 154.708 62.986 C 155.067 63.447,155.216 63.771,155.162 63.971 C 155.118 64.135,155.081 64.387,155.080 64.529 C 155.078 64.760,154.905 64.789,153.541 64.789 L 152.005 64.789 151.914 65.453 C 151.760 66.574,151.495 71.490,151.546 72.270 C 151.599 73.084,151.548 73.054,153.309 73.302 L 153.986 73.398 153.787 74.987 C 153.677 75.860,153.562 76.648,153.531 76.737 C 153.500 76.826,152.795 77.284,151.964 77.754 C 151.134 78.224,150.511 78.664,150.579 78.731 C 150.648 78.799,151.569 79.230,152.626 79.690 C 153.682 80.150,154.657 80.586,154.791 80.657 C 155.213 80.883,153.787 85.867,153.106 86.548 L 152.601 87.054 152.143 86.243 L 151.685 85.432 148.551 85.322 C 146.804 85.261,145.363 85.270,145.295 85.342 C 145.228 85.413,144.989 85.994,144.764 86.634 C 144.276 88.021,144.660 87.879,141.179 87.963 L 138.325 88.033 138.325 86.956 L 138.325 85.879 135.637 85.771 L 132.949 85.662 132.390 86.233 L 131.830 86.805 131.612 91.549 L 131.394 96.294 131.904 96.924 C 132.614 97.800,132.621 97.802,135.381 97.889 L 137.849 97.967 137.939 97.519 C 137.988 97.273,138.028 96.680,138.028 96.201 C 138.028 95.432,138.063 95.330,138.321 95.330 C 138.574 95.330,138.594 95.382,138.469 95.710 C 138.216 96.375,138.285 104.517,138.548 105.021 C 138.670 105.254,138.769 105.524,138.769 105.621 C 138.769 105.730,140.294 106.134,142.806 106.688 L 146.842 107.580 146.800 108.173 L 146.757 108.766 149.622 109.184 L 152.487 109.601 152.831 111.176 C 156.138 126.321,173.013 134.487,187.027 127.725 C 195.441 123.666,200.445 115.842,200.698 106.354 L 200.778 103.368 201.543 103.706 L 202.307 104.045 204.082 103.305 C 206.246 102.402,206.174 102.460,206.261 101.551 C 206.300 101.143,206.360 100.781,206.395 100.746 C 206.688 100.453,211.736 101.646,211.984 102.067 C 212.232 102.485,212.418 102.563,214.392 103.075 L 216.531 103.629 251.446 104.803 L 286.360 105.977 289.474 105.179 C 292.525 104.398,292.592 104.388,292.809 104.670 C 292.970 104.879,293.093 104.920,293.254 104.817 C 293.706 104.528,294.027 104.718,296.996 107.030 L 300.026 109.389 306.239 110.970 C 309.656 111.839,312.462 112.562,312.475 112.576 C 312.488 112.590,312.746 113.269,313.048 114.085 C 319.218 130.712,340.272 135.454,352.867 123.054 C 363.865 112.226,362.099 94.008,349.229 85.525 C 341.071 80.148,330.511 80.199,322.318 85.655 C 315.795 89.999,311.919 97.050,311.682 105.004 C 311.637 106.533,311.583 107.784,311.562 107.784 C 311.542 107.784,309.599 107.424,307.245 106.985 L 302.965 106.186 300.035 104.738 C 298.424 103.942,297.123 103.274,297.144 103.253 C 297.577 102.839,306.668 99.481,307.355 99.481 C 308.395 99.481,308.045 99.978,310.955 94.362 L 313.415 89.614 316.739 86.547 L 320.062 83.479 323.448 81.835 L 326.835 80.191 330.150 79.680 C 337.459 78.555,342.822 79.070,349.359 81.526 L 352.461 82.691 354.844 84.624 C 356.155 85.688,357.367 86.713,357.538 86.904 C 358.032 87.453,361.405 93.064,363.071 96.108 C 363.909 97.637,364.637 98.913,364.691 98.943 C 364.745 98.974,368.391 98.911,372.795 98.803 C 377.198 98.695,381.394 98.603,382.118 98.599 L 383.436 98.592 383.326 82.348 L 383.216 66.105 383.818 65.391 L 384.420 64.676 377.496 64.584 C 373.687 64.533,357.394 64.423,341.290 64.341 C 325.185 64.258,309.991 64.151,307.526 64.102 L 303.043 64.013 298.882 59.212 L 294.722 54.411 293.914 54.411 L 293.106 54.411 293.106 39.733 L 293.106 25.056 291.398 25.056 L 289.691 25.056 289.695 50.519 C 289.697 64.524,289.634 80.586,289.554 86.212 C 289.473 91.838,289.406 97.203,289.404 98.133 L 289.400 99.823 291.509 99.723 C 293.815 99.612,293.847 99.641,292.216 100.366 C 290.869 100.965,290.974 100.879,291.163 101.231 C 291.313 101.510,291.194 101.548,288.618 102.038 L 285.915 102.552 274.880 102.284 C 262.587 101.986,261.126 101.912,266.827 101.877 L 270.719 101.853 270.719 101.204 L 270.719 100.554 278.243 100.453 C 287.032 100.335,285.856 100.507,287.061 99.161 L 288.038 98.070 288.285 73.618 C 288.525 49.913,288.541 49.154,288.818 48.803 C 289.190 48.329,289.179 47.875,288.781 47.370 C 288.352 46.824,286.948 32.091,287.282 31.635 C 287.559 31.255,287.515 30.774,287.176 30.467 C 286.798 30.125,286.740 28.762,287.103 28.762 C 287.264 28.762,287.062 28.236,286.378 26.871 L 285.431 24.980 283.894 24.295 L 282.357 23.611 275.389 23.064 C 269.789 22.624,266.573 22.462,259.007 22.239 C 253.829 22.086,248.592 21.930,247.368 21.893 C 245.670 21.841,244.128 21.920,240.845 22.228 M71.985 22.536 C 88.110 23.370,95.238 24.613,97.931 27.063 L 98.666 27.731 94.663 27.651 C 92.461 27.607,77.817 27.438,62.120 27.275 C 29.509 26.937,27.488 26.897,27.741 26.593 C 28.521 25.652,31.462 24.236,33.506 23.815 C 39.367 22.611,60.101 21.922,71.985 22.536 M259.007 22.984 C 266.684 23.212,269.911 23.374,275.378 23.806 L 282.187 24.343 283.550 24.949 L 284.913 25.554 285.459 26.657 C 285.759 27.263,285.967 27.796,285.921 27.842 C 285.824 27.940,235.790 24.656,234.929 24.496 L 234.350 24.388 235.522 23.883 C 237.059 23.221,243.656 22.520,247.294 22.633 C 248.477 22.670,253.747 22.828,259.007 22.984 M238.769 25.511 C 239.177 25.518,239.411 25.561,239.288 25.606 C 239.166 25.651,238.696 25.914,238.243 26.190 L 237.421 26.692 233.690 39.847 L 229.960 53.002 229.090 68.718 L 228.220 84.433 228.656 85.841 C 229.295 87.910,230.062 88.936,232.072 90.412 C 234.299 92.047,232.921 91.901,252.070 92.519 C 259.549 92.760,266.874 92.958,268.348 92.958 L 271.030 92.958 272.551 92.240 C 274.526 91.308,275.733 89.996,276.824 87.592 L 277.518 86.064 278.266 70.200 L 279.014 54.337 278.431 52.425 L 277.848 50.513 278.231 39.901 L 278.614 29.289 277.984 28.729 L 277.353 28.169 278.224 28.182 C 278.703 28.190,280.663 28.307,282.580 28.442 L 286.064 28.688 286.109 29.466 L 286.153 30.245 285.313 30.245 C 283.989 30.245,283.189 30.905,282.762 32.349 C 282.427 33.482,281.981 40.250,281.985 44.147 L 281.987 45.818 282.671 47.186 C 283.047 47.939,283.381 48.583,283.413 48.617 C 283.498 48.708,286.397 49.058,287.139 49.066 L 287.769 49.073 287.765 51.038 C 287.764 52.118,287.665 62.142,287.546 73.314 C 287.428 84.485,287.328 94.559,287.325 95.701 L 287.319 97.776 286.469 98.695 L 285.619 99.614 278.132 99.707 L 270.645 99.800 269.917 98.749 C 269.516 98.171,269.107 97.631,269.008 97.548 C 268.886 97.447,262.239 97.470,248.609 97.619 C 237.489 97.740,226.423 97.858,224.018 97.882 L 219.644 97.924 217.272 94.421 C 215.967 92.495,214.484 90.432,213.975 89.837 C 213.451 89.224,213.013 88.559,212.964 88.300 C 212.917 88.048,212.666 86.786,212.406 85.494 L 211.935 83.145 208.673 81.368 C 206.879 80.392,205.311 79.474,205.189 79.329 C 205.067 79.184,204.697 78.734,204.367 78.328 L 203.767 77.589 204.173 72.412 C 204.396 69.565,204.583 67.118,204.588 66.976 C 204.595 66.744,204.781 66.716,206.338 66.716 C 208.263 66.716,214.844 66.969,215.810 67.080 L 216.423 67.151 216.532 63.222 C 216.668 58.353,216.519 57.438,215.327 55.782 C 215.091 55.456,215.095 55.450,215.512 55.525 C 216.386 55.681,225.700 56.929,225.729 56.894 C 225.745 56.873,225.706 56.427,225.642 55.903 L 225.526 54.948 229.756 42.633 C 232.082 35.860,234.361 29.193,234.821 27.817 L 235.656 25.316 236.842 25.407 C 237.494 25.457,238.362 25.504,238.769 25.511 M241.253 25.756 C 240.988 25.789,240.554 25.789,240.289 25.756 C 240.024 25.723,240.241 25.696,240.771 25.696 C 241.301 25.696,241.518 25.723,241.253 25.756 M243.553 25.903 C 243.331 25.937,242.930 25.937,242.664 25.904 C 242.397 25.871,242.580 25.844,243.069 25.843 C 243.558 25.842,243.776 25.869,243.553 25.903 M292.365 44.922 L 292.365 64.047 291.401 64.047 L 290.437 64.047 290.437 44.922 L 290.437 25.797 291.401 25.797 L 292.365 25.797 292.365 44.922 M245.775 26.051 C 245.550 26.085,245.183 26.085,244.959 26.051 C 244.735 26.017,244.918 25.990,245.367 25.990 C 245.815 25.990,245.999 26.017,245.775 26.051 M248.073 26.198 C 247.889 26.233,247.589 26.233,247.405 26.198 C 247.222 26.163,247.372 26.134,247.739 26.134 C 248.106 26.134,248.256 26.163,248.073 26.198 M258.974 27.646 L 276.806 28.733 277.321 29.126 C 277.719 29.430,277.835 29.625,277.835 29.993 C 277.835 30.254,277.671 35.004,277.470 40.549 L 277.104 50.630 277.688 52.548 L 278.271 54.466 277.530 70.191 L 276.790 85.915 276.038 87.466 C 274.940 89.731,273.996 90.752,272.241 91.575 L 270.872 92.216 268.386 92.218 C 263.765 92.220,238.096 91.339,235.993 91.106 L 233.959 90.881 232.488 89.806 C 230.244 88.168,228.892 85.765,229.034 83.668 L 229.085 82.903 232.074 82.927 C 236.180 82.959,237.188 82.544,237.320 80.767 C 237.467 78.769,235.691 77.994,230.949 77.986 C 229.395 77.984,229.355 77.975,229.357 77.650 C 229.358 77.467,229.557 73.814,229.800 69.533 C 230.043 65.252,230.242 61.616,230.243 61.453 C 230.244 61.165,230.327 61.158,233.050 61.207 C 237.134 61.281,238.344 60.803,238.507 59.052 C 238.684 57.158,237.063 56.384,232.762 56.308 L 230.526 56.268 230.613 54.709 C 230.695 53.245,230.922 52.366,234.364 40.191 L 238.028 27.231 238.676 26.818 C 239.255 26.448,239.420 26.413,240.233 26.481 C 240.733 26.524,249.166 27.047,258.974 27.646 M54.114 28.012 C 64.755 28.156,71.360 28.280,68.792 28.288 C 66.223 28.295,57.358 28.247,49.091 28.179 C 32.126 28.041,32.861 28.002,31.784 29.081 C 30.745 30.122,30.583 30.993,30.160 37.806 C 29.715 44.980,29.745 45.314,30.953 46.583 C 31.463 47.118,31.984 47.506,32.373 47.639 C 32.776 47.778,32.963 47.920,32.918 48.054 C 32.879 48.166,32.824 48.843,32.796 49.558 L 32.744 50.858 31.095 49.298 L 29.447 47.739 28.672 47.739 C 27.479 47.739,27.428 47.784,27.427 48.830 C 27.425 51.028,27.236 53.076,27.034 53.076 C 26.925 53.076,26.836 52.960,26.837 52.817 C 26.838 52.674,27.037 47.387,27.280 41.067 C 27.523 34.748,27.722 29.160,27.723 28.651 L 27.724 27.724 31.245 27.738 C 33.182 27.745,43.473 27.869,54.114 28.012 M97.952 28.582 C 98.079 28.663,98.191 30.849,98.355 36.474 C 98.480 40.754,98.620 45.039,98.665 45.997 L 98.748 47.739 97.966 47.742 L 97.183 47.745 95.293 49.535 L 93.403 51.324 93.403 52.200 L 93.403 53.076 85.507 53.076 C 80.497 53.076,77.422 53.020,77.093 52.923 C 76.766 52.826,72.239 52.740,64.789 52.689 C 53.714 52.614,51.867 52.647,46.219 53.022 L 45.070 53.099 45.070 50.716 L 45.070 48.332 46.635 48.332 L 48.199 48.332 52.347 50.019 C 56.321 51.634,56.502 51.692,56.655 51.408 C 56.861 51.023,56.995 51.096,53.408 49.648 C 51.755 48.981,50.431 48.408,50.465 48.374 C 50.498 48.340,56.681 48.361,64.203 48.420 L 77.881 48.527 81.298 49.910 C 84.680 51.279,84.942 51.340,84.950 50.760 C 84.951 50.669,83.908 50.168,82.632 49.648 L 80.311 48.703 87.116 48.620 C 95.609 48.517,95.541 48.535,96.687 46.007 L 97.117 45.058 96.663 38.356 C 96.085 29.828,95.934 29.360,93.536 28.710 C 92.746 28.495,92.768 28.492,95.256 28.481 C 96.642 28.475,97.855 28.520,97.952 28.582 M241.425 28.639 C 240.809 28.752,240.548 28.905,239.999 29.474 L 239.326 30.170 236.620 38.769 L 233.914 47.368 234.004 48.756 L 234.094 50.144 234.939 51.318 C 235.403 51.963,235.855 52.550,235.942 52.621 C 236.413 53.006,244.825 53.544,256.931 53.963 C 263.740 54.199,270.017 54.424,270.881 54.464 L 272.452 54.536 273.016 53.780 C 274.133 52.284,274.223 51.547,274.434 42.173 C 274.621 33.898,274.594 31.578,274.306 31.040 C 273.944 30.363,273.164 30.281,258.166 29.350 C 243.470 28.438,242.699 28.406,241.425 28.639 M69.122 29.074 C 94.216 29.244,93.443 29.215,94.478 30.005 C 95.344 30.665,95.440 31.224,95.928 38.436 L 96.367 44.923 95.915 45.879 C 94.950 47.922,94.973 47.918,85.471 47.859 L 78.058 47.813 76.445 47.146 L 74.833 46.479 78.188 46.439 L 81.542 46.399 81.542 46.031 L 81.542 45.663 71.905 45.663 L 62.268 45.663 62.268 46.034 L 62.268 46.405 67.454 46.405 L 72.640 46.405 74.163 47.011 C 75.001 47.344,75.719 47.652,75.760 47.695 C 75.801 47.738,69.663 47.730,62.120 47.677 L 48.406 47.580 47.371 47.178 L 46.337 46.775 49.855 46.736 L 53.373 46.696 53.373 46.304 L 53.373 45.912 46.232 46.010 C 42.305 46.064,37.968 46.108,36.595 46.108 L 34.099 46.108 34.099 46.485 L 34.099 46.861 39.327 46.843 C 44.500 46.825,44.564 46.828,45.345 47.171 L 46.135 47.517 40.080 47.473 C 30.212 47.403,30.345 47.531,30.843 38.577 C 31.422 28.157,30.869 28.751,39.881 28.852 C 43.102 28.887,56.261 28.988,69.122 29.074 M247.534 29.457 C 247.792 29.555,247.804 28.690,247.368 41.142 C 247.165 46.931,246.999 51.955,246.999 52.306 L 246.998 52.944 245.701 52.848 C 239.261 52.375,236.397 52.032,236.138 51.702 C 234.282 49.333,234.248 48.745,235.705 44.159 C 236.284 42.336,237.491 38.514,238.387 35.665 C 240.543 28.814,240.196 29.161,244.755 29.300 C 246.171 29.343,247.422 29.413,247.534 29.457 M260.549 30.248 C 267.075 30.658,272.673 31.071,272.989 31.166 C 273.955 31.455,273.946 31.296,273.684 43.069 C 273.510 50.883,273.344 52.243,272.438 53.263 L 271.979 53.780 259.904 53.349 C 253.262 53.112,247.801 52.891,247.767 52.858 C 247.734 52.824,247.882 47.739,248.095 41.558 C 248.309 35.376,248.483 30.135,248.482 29.911 C 248.481 29.687,248.526 29.503,248.582 29.503 C 248.637 29.503,254.023 29.839,260.549 30.248 M286.350 32.061 C 286.388 32.244,286.691 35.497,287.023 39.288 C 287.354 43.080,287.661 46.399,287.704 46.664 C 287.874 47.710,284.732 47.074,284.209 45.956 C 283.820 45.126,283.886 35.891,284.297 33.655 C 284.588 32.070,286.106 30.892,286.350 32.061 M106.766 43.228 C 107.845 43.786,108.500 48.034,107.814 50.034 C 107.387 51.281,105.708 52.052,105.708 51.001 C 105.708 50.756,105.775 50.556,105.856 50.556 C 106.419 50.556,106.597 49.985,106.597 48.184 C 106.597 46.066,106.462 45.812,105.337 45.812 C 104.212 45.812,104.077 46.066,104.077 48.184 C 104.077 49.985,104.256 50.556,104.818 50.556 C 104.900 50.556,104.967 50.789,104.967 51.075 C 104.967 51.702,104.216 51.813,103.388 51.308 C 101.865 50.379,101.681 43.886,103.161 43.313 C 104.150 42.931,106.102 42.884,106.766 43.228 M22.627 44.105 C 24.023 45.019,23.845 50.715,22.381 51.947 C 21.632 52.577,20.756 52.507,20.756 51.816 C 20.756 51.531,20.823 51.297,20.904 51.297 C 21.467 51.297,21.646 50.726,21.646 48.925 C 21.646 46.808,21.510 46.553,20.385 46.553 C 19.261 46.553,19.125 46.808,19.125 48.925 C 19.125 50.726,19.304 51.297,19.867 51.297 C 19.948 51.297,20.015 51.506,20.015 51.762 C 20.015 52.405,18.982 52.311,18.356 51.611 C 17.083 50.187,17.527 44.693,18.978 43.917 C 19.507 43.633,22.112 43.767,22.627 44.105 M105.825 48.097 C 105.850 48.974,105.805 49.628,105.714 49.720 C 105.607 49.826,105.560 49.590,105.560 48.955 C 105.560 48.073,105.545 48.036,105.189 48.036 C 104.818 48.036,104.612 46.957,104.924 46.645 C 105.461 46.108,105.782 46.626,105.825 48.097 M20.843 48.925 C 20.850 49.781,20.829 50.132,20.798 49.703 C 20.746 48.997,20.708 48.925,20.385 48.925 C 20.063 48.925,20.025 48.996,19.976 49.703 C 19.945 50.143,19.909 49.832,19.894 48.987 C 19.864 47.357,19.897 47.260,20.454 47.325 C 20.829 47.368,20.830 47.373,20.843 48.925 M34.165 52.866 C 34.435 53.064,34.424 53.076,33.979 53.076 L 33.506 53.076 33.506 50.803 C 33.506 47.874,33.707 47.656,33.803 50.481 C 33.869 52.414,33.909 52.680,34.165 52.866 M44.329 50.787 L 44.329 53.076 43.884 53.076 L 43.440 53.076 43.736 52.780 C 44.004 52.511,44.033 52.286,44.033 50.399 C 44.033 49.047,44.085 48.347,44.181 48.406 C 44.269 48.461,44.329 49.421,44.329 50.787 M30.780 50.055 L 32.468 51.630 32.468 52.353 L 32.468 53.076 30.222 53.076 L 27.975 53.076 28.072 51.408 C 28.124 50.491,28.168 49.457,28.168 49.110 C 28.170 47.961,28.766 48.177,30.780 50.055 M43.217 50.408 L 43.217 52.261 38.918 52.261 L 34.618 52.261 34.576 50.565 C 34.553 49.632,34.568 48.781,34.609 48.672 C 34.670 48.514,35.516 48.483,38.951 48.515 L 43.217 48.554 43.217 50.408 M98.444 49.110 C 98.444 49.457,98.488 50.491,98.541 51.408 L 98.637 53.076 96.390 53.076 L 94.144 53.076 94.144 52.372 L 94.144 51.668 95.812 50.082 C 97.809 48.182,98.443 47.948,98.444 49.110 M80.726 54.697 C 85.883 56.136,85.552 56.003,86.148 56.885 C 86.414 57.277,86.644 57.616,86.660 57.639 C 86.675 57.661,87.411 57.816,88.294 57.984 L 89.899 58.288 91.134 57.978 L 92.368 57.669 94.177 58.125 C 96.469 58.704,96.087 58.393,98.068 61.301 C 99.932 64.038,100.348 65.229,99.444 65.236 C 99.261 65.238,95.541 65.400,91.179 65.597 C 85.088 65.871,82.959 65.919,82.007 65.804 L 80.767 65.653 79.857 64.667 C 79.357 64.125,78.681 63.399,78.354 63.053 L 77.761 62.424 71.905 62.143 C 66.936 61.903,64.938 61.878,58.710 61.973 L 51.371 62.085 49.592 62.709 C 47.820 63.330,47.809 63.336,46.800 64.431 L 45.787 65.530 36.996 65.530 L 28.205 65.530 27.260 65.178 C 26.358 64.843,26.305 64.795,26.063 64.104 C 25.578 62.717,25.883 61.916,27.545 60.212 L 28.688 59.040 30.402 58.508 C 32.288 57.922,34.279 57.676,37.158 57.674 L 38.808 57.672 39.416 56.884 L 40.024 56.096 44.067 54.809 C 48.937 53.258,46.882 53.398,63.973 53.455 L 76.427 53.497 80.726 54.697 M27.331 55.041 C 27.383 55.713,27.426 56.607,27.427 57.026 C 27.428 57.908,27.509 57.969,28.677 57.969 C 29.432 57.969,29.517 57.924,31.333 56.558 L 33.210 55.146 33.210 54.466 C 33.210 53.907,33.251 53.802,33.444 53.876 C 33.573 53.925,36.025 53.972,38.893 53.979 L 44.107 53.991 41.856 54.721 C 39.623 55.445,39.600 55.457,39.039 56.185 L 38.473 56.918 36.990 56.926 C 32.290 56.951,28.669 57.846,27.291 59.323 L 26.549 60.119 26.544 56.968 L 26.538 53.818 26.887 53.818 C 27.217 53.818,27.241 53.882,27.331 55.041 M32.468 54.302 C 32.468 54.745,32.331 54.889,30.840 56.007 C 28.925 57.442,28.170 57.650,28.168 56.746 C 28.168 56.481,28.124 55.713,28.072 55.041 L 27.977 53.818 30.223 53.818 L 32.468 53.818 32.468 54.302 M93.403 54.482 L 93.403 55.146 95.293 56.569 L 97.183 57.991 98.036 57.943 L 98.889 57.895 98.881 59.526 C 98.873 60.970,98.849 61.123,98.664 60.860 C 98.549 60.697,98.069 59.996,97.597 59.303 L 96.738 58.043 94.663 57.479 L 92.587 56.915 91.239 57.216 C 89.936 57.508,89.843 57.509,88.516 57.271 L 87.142 57.024 86.617 56.234 C 86.162 55.549,85.992 55.415,85.337 55.229 C 84.921 55.110,83.647 54.748,82.506 54.424 L 80.430 53.834 86.916 53.826 L 93.403 53.818 93.403 54.482 M98.540 55.041 C 98.488 55.713,98.445 56.481,98.444 56.746 C 98.443 57.650,97.687 57.442,95.773 56.007 C 94.281 54.889,94.144 54.745,94.144 54.302 L 94.144 53.818 96.390 53.818 L 98.635 53.818 98.540 55.041 M205.041 55.078 C 208.425 55.196,211.744 55.295,212.416 55.297 C 213.907 55.301,214.509 55.729,215.306 57.355 L 215.789 58.339 215.752 62.257 C 215.731 64.411,215.680 66.208,215.639 66.249 C 215.598 66.290,202.405 65.609,186.322 64.736 C 170.238 63.863,156.834 63.150,156.535 63.153 C 155.977 63.158,155.074 62.577,155.081 62.218 C 155.083 62.123,155.613 60.878,156.258 59.451 L 157.431 56.857 158.342 56.443 C 160.808 55.324,188.751 54.507,205.041 55.078 M298.198 59.549 C 300.291 61.968,301.974 63.976,301.937 64.013 C 301.901 64.049,299.899 64.030,297.488 63.970 L 293.106 63.860 293.106 59.506 L 293.106 55.152 293.749 55.152 L 294.392 55.152 298.198 59.549 M194.964 56.773 C 194.529 57.587,195.013 59.701,195.454 58.912 C 195.537 58.764,195.601 58.274,195.597 57.824 C 195.585 56.596,195.307 56.133,194.964 56.773 M196.141 56.714 C 195.838 57.079,195.789 58.571,196.068 58.926 C 196.436 59.392,196.712 58.960,196.755 57.852 C 196.796 56.778,196.517 56.261,196.141 56.714 M197.195 56.761 C 196.917 57.280,196.994 58.775,197.313 59.064 C 197.575 59.301,197.598 59.301,197.700 59.050 C 198.114 58.043,197.645 55.919,197.195 56.761 M198.368 56.710 C 197.814 57.377,198.178 59.714,198.745 59.135 C 199.040 58.833,199.074 56.979,198.789 56.694 C 198.591 56.496,198.544 56.498,198.368 56.710 M199.421 56.756 C 199.171 57.224,199.213 58.933,199.481 59.155 C 199.894 59.498,200.081 59.112,200.059 57.966 C 200.035 56.763,199.729 56.181,199.421 56.756 M200.595 56.707 C 200.280 57.086,200.234 58.667,200.525 59.111 C 200.935 59.737,201.217 59.272,201.217 57.969 C 201.217 56.773,200.965 56.261,200.595 56.707 M201.801 56.869 C 201.558 57.402,201.593 59.018,201.856 59.365 C 202.136 59.736,202.750 59.295,202.536 58.877 C 202.469 58.744,202.458 58.250,202.512 57.778 C 202.575 57.234,202.554 56.876,202.455 56.800 C 202.071 56.507,201.960 56.519,201.801 56.869 M203.117 56.847 C 202.712 57.912,203.075 60.133,203.573 59.641 C 203.879 59.340,203.840 56.964,203.525 56.678 C 203.290 56.466,203.257 56.480,203.117 56.847 M204.462 56.756 C 204.231 57.188,204.254 59.332,204.493 59.659 C 204.856 60.156,205.081 59.590,205.081 58.177 C 205.081 56.771,204.800 56.125,204.462 56.756 M235.654 57.248 C 237.599 57.591,238.354 58.629,237.444 59.710 C 236.903 60.353,236.209 60.489,233.489 60.487 C 230.207 60.484,230.393 60.564,230.393 59.156 C 230.393 57.478,230.494 57.107,230.966 57.043 C 231.646 56.950,234.731 57.086,235.654 57.248 M294.737 59.923 L 294.737 62.238 296.724 62.344 C 297.817 62.403,298.786 62.426,298.877 62.396 C 299.004 62.353,296.426 59.356,294.947 57.826 C 294.765 57.638,294.737 57.924,294.737 59.923 M297.251 61.583 C 297.254 61.654,297.049 61.671,296.794 61.620 C 296.539 61.569,296.139 61.527,295.904 61.527 L 295.478 61.527 295.481 60.526 L 295.483 59.526 296.364 60.489 C 296.848 61.019,297.247 61.511,297.251 61.583 M71.609 62.861 C 74.666 63.022,77.244 63.154,77.335 63.155 C 77.427 63.157,77.883 63.592,78.349 64.122 L 79.195 65.085 63.238 65.085 L 47.280 65.085 47.731 64.525 C 48.123 64.037,48.405 63.890,49.924 63.381 L 51.668 62.797 58.191 62.709 C 61.779 62.661,65.015 62.610,65.382 62.596 C 65.749 62.582,68.551 62.701,71.609 62.861 M180.495 65.166 C 193.291 65.858,203.788 66.452,203.820 66.484 C 203.852 66.516,203.706 68.766,203.495 71.485 C 203.284 74.203,203.111 76.522,203.112 76.639 C 203.113 76.756,202.889 76.589,202.615 76.268 C 202.340 75.948,201.340 74.962,200.391 74.077 L 198.667 72.469 196.480 71.805 C 194.318 71.148,194.250 71.138,190.734 70.927 C 188.777 70.809,183.006 70.420,177.910 70.062 L 168.643 69.411 166.790 69.677 L 164.937 69.943 163.010 71.254 C 161.361 72.375,154.491 76.409,154.395 76.312 C 154.377 76.294,154.440 75.646,154.536 74.874 L 154.709 73.469 155.301 73.431 C 155.627 73.410,156.309 73.353,156.818 73.303 L 157.742 73.213 158.114 72.035 L 158.487 70.856 158.265 68.452 C 158.144 67.131,158.044 66.000,158.044 65.939 C 158.043 65.879,157.776 65.787,157.450 65.735 C 156.918 65.650,156.857 65.597,156.857 65.215 C 156.857 64.827,156.811 64.789,156.338 64.789 C 155.810 64.789,155.749 64.695,155.903 64.121 C 155.969 63.875,156.089 63.831,156.605 63.865 C 156.948 63.888,167.698 64.473,180.495 65.166 M341.512 65.082 C 364.181 65.237,382.753 65.367,382.783 65.372 C 382.814 65.378,382.764 65.471,382.674 65.580 C 382.563 65.714,382.497 67.374,382.471 70.719 L 382.431 75.661 381.987 75.019 L 381.542 74.377 352.422 74.475 C 336.405 74.529,316.175 74.574,307.465 74.574 L 291.628 74.574 291.168 75.484 C 290.804 76.206,290.750 76.420,290.907 76.519 C 291.267 76.748,291.413 76.656,291.729 76.005 L 292.042 75.360 336.569 75.251 L 381.095 75.142 381.575 75.711 C 381.839 76.023,382.146 76.262,382.256 76.241 C 382.519 76.191,382.654 81.129,382.654 90.832 L 382.654 97.850 381.653 97.860 C 381.103 97.865,377.183 97.955,372.943 98.059 C 368.703 98.163,365.191 98.227,365.140 98.200 C 365.088 98.173,364.395 96.966,363.599 95.517 C 362.803 94.069,361.253 91.416,360.153 89.622 L 358.155 86.360 355.514 84.211 L 352.873 82.061 349.702 80.864 C 346.926 79.817,346.144 79.591,343.428 79.048 L 340.326 78.428 336.885 78.428 C 333.699 78.428,333.191 78.467,330.046 78.947 L 326.650 79.465 323.085 81.208 L 319.520 82.950 316.176 86.043 L 312.832 89.136 310.353 93.919 L 307.874 98.701 300.824 98.796 C 296.946 98.849,292.946 98.933,291.935 98.983 L 290.097 99.075 290.193 93.681 C 290.245 90.715,290.323 84.018,290.366 78.799 C 290.409 73.580,290.483 68.293,290.530 67.050 L 290.617 64.789 295.457 64.795 C 298.119 64.798,318.844 64.927,341.512 65.082 M156.116 65.888 C 156.116 66.189,156.208 66.261,156.709 66.345 C 157.035 66.401,157.303 66.490,157.304 66.544 C 157.305 66.598,157.347 66.798,157.398 66.988 L 157.491 67.335 156.099 67.235 C 155.334 67.181,154.590 67.104,154.448 67.064 C 154.264 67.013,154.188 67.078,154.188 67.287 C 154.188 68.015,153.741 68.225,152.755 67.960 C 152.432 67.874,152.392 67.106,152.644 65.864 C 152.754 65.321,156.116 65.344,156.116 65.888 M291.920 66.049 L 291.920 66.420 298.423 66.420 L 304.925 66.420 305.019 67.198 C 305.070 67.626,305.113 68.193,305.114 68.458 L 305.115 68.940 298.766 68.940 L 292.416 68.940 292.094 69.283 C 291.676 69.728,291.684 70.289,292.115 70.693 L 292.458 71.016 336.863 71.016 L 381.268 71.016 381.590 70.672 C 382.159 70.067,381.759 68.940,380.976 68.940 C 380.696 68.940,380.675 68.731,380.822 67.331 L 380.917 66.420 381.637 66.420 C 382.306 66.420,382.357 66.393,382.357 66.049 L 382.357 65.678 337.139 65.678 L 291.920 65.678 291.920 66.049 M27.479 66.049 C 27.932 66.238,29.350 66.271,37.042 66.271 C 44.888 66.271,46.096 66.242,46.256 66.049 C 46.574 65.666,79.696 65.718,80.124 66.101 C 80.782 66.693,82.520 66.730,91.207 66.340 C 95.624 66.142,99.264 66.005,99.296 66.036 C 99.327 66.068,99.304 69.432,99.246 73.513 L 99.139 80.932 98.161 81.709 C 97.623 82.136,96.912 82.705,96.581 82.973 L 95.978 83.460 96.432 82.543 L 96.887 81.627 96.887 76.432 C 96.887 70.509,96.849 70.299,95.564 69.115 C 94.209 67.866,97.408 67.976,62.639 67.976 L 31.801 67.976 31.060 68.371 C 30.116 68.873,29.461 69.559,29.029 70.497 C 28.560 71.516,28.493 81.184,28.947 82.190 C 29.248 82.856,29.397 82.946,27.437 81.273 C 26.739 80.677,26.173 80.093,26.180 79.976 C 26.187 79.859,26.203 76.627,26.217 72.795 L 26.242 65.827 26.594 65.827 C 26.788 65.827,27.186 65.927,27.479 66.049 M306.366 67.865 C 306.277 69.139,306.131 69.727,305.953 69.523 C 305.923 69.488,305.854 68.775,305.802 67.939 L 305.706 66.420 306.087 66.420 L 306.467 66.420 306.366 67.865 M324.833 67.216 C 324.833 67.655,324.875 68.222,324.926 68.477 L 325.019 68.940 316.030 68.940 L 307.042 68.940 307.042 68.591 C 307.042 68.399,307.085 67.832,307.138 67.331 L 307.233 66.420 316.033 66.420 L 324.833 66.420 324.833 67.216 M326.229 67.420 C 326.040 69.924,325.833 70.392,325.671 68.681 C 325.488 66.743,325.526 66.420,325.940 66.420 C 326.299 66.420,326.303 66.435,326.229 67.420 M344.553 66.901 C 344.554 67.166,344.596 67.734,344.648 68.162 L 344.741 68.940 335.825 68.940 L 326.909 68.940 326.910 68.236 C 326.911 67.848,326.953 67.281,327.004 66.976 L 327.096 66.420 335.824 66.420 L 344.552 66.420 344.553 66.901 M345.982 67.198 C 345.930 67.626,345.887 68.277,345.885 68.643 C 345.882 69.263,345.690 69.838,345.541 69.677 C 345.505 69.639,345.429 68.890,345.370 68.013 L 345.264 66.420 345.670 66.420 C 346.072 66.420,346.075 66.426,345.982 67.198 M361.654 67.331 C 361.707 67.832,361.749 68.399,361.749 68.591 L 361.749 68.940 354.188 68.940 L 346.627 68.940 346.628 68.458 C 346.629 68.193,346.672 67.626,346.723 67.198 L 346.817 66.420 354.188 66.420 L 361.559 66.420 361.654 67.331 M363.009 67.717 C 362.959 68.430,362.887 69.164,362.850 69.348 C 362.727 69.950,362.491 69.696,362.491 68.962 C 362.491 68.566,362.448 67.832,362.395 67.331 L 362.300 66.420 362.700 66.420 L 363.099 66.420 363.009 67.717 M378.703 67.198 C 378.754 67.626,378.797 68.193,378.798 68.458 L 378.799 68.940 371.238 68.940 L 363.677 68.940 363.677 68.591 C 363.677 68.399,363.720 67.832,363.772 67.331 L 363.867 66.420 371.238 66.420 L 378.610 66.420 378.703 67.198 M380.050 67.865 C 379.962 69.139,379.815 69.727,379.638 69.523 C 379.607 69.488,379.539 68.775,379.486 67.939 L 379.391 66.420 379.771 66.420 L 380.151 66.420 380.050 67.865 M233.129 66.932 C 232.816 67.244,232.765 67.433,232.765 68.273 C 232.765 69.113,232.816 69.301,233.129 69.614 L 233.493 69.978 249.660 69.978 L 265.827 69.978 265.827 70.356 C 265.827 71.819,266.452 72.053,270.348 72.053 C 274.439 72.053,274.616 71.978,274.911 70.126 C 275.241 68.053,275.220 67.348,274.815 66.944 L 274.439 66.568 253.966 66.568 L 233.493 66.568 233.129 66.932 M25.493 73.863 L 25.472 80.566 26.885 81.758 C 28.044 82.736,28.535 83.287,28.280 83.327 C 27.897 83.387,13.796 83.908,12.528 83.909 C 9.809 83.912,9.667 83.871,9.268 82.965 L 8.935 82.209 9.332 77.910 C 9.844 72.372,9.583 72.936,12.958 70.078 C 16.698 66.911,15.953 67.175,21.171 67.167 L 25.514 67.161 25.493 73.863 M109.013 67.479 C 109.356 67.653,109.931 68.037,110.291 68.331 L 110.945 68.866 107.225 68.940 C 102.007 69.044,102.076 68.985,102.076 73.314 C 102.076 77.711,101.949 77.613,107.635 77.613 C 113.266 77.613,113.169 77.684,113.241 73.522 L 113.288 70.860 114.106 71.559 C 115.486 72.738,115.557 72.978,116.001 77.916 L 116.387 82.209 116.051 82.972 C 115.652 83.879,115.509 83.918,112.618 83.907 C 110.310 83.898,97.576 83.392,97.490 83.306 C 97.454 83.270,97.987 82.791,98.675 82.240 L 99.926 81.239 99.926 78.005 C 99.926 76.226,99.970 73.058,100.024 70.965 L 100.122 67.161 104.255 67.161 C 108.188 67.161,108.419 67.176,109.013 67.479 M274.401 67.734 C 274.449 68.072,274.438 68.076,274.109 67.845 C 273.817 67.641,273.252 67.606,270.301 67.606 L 266.835 67.606 266.331 68.110 C 266.053 68.387,265.827 68.754,265.827 68.926 L 265.827 69.238 249.703 69.200 L 233.580 69.162 233.534 68.440 C 233.509 68.043,233.524 67.625,233.567 67.513 C 233.633 67.340,236.801 67.314,253.999 67.346 L 274.351 67.383 274.401 67.734 M156.466 68.000 L 157.039 68.095 156.978 69.475 C 156.905 71.140,157.001 71.034,155.779 70.805 C 154.527 70.570,154.610 70.697,154.726 69.184 L 154.825 67.902 155.359 67.904 C 155.653 67.905,156.151 67.948,156.466 68.000 M273.832 68.643 C 273.996 68.807,274.129 69.107,274.129 69.311 C 274.129 70.204,273.853 70.274,270.348 70.274 C 266.844 70.274,266.568 70.204,266.568 69.311 C 266.568 68.417,266.844 68.347,270.348 68.347 C 273.338 68.347,273.554 68.365,273.832 68.643 M94.218 69.038 C 95.760 69.870,96.121 70.674,96.172 73.388 C 96.210 75.411,96.201 75.492,96.017 74.772 C 93.962 66.686,81.778 68.628,82.474 76.931 C 83.126 84.710,94.460 85.431,96.072 77.795 C 96.167 77.345,96.194 77.795,96.168 79.392 C 96.124 82.186,95.775 82.976,94.218 83.816 L 93.625 84.136 62.787 84.136 C 32.983 84.136,31.932 84.127,31.431 83.860 C 30.704 83.473,30.124 82.903,29.749 82.209 C 29.286 81.350,29.249 71.577,29.706 70.719 C 30.246 69.703,31.075 69.032,32.098 68.781 C 32.342 68.721,46.286 68.682,63.084 68.695 L 93.625 68.718 94.218 69.038 M152.983 68.742 L 153.334 68.836 153.228 70.630 C 153.107 72.669,153.142 72.565,152.631 72.437 L 152.245 72.340 152.276 70.825 C 152.293 69.992,152.258 69.160,152.200 68.977 C 152.084 68.615,152.285 68.555,152.983 68.742 M13.855 69.738 C 12.613 70.289,12.416 70.945,12.480 74.309 C 12.556 78.246,12.498 78.206,18.087 78.206 C 23.773 78.206,23.647 78.304,23.647 73.907 C 23.647 70.755,23.622 70.656,22.627 69.913 C 22.102 69.521,14.679 69.373,13.855 69.738 M34.952 69.694 C 30.558 70.730,28.368 76.220,30.829 80.028 C 33.755 84.555,40.436 84.201,42.779 79.393 C 45.338 74.142,40.663 68.348,34.952 69.694 M206.333 69.796 C 205.438 70.204,205.900 70.798,206.854 70.466 C 207.630 70.197,212.404 70.262,213.109 70.552 C 213.575 70.744,213.828 70.578,213.750 70.130 C 213.643 69.519,207.545 69.244,206.333 69.796 M112.043 70.166 L 112.454 70.578 112.454 73.314 L 112.454 76.050 112.043 76.461 L 111.632 76.872 107.635 76.872 L 103.639 76.872 103.228 76.461 L 102.817 76.050 102.817 73.326 C 102.817 69.470,102.525 69.681,107.817 69.724 L 111.632 69.755 112.043 70.166 M305.115 69.978 C 305.115 70.314,292.793 70.460,292.587 70.126 C 292.335 69.719,292.866 69.681,298.897 69.681 C 305.016 69.681,305.115 69.686,305.115 69.978 M324.981 69.978 C 324.981 70.271,324.883 70.274,315.938 70.274 C 306.993 70.274,306.894 70.271,306.894 69.978 C 306.894 69.684,306.993 69.681,315.938 69.681 C 324.883 69.681,324.981 69.684,324.981 69.978 M344.700 69.978 C 344.700 70.271,344.601 70.274,335.730 70.274 C 326.859 70.274,326.761 70.271,326.761 69.978 C 326.761 69.685,326.859 69.681,335.730 69.681 C 344.601 69.681,344.700 69.685,344.700 69.978 M361.749 69.978 C 361.749 70.270,361.651 70.274,354.114 70.274 C 346.578 70.274,346.479 70.270,346.479 69.978 C 346.479 69.685,346.578 69.681,354.114 69.681 C 361.651 69.681,361.749 69.685,361.749 69.978 M378.799 69.978 C 378.799 70.270,378.700 70.274,371.164 70.274 C 363.627 70.274,363.529 70.270,363.529 69.978 C 363.529 69.685,363.627 69.681,371.164 69.681 C 378.700 69.681,378.799 69.685,378.799 69.978 M381.097 69.978 C 381.097 70.098,380.980 70.219,380.838 70.246 C 380.656 70.281,380.578 70.201,380.578 69.978 C 380.578 69.754,380.656 69.674,380.838 69.709 C 380.980 69.737,381.097 69.858,381.097 69.978 M179.837 70.942 C 185.096 71.303,190.367 71.643,191.549 71.697 C 193.487 71.784,193.924 71.859,195.980 72.449 L 198.262 73.104 199.966 74.691 C 203.158 77.663,214.298 91.237,217.465 96.013 L 220.030 99.881 219.689 100.719 C 219.501 101.179,219.304 101.540,219.251 101.519 C 219.197 101.499,218.402 101.182,217.484 100.815 L 215.814 100.148 212.614 96.133 C 210.854 93.925,207.046 89.117,204.151 85.448 C 198.131 77.818,197.915 77.602,195.723 77.021 C 194.335 76.653,172.243 75.909,168.329 76.099 L 166.680 76.178 164.458 77.452 C 160.713 79.598,158.355 80.553,157.079 80.440 C 156.113 80.355,152.103 78.858,152.117 78.588 C 152.120 78.541,154.069 77.402,156.448 76.056 C 158.827 74.711,161.777 72.947,163.003 72.136 L 165.234 70.662 166.864 70.407 C 167.761 70.267,168.895 70.182,169.385 70.218 C 169.874 70.254,174.577 70.580,179.837 70.942 M22.495 70.759 L 22.906 71.171 22.906 73.907 L 22.906 76.643 22.495 77.054 L 22.084 77.465 18.087 77.465 L 14.091 77.465 13.680 77.054 L 13.269 76.643 13.269 73.919 C 13.269 70.063,12.977 70.274,18.270 70.317 L 22.084 70.348 22.495 70.759 M38.577 70.581 C 42.863 72.025,44.166 77.289,41.052 80.581 C 38.112 83.689,33.080 82.911,31.174 79.055 C 28.782 74.215,33.462 68.858,38.577 70.581 M91.666 70.704 C 94.159 71.683,95.855 74.758,95.362 77.407 C 94.105 84.164,84.440 84.102,83.280 77.329 C 82.487 72.698,87.220 68.958,91.666 70.704 M207.042 70.667 C 206.041 70.900,205.781 71.144,206.063 71.589 C 206.170 71.758,206.286 71.760,206.765 71.598 C 207.449 71.367,212.050 71.389,212.957 71.628 C 213.545 71.783,213.780 71.663,213.786 71.207 C 213.791 70.820,208.282 70.379,207.042 70.667 M46.399 71.201 C 45.151 71.830,45.070 72.175,45.070 76.872 C 45.070 81.568,45.151 81.913,46.399 82.543 L 47.061 82.876 62.861 82.876 L 78.662 82.876 79.324 82.543 C 80.571 81.913,80.652 81.568,80.652 76.872 C 80.652 72.175,80.571 71.830,79.324 71.201 L 78.662 70.867 62.861 70.867 L 47.061 70.867 46.399 71.201 M273.733 71.127 C 273.549 71.261,272.619 71.312,270.348 71.312 C 268.078 71.312,267.148 71.261,266.964 71.127 C 266.759 70.977,267.402 70.941,270.348 70.941 C 273.295 70.941,273.938 70.977,273.733 71.127 M155.833 71.558 C 158.035 71.924,157.844 72.482,155.448 72.679 C 155.285 72.692,154.868 72.691,154.522 72.675 L 153.892 72.646 153.892 71.979 C 153.892 71.197,153.789 71.219,155.833 71.558 M79.026 71.833 C 79.864 72.266,79.911 72.537,79.911 76.872 C 79.911 81.207,79.864 81.477,79.026 81.910 C 78.368 82.251,47.355 82.251,46.696 81.910 C 45.859 81.477,45.812 81.207,45.812 76.872 C 45.812 72.565,45.860 72.278,46.666 71.841 C 47.286 71.504,78.376 71.497,79.026 71.833 M206.333 72.020 C 205.438 72.428,205.900 73.022,206.854 72.690 C 207.630 72.421,212.404 72.486,213.109 72.776 C 213.576 72.969,213.827 72.802,213.749 72.350 C 213.646 71.750,207.524 71.478,206.333 72.020 M206.635 73.028 C 205.938 73.246,205.813 73.418,206.063 73.813 C 206.170 73.982,206.286 73.983,206.765 73.822 C 207.449 73.591,212.050 73.613,212.957 73.852 C 213.545 74.007,213.780 73.887,213.786 73.430 C 213.792 72.924,208.008 72.598,206.635 73.028 M217.656 74.038 C 216.733 74.371,216.454 75.005,216.474 76.719 C 216.499 78.818,216.477 78.771,218.590 81.218 C 220.799 83.775,221.208 84.050,222.989 84.172 L 224.111 84.249 224.596 83.636 L 225.081 83.024 225.031 79.121 L 224.981 75.218 224.537 74.699 C 224.254 74.369,223.862 74.117,223.460 74.006 C 222.611 73.773,218.324 73.796,217.656 74.038 M206.333 74.244 C 205.438 74.652,205.900 75.246,206.854 74.914 C 207.630 74.644,212.404 74.710,213.109 75.000 C 213.576 75.193,213.827 75.026,213.749 74.574 C 213.646 73.974,207.524 73.702,206.333 74.244 M223.829 75.059 L 224.240 75.469 224.287 79.089 C 224.344 83.531,224.338 83.547,222.908 83.433 C 221.576 83.326,221.126 83.006,219.206 80.801 C 217.170 78.462,217.197 78.515,217.201 76.751 C 217.206 74.584,217.205 74.585,220.864 74.622 L 223.419 74.648 223.829 75.059 M206.635 75.252 C 205.938 75.470,205.813 75.642,206.063 76.037 C 206.170 76.205,206.288 76.207,206.765 76.049 C 207.455 75.819,212.069 75.838,212.957 76.074 C 213.545 76.230,213.780 76.112,213.786 75.654 C 213.792 75.152,207.995 74.826,206.635 75.252 M51.742 75.834 C 51.742 76.168,51.801 76.205,52.335 76.205 L 52.928 76.205 52.928 77.020 C 52.928 77.791,52.948 77.835,53.299 77.835 C 53.649 77.835,53.669 77.791,53.669 77.020 L 53.669 76.205 54.337 76.205 C 55.004 76.205,55.082 76.136,54.914 75.698 C 54.840 75.505,54.551 75.463,53.283 75.463 L 51.742 75.463 51.742 75.834 M55.893 75.760 C 54.905 76.749,55.683 78.132,57.228 78.132 C 58.555 78.132,58.858 77.884,58.858 76.798 C 58.858 75.711,58.555 75.463,57.228 75.463 C 56.387 75.463,56.133 75.520,55.893 75.760 M59.959 76.083 C 60.367 76.559,60.489 76.834,60.489 77.269 C 60.489 77.774,60.529 77.835,60.860 77.835 C 61.178 77.835,61.231 77.768,61.231 77.363 C 61.231 77.027,61.404 76.685,61.832 76.177 C 62.538 75.340,62.148 75.098,61.338 75.871 L 60.911 76.279 60.559 75.871 C 60.342 75.619,60.058 75.463,59.818 75.463 L 59.428 75.463 59.959 76.083 M63.454 75.760 C 62.466 76.749,63.244 78.132,64.789 78.132 C 66.116 78.132,66.420 77.884,66.420 76.798 C 66.420 75.711,66.116 75.463,64.789 75.463 C 63.949 75.463,63.694 75.520,63.454 75.760 M67.013 75.834 C 67.013 76.168,67.072 76.205,67.606 76.205 L 68.199 76.205 68.199 77.020 C 68.199 77.791,68.219 77.835,68.569 77.835 C 68.920 77.835,68.940 77.791,68.940 77.020 L 68.940 76.205 69.533 76.205 C 70.067 76.205,70.126 76.168,70.126 75.834 L 70.126 75.463 68.569 75.463 L 67.013 75.463 67.013 75.834 M71.262 76.612 C 70.723 77.749,70.721 77.762,71.047 77.813 C 71.228 77.841,71.401 77.791,71.431 77.702 C 71.499 77.498,72.943 77.484,72.943 77.687 C 72.943 77.769,73.114 77.835,73.324 77.835 C 73.774 77.835,73.745 77.663,73.070 76.316 C 72.414 75.008,71.989 75.078,71.262 76.612 M58.117 76.798 L 58.117 77.391 57.228 77.391 L 56.338 77.391 56.338 76.798 L 56.338 76.205 57.228 76.205 L 58.117 76.205 58.117 76.798 M65.678 76.798 L 65.678 77.391 64.789 77.391 L 63.899 77.391 63.899 76.798 L 63.899 76.205 64.789 76.205 L 65.678 76.205 65.678 76.798 M72.516 76.620 C 72.621 76.903,72.586 76.946,72.255 76.946 C 71.968 76.946,71.896 76.888,71.963 76.711 C 72.013 76.582,72.053 76.410,72.053 76.328 C 72.053 76.069,72.391 76.281,72.516 76.620 M206.523 76.555 C 205.486 76.944,205.824 77.687,206.876 77.330 C 207.653 77.067,212.078 77.132,213.027 77.421 C 213.863 77.676,214.121 76.955,213.306 76.641 C 212.595 76.366,207.207 76.298,206.523 76.555 M182.506 77.089 C 193.240 77.365,194.084 77.406,195.345 77.710 C 197.684 78.273,196.552 76.976,213.825 98.873 C 214.325 99.507,214.870 101.117,214.657 101.330 C 214.623 101.364,212.776 101.065,210.552 100.664 C 208.329 100.263,206.332 99.916,206.114 99.893 C 205.730 99.853,205.712 99.885,205.564 100.888 L 205.411 101.924 203.895 102.574 L 202.378 103.224 201.557 102.891 C 200.564 102.488,200.628 102.586,200.284 100.943 C 195.755 79.303,166.392 74.527,155.523 93.663 C 155.027 94.534,154.953 94.597,153.892 95.028 L 152.780 95.480 146.924 95.096 C 143.703 94.885,140.389 94.676,139.559 94.632 L 138.050 94.551 138.132 91.790 C 138.177 90.271,138.270 88.967,138.339 88.892 C 138.408 88.817,139.899 88.724,141.651 88.687 L 144.837 88.619 145.314 87.288 L 145.790 85.958 148.469 86.058 C 151.479 86.171,151.216 86.063,152.027 87.520 L 152.507 88.384 153.406 87.370 L 154.306 86.355 155.013 83.712 L 155.720 81.070 156.996 81.170 L 158.272 81.271 160.486 80.295 C 161.704 79.759,163.602 78.802,164.703 78.170 C 167.469 76.582,166.074 76.667,182.506 77.089 M235.079 79.087 C 236.568 79.539,237.082 80.657,236.205 81.535 C 235.500 82.239,234.134 82.400,230.662 82.188 L 229.106 82.093 229.167 80.594 C 229.201 79.770,229.259 79.002,229.296 78.888 C 229.390 78.598,233.990 78.756,235.079 79.087 M210.812 83.391 C 211.285 83.688,211.934 85.824,212.000 87.299 C 212.005 87.407,211.129 86.440,210.054 85.149 C 208.978 83.858,207.794 82.439,207.422 81.995 L 206.746 81.188 208.525 82.130 C 209.503 82.648,210.532 83.215,210.812 83.391 M180.469 82.658 C 197.172 85.599,205.512 104.856,196.141 118.844 C 185.235 135.121,160.395 131.850,154.197 113.320 C 148.593 96.567,163.127 79.605,180.469 82.658 M340.587 82.720 C 355.984 86.035,363.895 102.714,356.693 116.679 C 349.628 130.381,331.069 133.568,319.853 123.006 C 305.492 109.482,312.833 85.681,332.344 82.506 C 334.268 82.193,338.672 82.307,340.587 82.720 M33.839 87.695 L 38.367 91.549 38.476 92.847 C 38.536 93.560,38.643 94.144,38.714 94.144 C 38.785 94.144,38.844 95.278,38.844 96.664 L 38.844 99.185 39.214 99.185 L 39.585 99.185 39.585 96.887 C 39.585 95.623,39.642 94.589,39.713 94.589 C 39.783 94.589,41.468 94.825,43.456 95.113 C 46.669 95.580,47.272 95.627,48.862 95.540 C 50.405 95.455,50.840 95.485,52.017 95.762 C 52.768 95.938,53.464 96.035,53.563 95.976 C 53.662 95.918,54.017 95.648,54.352 95.377 L 54.960 94.885 62.820 94.885 L 70.680 94.885 71.441 95.491 L 72.201 96.096 73.573 95.771 C 74.759 95.490,75.195 95.459,76.798 95.539 C 78.437 95.620,79.071 95.571,82.283 95.110 C 84.281 94.823,85.966 94.589,86.027 94.589 C 86.088 94.589,86.138 95.623,86.138 96.887 L 86.138 99.185 86.509 99.185 L 86.879 99.185 86.879 97.206 C 86.879 96.118,86.923 94.416,86.976 93.422 L 87.073 91.617 91.758 87.823 L 96.442 84.029 97.762 84.120 C 98.488 84.170,99.622 84.214,100.282 84.218 C 101.458 84.226,101.475 84.231,101.113 84.478 C 99.819 85.359,98.822 86.833,98.645 88.125 C 98.538 88.904,98.547 88.898,98.021 88.536 C 95.317 86.676,91.391 88.534,90.947 91.883 C 90.670 93.975,92.260 96.428,94.197 96.898 L 94.621 97.001 94.515 98.575 C 94.457 99.440,94.388 100.171,94.362 100.199 C 94.074 100.504,33.682 100.638,33.588 100.334 C 33.557 100.232,33.491 99.500,33.442 98.707 L 33.353 97.265 34.076 96.899 C 38.405 94.705,36.874 88.194,32.024 88.168 C 30.721 88.161,29.867 88.478,28.945 89.312 L 28.348 89.851 28.244 88.817 C 28.070 87.082,27.142 85.477,25.834 84.647 L 25.198 84.244 27.128 84.137 C 28.205 84.077,29.059 83.966,29.059 83.885 C 29.059 83.635,29.217 83.761,33.839 87.695 M24.801 84.925 C 25.919 85.475,26.573 86.153,27.110 87.317 L 27.489 88.139 27.537 94.255 L 27.585 100.371 21.168 100.370 C 17.639 100.370,13.997 100.326,13.074 100.273 L 11.395 100.176 11.443 94.158 L 11.490 88.139 11.876 87.317 C 13.086 84.736,14.493 84.319,21.663 84.418 C 23.778 84.447,23.855 84.459,24.801 84.925 M94.683 84.470 C 94.644 84.531,92.743 86.082,90.457 87.917 L 86.302 91.253 86.294 92.229 L 86.286 93.205 69.583 93.304 C 60.396 93.358,49.826 93.403,46.095 93.403 L 39.312 93.403 39.215 92.402 C 39.162 91.851,39.106 91.356,39.092 91.301 C 39.078 91.245,37.341 89.728,35.234 87.928 C 32.172 85.315,31.501 84.679,31.898 84.767 C 33.069 85.028,93.589 84.895,94.144 84.630 C 94.771 84.331,94.772 84.331,94.683 84.470 M109.785 84.597 C 112.993 84.722,113.893 85.202,114.885 87.317 L 115.271 88.139 115.317 94.015 L 115.363 99.891 109.609 99.984 C 106.444 100.036,102.804 100.118,101.520 100.167 L 99.185 100.256 99.185 97.779 C 99.185 95.623,99.220 95.250,99.455 94.908 C 100.414 93.514,100.408 91.353,99.442 89.951 C 98.646 88.795,99.924 86.010,101.691 85.048 C 103.012 84.329,102.978 84.331,109.785 84.597 M43.972 86.768 C 43.313 87.787,44.053 89.632,45.420 90.377 L 46.139 90.769 53.088 90.660 L 60.037 90.550 60.308 89.823 C 60.748 88.644,60.483 87.269,59.724 86.790 L 59.161 86.434 51.674 86.434 L 44.188 86.434 43.972 86.768 M66.124 86.793 C 65.395 87.272,65.139 88.671,65.571 89.808 L 65.853 90.550 72.792 90.660 L 79.732 90.769 80.451 90.377 C 81.818 89.632,82.558 87.787,81.899 86.768 L 81.683 86.434 74.163 86.443 L 66.642 86.451 66.124 86.793 M137.551 86.650 C 137.574 86.673,137.507 89.049,137.403 91.931 L 137.213 97.171 135.137 97.135 L 133.062 97.098 132.582 96.562 C 132.182 96.116,132.113 95.937,132.170 95.493 C 132.207 95.199,132.313 93.191,132.405 91.030 C 132.620 85.998,132.382 86.362,135.360 86.506 C 136.542 86.563,137.528 86.628,137.551 86.650 M59.216 87.345 C 59.638 87.537,59.852 88.428,59.687 89.307 L 59.593 89.809 52.963 89.920 C 45.284 90.048,45.679 90.111,44.813 88.622 C 43.916 87.081,43.461 87.176,51.740 87.176 C 56.751 87.176,58.954 87.226,59.216 87.345 M81.394 87.473 C 81.524 87.716,81.462 87.929,81.058 88.622 C 80.192 90.111,80.587 90.048,72.908 89.920 L 66.278 89.809 66.183 89.300 C 66.042 88.552,66.217 87.731,66.580 87.435 C 67.109 87.003,81.162 87.039,81.394 87.473 M97.477 89.084 C 99.927 90.450,100.097 94.016,97.787 95.587 C 94.181 98.040,90.009 93.954,92.350 90.263 C 93.396 88.612,95.688 88.085,97.477 89.084 M33.566 89.181 C 37.407 90.786,36.199 96.583,32.024 96.583 C 28.067 96.583,26.735 91.874,29.993 89.404 C 30.757 88.825,32.460 88.719,33.566 89.181 M334.544 92.900 C 323.755 94.486,319.159 106.671,326.373 114.564 C 333.801 122.691,347.461 118.149,348.709 107.137 C 349.609 99.189,342.227 91.770,334.544 92.900 M174.500 93.060 C 163.988 94.827,159.922 107.755,167.556 115.142 C 175.740 123.061,189.371 117.259,189.371 105.856 C 189.371 97.934,182.202 91.766,174.500 93.060 M339.128 94.070 C 349.879 97.186,351.231 111.825,341.216 116.677 C 330.932 121.659,320.124 111.207,324.748 100.752 C 326.243 97.371,329.844 94.490,333.358 93.861 C 333.847 93.774,334.414 93.673,334.618 93.637 C 335.497 93.481,337.888 93.711,339.128 94.070 M179.615 94.052 C 184.957 95.496,188.646 100.318,188.646 105.856 C 188.646 116.856,175.204 122.192,167.655 114.189 C 160.940 107.070,164.853 95.658,174.648 93.793 C 175.430 93.645,178.745 93.818,179.615 94.052 M84.136 94.076 C 83.374 94.369,79.052 94.799,76.798 94.807 C 74.906 94.813,73.957 94.880,73.296 95.055 L 72.389 95.294 71.665 94.722 L 70.941 94.150 67.457 94.107 C 65.541 94.083,68.543 94.054,74.129 94.042 C 79.715 94.029,84.218 94.045,84.136 94.076 M54.559 94.200 C 54.559 94.231,54.269 94.494,53.915 94.784 L 53.271 95.312 52.099 95.008 C 51.091 94.747,50.645 94.717,48.925 94.790 C 47.268 94.861,46.528 94.816,44.626 94.528 L 42.328 94.180 48.443 94.162 C 51.807 94.152,54.559 94.169,54.559 94.200 M140.751 95.637 L 141.142 95.944 141.142 100.261 C 141.142 104.488,141.135 104.584,140.819 104.920 C 140.415 105.351,139.854 105.359,139.409 104.941 L 139.066 104.618 139.066 100.317 C 139.066 96.105,139.073 96.009,139.388 95.673 C 139.788 95.248,140.241 95.236,140.751 95.637 M175.024 95.495 C 165.292 96.913,162.749 109.905,171.226 114.898 C 178.164 118.985,186.953 113.932,186.953 105.856 C 186.953 99.471,181.320 94.578,175.024 95.495 M333.317 95.629 C 322.768 98.393,322.846 113.316,333.423 115.957 C 339.878 117.569,346.331 112.483,346.331 105.782 C 346.331 99.043,339.783 93.935,333.317 95.629 M148.045 95.932 L 152.948 96.232 153.654 95.929 C 154.043 95.763,154.382 95.626,154.407 95.626 C 154.432 95.626,154.193 96.287,153.876 97.094 C 152.933 99.498,152.261 102.785,152.261 105.000 C 152.261 105.718,152.219 105.856,152.001 105.853 C 151.640 105.848,142.019 104.262,141.953 104.197 C 141.924 104.168,141.879 102.199,141.854 99.822 L 141.809 95.501 142.476 95.566 C 142.843 95.602,145.349 95.767,148.045 95.932 M30.109 96.950 L 30.938 97.347 30.679 98.303 C 30.536 98.829,30.343 99.545,30.250 99.896 L 30.081 100.533 29.236 100.489 L 28.391 100.445 28.351 98.014 L 28.310 95.584 28.795 96.068 C 29.062 96.334,29.654 96.731,30.109 96.950 M98.443 98.147 C 98.443 100.110,98.428 100.222,98.152 100.222 C 97.935 100.222,97.819 100.063,97.695 99.592 C 97.603 99.246,97.401 98.499,97.246 97.932 C 96.964 96.904,97.005 96.681,97.480 96.663 C 97.561 96.660,97.795 96.527,97.999 96.368 C 98.202 96.208,98.386 96.076,98.406 96.074 C 98.427 96.073,98.443 97.005,98.443 98.147 M179.021 96.462 C 185.887 98.219,188.545 106.984,183.819 112.286 C 177.817 119.020,166.856 114.860,166.878 105.856 C 166.894 99.335,172.698 94.844,179.021 96.462 M338.234 96.364 C 348.082 98.882,347.863 113.071,337.942 115.278 C 329.714 117.109,323.200 108.090,327.498 100.815 C 329.665 97.148,334.104 95.307,338.234 96.364 M41.955 97.065 C 41.951 97.956,41.817 98.147,41.198 98.147 C 40.626 98.147,40.623 98.144,40.623 97.554 C 40.623 97.020,40.586 96.961,40.252 96.961 C 39.895 96.961,39.881 96.995,39.881 97.924 L 39.881 98.888 41.196 98.888 L 42.511 98.888 42.587 98.214 C 42.629 97.843,42.688 97.517,42.718 97.489 C 42.748 97.462,45.535 97.495,48.911 97.564 L 55.049 97.688 55.610 98.140 L 56.172 98.592 63.456 98.592 L 70.740 98.592 71.360 98.235 C 71.978 97.879,71.988 97.878,78.243 97.772 C 84.599 97.665,84.707 97.653,84.375 97.130 C 84.117 96.723,71.868 97.062,71.107 97.498 L 70.497 97.847 63.476 97.848 L 56.455 97.850 55.902 97.413 L 55.350 96.975 51.656 96.893 C 49.624 96.847,46.610 96.774,44.959 96.730 L 41.957 96.651 41.955 97.065 M96.683 98.703 L 97.086 100.222 96.134 100.222 C 95.037 100.222,95.098 100.365,95.278 98.236 L 95.375 97.094 95.827 97.138 C 96.269 97.182,96.290 97.219,96.683 98.703 M32.669 98.184 C 32.720 98.612,32.763 99.312,32.764 99.741 L 32.765 100.519 31.900 100.519 C 30.794 100.519,30.826 100.588,31.230 99.072 C 31.691 97.346,31.658 97.405,32.147 97.405 C 32.553 97.405,32.580 97.446,32.669 98.184 M176.036 98.020 C 175.540 98.266,175.341 98.836,175.583 99.320 L 175.784 99.723 174.876 100.010 L 173.968 100.297 174.023 99.920 C 174.150 99.069,173.076 98.492,172.381 99.039 C 171.720 99.558,171.957 100.815,172.716 100.815 C 172.823 100.815,172.618 101.132,172.260 101.520 L 171.610 102.224 171.213 101.816 C 170.739 101.329,170.375 101.302,169.849 101.716 C 169.127 102.284,169.483 103.484,170.374 103.484 C 170.773 103.484,170.817 103.524,170.734 103.818 C 170.683 104.001,170.599 104.438,170.548 104.789 C 170.473 105.300,170.407 105.407,170.216 105.326 C 169.658 105.090,169.356 105.111,168.974 105.411 C 167.974 106.198,168.956 107.712,170.085 107.125 C 170.482 106.919,170.491 106.925,170.640 107.461 C 170.850 108.218,170.846 108.228,170.357 108.228 C 169.482 108.228,169.136 109.435,169.849 109.997 C 170.375 110.410,170.738 110.383,171.216 109.896 L 171.616 109.489 172.122 110.056 C 172.598 110.590,172.593 110.883,172.108 110.895 C 171.509 110.909,171.742 112.372,172.391 112.668 C 173.099 112.990,174.198 112.081,173.826 111.480 C 173.756 111.366,173.790 111.334,173.923 111.389 C 174.036 111.437,174.503 111.587,174.961 111.724 L 175.793 111.972 175.587 112.383 C 175.320 112.919,175.556 113.476,176.156 113.725 C 176.998 114.073,177.845 113.230,177.474 112.414 C 177.387 112.224,177.317 112.044,177.317 112.012 C 177.317 111.958,178.828 111.490,179.003 111.490 C 179.049 111.490,179.052 111.579,179.011 111.687 C 178.768 112.320,179.617 113.097,180.349 112.913 C 181.274 112.681,181.324 111.257,180.419 110.922 C 180.157 110.825,180.191 110.754,180.779 110.176 L 181.430 109.538 181.813 109.921 C 182.273 110.382,182.780 110.411,183.219 110.002 C 183.891 109.376,183.493 108.228,182.605 108.228 C 182.152 108.228,182.150 108.220,182.400 107.383 C 182.547 106.890,182.632 106.789,182.805 106.899 C 183.517 107.349,184.433 106.863,184.433 106.036 C 184.433 105.179,183.684 104.788,182.786 105.176 C 182.596 105.258,182.529 105.162,182.460 104.715 C 182.412 104.405,182.330 104.009,182.278 103.836 C 182.199 103.571,182.246 103.521,182.572 103.521 C 183.516 103.521,183.906 102.308,183.153 101.716 C 182.634 101.308,182.276 101.328,181.813 101.791 L 181.430 102.174 180.790 101.546 L 180.151 100.919 180.513 100.634 C 181.029 100.228,181.010 99.461,180.473 99.039 C 179.820 98.524,179.014 98.862,178.821 99.731 L 178.725 100.161 178.009 99.958 C 177.428 99.792,177.315 99.708,177.406 99.506 C 177.854 98.519,176.969 97.559,176.036 98.020 M335.074 98.241 C 334.715 98.698,334.688 99.006,334.972 99.412 C 335.166 99.689,335.129 99.716,334.255 99.928 L 333.333 100.151 333.333 99.744 C 333.333 99.128,332.883 98.717,332.268 98.770 C 331.223 98.860,330.905 100.089,331.784 100.644 L 332.172 100.890 331.548 101.496 L 330.924 102.102 330.622 101.755 C 330.248 101.325,329.439 101.285,329.082 101.680 C 328.510 102.311,328.987 103.484,329.816 103.484 C 330.108 103.484,330.180 103.541,330.112 103.720 C 330.062 103.850,329.988 104.117,329.947 104.313 C 329.713 105.453,329.711 105.456,329.540 105.285 C 329.021 104.766,327.947 105.307,327.947 106.087 C 327.947 106.994,329.065 107.586,329.587 106.956 C 329.754 106.756,330.133 107.466,330.168 108.043 C 330.169 108.063,330.004 108.080,329.800 108.080 C 328.970 108.080,328.489 109.351,329.107 109.910 C 329.513 110.277,330.262 110.223,330.629 109.801 L 330.937 109.447 331.414 109.967 L 331.891 110.488 331.476 110.903 C 330.981 111.398,330.952 111.758,331.367 112.285 C 331.940 113.013,333.136 112.615,333.136 111.697 C 333.136 111.389,333.189 111.331,333.395 111.410 C 333.538 111.466,333.974 111.585,334.364 111.675 C 334.921 111.804,335.053 111.890,334.975 112.073 C 334.468 113.267,335.783 114.342,336.619 113.418 C 336.911 113.095,336.958 112.288,336.699 112.029 C 336.583 111.913,336.736 111.821,337.246 111.699 C 337.635 111.606,338.062 111.484,338.195 111.427 C 338.385 111.346,338.421 111.396,338.369 111.670 C 338.207 112.519,339.317 113.122,340.071 112.594 C 340.664 112.178,340.337 110.749,339.649 110.749 C 339.561 110.749,339.778 110.458,340.131 110.102 L 340.771 109.456 341.097 109.806 C 341.750 110.505,342.921 110.070,342.921 109.129 C 342.921 108.651,342.344 108.080,341.863 108.080 C 341.538 108.080,341.534 108.047,341.775 107.241 C 341.947 106.667,341.980 106.638,342.246 106.833 C 343.167 107.506,344.252 106.256,343.579 105.296 C 343.319 104.924,342.286 104.825,342.081 105.152 C 342.006 105.271,341.931 105.151,341.870 104.818 C 341.819 104.533,341.726 104.116,341.665 103.892 C 341.566 103.528,341.593 103.484,341.915 103.484 C 342.384 103.484,342.921 102.906,342.921 102.400 C 342.921 101.490,341.719 101.068,341.102 101.761 L 340.788 102.113 340.170 101.501 L 339.552 100.890 339.902 100.563 C 340.606 99.907,340.166 98.740,339.214 98.740 C 338.666 98.740,338.176 99.202,338.176 99.719 C 338.176 100.011,338.119 100.084,337.941 100.016 C 337.812 99.966,337.452 99.885,337.143 99.835 C 336.588 99.747,336.583 99.739,336.783 99.354 C 337.358 98.246,335.845 97.261,335.074 98.241 M269.194 98.999 C 269.665 99.677,270.172 101.109,269.942 101.113 C 264.856 101.193,220.250 101.544,220.210 101.505 C 220.177 101.472,220.314 101.076,220.513 100.625 L 220.876 99.805 220.525 99.288 L 220.174 98.772 220.576 98.692 C 220.798 98.648,223.480 98.600,226.538 98.586 C 229.596 98.572,238.936 98.478,247.294 98.377 C 255.652 98.276,263.865 98.183,265.546 98.170 L 268.600 98.147 269.194 98.999 M176.802 98.746 C 176.965 99.011,176.570 99.365,176.331 99.167 C 176.177 99.038,176.168 98.948,176.295 98.794 C 176.496 98.552,176.671 98.535,176.802 98.746 M336.101 98.888 C 336.101 99.195,335.743 99.297,335.582 99.036 C 335.458 98.836,335.625 98.592,335.887 98.592 C 336.005 98.592,336.101 98.725,336.101 98.888 M173.266 99.718 C 173.371 99.992,173.012 100.277,172.813 100.078 C 172.651 99.916,172.800 99.481,173.017 99.481 C 173.104 99.481,173.216 99.588,173.266 99.718 M180.084 99.713 C 180.200 100.018,179.966 100.246,179.703 100.083 C 179.479 99.944,179.582 99.481,179.837 99.481 C 179.924 99.481,180.035 99.586,180.084 99.713 M298.963 101.709 C 295.946 102.930,293.436 103.929,293.385 103.929 C 293.215 103.929,292.056 101.362,292.174 101.248 C 292.238 101.188,292.991 100.815,293.847 100.421 L 295.404 99.703 297.999 99.623 C 299.426 99.578,301.460 99.530,302.520 99.516 L 304.448 99.490 298.963 101.709 M332.654 99.740 C 332.735 99.984,332.270 100.158,332.071 99.958 C 331.986 99.873,331.963 99.727,332.021 99.634 C 332.152 99.422,332.571 99.493,332.654 99.740 M339.483 99.741 C 339.455 99.883,339.334 100.000,339.214 100.000 C 339.094 100.000,338.973 99.883,338.946 99.741 C 338.911 99.559,338.991 99.481,339.214 99.481 C 339.438 99.481,339.518 99.559,339.483 99.741 M336.872 100.537 C 339.684 101.134,341.577 103.814,341.133 106.571 C 340.198 112.369,332.074 112.689,330.666 106.983 C 329.747 103.259,333.132 99.744,336.872 100.537 M178.680 100.998 C 181.477 102.279,182.665 105.591,181.292 108.283 C 178.788 113.191,171.248 111.433,171.199 105.929 C 171.165 102.022,175.162 99.387,178.680 100.998 M116.981 100.845 L 117.750 101.022 117.645 105.181 C 117.586 107.469,117.496 109.381,117.443 109.430 C 117.351 109.515,112.960 109.689,102.743 110.010 C 80.302 110.717,53.095 110.770,30.319 110.152 C 23.363 109.963,12.750 109.592,11.008 109.477 L 9.637 109.387 9.638 106.621 C 9.638 105.099,9.680 103.415,9.731 102.878 L 9.823 101.901 10.657 101.452 L 11.490 101.004 21.349 101.121 C 43.260 101.382,83.754 101.238,104.299 100.828 C 113.403 100.646,116.135 100.649,116.981 100.845 M217.534 101.599 L 219.496 102.383 228.243 102.242 C 234.649 102.139,238.915 102.151,244.181 102.286 C 248.136 102.387,259.196 102.654,268.760 102.878 L 286.148 103.286 288.626 102.795 C 291.739 102.178,291.659 102.177,291.967 102.822 C 292.374 103.676,292.404 103.658,289.214 104.477 L 286.212 105.248 265.011 104.520 C 253.351 104.120,237.639 103.584,230.096 103.328 L 216.383 102.862 214.900 102.431 C 213.538 102.035,213.662 101.962,215.221 102.242 L 215.691 102.326 215.558 101.756 C 215.293 100.613,215.103 100.628,217.534 101.599 M32.024 101.992 C 28.400 103.098,27.899 107.876,31.236 109.509 C 33.867 110.796,37.064 108.833,37.064 105.930 C 37.064 103.401,34.351 101.281,32.024 101.992 M93.494 102.096 C 92.423 102.425,91.277 103.619,90.948 104.750 C 89.968 108.120,93.420 111.046,96.562 109.509 C 101.034 107.321,98.265 100.631,93.494 102.096 M170.767 102.496 C 170.799 102.662,170.715 102.743,170.508 102.743 C 170.338 102.743,170.200 102.654,170.200 102.545 C 170.200 102.091,170.680 102.049,170.767 102.496 M175.340 102.390 C 173.828 102.855,172.776 104.468,172.896 106.136 C 173.122 109.260,176.923 110.647,179.098 108.399 C 181.755 105.655,179.008 101.263,175.340 102.390 M182.776 102.496 C 182.808 102.662,182.724 102.743,182.516 102.743 C 182.347 102.743,182.209 102.654,182.209 102.545 C 182.209 102.091,182.689 102.049,182.776 102.496 M330.096 102.446 C 330.096 102.566,329.980 102.687,329.837 102.715 C 329.655 102.750,329.577 102.670,329.577 102.446 C 329.577 102.223,329.655 102.143,329.837 102.178 C 329.980 102.205,330.096 102.326,330.096 102.446 M334.506 102.371 C 330.949 103.917,331.767 109.145,335.604 109.389 C 337.756 109.526,339.511 107.906,339.511 105.782 C 339.511 103.303,336.727 101.406,334.506 102.371 M342.151 102.409 C 342.124 102.552,342.003 102.669,341.883 102.669 C 341.763 102.669,341.642 102.552,341.615 102.409 C 341.580 102.227,341.660 102.150,341.883 102.150 C 342.106 102.150,342.186 102.227,342.151 102.409 M33.980 102.769 C 35.806 103.316,36.796 105.467,36.014 107.191 C 34.686 110.119,30.486 109.734,29.819 106.622 C 29.290 104.157,31.569 102.047,33.980 102.769 M96.071 102.903 C 98.897 104.184,98.686 108.165,95.746 109.039 C 92.474 110.012,90.093 106.035,92.505 103.627 C 93.544 102.591,94.813 102.333,96.071 102.903 M336.570 103.488 C 337.672 103.794,338.473 105.231,338.165 106.347 C 337.569 108.506,334.700 108.827,333.739 106.842 C 332.804 104.910,334.492 102.911,336.570 103.488 M31.801 103.764 C 29.173 104.977,30.031 108.856,32.927 108.856 C 34.332 108.856,35.431 107.823,35.550 106.391 C 35.721 104.324,33.684 102.896,31.801 103.764 M93.852 103.719 C 92.127 104.467,91.658 106.638,92.930 107.982 C 94.995 110.162,98.461 107.973,97.396 105.162 C 96.896 103.843,95.177 103.144,93.852 103.719 M177.879 103.876 C 179.552 105.095,178.980 107.853,176.988 108.176 C 174.252 108.620,172.968 104.974,175.420 103.723 C 176.060 103.396,177.329 103.475,177.879 103.876 M299.447 105.273 L 302.817 106.914 307.191 107.730 C 309.596 108.179,311.605 108.591,311.654 108.647 C 311.704 108.702,311.823 109.214,311.918 109.785 C 312.014 110.356,312.131 111.006,312.179 111.231 C 312.237 111.504,312.205 111.638,312.081 111.638 C 311.614 111.638,300.551 108.766,300.228 108.561 C 299.836 108.312,295.242 104.758,294.904 104.443 C 294.727 104.277,295.304 103.872,296.037 103.645 C 296.060 103.638,297.594 104.371,299.447 105.273 M33.817 104.455 C 35.638 105.397,34.569 108.745,32.643 108.131 C 31.819 107.869,31.550 107.698,31.284 107.267 C 30.238 105.575,32.064 103.549,33.817 104.455 M95.769 104.445 C 97.826 105.508,96.624 108.685,94.398 108.070 C 93.184 107.735,92.583 106.204,93.249 105.144 C 93.767 104.319,94.911 104.001,95.769 104.445 M147.146 105.833 L 152.187 106.682 152.289 107.711 C 152.415 108.978,152.718 108.878,149.952 108.483 L 147.593 108.147 147.639 107.603 C 147.694 106.966,147.945 107.063,144.107 106.225 C 140.991 105.544,141.191 105.619,141.515 105.260 C 141.842 104.898,141.204 104.833,147.146 105.833 M183.665 106.054 C 183.698 106.220,183.613 106.301,183.406 106.301 C 183.237 106.301,183.099 106.212,183.099 106.103 C 183.099 105.649,183.579 105.607,183.665 106.054 M343.041 105.967 C 343.013 106.110,342.893 106.227,342.772 106.227 C 342.652 106.227,342.532 106.110,342.504 105.967 C 342.469 105.785,342.549 105.708,342.772 105.708 C 342.996 105.708,343.076 105.785,343.041 105.967 M169.856 106.094 C 169.961 106.367,169.602 106.652,169.403 106.453 C 169.242 106.291,169.390 105.856,169.607 105.856 C 169.694 105.856,169.806 105.963,169.856 106.094 M329.207 106.153 C 329.207 106.273,329.090 106.394,328.947 106.421 C 328.765 106.456,328.688 106.376,328.688 106.153 C 328.688 105.929,328.765 105.849,328.947 105.884 C 329.090 105.912,329.207 106.033,329.207 106.153 M330.096 109.128 C 330.096 109.243,329.980 109.359,329.837 109.386 C 329.581 109.435,329.476 109.121,329.679 108.917 C 329.835 108.762,330.096 108.894,330.096 109.128 M342.153 109.167 C 342.186 109.334,342.101 109.414,341.894 109.414 C 341.725 109.414,341.586 109.325,341.586 109.217 C 341.586 108.763,342.067 108.721,342.153 109.167 M170.765 109.229 C 170.737 109.372,170.617 109.489,170.497 109.489 C 170.377 109.489,170.256 109.372,170.228 109.229 C 170.193 109.047,170.273 108.970,170.497 108.970 C 170.720 108.970,170.800 109.047,170.765 109.229 M182.774 109.229 C 182.746 109.372,182.626 109.489,182.506 109.489 C 182.385 109.489,182.265 109.372,182.237 109.229 C 182.202 109.047,182.282 108.970,182.506 108.970 C 182.729 108.970,182.809 109.047,182.774 109.229 M20.682 110.607 C 22.557 110.681,24.879 110.743,25.842 110.745 L 27.591 110.749 27.547 118.199 L 27.502 125.649 27.116 126.471 C 26.566 127.644,25.915 128.315,24.787 128.870 L 23.802 129.355 19.499 129.355 L 15.196 129.355 14.374 128.969 C 13.201 128.419,12.530 127.768,11.975 126.640 L 11.490 125.656 11.445 117.958 L 11.401 110.261 14.336 110.367 C 15.951 110.425,18.807 110.533,20.682 110.607 M115.316 117.980 L 115.271 125.656 114.786 126.640 C 114.230 127.768,113.560 128.419,112.386 128.969 L 111.564 129.355 107.261 129.355 L 102.959 129.355 101.974 128.870 C 100.846 128.315,100.195 127.644,99.644 126.471 L 99.259 125.649 99.213 118.287 L 99.167 110.926 100.547 110.840 C 101.306 110.792,104.529 110.677,107.709 110.583 C 110.890 110.489,113.519 110.388,113.553 110.358 C 113.587 110.328,114.008 110.304,114.488 110.304 L 115.362 110.304 115.316 117.980 M41.044 111.142 L 43.291 111.240 43.291 112.545 L 43.291 113.851 40.104 113.894 L 36.916 113.936 36.916 112.491 L 36.916 111.045 37.856 111.045 C 38.373 111.045,39.808 111.089,41.044 111.142 M90.734 112.454 L 90.734 113.862 87.620 113.862 L 84.507 113.862 84.507 112.532 L 84.507 111.203 86.323 111.156 C 87.322 111.130,88.723 111.095,89.437 111.077 L 90.734 111.045 90.734 112.454 M172.999 111.882 C 172.870 112.038,172.781 112.046,172.625 111.917 C 172.469 111.788,172.461 111.698,172.590 111.543 C 172.719 111.387,172.809 111.379,172.964 111.508 C 173.120 111.637,173.128 111.726,172.999 111.882 M332.394 111.638 C 332.394 111.945,332.037 112.047,331.875 111.787 C 331.751 111.586,331.919 111.342,332.181 111.342 C 332.298 111.342,332.394 111.475,332.394 111.638 M339.659 111.787 C 339.659 112.093,339.301 112.196,339.140 111.935 C 339.016 111.734,339.183 111.490,339.445 111.490 C 339.563 111.490,339.659 111.623,339.659 111.787 M180.321 111.727 C 180.460 111.866,180.271 112.231,180.059 112.231 C 179.848 112.231,179.659 111.866,179.798 111.727 C 179.846 111.678,179.964 111.638,180.059 111.638 C 180.154 111.638,180.272 111.678,180.321 111.727 M176.760 112.995 C 176.495 113.260,176.061 112.864,176.301 112.575 C 176.451 112.394,176.508 112.397,176.704 112.593 C 176.878 112.768,176.892 112.863,176.760 112.995 M336.101 112.676 C 336.101 112.983,335.743 113.085,335.582 112.824 C 335.458 112.624,335.625 112.380,335.887 112.380 C 336.005 112.380,336.101 112.513,336.101 112.676 M43.143 115.345 L 43.143 116.086 40.178 116.086 L 37.213 116.086 37.213 115.345 L 37.213 114.603 40.178 114.603 L 43.143 114.603 43.143 115.345 M90.586 115.345 L 90.586 116.086 87.620 116.086 L 84.655 116.086 84.655 115.345 L 84.655 114.603 87.620 114.603 L 90.586 114.603 90.586 115.345 M43.291 116.952 C 43.291 117.353,42.836 117.420,40.104 117.420 C 37.306 117.420,36.916 117.358,36.916 116.909 C 36.916 116.804,37.949 116.767,40.104 116.796 C 41.857 116.819,43.291 116.889,43.291 116.952 M90.734 116.946 C 90.734 117.352,90.287 117.420,87.620 117.420 C 84.954 117.420,84.507 117.352,84.507 116.946 C 84.507 116.881,85.908 116.827,87.620 116.827 C 89.333 116.827,90.734 116.881,90.734 116.946 M42.105 118.310 C 42.105 118.401,41.339 118.458,40.104 118.458 C 38.868 118.458,38.102 118.401,38.102 118.310 C 38.102 118.218,38.868 118.162,40.104 118.162 C 41.339 118.162,42.105 118.218,42.105 118.310 M89.548 118.310 C 89.548 118.401,88.782 118.458,87.546 118.458 C 86.311 118.458,85.545 118.401,85.545 118.310 C 85.545 118.218,86.311 118.162,87.546 118.162 C 88.782 118.162,89.548 118.218,89.548 118.310 " stroke="none" fill="#000000" fill-rule="evenodd"></path></g></svg>