<svg id="svg" xmlns="http://www.w3.org/2000/svg" xmlns:xlink="http://www.w3.org/1999/xlink" width="400" height="116.27653783342407" viewBox="0, 0, 400,116.27653783342407"><g id="svgg"><path id="path0" d="M276.148 6.359 C 274.450 6.810,274.544 5.456,274.676 27.763 C 274.880 61.916,275.006 69.690,275.359 69.825 C 275.602 69.918,275.667 70.527,275.667 72.710 C 275.667 75.454,275.672 75.481,276.275 76.059 L 276.883 76.641 284.893 76.698 L 292.903 76.756 290.906 79.532 L 288.909 82.308 253.193 82.308 L 217.477 82.308 213.311 81.089 C 211.020 80.418,209.096 79.821,209.036 79.761 C 208.977 79.701,223.601 79.724,241.535 79.812 L 274.143 79.973 274.143 75.751 C 274.143 73.429,274.208 57.355,274.287 40.031 L 274.431 8.531 273.470 7.433 L 272.510 6.334 257.506 6.324 L 242.503 6.315 237.583 7.315 L 232.662 8.315 228.677 12.269 C 224.204 16.706,215.598 27.564,211.822 33.533 L 209.962 36.473 201.715 36.483 C 194.205 36.492,192.552 36.566,183.234 37.309 C 174.894 37.974,140.708 41.446,140.547 41.644 C 140.523 41.674,140.417 42.188,140.311 42.787 C 140.124 43.854,140.093 43.889,138.762 44.529 L 137.404 45.182 137.401 46.652 L 137.398 48.122 138.051 48.122 L 138.704 48.122 138.704 54.872 L 138.704 61.622 137.942 61.622 L 137.180 61.622 137.180 63.255 L 137.180 64.888 137.942 64.888 C 138.856 64.888,138.861 64.935,138.132 66.616 C 137.675 67.669,137.460 67.937,137.071 67.937 C 136.802 67.937,135.833 68.426,134.916 69.025 L 133.250 70.113 133.310 73.652 L 133.370 77.191 136.364 77.252 C 139.253 77.310,139.358 77.328,139.358 77.775 C 139.358 78.030,139.613 78.573,139.924 78.981 C 140.562 79.817,140.570 79.778,139.684 80.064 C 139.065 80.263,139.028 80.342,138.967 81.591 L 138.903 82.907 141.471 83.180 C 142.884 83.329,145.503 83.611,147.291 83.805 L 150.543 84.159 150.836 85.896 C 153.106 99.370,167.094 107.116,180.098 102.102 C 186.437 99.657,191.742 93.225,193.009 86.445 L 193.274 85.030 195.222 84.910 C 198.473 84.711,198.335 85.683,196.430 76.428 C 195.605 72.417,194.953 69.109,194.982 69.077 C 195.010 69.046,195.893 70.929,196.944 73.261 L 198.854 77.503 198.817 81.550 C 198.796 83.777,198.722 85.748,198.652 85.930 C 198.179 87.164,199.821 85.867,202.505 82.888 C 205.047 80.067,205.487 79.670,205.974 79.754 C 206.281 79.807,209.045 80.599,212.116 81.514 L 217.701 83.179 252.899 83.179 C 286.008 83.179,288.094 83.201,288.033 83.552 C 287.905 84.298,300.947 87.383,307.155 88.075 L 308.485 88.223 308.963 90.110 C 312.113 102.551,325.820 109.470,337.761 104.646 C 344.798 101.804,350.455 94.431,351.053 87.324 L 351.116 86.569 355.144 85.559 C 357.360 85.003,360.335 84.193,361.755 83.757 C 364.674 82.862,364.618 82.857,364.808 84.045 C 364.975 85.093,364.806 85.074,368.862 84.495 C 373.322 83.858,377.639 82.988,381.980 81.852 L 382.794 81.639 381.713 79.486 L 380.633 77.332 381.225 77.219 C 381.551 77.157,383.778 76.946,386.173 76.752 C 391.886 76.287,391.459 76.645,390.179 73.398 C 388.899 70.152,388.912 70.332,389.966 70.332 L 390.818 70.332 392.361 65.705 L 393.903 61.078 393.903 55.362 L 393.903 49.646 335.656 49.646 L 277.409 49.646 277.409 48.449 L 277.409 47.251 335.547 47.251 L 393.685 47.251 393.685 45.291 L 393.685 43.332 340.029 43.332 L 286.373 43.332 282.653 39.477 L 278.933 35.622 278.928 21.567 C 278.924 8.577,278.895 7.475,278.546 7.023 C 278.063 6.394,277.059 6.117,276.148 6.359 M19.988 6.765 C 18.817 7.229,17.703 8.339,16.852 9.889 C 16.354 10.796,12.226 31.527,12.198 33.261 C 12.196 33.410,11.949 33.533,11.649 33.533 C 11.117 33.533,11.105 33.498,11.105 31.879 C 11.105 30.556,11.015 30.099,10.655 29.593 L 10.204 28.960 6.667 28.960 L 3.130 28.960 2.654 29.605 C 2.005 30.482,1.919 38.420,2.544 39.731 L 2.911 40.501 6.562 40.501 C 9.801 40.501,10.240 40.458,10.455 40.120 C 10.654 39.809,10.676 39.871,10.579 40.454 C 10.513 40.848,10.159 41.544,9.792 42.001 L 9.124 42.832 8.734 55.112 C 8.519 61.866,8.383 67.466,8.431 67.556 C 8.479 67.646,12.312 67.719,16.949 67.719 L 25.381 67.719 26.674 69.026 L 27.967 70.332 53.913 70.332 L 79.860 70.332 81.102 68.917 L 82.345 67.501 90.565 67.501 C 95.085 67.501,98.825 67.461,98.875 67.411 C 98.925 67.361,98.863 61.973,98.738 55.437 L 98.510 43.553 97.837 42.843 C 97.297 42.275,97.134 41.875,97.015 40.827 C 96.874 39.583,96.884 39.544,97.221 40.011 C 97.563 40.485,97.693 40.501,101.150 40.501 L 104.725 40.501 105.057 39.858 C 105.653 38.707,105.536 30.230,104.913 29.387 L 104.436 28.743 101.004 28.743 L 97.573 28.743 97.017 29.471 C 96.533 30.105,96.462 30.414,96.462 31.866 C 96.462 33.203,96.397 33.533,96.135 33.533 C 95.955 33.533,95.808 33.437,95.808 33.319 C 95.808 32.949,91.706 11.390,91.466 10.500 C 91.078 9.058,89.392 7.342,87.820 6.789 L 86.473 6.315 53.743 6.337 C 22.353 6.358,20.971 6.376,19.988 6.765 M272.712 7.784 L 273.486 8.601 273.487 23.244 L 273.489 37.888 270.876 37.888 L 268.263 37.888 268.263 24.061 L 268.263 10.234 252.916 10.234 L 237.568 10.234 235.768 11.137 L 233.968 12.039 223.449 25.068 C 213.868 36.935,212.853 38.119,212.072 38.353 L 211.214 38.610 211.214 41.707 L 211.214 44.804 201.252 44.953 C 195.110 45.045,181.145 45.548,164.834 46.265 C 150.283 46.905,138.292 47.346,138.187 47.247 C 137.628 46.715,138.267 45.596,139.414 45.100 C 141.151 44.348,205.429 37.632,210.676 37.654 L 212.425 37.662 214.160 35.226 C 218.301 29.414,224.536 21.602,229.991 15.392 L 233.206 11.732 233.206 10.368 L 233.206 9.005 237.180 8.150 L 241.154 7.295 252.803 7.181 C 259.211 7.119,266.137 7.045,268.195 7.018 L 271.938 6.968 272.712 7.784 M277.844 7.403 C 278.271 7.830,278.280 8.129,278.280 21.666 L 278.280 35.493 276.864 35.493 L 275.449 35.493 275.449 21.569 L 275.449 7.646 275.933 7.307 C 276.593 6.845,277.322 6.881,277.844 7.403 M87.624 7.544 C 88.328 7.772,88.957 8.169,89.352 8.633 L 89.972 9.363 54.001 9.363 L 18.030 9.363 18.650 8.618 C 19.890 7.128,17.562 7.222,53.764 7.203 C 83.615 7.187,86.614 7.217,87.624 7.544 M229.453 14.867 C 223.357 21.814,215.865 31.256,212.520 36.208 C 211.982 37.005,210.231 37.521,210.699 36.745 C 214.836 29.878,223.490 18.600,228.497 13.550 L 232.226 9.789 232.294 10.671 C 232.359 11.524,232.265 11.663,229.453 14.867 M90.773 10.942 C 91.116 12.024,95.300 34.489,95.883 38.379 L 96.397 41.809 95.826 41.427 C 95.511 41.217,94.570 40.590,93.735 40.033 L 92.216 39.021 86.554 38.554 C 81.465 38.134,79.627 38.093,68.372 38.151 L 55.852 38.214 55.792 41.979 L 55.733 45.743 53.724 45.680 L 51.715 45.618 51.655 41.862 L 51.596 38.106 38.264 38.101 C 21.827 38.096,15.279 38.582,12.781 39.994 C 11.172 40.903,11.251 41.142,12.015 37.670 C 12.371 36.053,13.632 29.473,14.818 23.048 C 16.004 16.623,17.090 11.111,17.232 10.800 L 17.490 10.234 54.019 10.234 L 90.549 10.234 90.773 10.942 M21.047 11.539 C 20.357 12.359,20.655 11.207,17.975 23.424 C 15.326 35.497,15.480 34.344,16.396 35.232 L 17.114 35.928 53.921 35.928 L 90.728 35.928 91.545 35.220 L 92.362 34.513 90.046 23.625 C 88.772 17.637,87.679 12.567,87.617 12.358 C 87.556 12.149,87.087 11.732,86.575 11.432 L 85.645 10.887 53.620 10.887 L 21.596 10.887 21.047 11.539 M267.557 24.442 L 267.614 37.888 266.197 37.888 L 264.780 37.888 264.780 25.476 L 264.780 13.065 251.504 13.065 C 239.821 13.065,238.144 13.106,237.514 13.411 C 237.006 13.657,234.190 17.043,227.763 25.137 L 218.726 36.517 218.726 37.583 L 218.726 38.650 224.218 38.759 L 229.710 38.868 229.156 39.575 C 228.652 40.219,228.495 40.283,227.420 40.283 L 226.238 40.283 226.238 41.045 C 226.238 41.577,226.337 41.807,226.565 41.807 C 226.745 41.807,226.892 41.660,226.892 41.481 C 226.892 41.207,227.351 41.154,229.722 41.154 C 232.408 41.154,232.553 41.176,232.553 41.590 C 232.553 41.831,232.698 42.025,232.880 42.025 C 233.695 42.025,233.277 40.316,232.444 40.242 L 231.682 40.174 232.115 39.467 L 232.547 38.759 250.841 38.759 L 269.134 38.759 269.134 41.663 L 269.134 44.566 250.155 44.711 C 239.716 44.791,226.879 44.856,221.630 44.856 L 212.085 44.856 212.085 42.043 L 212.085 39.230 212.876 38.831 C 213.466 38.534,216.307 35.161,224.035 25.585 L 234.404 12.738 236.230 11.811 L 238.056 10.884 252.779 10.940 L 267.501 10.996 267.557 24.442 M86.241 12.127 C 86.964 12.555,86.652 11.346,89.505 24.777 C 91.434 33.859,91.492 34.218,91.120 34.630 C 90.745 35.044,90.431 35.056,81.022 35.005 L 71.312 34.953 79.967 34.894 L 88.623 34.834 88.623 33.966 L 88.623 33.097 77.859 33.097 L 67.095 33.097 67.026 33.696 L 66.957 34.295 62.765 34.354 C 59.239 34.404,58.574 34.464,58.574 34.735 C 58.574 35.015,57.319 35.050,48.938 35.005 L 39.303 34.953 47.850 34.894 L 56.396 34.834 56.396 33.966 L 56.396 33.097 45.618 33.097 L 34.839 33.097 34.839 33.751 L 34.839 34.404 30.593 34.404 C 26.964 34.404,26.347 34.451,26.347 34.731 C 26.347 35.354,17.407 35.201,16.838 34.567 L 16.398 34.077 18.779 23.299 C 20.221 16.770,21.294 12.370,21.501 12.139 C 22.021 11.559,85.258 11.547,86.241 12.127 M263.909 25.912 L 263.909 37.888 249.522 37.888 C 236.443 37.888,235.166 37.857,235.477 37.546 C 235.769 37.254,235.819 36.451,235.819 32.114 C 235.819 25.895,236.106 26.347,232.168 26.347 C 228.637 26.347,228.416 26.518,228.416 29.248 C 228.416 30.774,228.340 31.175,227.962 31.656 C 227.313 32.481,227.402 37.087,228.076 37.579 C 228.446 37.849,227.936 37.888,223.994 37.888 L 219.488 37.888 219.488 37.338 C 219.488 36.836,236.494 15.020,237.519 14.208 C 237.785 13.997,240.795 13.936,250.885 13.936 L 263.909 13.936 263.909 25.912 M235.116 32.172 L 235.174 37.017 231.795 37.017 L 228.416 37.017 228.416 34.651 C 228.416 32.615,228.477 32.208,228.851 31.732 C 229.215 31.270,229.287 30.848,229.287 29.192 L 229.287 27.206 232.172 27.266 L 235.057 27.327 235.116 32.172 M10.113 30.097 C 10.357 30.446,10.452 31.115,10.452 32.493 L 10.452 34.404 11.237 34.404 C 11.821 34.404,11.993 34.482,11.906 34.708 C 11.841 34.876,11.670 35.635,11.525 36.396 C 11.220 37.990,10.983 38.541,10.601 38.541 C 10.452 38.541,10.219 38.835,10.083 39.194 L 9.836 39.848 6.668 39.848 C 3.758 39.848,3.481 39.813,3.274 39.426 C 2.937 38.796,2.976 30.595,3.319 30.046 C 3.757 29.344,9.616 29.388,10.113 30.097 M104.433 29.995 C 104.795 30.472,104.863 38.550,104.511 39.209 C 104.303 39.596,104.026 39.630,101.045 39.630 L 97.805 39.630 97.515 38.977 C 97.356 38.617,97.110 38.323,96.968 38.323 C 96.666 38.323,96.548 37.964,96.363 36.473 C 96.288 35.874,96.174 35.114,96.109 34.785 C 96.001 34.236,96.047 34.186,96.662 34.186 L 97.333 34.186 97.333 32.321 C 97.333 29.510,97.194 29.614,100.964 29.614 C 103.737 29.614,104.181 29.662,104.433 29.995 M281.737 39.630 L 285.064 43.114 280.256 43.114 L 275.449 43.114 275.449 39.630 L 275.449 36.146 276.929 36.146 L 278.410 36.146 281.737 39.630 M276.538 39.630 L 276.538 42.243 279.603 42.243 L 282.669 42.243 281.944 41.404 C 281.545 40.943,280.533 39.770,279.695 38.798 C 278.298 37.178,278.103 37.030,277.354 37.024 L 276.538 37.017 276.538 39.630 M203.593 37.365 C 203.413 37.409,198.514 37.894,192.705 38.442 C 186.897 38.991,172.893 40.413,161.585 41.603 C 150.277 42.792,141.004 43.741,140.979 43.712 C 140.814 43.519,141.201 42.243,141.425 42.243 C 141.576 42.243,148.595 41.500,157.023 40.593 C 176.859 38.457,191.572 37.290,198.694 37.287 C 201.568 37.286,203.772 37.321,203.593 37.365 M279.423 39.624 C 281.229 41.718,281.247 41.590,279.151 41.590 L 277.409 41.590 277.409 39.739 C 277.409 37.423,277.519 37.417,279.423 39.624 M29.886 41.680 C 32.290 44.976,32.234 44.856,31.351 44.856 C 30.642 44.856,24.478 39.359,24.730 38.952 C 24.795 38.846,25.504 38.761,26.306 38.764 L 27.763 38.770 29.886 41.680 M50.953 41.807 L 50.953 44.856 42.048 44.856 L 33.143 44.856 31.123 42.079 C 30.013 40.553,29.010 39.181,28.896 39.031 C 28.731 38.814,30.950 38.759,39.821 38.759 L 50.953 38.759 50.953 41.807 M231.464 38.879 C 231.464 39.443,230.729 40.283,230.236 40.283 C 229.704 40.283,229.690 40.256,229.985 39.793 C 230.157 39.524,230.370 39.181,230.459 39.031 C 230.614 38.767,231.464 38.638,231.464 38.879 M273.489 41.698 L 273.489 44.638 271.639 44.638 L 269.788 44.638 269.788 41.698 L 269.788 38.759 271.639 38.759 L 273.489 38.759 273.489 41.698 M26.370 41.844 C 28.464 43.809,29.337 44.760,29.139 44.866 C 28.981 44.951,27.855 45.231,26.638 45.488 L 24.425 45.957 20.293 42.957 C 18.020 41.306,16.198 39.917,16.243 39.868 C 16.289 39.820,17.821 39.610,19.649 39.403 C 21.477 39.195,23.049 39.014,23.143 39.001 C 23.237 38.988,24.689 40.267,26.370 41.844 M78.018 39.264 C 77.923 39.423,76.968 40.745,75.898 42.204 L 73.951 44.856 65.283 44.856 L 56.614 44.856 56.614 41.916 L 56.614 38.977 67.403 38.977 C 76.289 38.977,78.162 39.027,78.018 39.264 M79.489 42.046 C 76.685 44.763,76.271 45.088,75.678 45.030 C 74.812 44.945,74.795 44.982,77.138 41.759 L 79.151 38.989 80.893 38.994 L 82.635 38.998 79.489 42.046 M88.024 39.447 C 90.437 39.649,90.984 39.754,90.757 39.970 C 89.943 40.744,81.970 46.162,81.646 46.162 C 81.255 46.162,78.075 45.559,77.551 45.386 C 77.373 45.327,78.485 44.096,80.382 42.251 C 83.957 38.775,83.222 39.045,88.024 39.447 M93.619 40.936 C 93.590 41.476,84.643 46.778,83.951 46.666 C 82.847 46.487,82.755 46.574,87.701 43.094 L 92.216 39.917 92.921 40.372 C 93.308 40.623,93.623 40.876,93.619 40.936 M19.161 43.059 C 23.561 46.277,23.538 46.251,22.191 46.467 C 21.318 46.606,21.162 46.527,17.069 43.857 C 12.448 40.843,12.594 40.980,13.446 40.466 C 14.567 39.790,14.895 39.939,19.161 43.059 M16.658 44.497 C 19.251 46.198,20.762 47.320,20.706 47.503 C 20.329 48.752,20.112 49.204,19.924 49.134 C 19.804 49.089,17.477 48.435,14.752 47.681 L 9.799 46.310 9.799 44.760 C 9.799 42.735,11.109 40.988,12.177 41.590 C 12.366 41.697,14.382 43.005,16.658 44.497 M96.625 42.940 L 97.768 43.781 97.768 45.034 L 97.768 46.286 93.250 47.672 C 90.765 48.434,88.593 49.109,88.424 49.171 C 88.205 49.252,88.150 49.159,88.232 48.845 C 88.324 48.495,88.107 48.263,87.159 47.696 C 86.505 47.305,86.053 46.908,86.153 46.814 C 86.254 46.720,88.149 45.462,90.364 44.018 C 94.931 41.042,94.212 41.165,96.625 42.940 M288.078 44.856 C 288.078 45.582,288.151 45.727,288.514 45.727 C 288.877 45.727,288.949 45.582,288.949 44.856 C 288.949 44.130,289.022 43.985,289.385 43.985 C 289.748 43.985,289.820 44.130,289.820 44.856 C 289.820 45.582,289.893 45.727,290.256 45.727 C 290.619 45.727,290.691 45.582,290.691 44.854 L 290.691 43.980 300.762 44.037 L 310.833 44.094 310.900 44.910 C 310.943 45.426,311.079 45.727,311.268 45.727 C 311.458 45.727,311.594 45.426,311.636 44.910 C 311.690 44.261,311.793 44.094,312.139 44.094 C 312.485 44.094,312.589 44.261,312.642 44.910 C 312.685 45.426,312.820 45.727,313.010 45.727 C 313.200 45.727,313.336 45.426,313.378 44.910 L 313.446 44.094 324.714 44.037 L 335.983 43.981 335.983 44.854 C 335.983 45.582,336.055 45.727,336.418 45.727 C 336.781 45.727,336.854 45.582,336.854 44.856 C 336.854 44.130,336.926 43.985,337.289 43.985 C 337.652 43.985,337.725 44.130,337.725 44.856 C 337.725 45.582,337.797 45.727,338.160 45.727 C 338.523 45.727,338.596 45.582,338.596 44.856 L 338.596 43.985 348.612 43.985 L 358.628 43.985 358.628 44.747 C 358.628 45.364,358.711 45.509,359.064 45.509 C 359.416 45.509,359.499 45.364,359.499 44.747 C 359.499 44.130,359.582 43.985,359.935 43.985 C 360.287 43.985,360.370 44.130,360.370 44.747 C 360.370 45.364,360.453 45.509,360.806 45.509 C 361.158 45.509,361.241 45.364,361.241 44.747 L 361.241 43.985 371.257 43.985 L 381.274 43.985 381.274 44.747 C 381.274 45.364,381.357 45.509,381.709 45.509 C 382.062 45.509,382.145 45.364,382.145 44.747 C 382.145 44.130,382.228 43.985,382.580 43.985 C 382.933 43.985,383.016 44.130,383.016 44.747 C 383.016 45.364,383.099 45.509,383.451 45.509 C 383.804 45.509,383.887 45.364,383.887 44.747 L 383.887 43.985 388.351 43.985 L 392.814 43.985 392.814 45.182 L 392.814 46.380 334.676 46.380 L 276.538 46.380 276.538 48.028 C 276.538 49.613,276.519 49.674,276.048 49.607 C 275.440 49.521,275.348 48.842,275.558 45.999 L 275.707 43.985 281.893 43.985 L 288.078 43.985 288.078 44.856 M269.087 47.850 L 269.149 50.299 246.931 50.352 C 234.712 50.381,221.652 50.406,217.910 50.407 L 211.105 50.408 211.042 48.634 C 210.985 47.032,211.029 46.801,211.495 46.259 L 212.011 45.659 238.668 45.510 C 253.329 45.428,266.157 45.369,267.175 45.380 L 269.026 45.400 269.087 47.850 M273.489 45.836 C 273.489 46.374,273.468 46.380,271.639 46.380 C 269.811 46.380,269.282 46.087,269.933 45.436 C 270.417 44.952,273.489 45.297,273.489 45.836 M50.914 46.114 C 51.024 46.886,56.465 46.775,56.575 45.999 L 56.644 45.509 65.393 45.518 L 74.143 45.527 80.080 46.676 C 83.345 47.308,86.133 47.940,86.275 48.082 C 86.473 48.280,79.027 48.340,53.936 48.340 C 36.008 48.340,21.339 48.260,21.339 48.164 C 21.339 47.543,22.146 47.227,25.803 46.416 L 29.722 45.547 40.283 45.583 L 50.844 45.618 50.914 46.114 M210.778 45.932 C 210.778 46.044,210.680 46.197,210.561 46.271 C 210.440 46.345,210.343 47.326,210.343 48.461 L 210.343 50.517 182.508 50.517 L 154.672 50.517 153.438 51.381 L 152.205 52.246 152.205 49.902 L 152.205 47.559 171.856 46.671 C 191.824 45.770,210.778 45.409,210.778 45.932 M254.913 46.085 C 254.831 46.167,254.763 46.953,254.763 47.832 L 254.763 49.428 259.127 49.428 L 263.491 49.428 263.428 47.741 L 263.364 46.053 259.213 45.994 C 256.930 45.962,254.995 46.003,254.913 46.085 M262.602 47.686 L 262.602 48.557 259.118 48.557 L 255.634 48.557 255.634 47.686 L 255.634 46.815 259.118 46.815 L 262.602 46.815 262.602 47.686 M17.618 49.336 C 17.669 49.387,17.375 49.429,16.966 49.429 C 15.437 49.431,14.807 50.097,14.807 51.712 L 14.807 53.130 12.194 53.130 L 9.581 53.130 9.582 51.551 C 9.583 50.683,9.645 49.330,9.719 48.545 L 9.854 47.117 13.690 48.181 C 15.799 48.765,17.567 49.285,17.618 49.336 M97.839 49.701 L 97.970 52.259 95.800 52.259 L 93.631 52.259 93.631 51.178 C 93.631 49.905,93.296 49.623,91.562 49.437 L 90.474 49.320 94.066 48.206 C 96.042 47.594,97.670 47.104,97.683 47.117 C 97.697 47.131,97.767 48.293,97.839 49.701 M273.489 47.795 C 273.489 48.333,273.468 48.340,271.639 48.340 C 269.809 48.340,269.788 48.333,269.788 47.795 C 269.788 47.257,269.809 47.251,271.639 47.251 C 273.468 47.251,273.489 47.257,273.489 47.795 M151.334 49.537 L 151.334 51.388 146.970 51.388 L 142.606 51.388 142.669 49.701 L 142.733 48.013 144.910 47.892 C 146.108 47.825,148.043 47.752,149.211 47.729 L 151.334 47.686 151.334 49.537 M141.971 52.360 L 141.971 56.598 143.923 56.660 L 145.876 56.723 143.692 58.241 C 141.183 59.985,140.901 60.253,141.387 60.440 C 141.602 60.522,143.810 59.098,147.562 56.454 C 150.774 54.191,153.792 52.077,154.269 51.755 L 155.136 51.170 182.641 51.170 L 210.145 51.170 209.998 51.987 C 209.917 52.436,209.808 52.877,209.757 52.967 C 209.706 53.057,198.014 53.130,183.776 53.130 L 157.888 53.130 153.250 57.370 L 148.612 61.611 143.985 61.616 L 139.358 61.622 139.358 54.872 L 139.358 48.122 140.664 48.122 L 141.971 48.122 141.971 52.360 M22.646 55.203 L 22.646 61.413 21.775 60.969 L 20.904 60.525 20.904 54.904 C 20.904 48.794,20.869 48.993,21.920 48.993 L 22.646 48.993 22.646 55.203 M71.856 49.537 L 71.856 50.082 54.219 50.082 L 36.581 50.082 36.581 49.537 L 36.581 48.993 54.219 48.993 L 71.856 48.993 71.856 49.537 M87.534 54.400 L 87.534 59.807 86.663 60.507 L 85.792 61.207 85.792 55.100 L 85.792 48.993 86.663 48.993 L 87.534 48.993 87.534 54.400 M35.877 55.362 L 35.819 61.513 29.668 61.571 L 23.517 61.629 23.517 55.420 L 23.517 49.211 29.726 49.211 L 35.935 49.211 35.877 55.362 M84.921 55.416 L 84.921 61.622 78.824 61.622 L 72.727 61.622 72.727 55.416 L 72.727 49.211 78.824 49.211 L 84.921 49.211 84.921 55.416 M273.489 49.755 C 273.489 50.293,273.468 50.299,271.639 50.299 C 269.809 50.299,269.788 50.293,269.788 49.755 C 269.788 49.217,269.809 49.211,271.639 49.211 C 273.468 49.211,273.489 49.217,273.489 49.755 M28.245 49.948 C 24.986 50.850,23.258 54.522,24.611 57.667 C 26.931 63.061,35.246 61.410,35.270 55.551 C 35.286 51.685,31.854 48.948,28.245 49.948 M77.509 49.847 C 71.126 51.098,71.691 60.455,78.177 60.919 C 83.832 61.323,86.476 53.746,81.731 50.736 C 80.897 50.207,78.966 49.584,78.432 49.671 C 78.348 49.685,77.933 49.764,77.509 49.847 M20.203 52.531 L 20.265 54.872 18.370 54.872 C 15.828 54.872,15.678 54.733,15.678 52.368 C 15.678 50.195,15.817 50.081,18.400 50.147 L 20.142 50.191 20.203 52.531 M92.423 50.334 C 92.950 50.575,92.978 50.673,92.978 52.331 C 92.978 54.748,92.844 54.872,90.222 54.872 L 88.187 54.872 88.187 52.622 C 88.187 51.385,88.253 50.307,88.332 50.227 C 88.578 49.981,91.835 50.067,92.423 50.334 M393.032 55.791 L 393.032 61.283 391.675 65.372 L 390.319 69.461 370.500 69.451 L 350.680 69.442 348.043 64.938 L 345.406 60.435 343.579 59.290 L 341.753 58.146 329.079 58.142 L 316.405 58.138 314.247 59.499 L 312.089 60.860 309.610 64.938 L 307.131 69.015 291.508 69.020 L 275.885 69.026 275.885 67.392 L 275.885 65.759 290.544 65.759 L 305.204 65.759 308.639 60.860 L 312.073 55.961 328.885 55.961 L 345.698 55.961 348.965 61.241 L 352.232 66.522 369.677 66.577 L 387.122 66.633 387.903 65.680 L 388.684 64.727 388.626 58.221 C 388.576 52.608,388.523 51.715,388.242 51.715 C 387.960 51.715,387.907 52.598,387.857 58.122 L 387.800 64.529 387.247 65.253 L 386.695 65.977 369.744 65.977 L 352.792 65.977 349.525 60.697 L 346.258 55.416 328.941 55.361 L 311.624 55.305 308.284 60.042 L 304.944 64.780 290.414 64.836 L 275.885 64.891 275.885 57.595 L 275.885 50.299 334.458 50.299 L 393.032 50.299 393.032 55.791 M31.682 50.931 C 36.446 53.141,34.954 60.187,29.722 60.187 C 25.491 60.187,23.278 55.328,26.090 52.210 C 27.557 50.582,29.816 50.065,31.682 50.931 M80.810 51.126 C 83.813 52.694,84.294 56.736,81.745 58.980 C 78.573 61.772,73.739 59.578,73.745 55.349 C 73.751 51.674,77.533 49.413,80.810 51.126 M71.856 51.606 L 71.856 52.477 54.219 52.477 L 36.581 52.477 36.581 51.606 L 36.581 50.735 54.219 50.735 L 71.856 50.735 71.856 51.606 M269.134 52.150 L 269.134 53.130 239.848 53.130 C 223.740 53.130,210.561 53.057,210.562 52.967 C 210.563 52.877,210.665 52.436,210.790 51.987 L 211.017 51.170 240.076 51.170 L 269.134 51.170 269.134 52.150 M273.489 52.150 L 273.489 53.130 271.639 53.130 L 269.788 53.130 269.788 52.150 L 269.788 51.170 271.639 51.170 L 273.489 51.170 273.489 52.150 M151.334 52.569 C 151.334 52.740,150.410 53.524,149.280 54.311 L 147.227 55.743 144.925 55.743 L 142.624 55.743 142.624 54.001 L 142.624 52.259 146.979 52.259 C 150.603 52.259,151.334 52.311,151.334 52.569 M49.595 54.001 L 48.724 54.872 42.653 54.872 L 36.581 54.872 36.581 54.001 L 36.581 53.130 43.524 53.130 L 50.466 53.130 49.595 54.001 M71.856 54.001 L 71.856 54.872 65.206 54.872 L 58.556 54.872 57.728 54.001 L 56.899 53.130 64.378 53.130 L 71.856 53.130 71.856 54.001 M97.987 56.124 C 97.987 57.771,98.051 60.808,98.130 62.874 L 98.272 66.630 90.195 66.630 L 82.118 66.630 80.868 68.046 L 79.618 69.461 53.901 69.461 L 28.185 69.461 26.892 68.155 L 25.599 66.848 17.353 66.848 L 9.108 66.848 9.240 62.657 C 9.313 60.351,9.429 57.461,9.498 56.233 L 9.623 54.001 12.215 54.001 C 13.809 54.001,14.807 54.085,14.807 54.220 C 14.807 54.341,15.052 54.652,15.351 54.913 C 15.651 55.173,15.895 55.591,15.895 55.842 C 15.895 56.555,18.913 59.445,19.657 59.445 C 20.199 59.445,20.250 59.517,20.250 60.269 C 20.250 61.067,20.296 61.116,21.670 61.793 L 23.089 62.493 54.228 62.493 L 85.366 62.493 86.777 61.385 C 87.632 60.712,88.187 60.113,88.187 59.860 C 88.187 59.537,88.344 59.445,88.889 59.445 C 89.737 59.445,92.542 56.845,92.542 56.059 C 92.542 55.807,92.787 55.371,93.087 55.090 C 93.456 54.743,93.631 54.345,93.631 53.854 L 93.631 53.130 95.808 53.130 L 97.986 53.130 97.987 56.124 M56.297 53.916 C 58.290 54.909,57.762 56.296,55.185 56.839 C 52.124 57.484,48.745 55.968,50.078 54.549 C 51.199 53.356,54.499 53.020,56.297 53.916 M209.747 59.281 C 209.793 62.305,209.909 65.001,210.004 65.272 L 210.177 65.765 202.268 65.708 L 194.359 65.651 192.291 61.023 L 190.223 56.396 174.182 56.396 L 158.141 56.396 153.486 60.207 L 148.832 64.017 147.287 64.017 C 146.437 64.017,143.963 64.082,141.788 64.161 L 137.833 64.304 137.833 63.263 L 137.833 62.222 143.332 62.363 L 148.830 62.503 153.511 58.158 L 158.193 53.814 183.928 53.799 L 209.663 53.783 209.747 59.281 M266.358 53.927 L 269.134 54.068 269.134 56.426 C 269.134 58.637,268.819 63.468,268.572 65.053 L 268.461 65.761 239.691 65.706 L 210.920 65.651 210.641 64.453 C 210.347 63.193,210.216 54.200,210.488 53.929 C 210.675 53.741,262.690 53.740,266.358 53.927 M273.489 59.880 L 273.489 65.759 271.394 65.759 L 269.298 65.759 269.431 64.507 C 269.505 63.819,269.629 61.173,269.708 58.628 L 269.852 54.001 271.671 54.001 L 273.489 54.001 273.489 59.880 M20.206 57.104 C 20.292 59.058,19.822 59.107,18.025 57.329 C 16.325 55.647,16.363 55.492,18.454 55.571 L 20.142 55.634 20.206 57.104 M49.621 56.396 L 50.450 57.267 43.516 57.267 L 36.581 57.267 36.581 56.396 L 36.581 55.525 42.687 55.525 L 48.793 55.525 49.621 56.396 M71.856 56.396 L 71.856 57.267 64.344 57.267 L 56.832 57.267 57.648 56.414 L 58.465 55.562 65.161 55.543 L 71.856 55.525 71.856 56.396 M91.889 55.804 C 91.889 56.363,89.407 58.574,88.780 58.574 C 88.196 58.574,87.827 56.176,88.332 55.670 C 88.619 55.384,91.889 55.507,91.889 55.804 M176.471 57.267 L 189.782 57.267 191.571 61.272 L 193.361 65.277 195.211 74.282 C 197.473 85.294,197.469 84.050,195.240 84.050 L 193.420 84.050 193.300 81.165 C 192.719 67.204,178.989 57.598,165.596 61.782 C 156.712 64.558,150.474 73.007,150.464 82.278 L 150.463 83.445 149.755 83.322 C 149.366 83.255,146.965 82.983,144.420 82.719 L 139.793 82.239 139.793 81.540 C 139.793 80.897,139.872 80.818,140.773 80.566 C 141.946 80.238,141.931 80.338,140.991 79.106 C 139.668 77.374,139.847 77.084,142.243 77.075 C 144.183 77.068,144.321 77.033,145.999 76.149 L 147.741 75.231 147.802 72.701 L 147.863 70.171 145.898 69.054 L 143.934 67.937 141.210 67.937 C 139.712 67.937,138.487 67.890,138.487 67.832 C 138.487 67.775,138.749 67.089,139.070 66.308 L 139.653 64.888 144.305 64.888 L 148.958 64.888 153.793 60.940 L 158.628 56.991 160.894 57.129 C 162.140 57.205,169.150 57.267,176.471 57.267 M71.856 58.792 L 71.856 59.662 54.219 59.662 L 36.581 59.662 36.581 58.792 L 36.581 57.921 54.219 57.921 L 71.856 57.921 71.856 58.792 M343.340 60.048 L 344.927 61.078 347.617 65.651 L 350.306 70.223 369.245 70.279 L 388.184 70.334 389.167 72.892 C 390.346 75.957,390.850 75.591,384.758 76.100 C 378.925 76.587,379.314 76.340,380.509 78.795 C 381.049 79.905,381.492 80.901,381.492 81.008 C 381.492 81.725,365.993 84.466,365.585 83.822 C 365.016 82.922,365.297 82.659,367.782 81.771 L 370.185 80.911 367.351 78.077 C 365.097 75.823,364.462 75.298,364.247 75.513 C 364.033 75.728,364.464 76.271,366.355 78.167 C 367.662 79.479,368.687 80.594,368.634 80.647 C 368.028 81.234,352.983 85.574,351.553 85.574 C 350.901 85.574,351.142 84.295,351.824 84.141 C 354.873 83.453,360.000 82.061,362.738 81.177 L 366.086 80.095 365.242 79.223 C 363.033 76.939,361.002 75.274,360.742 75.534 C 360.541 75.735,360.950 76.229,362.550 77.720 C 363.686 78.780,364.567 79.698,364.507 79.761 C 364.088 80.202,351.589 83.616,351.333 83.359 C 351.267 83.294,351.070 82.353,350.895 81.269 C 348.674 67.537,334.032 59.569,321.166 65.091 C 313.808 68.249,308.340 76.255,308.330 83.887 C 308.330 84.575,308.255 85.139,308.165 85.139 C 306.716 85.138,294.276 82.597,293.371 82.116 C 293.201 82.026,293.704 81.159,294.840 79.585 C 295.791 78.268,296.537 77.093,296.497 76.973 C 296.314 76.419,295.778 76.959,293.864 79.628 L 291.804 82.500 292.935 82.838 C 294.986 83.450,300.923 84.722,304.602 85.338 L 308.220 85.943 308.288 86.746 C 308.351 87.485,308.315 87.541,307.852 87.442 C 307.576 87.384,306.614 87.227,305.716 87.094 C 300.604 86.336,289.167 83.777,289.167 83.391 C 289.167 82.529,293.932 76.746,294.724 76.647 C 295.200 76.587,295.909 76.299,296.298 76.007 L 297.006 75.476 297.006 72.690 L 297.006 69.904 302.269 69.846 L 307.532 69.788 309.783 66.086 C 312.720 61.257,312.587 61.419,314.683 60.126 L 316.492 59.009 329.123 59.013 L 341.753 59.017 343.340 60.048 M71.856 60.969 L 71.856 61.622 54.219 61.622 L 36.581 61.622 36.581 60.969 L 36.581 60.316 54.219 60.316 L 71.856 60.316 71.856 60.969 M177.449 62.263 C 195.178 67.431,198.128 91.209,182.162 100.262 C 166.227 109.298,146.855 94.054,152.072 76.584 C 155.311 65.737,166.911 59.191,177.449 62.263 M333.216 64.342 C 352.776 67.753,356.707 94.254,338.984 103.230 C 327.288 109.153,312.684 102.423,309.648 89.712 C 306.179 75.187,318.618 61.797,333.216 64.342 M37.714 65.367 C 37.198 65.883,37.386 68.101,37.978 68.489 C 38.841 69.054,47.162 68.870,47.596 68.276 C 48.052 67.652,47.996 65.910,47.506 65.467 C 46.998 65.007,38.164 64.917,37.714 65.367 M49.553 65.448 C 48.965 66.036,49.087 68.064,49.736 68.489 C 50.599 69.054,58.920 68.870,59.354 68.276 C 59.810 67.652,59.754 65.910,59.264 65.467 C 58.682 64.940,50.077 64.924,49.553 65.448 M61.311 65.448 C 61.084 65.675,60.969 66.188,60.969 66.968 C 60.969 68.805,61.097 68.848,66.412 68.766 C 71.430 68.689,71.421 68.693,71.421 66.822 C 71.421 65.110,71.410 65.106,66.195 65.106 C 62.357 65.106,61.600 65.159,61.311 65.448 M46.689 65.892 C 46.931 65.984,47.033 66.309,47.033 66.985 L 47.033 67.946 42.624 67.887 L 38.214 67.828 38.148 66.921 C 38.096 66.196,38.161 65.993,38.475 65.912 C 39.069 65.758,46.294 65.740,46.689 65.892 M58.447 65.892 C 58.689 65.984,58.792 66.309,58.792 66.985 L 58.792 67.946 54.382 67.887 L 49.973 67.828 49.901 67.075 C 49.785 65.851,50.094 65.759,54.352 65.759 C 56.415 65.759,58.258 65.819,58.447 65.892 M70.205 65.892 C 70.447 65.984,70.550 66.309,70.550 66.980 L 70.550 67.937 66.195 67.937 L 61.840 67.937 61.840 66.975 C 61.840 66.410,61.952 65.968,62.112 65.904 C 62.505 65.745,69.796 65.734,70.205 65.892 M210.913 68.866 C 211.232 70.193,211.754 71.592,212.299 72.586 C 212.780 73.463,213.174 74.246,213.174 74.327 C 213.174 74.409,209.824 74.449,205.729 74.418 L 198.284 74.360 196.600 70.659 C 195.673 68.623,194.907 66.882,194.899 66.791 C 194.890 66.700,198.375 66.651,202.642 66.682 L 210.401 66.739 210.913 68.866 M268.400 67.011 C 268.339 67.221,268.170 68.372,268.024 69.570 C 267.848 71.016,267.556 72.204,267.154 73.108 L 266.549 74.469 240.351 74.465 L 214.154 74.461 213.139 72.554 C 212.336 71.044,211.214 67.646,211.214 66.722 C 211.214 66.672,224.106 66.630,239.862 66.630 C 267.043 66.630,268.505 66.650,268.400 67.011 M273.489 70.550 L 273.489 74.469 270.444 74.469 L 267.398 74.469 267.915 73.300 C 268.233 72.582,268.581 71.069,268.817 69.380 L 269.201 66.630 271.345 66.630 L 273.489 66.630 273.489 70.550 M10.442 70.169 L 10.431 71.965 9.516 72.415 L 8.601 72.865 8.541 76.256 L 8.481 79.647 9.467 80.225 L 10.452 80.802 10.452 93.867 L 10.452 106.931 10.928 107.576 L 11.405 108.220 16.431 108.220 L 21.458 108.220 22.269 107.551 L 23.081 106.882 23.081 99.059 L 23.081 91.236 23.734 91.236 C 24.374 91.236,24.388 91.213,24.388 90.133 C 24.388 88.431,24.605 88.187,26.121 88.187 C 27.915 88.187,28.743 88.864,28.743 90.334 C 28.743 91.065,28.898 91.581,29.295 92.165 L 29.847 92.978 34.738 92.978 L 39.630 92.978 39.630 92.100 C 39.630 91.617,39.483 90.870,39.303 90.440 C 38.687 88.966,38.188 89.058,46.815 89.058 C 54.327 89.058,54.654 89.075,54.654 89.465 C 54.654 90.432,56.366 92.107,57.353 92.107 C 58.198 92.107,58.357 92.204,59.315 93.314 L 60.358 94.522 61.698 94.457 C 63.035 94.393,63.038 94.392,63.106 93.685 C 63.173 92.987,63.190 92.978,64.303 92.972 C 65.618 92.966,67.931 90.719,67.935 89.444 C 67.936 89.052,68.122 88.729,68.482 88.493 C 69.387 87.900,69.679 88.362,69.679 90.391 L 69.679 92.107 72.819 92.107 L 75.960 92.107 76.211 92.869 L 76.463 93.632 77.372 92.887 C 77.930 92.430,78.576 92.114,79.043 92.070 L 79.804 91.998 79.868 90.310 L 79.931 88.623 81.025 88.623 L 82.119 88.623 82.873 90.256 C 83.600 91.829,83.655 91.889,84.383 91.889 L 85.139 91.889 85.139 99.499 L 85.139 107.109 85.867 107.664 L 86.595 108.220 91.626 108.220 L 96.657 108.220 97.213 107.492 L 97.768 106.763 97.768 93.655 L 97.768 80.546 98.420 80.175 L 99.072 79.804 99.073 76.292 L 99.075 72.780 98.421 72.510 L 97.768 72.239 97.768 70.306 C 97.768 68.518,97.735 68.372,97.333 68.372 C 96.931 68.372,96.897 68.518,96.897 70.223 L 96.897 72.074 54.001 72.074 L 11.105 72.074 11.105 70.223 C 11.105 68.723,11.043 68.372,10.778 68.372 C 10.515 68.372,10.450 68.722,10.442 70.169 M145.471 69.688 L 146.979 70.569 146.979 72.689 L 146.979 74.809 145.342 75.619 L 143.705 76.429 138.919 76.429 L 134.132 76.429 134.131 75.612 C 134.130 75.163,134.068 73.862,133.992 72.721 L 133.855 70.645 135.245 69.728 L 136.636 68.812 140.300 68.810 L 143.963 68.808 145.471 69.688 M168.668 70.010 C 159.327 72.575,156.224 84.381,163.090 91.236 C 172.068 100.200,187.363 91.466,184.219 79.172 C 182.488 72.406,175.322 68.183,168.668 70.010 M279.151 71.533 C 279.151 72.860,279.243 73.312,279.641 73.925 L 280.131 74.682 285.889 74.684 L 291.647 74.687 292.258 74.102 C 292.831 73.553,292.869 73.406,292.869 71.707 L 292.869 69.897 294.611 69.897 L 296.353 69.897 296.353 72.392 C 296.353 74.832,296.340 74.899,295.756 75.440 L 295.160 75.993 286.244 75.993 C 275.366 75.993,276.320 76.332,276.320 72.472 L 276.320 69.897 277.735 69.897 L 279.151 69.897 279.151 71.533 M291.998 71.595 C 291.998 73.953,292.366 73.816,286.010 73.816 C 279.653 73.816,280.022 73.953,280.022 71.595 L 280.022 69.897 286.010 69.897 L 291.998 69.897 291.998 71.595 M174.621 70.669 C 183.767 72.825,186.950 83.968,180.315 90.603 C 173.683 97.235,162.536 94.051,160.381 84.910 C 158.392 76.470,166.182 68.680,174.621 70.669 M169.679 72.173 C 164.551 73.339,160.899 78.661,161.741 83.741 C 163.142 92.196,173.212 95.520,179.222 89.510 C 186.493 82.239,179.699 69.894,169.679 72.173 M326.750 72.407 C 318.223 74.567,314.372 84.496,319.239 91.772 C 326.192 102.167,342.381 97.137,342.339 84.594 C 342.313 76.562,334.490 70.446,326.750 72.407 M174.915 73.165 C 181.695 75.259,183.750 83.891,178.676 88.965 C 172.407 95.234,161.985 90.521,162.491 81.647 C 162.846 75.418,168.878 71.300,174.915 73.165 M333.152 73.386 C 341.511 75.819,344.410 86.325,338.488 92.721 C 331.065 100.738,317.897 95.613,317.912 84.712 C 317.923 76.664,325.380 71.123,333.152 73.386 M98.000 73.170 C 98.384 73.376,98.421 73.652,98.421 76.318 L 98.421 79.240 96.939 80.121 L 95.456 81.002 54.038 81.002 L 12.620 81.002 10.882 80.128 L 9.145 79.255 9.145 76.328 C 9.145 73.771,9.193 73.374,9.526 73.180 C 10.062 72.868,97.418 72.859,98.000 73.170 M326.379 74.986 C 317.783 78.021,316.982 89.869,325.097 93.929 C 333.905 98.335,343.262 89.105,339.013 80.203 C 336.839 75.647,331.154 73.300,326.379 74.986 M331.671 75.367 C 338.962 76.914,341.767 85.899,336.649 91.311 C 331.249 97.020,321.692 94.074,320.297 86.270 C 319.144 79.819,325.217 73.998,331.671 75.367 M213.827 76.538 L 213.827 77.735 239.916 77.735 L 266.006 77.735 266.502 76.538 L 266.999 75.340 270.244 75.340 L 273.489 75.340 273.489 77.191 L 273.489 79.042 236.581 79.042 L 199.673 79.042 199.669 78.225 C 199.666 77.776,199.470 76.982,199.233 76.460 C 198.996 75.938,198.802 75.472,198.802 75.425 C 198.802 75.379,202.183 75.340,206.315 75.340 L 213.827 75.340 213.827 76.538 M266.086 75.456 C 266.086 75.520,265.944 75.912,265.771 76.327 L 265.455 77.082 239.968 77.082 L 214.480 77.082 214.480 76.211 L 214.480 75.340 240.283 75.340 C 254.475 75.340,266.086 75.392,266.086 75.456 M169.450 76.925 C 163.657 79.918,166.009 88.714,172.447 88.130 C 178.388 87.591,179.916 79.647,174.589 76.993 C 173.075 76.238,170.837 76.208,169.450 76.925 M174.097 77.598 C 176.024 78.495,177.067 80.163,177.057 82.332 C 177.031 87.765,169.611 89.329,167.309 84.386 C 165.312 80.096,169.808 75.600,174.097 77.598 M170.377 78.567 C 166.447 80.410,167.610 86.228,171.909 86.228 C 177.004 86.228,177.394 78.791,172.326 78.265 C 171.550 78.185,171.017 78.267,170.377 78.567 M327.864 79.137 C 322.845 80.928,322.413 87.723,327.171 90.051 C 330.982 91.916,335.602 89.063,335.602 84.845 C 335.602 80.741,331.615 77.799,327.864 79.137 M331.903 80.073 C 333.751 80.806,335.080 83.207,334.826 85.350 C 334.097 91.508,325.002 91.258,324.699 85.071 C 324.502 81.030,328.073 78.552,331.903 80.073 M203.891 80.185 C 201.650 82.733,199.592 84.912,199.506 84.827 C 199.449 84.769,199.473 83.591,199.559 82.209 L 199.716 79.695 202.019 79.695 L 204.322 79.695 203.891 80.185 M328.035 81.093 C 326.001 82.000,325.177 84.474,326.203 86.593 C 327.701 89.687,332.242 89.387,333.493 86.110 C 334.735 82.858,331.252 79.656,328.035 81.093 M17.039 81.608 L 22.210 81.670 22.210 94.111 C 22.210 105.382,22.176 106.590,21.850 106.951 C 21.311 107.547,11.859 107.562,11.408 106.968 C 10.899 106.298,10.976 81.110,11.486 81.359 C 11.696 81.462,14.194 81.574,17.039 81.608 M96.897 93.863 C 96.897 102.162,96.820 106.651,96.672 106.928 C 96.361 107.509,87.093 107.582,86.276 107.010 L 85.792 106.671 85.792 94.163 L 85.792 81.655 90.855 81.652 C 93.747 81.650,96.057 81.558,96.244 81.437 C 96.424 81.321,96.644 81.225,96.734 81.223 C 96.824 81.221,96.897 86.909,96.897 93.863 M85.139 86.336 L 85.139 91.018 84.594 91.018 C 84.129 91.018,83.948 90.794,83.367 89.494 L 82.685 87.970 80.864 87.970 L 79.042 87.970 79.042 89.603 C 79.042 91.139,79.014 91.236,78.564 91.236 C 78.301 91.236,77.808 91.502,77.467 91.828 L 76.849 92.421 76.722 91.937 C 76.599 91.467,76.513 91.453,73.582 91.453 L 70.568 91.453 70.505 89.797 C 70.441 88.155,70.434 88.137,69.672 87.695 L 68.903 87.250 68.096 87.773 C 67.449 88.192,67.288 88.432,67.286 88.980 C 67.284 89.485,67.013 89.970,66.251 90.831 C 64.905 92.351,64.965 92.317,63.631 92.321 C 62.530 92.324,62.477 92.351,62.352 92.978 C 62.112 94.176,60.818 93.925,59.544 92.433 C 58.601 91.329,58.448 91.236,57.593 91.236 C 56.490 91.236,55.525 90.227,55.525 89.073 L 55.525 88.405 46.707 88.405 C 41.036 88.405,37.888 88.482,37.888 88.620 C 37.888 88.739,38.084 89.351,38.323 89.981 C 38.563 90.611,38.759 91.347,38.759 91.617 L 38.759 92.107 34.456 92.107 C 29.506 92.107,29.707 92.192,29.476 89.980 C 29.284 88.143,28.190 87.316,25.949 87.316 L 24.396 87.316 23.957 88.179 C 23.715 88.653,23.517 89.339,23.517 89.703 C 23.517 90.067,23.419 90.365,23.299 90.365 C 23.161 90.365,23.081 88.768,23.081 86.010 L 23.081 81.655 54.110 81.655 L 85.139 81.655 85.139 86.336 " stroke="none" fill="#000000" fill-rule="evenodd"></path></g></svg>