<svg id="svg" xmlns="http://www.w3.org/2000/svg" xmlns:xlink="http://www.w3.org/1999/xlink" width="400" height="137.98604187437687" viewBox="0, 0, 400,137.98604187437687"><g id="svgg"><path id="path0" d="M22.333 20.625 C 22.333 22.208,22.237 23.756,22.119 24.065 C 21.605 25.412,20.386 30.514,20.553 30.617 C 20.656 30.681,20.600 30.994,20.425 31.333 L 20.114 31.935 19.638 31.421 C 19.174 30.920,19.097 30.907,16.610 30.910 C 13.779 30.914,13.862 30.888,13.136 32.008 C 11.317 34.818,11.116 36.928,12.599 37.639 C 13.262 37.957,14.316 39.147,14.467 39.750 C 14.530 40.003,14.077 43.276,13.460 47.023 C 12.355 53.725,12.313 54.237,12.860 54.237 C 13.229 54.237,13.186 54.445,14.460 46.660 C 15.080 42.876,15.671 39.693,15.774 39.586 C 15.992 39.361,17.282 39.356,18.474 39.576 C 19.233 39.716,19.311 39.690,19.433 39.256 C 19.833 37.832,20.419 36.491,20.641 36.491 C 20.991 36.491,21.137 36.026,21.137 34.912 L 21.137 33.963 31.157 33.831 C 36.667 33.759,51.792 33.699,64.767 33.699 L 88.357 33.699 88.750 34.587 C 89.793 36.945,91.758 46.400,92.522 52.742 C 92.641 53.729,92.778 54.761,92.826 55.035 C 92.874 55.309,93.101 56.823,93.331 58.400 C 93.802 61.640,93.938 62.098,94.647 62.842 C 95.286 63.512,95.195 63.978,94.316 64.535 C 93.933 64.778,93.337 65.208,92.992 65.491 C 92.647 65.774,92.046 66.138,91.657 66.301 C 91.268 66.463,90.877 66.724,90.789 66.879 C 90.464 67.452,85.029 70.582,84.354 70.586 C 83.933 70.588,83.904 70.551,84.155 70.326 C 84.315 70.181,85.344 69.255,86.441 68.268 C 87.537 67.281,88.773 66.280,89.186 66.043 C 89.599 65.806,90.047 65.519,90.183 65.405 C 90.318 65.290,90.698 64.974,91.027 64.702 L 91.625 64.208 90.927 64.198 C 86.732 64.140,82.350 63.817,81.782 63.523 C 80.716 62.973,59.168 62.567,57.926 63.074 C 56.757 63.552,58.539 63.681,67.891 63.799 C 78.805 63.937,78.479 63.885,77.463 65.312 C 77.076 65.856,76.470 66.746,76.117 67.290 C 74.940 69.100,75.401 69.025,65.567 69.005 C 60.824 68.996,56.884 68.922,56.810 68.841 C 56.737 68.760,56.626 67.760,56.563 66.619 C 56.500 65.478,56.355 64.451,56.240 64.336 C 56.026 64.122,55.989 64.606,55.950 68.146 L 55.932 69.791 55.384 69.802 C 55.082 69.809,54.275 69.820,53.589 69.826 L 52.343 69.839 52.220 67.571 C 52.152 66.324,52.083 64.990,52.067 64.606 C 51.993 62.851,51.651 64.691,51.648 66.857 L 51.645 69.208 45.912 69.165 C 34.052 69.077,34.042 69.075,32.681 66.929 C 32.114 66.035,31.463 65.097,31.234 64.845 C 30.454 63.984,31.248 63.893,41.176 63.708 C 50.358 63.538,52.459 63.240,46.162 63.002 C 38.486 62.712,28.206 62.997,27.139 63.529 C 26.596 63.800,25.578 63.891,21.857 64.002 C 18.129 64.113,17.126 64.202,16.610 64.472 C 16.259 64.656,15.855 64.806,15.713 64.807 C 15.570 64.807,15.192 65.017,14.873 65.272 C 14.236 65.781,14.307 66.201,15.028 66.201 C 15.486 66.201,17.491 67.312,18.059 67.881 C 18.232 68.054,18.458 68.195,18.562 68.195 C 19.131 68.195,23.729 71.305,23.729 71.690 C 23.729 72.273,23.351 72.582,22.639 72.582 C 22.303 72.582,21.676 72.771,21.245 73.002 C 20.463 73.421,20.460 73.421,19.453 73.037 C 18.899 72.825,17.144 72.217,15.553 71.686 C 13.963 71.155,12.596 70.623,12.516 70.505 C 12.120 69.923,12.377 68.847,13.161 67.797 C 13.599 67.209,13.958 66.709,13.958 66.687 C 13.958 66.664,13.824 66.389,13.660 66.075 C 13.280 65.346,13.270 63.428,13.643 62.895 C 13.799 62.672,13.988 61.822,14.064 61.006 C 14.139 60.189,14.365 59.163,14.565 58.724 C 14.765 58.285,15.120 56.715,15.354 55.234 C 15.832 52.211,17.899 40.768,18.065 40.229 C 18.135 40.002,18.066 39.880,17.868 39.880 C 17.455 39.880,17.302 40.507,15.935 47.757 C 15.480 50.169,14.939 52.573,14.732 53.098 C 14.526 53.623,14.348 54.565,14.337 55.192 C 14.299 57.378,13.617 58.209,13.321 56.431 C 12.929 54.078,12.516 54.113,12.483 56.503 C 12.465 57.828,12.517 58.051,12.955 58.518 C 13.592 59.196,13.771 61.322,13.288 62.478 C 12.817 63.604,12.045 63.846,8.535 63.963 L 5.604 64.061 5.485 63.586 C 5.419 63.324,5.392 61.091,5.424 58.624 L 5.484 54.138 8.629 54.017 C 10.358 53.950,11.824 53.846,11.886 53.784 C 12.322 53.347,6.450 53.375,5.631 53.813 C 4.804 54.255,4.695 54.765,4.621 58.535 C 4.504 64.450,4.521 64.474,9.213 64.574 L 12.363 64.641 12.363 65.631 C 12.363 66.175,12.224 66.888,12.055 67.216 C 11.810 67.689,11.724 68.852,11.640 72.839 C 11.581 75.604,11.434 78.315,11.314 78.863 C 11.190 79.424,11.064 82.577,11.025 86.065 L 10.956 92.270 11.726 92.393 C 13.915 92.743,14.219 96.710,12.057 96.710 C 11.435 96.710,11.361 96.778,11.124 97.557 C 10.764 98.745,10.782 103.375,11.151 104.287 C 11.379 104.853,11.454 107.495,11.549 118.281 C 11.694 134.938,10.969 133.235,17.882 133.153 C 24.563 133.074,23.954 134.559,23.883 118.515 L 23.829 106.281 53.240 106.281 L 82.652 106.281 82.590 109.721 C 82.522 113.468,82.450 113.722,81.642 113.086 C 80.271 112.008,77.049 112.773,76.034 114.418 C 75.852 114.714,75.295 115.381,74.798 115.902 L 73.893 116.849 72.291 116.845 C 68.412 116.836,67.282 116.366,67.740 114.955 L 67.999 114.158 67.917 115.002 C 67.842 115.780,67.865 115.830,68.215 115.643 C 68.628 115.422,68.790 113.460,68.395 113.460 C 68.285 113.460,68.195 113.549,68.195 113.659 C 68.195 113.769,67.702 113.858,67.099 113.858 C 66.467 113.858,66.002 113.770,66.002 113.650 C 66.002 113.507,63.777 113.459,58.973 113.500 L 51.944 113.559 51.434 114.058 C 51.153 114.332,50.805 114.848,50.662 115.204 C 50.485 115.642,50.266 115.852,49.989 115.852 C 49.762 115.852,49.165 116.200,48.661 116.624 C 48.158 117.049,47.434 117.463,47.053 117.544 C 46.673 117.625,46.217 117.819,46.040 117.974 C 45.759 118.221,45.591 118.170,44.674 117.553 C 44.099 117.166,43.444 116.849,43.218 116.849 C 42.143 116.849,40.260 115.120,39.933 113.833 C 39.835 113.450,39.577 113.078,39.334 112.969 C 39.099 112.863,38.834 112.615,38.745 112.417 C 38.621 112.140,38.365 112.554,37.624 114.235 C 36.538 116.693,36.926 116.438,33.635 116.863 C 30.338 117.289,28.714 116.332,28.714 113.965 C 28.714 112.884,28.422 112.662,27.003 112.662 L 25.705 112.662 24.916 114.377 C 24.062 116.235,23.981 116.549,24.402 116.388 C 24.554 116.330,24.775 116.380,24.895 116.500 C 25.195 116.800,25.540 115.875,25.300 115.415 C 25.053 114.943,25.517 113.897,25.772 114.351 C 26.010 114.777,26.321 114.544,26.321 113.940 C 26.321 112.465,27.801 113.248,28.088 114.875 C 28.314 116.160,29.048 117.248,29.687 117.248 C 29.853 117.248,30.224 117.474,30.511 117.749 C 31.019 118.236,31.054 118.241,31.683 117.927 C 32.140 117.699,33.077 117.577,34.860 117.514 C 38.498 117.385,38.203 117.546,38.365 115.608 C 38.526 113.676,38.722 113.359,39.171 114.305 C 39.761 115.548,44.705 119.542,45.276 119.236 C 45.474 119.130,45.809 119.043,46.019 119.043 C 46.229 119.043,46.781 118.767,47.246 118.430 C 47.711 118.093,48.570 117.718,49.153 117.595 C 50.162 117.384,50.238 117.323,50.681 116.379 C 51.509 114.614,51.127 114.693,59.688 114.514 C 63.837 114.428,67.263 114.388,67.300 114.425 C 67.360 114.485,67.158 115.242,66.728 116.571 C 66.510 117.243,71.168 117.790,74.751 117.513 L 76.376 117.388 76.498 116.624 C 76.565 116.204,76.749 115.753,76.906 115.623 C 77.063 115.492,77.316 115.089,77.467 114.726 C 77.901 113.688,78.812 113.248,80.359 113.330 L 81.654 113.398 81.770 114.110 C 81.834 114.501,82.032 115.044,82.210 115.316 C 82.493 115.748,82.542 116.807,82.593 123.594 C 82.670 133.750,82.238 133.066,88.634 133.158 C 95.384 133.255,94.787 134.610,94.925 118.879 C 95.045 105.122,94.990 105.683,96.211 105.683 C 96.838 105.683,97.104 105.590,97.208 105.334 C 97.482 104.656,97.566 99.800,97.326 98.392 C 96.964 96.262,96.995 96.311,96.020 96.311 C 95.001 96.311,94.915 96.170,94.915 94.487 C 94.915 92.786,95.106 92.522,96.334 92.522 L 97.340 92.522 97.274 85.693 C 97.222 80.228,97.151 78.764,96.923 78.365 C 96.697 77.970,96.619 76.497,96.549 71.256 L 96.459 64.645 99.366 64.576 C 103.467 64.478,103.725 64.088,99.766 63.971 C 96.421 63.873,95.811 63.690,95.251 62.612 C 94.816 61.775,94.893 59.574,95.399 58.381 C 95.607 57.890,95.713 57.032,95.713 55.839 L 95.713 54.038 99.252 54.032 C 103.120 54.025,103.729 53.669,100.188 53.484 C 96.220 53.276,95.344 53.650,95.137 55.642 C 94.991 57.044,94.837 57.428,94.421 57.428 C 94.078 57.428,93.548 55.119,92.613 49.551 C 91.106 40.578,91.094 40.516,90.322 37.386 C 90.106 36.508,89.751 35.322,89.533 34.750 C 89.316 34.178,89.003 33.012,88.837 32.159 C 88.672 31.306,88.439 30.115,88.320 29.511 C 88.202 28.908,87.797 27.362,87.422 26.076 C 86.779 23.874,86.740 23.564,86.740 20.742 L 86.740 17.747 54.536 17.747 L 22.333 17.747 22.333 20.625 M230.508 18.245 C 230.508 18.611,230.615 18.744,230.907 18.744 C 231.281 18.744,231.306 18.877,231.306 20.837 C 231.306 22.798,231.281 22.931,230.907 22.931 C 230.615 22.931,230.508 23.064,230.508 23.430 L 230.508 23.928 233.500 23.928 L 236.491 23.928 236.491 26.903 L 236.491 29.879 235.942 29.987 C 235.641 30.047,234.048 30.327,232.403 30.609 C 224.931 31.888,222.884 32.339,222.783 32.729 C 222.633 33.301,222.378 33.171,222.240 32.453 C 222.078 31.613,221.316 29.910,221.103 29.910 C 221.012 29.910,220.937 29.772,220.937 29.602 C 220.937 28.381,215.410 27.583,214.444 28.664 C 211.937 31.467,211.502 34.390,213.413 35.593 C 214.592 36.336,215.542 38.013,215.204 38.756 C 214.575 40.136,190.931 64.096,190.020 64.276 C 189.751 64.329,187.154 64.476,184.247 64.602 C 179.045 64.828,170.029 65.519,164.656 66.103 C 163.148 66.267,160.636 66.538,159.073 66.706 C 154.857 67.160,147.213 68.126,142.544 68.796 C 140.280 69.121,138.082 69.434,137.659 69.492 C 135.349 69.806,129.991 70.851,128.814 71.217 C 127.394 71.657,126.142 73.350,125.631 75.523 C 125.495 76.099,125.303 76.570,125.204 76.570 C 125.103 76.570,125.023 78.797,125.021 81.705 C 125.016 86.858,124.824 89.157,124.137 92.289 C 123.666 94.435,124.175 96.388,125.533 97.647 C 126.825 98.845,126.462 99.019,122.283 99.207 L 119.043 99.353 119.044 101.671 C 119.044 102.945,119.103 104.998,119.174 106.231 L 119.303 108.475 122.513 108.494 C 127.316 108.524,127.252 108.471,126.043 111.363 C 125.498 112.668,125.319 113.303,125.483 113.354 C 125.725 113.429,127.349 113.550,131.206 113.781 C 132.358 113.850,133.659 113.965,134.098 114.037 L 134.895 114.168 135.019 115.658 C 135.465 121.032,139.622 127.809,144.538 131.176 C 158.259 140.574,176.083 133.826,180.541 117.547 C 180.841 116.451,181.122 115.441,181.165 115.304 C 181.256 115.014,186.556 114.945,187.002 115.227 C 187.146 115.319,187.401 115.995,187.569 116.731 C 188.092 119.025,188.797 118.297,188.358 115.915 L 188.205 115.081 191.759 112.706 C 196.638 109.446,196.620 109.451,198.504 110.882 C 199.829 111.888,200.860 112.255,203.226 112.564 C 206.329 112.970,207.405 113.210,208.410 113.720 L 209.272 114.158 229.412 114.158 C 240.489 114.158,257.042 114.090,266.198 114.008 L 282.844 113.858 284.744 115.751 L 286.644 117.644 288.426 117.426 C 292.638 116.911,296.039 117.427,296.654 118.676 C 297.054 119.488,297.707 121.081,297.707 121.245 C 297.707 121.611,299.964 125.348,300.881 126.500 C 311.222 139.495,332.347 137.595,339.692 123.009 C 346.664 109.164,338.514 92.342,323.629 89.855 C 323.245 89.790,322.572 89.678,322.134 89.604 C 320.441 89.320,316.008 89.478,314.058 89.893 C 302.305 92.393,295.609 101.357,296.191 113.809 L 296.324 116.650 291.511 116.650 L 286.697 116.650 284.800 115.005 L 282.902 113.360 268.221 113.460 C 260.146 113.514,243.714 113.559,231.705 113.559 L 209.870 113.559 208.233 113.017 C 207.332 112.718,205.336 112.290,203.798 112.065 C 200.211 111.541,199.611 111.291,197.607 109.486 L 196.909 108.858 245.161 108.903 L 293.414 108.948 293.984 107.066 C 294.859 104.182,299.768 93.586,301.502 90.841 C 304.015 86.861,305.173 86.653,325.257 86.567 L 336.157 86.521 337.819 88.109 C 339.368 89.589,339.717 90.068,340.378 91.625 C 340.517 91.954,340.710 92.403,340.805 92.622 C 341.015 93.105,341.475 94.440,343.793 101.282 C 345.528 106.403,346.501 109.859,347.362 113.958 C 347.939 116.704,347.908 116.625,348.375 116.503 C 348.729 116.411,348.763 116.295,348.643 115.587 C 348.506 114.777,346.884 107.747,346.654 106.964 L 346.532 106.551 354.273 106.565 C 358.531 106.574,363.382 106.511,365.055 106.427 C 367.846 106.287,368.096 106.302,368.096 106.614 C 368.096 107.813,368.135 107.818,377.123 107.733 L 385.344 107.654 386.770 106.922 L 388.197 106.189 389.113 103.289 C 390.537 98.783,390.874 99.103,384.706 99.103 L 379.925 99.103 379.565 98.042 C 379.129 96.761,379.263 95.748,379.969 94.986 C 380.238 94.696,380.460 94.314,380.462 94.138 C 380.464 93.935,380.518 93.899,380.611 94.038 C 381.730 95.716,389.116 95.998,393.081 94.514 L 394.217 94.089 394.190 79.697 C 394.175 71.781,394.108 62.074,394.041 58.126 L 393.918 50.947 392.622 50.314 C 389.139 48.611,385.194 48.717,381.574 50.609 L 380.196 51.329 380.327 58.457 C 380.398 62.377,380.398 67.339,380.327 69.482 L 380.196 73.380 340.696 73.384 C 302.655 73.388,267.287 73.626,263.858 73.901 L 262.213 74.033 262.222 71.463 C 262.228 69.778,262.328 68.621,262.512 68.103 C 262.841 67.181,262.736 66.874,262.382 67.719 C 262.249 68.036,262.103 69.529,262.058 71.037 L 261.976 73.779 259.702 73.779 L 257.428 73.779 257.419 71.934 C 257.409 70.008,257.260 67.459,257.134 67.074 C 257.094 66.951,256.479 66.741,255.767 66.607 C 254.442 66.357,254.168 66.095,254.329 65.238 C 254.392 64.907,254.571 61.194,254.734 56.830 C 254.782 55.568,254.870 51.710,254.930 48.255 C 254.990 44.801,255.093 40.681,255.159 39.101 L 255.279 36.228 246.333 36.359 C 241.413 36.431,236.849 36.528,236.191 36.574 C 235.533 36.620,233.739 36.715,232.203 36.784 C 224.646 37.124,224.868 37.077,223.330 38.657 C 221.865 40.162,217.756 44.876,215.774 47.325 C 215.050 48.220,214.367 49.049,214.257 49.167 C 214.148 49.285,213.789 49.728,213.460 50.152 C 213.131 50.576,212.587 51.242,212.251 51.633 C 211.664 52.315,207.860 56.974,203.309 62.584 L 201.148 65.247 202.811 66.919 L 204.474 68.590 208.667 68.455 C 210.974 68.381,213.400 68.315,214.058 68.308 L 215.254 68.295 215.356 69.791 C 215.411 70.613,215.568 71.482,215.704 71.721 C 215.955 72.163,216.138 72.250,217.298 72.484 C 217.994 72.624,218.175 73.141,217.673 73.557 C 217.187 73.961,213.550 74.177,199.651 74.629 L 198.204 74.676 198.206 72.682 C 198.211 66.943,198.811 66.021,214.813 47.176 C 219.797 41.307,220.494 40.267,222.054 36.382 C 223.572 32.599,222.880 32.930,232.901 31.197 C 236.865 30.512,236.491 30.389,236.491 32.381 L 236.491 34.053 235.842 34.166 C 235.486 34.228,234.432 34.335,233.500 34.404 C 232.567 34.473,231.087 34.651,230.209 34.799 C 229.332 34.947,228.098 35.125,227.468 35.195 C 226.837 35.265,226.321 35.406,226.321 35.508 C 226.321 35.766,227.086 35.740,229.713 35.393 C 234.179 34.804,237.987 34.497,240.806 34.497 C 242.380 34.497,243.669 34.429,243.669 34.347 C 243.669 34.265,242.839 34.229,241.825 34.267 C 238.476 34.394,240.062 34.145,251.147 32.803 L 262.114 31.476 269.093 31.591 C 272.931 31.654,287.468 31.750,301.396 31.804 C 330.868 31.918,372.084 32.147,372.084 32.197 C 372.084 32.385,373.113 38.237,373.267 38.922 C 373.378 39.420,373.601 40.624,373.762 41.598 C 373.924 42.573,374.200 44.177,374.376 45.165 C 374.552 46.152,375.099 49.337,375.593 52.243 C 376.655 58.502,377.992 65.293,378.262 65.796 C 378.500 66.241,379.735 66.483,379.570 66.052 C 379.510 65.897,379.462 65.732,379.462 65.687 C 379.462 65.641,379.342 65.603,379.196 65.603 C 378.595 65.603,378.514 65.260,376.686 54.935 C 376.026 51.206,374.910 44.925,374.205 40.977 C 373.501 37.029,372.862 33.417,372.786 32.951 L 372.647 32.104 373.362 32.104 C 373.756 32.104,374.078 32.014,374.078 31.904 C 374.078 31.795,373.775 31.705,373.404 31.705 C 372.967 31.705,372.635 31.570,372.457 31.321 C 372.211 30.976,368.543 28.660,365.703 27.057 L 364.606 26.438 361.167 26.429 L 357.728 26.421 357.727 25.174 L 357.727 23.928 360.885 23.928 L 364.043 23.928 363.949 21.336 C 363.882 19.483,363.920 18.744,364.081 18.744 C 364.205 18.744,364.307 18.519,364.307 18.245 L 364.307 17.747 297.408 17.747 L 230.508 17.747 230.508 18.245 M53.838 20.638 L 53.838 22.931 38.385 22.931 L 22.931 22.931 22.931 20.638 L 22.931 18.345 38.385 18.345 L 53.838 18.345 53.838 20.638 M86.142 20.638 L 86.142 22.931 70.489 22.931 L 54.835 22.931 54.835 20.638 L 54.835 18.345 70.489 18.345 L 86.142 18.345 86.142 20.638 M237.886 20.837 L 237.886 22.931 235.095 22.931 L 232.303 22.931 232.303 20.837 L 232.303 18.744 235.095 18.744 L 237.886 18.744 237.886 20.837 M268.993 20.937 L 268.993 22.931 253.938 22.931 L 238.883 22.931 238.883 20.937 L 238.883 18.943 253.938 18.943 L 268.993 18.943 268.993 20.937 M300.100 20.937 L 300.100 22.931 284.845 22.931 L 269.591 22.931 269.591 20.937 L 269.591 18.943 284.845 18.943 L 300.100 18.943 300.100 20.937 M328.016 20.937 L 328.016 22.931 314.357 22.931 L 300.698 22.931 300.698 20.937 L 300.698 18.943 314.357 18.943 L 328.016 18.943 328.016 20.937 M362.911 20.937 L 362.911 22.931 345.763 22.931 L 328.614 22.931 328.614 20.937 L 328.614 18.943 345.763 18.943 L 362.911 18.943 362.911 20.937 M85.919 24.177 C 86.328 25.453,87.139 28.363,87.139 28.554 C 87.139 28.660,86.726 28.384,86.221 27.940 C 84.392 26.331,82.782 26.011,75.135 25.742 C 68.804 25.519,37.228 25.805,33.898 26.115 C 28.439 26.625,24.150 27.540,22.720 28.500 C 21.569 29.273,21.578 29.347,22.455 26.234 L 23.216 23.529 54.464 23.529 L 85.712 23.529 85.919 24.177 M239.083 26.720 C 239.083 28.255,239.004 29.511,238.908 29.511 C 238.812 29.511,238.453 29.568,238.111 29.636 L 237.488 29.761 237.488 26.844 L 237.488 23.928 238.285 23.928 L 239.083 23.928 239.083 26.720 M267.398 25.116 C 267.398 26.583,267.853 26.478,261.017 26.589 C 256.192 26.667,255.678 26.713,250.947 27.499 C 248.205 27.954,244.840 28.508,243.470 28.730 C 242.099 28.952,240.775 29.183,240.528 29.244 L 240.080 29.355 240.080 26.642 L 240.080 23.928 253.739 23.928 L 267.398 23.928 267.398 25.116 M298.704 25.125 L 298.704 26.321 284.845 26.321 L 270.987 26.321 270.987 25.125 L 270.987 23.928 284.845 23.928 L 298.704 23.928 298.704 25.125 M326.421 25.125 L 326.421 26.321 314.257 26.321 L 302.094 26.321 302.094 25.125 L 302.094 23.928 314.257 23.928 L 326.421 23.928 326.421 25.125 M354.138 25.113 L 354.138 26.298 353.290 26.359 C 352.824 26.393,347.350 26.397,341.127 26.368 L 329.811 26.315 329.811 25.121 L 329.811 23.928 341.974 23.928 L 354.138 23.928 354.138 25.113 M328.814 25.224 L 328.814 26.321 328.116 26.321 L 327.418 26.321 327.418 25.224 L 327.418 24.128 328.116 24.128 L 328.814 24.128 328.814 25.224 M269.990 25.303 L 269.990 26.279 269.192 26.355 L 268.395 26.431 268.395 25.379 L 268.395 24.327 269.192 24.327 L 269.990 24.327 269.990 25.303 M301.097 25.324 L 301.097 26.321 300.399 26.321 L 299.701 26.321 299.701 25.324 L 299.701 24.327 300.399 24.327 L 301.097 24.327 301.097 25.324 M356.730 25.404 L 356.730 26.481 355.933 26.451 L 355.137 26.421 355.136 25.374 L 355.135 24.327 355.932 24.327 L 356.730 24.327 356.730 25.404 M81.051 26.498 C 84.371 26.941,86.079 27.902,87.386 30.063 C 88.088 31.224,88.640 32.863,88.407 33.095 C 88.349 33.153,73.006 33.232,54.311 33.271 L 20.321 33.341 20.449 32.772 C 21.297 28.996,23.459 27.877,32.004 26.790 C 36.598 26.206,77.055 25.965,81.051 26.498 M298.455 26.897 C 298.638 26.913,298.704 27.503,298.704 29.113 L 298.704 31.306 294.566 31.306 C 292.291 31.306,286.054 31.246,280.708 31.174 L 270.987 31.042 270.987 28.983 L 270.987 26.925 276.720 26.872 C 281.884 26.825,297.838 26.843,298.455 26.897 M301.097 28.825 L 301.097 30.907 300.399 30.907 L 299.701 30.907 299.701 28.863 L 299.701 26.820 300.399 26.781 L 301.097 26.743 301.097 28.825 M326.072 26.905 C 326.383 26.918,326.421 27.168,326.421 29.244 L 326.421 31.568 323.280 31.438 C 321.553 31.366,316.079 31.307,311.117 31.307 L 302.094 31.306 302.094 29.035 L 302.094 26.764 313.908 26.827 C 320.406 26.862,325.880 26.897,326.072 26.905 M267.149 27.102 C 267.330 27.114,267.398 27.659,267.398 29.113 L 267.398 31.107 264.324 31.107 C 261.678 31.107,247.870 32.554,240.728 33.581 L 240.080 33.674 240.080 31.792 C 240.080 30.757,240.147 29.910,240.229 29.909 C 240.312 29.909,243.833 29.318,248.056 28.596 L 255.733 27.284 260.718 27.186 C 263.460 27.133,265.788 27.067,265.893 27.040 C 265.998 27.014,266.267 27.013,266.491 27.039 C 266.716 27.064,267.011 27.093,267.149 27.102 M269.990 28.614 L 269.990 30.309 269.192 30.309 L 268.395 30.309 268.395 28.614 L 268.395 26.919 269.192 26.919 L 269.990 26.919 269.990 28.614 M328.814 28.913 L 328.814 30.907 328.116 30.907 L 327.418 30.907 327.418 28.913 L 327.418 26.919 328.116 26.919 L 328.814 26.919 328.814 28.913 M354.138 29.212 L 354.138 31.505 341.974 31.505 L 329.811 31.505 329.811 29.212 L 329.811 26.919 341.974 26.919 L 354.138 26.919 354.138 29.212 M356.730 28.913 L 356.730 30.907 355.932 30.907 L 355.135 30.907 355.135 28.913 L 355.135 26.919 355.932 26.919 L 356.730 26.919 356.730 28.913 M368.015 29.135 C 369.948 30.310,371.627 31.368,371.747 31.488 C 371.997 31.738,365.293 31.790,360.568 31.573 L 357.727 31.443 357.727 29.167 L 357.727 26.891 361.114 26.945 L 364.501 27.000 368.015 29.135 M218.843 29.711 C 218.624 29.805,218.041 29.882,217.547 29.882 C 217.054 29.882,216.471 29.805,216.251 29.711 C 215.987 29.597,216.426 29.539,217.547 29.539 C 218.669 29.539,219.107 29.597,218.843 29.711 M239.083 31.705 L 239.083 33.300 238.276 33.300 L 237.470 33.300 237.529 31.856 C 237.591 30.309,237.558 30.350,238.933 30.133 C 239.015 30.120,239.083 30.828,239.083 31.705 M220.293 31.363 C 221.188 31.657,221.325 32.305,220.538 32.523 C 219.236 32.886,213.641 32.651,213.206 32.215 C 212.207 31.217,217.796 30.545,220.293 31.363 M17.946 32.104 C 17.283 32.316,16.147 32.316,15.653 32.104 C 15.388 31.990,15.788 31.934,16.849 31.938 C 17.937 31.942,18.286 31.995,17.946 32.104 M19.731 33.794 C 21.260 34.584,20.033 34.946,16.112 34.863 C 12.626 34.788,12.138 34.633,12.924 33.846 C 13.683 33.088,18.297 33.052,19.731 33.794 M220.551 33.806 C 220.666 33.877,220.492 34.225,220.146 34.619 C 219.814 34.998,219.541 35.399,219.541 35.511 C 219.541 36.311,216.728 36.523,215.732 35.798 C 215.061 35.309,214.622 35.076,213.659 34.701 C 212.991 34.440,213.020 33.944,213.709 33.851 C 214.701 33.717,220.347 33.680,220.551 33.806 M256.879 33.845 C 257.400 33.887,258.253 33.887,258.774 33.845 C 259.295 33.804,258.868 33.771,257.827 33.771 C 256.785 33.771,256.358 33.804,256.879 33.845 M263.542 41.209 C 263.390 49.818,263.374 53.742,263.491 53.622 C 263.606 53.505,263.881 33.699,263.767 33.699 C 263.716 33.699,263.614 37.078,263.542 41.209 M251.303 34.046 C 251.938 34.086,252.925 34.085,253.497 34.045 C 254.069 34.005,253.549 33.972,252.343 33.973 C 251.137 33.973,250.669 34.006,251.303 34.046 M245.522 34.246 C 246.267 34.284,247.433 34.284,248.114 34.245 C 248.795 34.206,248.185 34.175,246.760 34.175 C 245.334 34.176,244.777 34.207,245.522 34.246 M270.788 34.900 C 267.503 35.147,267.720 34.342,267.707 46.361 C 267.695 57.509,267.617 56.999,269.672 59.127 L 271.087 60.592 289.432 60.703 C 299.521 60.764,316.884 60.860,328.016 60.917 C 339.148 60.973,351.384 61.068,355.208 61.129 L 362.160 61.239 363.024 60.337 C 364.774 58.511,364.856 56.641,363.600 47.159 C 362.416 38.218,361.950 36.068,361.026 35.302 C 360.453 34.826,356.405 34.722,338.067 34.709 L 320.102 34.696 319.249 35.708 L 318.395 36.720 318.480 46.227 L 318.565 55.733 319.092 56.879 C 319.382 57.510,319.736 58.024,319.879 58.021 C 325.164 57.931,363.058 58.292,363.200 58.434 C 363.327 58.562,363.216 58.809,362.878 59.147 L 362.361 59.664 355.109 59.862 C 349.007 60.028,291.102 59.921,286.042 59.734 C 285.274 59.705,282.268 59.620,279.362 59.543 C 273.948 59.401,271.766 59.281,271.117 59.091 C 269.081 58.496,277.192 58.247,298.587 58.246 L 312.129 58.246 313.093 57.296 L 314.058 56.346 314.058 46.461 L 314.058 36.575 313.104 35.636 L 312.150 34.696 292.416 34.727 C 281.562 34.743,271.830 34.821,270.788 34.900 M221.735 35.259 C 221.735 35.620,220.877 38.298,220.636 38.687 C 220.303 39.226,220.212 38.548,220.449 37.302 C 220.784 35.545,221.735 34.034,221.735 35.259 M22.471 35.643 C 22.424 35.725,22.189 36.600,21.949 37.587 C 21.709 38.574,21.432 39.651,21.333 39.980 C 21.234 40.309,20.961 41.431,20.725 42.473 C 20.179 44.887,19.540 47.669,19.443 48.056 C 19.067 49.545,17.693 56.133,17.608 56.850 C 17.521 57.582,17.612 58.020,18.056 59.009 L 18.613 60.251 53.863 60.185 C 79.619 60.137,89.173 60.059,89.337 59.895 C 89.503 59.729,88.475 59.668,85.376 59.660 C 81.344 59.650,81.152 59.631,80.127 59.152 C 79.173 58.706,78.737 58.645,75.915 58.558 C 72.694 58.460,72.183 58.332,72.183 57.628 C 72.183 57.068,71.502 57.029,61.740 57.032 C 52.053 57.035,51.645 57.059,51.645 57.637 C 51.645 58.191,51.907 58.219,59.142 58.431 C 65.788 58.627,66.999 58.718,66.999 59.024 C 66.999 59.752,50.487 59.830,49.762 59.106 C 49.358 58.701,48.804 58.637,44.965 58.549 C 41.309 58.465,40.877 58.386,40.877 57.800 C 40.877 57.035,40.163 56.984,31.107 57.098 C 22.760 57.204,21.336 57.283,21.336 57.637 C 21.336 57.998,23.096 58.141,29.811 58.324 C 36.063 58.496,38.285 58.676,38.285 59.012 C 38.285 59.363,34.091 59.554,23.180 59.699 L 18.544 59.761 18.522 59.243 C 18.452 57.640,18.584 55.810,18.834 54.935 C 18.991 54.387,19.297 52.769,19.514 51.341 C 19.931 48.594,20.908 43.937,22.108 38.983 L 22.832 35.992 53.838 36.060 C 70.892 36.098,84.917 36.196,85.005 36.279 C 85.140 36.407,89.227 56.463,89.630 58.973 C 89.792 59.984,89.989 60.043,90.343 59.188 C 90.722 58.273,90.679 56.729,90.262 56.268 C 90.038 56.020,89.507 53.939,88.723 50.228 C 88.064 47.114,87.300 43.534,87.025 42.273 C 86.750 41.012,86.341 39.128,86.118 38.086 C 85.895 37.044,85.668 36.034,85.614 35.842 C 85.511 35.473,22.681 35.274,22.471 35.643 M291.245 35.743 C 291.349 35.807,291.426 40.387,291.426 46.591 L 291.426 57.328 282.253 57.381 C 267.261 57.467,268.495 58.410,268.495 46.859 C 268.495 36.290,268.520 36.192,271.394 35.724 C 272.550 35.535,290.938 35.553,291.245 35.743 M310.607 35.804 C 312.322 35.948,312.378 36.003,312.698 37.897 C 312.988 39.612,313.065 53.210,312.795 55.101 C 312.479 57.320,312.576 57.302,300.997 57.317 L 292.423 57.328 292.371 46.660 C 292.342 40.793,292.358 35.891,292.405 35.768 C 292.496 35.531,307.710 35.561,310.607 35.804 M341.376 46.524 L 341.376 57.455 331.555 57.391 L 321.735 57.328 320.868 56.832 C 319.399 55.991,319.442 56.300,319.442 46.551 C 319.442 34.356,318.057 35.542,332.253 35.573 L 341.375 35.593 341.376 46.524 M359.123 35.808 C 360.869 36.049,360.864 36.039,361.708 41.148 C 363.016 49.058,363.718 56.098,363.260 56.706 C 362.852 57.248,358.935 57.445,349.840 57.380 L 342.473 57.328 342.421 46.573 C 342.385 39.049,342.434 35.778,342.584 35.686 C 342.847 35.523,357.867 35.634,359.123 35.808 M19.421 36.084 L 19.925 36.276 19.356 36.903 C 19.042 37.248,18.648 37.693,18.480 37.893 C 17.824 38.673,15.599 38.623,14.601 37.806 C 14.302 37.561,13.744 37.241,13.360 37.093 C 11.998 36.571,12.043 36.283,13.518 36.077 C 15.006 35.869,18.868 35.874,19.421 36.084 M218.979 37.444 C 220.124 38.588,217.167 42.960,208.388 53.108 C 206.791 54.955,205.080 56.940,204.586 57.519 C 204.093 58.099,202.529 59.796,201.112 61.290 L 198.535 64.008 195.662 64.008 C 193.641 64.008,192.810 63.942,192.862 63.786 C 192.903 63.664,197.243 59.245,202.507 53.966 C 216.239 40.193,216.351 40.066,216.351 38.287 C 216.351 37.204,218.160 36.624,218.979 37.444 M254.155 41.525 C 254.085 43.966,253.935 49.282,253.822 53.340 C 253.592 61.609,253.366 65.943,253.152 66.157 C 253.073 66.236,252.275 66.323,251.379 66.350 C 250.484 66.377,245.085 66.534,239.382 66.699 C 233.679 66.864,228.093 67.054,226.969 67.122 L 224.925 67.246 224.920 63.184 C 224.913 56.624,225.001 56.757,220.583 56.664 C 215.298 56.554,215.478 56.358,215.387 62.313 C 215.308 67.436,215.472 67.088,212.987 67.404 C 208.468 67.980,204.773 67.426,203.241 65.943 L 202.394 65.122 202.953 64.515 C 203.261 64.181,204.044 63.238,204.693 62.418 C 205.341 61.598,206.009 60.786,206.176 60.613 C 206.486 60.292,207.870 58.602,210.173 55.733 C 210.877 54.855,211.509 54.093,211.576 54.038 C 211.644 53.983,212.006 53.525,212.380 53.019 C 213.025 52.149,218.825 45.180,221.407 42.173 C 223.656 39.555,224.794 38.481,225.523 38.292 C 227.059 37.892,239.185 37.333,248.654 37.226 C 250.902 37.201,253.088 37.159,253.512 37.134 L 254.282 37.089 254.155 41.525 M269.878 49.710 C 269.818 49.867,269.796 50.523,269.830 51.169 L 269.890 52.343 270.588 52.343 L 271.286 52.343 271.286 50.947 L 271.286 49.551 270.637 49.489 C 270.213 49.448,269.949 49.525,269.878 49.710 M309.759 49.710 C 309.699 49.867,309.677 50.523,309.710 51.169 L 309.771 52.343 310.469 52.343 L 311.167 52.343 311.167 50.947 L 311.167 49.551 310.517 49.489 C 310.093 49.448,309.830 49.525,309.759 49.710 M320.726 49.710 C 320.666 49.867,320.644 50.523,320.677 51.169 L 320.738 52.343 321.436 52.343 L 322.134 52.343 322.134 50.947 L 322.134 49.551 321.484 49.489 C 321.060 49.448,320.797 49.525,320.726 49.710 M360.008 49.710 C 359.948 49.867,359.926 50.523,359.959 51.169 L 360.020 52.343 360.718 52.343 L 361.416 52.343 361.416 50.947 L 361.416 49.551 360.766 49.489 C 360.342 49.448,360.079 49.525,360.008 49.710 M390.130 50.322 C 390.678 50.469,391.598 50.793,392.173 51.042 L 393.220 51.495 393.221 61.291 C 393.221 66.679,393.280 76.126,393.353 82.284 L 393.485 93.482 391.807 94.038 C 389.497 94.803,385.362 94.858,383.101 94.153 L 381.655 93.702 381.651 91.367 C 381.649 90.083,381.564 84.053,381.463 77.966 C 381.363 71.879,381.255 63.501,381.225 59.347 L 381.170 51.795 382.313 51.216 C 384.551 50.085,387.842 49.708,390.130 50.322 M263.287 56.630 C 263.287 58.001,263.319 58.562,263.358 57.876 C 263.397 57.191,263.397 56.069,263.358 55.384 C 263.319 54.698,263.287 55.259,263.287 56.630 M103.125 59.023 C 103.125 62.032,103.185 63.313,103.307 62.911 C 103.545 62.128,103.547 55.907,103.309 55.135 C 103.184 54.729,103.125 55.979,103.125 59.023 M222.804 57.754 L 223.729 57.881 223.729 64.761 L 223.729 71.641 220.759 71.513 C 216.423 71.325,216.604 71.392,216.448 69.918 C 216.185 67.438,216.420 58.030,216.750 57.822 C 217.088 57.609,221.391 57.560,222.804 57.754 M263.075 63.011 C 263.075 63.724,263.111 64.015,263.155 63.659 C 263.199 63.303,263.199 62.719,263.155 62.363 C 263.111 62.006,263.075 62.298,263.075 63.011 M29.508 64.257 C 30.089 64.553,30.607 65.045,31.033 65.703 C 31.389 66.251,31.961 67.092,32.306 67.572 C 33.286 68.935,33.181 69.508,32.051 68.969 C 31.625 68.766,27.692 64.432,27.552 64.011 C 27.431 63.649,28.607 63.797,29.508 64.257 M81.415 63.934 C 81.666 64.185,77.097 69.199,76.625 69.189 C 75.401 69.165,77.861 65.062,79.661 64.123 C 80.270 63.806,81.188 63.707,81.415 63.934 M18.305 64.885 C 18.602 65.038,19.022 65.360,19.239 65.599 C 19.456 65.839,19.904 66.151,20.235 66.293 C 20.566 66.435,21.376 67.035,22.034 67.626 C 22.692 68.217,23.589 68.943,24.028 69.239 C 24.467 69.536,25.267 70.185,25.807 70.682 C 26.989 71.769,27.914 71.897,28.857 71.103 C 29.172 70.838,29.785 70.559,30.218 70.483 C 30.652 70.407,31.224 70.208,31.489 70.041 C 31.924 69.767,31.994 69.770,32.209 70.063 C 32.570 70.558,32.855 70.455,33.004 69.777 C 33.155 69.088,33.590 68.829,34.082 69.136 C 34.662 69.498,35.841 69.572,43.100 69.699 C 47.153 69.770,50.538 69.916,50.976 70.038 C 52.349 70.422,55.526 70.449,56.959 70.090 C 58.845 69.617,76.045 69.591,77.268 70.059 C 77.974 70.329,79.208 70.548,80.194 70.578 C 80.378 70.584,80.781 70.800,81.091 71.060 C 81.482 71.386,82.020 71.571,82.843 71.659 C 84.330 71.819,84.663 72.100,83.625 72.319 C 83.200 72.409,70.289 72.483,54.935 72.483 L 27.019 72.483 25.653 71.727 C 24.901 71.311,23.462 70.413,22.454 69.733 C 21.446 69.052,20.123 68.236,19.515 67.920 C 17.647 66.952,16.550 66.060,16.550 65.511 C 16.550 64.693,17.369 64.401,18.305 64.885 M26.618 65.012 C 27.939 65.406,32.013 69.615,31.256 69.803 C 31.229 69.810,30.818 69.860,30.343 69.914 C 29.868 69.969,29.148 70.186,28.743 70.397 C 28.132 70.715,27.880 70.745,27.260 70.574 C 26.298 70.309,19.940 65.249,19.940 64.749 C 19.940 64.481,25.584 64.703,26.618 65.012 M88.111 64.731 C 88.453 64.799,88.734 64.955,88.734 65.076 C 88.734 65.397,86.231 67.740,85.055 68.520 C 84.501 68.887,83.776 69.410,83.443 69.681 C 82.322 70.595,81.473 70.837,80.920 70.402 C 80.593 70.146,80.010 70.001,79.056 69.942 C 77.280 69.830,77.268 69.876,79.827 67.018 L 81.987 64.606 84.737 64.606 C 86.250 64.606,87.768 64.662,88.111 64.731 M188.524 65.186 C 188.420 65.286,186.002 65.646,183.151 65.986 C 180.299 66.326,176.037 66.833,173.679 67.113 C 171.321 67.394,166.834 67.932,163.709 68.309 C 160.583 68.686,157.532 69.047,156.929 69.111 C 156.326 69.175,155.608 69.261,155.334 69.303 C 155.060 69.344,153.669 69.519,152.243 69.691 C 150.818 69.863,148.350 70.183,146.760 70.402 C 145.169 70.620,142.208 71.028,140.179 71.307 C 135.508 71.949,131.435 72.670,129.025 73.279 C 126.807 73.840,126.557 73.771,127.450 72.842 C 129.105 71.119,134.257 70.156,153.340 67.999 C 156.246 67.670,159.746 67.271,161.117 67.112 C 164.485 66.721,164.932 66.679,171.685 66.114 C 182.920 65.175,188.880 64.846,188.524 65.186 M198.602 65.254 C 198.600 65.391,198.367 66.221,198.082 67.099 C 197.704 68.266,197.507 69.476,197.348 71.612 L 197.130 74.530 189.143 74.662 C 181.455 74.789,161.385 75.249,153.739 75.473 C 142.972 75.788,136.912 75.985,135.394 76.068 C 126.983 76.529,126.693 76.529,126.252 76.088 C 125.874 75.710,126.171 74.948,126.878 74.485 C 128.340 73.527,147.943 70.600,167.697 68.391 C 168.739 68.274,170.264 68.094,171.087 67.989 C 171.909 67.885,173.031 67.755,173.579 67.699 C 174.799 67.575,182.913 66.670,185.244 66.398 C 196.950 65.031,198.605 64.889,198.602 65.254 M262.862 66.102 C 262.864 66.540,262.905 66.696,262.953 66.448 C 263.000 66.200,262.998 65.841,262.949 65.651 C 262.899 65.460,262.860 65.663,262.862 66.102 M95.735 66.493 C 95.805 66.925,95.816 68.419,95.760 69.813 L 95.657 72.346 94.040 72.483 C 93.150 72.558,92.154 72.757,91.825 72.924 C 91.496 73.092,90.379 73.299,89.344 73.384 C 87.879 73.504,87.404 73.618,87.199 73.899 C 86.837 74.393,86.368 73.925,85.924 72.628 C 85.746 72.109,85.541 71.546,85.467 71.376 C 85.370 71.155,85.546 70.951,86.086 70.658 C 87.053 70.134,88.618 69.178,90.628 67.885 C 93.714 65.901,93.936 65.781,94.312 65.901 C 94.516 65.965,94.743 65.920,94.817 65.800 C 95.106 65.332,95.608 65.712,95.735 66.493 M255.115 67.526 C 256.340 67.694,256.386 67.813,256.464 71.044 L 256.530 73.779 251.246 73.776 C 248.340 73.774,240.601 73.878,234.049 74.007 C 221.734 74.250,220.980 74.219,221.261 73.487 C 221.325 73.321,221.749 73.088,222.204 72.970 C 223.841 72.545,223.992 72.475,224.360 71.981 C 224.567 71.704,224.782 70.991,224.842 70.386 C 225.013 68.665,225.106 68.392,225.582 68.211 C 226.120 68.007,231.707 67.790,241.276 67.604 C 251.839 67.398,254.089 67.385,255.115 67.526 M13.858 72.263 C 13.968 72.303,14.596 72.425,15.254 72.533 C 15.912 72.641,16.720 72.832,17.049 72.956 C 17.378 73.081,18.028 73.275,18.495 73.389 C 19.465 73.625,19.592 73.919,18.794 74.083 C 16.189 74.618,16.151 74.921,18.684 74.959 C 21.025 74.994,20.827 74.791,20.780 77.104 C 20.734 79.347,20.611 79.562,19.367 79.561 C 17.497 79.559,16.550 78.418,16.550 76.166 C 16.550 74.836,16.322 74.746,15.938 75.925 C 15.610 76.931,15.470 76.994,13.858 76.855 C 12.173 76.710,12.410 77.063,12.251 74.459 C 12.096 71.920,12.356 71.237,13.234 71.878 C 13.468 72.049,13.749 72.222,13.858 72.263 M220.339 72.884 C 220.339 73.522,219.868 74.177,219.410 74.177 C 218.782 74.177,218.797 73.596,219.443 72.899 C 219.940 72.362,220.339 72.355,220.339 72.884 M95.713 75.274 C 95.713 78.577,94.917 78.727,91.738 76.022 C 91.061 75.446,90.338 74.975,90.131 74.975 C 89.650 74.975,89.463 74.680,89.783 74.423 C 90.198 74.088,93.351 73.411,94.566 73.395 L 95.713 73.380 95.713 75.274 M23.711 79.113 C 23.716 81.717,23.641 84.163,23.545 84.546 C 23.432 85.001,23.364 83.354,23.350 79.811 C 23.338 76.556,23.405 74.377,23.517 74.377 C 23.627 74.377,23.707 76.312,23.711 79.113 M27.801 74.660 C 23.444 76.557,23.843 83.300,28.392 84.651 C 34.432 86.444,38.107 78.109,32.655 74.983 L 31.605 74.381 33.749 74.379 L 35.892 74.377 35.892 79.761 L 35.892 85.145 30.209 85.145 L 24.526 85.145 24.523 84.098 C 24.522 83.522,24.464 81.428,24.395 79.445 C 24.327 77.461,24.332 75.510,24.407 75.108 L 24.544 74.377 26.480 74.385 C 28.273 74.392,28.370 74.412,27.801 74.660 M70.788 75.075 L 70.788 75.773 53.739 75.773 L 36.690 75.773 36.690 75.075 L 36.690 74.377 53.739 74.377 L 70.788 74.377 70.788 75.075 M75.033 74.793 C 70.746 76.915,71.297 83.325,75.881 84.657 C 78.686 85.472,81.738 83.834,82.535 81.084 C 82.670 80.616,82.720 81.048,82.734 82.802 L 82.752 85.145 77.069 85.145 L 71.386 85.145 71.386 79.761 L 71.386 74.377 73.629 74.377 L 75.872 74.377 75.033 74.793 M82.743 76.520 C 82.735 78.518,82.717 78.615,82.476 77.943 C 81.920 76.386,81.133 75.515,79.462 74.606 C 79.150 74.436,79.465 74.388,80.907 74.383 L 82.752 74.377 82.743 76.520 M83.945 79.811 C 83.943 83.392,83.876 85.142,83.749 84.945 C 83.484 84.535,83.484 74.377,83.749 74.377 C 83.877 74.377,83.947 76.319,83.945 79.811 M350.349 76.538 L 350.349 78.699 338.036 78.834 C 323.202 78.996,257.667 79.011,257.410 78.853 C 257.101 78.662,257.326 75.210,257.669 74.867 C 257.727 74.809,275.485 74.708,297.132 74.642 C 318.779 74.576,336.528 74.489,336.574 74.450 C 336.619 74.410,339.737 74.377,343.503 74.377 L 350.349 74.377 350.349 76.538 M380.031 74.690 C 380.070 74.724,380.150 75.700,380.209 76.859 L 380.317 78.968 372.761 78.916 L 365.204 78.863 365.148 76.637 L 365.092 74.411 372.526 74.520 C 376.615 74.580,379.992 74.657,380.031 74.690 M85.294 81.295 C 85.259 82.590,85.230 81.585,85.230 79.063 C 85.230 76.540,85.258 75.481,85.293 76.709 C 85.328 77.936,85.328 80.000,85.294 81.295 M240.837 76.221 L 240.896 77.567 246.270 77.567 L 251.645 77.567 251.645 76.171 L 251.645 74.776 254.160 74.776 L 256.675 74.776 256.542 75.723 C 256.468 76.244,256.316 77.220,256.204 77.893 L 255.999 79.115 243.503 79.237 C 236.630 79.304,228.225 79.404,224.826 79.459 C 221.426 79.515,214.068 79.573,208.475 79.589 L 198.305 79.617 198.247 77.763 C 198.216 76.743,198.260 75.839,198.347 75.754 C 198.537 75.568,203.408 75.426,215.653 75.249 C 220.698 75.177,227.742 75.063,231.306 74.996 C 234.870 74.930,238.460 74.875,239.282 74.875 L 240.778 74.875 240.837 76.221 M32.104 75.648 C 33.164 76.169,34.195 77.566,34.396 78.759 C 35.156 83.260,29.431 85.919,26.536 82.409 C 23.430 78.643,27.683 73.479,32.104 75.648 M79.335 75.531 C 81.730 76.634,82.624 79.897,81.122 82.053 C 78.614 85.652,72.981 83.998,72.981 79.663 C 72.981 76.230,76.245 74.107,79.335 75.531 M197.208 77.543 L 197.208 79.517 192.572 79.636 C 190.022 79.701,183.001 79.803,176.969 79.862 C 170.937 79.920,164.835 80.010,163.410 80.061 C 161.984 80.112,155.905 80.209,149.900 80.276 L 138.983 80.398 138.983 78.705 L 138.983 77.013 142.921 76.891 C 145.087 76.824,148.161 76.681,149.751 76.573 C 153.211 76.339,181.492 75.702,192.572 75.609 L 197.208 75.570 197.208 77.543 M91.461 76.434 C 92.116 76.776,92.210 76.948,92.434 78.215 C 92.585 79.067,92.581 79.065,93.183 78.670 C 93.444 78.499,94.277 78.345,95.182 78.299 L 96.734 78.222 96.595 84.824 C 96.520 88.455,96.420 91.468,96.373 91.520 C 96.327 91.572,92.916 91.677,88.793 91.754 L 81.298 91.895 80.160 93.021 L 79.022 94.147 54.017 94.150 L 29.013 94.154 27.891 92.939 L 26.770 91.725 19.890 91.725 C 11.399 91.725,11.850 91.799,11.549 90.356 C 11.276 89.046,11.421 80.937,11.740 79.676 C 12.437 76.921,15.913 76.647,16.580 79.295 C 16.851 80.373,18.663 82.571,20.118 83.587 C 21.087 84.265,21.761 85.098,22.062 85.991 C 22.236 86.506,85.145 86.647,85.145 86.133 C 85.145 85.689,86.469 84.124,86.933 84.021 C 88.550 83.660,89.017 83.456,90.108 82.637 C 91.056 81.924,91.340 81.585,91.442 81.043 C 91.513 80.664,91.650 80.305,91.747 80.245 C 92.241 79.940,91.715 79.809,89.581 79.708 C 88.293 79.646,87.088 79.536,86.903 79.463 C 86.230 79.196,85.848 76.755,86.391 76.192 C 86.760 75.810,90.619 75.994,91.461 76.434 M70.788 77.368 L 70.788 78.365 64.481 78.365 L 58.175 78.365 56.937 77.756 C 55.876 77.233,55.476 77.146,54.138 77.146 C 52.799 77.146,52.399 77.233,51.338 77.756 L 50.101 78.365 43.410 78.365 C 38.237 78.365,36.699 78.421,36.631 78.614 C 36.582 78.751,36.575 78.605,36.616 78.290 C 36.657 77.975,36.690 77.414,36.690 77.044 L 36.690 76.371 53.739 76.371 L 70.788 76.371 70.788 77.368 M136.540 76.508 C 136.348 76.558,136.034 76.558,135.842 76.508 C 135.651 76.458,135.808 76.417,136.191 76.417 C 136.575 76.417,136.732 76.458,136.540 76.508 M22.134 80.392 C 22.134 82.494,22.092 84.173,22.042 84.122 C 21.864 83.944,21.856 76.570,22.034 76.570 C 22.089 76.570,22.134 78.290,22.134 80.392 M128.645 77.916 C 128.766 78.218,128.910 79.894,128.966 81.642 C 129.095 85.686,129.133 85.743,131.696 85.743 C 133.881 85.743,133.852 85.832,131.104 87.548 C 128.938 88.900,128.155 89.496,128.941 89.194 C 129.741 88.887,134.286 86.161,136.734 84.519 L 139.370 82.752 142.180 82.752 C 143.956 82.752,144.944 82.823,144.868 82.946 C 144.802 83.053,143.204 84.370,141.317 85.873 C 139.430 87.376,137.796 88.712,137.685 88.842 C 137.574 88.972,136.777 89.539,135.914 90.103 L 134.346 91.127 132.028 91.157 C 128.907 91.197,128.585 91.159,128.071 90.681 C 127.140 89.817,126.918 88.715,126.934 85.045 C 126.958 79.543,127.833 75.894,128.645 77.916 M137.478 77.564 C 138.533 77.965,138.635 79.856,137.637 80.510 C 137.068 80.883,131.925 81.031,130.772 80.708 C 129.493 80.349,129.111 78.588,130.137 77.781 C 130.723 77.320,136.395 77.152,137.478 77.564 M56.700 78.546 C 58.773 79.827,56.116 81.740,53.066 81.161 C 51.087 80.786,50.284 79.703,51.290 78.766 C 52.284 77.840,55.355 77.715,56.700 78.546 M376.969 80.144 C 381.758 80.322,379.559 80.521,371.386 80.649 C 357.253 80.870,258.335 81.005,257.827 80.804 C 256.211 80.166,361.814 79.581,376.969 80.144 M89.932 80.583 C 91.088 80.929,91.005 81.665,89.738 82.303 C 88.174 83.092,86.417 82.738,86.043 81.558 C 85.644 80.302,87.469 79.845,89.932 80.583 M20.956 80.697 C 21.200 80.940,21.076 82.024,20.745 82.547 C 20.588 82.796,20.488 82.774,20.087 82.398 C 19.828 82.154,19.471 81.954,19.295 81.954 C 18.859 81.954,17.747 80.994,17.747 80.619 C 17.747 80.247,20.575 80.315,20.956 80.697 M253.299 80.492 C 263.370 80.963,241.333 81.325,218.685 81.060 C 211.579 80.977,205.821 80.853,205.890 80.784 C 206.189 80.483,247.666 80.228,253.299 80.492 M195.214 80.980 C 192.715 81.193,162.390 81.486,157.029 81.348 L 152.841 81.240 155.932 81.170 C 168.535 80.881,198.041 80.738,195.214 80.980 M54.137 82.051 C 55.361 82.049,55.959 81.944,56.705 81.602 C 57.649 81.170,57.871 81.157,64.233 81.157 L 70.788 81.157 70.788 81.954 L 70.788 82.752 53.739 82.752 L 36.690 82.752 36.690 81.957 L 36.690 81.162 43.609 81.109 L 50.527 81.057 51.534 81.555 C 52.358 81.963,52.833 82.053,54.137 82.051 M138.584 81.741 C 138.584 82.721,134.108 85.002,132.136 85.026 C 129.739 85.055,128.499 83.025,130.259 81.952 C 130.968 81.520,138.584 81.327,138.584 81.741 M380.392 83.500 C 380.483 84.349,380.558 86.795,380.558 88.933 C 380.558 93.422,380.393 94.242,379.394 94.716 C 378.872 94.964,378.735 95.173,378.598 95.935 L 378.431 96.855 377.102 96.980 C 376.371 97.049,373.652 97.106,371.060 97.107 C 365.389 97.109,365.828 96.649,366.930 101.433 C 367.372 103.349,367.694 104.955,367.646 105.002 C 367.366 105.282,352.140 105.604,349.101 105.394 C 346.183 105.192,346.380 105.436,344.961 100.270 C 342.432 91.061,340.945 87.868,337.138 83.470 L 336.466 82.693 323.019 83.024 C 315.623 83.206,308.657 83.407,307.539 83.470 L 305.508 83.586 303.586 84.814 C 302.529 85.489,301.500 86.127,301.299 86.231 C 301.093 86.338,300.606 87.251,300.184 88.325 C 299.771 89.372,299.187 90.768,298.885 91.426 C 298.584 92.084,298.111 93.205,297.836 93.918 C 297.311 95.275,295.651 99.294,294.514 101.963 C 294.025 103.111,293.717 103.576,293.355 103.714 C 292.845 103.907,257.611 104.125,255.683 103.947 C 254.377 103.826,254.366 103.716,255.328 100.626 C 256.428 97.093,256.585 95.997,256.729 90.828 C 256.871 85.742,257.188 83.148,257.743 82.535 C 258.184 82.047,256.567 82.060,325.257 82.001 L 380.225 81.954 380.392 83.500 M196.762 88.185 L 196.683 94.018 195.765 96.810 C 195.261 98.345,194.559 100.511,194.205 101.624 L 193.562 103.646 189.553 103.545 C 187.348 103.490,185.472 103.379,185.386 103.299 C 185.299 103.220,184.599 101.592,183.830 99.683 C 181.607 94.160,179.537 90.490,177.282 88.069 C 175.530 86.188,174.520 85.858,169.851 85.647 C 168.392 85.581,166.928 85.485,166.596 85.435 C 165.413 85.255,150.201 85.171,147.757 85.331 C 144.469 85.547,143.896 85.824,139.880 89.136 C 134.639 93.460,135.006 93.320,128.895 93.320 L 124.626 93.320 124.626 92.841 C 124.626 92.116,125.459 91.922,129.511 91.704 C 135.464 91.384,135.748 91.255,142.173 85.968 L 146.062 82.768 151.645 82.732 C 154.716 82.711,162.253 82.635,168.395 82.563 C 174.536 82.490,183.449 82.414,188.201 82.392 L 196.841 82.353 196.762 88.185 M256.114 83.101 C 256.082 83.512,256.006 85.419,255.944 87.338 C 255.680 95.570,254.622 101.821,253.231 103.362 C 252.731 103.917,252.090 103.928,220.518 103.904 L 200.059 103.888 199.332 100.947 C 198.210 96.412,197.363 86.073,197.885 83.292 C 198.062 82.348,195.317 82.431,228.036 82.389 L 256.171 82.353 256.114 83.101 M70.788 84.048 L 70.788 84.746 53.762 84.746 L 36.736 84.746 36.632 84.199 C 36.574 83.898,36.569 83.584,36.620 83.501 C 36.672 83.418,44.380 83.350,53.751 83.350 L 70.788 83.350 70.788 84.048 M337.497 85.679 C 338.515 86.756,339.315 87.670,339.274 87.711 C 339.189 87.797,337.713 86.677,336.989 85.975 L 336.491 85.493 321.296 85.639 L 306.102 85.785 303.869 87.259 C 301.544 88.796,301.400 88.864,301.194 88.531 C 300.754 87.819,305.159 84.580,306.755 84.441 C 307.829 84.348,314.659 84.185,324.227 84.023 C 328.450 83.952,331.924 83.879,331.949 83.860 C 331.974 83.841,332.816 83.802,333.820 83.773 L 335.646 83.720 337.497 85.679 M171.657 86.509 C 176.890 87.557,179.278 90.886,184.194 103.988 C 185.036 106.232,187.233 114.369,187.031 114.498 C 186.981 114.530,185.673 114.529,184.125 114.496 L 181.312 114.436 181.170 112.004 C 180.313 97.268,169.417 87.784,155.334 89.516 C 143.189 91.011,136.272 98.658,134.507 112.540 C 134.452 112.967,134.373 113.350,134.331 113.393 C 134.228 113.495,126.396 112.903,126.276 112.784 C 125.720 112.227,127.902 108.848,129.117 108.384 C 131.074 107.636,132.387 104.383,132.399 100.249 L 132.403 98.903 131.333 98.903 C 127.595 98.903,124.427 96.947,124.427 94.639 C 124.427 93.992,124.385 93.998,127.766 94.150 C 136.235 94.529,135.825 94.537,136.538 93.994 C 136.893 93.724,137.162 93.429,137.136 93.338 C 137.110 93.247,137.553 92.823,138.120 92.395 C 138.686 91.967,139.718 91.107,140.413 90.484 C 144.166 87.116,144.942 86.680,147.757 86.356 C 149.883 86.112,170.328 86.242,171.657 86.509 M219.342 91.326 L 219.342 94.317 221.436 94.317 C 223.396 94.317,223.529 94.292,223.529 93.918 C 223.529 93.551,223.396 93.519,221.834 93.519 L 220.140 93.519 220.140 92.522 L 220.140 91.525 221.735 91.525 C 224.021 91.525,224.064 90.972,221.785 90.886 L 220.239 90.828 220.179 89.880 L 220.118 88.933 221.824 88.933 C 223.207 88.933,223.529 88.877,223.529 88.634 C 223.529 88.387,223.164 88.335,221.436 88.335 L 219.342 88.335 219.342 91.326 M224.526 91.326 C 224.526 94.184,224.544 94.317,224.925 94.317 C 225.286 94.317,225.324 94.184,225.324 92.921 L 225.324 91.525 226.620 91.525 C 227.639 91.525,227.916 91.462,227.916 91.226 C 227.916 90.991,227.639 90.927,226.620 90.927 L 225.324 90.927 225.324 89.930 L 225.324 88.933 226.820 88.933 C 228.016 88.933,228.315 88.873,228.315 88.634 C 228.315 88.389,227.972 88.335,226.421 88.335 L 224.526 88.335 224.526 91.326 M229.312 91.326 L 229.312 94.317 231.206 94.317 C 232.968 94.317,233.101 94.289,233.101 93.918 C 233.101 93.555,232.968 93.519,231.605 93.519 L 230.110 93.519 230.110 90.927 C 230.110 88.468,230.089 88.335,229.711 88.335 C 229.330 88.335,229.312 88.468,229.312 91.326 M232.502 88.623 C 232.502 88.825,232.785 88.929,233.450 88.972 L 234.397 89.033 234.452 91.675 C 234.505 94.152,234.533 94.317,234.901 94.317 C 235.273 94.317,235.294 94.171,235.294 91.625 L 235.294 88.933 236.291 88.933 C 237.044 88.933,237.288 88.860,237.288 88.634 C 237.288 88.385,236.889 88.335,234.895 88.335 C 232.942 88.335,232.502 88.388,232.502 88.623 M40.080 89.856 C 38.267 89.985,38.121 90.055,37.891 90.910 C 37.425 92.639,37.850 92.909,41.276 93.064 C 46.520 93.301,47.856 92.968,47.856 91.426 C 47.856 90.233,47.501 89.930,46.097 89.929 C 45.475 89.929,44.113 89.894,43.071 89.853 C 42.029 89.812,40.683 89.813,40.080 89.856 M50.641 89.902 C 48.843 90.287,48.302 92.431,49.903 92.825 C 51.857 93.307,56.903 93.180,57.745 92.629 C 58.567 92.090,58.413 90.397,57.510 90.051 C 57.059 89.878,51.334 89.753,50.641 89.902 M60.883 89.935 C 59.546 90.353,59.082 91.854,60.070 92.559 C 60.987 93.213,68.265 93.281,68.972 92.641 C 69.624 92.051,69.275 90.361,68.433 90.035 C 67.894 89.826,61.500 89.741,60.883 89.935 M161.869 90.452 C 171.038 92.068,178.521 99.731,179.870 108.884 C 180.140 110.717,180.147 115.183,179.881 116.198 C 179.773 116.611,179.580 117.398,179.452 117.946 C 177.894 124.611,172.125 130.791,165.291 133.115 C 146.127 139.632,129.415 120.491,138.293 102.193 C 139.582 99.538,142.133 96.316,143.917 95.092 C 146.593 93.256,147.263 92.839,148.516 92.229 C 152.694 90.195,157.093 89.610,161.869 90.452 M323.099 90.461 C 332.528 92.273,339.444 99.489,340.879 109.012 C 343.333 125.292,327.698 138.475,312.113 133.267 C 305.009 130.893,299.808 125.357,297.924 118.164 C 293.771 102.309,307.298 87.424,323.099 90.461 M47.258 91.426 L 47.258 92.323 42.871 92.323 L 38.485 92.323 38.485 91.426 L 38.485 90.528 42.871 90.528 L 47.258 90.528 47.258 91.426 M56.990 90.657 C 57.378 90.761,57.439 90.891,57.388 91.502 L 57.328 92.223 53.689 92.278 L 50.050 92.332 50.050 91.430 L 50.050 90.528 53.290 90.531 C 55.072 90.533,56.737 90.589,56.990 90.657 M68.395 91.426 L 68.395 92.323 64.506 92.323 L 60.618 92.323 60.618 91.426 L 60.618 90.528 64.506 90.528 L 68.395 90.528 68.395 91.426 M28.048 93.620 L 29.276 94.716 54.195 94.716 L 79.114 94.716 80.051 93.619 L 80.988 92.522 87.453 92.522 L 93.918 92.522 93.918 94.393 L 93.918 96.263 91.077 96.395 C 81.172 96.854,32.355 97.114,19.275 96.778 L 14.158 96.646 14.158 94.584 L 14.158 92.522 20.489 92.523 L 26.820 92.524 28.048 93.620 M197.673 98.604 C 199.099 103.787,199.082 103.992,197.227 103.813 C 194.383 103.540,194.356 103.406,196.153 98.564 C 197.023 96.222,197.018 96.222,197.673 98.604 M96.575 96.989 C 97.081 98.308,97.223 103.298,96.798 104.805 C 96.651 105.322,95.452 105.362,70.090 105.707 C 53.639 105.930,14.231 105.688,12.558 105.353 C 11.366 105.115,10.736 98.972,11.737 97.352 C 11.843 97.182,14.121 97.171,20.745 97.310 C 38.751 97.687,72.995 97.494,89.133 96.924 C 96.183 96.675,96.455 96.677,96.575 96.989 M379.262 98.604 L 379.707 99.701 384.570 99.701 C 388.314 99.701,389.437 99.758,389.455 99.950 C 389.499 100.413,389.404 100.790,388.604 103.320 L 387.807 105.843 386.579 106.497 L 385.350 107.152 377.271 107.239 C 369.563 107.323,369.178 107.310,368.878 106.953 C 368.615 106.641,366.691 98.710,366.698 97.966 C 366.701 97.656,367.803 97.592,373.905 97.545 L 378.817 97.507 379.262 98.604 M157.672 98.218 C 157.647 98.238,157.044 98.307,156.331 98.372 C 147.353 99.191,141.383 109.637,145.148 117.941 C 150.289 129.279,166.260 128.850,170.932 117.248 C 174.264 108.973,168.321 99.262,159.367 98.350 C 158.459 98.258,157.697 98.198,157.672 98.218 M317.311 98.695 C 305.784 100.499,301.435 114.568,309.984 122.401 C 318.940 130.608,333.309 123.766,332.738 111.565 C 332.365 103.606,325.030 97.487,317.311 98.695 M322.108 99.400 C 329.251 100.913,333.960 108.834,331.890 115.852 C 328.629 126.909,313.629 128.886,307.821 119.025 C 301.952 109.060,310.738 96.991,322.108 99.400 M159.944 99.594 C 169.881 101.331,174.056 111.557,168.292 120.040 C 164.065 126.260,153.790 126.896,148.588 121.258 C 140.119 112.080,147.778 97.468,159.944 99.594 M131.368 101.944 C 131.277 104.201,131.130 104.606,129.747 106.396 L 128.913 107.476 124.576 107.477 L 120.239 107.478 120.239 103.888 L 120.239 100.299 121.186 100.273 C 121.707 100.259,123.480 100.185,125.125 100.109 C 126.770 100.033,128.866 99.955,129.783 99.936 L 131.451 99.900 131.368 101.944 M156.130 101.081 C 149.398 102.014,145.095 108.955,147.159 115.553 C 151.008 127.860,169.093 125.147,169.093 112.263 C 169.093 105.115,163.270 100.092,156.130 101.081 M316.571 101.215 C 306.481 103.656,304.843 117.537,314.084 122.291 C 326.471 128.663,336.854 110.475,325.186 102.846 C 323.628 101.827,323.104 101.601,321.137 101.102 C 320.038 100.823,317.980 100.874,316.571 101.215 M160.281 102.102 C 166.817 103.610,170.268 111.535,166.920 117.348 C 161.935 126.003,149.162 123.476,147.769 113.559 C 146.800 106.655,153.483 100.534,160.281 102.102 M322.441 102.462 C 334.718 107.202,328.660 126.105,316.132 122.147 C 313.888 121.438,310.668 119.064,310.668 118.118 C 310.668 117.969,310.589 117.846,310.493 117.846 C 309.981 117.846,308.873 114.143,308.873 112.431 C 308.873 109.038,310.852 105.260,313.407 103.776 C 313.930 103.473,314.423 103.127,314.503 103.008 C 314.584 102.889,314.651 102.861,314.653 102.946 C 314.655 103.031,314.923 102.963,315.250 102.794 C 317.149 101.812,320.372 101.663,322.441 102.462 M192.173 105.120 C 193.948 105.601,192.440 106.082,189.158 106.082 C 186.491 106.082,185.424 105.827,185.942 105.313 C 186.350 104.909,190.877 104.769,192.173 105.120 M198.534 105.196 C 199.400 105.332,199.759 105.784,199.228 106.068 C 198.348 106.539,193.819 106.290,193.819 105.771 C 193.819 105.075,196.045 104.803,198.534 105.196 M250.349 105.163 C 250.568 105.213,250.950 105.261,251.196 105.269 C 251.802 105.289,251.767 105.793,251.131 106.210 C 250.757 106.455,249.982 106.579,248.289 106.665 L 245.962 106.784 248.012 106.923 C 250.226 107.074,250.936 107.285,249.950 107.500 C 248.251 107.869,202.650 107.508,201.591 107.116 C 200.967 106.886,205.865 106.680,211.984 106.680 C 214.592 106.680,216.768 106.613,216.819 106.530 C 216.869 106.448,215.865 106.387,214.587 106.395 C 210.816 106.419,201.326 106.128,200.947 105.978 C 200.604 105.842,200.456 105.309,200.748 105.258 C 202.390 104.976,249.127 104.886,250.349 105.163 M292.508 105.628 C 293.293 105.818,293.497 106.154,292.980 106.406 C 292.581 106.600,257.295 106.686,254.652 106.499 C 253.011 106.384,252.435 106.100,253.182 105.777 C 254.199 105.336,290.728 105.198,292.508 105.628 M156.338 105.992 C 150.608 107.586,149.784 115.434,155.084 117.943 C 160.584 120.548,166.308 115.063,163.764 109.627 C 162.330 106.561,159.417 105.136,156.338 105.992 M18.730 106.207 C 20.767 106.275,22.503 106.395,22.589 106.473 C 22.675 106.551,22.802 112.316,22.871 119.285 L 22.996 131.956 22.515 132.228 C 21.995 132.522,14.194 132.612,13.114 132.336 C 12.317 132.133,12.330 132.352,12.295 118.909 C 12.259 104.819,12.147 105.782,13.799 105.955 C 14.475 106.025,16.694 106.139,18.730 106.207 M318.428 105.960 C 318.382 106.003,317.941 106.093,317.448 106.161 C 311.898 106.920,311.106 115.496,316.351 118.040 C 323.463 121.490,329.269 110.269,322.230 106.678 C 321.361 106.235,318.676 105.728,318.428 105.960 M93.872 118.943 L 93.926 131.705 93.501 132.054 C 92.897 132.550,84.693 132.583,83.993 132.092 L 83.549 131.782 83.549 118.928 L 83.549 106.075 88.684 106.128 L 93.819 106.181 93.872 118.943 M192.096 106.795 C 193.103 107.186,190.097 107.617,187.957 107.387 C 186.396 107.220,186.116 106.758,187.488 106.614 C 188.613 106.495,191.629 106.613,192.096 106.795 M199.531 106.845 C 200.204 107.222,199.283 107.378,196.377 107.378 C 193.822 107.378,193.156 107.276,193.495 106.937 C 193.906 106.526,198.828 106.450,199.531 106.845 M159.604 107.089 C 166.416 109.638,163.071 119.303,156.080 117.272 C 152.390 116.200,151.314 111.076,154.197 108.308 C 155.808 106.761,157.629 106.351,159.604 107.089 M292.323 107.250 L 293.021 107.418 292.223 107.595 C 290.194 108.047,251.479 107.778,251.940 107.315 C 252.336 106.919,290.682 106.857,292.323 107.250 M320.864 107.223 C 324.342 108.339,325.571 112.948,323.145 115.781 C 320.685 118.655,316.087 118.035,314.406 114.603 C 312.341 110.386,316.371 105.780,320.864 107.223 M317.996 108.154 C 315.469 109.078,314.399 111.618,315.548 113.965 C 317.313 117.572,322.370 116.686,323.130 112.637 C 323.633 109.952,320.518 107.232,317.996 108.154 M195.408 108.864 C 195.532 109.065,195.453 109.285,195.151 109.584 C 194.539 110.190,188.212 114.500,188.099 114.387 C 188.019 114.307,186.640 108.781,186.640 108.539 C 186.640 108.268,195.238 108.587,195.408 108.864 M156.813 109.948 C 154.523 110.970,154.979 114.459,157.445 114.790 C 159.465 115.061,160.970 112.904,160.030 111.087 C 159.461 109.986,157.936 109.446,156.813 109.948 M76.677 115.005 C 76.513 115.663,75.887 116.374,75.345 116.516 C 75.067 116.589,75.004 116.550,75.130 116.385 C 76.673 114.352,76.886 114.163,76.677 115.005 M37.687 116.152 C 37.687 116.462,37.574 116.650,37.388 116.650 C 37.034 116.650,37.019 116.554,37.295 116.039 C 37.573 115.520,37.687 115.553,37.687 116.152 M44.436 118.142 C 44.500 118.468,44.469 118.466,43.994 118.120 C 43.359 117.657,43.321 117.406,43.918 117.626 C 44.165 117.717,44.398 117.949,44.436 118.142 " stroke="none" fill="#000000" fill-rule="evenodd"></path></g></svg>