<svg id="svg" xmlns="http://www.w3.org/2000/svg" xmlns:xlink="http://www.w3.org/1999/xlink" width="400" height="135.2112676056338" viewBox="0, 0, 400,135.2112676056338"><g id="svgg"><path id="path0" d="M275.061 27.996 L 267.210 28.168 258.629 29.577 C 239.234 32.760,236.470 33.279,236.016 33.820 C 235.658 34.247,235.721 34.353,235.402 32.795 C 235.352 32.550,235.029 31.938,234.685 31.433 C 234.341 30.929,234.004 30.369,233.937 30.188 C 233.722 29.611,227.988 29.721,227.977 30.302 C 227.975 30.420,227.602 31.089,227.149 31.788 C 225.766 33.923,225.788 35.618,227.210 36.407 C 229.666 37.771,229.660 38.953,227.183 41.705 C 224.800 44.353,212.598 56.699,208.729 60.376 L 205.870 63.093 204.203 63.183 C 203.286 63.233,201.521 63.323,200.282 63.383 C 196.342 63.572,191.853 63.848,191.174 63.942 C 190.812 63.991,189.291 64.121,187.793 64.229 C 186.296 64.337,184.775 64.460,184.413 64.504 C 184.052 64.547,182.784 64.677,181.596 64.792 C 176.224 65.311,166.253 66.555,160.482 67.426 C 159.132 67.629,157.160 67.922,156.098 68.077 C 148.425 69.193,147.050 69.900,146.200 73.166 C 145.847 74.522,145.840 74.410,146.311 74.948 C 146.836 75.547,146.688 77.245,145.993 78.592 C 145.561 79.429,145.491 79.854,145.346 82.535 C 145.128 86.572,145.018 87.483,144.691 87.950 C 143.941 89.021,144.722 92.695,145.947 93.856 C 147.408 95.240,146.724 95.446,140.224 95.580 C 140.037 95.584,139.925 95.654,139.976 95.736 C 140.026 95.817,140.088 97.402,140.112 99.257 C 140.136 101.112,140.193 102.944,140.239 103.329 L 140.322 104.029 143.615 104.080 C 147.708 104.144,147.591 104.042,146.532 106.600 C 146.111 107.618,145.796 108.482,145.832 108.520 C 145.894 108.586,147.791 108.730,152.394 109.019 C 154.882 109.176,154.742 109.102,154.742 110.257 C 154.742 112.116,156.632 117.380,157.936 119.155 C 158.240 119.568,158.714 120.244,158.990 120.657 C 164.792 129.347,179.183 131.526,188.224 125.085 C 193.177 121.555,195.299 118.324,197.266 111.315 L 197.569 110.235 200.728 110.235 L 203.886 110.235 207.436 107.883 C 211.581 105.136,212.113 104.935,212.992 105.779 C 214.404 107.136,215.270 107.468,218.492 107.890 C 219.724 108.052,221.370 108.404,222.150 108.674 C 224.214 109.386,226.273 109.470,239.531 109.381 C 245.934 109.337,258.484 109.258,267.418 109.204 C 276.352 109.149,285.421 109.057,287.570 108.998 L 291.479 108.892 293.309 110.689 L 295.139 112.487 296.536 112.306 C 301.934 111.605,304.147 112.238,305.048 114.742 C 311.034 131.372,334.574 133.789,343.842 118.726 C 344.670 117.381,345.589 115.010,346.199 112.643 C 346.810 110.273,346.386 110.498,350.726 110.237 C 352.470 110.131,354.488 110.003,355.211 109.952 C 355.934 109.901,357.920 109.772,359.624 109.666 C 364.291 109.377,366.155 109.062,373.521 107.320 L 375.681 106.809 375.681 104.156 L 375.681 101.502 377.299 101.405 C 379.658 101.263,379.897 100.970,380.367 97.645 C 380.534 96.461,380.756 94.905,380.860 94.187 C 381.246 91.520,381.979 90.662,382.373 92.416 C 382.770 94.184,384.015 94.682,388.263 94.772 C 389.915 94.807,391.563 94.762,391.925 94.670 C 392.286 94.579,393.153 94.359,393.850 94.180 L 395.117 93.855 395.113 86.881 C 395.107 78.664,394.812 59.551,394.627 55.421 L 394.498 52.532 392.789 51.733 C 389.004 49.963,386.460 50.095,383.087 52.237 L 381.596 53.183 381.596 58.223 C 381.596 63.203,381.489 64.225,380.966 64.225 C 380.520 64.225,380.041 62.458,379.362 58.310 C 378.893 55.437,377.410 46.786,376.996 44.507 C 376.743 43.113,376.148 39.817,375.675 37.183 C 375.201 34.549,374.755 32.342,374.684 32.278 C 374.612 32.214,372.970 31.216,371.033 30.060 L 367.512 27.959 325.212 27.891 C 301.946 27.854,279.378 27.901,275.061 27.996 M369.671 29.850 C 370.911 30.608,372.407 31.519,372.995 31.874 C 374.383 32.713,374.345 32.648,374.729 34.836 C 374.910 35.869,375.215 37.601,375.405 38.685 C 375.820 41.047,375.885 41.425,376.149 43.005 C 376.619 45.816,376.774 46.693,377.573 51.080 C 380.030 64.563,380.082 64.789,380.740 64.789 C 381.700 64.789,381.873 65.327,381.941 68.538 L 382.004 71.496 332.176 71.630 C 304.770 71.703,281.967 71.786,281.502 71.815 C 281.038 71.843,278.840 71.898,276.620 71.937 L 272.582 72.006 272.478 70.041 L 272.374 68.075 272.337 70.000 L 272.300 71.925 270.263 71.925 L 268.226 71.925 268.093 68.784 C 267.945 65.277,268.030 65.462,266.406 65.138 L 265.299 64.917 265.419 61.801 C 265.747 53.223,266.121 37.138,265.995 37.012 C 265.705 36.722,241.178 37.642,238.365 38.048 C 237.524 38.170,237.179 38.480,234.648 41.396 C 234.028 42.110,233.088 43.186,232.558 43.786 C 232.029 44.387,231.102 45.492,230.498 46.242 C 229.894 46.992,228.925 48.155,228.345 48.826 C 227.764 49.498,225.991 51.653,224.405 53.615 C 222.819 55.577,220.800 58.070,219.918 59.155 C 219.036 60.239,218.212 61.254,218.087 61.408 C 217.962 61.563,217.475 62.163,217.005 62.742 C 215.929 64.067,215.888 63.879,217.627 65.608 L 219.104 67.076 221.242 66.971 C 222.418 66.913,224.645 66.847,226.192 66.823 L 229.003 66.781 229.197 68.189 C 229.422 69.819,229.850 70.610,230.505 70.610 C 232.134 70.610,231.904 71.783,230.235 71.991 C 228.570 72.199,217.925 72.670,214.789 72.674 L 213.333 72.676 213.334 70.751 C 213.337 65.610,214.227 64.174,225.818 50.602 C 226.440 49.874,227.286 48.864,227.700 48.357 C 228.113 47.850,229.185 46.566,230.083 45.502 C 233.529 41.421,234.013 40.644,235.602 36.641 C 236.414 34.597,236.596 34.286,237.106 34.069 C 237.938 33.716,246.680 32.115,261.127 29.670 C 263.606 29.250,265.845 28.869,266.103 28.823 C 266.362 28.777,269.784 28.684,273.709 28.617 C 277.634 28.550,280.887 28.455,280.939 28.406 C 280.991 28.357,300.469 28.352,324.225 28.395 L 367.418 28.472 369.671 29.850 M29.859 30.428 C 18.943 30.826,19.091 30.646,15.784 47.570 C 15.364 49.719,14.852 51.977,14.646 52.587 C 14.441 53.198,14.272 54.159,14.272 54.724 C 14.272 56.664,13.569 57.409,13.294 55.760 C 13.218 55.303,13.102 54.718,13.037 54.460 L 12.917 53.991 12.742 54.449 C 12.377 55.408,12.511 57.271,12.983 57.773 C 13.552 58.379,13.707 60.412,13.265 61.470 C 12.825 62.523,12.180 62.714,8.879 62.770 L 6.103 62.817 6.009 58.122 L 5.915 53.427 5.575 54.154 C 5.287 54.768,5.237 55.362,5.248 58.004 C 5.270 63.291,5.172 63.168,9.404 63.252 L 12.394 63.312 12.394 64.215 C 12.394 64.712,12.271 65.413,12.121 65.772 C 11.919 66.257,11.815 67.708,11.721 71.382 C 11.635 74.754,11.513 76.578,11.340 77.089 C 11.149 77.654,11.085 79.218,11.083 83.391 L 11.080 88.942 11.862 89.119 C 13.796 89.556,14.153 92.640,12.340 93.256 C 11.251 93.626,11.003 94.361,11.017 97.183 C 11.026 98.879,11.109 99.792,11.283 100.106 C 11.483 100.469,11.562 103.027,11.662 112.488 C 11.760 121.806,11.844 124.577,12.044 125.164 C 12.267 125.817,12.307 124.310,12.349 113.729 C 12.401 100.580,12.407 100.507,13.333 101.304 C 13.789 101.695,14.386 101.768,18.230 101.901 C 20.550 101.981,21.927 102.102,22.012 102.234 C 22.127 102.410,22.273 116.714,22.226 123.052 C 22.209 125.253,22.444 125.773,22.608 123.897 C 22.759 122.162,22.908 114.130,22.909 107.653 L 22.911 101.972 50.223 101.972 L 77.536 101.972 77.664 102.829 C 77.853 104.090,77.667 107.815,77.389 108.328 L 77.151 108.768 76.720 108.363 C 76.126 107.804,74.382 107.617,73.935 108.064 C 73.761 108.238,73.324 108.428,72.963 108.486 C 72.151 108.618,72.003 108.800,71.872 109.827 C 71.680 111.337,70.816 111.743,67.749 111.763 C 64.668 111.783,63.234 111.411,64.002 110.789 C 64.336 110.519,64.411 110.268,64.400 109.453 C 64.387 108.361,64.163 108.585,63.947 109.906 C 63.881 110.312,63.627 110.802,63.348 111.060 C 62.354 111.982,63.639 112.300,68.355 112.300 L 71.714 112.300 71.841 111.455 C 71.911 110.991,72.047 110.610,72.144 110.610 C 72.240 110.610,72.444 110.312,72.597 109.947 C 73.242 108.403,76.620 107.720,76.620 109.134 C 76.620 109.360,76.850 109.932,77.131 110.406 L 77.642 111.268 77.765 117.934 C 77.965 128.771,78.206 126.941,78.310 113.803 L 78.404 101.878 83.085 101.828 C 86.553 101.790,87.803 101.835,87.905 102.001 C 87.982 102.124,88.038 107.536,88.031 114.026 C 88.024 120.517,88.064 125.873,88.119 125.928 C 88.647 126.456,88.746 124.364,88.898 109.484 C 88.979 101.489,89.020 101.154,89.921 100.974 C 91.504 100.657,91.469 93.779,89.883 93.368 C 89.128 93.173,88.833 92.573,88.829 91.233 C 88.825 89.492,89.013 89.202,90.153 89.202 L 91.114 89.202 91.049 82.864 C 90.997 77.824,90.929 76.430,90.716 76.056 C 90.506 75.686,90.432 74.285,90.364 69.437 L 90.279 63.286 92.792 63.273 C 96.305 63.255,96.680 62.992,93.427 62.828 C 90.400 62.676,89.689 62.505,89.242 61.822 C 88.805 61.154,88.812 58.797,89.255 57.696 C 89.472 57.156,89.577 56.369,89.577 55.290 C 89.577 53.484,89.297 53.299,89.106 54.979 C 88.901 56.784,88.557 57.238,88.075 56.338 C 87.965 56.131,87.915 55.962,87.965 55.962 C 88.015 55.962,87.977 55.730,87.881 55.446 C 87.785 55.162,87.237 52.141,86.664 48.732 C 84.367 35.067,82.908 31.390,79.588 30.895 C 76.445 30.426,39.433 30.078,29.859 30.428 M77.095 31.146 C 82.971 31.649,83.943 33.971,86.942 54.656 C 87.758 60.287,87.899 60.881,88.586 61.623 C 89.198 62.284,89.090 62.883,88.263 63.413 C 87.901 63.645,87.310 64.056,86.948 64.326 C 86.587 64.595,86.077 64.859,85.816 64.911 C 85.553 64.964,85.201 65.251,85.027 65.555 C 84.854 65.857,84.595 66.103,84.451 66.103 C 84.307 66.103,84.037 66.272,83.850 66.479 C 83.663 66.685,83.369 66.854,83.197 66.854 C 83.025 66.854,82.539 67.150,82.117 67.512 C 81.694 67.873,81.278 68.172,81.191 68.175 C 81.104 68.179,80.695 68.345,80.282 68.545 C 79.486 68.929,78.588 69.030,78.417 68.754 C 78.221 68.437,79.086 67.613,79.822 67.415 C 80.230 67.305,80.563 67.134,80.563 67.035 C 80.563 66.702,79.874 66.850,79.230 67.322 C 76.942 68.997,76.570 69.142,75.815 68.648 C 75.586 68.499,75.019 68.361,74.554 68.342 C 72.330 68.252,72.356 68.079,74.995 65.352 L 77.032 63.247 79.915 63.314 C 83.463 63.396,83.568 63.460,82.411 64.828 C 81.246 66.204,81.106 66.508,82.010 65.700 C 82.431 65.323,82.975 64.952,83.219 64.875 C 83.462 64.798,84.033 64.409,84.487 64.011 C 84.940 63.612,85.405 63.276,85.519 63.264 C 86.360 63.174,84.164 62.951,82.254 62.932 C 79.495 62.904,76.870 62.633,76.516 62.339 C 75.979 61.894,56.849 61.536,55.025 61.937 C 53.194 62.339,55.254 62.462,66.479 62.621 C 74.143 62.729,74.017 62.698,72.676 64.153 C 71.909 64.986,71.715 65.540,72.192 65.540 C 72.338 65.540,72.514 65.288,72.581 64.980 C 72.903 63.515,76.620 61.718,76.620 63.028 C 76.620 63.815,72.323 67.695,71.672 67.495 C 71.072 67.311,71.057 67.258,71.419 66.627 L 71.751 66.048 71.322 66.362 C 69.762 67.500,70.528 67.416,61.663 67.417 L 53.561 67.418 53.437 65.681 C 53.175 61.997,52.805 62.094,52.783 65.853 L 52.770 68.138 51.408 68.204 C 49.335 68.305,49.393 68.347,49.366 66.739 C 49.353 65.976,49.322 65.268,49.296 65.164 C 49.270 65.061,49.238 64.495,49.225 63.906 C 49.183 61.972,48.842 63.096,48.786 65.355 L 48.732 67.512 44.792 67.563 C 39.382 67.633,33.367 67.356,32.334 66.989 C 31.661 66.750,31.540 66.746,31.623 66.963 C 31.997 67.939,30.648 67.565,29.296 66.318 C 28.728 65.794,28.182 65.363,28.082 65.359 C 27.909 65.352,29.615 67.245,29.906 67.383 C 30.143 67.494,30.063 68.169,29.812 68.176 C 29.011 68.200,28.033 68.432,27.779 68.657 C 27.227 69.146,26.044 68.981,25.045 68.276 C 24.542 67.921,23.751 67.401,23.286 67.120 C 22.822 66.839,21.934 66.124,21.315 65.532 C 20.684 64.930,19.877 64.357,19.484 64.232 C 19.096 64.109,18.779 63.928,18.779 63.831 C 18.779 62.857,25.716 63.289,26.872 64.335 C 27.464 64.870,27.275 64.339,26.667 63.756 C 25.994 63.112,25.955 62.801,26.526 62.658 C 27.793 62.342,29.443 63.357,30.175 64.904 C 30.798 66.220,30.976 66.311,30.770 65.210 C 30.650 64.566,30.452 64.205,30.044 63.886 C 28.533 62.703,28.184 62.738,45.681 62.325 C 47.929 62.272,47.030 62.034,44.102 61.907 C 36.924 61.597,27.230 61.869,26.195 62.410 C 25.756 62.640,24.727 62.732,21.594 62.823 C 17.354 62.946,16.116 63.153,14.972 63.929 C 14.110 64.512,14.146 64.726,15.122 64.836 C 15.636 64.894,16.157 65.094,16.409 65.330 C 16.906 65.798,17.089 65.831,17.089 65.453 C 17.089 65.301,16.920 65.087,16.714 64.977 C 16.200 64.702,16.205 63.746,16.721 63.470 C 17.238 63.194,17.805 63.394,18.592 64.131 C 18.953 64.471,19.457 64.811,19.712 64.888 C 19.967 64.965,20.648 65.479,21.226 66.030 C 21.804 66.581,22.609 67.171,23.016 67.341 C 23.886 67.704,24.938 68.582,25.396 69.329 C 25.831 70.037,26.776 70.059,27.583 69.380 C 27.936 69.083,28.529 68.841,29.140 68.744 C 29.682 68.658,30.158 68.494,30.196 68.379 C 30.298 68.074,30.740 68.122,30.866 68.451 C 31.042 68.910,31.295 68.774,31.481 68.122 C 31.648 67.536,32.676 67.067,32.676 67.577 C 32.676 67.844,34.638 67.957,41.315 68.077 C 44.568 68.136,47.610 68.276,48.075 68.390 C 49.549 68.748,52.297 68.788,53.578 68.469 C 55.679 67.946,72.034 67.948,72.694 68.472 C 72.839 68.587,73.542 68.733,74.256 68.796 C 75.228 68.883,75.664 69.015,75.994 69.325 C 76.305 69.617,76.800 69.783,77.681 69.889 C 78.975 70.045,79.221 70.137,78.983 70.376 C 78.416 70.942,26.675 70.938,25.558 70.371 C 25.206 70.193,24.774 70.047,24.597 70.047 C 24.421 70.047,24.056 69.874,23.787 69.662 L 23.298 69.278 22.963 69.991 C 22.662 70.630,22.539 70.714,21.783 70.802 C 21.319 70.855,20.730 71.045,20.475 71.224 C 20.219 71.403,19.852 71.549,19.659 71.549 C 19.466 71.549,19.093 71.718,18.831 71.925 C 18.568 72.131,18.115 72.300,17.824 72.300 C 16.005 72.300,16.340 72.774,18.223 72.864 L 20.188 72.958 20.247 74.178 C 20.377 76.863,19.978 77.542,18.442 77.254 C 17.132 77.008,16.487 76.145,16.381 74.494 C 16.278 72.886,16.089 72.680,15.751 73.807 C 15.483 74.702,15.111 74.848,13.563 74.666 C 12.277 74.515,12.447 74.821,12.328 72.444 C 12.207 70.023,12.563 69.303,13.446 70.186 C 13.647 70.387,14.213 70.560,14.915 70.634 C 15.543 70.700,16.428 70.895,16.883 71.067 C 17.376 71.253,17.925 71.332,18.246 71.261 C 19.050 71.084,18.732 70.856,17.545 70.758 C 16.965 70.710,16.427 70.566,16.347 70.438 C 16.268 70.310,15.654 70.137,14.982 70.053 C 12.408 69.734,11.748 68.421,13.134 66.379 C 13.837 65.343,13.860 65.263,13.604 64.766 C 13.237 64.058,13.252 62.172,13.627 61.636 C 13.789 61.405,13.966 60.647,14.021 59.951 C 14.076 59.255,14.277 58.347,14.467 57.934 C 14.657 57.521,14.952 56.296,15.122 55.211 C 17.899 37.502,19.313 32.855,22.271 31.730 C 24.376 30.930,69.011 30.455,77.095 31.146 M232.394 30.986 C 231.878 31.208,230.390 31.208,230.047 30.986 C 229.853 30.860,230.232 30.807,231.268 30.814 C 232.279 30.821,232.647 30.877,232.394 30.986 M233.646 32.551 C 235.783 33.169,234.296 33.811,230.798 33.780 C 227.470 33.750,226.898 33.578,227.478 32.785 C 227.971 32.110,231.643 31.971,233.646 32.551 M234.058 34.928 C 234.146 35.013,234.052 35.172,233.849 35.281 C 233.645 35.389,233.377 35.724,233.252 36.025 C 232.777 37.172,230.276 37.423,229.087 36.443 C 228.718 36.139,228.196 35.835,227.925 35.767 C 227.293 35.609,226.935 35.206,227.252 35.010 C 227.828 34.654,233.699 34.584,234.058 34.928 M266.244 34.880 C 266.786 34.918,267.674 34.918,268.216 34.880 C 268.758 34.842,268.315 34.811,267.230 34.811 C 266.146 34.811,265.702 34.842,266.244 34.880 M273.737 42.582 C 273.669 46.894,273.581 52.366,273.543 54.742 C 273.485 58.256,273.498 58.571,273.613 56.432 C 273.793 53.090,274.083 34.742,273.956 34.742 C 273.904 34.742,273.806 38.270,273.737 42.582 M257.277 35.117 C 255.779 35.178,254.681 35.249,254.836 35.276 C 255.279 35.354,259.358 35.272,262.347 35.125 L 265.070 34.992 262.535 35.000 C 261.141 35.004,258.775 35.057,257.277 35.117 M250.282 35.445 C 251.031 35.480,252.256 35.480,253.005 35.445 C 253.754 35.409,253.141 35.380,251.643 35.380 C 250.146 35.380,249.533 35.409,250.282 35.445 M244.280 35.632 C 244.929 35.669,245.943 35.669,246.533 35.632 C 247.123 35.594,246.592 35.564,245.352 35.565 C 244.113 35.565,243.630 35.595,244.280 35.632 M284.862 35.689 C 278.173 35.804,278.079 35.823,277.804 37.135 C 277.532 38.432,277.620 55.401,277.903 56.199 C 278.044 56.598,278.738 57.512,279.499 58.300 L 280.845 59.694 323.058 59.925 L 365.271 60.155 365.938 59.514 C 367.869 57.659,367.903 56.269,366.287 44.963 C 365.168 37.141,364.912 36.235,363.744 35.982 C 362.489 35.710,359.524 35.663,343.584 35.663 L 326.323 35.663 325.503 36.468 L 324.683 37.273 324.708 46.007 C 324.735 55.117,324.808 56.068,325.550 56.846 C 325.912 57.226,326.098 57.230,346.007 57.354 C 367.041 57.485,366.926 57.479,365.976 58.302 C 365.179 58.992,361.931 59.063,331.643 59.045 C 296.919 59.024,280.563 58.704,280.563 58.046 C 280.563 57.663,282.340 57.615,300.094 57.524 L 318.779 57.429 319.671 56.562 L 320.563 55.695 320.563 46.573 L 320.563 37.451 319.647 36.548 L 318.730 35.645 304.764 35.616 C 297.083 35.600,288.127 35.633,284.862 35.689 M234.731 37.515 C 233.829 40.263,233.395 39.969,234.078 37.073 C 234.129 36.857,234.362 36.437,234.596 36.140 C 235.202 35.369,235.256 35.914,234.731 37.515 M21.546 36.667 C 21.494 36.899,20.720 40.343,19.826 44.319 C 17.043 56.692,16.995 57.012,17.727 58.057 C 18.015 58.468,18.028 58.422,18.028 57.044 C 18.028 56.250,18.151 55.238,18.300 54.795 C 18.450 54.353,18.698 53.146,18.851 52.113 C 19.005 51.080,19.523 48.418,20.003 46.197 C 20.482 43.977,21.038 41.399,21.238 40.469 C 21.438 39.540,21.706 38.357,21.833 37.840 L 22.066 36.901 26.620 36.903 C 29.124 36.904,42.077 36.925,55.404 36.950 L 79.634 36.995 79.800 37.432 C 79.988 37.927,83.893 57.252,83.981 58.122 L 84.038 58.685 79.906 58.685 C 75.961 58.685,75.740 58.666,75.005 58.259 C 74.254 57.842,73.085 57.731,68.763 57.662 C 68.248 57.654,68.100 57.556,67.930 57.106 C 67.639 56.335,67.680 56.338,58.020 56.338 C 49.054 56.338,48.826 56.352,48.826 56.907 C 48.826 57.382,49.205 57.427,54.272 57.553 C 61.668 57.737,63.335 57.867,62.967 58.235 C 62.399 58.803,47.780 58.890,47.158 58.329 C 46.741 57.952,44.092 57.607,42.160 57.678 C 39.515 57.775,39.044 57.693,38.820 57.102 C 38.706 56.798,38.439 56.504,38.226 56.447 C 37.072 56.137,21.054 56.442,20.716 56.780 C 20.334 57.162,22.668 57.378,29.014 57.546 C 34.995 57.704,36.822 57.888,36.418 58.292 C 36.198 58.513,28.846 58.775,22.383 58.792 C 19.100 58.801,18.024 58.860,18.079 59.027 C 18.166 59.285,80.846 59.340,83.055 59.084 C 84.824 58.879,85.578 57.091,84.512 55.626 C 84.206 55.206,83.787 53.577,83.099 50.141 C 82.480 47.045,80.862 39.336,80.468 37.606 L 80.158 36.244 50.899 36.244 L 21.640 36.244 21.546 36.667 M299.544 46.573 L 299.560 56.620 291.141 56.669 C 277.260 56.751,278.404 57.658,278.404 46.573 C 278.404 35.437,277.163 36.457,290.656 36.499 L 299.527 36.526 299.544 46.573 M318.184 36.799 C 318.579 36.889,318.944 37.004,318.995 37.054 C 319.679 37.738,319.750 54.848,319.073 55.943 C 318.770 56.433,317.167 56.544,308.873 56.654 L 300.469 56.764 300.469 46.568 L 300.469 36.372 308.967 36.504 C 313.641 36.577,317.788 36.710,318.184 36.799 M346.103 46.584 L 346.103 56.736 337.042 56.678 C 326.990 56.613,327.069 56.623,326.178 55.373 L 325.728 54.742 325.673 46.822 C 325.610 37.643,325.634 37.487,327.199 36.917 C 328.393 36.483,328.354 36.485,337.512 36.457 L 346.103 36.432 346.103 46.584 M363.210 36.793 C 363.997 37.031,364.087 37.257,364.674 40.469 C 365.899 47.172,366.704 55.356,366.214 56.130 C 365.874 56.667,347.446 57.026,347.122 56.502 C 347.028 56.350,346.952 39.216,347.034 36.641 C 347.044 36.314,362.091 36.454,363.210 36.793 M232.664 38.633 C 232.824 39.214,232.793 39.462,232.485 40.089 C 231.067 42.969,221.703 54.359,215.224 61.084 L 213.453 62.922 210.858 62.900 C 209.028 62.883,208.263 62.812,208.263 62.659 C 208.263 62.539,212.031 58.681,216.636 54.084 C 229.229 41.515,230.047 40.602,230.047 39.108 C 230.047 37.679,232.288 37.273,232.664 38.633 M265.088 41.925 C 265.023 44.120,264.880 49.085,264.771 52.958 C 264.555 60.634,264.347 64.542,264.144 64.745 C 264.072 64.817,260.533 64.978,256.279 65.103 C 252.025 65.229,246.226 65.419,243.393 65.527 C 237.421 65.753,238.076 65.930,238.100 64.095 C 238.130 61.752,237.808 57.180,237.584 56.761 C 237.252 56.140,236.349 55.962,233.521 55.962 C 229.185 55.962,229.324 55.781,229.162 61.639 C 229.070 64.993,229.013 65.544,228.753 65.622 C 225.092 66.725,219.349 66.105,217.764 64.436 L 217.217 63.861 218.415 62.400 C 219.073 61.596,220.194 60.237,220.904 59.379 C 222.555 57.386,224.375 55.141,224.977 54.357 C 225.235 54.020,226.080 52.995,226.854 52.078 C 227.629 51.162,228.516 50.085,228.826 49.685 C 229.136 49.286,230.180 48.021,231.145 46.874 C 237.877 38.879,237.800 38.952,239.554 38.785 C 240.264 38.718,241.099 38.631,241.408 38.593 C 242.951 38.401,254.307 38.050,261.382 37.975 L 265.206 37.934 265.088 41.925 M391.942 52.344 L 393.556 53.094 393.684 54.575 C 393.913 57.200,394.163 73.705,394.123 83.511 L 394.085 93.040 393.146 93.399 C 391.127 94.173,384.779 93.973,383.915 93.109 C 383.355 92.548,383.336 92.331,383.205 85.164 C 383.043 76.344,382.848 67.414,382.613 58.093 L 382.503 53.745 383.614 52.990 C 386.143 51.273,389.138 51.040,391.942 52.344 M7.259 53.157 C 5.672 53.419,6.062 53.522,8.560 53.499 C 11.256 53.474,13.026 53.215,10.892 53.157 C 10.221 53.139,9.333 53.098,8.920 53.065 C 8.507 53.033,7.759 53.074,7.259 53.157 M91.221 53.158 C 88.913 53.361,89.658 53.521,92.879 53.515 C 94.885 53.512,95.948 53.447,95.764 53.338 C 95.385 53.117,92.843 53.016,91.221 53.158 M96.356 58.216 C 96.360 61.616,96.410 62.521,96.571 62.160 C 96.872 61.482,96.879 54.671,96.578 54.178 C 96.394 53.876,96.351 54.666,96.356 58.216 M236.951 63.453 L 237.000 69.911 234.791 69.788 C 233.576 69.720,232.061 69.615,231.424 69.554 L 230.267 69.443 230.138 67.726 C 229.903 64.591,230.098 57.290,230.423 57.083 C 230.582 56.981,232.053 56.922,233.803 56.949 L 236.901 56.995 236.951 63.453 M273.298 62.066 C 273.299 62.685,273.334 62.916,273.376 62.579 C 273.417 62.241,273.416 61.734,273.374 61.452 C 273.331 61.170,273.297 61.446,273.298 62.066 M204.386 63.855 C 204.268 63.975,202.747 64.230,201.006 64.423 C 199.265 64.616,195.009 65.119,191.549 65.542 C 188.089 65.965,184.624 66.387,183.850 66.480 C 176.496 67.359,172.714 67.808,171.925 67.896 C 171.408 67.953,170.521 68.075,169.953 68.167 C 169.385 68.259,168.540 68.379,168.075 68.433 C 167.610 68.487,166.174 68.662,164.883 68.821 C 163.592 68.981,162.155 69.158,161.690 69.215 C 158.189 69.645,152.815 70.585,149.818 71.292 C 147.206 71.908,146.900 71.849,147.871 70.911 C 149.658 69.187,155.764 68.186,180.657 65.539 C 188.182 64.739,197.534 63.939,200.939 63.804 C 201.610 63.778,202.709 63.729,203.380 63.696 C 204.305 63.651,204.549 63.689,204.386 63.855 M213.661 64.085 C 213.611 64.317,213.341 65.268,213.061 66.197 C 212.678 67.470,212.526 68.459,212.445 70.204 C 212.379 71.639,212.260 72.546,212.132 72.585 C 212.018 72.620,207.573 72.699,202.254 72.761 C 196.934 72.824,191.822 72.912,190.892 72.957 C 189.962 73.002,186.751 73.087,183.756 73.146 C 180.761 73.204,175.732 73.332,172.582 73.429 C 169.432 73.526,165.291 73.651,163.380 73.706 C 154.742 73.954,152.783 74.025,150.155 74.190 C 146.669 74.409,146.149 74.234,146.763 73.048 C 147.189 72.223,148.757 71.769,153.897 70.982 C 154.620 70.872,155.423 70.748,155.681 70.706 C 157.015 70.493,166.162 69.224,170.516 68.648 C 177.221 67.760,182.625 67.114,192.614 66.006 C 195.902 65.642,201.380 65.011,204.789 64.604 C 208.197 64.198,211.366 63.834,211.831 63.796 C 213.814 63.635,213.760 63.626,213.661 64.085 M88.819 64.374 C 89.612 63.879,90.056 66.567,89.679 69.584 L 89.556 70.564 88.018 70.698 C 87.171 70.772,86.124 70.993,85.691 71.191 C 85.154 71.435,84.482 71.549,83.578 71.549 C 82.525 71.549,82.180 71.623,81.895 71.908 C 81.475 72.328,80.751 71.995,80.751 71.383 C 80.751 71.199,80.544 70.640,80.291 70.140 C 79.754 69.080,79.785 68.978,80.692 68.807 C 81.066 68.737,81.676 68.407,82.047 68.074 C 82.419 67.740,82.934 67.403,83.192 67.323 C 83.451 67.244,83.906 66.975,84.203 66.726 C 84.501 66.477,85.051 66.115,85.424 65.922 C 85.798 65.730,86.436 65.227,86.844 64.807 C 87.546 64.081,87.606 64.056,88.015 64.324 C 88.366 64.554,88.516 64.563,88.819 64.374 M266.596 66.186 C 267.143 66.324,267.225 66.755,267.227 69.531 L 267.230 71.925 259.953 71.928 C 255.951 71.929,251.662 71.972,250.423 72.023 C 245.024 72.243,234.955 72.210,234.714 71.970 C 234.349 71.609,234.908 71.164,235.979 70.964 C 237.475 70.685,237.781 70.241,238.036 67.981 C 238.101 67.413,238.232 66.867,238.328 66.767 C 238.771 66.308,264.940 65.771,266.596 66.186 M17.653 66.288 C 17.653 66.389,17.885 66.529,18.169 66.599 C 18.631 66.713,19.831 67.237,20.401 67.574 C 20.519 67.643,20.916 67.939,21.284 68.231 C 21.653 68.524,22.106 68.727,22.292 68.684 C 22.574 68.617,22.552 68.572,22.155 68.407 C 21.895 68.299,21.325 67.912,20.888 67.548 C 20.451 67.183,19.846 66.830,19.544 66.763 C 19.241 66.697,18.892 66.521,18.769 66.373 C 18.518 66.070,17.653 66.003,17.653 66.288 M233.711 70.802 C 233.971 71.222,233.418 72.300,232.943 72.300 C 232.359 72.300,232.321 71.612,232.871 71.021 C 233.291 70.571,233.530 70.508,233.711 70.802 M22.716 71.725 C 23.211 72.648,22.908 83.380,22.388 83.380 C 21.419 83.380,21.025 80.341,21.358 75.439 C 21.615 71.647,22.046 70.471,22.716 71.725 M34.178 77.371 C 34.178 82.048,34.126 83.383,33.944 83.390 C 33.293 83.418,23.764 83.356,23.739 83.324 C 23.627 83.180,23.492 73.903,23.588 72.967 C 23.746 71.427,23.790 71.416,29.624 71.385 L 34.178 71.362 34.178 77.371 M65.840 71.599 C 66.412 72.171,65.500 72.207,50.836 72.183 C 35.931 72.159,35.473 72.147,35.350 71.777 C 35.228 71.412,65.477 71.236,65.840 71.599 M75.558 71.484 L 77.559 71.606 77.559 77.481 L 77.559 83.356 72.817 83.415 C 70.209 83.448,67.843 83.443,67.559 83.406 L 67.042 83.338 67.042 77.350 L 67.042 71.362 70.299 71.362 C 72.091 71.362,74.457 71.417,75.558 71.484 M79.810 71.784 C 80.114 72.527,79.949 82.065,79.620 82.723 C 79.077 83.812,78.543 83.580,78.457 82.217 C 78.264 79.198,78.404 71.982,78.661 71.672 C 79.027 71.231,79.606 71.288,79.810 71.784 M89.489 71.586 C 89.680 71.777,89.834 74.067,89.693 74.629 C 89.345 76.016,88.282 75.897,86.360 74.257 C 85.702 73.696,84.911 73.168,84.601 73.085 C 83.714 72.847,83.775 72.360,84.725 72.105 C 85.167 71.986,85.700 71.764,85.910 71.613 C 86.304 71.329,89.210 71.307,89.489 71.586 M27.604 72.465 C 24.017 73.642,22.811 77.830,25.274 80.556 C 28.861 84.527,35.132 80.819,33.582 75.644 C 32.916 73.420,29.779 71.751,27.604 72.465 M70.509 72.599 C 66.951 73.863,66.123 78.694,69.050 81.108 C 71.446 83.083,75.012 82.367,76.519 79.609 C 78.655 75.700,74.717 71.106,70.509 72.599 M354.366 74.489 L 354.366 76.584 337.512 76.610 C 328.242 76.625,309.333 76.664,295.493 76.698 C 281.653 76.732,269.789 76.720,269.128 76.672 L 267.928 76.584 268.055 74.780 C 268.125 73.788,268.208 72.950,268.240 72.918 C 268.408 72.750,274.185 72.699,306.573 72.574 C 325.991 72.499,341.892 72.428,341.910 72.416 C 341.927 72.404,344.737 72.394,348.154 72.394 L 354.366 72.394 354.366 74.489 M380.964 72.591 C 381.875 72.710,381.972 72.964,381.972 75.235 L 381.972 76.620 375.023 76.620 L 368.075 76.620 368.075 74.507 L 368.075 72.394 374.131 72.442 C 377.462 72.468,380.537 72.535,380.964 72.591 M59.155 72.954 C 65.016 73.246,66.756 73.524,66.284 74.093 C 65.969 74.472,65.432 74.527,59.952 74.737 C 56.333 74.875,54.840 75.001,54.342 75.209 C 53.453 75.581,52.831 75.569,52.611 75.175 C 52.350 74.709,49.954 74.701,49.442 75.164 C 48.995 75.569,48.418 75.583,47.691 75.207 C 47.252 74.980,45.958 74.889,41.456 74.771 C 35.395 74.612,34.930 74.536,34.930 73.706 C 34.930 73.121,35.173 73.060,38.241 72.880 C 40.941 72.721,55.520 72.773,59.155 72.954 M252.770 74.096 L 252.770 75.305 257.746 75.305 L 262.723 75.305 262.723 74.097 C 262.723 73.110,262.783 72.871,263.052 72.789 C 263.505 72.652,267.235 72.719,267.326 72.867 C 267.394 72.977,266.897 76.640,266.800 76.736 C 266.703 76.833,255.140 76.994,241.596 77.086 C 233.643 77.140,224.027 77.236,220.228 77.300 L 213.320 77.416 213.373 75.469 L 213.427 73.521 219.249 73.403 C 224.944 73.287,230.773 73.182,245.164 72.935 C 249.089 72.867,252.333 72.784,252.374 72.749 C 252.621 72.536,252.770 73.043,252.770 74.096 M30.752 73.594 C 33.795 75.159,33.822 79.399,30.798 80.931 C 26.440 83.139,22.569 77.314,26.282 74.136 C 27.593 73.013,29.236 72.814,30.752 73.594 M74.323 73.734 C 75.296 74.298,76.000 75.310,76.205 76.438 C 77.098 81.356,70.437 83.427,68.373 78.873 C 66.736 75.263,70.843 71.716,74.323 73.734 M212.394 75.302 C 212.394 77.616,214.298 77.326,198.216 77.464 C 190.883 77.526,183.657 77.609,182.160 77.648 C 177.926 77.758,161.834 78.028,159.531 78.028 L 157.465 78.028 157.411 76.404 L 157.357 74.780 159.664 74.662 C 163.696 74.454,185.523 73.949,207.512 73.555 C 208.906 73.530,210.575 73.491,211.221 73.468 L 212.394 73.427 212.394 75.302 M85.574 74.276 C 86.150 74.515,86.569 75.346,86.572 76.260 C 86.573 76.741,86.800 76.830,87.170 76.495 C 87.411 76.277,87.977 76.155,89.028 76.094 L 90.540 76.007 90.409 82.088 C 90.337 85.432,90.241 88.210,90.196 88.261 C 90.151 88.311,86.972 88.410,83.132 88.481 L 76.150 88.610 75.165 89.704 L 74.180 90.798 51.061 90.824 L 27.941 90.850 26.806 89.650 L 25.672 88.451 19.233 88.451 C 11.877 88.451,11.918 88.458,11.704 87.193 C 11.468 85.801,11.559 79.282,11.835 77.818 C 12.363 75.009,15.085 74.244,16.164 76.602 C 16.382 77.076,16.645 77.645,16.750 77.865 C 17.093 78.584,19.154 80.727,19.914 81.154 C 20.323 81.384,20.657 81.688,20.657 81.830 C 20.657 81.972,21.092 82.548,21.623 83.110 L 22.590 84.131 50.727 84.131 L 78.865 84.131 79.902 82.874 C 80.472 82.183,80.939 81.549,80.939 81.466 C 80.939 81.383,81.140 81.315,81.385 81.315 C 82.133 81.315,83.414 80.775,84.296 80.088 C 84.756 79.730,85.199 79.437,85.282 79.437 C 85.364 79.437,85.524 79.093,85.637 78.674 C 85.750 78.254,85.889 77.789,85.946 77.641 C 86.031 77.419,85.754 77.370,84.386 77.366 C 81.259 77.358,80.882 77.144,80.860 75.369 C 80.846 74.180,80.872 74.099,81.315 73.964 C 81.968 73.766,84.851 73.977,85.574 74.276 M156.718 74.789 C 156.777 75.021,156.799 75.930,156.769 76.808 L 156.714 78.404 155.305 78.404 L 153.897 78.404 153.843 76.768 C 153.774 74.696,154.013 74.366,155.583 74.366 C 156.494 74.366,156.625 74.415,156.718 74.789 M152.795 75.243 C 153.005 76.081,152.743 77.341,152.215 78.034 C 151.545 78.912,151.404 79.465,151.345 81.444 C 151.289 83.315,151.235 83.568,150.887 83.568 C 150.144 83.568,150.460 78.999,151.239 78.469 C 151.338 78.401,151.477 77.624,151.547 76.742 C 151.709 74.702,152.439 73.825,152.795 75.243 M150.572 76.097 C 150.617 77.133,150.542 77.539,150.149 78.369 C 149.710 79.297,149.671 79.587,149.671 81.927 L 149.671 84.476 148.164 85.532 C 145.854 87.151,146.040 87.328,146.137 83.610 C 146.221 80.407,146.222 80.398,146.845 79.214 C 147.313 78.326,147.493 77.712,147.563 76.767 C 147.685 75.096,148.085 74.740,149.765 74.806 L 150.516 74.836 150.572 76.097 M47.989 75.621 C 48.141 75.773,48.346 76.048,48.444 76.232 C 49.008 77.285,49.820 77.939,50.089 77.555 C 50.432 77.065,51.728 77.033,51.994 77.508 C 52.221 77.914,52.627 77.590,53.664 76.177 L 54.339 75.258 57.357 75.374 C 59.017 75.438,61.519 75.503,62.916 75.519 C 65.709 75.550,66.291 75.672,66.291 76.224 C 66.291 77.513,56.643 77.847,54.976 76.615 C 54.595 76.333,54.437 76.294,54.389 76.471 C 54.058 77.700,53.961 77.848,53.378 78.020 C 53.044 78.119,52.770 78.267,52.770 78.349 C 52.770 78.596,54.047 78.516,54.132 78.263 C 54.240 77.938,65.009 77.952,65.790 78.278 C 67.352 78.930,65.860 79.253,60.716 79.379 C 55.666 79.503,53.267 79.278,52.056 78.568 C 51.197 78.065,50.530 78.073,49.950 78.595 C 48.840 79.595,36.113 79.762,35.141 78.789 C 34.565 78.214,35.714 78.070,41.553 77.989 C 46.355 77.921,47.226 77.952,47.732 78.204 C 48.396 78.535,49.202 78.593,49.202 78.310 C 49.202 78.207,48.994 78.122,48.739 78.122 C 48.228 78.122,47.887 77.651,47.887 76.945 C 47.887 76.291,47.720 76.218,47.162 76.629 C 46.259 77.295,36.603 77.676,35.265 77.099 C 34.130 76.610,34.865 75.631,36.485 75.474 C 39.116 75.219,47.696 75.329,47.989 75.621 M51.878 75.426 C 53.225 75.648,52.577 76.239,50.986 76.239 C 49.976 76.239,49.390 76.065,49.390 75.765 C 49.390 75.406,50.686 75.229,51.878 75.426 M378.967 77.724 C 385.066 77.968,380.536 78.150,364.789 78.294 C 340.065 78.521,268.504 78.536,268.169 78.314 C 267.959 78.175,268.103 78.121,268.732 78.101 C 269.197 78.086,269.789 78.045,270.047 78.009 C 270.305 77.974,276.685 77.889,284.225 77.820 C 291.765 77.752,297.957 77.678,297.984 77.656 C 298.109 77.555,376.387 77.621,378.967 77.724 M84.172 78.104 C 85.378 78.502,85.243 79.299,83.875 79.865 C 82.475 80.444,81.260 80.199,80.742 79.232 C 80.089 78.011,81.992 77.385,84.172 78.104 M20.181 78.188 C 20.456 78.389,20.504 78.590,20.412 79.158 C 20.253 80.135,20.029 80.310,19.549 79.831 C 19.332 79.614,19.025 79.437,18.866 79.437 C 18.412 79.437,17.465 78.651,17.465 78.275 C 17.465 77.844,19.617 77.776,20.181 78.188 M266.588 78.169 C 266.968 78.549,265.213 78.596,248.576 78.656 C 231.440 78.718,219.941 78.588,220.194 78.335 C 220.511 78.017,266.273 77.853,266.588 78.169 M210.423 78.507 C 205.889 78.850,166.178 79.105,165.866 78.792 C 165.807 78.733,168.287 78.673,171.377 78.658 C 174.467 78.644,182.108 78.576,188.357 78.508 C 204.464 78.332,212.733 78.332,210.423 78.507 M156.376 79.738 C 156.479 80.048,152.628 82.894,152.405 82.672 C 152.348 82.614,152.300 81.859,152.300 80.995 L 152.300 79.424 154.304 79.477 C 155.554 79.510,156.333 79.608,156.376 79.738 M382.128 80.986 C 382.874 86.397,382.481 90.800,381.215 91.242 C 380.632 91.445,380.475 92.102,380.091 95.962 C 379.827 98.618,379.565 99.853,379.240 99.977 C 377.163 100.774,355.190 101.646,352.019 101.057 C 350.564 100.786,350.407 100.574,349.796 98.051 C 347.808 89.849,345.362 84.284,342.365 81.147 L 341.398 80.134 328.868 80.445 C 321.977 80.616,315.532 80.792,314.548 80.836 L 312.757 80.916 310.792 82.139 C 309.711 82.811,308.717 83.429,308.584 83.512 C 308.351 83.656,306.639 87.635,305.894 89.765 C 305.695 90.333,305.393 91.094,305.222 91.455 C 305.052 91.817,304.766 92.493,304.587 92.958 C 303.259 96.413,301.715 99.645,301.374 99.683 C 300.333 99.799,268.131 99.930,266.995 99.823 C 265.220 99.656,265.245 99.776,266.273 96.399 C 267.235 93.237,267.380 92.150,267.496 87.230 C 267.550 84.958,267.633 82.916,267.680 82.693 C 267.727 82.470,267.824 81.899,267.895 81.423 C 267.966 80.948,268.189 80.350,268.390 80.094 L 268.755 79.630 274.425 79.577 C 277.543 79.548,303.004 79.505,331.004 79.481 L 381.915 79.437 382.128 80.986 M211.975 85.211 L 211.902 90.610 210.473 94.993 C 209.687 97.403,209.007 99.413,208.961 99.458 C 208.915 99.504,207.166 99.476,205.074 99.395 L 201.270 99.249 200.899 98.310 C 200.695 97.793,200.499 97.226,200.464 97.049 C 200.429 96.872,200.278 96.450,200.130 96.110 C 199.981 95.771,199.588 94.817,199.255 93.991 C 197.419 89.424,194.046 84.568,191.965 83.494 C 190.715 82.849,183.100 82.469,172.207 82.508 L 164.601 82.535 163.568 83.043 C 162.404 83.615,161.213 84.569,157.559 87.861 C 156.164 89.116,154.918 90.104,154.790 90.055 C 154.661 90.006,152.558 89.875,150.116 89.764 C 146.028 89.579,144.977 89.431,144.977 89.045 C 144.977 88.539,153.482 82.328,155.023 81.709 C 155.127 81.667,155.681 81.315,156.256 80.927 L 157.301 80.222 176.538 80.089 C 187.118 80.016,195.810 79.923,195.853 79.884 C 195.896 79.845,199.558 79.812,203.990 79.812 L 212.049 79.812 211.975 85.211 M266.932 80.704 C 266.912 81.195,266.840 83.117,266.773 84.977 C 266.497 92.584,265.317 98.626,263.956 99.399 C 263.372 99.731,255.932 99.820,234.240 99.753 L 215.053 99.695 214.669 98.429 C 213.637 95.033,213.173 91.412,213.014 85.527 C 212.872 80.242,212.906 80.044,213.950 79.949 C 214.386 79.910,226.493 79.863,240.856 79.845 L 266.969 79.812 266.932 80.704 M60.563 80.288 C 63.176 80.405,65.827 80.675,66.115 80.852 C 66.401 81.029,66.316 81.451,65.962 81.608 C 64.803 82.120,36.503 82.111,35.258 81.598 C 34.747 81.387,34.837 80.594,35.388 80.456 C 36.924 80.070,53.278 79.961,60.563 80.288 M342.473 82.952 C 344.471 85.084,344.573 85.384,342.775 83.847 L 341.502 82.759 327.284 82.873 L 313.066 82.987 311.093 84.310 C 309.229 85.561,308.545 85.868,308.545 85.453 C 308.545 85.032,309.878 83.801,311.406 82.810 L 313.047 81.747 316.758 81.624 C 318.799 81.556,323.216 81.448,326.573 81.385 C 329.930 81.321,332.711 81.237,332.754 81.198 C 332.797 81.159,334.614 81.124,336.792 81.121 L 340.751 81.115 342.473 82.952 M65.837 82.864 C 66.213 83.240,64.732 83.290,51.675 83.344 C 38.071 83.400,35.305 83.342,35.305 82.999 C 35.305 82.668,65.508 82.534,65.837 82.864 M189.379 83.835 C 193.831 85.141,195.507 87.476,199.701 98.216 C 200.810 101.056,201.784 103.507,201.865 103.662 C 201.988 103.897,202.709 103.952,206.244 103.994 C 210.929 104.050,211.228 104.123,210.504 105.044 C 210.289 105.317,210.040 105.540,209.950 105.540 C 209.797 105.540,207.996 106.760,205.070 108.844 L 203.850 109.714 201.221 109.600 C 199.775 109.537,198.359 109.486,198.075 109.485 C 197.576 109.484,197.559 109.450,197.559 108.471 C 197.559 100.957,194.849 94.947,189.504 90.608 C 188.729 89.979,186.262 88.451,186.022 88.451 C 185.961 88.451,185.553 88.289,185.115 88.092 C 175.980 83.979,163.843 87.248,158.438 95.276 C 156.087 98.769,154.366 104.087,154.366 107.863 L 154.366 108.545 153.474 108.537 C 152.002 108.524,146.865 108.054,146.731 107.920 C 146.206 107.395,148.081 104.538,149.403 103.850 C 151.251 102.888,152.300 100.466,152.300 97.163 C 152.300 96.090,152.237 95.204,152.160 95.194 C 152.082 95.185,151.385 95.149,150.610 95.115 C 147.506 94.979,144.977 93.213,144.977 91.182 C 144.977 90.777,145.409 90.420,145.698 90.587 C 145.766 90.626,147.554 90.715,149.671 90.784 C 151.789 90.854,153.999 90.951,154.583 91.001 L 155.645 91.092 157.118 89.740 C 157.929 88.997,158.850 88.128,159.165 87.809 C 162.106 84.838,163.525 83.975,166.110 83.582 C 168.319 83.247,188.108 83.462,189.379 83.835 M341.930 84.363 C 344.075 86.226,344.525 86.827,345.353 88.936 C 346.232 91.176,347.407 94.522,347.524 95.117 C 347.613 95.568,348.902 99.385,349.468 100.872 C 349.973 102.200,349.565 102.120,356.724 102.278 C 362.662 102.410,369.031 102.173,372.864 101.678 C 374.000 101.531,375.003 101.411,375.094 101.410 C 375.392 101.407,375.131 105.889,374.813 106.206 C 373.611 107.409,357.697 109.689,348.981 109.907 C 346.860 109.960,347.064 110.235,346.757 106.919 C 346.367 102.692,345.603 99.683,344.333 97.362 C 335.682 81.557,310.509 83.233,305.165 99.970 C 304.329 102.585,304.163 103.830,304.121 107.793 L 304.079 111.643 299.662 111.639 L 295.246 111.635 293.867 110.419 C 293.109 109.750,292.324 109.055,292.124 108.874 C 291.671 108.464,291.375 108.463,255.399 108.751 C 228.314 108.967,224.358 108.911,222.892 108.287 C 222.074 107.939,218.934 107.303,217.338 107.162 C 215.739 107.020,213.340 105.834,212.426 104.733 C 211.988 104.206,215.669 104.172,258.888 104.310 L 301.532 104.446 301.872 103.162 C 303.057 98.693,308.465 87.688,310.296 86.020 C 312.506 84.006,314.117 83.829,330.568 83.784 L 341.231 83.756 341.930 84.363 M48.251 86.885 C 45.689 87.408,45.495 89.215,47.953 89.659 C 50.177 90.061,53.928 89.725,54.695 89.055 C 56.264 87.684,51.764 86.169,48.251 86.885 M57.649 86.895 C 57.186 87.050,56.772 87.210,56.729 87.250 C 56.686 87.291,58.334 87.315,60.391 87.303 C 64.014 87.283,64.099 87.274,63.099 87.013 C 61.568 86.614,58.675 86.551,57.649 86.895 M37.721 86.920 C 36.411 87.123,35.623 88.017,36.051 88.816 C 36.461 89.582,36.716 89.376,36.649 88.333 L 36.585 87.324 40.593 87.308 C 43.476 87.296,44.443 87.240,44.038 87.109 C 43.321 86.876,38.869 86.743,37.721 86.920 M179.488 87.252 C 192.931 89.621,200.545 104.461,194.507 116.526 C 187.919 129.689,169.797 132.068,160.458 120.996 C 159.952 120.396,159.490 119.864,159.429 119.812 C 157.386 118.061,155.298 110.917,155.557 106.562 C 155.739 103.507,157.143 98.557,158.099 97.600 C 158.215 97.484,158.310 97.312,158.310 97.216 C 158.310 97.121,158.699 96.498,159.174 95.832 C 163.948 89.142,171.682 85.876,179.488 87.252 M328.638 87.162 C 337.527 88.766,344.274 95.715,345.662 104.695 C 346.497 110.099,344.630 116.724,341.224 120.439 C 340.861 120.835,340.503 121.267,340.429 121.397 C 340.145 121.897,337.012 124.436,335.736 125.200 C 326.712 130.600,314.757 128.114,308.660 119.570 C 306.238 116.176,304.519 110.435,304.880 106.948 C 304.912 106.638,304.994 105.772,305.063 105.023 C 306.085 93.831,317.532 85.159,328.638 87.162 M53.646 87.438 C 54.119 87.565,54.363 88.305,54.097 88.804 C 53.875 89.217,51.627 89.400,48.983 89.219 C 47.112 89.091,47.138 89.106,47.002 88.091 L 46.899 87.324 50.069 87.327 C 51.813 87.328,53.422 87.378,53.646 87.438 M44.699 88.404 C 44.694 89.528,44.764 89.601,45.144 88.866 C 45.388 88.394,45.380 88.298,45.059 87.880 L 44.703 87.418 44.699 88.404 M56.215 87.981 C 56.067 88.249,56.064 88.492,56.205 88.826 C 56.402 89.294,56.403 89.294,56.478 88.873 C 56.619 88.070,56.462 87.537,56.215 87.981 M64.756 88.451 L 64.695 89.296 60.845 89.390 C 56.589 89.493,56.589 89.785,60.845 89.785 C 64.621 89.785,65.984 89.194,65.071 87.953 C 64.841 87.639,64.811 87.688,64.756 88.451 M26.978 90.236 L 28.135 91.268 51.146 91.268 L 74.157 91.268 75.134 90.235 L 76.111 89.202 82.069 89.202 L 88.028 89.202 88.004 91.221 L 87.981 93.239 51.033 93.287 L 14.085 93.334 14.085 91.268 L 14.085 89.202 19.953 89.203 L 25.822 89.204 26.978 90.236 M37.465 89.595 C 38.198 89.819,42.932 89.820,43.662 89.595 C 44.050 89.476,43.082 89.422,40.563 89.422 C 38.052 89.422,37.078 89.476,37.465 89.595 M213.132 96.190 C 214.070 99.839,214.079 99.805,212.228 99.648 C 209.804 99.443,209.778 99.257,211.500 94.493 C 212.196 92.565,212.201 92.571,213.132 96.190 M90.514 96.479 C 90.511 100.932,90.537 100.903,86.291 101.103 C 80.548 101.374,18.837 101.306,15.117 101.024 C 11.494 100.750,11.643 100.924,11.643 96.959 L 11.643 93.897 51.080 93.897 L 90.516 93.897 90.514 96.479 M174.267 94.659 C 162.406 96.406,159.072 112.482,169.318 118.526 C 182.240 126.148,195.483 109.626,185.265 98.630 C 182.881 96.064,177.885 93.966,175.399 94.486 C 175.347 94.497,174.838 94.575,174.267 94.659 M178.779 95.865 C 179.141 95.935,179.606 96.068,179.812 96.159 C 180.019 96.251,180.667 96.532,181.253 96.784 C 192.708 101.721,188.632 119.526,176.056 119.487 C 167.193 119.459,161.396 110.418,165.159 102.491 C 167.723 97.089,172.675 94.680,178.779 95.865 M151.362 97.726 C 151.362 99.806,151.259 100.141,150.102 101.831 L 149.234 103.099 145.134 103.099 L 141.033 103.099 141.033 99.718 L 141.033 96.338 141.737 96.336 C 142.723 96.334,148.442 96.107,148.492 96.068 C 148.515 96.050,149.170 96.016,149.948 95.991 L 151.362 95.946 151.362 97.726 M173.180 97.377 C 167.887 98.526,164.485 104.442,165.895 110.047 C 168.892 121.961,186.353 119.797,186.319 107.516 C 186.299 100.373,180.389 95.812,173.180 97.377 M322.481 97.373 C 315.748 99.016,312.569 108.223,316.851 113.677 C 323.037 121.555,334.930 118.118,335.695 108.231 C 336.249 101.059,329.638 95.627,322.481 97.373 M178.674 98.312 C 183.957 100.037,186.819 105.721,184.941 110.761 C 184.312 112.449,182.864 114.489,181.819 115.160 C 176.873 118.334,171.632 117.497,168.091 112.966 C 166.756 111.257,166.181 107.274,166.918 104.846 C 168.452 99.796,173.916 96.759,178.674 98.312 M328.077 98.311 C 338.499 101.988,336.155 117.052,325.164 117.035 C 316.480 117.021,312.537 106.270,319.067 100.405 C 321.550 98.175,325.252 97.314,328.077 98.311 M208.238 100.946 C 208.893 101.600,203.389 102.204,202.262 101.601 C 201.609 101.251,201.799 100.875,202.676 100.782 C 203.682 100.674,208.097 100.804,208.238 100.946 M262.046 100.954 C 262.900 101.037,262.956 101.073,262.811 101.449 C 262.605 101.986,261.788 102.217,259.678 102.331 L 257.559 102.446 259.489 102.577 C 261.668 102.725,262.264 102.926,261.127 103.130 C 259.207 103.474,217.778 103.127,216.432 102.756 C 215.709 102.556,220.005 102.360,226.086 102.315 C 231.532 102.274,230.870 102.215,222.462 101.988 C 215.876 101.811,214.876 101.682,215.473 101.084 C 215.808 100.749,258.715 100.628,262.046 100.954 M213.869 101.051 C 214.502 101.272,214.648 101.672,214.163 101.858 C 213.426 102.141,209.381 101.980,209.259 101.663 C 208.971 100.911,212.226 100.479,213.869 101.051 M300.739 101.351 C 301.547 101.603,301.538 101.928,300.716 102.102 C 299.568 102.345,264.284 102.293,264.039 102.048 C 263.549 101.558,264.422 101.327,267.205 101.210 C 271.399 101.034,300.109 101.155,300.739 101.351 M174.554 101.721 C 169.184 103.158,168.455 110.288,173.420 112.816 C 174.768 113.503,176.630 113.602,178.056 113.064 C 184.993 110.445,181.709 99.807,174.554 101.721 M323.636 101.863 C 320.138 102.710,318.351 106.715,319.969 110.084 C 322.575 115.510,330.738 113.906,331.222 107.873 C 331.547 103.824,327.799 100.855,323.636 101.863 M178.514 103.167 C 182.641 105.415,181.397 111.688,176.684 112.394 C 170.156 113.374,168.900 103.561,175.399 102.353 C 176.075 102.227,177.445 102.585,178.514 103.167 M207.709 102.447 C 208.149 102.719,207.536 102.913,205.907 103.016 C 203.346 103.177,201.421 102.654,203.327 102.315 C 204.175 102.164,207.408 102.261,207.709 102.447 M214.460 102.503 C 214.907 102.677,214.912 102.693,214.554 102.845 C 213.957 103.099,209.260 103.044,208.996 102.780 C 208.451 102.235,213.154 101.996,214.460 102.503 M300.376 102.882 L 300.939 103.048 300.188 103.213 C 298.260 103.635,262.569 103.378,263.001 102.946 C 263.377 102.569,299.105 102.508,300.376 102.882 M327.245 102.932 C 331.222 104.421,331.453 110.135,327.608 111.954 C 324.224 113.555,320.376 111.296,320.376 107.709 C 320.376 104.007,323.784 101.638,327.245 102.932 M174.787 103.732 C 170.727 105.242,171.779 111.252,176.096 111.213 C 178.286 111.194,180.130 109.058,179.833 106.885 C 179.513 104.555,176.924 102.937,174.787 103.732 M324.273 103.662 C 322.060 104.328,320.885 107.056,321.925 109.113 C 323.510 112.246,328.137 111.668,329.003 108.229 C 329.702 105.455,326.996 102.842,324.273 103.662 M25.010 107.952 C 24.700 108.154,24.787 109.517,25.117 109.626 C 25.253 109.670,25.352 109.543,25.352 109.327 C 25.352 107.675,26.688 108.185,27.028 109.966 C 27.264 111.204,27.411 111.549,27.703 111.549 C 27.837 111.549,28.371 111.884,28.889 112.293 C 29.816 113.026,29.839 113.033,30.417 112.745 C 30.813 112.547,31.748 112.424,33.295 112.365 C 36.598 112.240,36.356 112.364,36.494 110.731 C 36.680 108.521,37.274 107.592,37.571 109.045 C 37.721 109.777,37.865 109.998,38.367 110.261 C 38.760 110.467,38.765 110.461,38.468 110.121 C 38.297 109.925,38.063 109.413,37.948 108.982 C 37.481 107.224,36.251 108.142,35.961 110.465 C 35.804 111.718,35.980 111.646,32.591 111.836 C 31.460 111.900,30.372 112.039,30.173 112.146 C 29.303 112.611,27.725 110.716,27.464 108.890 L 27.320 107.887 26.289 107.839 C 25.722 107.812,25.147 107.863,25.010 107.952 M49.520 108.680 C 49.170 108.733,48.922 108.928,48.780 109.262 C 48.662 109.539,48.439 109.917,48.284 110.102 C 47.877 110.589,48.568 110.312,49.186 109.741 C 49.751 109.219,50.517 109.153,57.443 109.026 C 60.271 108.975,62.618 108.900,62.658 108.860 C 62.923 108.595,51.159 108.434,49.520 108.680 M23.975 110.172 C 23.785 110.362,23.825 111.324,24.028 111.450 C 24.340 111.643,24.639 110.845,24.413 110.423 C 24.192 110.009,24.158 109.989,23.975 110.172 M46.948 110.948 C 46.793 111.000,46.177 111.494,45.577 112.046 C 44.094 113.413,43.837 113.450,42.425 112.507 C 41.778 112.075,41.047 111.737,40.759 111.737 C 40.477 111.737,40.093 111.568,39.906 111.362 C 39.403 110.805,38.946 110.857,39.373 111.422 C 39.735 111.903,40.457 112.300,40.968 112.300 C 41.627 112.300,42.233 112.721,42.290 113.218 C 42.417 114.312,44.116 113.890,45.855 112.333 C 46.163 112.057,46.678 111.741,46.999 111.630 C 47.320 111.520,47.613 111.340,47.649 111.231 C 47.731 110.985,47.326 110.821,46.948 110.948 M12.394 126.153 C 12.393 126.931,19.688 127.358,21.321 126.676 C 22.519 126.175,21.998 126.103,17.183 126.103 C 14.549 126.103,12.394 126.126,12.394 126.153 M79.624 126.373 L 78.592 126.488 79.343 126.717 C 81.024 127.230,87.887 126.948,87.887 126.367 C 87.887 126.181,81.305 126.186,79.624 126.373 " stroke="none" fill="#000000" fill-rule="evenodd"></path></g></svg>