<svg id="svg" version="1.1" xmlns="http://www.w3.org/2000/svg" xmlns:xlink="http://www.w3.org/1999/xlink" width="400" height="146.02346805736636" viewBox="0, 0, 400,146.02346805736636"><g id="svgg"><path id="path0" d="M258.149 31.036 C 255.196 31.173,251.640 31.675,241.916 33.329 C 222.350 36.656,222.425 36.641,222.425 37.199 C 222.425 37.408,222.308 37.507,222.164 37.419 C 222.021 37.330,221.904 36.941,221.904 36.554 C 221.904 36.168,221.476 35.177,220.953 34.353 L 220.002 32.855 217.082 32.855 L 214.163 32.855 213.079 34.673 C 211.549 37.238,211.510 39.037,212.966 39.896 C 216.657 42.074,216.716 41.983,202.069 56.705 L 190.405 68.430 182.653 68.879 C 163.125 70.009,133.437 73.670,128.821 75.516 C 127.001 76.244,125.265 79.764,126.098 81.035 C 126.699 81.953,126.611 83.438,125.849 85.198 C 125.302 86.464,125.172 87.279,125.027 90.352 C 124.925 92.511,124.704 94.362,124.487 94.882 C 123.715 96.732,124.324 100.051,125.700 101.492 C 127.098 102.954,126.414 103.259,121.737 103.259 L 119.426 103.259 119.426 107.008 C 119.426 109.069,119.498 111.114,119.585 111.551 L 119.744 112.347 123.224 112.431 C 127.589 112.538,127.566 112.518,126.408 115.197 L 125.510 117.273 127.227 117.428 C 128.171 117.513,130.308 117.661,131.975 117.758 L 135.006 117.934 135.145 119.279 C 135.221 120.018,135.595 121.557,135.975 122.698 C 143.544 145.412,174.156 144.509,180.569 121.382 L 181.147 119.296 184.656 119.166 L 188.166 119.035 191.615 116.736 C 196.475 113.497,196.523 113.482,198.021 114.625 C 199.697 115.905,200.646 116.247,203.370 116.556 C 204.671 116.703,206.645 117.128,207.757 117.500 L 209.778 118.177 245.994 118.027 L 282.209 117.877 284.066 119.677 L 285.922 121.477 288.863 121.200 C 294.026 120.713,295.532 121.295,296.640 124.205 C 301.592 137.218,316.514 142.723,329.465 136.317 C 335.434 133.365,339.060 128.439,341.058 120.572 L 341.330 119.501 343.090 119.341 C 344.058 119.253,347.021 119.056,349.674 118.903 C 357.011 118.481,361.396 117.947,365.841 116.935 C 368.064 116.429,370.440 115.893,371.121 115.744 L 372.360 115.472 372.360 112.655 L 372.360 109.839 374.040 109.732 C 376.737 109.560,377.026 109.084,377.693 103.702 C 378.242 99.278,378.929 97.917,379.531 100.059 C 380.224 102.522,385.728 103.448,391.265 102.031 L 393.090 101.565 393.042 84.746 C 393.016 75.495,392.915 65.541,392.817 62.625 L 392.640 57.323 391.822 56.821 C 388.081 54.526,384.061 54.517,380.419 56.793 L 378.879 57.756 378.854 61.277 C 378.763 74.325,377.968 73.056,374.853 54.889 C 374.485 52.738,373.665 47.986,373.033 44.329 C 372.400 40.671,371.809 37.209,371.718 36.634 C 371.598 35.874,371.361 35.476,370.848 35.174 C 370.461 34.946,368.667 33.862,366.861 32.765 L 363.580 30.769 312.755 30.815 C 284.801 30.841,260.228 30.940,258.149 31.036 M367.145 33.613 C 369.081 34.819,370.710 35.841,370.765 35.886 C 370.819 35.930,371.195 37.819,371.600 40.082 C 372.005 42.346,372.697 46.193,373.137 48.631 C 373.578 51.069,374.231 54.765,374.590 56.845 C 376.613 68.590,377.036 70.328,377.902 70.452 C 378.832 70.586,379.131 71.592,379.136 74.598 L 379.140 77.358 328.357 77.533 C 300.427 77.630,274.018 77.786,269.670 77.880 L 261.765 78.051 261.876 75.205 C 261.936 73.640,262.064 72.008,262.159 71.578 C 262.328 70.813,262.325 70.810,262.019 71.447 C 261.847 71.806,261.640 73.390,261.557 74.967 L 261.408 77.836 259.281 77.911 L 257.154 77.986 256.995 75.825 C 256.908 74.636,256.809 73.077,256.775 72.360 L 256.714 71.057 255.496 70.796 C 254.826 70.652,254.195 70.452,254.095 70.351 C 253.995 70.249,254.042 66.553,254.200 62.137 C 254.357 57.720,254.564 51.033,254.659 47.276 L 254.832 40.446 248.472 40.575 C 241.316 40.720,226.448 41.385,224.989 41.625 C 223.663 41.843,220.619 45.309,206.030 63.212 L 200.978 69.412 202.640 71.110 L 204.302 72.807 209.713 72.639 L 215.124 72.471 215.124 73.801 C 215.124 75.725,215.689 76.650,216.869 76.658 C 217.620 76.664,217.889 77.138,217.412 77.615 C 216.986 78.041,213.192 78.323,203.716 78.633 L 198.175 78.814 198.175 76.220 C 198.175 71.435,199.029 70.014,209.095 58.060 C 220.266 44.793,220.232 44.839,221.901 40.605 C 223.339 36.956,222.128 37.402,238.070 34.658 C 258.690 31.110,252.745 31.360,315.645 31.395 L 363.625 31.421 367.145 33.613 M35.984 33.384 C 24.284 33.644,21.382 34.302,21.382 36.691 C 21.382 37.270,21.430 37.251,22.203 36.371 C 24.048 34.269,24.837 34.206,52.021 33.992 C 73.707 33.821,84.627 34.092,86.201 34.839 C 89.231 36.276,90.922 41.895,93.224 58.177 C 94.235 65.335,94.413 66.134,95.187 67.027 C 96.049 68.021,95.260 69.039,92.687 70.253 C 92.250 70.459,91.435 71.047,90.876 71.559 C 90.317 72.071,89.692 72.490,89.488 72.490 C 89.284 72.490,88.716 72.842,88.226 73.272 C 87.736 73.703,87.134 74.058,86.888 74.063 C 86.642 74.068,86.213 74.244,85.935 74.454 C 85.360 74.889,84.224 74.970,84.224 74.576 C 84.224 74.146,85.209 73.297,85.913 73.120 C 86.275 73.030,86.571 72.851,86.571 72.723 C 86.571 72.240,85.837 72.525,84.491 73.529 C 82.750 74.828,82.291 74.974,81.561 74.463 C 81.212 74.218,80.429 74.055,79.603 74.055 C 77.732 74.055,77.808 73.809,80.514 71.116 L 82.800 68.840 85.794 68.844 C 89.619 68.849,89.771 68.946,88.415 70.512 C 87.109 72.022,87.057 72.283,88.275 71.213 C 88.782 70.768,89.328 70.404,89.488 70.404 C 89.816 70.404,92.026 68.797,92.039 68.550 C 92.043 68.462,90.081 68.323,87.679 68.241 C 84.542 68.134,82.981 67.969,82.138 67.656 C 80.835 67.171,62.928 66.748,59.872 67.130 C 56.459 67.556,58.815 67.895,65.774 67.979 C 79.856 68.148,79.482 68.102,78.236 69.521 C 77.450 70.416,77.205 71.186,77.705 71.186 C 77.849 71.186,77.966 71.015,77.966 70.804 C 77.966 69.630,80.865 67.713,81.988 68.144 C 82.638 68.393,82.507 68.620,80.639 70.485 C 78.068 73.051,76.662 73.871,76.662 72.803 C 76.662 72.545,76.809 72.176,76.988 71.983 C 77.431 71.506,76.739 71.868,76.010 72.495 C 75.239 73.159,72.767 73.291,64.749 73.099 L 57.660 72.929 57.500 71.210 C 57.152 67.479,56.897 67.434,56.742 71.074 C 56.682 72.498,56.621 73.752,56.608 73.859 C 56.595 73.967,55.836 74.055,54.923 74.055 L 53.261 74.055 53.065 71.121 C 52.844 67.815,52.460 67.914,52.430 71.285 L 52.412 73.339 44.133 73.217 C 37.199 73.116,35.691 73.026,34.849 72.665 C 33.970 72.288,33.863 72.283,33.997 72.632 C 34.429 73.758,33.104 73.319,31.302 71.738 C 29.984 70.583,29.964 71.008,31.272 72.341 C 32.440 73.531,32.484 74.055,31.415 74.055 C 31.069 74.055,30.377 74.250,29.875 74.489 C 28.471 75.159,26.711 74.290,23.069 71.127 C 22.289 70.449,21.355 69.820,20.995 69.730 C 20.634 69.639,20.339 69.473,20.339 69.361 C 20.339 68.401,27.606 68.778,28.732 69.796 C 29.484 70.477,29.555 70.029,28.832 69.169 C 28.114 68.317,28.184 68.057,29.131 68.057 C 30.416 68.057,31.860 69.196,32.714 70.885 C 32.956 71.364,33.216 71.695,33.292 71.619 C 33.530 71.380,32.856 69.704,32.330 69.227 C 31.245 68.245,32.082 68.140,42.764 67.914 C 46.851 67.828,50.294 67.662,50.414 67.545 C 51.169 66.813,30.264 66.934,28.499 67.672 C 27.854 67.941,26.131 68.115,22.961 68.230 C 18.727 68.383,18.247 68.451,16.951 69.074 C 15.280 69.878,14.971 70.404,16.170 70.404 C 16.626 70.404,17.340 70.647,17.756 70.943 C 18.348 71.365,18.514 71.400,18.514 71.102 C 18.514 70.892,18.338 70.653,18.123 70.571 C 17.676 70.399,17.592 69.218,18.007 68.961 C 18.442 68.692,19.391 69.027,20.225 69.745 C 20.646 70.107,21.113 70.404,21.261 70.404 C 21.410 70.404,22.092 70.934,22.777 71.581 C 23.462 72.228,24.480 72.991,25.040 73.276 C 25.600 73.562,26.520 74.276,27.084 74.864 C 28.169 75.993,29.244 76.124,29.995 75.218 C 30.163 75.016,30.728 74.774,31.252 74.680 C 31.775 74.585,32.355 74.388,32.540 74.240 C 32.774 74.055,32.970 74.065,33.179 74.274 C 33.635 74.730,33.825 74.644,34.012 73.896 C 34.160 73.307,34.277 73.241,34.888 73.400 C 35.276 73.501,39.055 73.689,43.286 73.817 C 47.516 73.946,51.478 74.170,52.090 74.314 C 53.552 74.659,56.619 74.649,57.545 74.297 C 58.471 73.945,77.221 73.919,77.892 74.270 C 78.148 74.403,78.985 74.578,79.752 74.658 C 80.520 74.738,81.368 75.004,81.640 75.249 C 81.911 75.495,82.723 75.752,83.445 75.821 C 84.166 75.891,84.814 76.040,84.884 76.153 C 85.172 76.619,80.511 76.689,54.759 76.604 C 26.912 76.513,26.611 76.502,25.646 75.537 C 25.280 75.172,24.772 75.376,24.772 75.888 C 24.772 76.180,24.625 76.463,24.446 76.519 C 24.267 76.574,23.416 76.824,22.555 77.074 C 21.695 77.324,20.806 77.686,20.579 77.878 C 20.353 78.070,19.942 78.232,19.667 78.239 C 17.944 78.279,17.644 78.967,19.340 78.988 C 21.844 79.018,21.904 79.062,21.904 80.845 C 21.904 83.340,21.616 83.797,20.146 83.631 C 18.425 83.437,17.731 82.592,17.731 80.690 C 17.731 79.170,17.299 78.759,17.044 80.035 C 16.855 80.980,16.530 81.114,14.902 80.921 L 13.621 80.769 13.460 79.592 C 13.026 76.425,13.563 75.064,14.770 76.271 C 14.985 76.486,15.618 76.662,16.177 76.662 C 16.735 76.662,17.595 76.854,18.086 77.089 C 18.705 77.384,19.209 77.451,19.725 77.307 C 20.450 77.103,20.439 77.092,19.296 76.852 C 18.651 76.717,17.753 76.443,17.301 76.243 C 16.849 76.043,16.131 75.880,15.706 75.880 C 13.635 75.880,12.951 73.929,14.348 72.002 C 14.976 71.135,15.082 70.812,14.869 70.415 C 14.540 69.800,14.515 67.099,14.837 66.900 C 14.967 66.820,15.156 66.021,15.258 65.124 C 15.361 64.228,15.561 63.273,15.703 63.003 C 15.845 62.733,16.414 59.858,16.967 56.614 C 17.520 53.371,18.309 48.989,18.719 46.878 C 19.130 44.766,19.371 43.006,19.254 42.966 C 18.929 42.857,19.508 41.042,19.996 40.641 C 20.448 40.270,20.431 40.651,19.915 42.473 C 19.580 43.655,20.381 42.922,20.890 41.581 C 21.422 40.180,21.540 38.459,21.121 38.201 C 20.978 38.112,20.860 37.782,20.860 37.467 C 20.860 37.152,20.433 36.220,19.910 35.396 L 18.959 33.898 16.039 33.898 L 13.120 33.898 12.023 35.737 C 10.550 38.207,10.528 40.196,11.964 40.997 C 13.797 42.018,13.697 41.163,13.620 55.134 L 13.550 67.738 12.968 67.894 C 12.648 67.980,11.125 68.128,9.583 68.223 L 6.780 68.397 6.780 63.403 L 6.780 58.409 8.931 58.390 C 10.114 58.379,11.610 58.286,12.256 58.182 L 13.429 57.994 11.525 57.793 C 6.276 57.241,5.867 57.635,5.867 63.254 C 5.867 68.816,5.741 68.656,10.241 68.840 L 13.429 68.970 13.366 70.013 C 13.331 70.587,13.193 71.349,13.059 71.708 C 12.925 72.066,12.737 74.822,12.642 77.831 C 12.548 80.840,12.363 83.502,12.232 83.746 C 12.102 83.990,11.995 86.899,11.995 90.211 L 11.995 96.232 12.764 96.386 C 14.881 96.809,15.297 100.255,13.314 100.946 C 12.070 101.380,11.425 106.028,12.254 108.586 C 12.401 109.037,12.600 115.050,12.711 122.341 C 12.902 134.950,12.922 135.315,13.457 136.031 L 14.006 136.767 18.440 136.838 C 22.517 136.903,22.924 136.868,23.497 136.398 L 24.120 135.888 22.947 136.156 C 21.765 136.427,13.953 136.335,13.666 136.047 C 13.582 135.964,13.495 130.015,13.471 122.828 C 13.426 108.775,13.422 108.817,14.711 109.655 C 15.076 109.892,16.648 110.069,19.492 110.193 L 23.729 110.377 23.755 113.793 C 23.769 115.672,23.828 118.672,23.885 120.459 C 23.943 122.247,24.000 126.412,24.012 129.716 C 24.051 140.078,24.496 135.114,24.683 122.229 L 24.857 110.300 54.170 110.300 L 83.483 110.300 83.398 113.669 C 83.306 117.272,83.192 117.667,82.445 116.991 C 81.850 116.452,80.097 116.423,79.095 116.936 C 78.689 117.144,78.168 117.368,77.938 117.435 C 77.683 117.509,77.452 117.973,77.349 118.617 C 77.074 120.333,76.416 120.600,72.449 120.600 C 69.027 120.600,67.809 120.276,68.905 119.658 C 69.219 119.481,69.361 119.079,69.361 118.370 C 69.361 117.020,68.948 117.043,68.766 118.404 C 68.687 118.988,68.437 119.672,68.210 119.923 C 67.195 121.045,67.670 121.191,73.077 121.420 L 77.184 121.594 77.184 120.790 C 77.184 120.347,77.360 119.809,77.575 119.594 C 77.790 119.379,77.966 119.082,77.966 118.934 C 77.966 118.398,79.386 117.367,80.348 117.204 C 81.675 116.980,82.399 117.241,82.400 117.945 C 82.400 118.258,82.649 118.921,82.953 119.419 C 83.470 120.268,83.513 120.780,83.640 127.633 C 83.862 139.605,84.190 136.935,84.208 123.012 L 84.224 110.039 89.311 110.039 L 94.399 110.039 94.331 123.142 L 94.263 136.245 89.309 136.375 C 83.359 136.532,83.564 136.897,89.603 136.897 C 95.939 136.897,95.382 138.311,95.513 121.904 C 95.607 110.151,95.686 109.257,96.633 109.257 C 98.348 109.257,98.201 101.318,96.478 100.912 C 94.857 100.530,95.146 96.667,96.806 96.529 L 97.784 96.448 97.784 89.832 C 97.784 85.977,97.673 82.924,97.518 82.518 C 97.371 82.131,97.226 78.956,97.192 75.395 L 97.132 68.970 100.044 68.840 C 103.920 68.666,103.986 68.413,100.212 68.189 C 95.891 67.932,95.039 67.158,95.712 64.097 C 95.879 63.335,96.091 61.773,96.183 60.626 L 96.349 58.540 99.870 58.409 C 103.376 58.280,103.865 58.113,101.763 57.765 C 98.173 57.171,95.698 58.113,95.698 60.072 C 95.698 61.123,95.138 62.132,94.842 61.616 C 94.612 61.217,93.883 57.454,92.831 51.239 C 90.869 39.655,89.423 35.764,86.525 34.266 C 85.075 33.516,54.216 32.978,35.984 33.384 M218.192 34.085 C 217.801 34.144,217.097 34.145,216.628 34.087 C 216.159 34.029,216.480 33.981,217.340 33.979 C 218.201 33.978,218.584 34.025,218.192 34.085 M17.149 35.128 C 16.758 35.187,16.054 35.188,15.585 35.130 C 15.116 35.072,15.437 35.024,16.297 35.022 C 17.158 35.021,17.541 35.068,17.149 35.128 M219.883 35.737 C 221.120 36.081,221.154 36.688,219.949 36.914 C 218.809 37.128,213.402 36.957,213.145 36.700 C 212.135 35.690,217.140 34.976,219.883 35.737 M19.361 36.889 C 20.118 37.211,19.878 37.775,18.906 37.957 C 17.766 38.171,12.359 38.000,12.102 37.743 C 11.076 36.717,17.254 35.990,19.361 36.889 M220.187 38.296 C 220.264 38.421,220.095 38.732,219.811 38.989 C 219.528 39.245,219.296 39.604,219.296 39.786 C 219.296 40.708,215.813 40.857,215.074 39.965 C 214.886 39.739,214.351 39.395,213.885 39.200 C 212.897 38.787,212.794 38.414,213.625 38.254 C 214.748 38.038,220.048 38.072,220.187 38.296 M254.954 38.261 C 255.564 38.316,256.561 38.316,257.171 38.261 C 257.780 38.206,257.282 38.162,256.063 38.162 C 254.844 38.162,254.345 38.206,254.954 38.261 M241.982 38.592 L 238.462 38.745 242.503 38.767 C 244.726 38.779,248.188 38.706,250.196 38.605 L 253.846 38.422 249.674 38.430 C 247.379 38.435,243.918 38.507,241.982 38.592 M263.038 43.393 C 262.930 46.248,262.861 50.766,262.884 53.432 C 262.916 57.252,262.972 56.345,263.146 49.153 C 263.267 44.133,263.337 39.615,263.300 39.113 C 263.263 38.611,263.145 40.537,263.038 43.393 M232.931 39.046 C 233.905 39.097,235.431 39.096,236.321 39.045 C 237.212 38.995,236.415 38.954,234.550 38.954 C 232.686 38.954,231.957 38.996,232.931 39.046 M318.567 39.871 L 317.578 40.759 317.655 50.693 C 317.730 60.490,317.739 60.637,318.313 61.441 L 318.894 62.256 340.401 62.364 C 352.229 62.423,361.993 62.558,362.099 62.664 C 362.205 62.770,362.031 63.117,361.712 63.436 L 361.132 64.016 321.440 63.991 C 285.378 63.968,270.977 63.763,270.479 63.264 C 269.994 62.780,272.411 62.705,290.960 62.632 L 311.213 62.553 312.190 61.602 L 313.168 60.650 313.168 50.715 L 313.168 40.780 312.301 39.940 L 311.433 39.099 289.941 39.171 C 278.120 39.211,268.252 39.341,268.012 39.460 C 267.234 39.845,267.181 40.424,267.071 49.804 C 266.939 61.024,266.965 61.205,269.059 63.376 L 270.535 64.905 315.906 65.162 L 361.278 65.418 361.862 64.869 C 363.620 63.219,363.860 60.856,362.969 53.977 C 361.458 42.305,361.014 40.138,360.018 39.568 C 359.587 39.321,354.720 39.213,339.505 39.113 L 319.557 38.983 318.567 39.871 M19.296 39.334 C 19.296 39.455,19.061 39.766,18.774 40.026 C 18.488 40.286,18.253 40.651,18.253 40.839 C 18.253 41.786,14.966 41.855,13.950 40.928 C 13.664 40.666,13.106 40.330,12.712 40.180 C 11.843 39.851,11.784 39.451,12.581 39.297 C 13.693 39.083,19.296 39.114,19.296 39.334 M221.382 39.719 C 221.382 40.256,220.560 42.604,220.271 42.894 C 219.924 43.242,220.213 40.980,220.632 40.059 C 220.963 39.333,221.382 39.143,221.382 39.719 M23.336 39.898 C 23.291 39.971,22.834 41.907,22.319 44.200 C 21.804 46.494,20.985 50.130,20.498 52.282 C 18.524 61.001,18.420 61.914,19.222 63.479 L 19.730 64.469 54.128 64.442 C 91.005 64.413,90.651 64.422,91.023 63.445 C 91.379 62.508,91.317 60.987,90.904 60.516 C 90.570 60.135,89.382 54.948,87.203 44.357 C 86.720 42.007,86.284 40.043,86.234 39.994 C 86.089 39.848,23.426 39.753,23.336 39.898 M290.681 50.782 L 290.749 61.538 280.642 61.538 C 266.864 61.538,267.974 62.330,267.851 52.412 C 267.684 38.997,266.681 39.929,281.226 39.988 L 290.613 40.026 290.681 50.782 M310.964 40.422 C 311.865 40.764,311.995 42.108,311.995 51.108 C 311.995 59.444,311.877 60.828,311.140 61.183 C 310.893 61.302,306.437 61.437,301.239 61.484 L 291.786 61.568 291.786 50.906 C 291.786 45.041,291.874 40.150,291.982 40.037 C 292.241 39.763,310.188 40.127,310.964 40.422 M340.485 50.794 L 340.553 61.562 330.577 61.485 C 317.327 61.383,318.585 62.592,318.699 50.070 L 318.774 41.732 319.436 41.070 C 320.449 40.059,321.694 39.946,331.421 39.988 L 340.417 40.026 340.485 50.794 M359.078 40.365 C 360.065 40.753,361.330 47.544,362.214 57.192 C 362.642 61.854,363.782 61.392,351.621 61.482 L 341.591 61.556 341.591 50.900 C 341.591 45.039,341.679 40.151,341.786 40.038 C 342.067 39.742,358.276 40.049,359.078 40.365 M85.655 40.718 C 85.860 40.923,90.211 62.460,90.217 63.299 C 90.223 64.139,82.876 64.204,80.883 63.381 C 79.980 63.009,78.851 62.851,76.563 62.776 C 73.555 62.679,73.450 62.655,72.956 61.977 L 72.447 61.278 62.842 61.278 C 53.093 61.278,52.412 61.321,52.412 61.946 C 52.412 62.447,53.340 62.539,60.300 62.723 C 71.310 63.015,70.086 63.725,58.540 63.743 C 51.994 63.754,51.172 63.708,50.594 63.299 C 50.084 62.938,49.403 62.842,47.334 62.840 C 43.192 62.836,41.986 62.627,41.695 61.860 L 41.450 61.216 32.083 61.319 C 26.931 61.375,22.629 61.509,22.523 61.615 C 21.974 62.163,23.434 62.346,30.263 62.584 C 34.342 62.727,38.031 62.918,38.462 63.008 L 39.244 63.173 38.592 63.417 C 38.233 63.551,33.804 63.730,28.748 63.814 L 19.557 63.967 19.557 62.339 C 19.557 61.444,19.726 59.988,19.934 59.104 C 20.141 58.220,20.668 55.585,21.104 53.250 C 21.540 50.914,22.338 47.060,22.878 44.686 L 23.859 40.370 54.672 40.459 C 71.619 40.508,85.561 40.624,85.655 40.718 M218.742 41.863 C 219.482 42.602,218.123 45.215,214.884 49.282 C 210.588 54.676,204.958 61.228,200.935 65.514 L 198.305 68.316 195.502 68.317 C 193.960 68.318,192.699 68.241,192.699 68.146 C 192.699 68.052,197.623 63.016,203.642 56.956 C 214.692 45.830,216.167 44.140,216.167 42.602 C 216.167 42.022,216.309 41.719,216.623 41.631 C 217.121 41.491,218.524 41.644,218.742 41.863 M253.515 48.501 C 253.423 57.443,252.931 69.948,252.659 70.243 C 252.542 70.370,248.596 70.578,243.890 70.706 C 239.183 70.834,232.986 71.032,230.117 71.148 C 227.249 71.263,224.885 71.348,224.864 71.337 C 224.843 71.326,224.750 69.346,224.657 66.937 C 224.419 60.753,224.422 60.756,219.770 60.756 C 215.161 60.756,215.124 60.808,215.124 67.172 L 215.124 71.177 214.407 71.377 C 212.655 71.865,205.403 71.609,204.302 71.019 C 202.011 69.791,202.013 69.768,204.609 66.598 C 205.875 65.053,207.957 62.490,209.237 60.903 C 217.679 50.437,224.021 43.099,224.921 42.757 C 226.175 42.280,248.010 41.349,252.934 41.562 L 253.585 41.591 253.515 48.501 M17.571 42.811 C 18.161 42.980,18.674 43.137,18.710 43.160 C 18.835 43.237,16.188 56.188,15.786 57.473 C 15.565 58.177,15.385 59.194,15.385 59.733 C 15.385 60.850,15.175 61.538,14.835 61.538 C 14.703 61.538,14.602 57.549,14.602 52.303 L 14.602 43.068 15.319 42.806 C 16.278 42.456,16.334 42.456,17.571 42.811 M389.861 57.138 L 391.525 58.018 391.715 61.278 C 391.820 63.070,391.937 72.687,391.976 82.647 L 392.047 100.757 390.874 101.131 C 389.622 101.530,385.418 101.627,382.915 101.314 C 380.511 101.014,380.621 101.564,380.391 88.680 C 380.282 82.572,380.082 73.351,379.946 68.188 C 379.665 57.506,379.520 58.311,381.946 57.099 C 384.599 55.773,387.305 55.787,389.861 57.138 M262.621 61.473 C 262.664 64.844,262.784 64.562,262.899 60.821 C 262.939 59.495,262.885 58.409,262.777 58.409 C 262.669 58.409,262.599 59.788,262.621 61.473 M103.557 63.233 C 103.557 66.081,103.645 67.722,103.781 67.405 C 103.904 67.119,104.005 65.241,104.005 63.233 C 104.005 61.226,103.904 59.348,103.781 59.061 C 103.645 58.745,103.557 60.385,103.557 63.233 M221.473 61.968 L 223.468 62.136 223.468 68.863 C 223.468 72.562,223.380 75.637,223.272 75.696 C 222.775 75.970,216.615 75.401,216.400 75.062 C 216.127 74.631,216.096 62.834,216.366 62.416 C 216.745 61.831,218.272 61.697,221.473 61.968 M188.411 69.337 C 188.252 69.595,188.322 69.585,180.052 70.548 C 176.897 70.916,172.849 71.392,171.056 71.607 C 169.263 71.821,166.858 72.101,165.711 72.229 C 149.879 73.993,133.998 76.258,129.401 77.408 C 127.201 77.958,126.986 77.878,127.951 76.871 C 129.197 75.571,132.874 74.784,144.720 73.284 C 157.883 71.618,172.034 70.166,180.313 69.634 C 182.751 69.477,185.215 69.312,185.789 69.268 C 188.034 69.096,188.552 69.109,188.411 69.337 M198.352 69.817 C 198.274 70.212,198.015 71.180,197.777 71.969 C 197.538 72.757,197.281 74.589,197.205 76.039 L 197.067 78.676 186.604 78.846 C 172.090 79.083,164.798 79.249,156.454 79.531 C 152.510 79.665,146.643 79.841,143.416 79.923 C 140.189 80.004,135.287 80.191,132.523 80.338 C 127.214 80.620,126.467 80.556,126.467 79.819 C 126.467 78.175,130.358 77.345,149.804 74.841 C 152.099 74.545,154.857 74.187,155.932 74.044 C 157.008 73.902,158.827 73.678,159.974 73.546 C 163.935 73.091,173.540 71.968,175.619 71.716 C 176.767 71.577,179.231 71.288,181.095 71.074 C 182.960 70.860,186.069 70.497,188.005 70.268 C 189.941 70.039,192.992 69.695,194.785 69.505 C 196.578 69.314,198.146 69.145,198.269 69.129 C 198.393 69.113,198.431 69.423,198.352 69.817 M94.534 69.898 C 94.631 70.055,95.026 70.103,95.452 70.010 C 96.422 69.797,96.870 73.593,96.226 76.562 C 96.222 76.579,95.399 76.651,94.398 76.723 C 93.396 76.794,92.428 76.970,92.246 77.113 C 92.065 77.256,91.037 77.451,89.961 77.547 C 88.885 77.642,87.966 77.834,87.918 77.973 C 87.718 78.559,87.111 78.157,86.823 77.249 C 86.652 76.711,86.350 76.011,86.151 75.694 C 85.779 75.101,86.228 74.576,87.106 74.576 C 87.276 74.576,87.816 74.224,88.306 73.794 C 88.796 73.364,89.302 73.012,89.430 73.012 C 89.809 73.012,92.645 71.042,93.331 70.303 C 94.020 69.561,94.273 69.476,94.534 69.898 M19.035 71.951 C 19.035 72.085,19.299 72.270,19.622 72.363 C 20.712 72.676,22.030 73.346,22.771 73.963 C 23.176 74.300,23.704 74.569,23.944 74.561 C 24.328 74.547,24.322 74.508,23.897 74.235 C 23.631 74.064,22.999 73.602,22.492 73.207 C 21.986 72.813,21.367 72.490,21.117 72.490 C 20.868 72.490,20.518 72.314,20.339 72.099 C 19.983 71.670,19.035 71.563,19.035 71.951 M255.553 72.113 C 255.758 72.361,255.935 73.561,256.008 75.207 L 256.128 77.895 238.731 78.090 C 227.297 78.217,221.246 78.195,221.076 78.025 C 220.721 77.670,221.822 76.923,222.698 76.923 C 223.775 76.923,224.432 75.975,224.640 74.118 C 224.869 72.085,224.156 72.258,233.377 71.999 C 247.201 71.610,255.169 71.651,255.553 72.113 M219.982 77.249 C 219.895 77.572,219.823 77.924,219.821 78.031 C 219.817 78.266,218.928 78.294,218.701 78.067 C 218.451 77.816,219.310 76.662,219.747 76.662 C 220.026 76.662,220.094 76.831,219.982 77.249 M24.609 78.259 C 25.091 80.673,24.673 89.951,24.072 90.151 C 23.085 90.479,22.573 81.397,23.419 78.553 C 23.807 77.249,24.379 77.108,24.609 78.259 M36.767 84.002 L 36.767 90.559 34.772 90.390 C 33.674 90.298,31.168 90.222,29.202 90.222 L 25.627 90.222 25.498 85.277 C 25.331 78.935,25.434 77.769,26.173 77.624 C 26.478 77.565,28.986 77.500,31.747 77.480 L 36.767 77.445 36.767 84.002 M69.575 77.616 C 73.199 78.051,69.076 78.219,54.759 78.219 C 40.135 78.220,36.353 78.091,38.983 77.681 C 40.383 77.463,67.816 77.404,69.575 77.616 M82.855 77.609 L 83.442 77.766 83.442 83.994 L 83.442 90.222 79.831 90.222 C 77.845 90.222,75.322 90.298,74.224 90.390 L 72.229 90.559 72.247 87.326 C 72.264 84.201,72.276 84.132,72.620 85.234 C 74.423 91.016,82.991 89.613,82.969 83.539 C 82.946 77.285,74.314 76.345,72.473 82.397 C 72.351 82.798,72.266 81.965,72.252 80.248 L 72.229 77.445 77.249 77.448 C 80.010 77.450,82.533 77.522,82.855 77.609 M85.681 77.741 C 86.004 78.264,85.889 89.026,85.553 89.653 C 84.582 91.468,84.224 89.758,84.224 83.292 C 84.224 78.121,84.728 76.200,85.681 77.741 M96.075 77.684 C 96.439 78.273,96.529 80.348,96.222 81.088 C 95.721 82.298,94.853 82.136,92.747 80.440 C 91.769 79.653,90.791 79.009,90.574 79.009 C 89.909 79.009,90.347 78.363,91.070 78.277 C 91.443 78.232,91.888 78.027,92.060 77.820 C 92.414 77.393,95.824 77.277,96.075 77.684 M29.468 78.556 C 25.950 79.730,24.779 84.742,27.434 87.263 C 31.093 90.736,36.506 88.481,36.506 83.482 C 36.506 79.931,32.903 77.410,29.468 78.556 M349.413 80.661 L 349.413 82.834 319.883 83.008 C 282.712 83.226,260.879 83.226,258.573 83.008 L 256.781 82.839 256.909 81.045 C 256.980 80.059,257.121 79.167,257.223 79.065 C 257.326 78.963,275.089 78.815,296.697 78.737 C 318.305 78.659,339.006 78.571,342.699 78.541 L 349.413 78.488 349.413 80.661 M378.852 78.909 C 378.910 78.959,379.013 79.882,379.082 80.960 L 379.208 82.920 371.742 82.920 L 364.276 82.920 364.276 80.727 L 364.276 78.534 371.512 78.676 C 375.492 78.754,378.795 78.859,378.852 78.909 M65.283 79.288 C 67.988 79.441,70.511 79.684,70.889 79.828 C 72.209 80.332,70.889 80.833,68.203 80.847 C 64.312 80.868,58.857 81.296,57.966 81.650 C 57.245 81.937,57.065 81.922,56.642 81.539 C 56.323 81.250,55.712 81.095,54.889 81.095 C 54.067 81.095,53.456 81.250,53.137 81.539 C 52.707 81.927,52.543 81.939,51.812 81.635 C 51.245 81.399,48.963 81.232,44.677 81.112 C 38.292 80.933,37.549 80.806,37.549 79.895 C 37.549 79.171,38.629 79.101,50.456 79.051 C 55.906 79.029,62.578 79.135,65.283 79.288 M240.417 80.313 L 240.417 81.617 245.763 81.617 L 251.108 81.617 251.108 80.313 L 251.108 79.009 253.614 79.009 L 256.121 79.009 255.974 79.857 C 255.894 80.323,255.752 81.248,255.659 81.914 L 255.491 83.123 248.149 83.279 C 244.112 83.364,231.216 83.506,219.492 83.594 L 198.175 83.753 198.175 81.799 L 198.175 79.846 201.890 79.691 C 205.206 79.553,225.441 79.180,236.310 79.056 L 240.417 79.009 240.417 80.313 M33.295 79.702 C 35.194 80.602,36.131 83.082,35.348 85.132 C 33.489 90.000,26.341 88.209,26.926 83.022 C 27.256 80.094,30.528 78.388,33.295 79.702 M80.295 80.040 C 82.553 81.647,82.706 85.128,80.597 86.902 C 76.616 90.252,71.195 85.380,74.126 81.086 C 75.417 79.195,78.399 78.689,80.295 80.040 M197.132 81.625 C 197.132 82.862,197.026 83.492,196.806 83.562 C 196.626 83.619,187.679 83.792,176.923 83.945 C 166.167 84.098,153.054 84.299,147.784 84.391 L 138.201 84.559 138.201 82.858 C 138.201 80.789,137.783 80.931,144.111 80.855 C 146.656 80.825,148.801 80.760,148.880 80.712 C 148.958 80.664,153.246 80.539,158.409 80.434 C 163.572 80.328,171.669 80.160,176.402 80.060 C 181.134 79.960,187.735 79.859,191.069 79.835 L 197.132 79.791 197.132 81.625 M92.218 80.716 C 92.569 80.940,92.847 81.470,92.958 82.128 C 93.143 83.222,93.311 83.377,93.790 82.898 C 93.945 82.743,94.790 82.551,95.667 82.471 L 97.262 82.327 97.261 85.296 C 97.261 86.930,97.184 89.921,97.092 91.944 L 96.924 95.623 89.384 95.758 L 81.844 95.893 80.721 97.099 L 79.598 98.305 54.873 98.305 L 30.149 98.305 28.944 97.001 L 27.739 95.698 20.551 95.698 C 14.187 95.698,13.321 95.648,13.005 95.267 C 12.188 94.285,12.471 84.082,13.354 82.669 C 14.367 81.045,17.731 81.689,17.731 83.506 C 17.731 84.472,19.946 87.044,21.638 88.044 C 22.071 88.300,22.425 88.613,22.425 88.741 C 22.425 88.869,22.787 89.430,23.229 89.989 L 24.033 91.004 54.512 91.004 L 84.990 91.004 86.072 89.570 C 86.668 88.781,87.288 88.135,87.450 88.134 C 89.116 88.126,91.677 86.379,92.183 84.905 C 92.361 84.387,92.491 83.953,92.473 83.941 C 92.454 83.929,91.297 83.834,89.901 83.730 C 86.930 83.508,87.038 83.578,86.888 81.772 C 86.788 80.562,86.840 80.343,87.258 80.225 C 88.094 79.989,91.628 80.339,92.218 80.716 M137.364 82.855 L 137.440 85.007 135.865 85.007 L 134.289 85.007 134.289 83.196 C 134.289 81.090,134.770 80.499,136.375 80.630 L 137.288 80.704 137.364 82.855 M132.976 81.339 C 133.435 82.195,133.277 83.324,132.551 84.383 C 131.974 85.226,131.824 85.808,131.668 87.824 C 131.564 89.158,131.401 90.328,131.306 90.424 C 130.547 91.183,130.559 86.488,131.320 85.321 C 131.534 84.992,131.769 84.112,131.843 83.365 C 132.099 80.756,132.388 80.240,132.976 81.339 M130.741 81.508 C 131.050 82.311,130.893 83.606,130.363 84.625 C 129.959 85.404,129.794 86.333,129.694 88.396 C 129.621 89.902,129.517 91.272,129.464 91.440 C 129.367 91.747,126.389 93.872,126.055 93.872 C 125.561 93.872,126.124 87.149,126.712 86.020 C 127.039 85.393,127.406 84.177,127.527 83.318 C 127.666 82.336,127.916 81.634,128.200 81.426 C 128.858 80.945,130.546 80.999,130.741 81.508 M51.603 82.111 C 51.843 82.351,52.380 82.995,52.797 83.542 C 53.459 84.409,53.594 84.482,53.860 84.119 C 54.190 83.667,55.802 83.538,55.802 83.963 C 55.802 84.613,56.622 84.112,57.486 82.935 L 58.433 81.646 64.484 81.795 C 70.955 81.955,71.964 82.132,70.974 82.934 C 69.802 83.883,60.274 84.031,59.263 83.116 C 58.564 82.483,58.457 82.531,58.262 83.572 C 58.140 84.220,57.952 84.485,57.613 84.485 C 57.351 84.485,57.069 84.594,56.986 84.728 C 56.693 85.203,57.326 85.257,58.316 84.843 C 59.564 84.320,70.444 84.421,70.983 84.960 C 72.165 86.141,57.940 86.504,56.356 85.332 C 55.431 84.649,54.337 84.575,53.698 85.153 C 52.565 86.179,38.883 86.428,37.896 85.441 C 37.037 84.582,49.885 83.983,51.512 84.807 C 52.297 85.204,53.056 85.154,52.789 84.723 C 52.708 84.592,52.414 84.485,52.136 84.485 C 51.814 84.485,51.618 84.295,51.597 83.963 C 51.579 83.677,51.535 83.325,51.499 83.181 C 51.463 83.038,51.419 82.859,51.402 82.784 C 51.384 82.709,51.055 82.854,50.671 83.105 C 50.077 83.494,49.175 83.578,44.678 83.663 C 37.980 83.789,36.819 83.580,37.558 82.384 C 38.077 81.545,50.790 81.298,51.603 82.111 M55.769 81.780 C 56.217 81.869,56.584 82.036,56.584 82.150 C 56.584 82.484,55.055 82.724,54.087 82.543 C 53.013 82.341,52.921 81.953,53.911 81.803 C 54.306 81.744,54.702 81.677,54.791 81.656 C 54.881 81.634,55.321 81.690,55.769 81.780 M378.096 84.536 C 377.289 84.880,256.862 85.184,257.192 84.841 C 257.597 84.420,269.638 84.321,324.250 84.289 C 363.071 84.267,378.561 84.337,378.096 84.536 M21.660 84.755 C 22.239 85.065,22.265 85.228,21.897 86.197 C 21.647 86.856,21.600 86.874,21.159 86.475 C 20.901 86.241,20.530 86.050,20.335 86.050 C 19.943 86.050,18.774 85.039,18.774 84.700 C 18.774 84.391,21.061 84.434,21.660 84.755 M90.596 84.739 C 91.938 85.250,90.991 86.549,89.124 86.758 C 87.436 86.946,85.996 85.686,86.884 84.798 C 87.260 84.422,89.661 84.384,90.596 84.739 M252.803 84.681 L 255.411 84.874 253.455 85.036 C 250.623 85.272,213.789 85.301,209.778 85.071 L 206.389 84.876 212.647 84.739 C 222.945 84.512,250.002 84.473,252.803 84.681 M189.048 85.281 C 187.112 85.383,177.666 85.453,168.057 85.438 C 155.329 85.417,152.816 85.370,158.801 85.267 C 171.253 85.053,193.199 85.063,189.048 85.281 M136.897 86.408 C 136.897 86.720,133.291 89.439,132.878 89.439 C 132.794 89.439,132.725 88.677,132.725 87.744 L 132.725 86.050 134.811 86.050 C 136.407 86.050,136.897 86.134,136.897 86.408 M379.314 87.549 C 379.940 91.974,379.445 98.566,378.488 98.566 C 377.795 98.566,377.544 99.424,377.078 103.384 C 376.758 106.112,376.469 107.606,376.212 107.863 C 375.149 108.926,351.606 109.911,346.389 109.111 C 345.409 108.961,345.232 108.612,344.332 105.041 C 342.418 97.445,339.552 90.928,336.969 88.295 L 335.463 86.760 329.074 86.949 C 325.561 87.052,318.678 87.226,313.779 87.335 L 304.872 87.532 302.480 89.073 C 300.420 90.398,300.019 90.776,299.600 91.786 C 299.332 92.432,298.003 95.658,296.646 98.957 C 295.289 102.256,293.913 105.563,293.590 106.306 L 293.001 107.659 290.503 107.741 C 284.943 107.923,256.288 107.980,255.159 107.810 C 254.204 107.667,253.979 107.541,254.102 107.220 C 255.621 103.262,256.103 100.498,256.316 94.524 C 256.453 90.709,256.659 88.147,256.884 87.484 L 257.238 86.441 263.495 86.303 C 266.937 86.228,294.356 86.140,324.427 86.108 L 379.102 86.050 379.314 87.549 M196.778 90.613 C 196.828 96.240,196.609 97.678,194.890 103.013 L 193.415 107.591 189.602 107.494 C 187.505 107.441,185.662 107.358,185.508 107.309 C 185.353 107.261,184.604 105.656,183.843 103.741 C 180.924 96.402,177.999 91.923,175.168 90.459 C 173.503 89.597,154.807 88.846,148.094 89.370 C 144.456 89.655,144.070 89.871,138.885 94.534 C 136.810 96.401,135.386 97.499,135.156 97.411 C 134.951 97.332,132.941 97.202,130.690 97.121 C 122.533 96.828,122.267 97.270,136.057 88.199 C 137.068 87.534,138.115 87.070,138.795 86.984 C 139.849 86.852,185.527 86.378,193.090 86.420 L 196.741 86.441 196.778 90.613 M255.435 90.939 C 255.038 100.949,253.980 106.592,252.337 107.472 C 251.808 107.755,200.443 107.836,199.988 107.555 C 198.812 106.828,197.101 90.959,197.815 87.393 L 197.976 86.584 201.922 86.505 C 204.092 86.462,217.061 86.400,230.743 86.368 L 255.619 86.310 255.435 90.939 M65.933 87.101 C 70.638 87.374,71.981 87.672,71.033 88.232 C 70.331 88.647,39.900 88.806,38.527 88.402 C 37.441 88.083,37.224 87.436,38.136 87.232 C 40.006 86.814,59.403 86.723,65.933 87.101 M336.788 89.888 C 338.548 91.851,338.512 91.935,336.581 90.370 L 335.638 89.606 320.557 89.671 L 305.476 89.737 303.286 91.153 C 300.455 92.983,299.413 93.080,301.239 91.343 C 304.226 88.502,304.161 88.514,317.471 88.249 C 322.347 88.152,326.385 88.028,326.445 87.973 C 326.505 87.919,328.450 87.875,330.769 87.875 L 334.984 87.875 336.788 89.888 M70.817 89.765 C 70.925 89.873,70.964 90.008,70.904 90.066 C 70.531 90.425,38.070 90.333,38.070 89.973 C 38.070 89.496,70.343 89.291,70.817 89.765 M172.483 90.861 C 176.886 92.134,179.607 95.744,182.909 104.694 C 183.438 106.128,184.310 108.416,184.846 109.778 L 185.820 112.256 190.498 112.413 C 196.922 112.629,196.887 112.324,190.954 116.386 L 188.036 118.383 185.217 118.380 C 181.042 118.374,181.387 118.681,181.028 114.651 C 179.915 102.182,171.760 94.166,159.452 93.443 C 146.917 92.706,137.101 101.000,135.096 114.022 C 134.836 115.711,134.570 117.147,134.504 117.212 C 134.309 117.408,126.878 116.772,126.623 116.538 C 126.172 116.125,128.340 112.820,129.386 112.328 C 131.406 111.376,132.503 108.946,132.558 105.298 L 132.595 102.868 130.639 102.738 C 127.359 102.519,124.902 100.853,124.902 98.848 L 124.902 98.005 127.184 98.150 C 128.439 98.229,130.962 98.365,132.791 98.450 L 136.116 98.606 139.979 95.105 C 144.125 91.349,144.900 90.894,147.849 90.494 C 151.086 90.054,170.704 90.347,172.483 90.861 M337.027 92.206 C 339.018 93.965,339.076 94.089,342.232 103.258 L 344.611 110.166 345.904 110.377 C 348.975 110.878,363.964 110.573,370.236 109.881 L 371.893 109.698 371.801 112.072 C 371.750 113.378,371.575 114.579,371.414 114.741 C 370.063 116.089,351.908 118.644,343.672 118.644 L 341.658 118.644 341.480 116.493 C 340.477 104.358,334.560 96.730,324.250 94.279 C 308.331 90.494,295.895 99.968,295.518 116.167 L 295.416 120.600 290.667 120.504 L 285.919 120.409 284.534 119.201 C 283.773 118.536,282.893 117.808,282.579 117.583 C 282.069 117.218,280.094 117.190,264.016 117.322 C 224.481 117.648,209.717 117.539,207.947 116.908 C 207.083 116.600,205.102 116.159,203.545 115.928 C 200.403 115.461,199.572 115.144,198.044 113.826 L 197.001 112.927 198.305 112.879 C 199.022 112.852,220.576 112.859,246.202 112.894 L 292.795 112.958 293.088 111.825 C 293.778 109.147,294.916 106.488,298.674 98.769 C 302.544 90.821,302.497 90.836,322.770 90.779 L 335.371 90.743 337.027 92.206 M62.600 93.895 C 60.068 94.392,60.869 94.654,64.920 94.654 C 69.213 94.654,69.611 94.512,66.822 93.972 C 64.825 93.585,64.233 93.575,62.600 93.895 M40.207 94.130 C 38.815 94.459,38.219 95.548,39.002 96.331 C 39.545 96.874,39.533 96.892,39.419 95.698 C 39.304 94.492,38.743 94.612,44.263 94.654 C 46.172 94.668,47.718 94.574,47.718 94.443 C 47.718 93.942,42.008 93.703,40.207 94.130 M51.114 94.196 C 48.746 95.052,49.630 96.829,52.581 97.145 C 57.672 97.691,61.119 96.050,58.041 94.548 C 56.756 93.920,52.478 93.703,51.114 94.196 M161.972 94.500 C 178.257 97.627,185.593 116.944,175.368 129.777 C 162.741 145.625,137.244 137.615,136.200 117.471 C 135.461 103.229,148.218 91.859,161.972 94.500 M322.324 94.513 C 339.311 97.763,346.094 118.216,334.451 131.080 C 322.708 144.054,300.739 138.266,296.971 121.205 C 293.545 105.690,306.955 91.572,322.324 94.513 M58.149 95.567 L 58.149 96.480 56.649 96.530 C 51.984 96.685,50.587 96.396,50.587 95.274 L 50.587 94.654 54.368 94.654 L 58.149 94.654 58.149 95.567 M48.192 95.817 C 48.109 96.529,48.157 96.657,48.424 96.435 C 48.810 96.115,48.874 95.277,48.529 95.063 C 48.401 94.984,48.249 95.323,48.192 95.817 M60.378 95.241 C 60.268 95.492,60.268 95.903,60.378 96.154 C 60.567 96.588,60.581 96.588,60.685 96.154 C 60.869 95.384,60.628 94.667,60.378 95.241 M69.574 95.758 L 69.492 96.610 65.319 96.741 C 61.215 96.869,61.181 96.875,63.210 97.101 C 67.280 97.555,70.143 97.032,70.143 95.834 C 70.143 94.863,69.666 94.799,69.574 95.758 M29.088 97.653 L 30.461 98.827 55.072 98.827 L 79.683 98.827 80.834 97.653 L 81.986 96.480 88.190 96.480 L 94.394 96.480 94.394 98.696 L 94.394 100.913 54.889 100.913 L 15.385 100.913 15.385 98.696 L 15.385 96.480 21.549 96.480 L 27.714 96.480 29.088 97.653 M40.808 97.016 C 41.382 97.135,42.673 97.232,43.677 97.232 C 44.681 97.232,45.971 97.135,46.545 97.016 C 47.273 96.866,46.407 96.801,43.677 96.801 C 40.947 96.801,40.080 96.866,40.808 97.016 M197.922 104.162 C 198.827 107.743,198.769 107.953,196.931 107.756 C 194.451 107.490,194.470 107.571,195.880 103.187 C 196.853 100.159,196.919 100.191,197.922 104.162 M97.262 104.542 C 97.262 108.217,97.218 108.368,95.992 108.919 C 95.132 109.304,91.426 109.345,55.280 109.365 C 13.258 109.388,13.789 109.402,12.842 108.250 C 12.496 107.829,12.361 101.937,12.690 101.608 C 12.786 101.512,31.854 101.434,55.063 101.434 L 97.262 101.434 97.262 104.542 M154.996 102.603 C 147.194 104.301,142.326 113.048,144.946 120.663 C 148.789 131.832,164.107 133.385,170.041 123.207 C 176.057 112.887,166.691 100.059,154.996 102.603 M159.768 103.559 C 169.306 104.967,173.869 114.798,168.832 123.090 C 165.576 128.450,158.444 130.510,152.605 127.777 C 141.397 122.532,143.648 105.574,155.823 103.536 C 157.645 103.231,157.536 103.230,159.768 103.559 M131.542 106.058 C 131.533 108.142,131.502 108.247,130.469 109.708 L 129.406 111.213 124.938 111.284 L 120.469 111.355 120.469 107.829 L 120.469 104.302 121.447 104.271 C 121.985 104.253,124.068 104.154,126.076 104.049 C 128.083 103.945,130.137 103.871,130.639 103.886 L 131.551 103.911 131.542 106.058 M155.819 105.101 C 149.024 106.238,145.150 113.622,147.740 120.501 C 151.341 130.064,166.005 129.377,168.739 119.517 C 171.094 111.023,164.487 103.650,155.819 105.101 M315.645 105.191 C 307.335 107.244,304.314 117.489,310.158 123.802 C 316.791 130.966,328.262 127.121,329.432 117.340 C 330.342 109.729,323.102 103.348,315.645 105.191 M162.022 106.729 C 171.009 110.843,170.005 123.579,160.495 126.113 C 151.257 128.575,144.145 117.475,150.111 109.907 C 152.994 106.252,158.039 104.905,162.022 106.729 M320.860 106.221 C 329.431 108.504,331.219 119.822,323.783 124.717 C 316.400 129.577,307.090 123.544,308.269 114.665 C 309.031 108.926,315.281 104.734,320.860 106.221 M192.579 109.274 C 192.894 109.784,192.416 109.908,189.796 109.999 C 186.877 110.100,185.919 109.948,185.919 109.382 C 185.919 108.904,192.287 108.801,192.579 109.274 M198.993 109.449 C 199.490 109.946,199.078 110.137,197.257 110.253 C 195.191 110.385,193.742 110.138,193.742 109.655 C 193.742 108.963,198.327 108.783,198.993 109.449 M249.671 109.160 C 252.220 109.459,251.450 110.286,248.370 110.556 L 246.545 110.716 248.175 110.933 C 249.071 111.052,249.804 111.271,249.804 111.419 C 249.804 111.754,203.454 111.448,202.086 111.104 L 201.173 110.875 202.477 110.811 C 203.194 110.776,209.237 110.670,215.906 110.574 L 228.031 110.401 216.819 110.321 C 204.421 110.233,200.747 110.070,200.592 109.603 C 200.537 109.435,200.762 109.247,201.093 109.185 C 202.082 109.000,248.112 108.977,249.671 109.160 M292.112 109.655 C 294.239 110.490,291.597 110.598,271.273 110.511 C 253.990 110.436,252.000 110.365,252.520 109.844 C 253.026 109.337,290.842 109.156,292.112 109.655 M155.683 110.190 C 150.561 112.411,150.296 119.266,155.233 121.810 C 159.400 123.958,164.424 120.935,164.397 116.297 C 164.370 111.595,159.811 108.399,155.683 110.190 M316.037 110.277 C 312.727 111.439,311.093 114.984,312.272 118.444 C 313.994 123.496,321.569 123.925,323.970 119.106 C 326.604 113.821,321.647 108.305,316.037 110.277 M160.292 111.347 C 165.541 113.971,163.876 121.359,158.035 121.359 C 151.942 121.359,150.728 113.008,156.516 110.909 C 157.864 110.420,158.608 110.506,160.292 111.347 M192.047 110.952 C 192.047 111.227,187.402 111.468,186.770 111.225 C 186.571 111.148,186.483 110.964,186.575 110.814 C 186.794 110.460,192.047 110.592,192.047 110.952 M199.150 110.724 C 200.451 111.073,199.280 111.343,196.464 111.343 C 193.734 111.343,193.169 111.220,193.655 110.734 C 193.871 110.519,198.352 110.510,199.150 110.724 M292.022 111.231 C 292.349 111.558,290.886 111.623,279.767 111.774 C 267.016 111.949,251.630 111.699,251.630 111.318 C 251.630 110.924,291.629 110.838,292.022 111.231 M319.974 111.118 C 324.503 112.634,324.972 118.756,320.725 120.926 C 317.973 122.332,314.708 121.150,313.403 118.275 C 311.567 114.233,315.731 109.698,319.974 111.118 M156.193 112.442 C 152.537 114.370,153.586 119.749,157.695 120.144 C 159.252 120.293,160.304 119.814,161.310 118.495 C 163.976 114.999,160.082 110.392,156.193 112.442 M316.980 112.134 C 312.714 113.412,313.664 119.775,318.177 120.147 C 319.492 120.256,319.614 120.210,320.790 119.174 C 324.357 116.031,321.514 110.777,316.980 112.134 M26.858 117.603 C 26.858 118.251,26.961 118.611,27.119 118.514 C 27.262 118.425,27.379 118.121,27.379 117.838 C 27.379 116.457,28.839 117.111,29.090 118.605 C 29.356 120.184,29.470 120.436,30.002 120.604 C 30.282 120.693,30.849 121.050,31.261 121.397 C 31.914 121.947,32.115 121.992,32.812 121.749 C 33.252 121.596,34.880 121.392,36.428 121.296 L 39.244 121.121 39.391 119.415 C 39.471 118.477,39.625 117.567,39.732 117.394 C 40.058 116.866,40.417 117.043,40.417 117.731 C 40.417 118.090,40.662 118.628,40.960 118.927 C 41.600 119.566,41.987 119.379,41.407 118.711 C 41.188 118.459,40.932 117.930,40.838 117.536 C 40.450 115.900,38.980 117.040,38.693 119.199 C 38.507 120.604,38.296 120.721,35.932 120.727 C 35.114 120.729,33.845 120.859,33.112 121.016 C 31.255 121.414,30.214 120.406,29.768 117.777 L 29.584 116.688 28.221 116.610 L 26.858 116.531 26.858 117.603 M52.738 117.513 C 52.559 117.585,52.412 117.802,52.412 117.995 C 52.412 118.188,52.228 118.530,52.002 118.756 C 51.386 119.372,52.068 119.261,53.008 118.591 C 53.774 118.046,54.150 118.009,60.393 117.874 C 64.012 117.796,67.060 117.643,67.167 117.536 C 67.380 117.322,53.267 117.299,52.738 117.513 M25.694 119.395 C 25.399 120.325,26.107 120.922,26.448 120.032 C 26.541 119.791,26.449 119.427,26.242 119.221 C 25.918 118.896,25.846 118.919,25.694 119.395 M42.243 120.045 C 42.243 120.571,43.192 121.210,44.273 121.413 C 44.871 121.525,45.224 121.776,45.386 122.204 C 45.855 123.437,47.124 123.229,49.075 121.599 C 49.649 121.119,50.405 120.655,50.755 120.567 C 51.105 120.479,51.348 120.274,51.294 120.112 C 51.081 119.475,50.396 119.744,49.060 120.991 C 47.433 122.509,47.191 122.546,45.658 121.508 C 45.027 121.080,44.310 120.730,44.064 120.730 C 43.818 120.730,43.307 120.487,42.930 120.190 C 42.379 119.757,42.243 119.728,42.243 120.045 " stroke="none" fill="#000000" fill-rule="evenodd"></path></g></svg>