<svg id="svg" xmlns="http://www.w3.org/2000/svg" xmlns:xlink="http://www.w3.org/1999/xlink" width="400" height="130.33707865168537" viewBox="0, 0, 400,130.33707865168537"><g id="svgg"><path id="path0" d="M44.188 21.411 C 44.140 21.456,41.573 21.546,38.483 21.612 C 31.405 21.762,25.887 22.044,23.596 22.374 C 20.519 22.817,19.413 24.828,18.084 32.397 C 15.651 46.244,15.315 47.474,14.550 45.319 C 14.061 43.943,13.716 43.820,10.007 43.707 L 6.923 43.613 6.973 48.632 L 7.022 53.652 8.768 53.774 C 12.464 54.034,13.071 54.136,13.544 54.574 L 13.995 54.992 13.654 56.944 C 12.966 60.884,12.605 68.005,12.736 75.094 L 12.789 77.996 12.949 75.000 C 13.203 70.211,14.197 66.594,15.391 66.115 C 15.815 65.945,15.814 65.941,15.309 65.929 C 14.178 65.903,13.800 64.964,13.894 62.419 L 13.951 60.887 16.667 61.588 C 20.684 62.627,20.863 62.781,19.090 63.676 C 18.325 64.062,17.830 64.462,17.570 64.901 C 17.359 65.259,17.021 65.641,16.820 65.749 C 16.466 65.938,16.470 65.959,16.932 66.388 C 17.195 66.632,17.619 67.302,17.873 67.878 C 18.532 69.368,18.672 69.472,19.746 69.272 C 21.339 68.974,22.472 69.570,22.472 70.705 C 22.472 71.589,21.405 71.681,20.412 70.882 C 20.004 70.554,19.279 70.325,19.663 70.646 C 19.817 70.775,20.228 71.217,20.574 71.629 C 20.921 72.041,21.971 73.162,22.908 74.120 L 24.610 75.863 52.801 75.784 C 84.987 75.693,83.778 75.757,85.019 74.072 C 85.577 73.315,86.810 72.472,87.360 72.472 C 88.060 72.472,89.421 71.432,90.583 70.010 C 94.641 65.043,95.880 66.444,95.880 75.998 L 95.880 80.295 89.373 80.398 C 83.822 80.486,82.213 80.590,80.777 80.954 C 80.659 80.984,80.235 81.236,79.835 81.513 C 78.295 82.580,74.642 82.761,54.494 82.764 C 34.318 82.767,30.093 82.551,28.922 81.451 C 28.092 80.671,26.623 80.502,19.692 80.393 C 13.491 80.295,13.262 80.304,13.327 80.640 C 13.364 80.831,13.561 81.019,13.766 81.057 C 15.198 81.323,15.275 83.959,13.893 85.440 L 13.413 85.955 54.466 85.955 L 95.519 85.955 94.870 85.386 C 93.486 84.170,93.630 81.435,95.101 81.014 C 96.539 80.602,96.604 79.232,95.892 64.326 C 95.680 59.897,95.506 55.801,95.506 55.223 L 95.506 54.172 98.642 53.912 L 101.779 53.652 101.829 48.642 L 101.879 43.633 99.769 43.636 C 98.609 43.637,97.533 43.720,97.378 43.818 C 97.190 43.939,97.774 43.996,99.157 43.991 C 100.290 43.988,101.324 43.990,101.455 43.996 C 101.641 44.005,101.681 45.022,101.642 48.736 L 101.592 53.464 98.913 53.429 C 94.051 53.364,93.456 52.515,94.478 47.097 C 94.935 44.674,95.199 44.266,96.439 44.060 C 97.137 43.944,97.145 43.820,96.455 43.820 C 95.194 43.820,94.624 44.292,94.057 45.804 C 93.246 47.970,93.258 47.998,92.404 41.948 C 92.135 40.042,91.873 38.188,91.822 37.828 C 91.632 36.499,90.792 32.702,90.338 31.122 C 89.035 26.581,88.355 24.929,89.214 28.391 C 89.875 31.053,90.341 33.510,90.898 37.266 C 91.215 39.399,92.608 47.330,93.079 49.675 C 93.861 53.575,93.839 53.635,90.824 55.776 C 90.154 56.252,89.579 56.706,89.544 56.785 C 89.510 56.864,89.363 56.929,89.217 56.929 C 89.071 56.929,88.951 57.013,88.951 57.116 C 88.951 57.219,88.876 57.303,88.783 57.303 C 88.690 57.303,88.164 57.610,87.612 57.984 C 86.731 58.583,85.375 59.274,84.160 59.742 C 82.813 60.261,83.810 58.764,85.627 57.539 C 86.637 56.859,86.507 56.883,84.952 57.665 C 81.231 59.534,79.038 59.721,75.789 58.448 L 75.266 58.243 75.882 57.363 C 77.897 54.484,79.603 53.705,84.033 53.640 C 85.500 53.619,86.658 53.669,86.607 53.752 C 86.555 53.834,86.758 53.956,87.058 54.022 C 87.827 54.191,88.275 54.741,88.126 55.334 C 88.014 55.781,88.117 55.740,89.604 54.750 C 90.483 54.165,91.180 53.669,91.154 53.647 C 91.100 53.603,89.350 53.502,81.554 53.088 C 76.522 52.822,62.986 52.681,62.774 52.894 C 62.718 52.950,64.181 52.996,66.027 52.997 C 71.407 52.997,78.090 53.229,78.090 53.414 C 78.090 53.508,77.690 54.134,77.200 54.805 C 75.747 56.800,75.478 57.180,75.071 57.818 L 74.682 58.427 65.825 58.427 L 56.968 58.427 56.747 56.788 C 56.471 54.734,56.402 54.534,56.375 55.712 C 56.338 57.285,56.171 58.122,55.787 58.661 L 55.419 59.176 59.592 59.181 C 73.086 59.196,82.697 60.062,81.594 61.165 C 81.252 61.507,75.465 61.621,53.090 61.727 L 28.184 61.846 25.000 59.909 C 19.532 56.582,17.725 55.163,18.122 54.506 C 18.470 53.930,17.758 54.097,16.236 54.949 C 14.525 55.905,14.561 55.993,15.175 52.399 C 15.384 51.172,15.587 49.856,15.625 49.475 C 15.663 49.094,15.918 47.603,16.192 46.161 C 16.465 44.719,16.854 42.570,17.056 41.386 C 17.258 40.201,17.548 38.642,17.702 37.921 C 17.855 37.200,18.364 34.630,18.832 32.210 C 20.227 24.996,20.127 25.330,20.939 25.194 C 22.949 24.859,33.817 24.689,59.504 24.592 C 75.185 24.532,88.015 24.456,88.015 24.423 C 88.015 24.214,87.555 23.408,87.436 23.408 C 87.356 23.408,87.237 23.239,87.172 23.032 C 86.921 22.241,85.366 21.937,79.963 21.623 C 77.779 21.496,44.310 21.298,44.188 21.411 M237.391 21.464 C 237.374 21.476,235.159 21.539,232.471 21.604 C 221.607 21.865,216.061 22.675,213.745 24.338 C 213.310 24.651,212.874 24.906,212.776 24.906 C 212.679 24.906,212.638 25.114,212.687 25.367 C 212.832 26.128,211.230 28.459,207.415 33.037 C 204.999 35.936,202.078 39.644,199.216 43.446 C 193.397 51.173,190.469 54.069,192.305 50.281 C 193.196 48.442,198.880 40.841,205.217 33.014 C 207.891 29.712,207.752 29.877,209.441 27.997 L 210.955 26.313 209.831 27.274 C 206.621 30.021,201.467 36.320,195.142 45.225 C 193.971 46.873,192.333 49.179,191.501 50.349 L 189.988 52.478 187.456 52.316 C 182.565 52.002,174.659 52.133,168.446 52.631 C 165.785 52.844,164.476 52.945,162.453 53.093 C 161.629 53.154,160.154 53.280,159.176 53.374 C 158.198 53.468,156.723 53.595,155.899 53.656 C 155.075 53.717,154.106 53.802,153.745 53.843 C 153.385 53.885,152.331 53.966,151.404 54.024 C 149.746 54.128,148.573 54.222,146.723 54.399 C 146.208 54.449,143.933 54.664,141.667 54.878 C 133.114 55.684,124.165 56.812,124.406 57.053 C 124.437 57.084,126.143 56.947,128.196 56.748 C 135.291 56.061,142.055 55.446,145.787 55.148 C 147.846 54.984,152.355 54.603,155.805 54.302 C 174.577 52.664,181.848 52.375,190.824 52.911 L 192.603 53.017 193.745 51.462 C 199.409 43.746,208.735 31.760,209.744 30.899 C 210.089 30.605,213.351 26.277,213.603 25.780 C 214.533 23.943,216.984 23.147,223.315 22.627 C 226.688 22.350,253.489 22.325,253.756 22.599 C 253.897 22.744,254.147 37.552,254.193 48.502 L 254.213 53.464 251.685 53.464 L 249.157 53.464 249.064 39.607 L 248.970 25.749 238.483 25.693 C 226.825 25.630,221.471 25.830,218.989 26.420 C 217.151 26.856,215.356 27.509,215.356 27.741 C 215.356 27.830,215.229 27.903,215.075 27.903 C 214.920 27.903,214.794 27.987,214.794 28.090 C 214.794 28.193,214.709 28.277,214.605 28.277 C 214.085 28.277,210.376 31.989,208.801 34.085 C 208.544 34.428,207.823 35.347,207.199 36.128 C 205.596 38.131,204.494 39.654,204.494 39.864 C 204.494 39.963,204.430 40.072,204.352 40.106 C 204.274 40.140,203.740 40.801,203.165 41.573 C 197.023 49.835,195.414 52.042,195.992 51.404 C 197.251 50.019,199.169 47.673,200.663 45.693 C 201.478 44.611,202.232 43.625,202.337 43.502 C 202.442 43.378,203.224 42.325,204.075 41.161 C 207.686 36.224,208.717 34.870,210.384 32.881 C 211.352 31.727,212.634 30.368,213.235 29.861 C 213.835 29.355,214.368 28.895,214.419 28.839 C 216.338 26.744,221.865 26.159,238.833 26.256 L 248.358 26.311 248.343 38.015 C 248.334 44.453,248.288 50.014,248.239 50.375 C 248.191 50.735,248.100 51.421,248.038 51.898 C 247.828 53.496,246.815 53.836,246.161 52.528 C 245.800 51.807,245.784 51.341,245.727 39.905 L 245.668 28.030 233.461 28.162 C 219.145 28.316,217.878 28.432,217.256 29.644 C 216.848 30.438,216.911 30.351,214.101 33.972 C 212.989 35.405,211.551 37.259,210.906 38.092 C 210.261 38.925,209.629 39.733,209.501 39.888 C 208.348 41.286,205.148 45.316,203.627 47.285 C 198.499 53.923,198.533 54.274,204.268 54.013 C 208.687 53.813,208.792 53.814,211.610 54.111 C 213.975 54.360,231.516 54.299,244.710 53.995 L 250.000 53.873 250.000 56.993 L 250.000 60.112 221.282 60.112 L 192.565 60.112 192.391 58.099 L 192.217 56.086 192.062 58.071 L 191.907 60.057 184.015 60.171 C 179.530 60.236,172.486 60.490,167.697 60.758 C 155.761 61.426,145.355 61.962,140.449 62.160 C 136.896 62.303,137.541 62.317,144.569 62.248 C 149.153 62.203,153.619 62.127,154.494 62.079 C 155.370 62.031,157.182 61.945,158.521 61.888 C 159.860 61.831,163.230 61.660,166.011 61.507 C 168.792 61.355,171.784 61.193,172.659 61.148 C 174.256 61.066,179.342 60.933,187.339 60.765 L 191.626 60.675 191.496 61.751 C 191.424 62.343,191.264 63.502,191.140 64.326 L 190.915 65.824 170.130 65.942 C 149.859 66.056,140.594 66.206,137.172 66.473 C 136.245 66.545,156.091 66.620,181.273 66.638 C 233.833 66.677,249.285 66.873,249.812 67.509 C 250.503 68.341,237.503 68.531,179.494 68.539 L 138.296 68.544 136.985 69.595 C 135.615 70.694,132.714 73.112,132.186 73.596 C 130.529 75.114,127.236 77.124,126.921 76.809 C 126.643 76.531,128.200 74.955,132.069 71.597 C 135.611 68.523,136.310 67.797,133.942 69.652 C 127.401 74.776,126.492 75.441,124.992 76.192 C 121.359 78.011,120.045 76.998,119.886 72.259 C 119.727 67.498,120.553 62.746,121.416 63.461 C 121.741 63.731,121.854 64.623,122.013 68.165 C 122.131 70.781,122.338 71.503,122.991 71.567 C 123.169 71.585,123.985 71.615,124.804 71.634 C 126.652 71.677,126.716 71.836,125.236 72.708 C 123.411 73.784,121.206 75.325,121.695 75.184 C 122.915 74.831,131.198 69.778,131.429 69.245 C 131.464 69.166,131.575 69.101,131.677 69.101 C 131.779 69.101,131.988 68.975,132.143 68.820 C 132.298 68.665,132.979 68.143,133.657 67.659 C 134.335 67.175,134.791 66.747,134.670 66.707 C 134.549 66.666,134.154 66.894,133.792 67.212 C 133.052 67.861,133.061 67.858,132.598 67.611 C 132.078 67.332,131.800 65.988,131.868 64.081 L 131.929 62.359 126.966 62.358 C 119.617 62.356,118.086 62.120,118.844 61.104 C 119.635 60.044,125.390 59.102,139.700 57.689 C 154.927 56.186,160.690 55.622,161.891 55.518 C 162.612 55.456,163.455 55.375,163.764 55.340 C 164.073 55.304,164.874 55.226,165.543 55.166 C 166.213 55.107,168.255 54.925,170.082 54.762 C 174.122 54.402,179.743 53.722,177.622 53.850 C 176.069 53.944,175.236 54.006,171.442 54.309 C 170.206 54.407,168.605 54.528,167.884 54.578 C 165.754 54.723,152.044 55.961,145.974 56.555 C 142.884 56.857,138.965 57.235,137.266 57.393 C 132.612 57.828,132.245 57.866,127.903 58.360 C 125.688 58.612,123.441 58.867,122.910 58.928 C 121.749 59.060,120.974 58.895,120.974 58.517 C 120.974 57.653,119.193 58.978,118.611 60.275 C 118.196 61.201,118.168 61.601,118.132 67.135 C 118.099 72.333,117.818 75.871,117.323 77.327 C 116.864 78.677,116.948 79.502,117.603 80.086 C 118.827 81.176,118.214 82.594,115.809 84.238 C 113.204 86.019,112.457 88.221,113.599 90.756 L 113.925 91.479 114.074 89.232 C 114.356 84.964,114.606 84.654,117.914 84.478 C 123.122 84.200,125.871 84.862,127.104 86.692 C 127.627 87.469,127.652 87.262,127.156 86.248 C 126.488 84.880,124.603 83.974,122.063 83.798 C 118.473 83.551,118.374 83.490,118.852 81.821 C 119.308 80.222,119.165 80.275,123.462 80.129 C 128.996 79.941,129.615 79.685,134.612 75.506 C 135.196 75.017,135.843 74.476,136.049 74.304 C 136.255 74.132,136.843 73.649,137.356 73.231 L 138.289 72.472 154.257 72.472 C 169.434 72.472,170.225 72.488,170.225 72.805 C 170.225 72.988,170.340 73.304,170.480 73.507 C 170.769 73.924,172.103 76.910,172.193 77.341 C 172.225 77.495,172.333 77.832,172.433 78.090 C 172.533 78.347,172.636 78.642,172.663 78.745 C 172.690 78.848,172.862 79.371,173.046 79.906 C 173.231 80.441,173.729 82.506,174.154 84.494 C 174.903 88.000,176.495 94.422,177.097 96.371 C 177.599 97.992,176.874 99.061,175.274 99.063 C 174.360 99.064,174.036 98.446,173.591 95.852 C 171.771 85.243,163.296 78.298,152.154 78.282 C 150.241 78.279,146.922 78.671,146.663 78.930 C 146.601 78.992,146.926 78.976,147.385 78.894 C 150.024 78.424,156.083 78.871,159.277 79.772 C 165.049 81.401,171.388 87.747,172.562 93.071 C 173.228 96.091,173.306 96.733,173.305 99.157 C 173.304 100.705,173.198 102.239,173.046 102.903 C 172.904 103.521,172.771 104.153,172.750 104.307 C 172.729 104.462,172.664 104.714,172.606 104.869 C 172.548 105.023,172.315 105.740,172.088 106.461 C 170.589 111.209,166.721 115.583,161.891 117.988 C 159.861 118.999,159.341 119.207,158.427 119.373 C 158.272 119.401,158.020 119.472,157.865 119.531 C 156.609 120.012,150.750 120.294,148.783 119.968 C 146.493 119.588,145.707 119.406,144.499 118.972 C 136.901 116.244,131.743 109.368,131.110 101.124 C 130.386 91.697,136.394 82.387,145.003 79.595 C 145.396 79.468,145.677 79.323,145.627 79.273 C 145.514 79.159,143.307 79.943,142.753 80.294 C 142.527 80.437,142.232 80.573,142.098 80.597 C 141.732 80.659,140.619 81.271,139.964 81.769 C 139.645 82.012,139.328 82.210,139.260 82.210 C 138.919 82.210,135.775 85.200,134.846 86.407 C 132.911 88.922,131.682 91.773,130.766 95.873 C 130.408 97.474,130.079 98.820,130.034 98.866 C 129.963 98.938,124.311 98.392,123.440 98.229 C 123.268 98.197,122.622 98.114,122.004 98.044 C 119.341 97.746,118.704 97.237,119.790 96.276 C 120.461 95.681,120.462 95.679,120.341 94.494 C 120.188 93.002,120.313 92.885,122.259 92.688 C 125.461 92.366,127.562 90.819,127.516 88.818 L 127.504 88.296 127.319 88.764 C 127.115 89.277,126.054 90.449,125.793 90.449 C 125.702 90.449,125.504 90.574,125.353 90.725 C 124.543 91.535,121.226 92.132,117.519 92.133 C 114.369 92.135,114.056 92.373,116.687 92.767 C 119.696 93.216,120.550 94.293,119.274 96.028 C 117.921 97.868,119.169 98.422,126.311 99.154 C 127.959 99.323,129.491 99.498,129.715 99.543 C 130.152 99.632,130.120 99.523,130.818 103.371 C 132.193 110.953,137.046 116.858,144.054 119.473 C 150.434 121.855,160.185 120.788,164.643 117.220 C 165.023 116.916,165.393 116.667,165.465 116.667 C 165.536 116.667,166.146 116.183,166.819 115.592 C 170.010 112.791,172.139 109.217,173.231 104.831 C 173.444 103.976,173.711 102.909,173.824 102.459 C 174.233 100.843,175.441 99.929,177.034 100.031 L 177.996 100.094 177.980 98.876 C 177.969 98.077,177.637 96.373,177.014 93.914 C 175.747 88.913,175.573 88.023,175.817 87.778 C 176.230 87.366,177.050 88.596,177.929 90.945 C 178.800 93.272,178.889 93.846,179.005 97.844 C 179.109 101.386,179.152 101.781,179.448 101.837 C 179.652 101.876,179.775 101.785,179.775 101.594 C 179.775 101.116,181.524 99.375,184.067 97.320 L 186.391 95.441 188.374 95.947 C 189.464 96.225,191.156 96.664,192.135 96.922 C 197.449 98.321,200.822 98.456,233.801 98.596 C 266.350 98.733,267.600 98.780,271.451 100.003 C 273.917 100.786,278.560 101.928,282.116 102.626 C 287.779 103.737,289.098 104.392,289.881 106.486 C 292.031 112.232,295.469 116.258,300.797 119.270 C 302.024 119.963,304.140 120.829,304.275 120.693 C 304.325 120.643,304.466 120.685,304.588 120.786 C 306.072 122.018,318.165 121.980,318.165 120.744 C 318.165 120.652,318.238 120.623,318.328 120.678 C 318.533 120.805,320.707 119.932,321.377 119.455 C 321.651 119.260,321.920 119.101,321.977 119.101 C 322.221 119.101,324.668 117.270,325.699 116.315 C 328.355 113.857,330.689 109.937,331.478 106.614 C 331.879 104.924,331.983 104.707,332.764 103.933 C 335.370 101.350,344.293 98.226,345.955 99.315 C 346.769 99.848,350.909 99.757,353.184 99.155 C 353.338 99.114,354.051 99.026,354.767 98.960 C 355.484 98.894,356.242 98.805,356.453 98.762 C 356.873 98.676,363.207 97.753,363.377 97.753 C 363.575 97.753,363.484 97.051,363.196 96.362 C 362.061 93.645,362.079 93.118,363.313 92.947 C 363.561 92.913,364.143 92.803,364.607 92.702 C 365.070 92.602,366.924 92.344,368.727 92.130 C 372.205 91.717,372.848 91.604,372.844 91.412 C 372.843 91.346,372.668 90.744,372.456 90.075 C 371.449 86.903,371.438 85.871,372.398 84.794 C 373.256 83.832,374.431 79.704,374.786 76.404 C 374.836 75.941,374.973 74.732,375.091 73.717 C 375.596 69.373,375.367 65.169,374.625 65.169 C 373.849 65.169,373.495 63.360,374.157 62.781 C 374.363 62.601,374.692 62.314,374.889 62.143 C 375.258 61.822,375.635 59.318,375.404 58.717 C 375.308 58.468,369.069 58.436,321.122 58.435 C 272.949 58.434,266.925 58.403,266.740 58.150 C 266.626 57.994,265.109 56.175,263.369 54.108 C 259.586 49.612,259.994 50.682,259.947 45.131 C 259.781 25.262,259.494 21.910,257.959 21.910 C 256.463 21.910,256.390 22.660,255.725 45.002 C 255.477 53.356,255.252 56.274,255.235 51.389 C 255.230 50.059,255.191 47.158,255.148 44.944 C 255.105 42.729,255.023 38.179,254.964 34.831 C 254.768 23.614,254.590 22.457,253.010 22.118 C 251.220 21.734,237.804 21.172,237.391 21.464 M80.150 22.375 C 84.968 22.548,86.824 22.801,86.398 23.227 C 85.544 24.081,24.746 24.162,22.612 23.311 C 21.194 22.746,23.390 22.530,32.959 22.294 C 39.149 22.141,75.361 22.203,80.150 22.375 M258.352 22.241 C 259.178 22.792,259.318 24.823,259.322 36.330 C 259.326 48.365,259.159 50.551,258.206 50.853 C 257.623 51.039,257.152 50.430,256.889 49.154 C 256.635 47.917,256.541 27.747,256.777 24.996 C 256.981 22.614,257.514 21.681,258.352 22.241 M24.098 25.777 C 24.028 25.848,23.970 25.975,23.970 26.061 C 23.970 26.147,31.365 26.224,40.403 26.231 C 62.201 26.250,81.351 26.499,83.096 26.787 C 84.656 27.044,85.393 27.564,85.394 28.409 C 85.395 28.697,85.476 29.228,85.575 29.588 C 86.391 32.572,88.923 48.192,88.690 48.800 C 88.575 49.099,82.316 49.104,80.337 48.807 C 80.080 48.768,79.110 48.677,78.184 48.603 C 75.763 48.411,72.579 47.831,72.055 47.488 C 70.492 46.464,51.356 46.562,52.382 47.588 C 52.617 47.823,56.067 48.265,58.857 48.417 C 60.174 48.489,61.217 48.583,61.173 48.627 C 61.070 48.730,52.247 48.711,51.030 48.604 C 50.515 48.559,49.125 48.473,47.940 48.411 C 44.610 48.239,42.477 47.943,41.854 47.568 C 40.387 46.684,29.256 46.412,23.736 47.124 C 20.672 47.520,25.671 48.214,33.119 48.428 C 42.488 48.696,40.078 48.915,27.434 48.942 C 20.527 48.958,19.850 48.860,19.850 47.847 C 19.850 46.708,22.858 30.892,23.870 26.705 C 23.922 26.488,23.785 26.690,23.565 27.154 C 23.344 27.617,23.156 28.220,23.146 28.493 C 23.136 28.766,23.079 28.960,23.020 28.923 C 22.766 28.768,20.656 38.489,20.334 41.292 C 20.287 41.704,20.121 42.884,19.965 43.914 C 19.151 49.298,18.920 48.921,23.226 49.232 C 32.179 49.879,84.297 49.919,88.390 49.282 L 89.232 49.151 89.194 47.785 C 89.150 46.227,88.573 42.062,87.905 38.483 C 87.189 34.647,86.473 31.059,86.243 30.150 C 86.230 30.098,86.152 29.719,86.071 29.307 C 85.989 28.895,85.672 27.908,85.365 27.113 L 84.809 25.668 54.517 25.659 C 37.857 25.654,24.168 25.707,24.098 25.777 M244.944 41.196 L 244.944 53.560 230.384 53.512 L 215.824 53.464 215.774 48.174 L 215.725 42.884 212.922 42.884 C 210.167 42.884,210.118 42.891,210.030 43.305 C 209.946 43.700,209.512 46.614,209.257 48.502 C 209.194 48.965,209.003 50.272,208.832 51.404 L 208.521 53.464 205.993 53.516 C 200.904 53.619,200.122 53.317,201.036 51.598 C 201.611 50.517,206.217 44.469,207.764 42.763 C 207.871 42.644,208.801 41.473,209.831 40.160 C 210.861 38.847,212.615 36.626,213.729 35.225 C 214.843 33.824,216.216 31.988,216.782 31.144 C 218.337 28.823,217.685 28.912,233.474 28.865 L 244.944 28.831 244.944 41.196 M215.050 43.619 C 215.402 43.970,215.449 44.277,215.513 46.620 C 215.678 52.614,214.647 53.947,210.813 52.694 C 209.507 52.268,209.312 51.595,209.734 48.970 C 209.833 48.352,210.003 47.046,210.112 46.067 C 210.220 45.089,210.352 44.150,210.404 43.981 C 210.685 43.072,214.227 42.796,215.050 43.619 M13.584 44.616 C 14.053 45.161,14.329 46.263,14.581 48.596 C 15.040 52.843,14.629 53.277,9.943 53.488 L 7.116 53.616 7.116 48.818 L 7.116 44.021 8.942 43.967 C 11.993 43.878,13.080 44.030,13.584 44.616 M260.307 51.934 C 261.415 52.466,266.100 57.600,266.104 58.287 C 266.104 58.364,263.956 58.427,261.330 58.427 L 256.554 58.427 256.559 55.946 C 256.567 51.544,257.474 50.573,260.307 51.934 M257.928 53.323 C 257.519 54.300,257.666 56.694,258.156 57.053 C 258.680 57.436,262.388 57.409,262.240 57.022 C 262.181 56.868,262.057 56.742,261.965 56.742 C 261.873 56.742,261.798 56.635,261.798 56.506 C 261.798 56.376,261.587 56.042,261.330 55.765 C 261.072 55.487,260.861 55.215,260.861 55.160 C 260.861 54.858,258.707 52.622,258.416 52.622 C 258.309 52.622,258.089 52.937,257.928 53.323 M34.413 53.132 C 34.750 53.174,35.256 53.173,35.537 53.130 C 35.818 53.087,35.543 53.053,34.925 53.054 C 34.307 53.055,34.077 53.090,34.413 53.132 M27.247 53.308 C 24.248 53.450,19.687 53.784,19.106 53.905 L 18.455 54.040 19.106 54.303 C 19.907 54.627,20.909 55.259,22.378 56.367 C 27.897 60.529,28.363 60.722,31.146 59.988 C 32.091 59.738,33.097 59.578,33.380 59.631 C 34.536 59.850,33.408 58.451,30.579 56.157 L 29.120 54.975 30.852 56.866 C 32.867 59.066,32.853 59.024,31.695 59.343 C 28.925 60.107,26.859 59.441,23.675 56.759 C 23.358 56.492,22.770 56.021,22.369 55.712 C 21.968 55.403,21.384 54.921,21.073 54.640 L 20.506 54.131 20.981 54.125 C 21.242 54.122,23.264 53.948,25.475 53.739 C 27.686 53.529,29.674 53.402,29.894 53.456 C 30.489 53.602,32.952 56.079,34.911 58.499 L 35.458 59.176 44.444 59.176 C 53.198 59.176,53.421 59.167,53.113 58.827 C 52.909 58.602,52.711 57.820,52.555 56.627 L 52.312 54.775 52.166 56.388 C 52.086 57.276,51.958 58.102,51.881 58.226 C 51.776 58.395,49.860 58.436,43.989 58.392 C 34.905 58.323,35.108 58.362,33.693 56.433 C 33.251 55.830,32.820 55.309,32.736 55.275 C 32.653 55.240,32.584 55.093,32.584 54.947 C 32.584 54.801,32.514 54.682,32.427 54.682 C 32.341 54.682,32.109 54.346,31.912 53.935 L 31.554 53.188 29.963 53.221 C 29.087 53.239,27.865 53.278,27.247 53.308 M259.230 53.514 C 259.688 54.021,260.719 56.330,260.584 56.548 C 260.432 56.794,259.446 56.799,258.991 56.556 C 258.504 56.295,258.174 55.167,258.319 54.259 C 258.507 53.084,258.699 52.927,259.230 53.514 M253.745 54.494 C 253.951 54.700,254.126 55.059,254.134 55.290 C 254.142 55.522,254.191 56.091,254.243 56.554 C 254.500 58.860,254.009 59.937,252.642 60.068 C 251.342 60.193,250.759 59.626,250.726 58.201 C 250.666 55.659,250.839 54.628,251.386 54.263 C 251.837 53.962,253.362 54.112,253.745 54.494 M255.708 64.524 C 256.275 83.740,256.999 94.407,257.361 88.858 C 257.653 84.377,259.613 83.573,260.301 87.652 C 260.642 89.673,260.420 89.607,266.888 89.607 C 273.203 89.607,272.840 89.728,273.312 87.453 C 274.218 83.080,276.953 84.307,276.962 89.092 L 276.966 91.199 272.425 91.204 C 258.266 91.222,257.743 91.231,258.708 91.438 C 259.731 91.658,273.466 91.691,275.784 91.479 C 277.353 91.336,277.255 91.512,277.447 88.483 C 277.512 87.453,277.622 86.273,277.692 85.861 L 277.819 85.112 283.245 85.019 L 288.670 84.925 290.023 82.691 C 295.207 74.128,294.886 74.253,311.704 74.254 C 324.530 74.255,325.190 74.417,327.556 78.144 C 327.897 78.681,328.283 79.231,328.414 79.367 C 328.545 79.503,328.652 79.735,328.652 79.882 C 328.652 80.029,328.734 80.150,328.835 80.150 C 328.936 80.150,329.072 80.360,329.137 80.618 C 329.201 80.875,329.319 81.086,329.398 81.086 C 329.478 81.086,329.656 81.359,329.794 81.693 C 329.932 82.027,330.413 82.912,330.862 83.660 L 331.679 85.019 350.943 85.019 L 370.207 85.019 369.932 84.504 C 369.781 84.221,369.485 83.506,369.274 82.916 C 368.672 81.234,369.190 81.278,349.192 81.225 C 341.280 81.204,334.741 81.143,334.660 81.090 C 334.579 81.036,334.269 80.622,333.970 80.169 C 333.671 79.715,333.343 79.220,333.240 79.067 C 332.933 78.612,330.905 75.473,329.413 73.144 L 328.022 70.972 310.885 71.020 L 293.748 71.067 291.631 74.532 C 290.468 76.437,289.047 78.714,288.476 79.591 L 287.436 81.187 286.181 81.160 C 285.490 81.145,278.910 81.073,271.558 81.001 C 264.205 80.928,258.012 80.796,257.793 80.708 C 257.528 80.601,257.985 80.540,259.176 80.523 C 260.154 80.509,266.573 80.396,273.438 80.271 L 285.922 80.045 286.307 79.582 C 286.519 79.328,286.654 79.010,286.607 78.876 C 286.560 78.742,286.589 78.674,286.673 78.726 C 286.756 78.777,287.113 78.342,287.466 77.758 C 287.820 77.175,288.633 75.894,289.275 74.912 C 289.916 73.931,290.885 72.438,291.428 71.595 L 292.416 70.062 311.049 70.053 L 329.682 70.044 330.290 70.975 C 330.625 71.487,330.899 71.955,330.899 72.015 C 330.899 72.075,331.015 72.240,331.156 72.382 C 331.298 72.523,332.487 74.329,333.800 76.394 L 336.186 80.150 341.922 80.044 C 345.078 79.985,352.445 79.870,358.294 79.787 C 364.143 79.704,368.967 79.598,369.014 79.551 C 369.061 79.504,369.144 78.334,369.198 76.952 C 369.517 68.849,370.109 65.696,371.076 66.948 C 372.720 69.077,372.686 83.161,371.032 84.945 L 370.611 85.400 371.280 87.927 C 371.974 90.548,371.987 91.011,371.367 91.011 C 371.164 91.011,369.834 91.221,368.411 91.478 C 360.904 92.833,361.097 92.695,362.370 95.806 C 362.845 96.965,362.134 97.323,358.333 97.840 C 357.200 97.995,355.978 98.169,355.618 98.228 C 355.257 98.287,353.488 98.580,351.685 98.879 C 346.440 99.749,346.038 99.683,348.394 98.335 C 351.433 96.596,351.420 96.200,348.220 93.258 C 347.189 92.310,347.160 92.295,347.854 93.071 C 348.815 94.145,350.098 95.877,350.247 96.300 C 350.485 96.978,347.599 98.000,341.479 99.407 C 335.660 100.744,333.586 100.966,332.895 100.325 C 332.052 99.544,332.196 99.421,334.270 99.154 C 337.176 98.781,344.096 97.459,347.118 96.701 C 348.459 96.364,346.999 93.935,344.771 92.794 C 344.248 92.527,344.360 92.686,345.380 93.662 C 347.846 96.021,347.013 96.658,340.262 97.572 C 338.769 97.775,336.873 98.067,336.049 98.222 C 332.744 98.843,332.726 98.831,331.735 95.211 C 327.925 81.303,312.465 74.833,299.625 81.772 C 296.696 83.356,292.061 87.814,292.407 88.716 C 292.461 88.856,292.425 88.921,292.327 88.860 C 292.154 88.754,291.337 90.139,290.893 91.292 C 290.774 91.601,290.569 92.107,290.438 92.416 C 290.307 92.725,290.189 93.020,290.176 93.071 C 290.163 93.123,290.052 93.460,289.929 93.820 C 289.806 94.181,289.493 95.524,289.233 96.806 C 288.973 98.087,288.629 99.335,288.470 99.578 C 287.929 100.404,288.366 100.446,281.554 98.914 C 279.700 98.497,277.889 98.104,277.528 98.041 C 277.168 97.977,276.788 97.901,276.685 97.871 C 276.582 97.841,276.155 97.718,275.735 97.599 C 274.504 97.248,274.309 96.643,275.104 95.646 L 275.739 94.850 274.808 95.625 C 272.779 97.314,272.909 97.596,276.030 98.290 C 288.647 101.093,289.757 101.468,288.670 102.555 C 288.112 103.113,273.603 100.571,270.740 99.414 C 269.873 99.063,270.007 98.717,271.932 96.337 C 273.322 94.619,273.709 93.802,272.548 95.037 C 272.064 95.552,271.331 96.429,270.920 96.985 L 270.172 97.996 239.159 97.877 C 222.102 97.811,207.640 97.719,207.022 97.671 C 206.404 97.624,204.129 97.536,201.966 97.476 C 196.564 97.325,192.697 96.779,192.697 96.167 C 192.697 95.517,197.622 95.390,224.813 95.343 C 244.855 95.309,254.655 95.220,254.804 95.071 C 254.903 94.972,255.028 82.553,255.072 68.539 C 255.107 57.434,255.166 54.541,255.352 54.728 C 255.390 54.766,255.550 59.174,255.708 64.524 M94.192 55.429 C 95.254 55.998,95.282 60.352,94.230 61.299 C 93.751 61.731,88.945 62.731,87.360 62.730 C 85.246 62.728,84.625 61.828,85.777 60.437 C 86.471 59.600,89.506 57.121,89.841 57.118 C 89.970 57.117,90.075 57.038,90.075 56.941 C 90.075 56.845,90.245 56.713,90.452 56.647 C 90.660 56.581,90.773 56.436,90.704 56.325 C 90.635 56.213,90.655 56.167,90.748 56.222 C 90.841 56.277,91.381 56.088,91.948 55.802 C 93.065 55.238,93.652 55.140,94.192 55.429 M209.215 55.644 C 208.146 55.776,207.116 56.134,207.116 56.374 C 207.116 56.852,210.953 57.100,212.464 56.719 C 214.599 56.182,211.953 55.306,209.215 55.644 M18.614 56.561 C 27.079 60.983,26.013 64.270,17.135 61.120 C 13.859 59.957,13.238 58.610,15.070 56.643 C 16.064 55.575,16.698 55.561,18.614 56.561 M267.896 59.379 C 268.507 59.491,269.183 59.745,269.397 59.944 C 269.784 60.303,269.789 60.302,270.002 59.835 C 270.290 59.202,270.486 59.239,271.097 60.041 L 271.614 60.719 271.772 60.245 C 272.068 59.358,273.004 59.270,282.116 59.270 C 290.779 59.270,291.700 59.346,292.176 60.108 C 292.384 60.442,292.416 60.431,292.731 59.913 C 293.154 59.218,293.321 59.223,293.836 59.948 C 294.249 60.527,294.255 60.529,294.551 60.150 C 295.187 59.336,295.993 59.272,305.618 59.271 C 315.482 59.270,316.665 59.345,317.336 60.015 L 317.767 60.447 317.956 59.905 C 318.199 59.210,318.597 59.217,319.101 59.925 C 319.562 60.572,319.769 60.629,319.897 60.142 C 320.210 58.944,338.398 58.731,340.047 59.905 L 340.583 60.287 340.793 59.825 C 341.074 59.207,341.258 59.241,341.910 60.033 L 342.462 60.702 342.579 60.233 C 342.795 59.374,343.920 59.270,352.996 59.270 C 361.561 59.270,362.487 59.348,362.962 60.108 C 363.171 60.442,363.203 60.431,363.518 59.913 C 363.938 59.222,364.118 59.224,364.636 59.925 C 365.089 60.537,365.356 60.643,365.356 60.210 C 365.356 59.438,366.193 59.270,370.037 59.270 C 373.978 59.270,374.719 59.432,374.719 60.297 C 374.719 61.679,369.685 61.790,306.912 61.794 L 257.738 61.798 257.500 63.128 C 257.139 65.151,256.808 64.548,256.642 61.564 L 256.509 59.176 261.647 59.176 C 264.530 59.176,267.273 59.265,267.896 59.379 M250.000 63.281 L 250.000 65.918 220.896 65.918 L 191.791 65.918 191.729 64.601 C 191.582 61.502,192.254 61.151,198.750 60.932 C 200.725 60.866,202.361 60.796,202.385 60.776 C 202.410 60.757,213.133 60.719,226.215 60.693 L 250.000 60.644 250.000 63.281 M237.099 61.965 C 235.385 62.269,235.201 64.328,236.847 64.785 C 238.345 65.201,243.164 64.964,243.679 64.449 C 244.244 63.883,244.016 62.511,243.302 62.179 C 242.700 61.900,238.322 61.749,237.099 61.965 M36.721 62.875 C 36.798 65.261,36.823 74.528,36.753 74.860 L 36.664 75.281 31.159 75.281 L 25.655 75.281 25.655 68.945 C 25.655 65.460,25.712 62.553,25.780 62.484 C 25.849 62.416,28.335 62.360,31.305 62.360 L 36.704 62.360 36.721 62.875 M82.353 68.870 L 82.402 75.286 76.828 75.237 L 71.255 75.187 71.205 69.009 C 71.178 65.611,71.197 62.723,71.247 62.592 C 71.319 62.405,72.519 62.365,76.821 62.404 L 82.303 62.453 82.353 68.870 M84.630 64.128 C 85.308 68.326,84.543 75.792,83.537 74.806 C 82.789 74.073,82.802 64.269,83.553 62.789 C 83.942 62.022,84.378 62.563,84.630 64.128 M242.680 62.893 C 243.481 63.281,243.480 63.480,242.679 63.951 C 241.329 64.744,236.330 64.315,236.330 63.406 C 236.330 62.467,241.017 62.089,242.680 62.893 M366.746 62.747 C 372.039 62.978,373.377 63.234,373.097 63.963 C 372.915 64.438,371.793 64.621,367.322 64.909 C 365.010 65.057,271.419 65.120,266.948 64.976 C 260.204 64.759,258.593 64.559,258.344 63.910 C 257.932 62.838,261.698 62.618,281.262 62.571 C 288.826 62.553,295.062 62.486,295.120 62.424 C 295.289 62.240,362.031 62.541,366.746 62.747 M24.676 63.579 C 25.438 66.576,25.051 74.906,24.150 74.906 C 23.081 74.906,22.717 64.364,23.727 62.677 C 23.978 62.258,24.455 62.713,24.676 63.579 M94.463 62.832 C 95.100 63.315,95.149 65.687,94.537 66.425 C 94.155 66.884,93.171 66.694,91.993 65.932 C 91.368 65.528,90.807 65.234,90.747 65.277 C 90.686 65.320,90.677 65.301,90.727 65.234 C 90.777 65.168,90.522 64.786,90.161 64.387 C 89.036 63.141,89.776 62.590,92.603 62.570 C 93.641 62.562,94.212 62.643,94.463 62.832 M63.717 62.854 C 65.296 63.115,64.167 63.244,59.410 63.344 C 50.863 63.525,41.875 63.241,44.335 62.868 C 45.176 62.741,62.953 62.728,63.717 62.854 M130.822 63.915 C 132.399 65.749,130.922 66.845,126.873 66.845 C 123.248 66.845,122.659 66.583,122.659 64.968 C 122.659 63.478,123.176 63.299,127.311 63.351 L 130.370 63.390 130.822 63.915 M30.150 63.652 C 24.999 64.750,24.663 72.051,29.696 73.514 C 32.977 74.468,36.088 72.107,36.126 68.633 C 36.160 65.539,33.133 63.016,30.150 63.652 M75.220 63.749 C 71.294 64.814,70.107 69.775,73.140 72.444 C 77.733 76.487,84.184 70.383,80.468 65.511 C 79.332 64.021,77.046 63.254,75.220 63.749 M22.051 64.729 C 22.401 65.112,22.471 65.399,22.466 66.443 C 22.457 68.226,22.197 68.446,20.184 68.371 C 18.486 68.308,17.378 65.346,18.738 64.506 C 19.635 63.952,21.451 64.074,22.051 64.729 M60.955 64.237 C 69.518 64.465,71.648 64.749,69.984 65.445 C 67.756 66.376,40.302 66.378,38.075 65.447 C 36.452 64.769,38.733 64.426,46.067 64.245 C 54.089 64.047,53.822 64.047,60.955 64.237 M33.233 64.939 C 35.501 66.184,36.089 69.402,34.420 71.427 C 32.437 73.833,28.626 73.341,27.236 70.500 C 25.399 66.745,29.536 62.908,33.233 64.939 M78.234 64.709 C 81.154 65.930,81.681 69.848,79.209 71.964 C 76.450 74.326,72.221 72.310,72.221 68.633 C 72.221 65.559,75.362 63.509,78.234 64.709 M89.658 65.354 C 91.405 65.962,92.072 67.652,90.824 68.309 C 89.957 68.765,86.371 68.538,85.936 68.000 C 84.426 66.136,86.884 64.389,89.658 65.354 M312.828 66.018 C 337.547 66.095,360.890 66.214,364.700 66.283 L 371.629 66.409 363.951 66.442 C 359.728 66.461,334.110 66.570,307.022 66.684 C 279.934 66.799,257.761 66.905,257.747 66.920 C 257.717 66.954,257.541 71.189,257.376 75.843 C 257.308 77.748,257.222 79.342,257.185 79.385 C 256.899 79.711,256.823 78.490,256.647 70.754 L 256.537 65.946 256.967 65.885 C 257.204 65.851,259.757 65.836,262.640 65.851 C 265.524 65.865,288.109 65.940,312.828 66.018 M68.539 66.776 C 69.781 66.959,70.412 67.240,70.412 67.611 C 70.412 68.324,69.774 68.426,65.543 68.392 C 61.860 68.361,57.865 68.589,57.437 68.853 C 56.908 69.180,58.347 69.283,63.502 69.286 C 69.203 69.288,70.412 69.403,70.412 69.939 C 70.412 71.372,57.727 71.375,55.205 69.943 C 54.444 69.511,54.059 69.518,53.596 69.975 C 52.241 71.315,37.060 71.332,37.498 69.993 C 37.685 69.418,38.849 69.310,44.944 69.296 C 50.459 69.284,51.898 69.183,51.354 68.847 C 50.890 68.560,47.258 68.366,43.063 68.404 C 38.290 68.447,37.259 68.288,37.503 67.544 C 37.895 66.348,49.660 66.385,51.563 67.589 C 53.620 68.889,55.195 68.997,56.753 67.945 C 58.520 66.750,64.396 66.168,68.539 66.776 M253.917 67.067 C 254.338 67.460,254.376 67.585,254.164 67.903 C 253.593 68.758,251.141 68.728,250.808 67.861 C 250.397 66.790,252.926 66.144,253.917 67.067 M131.461 67.671 C 131.461 67.811,130.874 68.362,130.158 68.895 C 126.475 71.633,122.659 71.753,122.659 69.130 C 122.659 67.667,123.273 67.487,128.418 67.442 C 130.874 67.421,131.461 67.465,131.461 67.671 M368.914 73.408 L 368.914 79.401 367.463 79.414 C 366.664 79.421,359.319 79.428,351.141 79.431 L 336.270 79.435 333.594 75.251 C 332.122 72.950,330.829 70.966,330.721 70.841 C 330.613 70.717,330.524 70.554,330.524 70.479 C 330.524 70.404,330.341 70.147,330.117 69.909 L 329.710 69.476 311.020 69.476 L 292.331 69.476 289.837 73.268 C 288.466 75.353,287.020 77.587,286.623 78.230 L 285.902 79.401 284.477 79.411 C 283.694 79.417,277.491 79.424,270.693 79.427 L 258.333 79.433 258.284 73.660 C 258.256 70.485,258.275 67.781,258.325 67.652 C 258.397 67.463,269.410 67.416,313.665 67.416 L 368.914 67.416 368.914 73.408 M374.548 69.288 C 374.788 70.826,374.670 74.900,374.325 76.966 C 374.214 77.636,374.101 78.310,374.075 78.464 C 373.956 79.180,373.432 78.848,373.281 77.961 C 372.969 76.131,373.104 68.899,373.466 68.083 C 373.917 67.066,374.260 67.448,374.548 69.288 M89.322 69.517 C 90.524 70.267,88.862 71.852,87.054 71.678 C 85.974 71.574,85.581 71.288,85.581 70.605 C 85.581 69.373,87.975 68.676,89.322 69.517 M190.277 73.783 C 190.344 76.596,190.479 78.715,190.627 79.261 C 191.115 81.058,190.947 81.096,181.888 81.216 L 174.356 81.317 174.174 80.874 C 174.074 80.630,173.597 79.419,173.114 78.184 C 172.631 76.948,172.003 75.431,171.718 74.813 C 171.433 74.195,171.027 73.289,170.816 72.800 L 170.433 71.910 154.364 71.912 L 138.296 71.913 137.172 72.849 C 136.554 73.363,135.721 74.058,135.320 74.392 C 132.165 77.025,129.115 78.491,124.683 79.505 C 120.883 80.374,117.489 79.975,117.639 78.677 C 117.727 77.922,118.678 77.716,123.004 77.517 C 125.098 77.421,126.875 77.303,126.952 77.256 C 127.029 77.209,127.379 77.120,127.731 77.058 C 128.428 76.936,130.305 75.789,131.187 74.945 C 131.492 74.654,132.076 74.168,132.484 73.865 C 132.893 73.562,133.365 73.188,133.533 73.034 C 133.702 72.879,134.094 72.542,134.406 72.285 C 134.717 72.027,135.380 71.479,135.878 71.067 C 136.376 70.655,137.081 70.047,137.446 69.714 L 138.109 69.110 164.139 69.153 L 190.169 69.195 190.277 73.783 M246.946 69.456 C 249.593 69.752,250.000 69.980,250.000 71.167 C 250.000 72.121,249.153 80.026,248.960 80.873 L 248.859 81.316 223.165 81.216 C 193.630 81.101,193.475 81.093,191.666 79.529 L 190.934 78.896 190.832 77.102 C 190.776 76.115,190.753 73.902,190.782 72.183 L 190.833 69.059 218.029 69.161 C 234.652 69.224,245.894 69.339,246.946 69.456 M253.472 69.528 C 254.181 70.138,254.289 71.020,254.245 75.843 C 254.199 80.891,254.077 81.231,252.355 81.113 C 251.810 81.075,251.811 81.078,252.670 81.834 C 253.429 82.502,253.754 83.063,254.082 84.270 C 254.124 84.424,254.201 85.888,254.253 87.522 L 254.347 90.494 251.799 90.420 C 248.121 90.312,247.870 89.884,248.956 85.581 C 249.796 82.253,250.143 81.594,251.190 81.338 L 251.779 81.194 251.032 81.093 C 249.752 80.921,249.578 79.422,250.291 74.740 C 250.329 74.493,250.413 73.566,250.478 72.680 C 250.722 69.388,251.885 68.163,253.472 69.528 M327.183 71.720 C 328.015 71.723,328.076 71.760,328.540 72.552 C 328.808 73.008,329.132 73.497,329.260 73.637 C 329.574 73.979,329.924 74.536,330.141 75.036 C 330.345 75.506,332.008 78.068,332.332 78.413 C 332.451 78.539,332.995 79.354,333.540 80.223 L 334.532 81.803 350.459 81.884 C 359.219 81.928,366.596 82.020,366.854 82.087 C 367.111 82.153,367.603 82.261,367.945 82.326 C 368.648 82.459,369.138 83.184,368.772 83.550 C 367.987 84.335,357.732 84.710,340.010 84.601 L 331.799 84.551 331.331 83.708 C 329.980 81.276,328.944 79.484,328.840 79.401 C 328.775 79.349,328.393 78.759,327.991 78.090 C 326.244 75.183,324.870 74.338,321.161 73.887 C 317.056 73.389,300.995 73.645,298.033 74.257 C 296.531 74.567,294.569 75.383,294.569 75.697 C 294.569 75.789,294.492 75.817,294.398 75.759 C 294.003 75.515,291.684 78.768,289.865 82.116 C 289.697 82.425,289.311 83.099,289.008 83.614 L 288.455 84.551 274.657 84.506 C 258.326 84.452,256.554 84.318,256.554 83.132 C 256.554 82.037,259.450 81.835,275.181 81.835 L 287.760 81.835 288.233 80.946 C 288.493 80.456,289.815 78.247,291.170 76.037 C 292.524 73.826,293.633 71.957,293.633 71.883 C 293.633 71.612,291.946 71.620,327.183 71.720 M68.788 72.065 C 70.124 72.247,70.634 72.512,70.297 72.849 C 69.478 73.668,41.246 73.857,38.296 73.064 C 37.505 72.851,37.462 72.354,38.221 72.187 C 40.196 71.753,65.759 71.651,68.788 72.065 M63.951 74.701 C 65.278 74.963,64.264 75.061,59.274 75.157 C 50.719 75.320,41.924 75.031,44.335 74.666 C 45.296 74.520,63.198 74.553,63.951 74.701 M41.199 78.780 C 39.250 78.970,38.597 79.425,38.795 80.453 C 39.112 82.101,47.670 82.039,47.906 80.387 C 48.041 79.439,44.106 78.496,41.199 78.780 M51.681 78.850 C 50.067 79.034,49.417 79.572,49.706 80.484 C 50.249 82.193,58.052 81.979,58.052 80.255 C 58.052 79.318,54.486 78.532,51.681 78.850 M61.885 78.837 C 59.578 79.176,58.939 80.375,60.625 81.198 C 62.819 82.269,69.496 81.397,69.000 80.105 C 68.673 79.251,64.331 78.477,61.885 78.837 M46.910 79.615 C 48.594 80.190,47.387 81.009,44.663 81.138 C 39.991 81.360,37.123 80.064,40.800 79.392 C 42.036 79.166,46.023 79.312,46.910 79.615 M57.163 79.647 C 58.394 80.166,57.961 80.801,56.245 80.995 C 52.661 81.400,49.611 80.894,50.172 79.988 C 50.637 79.235,55.609 78.993,57.163 79.647 M67.051 79.403 C 70.350 80.028,68.788 81.149,64.647 81.127 C 61.045 81.109,59.426 80.608,60.563 79.863 C 61.460 79.276,65.041 79.021,67.051 79.403 M314.685 79.962 C 320.574 80.974,325.373 83.981,328.403 88.558 C 329.781 90.641,329.963 90.941,329.963 91.138 C 329.963 91.248,330.137 91.733,330.351 92.215 C 333.851 100.130,331.099 110.684,324.037 116.423 C 321.952 118.117,321.905 118.149,320.318 118.906 C 312.137 122.810,301.472 121.172,295.474 115.089 C 286.121 105.606,288.144 88.937,299.438 82.407 C 304.451 79.509,308.383 78.879,314.685 79.962 M27.015 81.090 C 27.505 81.208,28.307 81.581,28.798 81.918 C 29.784 82.597,30.043 82.697,31.273 82.875 C 31.737 82.942,32.327 83.038,32.584 83.089 C 33.644 83.299,69.603 83.363,73.470 83.162 C 77.978 82.927,78.776 82.785,79.950 82.008 C 82.320 80.438,88.505 80.265,91.788 81.678 C 93.034 82.214,93.258 82.587,93.258 84.124 L 93.258 85.393 54.401 85.393 L 15.543 85.393 15.543 84.164 C 15.543 82.066,16.614 81.334,20.412 80.835 C 21.529 80.688,26.076 80.864,27.015 81.090 M192.228 85.674 C 193.435 88.444,193.575 89.928,192.661 90.247 C 192.127 90.433,186.704 90.548,186.704 90.373 C 186.704 90.331,187.083 89.392,187.547 88.286 C 188.010 87.179,188.390 86.235,188.390 86.188 C 188.390 86.140,188.022 86.600,187.573 87.210 C 186.137 89.161,184.306 90.351,182.386 90.581 L 181.367 90.703 182.732 90.934 C 185.814 91.456,185.838 92.625,182.771 92.835 C 179.484 93.060,179.371 92.942,176.470 86.238 C 174.893 82.593,174.879 82.515,175.702 82.204 C 176.447 81.922,185.975 81.734,187.921 81.962 L 189.232 82.116 189.250 82.865 C 189.260 83.277,189.194 83.816,189.104 84.062 C 188.701 85.165,189.134 84.505,189.612 83.288 C 190.427 81.212,190.415 81.212,191.246 83.279 C 191.651 84.287,192.093 85.365,192.228 85.674 M246.536 82.095 C 249.390 82.580,249.224 81.816,247.882 88.296 L 247.456 90.356 220.919 90.403 C 206.324 90.429,194.382 90.422,194.382 90.387 C 194.382 90.352,193.792 88.586,193.071 86.463 C 192.350 84.340,191.760 82.474,191.760 82.317 C 191.760 81.905,244.167 81.692,246.536 82.095 M271.750 85.421 C 272.552 85.664,272.846 86.184,272.846 87.360 C 272.846 89.385,272.495 89.511,266.854 89.511 C 261.261 89.511,260.933 89.409,260.861 87.637 C 260.773 85.474,260.964 85.336,264.223 85.206 C 267.483 85.076,270.936 85.175,271.750 85.421 M95.892 88.708 C 95.867 93.994,98.310 93.699,54.588 93.702 C 14.906 93.705,14.009 93.654,13.150 91.368 C 12.911 90.732,12.949 99.603,13.213 105.899 C 13.329 108.674,13.669 118.819,13.670 119.522 L 13.670 120.037 18.984 120.037 L 24.297 120.037 24.413 116.713 C 24.477 114.885,24.574 109.977,24.628 105.805 C 24.682 101.634,24.775 97.357,24.834 96.301 L 24.942 94.382 53.670 94.382 L 82.397 94.382 82.389 96.676 C 82.375 100.581,82.162 101.129,80.806 100.749 C 79.067 100.262,77.066 101.232,76.083 103.038 C 75.078 104.884,71.188 105.554,69.222 104.220 C 68.863 103.976,68.514 103.833,68.445 103.902 C 68.377 103.970,68.338 103.942,68.359 103.839 C 68.379 103.736,68.382 103.315,68.363 102.903 L 68.330 102.154 67.880 103.090 C 66.943 105.037,67.218 105.204,71.371 105.214 C 75.125 105.223,75.711 105.067,76.526 103.839 C 78.127 101.427,78.540 101.124,80.227 101.124 C 81.758 101.124,81.657 100.604,82.308 111.798 C 82.563 116.175,82.771 119.820,82.771 119.897 C 82.771 119.974,85.173 120.037,88.109 120.037 L 93.446 120.037 93.472 118.305 C 93.486 117.353,93.518 115.983,93.543 115.262 C 93.568 114.541,93.645 111.002,93.714 107.397 C 93.842 100.690,93.895 99.515,94.207 96.475 C 94.388 94.720,94.658 93.916,95.226 93.445 C 96.256 92.590,96.827 88.268,96.117 86.704 C 95.944 86.325,95.902 86.706,95.892 88.708 M151.124 86.384 C 151.072 86.435,150.735 86.525,150.375 86.582 C 143.833 87.621,138.758 94.676,139.912 101.124 C 140.431 104.022,142.424 107.225,144.749 108.895 C 145.179 109.204,145.650 109.567,145.796 109.701 C 148.395 112.095,154.422 112.363,158.481 110.266 C 168.253 105.215,167.030 90.645,156.523 86.943 C 155.237 86.489,151.413 86.093,151.124 86.384 M156.648 87.707 C 161.670 89.215,165.134 94.358,164.731 99.707 C 164.037 108.900,154.157 114.151,146.372 109.464 C 145.768 109.099,145.240 108.801,145.200 108.801 C 144.942 108.801,142.322 105.914,142.322 105.629 C 142.322 105.535,142.216 105.346,142.086 105.210 C 140.702 103.761,140.089 98.432,140.969 95.501 C 142.108 91.704,145.742 88.199,149.251 87.511 C 149.508 87.460,150.098 87.346,150.562 87.258 C 151.982 86.987,154.988 87.208,156.648 87.707 M308.708 87.343 C 301.286 89.054,296.599 96.644,298.761 103.453 C 299.433 105.566,302.583 109.932,303.424 109.915 C 303.505 109.913,303.694 110.035,303.845 110.185 C 306.526 112.867,314.761 113.359,317.276 110.988 C 317.404 110.867,317.757 110.641,318.060 110.487 C 318.608 110.207,320.902 108.043,321.256 107.472 C 321.358 107.307,321.690 106.801,321.992 106.348 C 327.697 97.811,318.760 85.025,308.708 87.343 M314.314 88.286 C 315.008 88.447,315.665 88.523,315.775 88.455 C 315.885 88.387,315.928 88.408,315.870 88.502 C 315.812 88.596,316.284 88.923,316.918 89.229 C 321.311 91.352,323.974 97.013,322.952 102.057 C 320.016 116.548,299.008 114.663,298.980 99.906 C 298.965 91.798,306.110 86.384,314.314 88.286 M151.386 88.946 C 142.768 90.253,139.415 100.483,145.641 106.475 C 151.626 112.236,161.556 108.765,162.729 100.501 C 162.955 98.913,162.934 98.419,162.556 96.471 C 161.671 91.899,156.203 88.215,151.386 88.946 M155.805 90.014 C 156.578 90.269,157.478 90.682,157.806 90.932 C 158.134 91.181,158.483 91.386,158.582 91.386 C 158.831 91.386,160.806 93.544,161.129 94.170 C 162.705 97.217,162.626 101.020,160.923 104.088 C 160.156 105.470,158.416 107.303,157.873 107.303 C 157.766 107.303,157.678 107.373,157.678 107.459 C 157.678 108.112,154.547 108.860,152.182 108.772 C 143.969 108.468,139.927 98.596,145.553 92.582 C 148.337 89.606,151.879 88.719,155.805 90.014 M309.070 89.977 C 307.913 90.229,304.869 91.674,304.869 91.971 C 304.869 92.061,304.752 92.135,304.610 92.135 C 304.467 92.135,304.042 92.493,303.666 92.931 C 303.289 93.368,302.871 93.853,302.737 94.007 C 297.181 100.411,303.877 111.329,312.547 110.004 C 315.986 109.478,320.159 106.212,320.522 103.761 C 320.531 103.701,320.586 103.525,320.646 103.371 C 323.492 95.952,316.863 88.281,309.070 89.977 M313.341 90.555 C 313.961 90.716,314.891 91.051,315.406 91.299 C 315.921 91.548,316.429 91.698,316.534 91.633 C 316.639 91.568,316.671 91.602,316.605 91.708 C 316.540 91.814,316.825 92.136,317.239 92.423 C 322.757 96.247,321.438 106.140,315.056 108.797 C 305.235 112.888,296.876 101.014,304.091 93.221 C 304.644 92.623,305.214 92.135,305.357 92.135 C 305.501 92.135,305.618 92.064,305.618 91.978 C 305.618 91.765,307.576 90.818,308.614 90.530 C 309.805 90.199,312.013 90.211,313.341 90.555 M193.537 91.412 C 194.545 91.756,194.607 92.215,193.690 92.535 C 191.884 93.166,185.768 92.728,185.768 91.968 C 185.768 91.124,191.494 90.713,193.537 91.412 M244.136 91.204 C 252.585 91.427,254.547 91.609,254.014 92.122 C 253.006 93.089,196.220 93.111,195.253 92.145 C 194.944 91.835,195.176 91.757,197.026 91.551 C 201.334 91.070,230.809 90.853,244.136 91.204 M150.983 93.272 C 150.442 93.485,150.000 93.738,150.000 93.833 C 150.000 93.929,149.886 94.007,149.746 94.007 C 148.251 94.007,146.338 98.038,146.803 100.206 C 148.098 106.243,155.183 106.981,158.052 101.377 C 160.167 97.247,155.238 91.596,150.983 93.272 M154.611 94.001 C 159.092 95.969,159.208 102.026,154.804 104.054 C 152.039 105.327,148.962 104.093,147.526 101.134 C 145.530 97.021,150.377 92.142,154.611 94.001 M239.467 94.093 C 241.714 94.245,238.813 94.336,228.653 94.434 C 216.555 94.550,193.736 94.404,193.928 94.212 C 194.215 93.924,235.379 93.817,239.467 94.093 M309.082 94.365 C 305.569 96.069,304.270 99.457,305.882 102.718 C 307.369 105.727,311.010 107.043,313.325 105.407 C 313.598 105.214,313.896 105.056,313.986 105.056 C 314.322 105.056,315.949 103.268,316.531 102.260 C 318.936 98.092,313.431 92.257,309.082 94.365 M20.164 94.255 C 22.242 94.378,23.991 94.528,24.052 94.588 C 24.140 94.676,24.206 108.264,24.165 117.931 L 24.157 119.850 19.007 119.850 L 13.858 119.850 13.858 106.929 L 13.858 94.007 15.122 94.019 C 15.817 94.026,18.086 94.132,20.164 94.255 M93.258 107.116 L 93.258 119.850 88.109 119.850 L 82.959 119.850 82.959 107.116 L 82.959 94.382 88.109 94.382 L 93.258 94.382 93.258 107.116 M313.365 95.045 C 317.158 96.958,317.579 102.004,314.151 104.465 C 309.751 107.625,303.657 102.546,306.089 97.747 C 307.595 94.775,310.611 93.655,313.365 95.045 M184.925 95.511 C 185.424 95.705,184.099 96.978,181.664 98.644 C 179.680 100.002,179.663 99.993,179.834 97.774 C 179.971 95.988,180.051 95.776,180.678 95.531 C 181.647 95.153,183.976 95.142,184.925 95.511 M151.131 97.120 C 149.543 98.456,149.648 100.461,151.349 101.284 C 152.669 101.923,153.729 101.661,154.817 100.426 C 156.554 98.454,153.162 95.411,151.131 97.120 M309.831 97.727 C 307.471 99.185,308.305 102.430,311.050 102.468 C 312.663 102.491,314.266 100.583,313.648 99.379 C 312.785 97.700,311.074 96.959,309.831 97.727 M27.416 100.917 C 26.818 101.282,26.301 102.284,26.196 103.281 C 26.107 104.129,26.435 104.122,26.719 103.270 C 27.516 100.878,29.010 100.513,29.292 102.642 C 29.580 104.814,31.250 105.576,35.255 105.363 C 38.741 105.178,39.076 104.932,39.114 102.528 C 39.136 101.130,39.119 101.061,38.864 101.498 C 38.713 101.756,38.587 102.193,38.583 102.469 C 38.562 104.077,37.547 104.653,34.452 104.817 C 31.224 104.987,30.190 104.385,29.874 102.154 C 29.653 100.586,28.724 100.119,27.416 100.917 M39.644 101.184 C 40.831 103.148,43.076 105.237,44.011 105.249 C 44.627 105.257,45.030 105.589,45.256 106.273 C 45.572 107.231,47.119 106.838,48.970 105.331 L 49.532 104.873 48.783 105.080 C 46.234 105.784,42.469 104.426,40.997 102.272 C 40.433 101.448,39.208 100.462,39.644 101.184 M54.494 101.602 C 54.340 101.635,53.748 101.713,53.179 101.776 C 52.163 101.887,52.140 101.903,51.856 102.691 L 51.568 103.493 52.336 103.064 C 53.613 102.350,55.345 102.025,59.176 101.780 L 62.828 101.546 58.801 101.544 C 56.587 101.543,54.649 101.569,54.494 101.602 " stroke="none" fill="#000000" fill-rule="evenodd"></path></g></svg>