<svg width="1157" height="640" viewBox="0 0 1157 640" fill="none" xmlns="http://www.w3.org/2000/svg">
<path fill-rule="evenodd" clip-rule="evenodd" d="M704.644 189.828L704.511 281.656L686.583 285.99C666.135 290.936 664.15 291.733 658.772 297.139C651.279 304.673 650.427 308.339 650.418 333.097L650.408 352.043H645.707H641V361.976C641 368.249 641.193 371.91 641.525 371.91C641.87 371.91 642.045 415.949 642.045 502.984C642.045 649.619 641.695 636.627 645.707 638.631C648.488 640.021 687.877 640.021 690.658 638.631C694.499 636.71 694.315 639.045 694.319 591.786V549.52L704.382 549.833C709.917 550.008 720.707 550.293 728.361 550.473L742.278 550.795L742.624 545.642C742.812 542.805 743.093 539.632 743.245 538.591L743.526 536.699L748.062 536.381C750.558 536.21 758.129 536.008 764.885 535.934L777.172 535.801L776.974 547.945L776.781 560.089H778.936H781.091V562.704V565.315H789.979H798.863V562.704C798.863 560.148 798.899 560.089 800.433 560.089H801.999V548.202V536.316L804.435 539.968C817.5 559.573 837.003 571.477 853.227 569.75C866.642 568.323 875.171 563.28 891.045 547.378C906.897 531.504 908.26 531.053 935.817 532.581C944.01 533.033 957.771 533.654 966.396 533.954C975.022 534.258 984.697 534.635 987.898 534.801L993.714 535.096L993.438 547.59L993.166 560.089H995.856H998.545V562.704V565.315H1006.91H1015.27V562.704C1015.27 560.148 1015.31 560.089 1016.84 560.089H1018.41V547.806V535.52L1030.56 535.501L1042.71 535.483L1049.25 542.229L1055.78 548.976L1072.51 548.548C1081.71 548.313 1092.35 548.046 1096.17 547.949L1103.09 547.774V590.916C1103.09 630.94 1103.16 634.187 1104 635.886C1105.81 639.501 1106.09 639.542 1129.23 639.542C1152.37 639.542 1152.64 639.501 1154.45 635.886C1155.31 634.159 1155.36 626.721 1155.36 502.984C1155.36 415.949 1155.54 371.91 1155.89 371.91C1156.21 371.91 1156.41 368.249 1156.41 361.976V352.043H1151.71H1147V333.074C1147 308.371 1146.23 305.267 1138.13 297.107C1132.55 291.484 1130.73 290.756 1110.02 285.852L1092.64 281.739L1092.64 189.87L1092.63 98H898.704H704.778L704.644 189.828ZM1089.5 187.963V274.795L1087.24 271.732C1082.58 265.405 1075.18 260.449 1067.74 258.681C1064.21 257.843 743.964 258.437 734.307 259.303C724.318 260.196 714.255 265.971 709.392 273.607L707.909 275.932V188.534V101.136H898.704H1089.5V187.963ZM711.046 164.384V225.546H898.184H1085.32V164.384V103.227H898.184H711.046V164.384ZM1082.18 164.384V222.406H898.184H714.182V164.384V106.363H898.184H1082.18V164.384ZM718.363 164.384V220.315H806.705H895.047V164.384V108.454H806.705H718.363V164.384ZM902.365 164.384V220.315H990.703H1079.04V164.384V108.454H990.703H902.365V164.384ZM891.911 164.384C891.911 222.838 892.151 219.435 888.402 213.895C863.58 177.242 805.563 177.099 781.091 213.637L778.738 217.146L750.121 217.165L721.499 217.179V164.384V111.59H806.705H891.911V164.384ZM1075.91 164.384V217.179H990.703H905.501V164.384V111.59H990.703H1075.91V164.384ZM841.466 189.497C855.194 191.049 867.789 196.939 877.732 206.453C881.632 210.188 886.68 216.069 886.68 216.879C886.68 217.045 863.262 217.179 834.641 217.179H782.602L783.546 215.558C793.152 199.025 819.789 187.042 841.466 189.497ZM1067.55 261.863C1074.93 263.816 1082.42 269.407 1086.21 275.78C1089.83 281.878 1088.94 281.97 1083.09 276.103C1078.4 271.396 1074.31 268.992 1069.12 267.905C1066.97 267.459 1023.39 267.348 897.921 267.463L729.605 267.624L726.464 268.877C721.909 270.701 718.197 273.224 714.44 277.056C711.234 280.326 708.964 281.504 709.71 279.515C712.174 272.934 719.022 266.837 727.394 263.779L731.17 262.397L760.441 262.241C1000.98 260.947 1063.8 260.868 1067.55 261.863ZM1072.77 272.386C1076.3 274.076 1082.18 278.428 1081.32 278.714C1081.05 278.806 1074.37 277.3 1066.48 275.37C1053.73 272.257 1051.57 271.87 1047.16 271.893C1035.66 271.962 1024.52 278.87 1019.43 289.094C1018.44 291.083 1017.55 292.829 1017.45 292.972C1017.36 293.114 1017.03 292.773 1016.72 292.216C1015.38 289.826 1011.86 286.685 1008.59 284.977C1001.17 281.085 1003.91 281.283 954.243 281.09C926.151 280.98 909.683 280.726 909.683 280.413C909.683 280.132 909.918 279.906 910.203 279.906C910.502 279.906 910.728 278.341 910.728 276.25V272.589H898.184H885.634V276.25C885.634 279.561 885.736 279.906 886.68 279.906C887.255 279.906 887.725 280.132 887.725 280.408C887.725 280.726 872.228 280.975 846.039 281.076C804.817 281.237 804.306 281.251 800.235 282.398C792.093 284.691 783.983 289.854 781.639 294.233C780.617 296.145 780.354 295.969 779.318 292.681C777.154 285.81 770.402 278.456 763.057 274.965C754.229 270.77 749.416 270.802 731.497 275.158C724.207 276.936 718.133 278.285 718.009 278.161C717.682 277.83 721.974 274.449 724.115 273.349C730.024 270.314 715.259 270.539 900.532 270.655L1069.37 270.76L1072.77 272.386ZM758.35 276.342C772.977 281.205 777.955 290.439 777.955 312.686V325.908H769.398H760.842L761.551 322.901C765.875 304.512 749.283 287.293 730.908 291.106C716.061 294.187 706.79 308.417 710.203 322.901L710.907 325.908H709.36H707.813L708.029 310.881C708.273 293.916 709.83 286.437 713.799 283.144C714.384 282.66 739.883 276.25 746.068 275.03C748.44 274.564 755.164 275.283 758.35 276.342ZM1066.49 278.64C1074.4 280.524 1081.76 282.297 1082.83 282.573C1087.63 283.821 1089.1 289.955 1089.36 309.836L1089.58 325.908H1087.91C1086.42 325.908 1086.28 325.784 1086.62 324.734C1090.38 313.05 1083.92 298.613 1072.51 293.179C1052.02 283.425 1030.19 302.099 1035.93 324.471L1036.29 325.908H1027.35H1018.41L1018.44 322.643C1018.72 290.485 1023.19 280.763 1039.86 276.056C1046.49 274.187 1048.7 274.399 1066.49 278.64ZM907.592 276.25C907.592 276.535 907.357 276.77 907.067 276.77C906.781 276.77 906.547 277.714 906.547 278.861V280.952H898.704H890.866V278.861C890.866 277.12 890.691 276.77 889.82 276.77C889.245 276.77 888.775 276.535 888.775 276.25C888.775 275.918 892.257 275.725 898.184 275.725C904.106 275.725 907.592 275.918 907.592 276.25ZM708.757 285.479L707.951 286.966L707.932 285.571C707.919 284.802 708.204 284.07 708.563 283.945C709.581 283.577 709.622 283.881 708.757 285.479ZM998.96 284.908C1007.86 286.722 1014.11 291.392 1015.47 297.254C1015.65 298.028 1015.33 332.369 1014.76 373.572C1014.18 414.775 1013.71 448.9 1013.71 449.402C1013.71 450.272 1007.82 450.318 897.391 450.318H781.077L781.215 375.958L781.354 301.602L782.767 298.585C786 291.682 794.976 286.137 805.384 284.604C811.278 283.738 994.622 284.028 998.96 284.908ZM704.773 305.521V325.908H702.093H699.413L699.744 323.394C700.426 318.254 698.381 312.336 694.568 308.413C682.323 295.813 660.563 306.331 662.976 323.688L663.285 325.908H658.417H653.545V320.004C653.545 307.897 658.813 298.369 667.761 294.293C670.197 293.188 701.462 285.29 703.857 285.179C704.713 285.138 704.773 286.437 704.773 305.521ZM1109.95 289.052C1128.66 293.52 1131.24 294.514 1135.76 298.986C1141.51 304.669 1143.86 310.867 1143.86 320.267V325.908H1139.03H1134.19V321.321C1134.19 301.767 1107.97 295.679 1099.16 313.188C1097.79 315.901 1097.62 316.771 1097.61 321.073L1097.6 325.908H1095.12H1092.63V305.521C1092.63 294.307 1092.84 285.133 1093.09 285.133C1093.34 285.133 1100.92 286.897 1109.95 289.052ZM739.533 294.012C753.372 296.264 762.039 310.246 758.083 323.946L757.517 325.908H735.9H714.283L713.67 324.209C707.988 308.473 722.715 291.281 739.533 294.012ZM1065.23 294.068C1078.9 296.564 1088.29 312.346 1083.32 324.471L1082.73 325.908H1061.27H1039.82L1039.32 324.596C1033.19 308.487 1048.09 290.936 1065.23 294.068ZM887.034 300.082C871.036 302.974 872.017 312.318 888.513 314.128C890.235 314.317 892.298 314.598 893.099 314.745L894.545 315.017L892.837 316.154C891.893 316.781 890.594 318.337 889.949 319.617L888.775 321.948V379.227V436.503L889.949 438.833C893.412 445.69 902.95 445.69 906.413 438.833L907.592 436.503V379.227V321.948L906.413 319.617C905.768 318.337 904.465 316.776 903.516 316.145L901.794 315.003L904.299 314.694C918.336 312.977 924.535 308.896 920.173 304.254C916.199 300.022 899.201 297.881 887.034 300.082ZM908.96 303.19C919.846 305.079 920.772 308.289 911.064 310.494C895.641 314.004 870.359 309.048 881.66 304.733C887.647 302.444 900.486 301.721 908.96 303.19ZM688.618 307.731C693.868 310.831 696.594 315.468 696.613 321.331C696.627 326.207 697.557 325.945 680.955 325.784L666.352 325.646L666.085 323.555C664.491 311.093 678.109 301.528 688.618 307.731ZM1122.17 307.289C1128.46 310.255 1132.09 316.859 1131.09 323.532L1130.73 325.908H1115.88H1101.02L1100.68 324.554C1097.74 312.834 1111.12 302.076 1122.17 307.289ZM800.17 315.39C797.684 316.532 796.569 317.697 795.487 320.29C794.778 321.984 794.681 329.118 794.681 379.361V436.503L795.86 438.833C799.323 445.69 808.861 445.69 812.324 438.833L813.498 436.503L813.489 379.246C813.48 324.803 813.429 321.883 812.517 319.898C810.316 315.104 805.011 313.17 800.17 315.39ZM823.169 315.39C820.682 316.532 819.568 317.697 818.485 320.29C817.781 321.984 817.684 329.118 817.684 379.361V436.503L818.858 438.833C822.322 445.69 831.859 445.69 835.322 438.833L836.501 436.503L836.487 379.246C836.478 324.803 836.432 321.883 835.516 319.898C833.314 315.104 828.009 313.17 823.169 315.39ZM847.217 315.39C844.731 316.532 843.616 317.697 842.529 320.29C841.825 321.984 841.728 329.118 841.728 379.361V436.503L842.902 438.833C846.37 445.69 855.903 445.69 859.371 438.833L860.545 436.503L860.536 379.246C860.522 324.803 860.476 321.883 859.564 319.898C857.363 315.104 852.058 313.17 847.217 315.39ZM870.216 315.39C867.729 316.532 866.615 317.697 865.532 320.29C864.823 321.984 864.727 329.118 864.727 379.361V436.503L865.905 438.833C869.369 445.69 878.906 445.69 882.369 438.833L883.543 436.503L883.534 379.246C883.525 324.803 883.474 321.883 882.563 319.898C880.361 315.104 875.056 313.17 870.216 315.39ZM917.783 315.394C915.255 316.564 913.662 318.217 912.584 320.801C911.221 324.052 911.391 435.066 912.759 438.032C915.66 444.313 923.388 445.911 928.431 441.274C931.802 438.179 931.613 441.835 931.613 379.227C931.613 325.19 931.567 322.413 930.65 320.419C928.283 315.298 922.716 313.119 917.783 315.394ZM941.307 315.39C938.82 316.532 937.706 317.697 936.623 320.29C935.914 321.984 935.817 329.118 935.817 379.361V436.503L936.996 438.833C937.641 440.113 938.963 441.688 939.93 442.328C944.733 445.52 950.886 443.931 953.46 438.833L954.634 436.503L954.625 379.246C954.616 324.803 954.565 321.883 953.653 319.898C951.452 315.104 946.147 313.17 941.307 315.39ZM964.83 315.394C962.297 316.564 960.709 318.217 959.626 320.801C958.268 324.052 958.438 435.066 959.806 438.032C962.707 444.313 970.43 445.911 975.478 441.274C978.849 438.179 978.66 441.835 978.66 379.227C978.66 325.19 978.614 322.413 977.693 320.419C975.33 315.298 969.758 313.119 964.83 315.394ZM988.354 315.39C985.867 316.532 984.753 317.697 983.666 320.29C982.961 321.984 982.864 329.118 982.864 379.361V436.503L984.039 438.833C984.688 440.113 986.005 441.688 986.972 442.328C991.776 445.52 997.928 443.931 1000.51 438.833L1001.68 436.503L1001.67 379.246C1001.66 324.803 1001.61 321.883 1000.7 319.898C998.499 315.104 993.194 313.17 988.354 315.39ZM808.488 319.608L810.104 321.225V379.227V437.23L808.395 438.939C806.922 440.408 806.323 440.647 804.089 440.647C801.861 440.647 801.257 440.408 799.788 438.939L798.08 437.23V379.26V321.289L799.388 319.88C802.063 317.002 805.766 316.886 808.488 319.608ZM831.486 319.608L833.102 321.225V379.227V437.23L831.394 438.939C829.925 440.408 829.322 440.647 827.093 440.647C824.859 440.647 824.26 440.408 822.787 438.939L821.078 437.23V379.26V321.289L822.386 319.88C825.066 317.002 828.769 316.886 831.486 319.608ZM855.53 319.608L857.146 321.225V379.227V437.23L855.438 438.939C853.969 440.408 853.37 440.647 851.137 440.647C848.903 440.647 848.304 440.408 846.835 438.939L845.127 437.23V379.26V321.289L846.43 319.88C849.11 317.002 852.813 316.886 855.53 319.608ZM878.533 319.608L880.149 321.225V379.227V437.23L878.441 438.939C876.967 440.408 876.369 440.647 874.135 440.647C871.906 440.647 871.303 440.408 869.834 438.939L868.125 437.23V379.26V321.289L869.433 319.88C872.109 317.002 875.811 316.886 878.533 319.608ZM902.577 319.608L904.193 321.225V379.227V437.23L902.485 438.939C901.016 440.408 900.412 440.647 898.184 440.647C895.95 440.647 895.351 440.408 893.878 438.939L892.169 437.23V379.26V321.289L893.477 319.88C896.157 317.002 899.86 316.886 902.577 319.608ZM925.691 318.844C928.629 320.769 928.527 318.429 928.375 379.973C928.237 436.544 928.237 436.655 927.146 438.124C924.604 441.559 918.806 441.559 916.264 438.124C914.679 435.987 914.26 324.319 915.822 321.202C917.544 317.766 922.306 316.629 925.691 318.844ZM949.624 319.608L951.24 321.225V379.227V437.23L949.532 438.939C948.058 440.408 947.459 440.647 945.226 440.647C942.997 440.647 942.394 440.408 940.925 438.939L939.216 437.23V379.26V321.289L940.524 319.88C943.2 317.002 946.902 316.886 949.624 319.608ZM972.733 318.844C975.676 320.769 975.57 318.429 975.422 379.973C975.284 436.544 975.284 436.655 974.193 438.124C971.646 441.559 965.853 441.559 963.311 438.124C961.726 435.987 961.303 324.319 962.869 321.202C964.591 317.766 969.353 316.629 972.733 318.844ZM996.666 319.608L998.283 321.225V379.227V437.23L996.574 438.939C995.105 440.408 994.506 440.647 992.273 440.647C990.039 440.647 989.441 440.408 987.972 438.939L986.263 437.23V379.26V321.289L987.566 319.88C990.247 317.002 993.949 316.886 996.666 319.608ZM665.96 331.665C667.89 334.612 671.68 337.633 674.586 338.531L676.548 339.144V345.591V352.043H665.044H653.545V340.543V329.044L658.905 329.053L664.261 329.063L665.96 331.665ZM694.319 329.505C694.319 332.226 686.513 336.532 681.512 336.569C676.451 336.611 668.18 332.199 668.18 329.459C668.18 329.228 674.061 329.044 681.25 329.044C688.452 329.044 694.319 329.252 694.319 329.505ZM704.773 340.543V352.043H695.885H687.002V345.536V339.024L689.313 338.001C692.132 336.753 695.876 333.392 697.221 330.891C698.197 329.081 698.275 329.044 701.494 329.044H704.773V340.543ZM713.79 331.324C715.858 334.594 720.408 338.706 723.802 340.373L726.726 341.805V346.926V352.043H717.318H707.909V340.543V329.044H710.129C712.183 329.044 712.459 329.219 713.79 331.324ZM755.477 329.339C755.477 333.502 743.512 340.023 735.877 340.023C728.205 340.023 716.272 333.548 716.272 329.38C716.272 329.196 725.096 329.044 735.877 329.044C746.658 329.044 755.477 329.178 755.477 329.339ZM777.955 340.543V352.043H761.229H744.498L744.507 346.949L744.516 341.851L747.459 340.576C750.839 339.116 755.785 334.759 757.931 331.37L759.396 329.044H768.675H777.955V340.543ZM1039.76 332.185C1042.22 335.68 1046.26 339.139 1049.64 340.645L1051.86 341.64V346.843V352.043H1035.14H1018.41V340.543V329.044H1027.98H1037.54L1039.76 332.185ZM1080.16 330.513C1071.21 343.081 1051.33 343.081 1042.38 330.513L1041.34 329.044H1061.27H1081.21L1080.16 330.513ZM1089.5 340.543V352.043H1080.09H1070.68V346.862V341.681L1073.07 340.53C1076.72 338.761 1080.34 335.653 1082.78 332.185C1084.91 329.173 1085.1 329.044 1087.25 329.044H1089.5V340.543ZM1100.21 331.218C1102.18 334.193 1104.86 336.555 1107.88 337.969L1110.41 339.153V345.6V352.043H1101.52H1092.63V340.543V329.044H1095.7C1098.72 329.044 1098.79 329.076 1100.21 331.218ZM1128.07 330.744C1122.79 337.72 1112.28 338.637 1105.53 332.705C1101.22 328.925 1100.88 329.044 1115.95 329.044H1129.36L1128.07 330.744ZM1143.86 340.543V352.043H1132.36H1120.86V345.641L1120.87 339.236L1123.35 338.222C1126.23 337.044 1130.93 332.825 1131.85 330.587L1132.49 329.044H1138.18H1143.86V340.543ZM683.865 345.77V352.043H681.775H679.684V346.065V340.083L681.641 339.88C682.719 339.765 683.663 339.636 683.732 339.586C683.806 339.54 683.865 342.321 683.865 345.77ZM1117.73 346.033V352.043H1115.64H1113.55V346.033V340.023H1115.64H1117.73V346.033ZM741.362 347.47V352.043H735.614H729.862V347.47V342.897H735.614H741.362V347.47ZM1067.55 347.47V352.043H1061.27H1055V347.47V342.897H1061.27H1067.55V347.47ZM777.955 361.976V368.774H711.046H644.136V361.976V355.179H711.046H777.955V361.976ZM1153.27 361.976V368.774H1085.58H1017.89V361.976V355.179H1085.58H1153.27V361.976ZM725.985 394.024C748.675 406.186 769.647 417.419 772.594 418.984L777.95 421.83V448.094L777.955 474.362H763.84H749.729V469.729V465.096L752.11 464.185C771.388 456.821 765.29 427.066 744.498 427.066C723.848 427.066 717.562 455.099 736.264 463.816L739.262 465.216L739.266 469.789L739.271 474.362H716.797H694.319V446.266C694.315 414.83 694.388 415.457 690.658 413.596C688.549 412.542 649.179 412.182 646.522 413.191L645.182 413.702V392.804V371.91H664.956H684.731L725.985 394.024ZM777.955 395.125V418.34L772.336 415.314C769.246 413.647 751.898 404.349 733.786 394.646C715.674 384.942 698.736 375.861 696.148 374.466L691.441 371.924L734.698 371.914L777.955 371.91V395.125ZM1103.46 372.232C1101.19 374.502 1017.6 418.243 1017.44 417.248C1017.33 416.603 1017.42 406.14 1017.63 393.992L1018.01 371.91H1060.9C1084.49 371.91 1103.64 372.052 1103.46 372.232ZM1152.23 392.804V413.702L1150.89 413.191C1148.23 412.182 1108.86 412.542 1106.75 413.596C1103.02 415.457 1103.09 414.83 1103.09 446.266V474.362H1082.18H1061.27V469.72V465.078L1064.04 463.724C1082.43 454.725 1076.01 427.057 1055.53 427.057C1034.61 427.057 1028.65 457.327 1048.22 464.272L1050.82 465.198V469.78V474.362H1034.61H1018.41V463.125C1018.41 453.482 1018.3 451.884 1017.62 451.884C1016.77 451.884 1016.62 440.491 1017.3 427.914L1017.62 421.978L1064.15 396.976L1110.67 371.974L1131.45 371.942L1152.23 371.91V392.804ZM689.972 416.953L691.183 418.091V446.224V474.362H684.123H677.068V478.981C677.068 481.523 676.912 489.992 676.723 497.798L676.377 512.001H683.778H691.183V572.992V633.989L690.046 635.2L688.908 636.406H668.424C648.488 636.406 647.899 636.379 646.559 635.324L645.182 634.242V526.24V418.238L646.319 417.027L647.457 415.816H668.106C688.595 415.816 688.77 415.825 689.972 416.953ZM1151.14 417.193L1152.23 418.57V526.281V633.989L1151.09 635.2L1149.96 636.406H1129.3C1108.81 636.406 1108.64 636.397 1107.44 635.273L1106.23 634.136V573.066V512.001H1115.11H1124V493.179V474.362H1115.11H1106.23V446.468C1106.23 419.04 1106.25 418.547 1107.31 417.193L1108.39 415.816H1129.23H1150.06L1151.14 417.193ZM751.613 431.649C766.852 439.409 761.583 462.43 744.567 462.43C726.243 462.43 721.992 437.005 739.271 430.764C742.729 429.516 748.196 429.908 751.613 431.649ZM1062.51 431.469C1074.92 437.474 1074.78 455.398 1062.29 461.007C1051.54 465.829 1039.32 458.078 1039.32 446.436C1039.32 434.527 1051.97 426.362 1062.51 431.469ZM797.817 463.908V474.362H789.454H781.091V463.908V453.454H789.454H797.817V463.908ZM881.453 463.908V474.362H841.203H800.953V463.908V453.454H841.203H881.453V463.908ZM911.774 463.908V474.362H898.184H884.589V463.908V453.454H898.184H911.774V463.908ZM994.364 463.908V474.362H954.634H914.91V463.908V453.454H954.634H994.364V463.908ZM1015.27 463.908V474.362H1006.39H997.5V463.908V453.454H1006.39H1015.27V463.908ZM894.518 457.245C891.658 459.188 890.659 460.947 890.705 463.964C890.824 471.963 901.122 474.537 905.188 467.583C908.089 462.628 904.249 456.066 898.441 456.066C897.023 456.066 895.632 456.485 894.518 457.245ZM900.873 459.768C903.765 461.316 903.696 466.331 900.767 467.846C896.65 469.969 892.468 466.289 894.223 462.089C895.351 459.395 898.271 458.377 900.873 459.768ZM746.593 469.992V474.362H744.498H742.407V469.992V465.617H744.498H746.593V469.992ZM1058.14 469.946V474.362H1056.05H1053.96V470.029V465.7L1056.05 465.617L1058.14 465.529V469.946ZM1120.86 493.179V508.865H900.191H679.514L679.859 497.015C680.048 490.504 680.204 483.444 680.204 481.335V477.498H900.532H1120.86V493.179ZM777.683 522.063C777.476 527.594 777.209 532.231 777.089 532.36C776.969 532.489 769.412 532.766 760.294 532.973C751.175 533.18 742.974 533.369 742.066 533.392L740.418 533.429L740.081 538.527C739.897 541.331 739.616 544.523 739.46 545.619L739.17 547.618L726.805 547.309C720.007 547.139 709.917 546.862 704.382 546.692L694.319 546.383V529.192V512.001H736.19H778.061L777.683 522.063ZM797.817 516.703V521.409H789.454H781.091V516.703V512.001H789.454H797.817V516.703ZM994.097 521.801C993.889 527.189 993.677 531.651 993.622 531.716C993.42 531.955 963.136 530.795 946.796 529.924C906.339 527.764 906.634 527.686 888.513 545.462C871.533 562.119 863.497 566.531 850.091 566.559C835.442 566.586 818.237 555.336 807.41 538.647C805.641 535.92 803.703 533.153 803.099 532.499C802.146 531.458 801.999 530.652 801.999 526.355C801.999 523.403 801.787 521.409 801.478 521.409C801.17 521.409 800.953 519.493 800.953 516.703V512.001H897.714H994.479L994.097 521.801ZM1015.27 516.703V521.409H1006.39H997.5V516.703V512.001H1006.39H1015.27V516.703ZM1103.09 528.202C1103.09 537.118 1103.03 544.44 1102.96 544.477C1102.89 544.518 1092.49 544.813 1079.85 545.131L1056.87 545.716L1053.15 541.792C1051.11 539.637 1048.3 536.639 1046.92 535.128L1044.4 532.383H1031.4H1018.41V522.192V512.001H1060.75H1103.09V528.202ZM798.863 540.415V556.289L796.44 556.621C795.105 556.805 790.831 556.952 786.944 556.952H779.88L780.221 544.799C780.409 538.117 780.566 530.822 780.566 528.593V524.545H789.717H798.863V540.415ZM1015.27 540.415V556.289L1012.85 556.621C1011.51 556.805 1007.24 556.952 1003.35 556.952H996.289L996.629 544.799C996.818 538.117 996.975 530.822 996.975 528.593L996.979 524.545H1006.13H1015.27V540.415ZM795.726 561.134C795.726 562.119 795.381 562.179 789.979 562.179C784.577 562.179 784.227 562.119 784.227 561.134C784.227 560.153 784.577 560.089 789.979 560.089C795.381 560.089 795.726 560.153 795.726 561.134ZM1012.14 561.134C1012.14 562.11 1011.79 562.179 1006.91 562.179C1002.03 562.179 1001.68 562.11 1001.68 561.134C1001.68 560.158 1002.03 560.089 1006.91 560.089C1011.79 560.089 1012.14 560.158 1012.14 561.134Z" fill="black"/>
<mask id="path-2-inside-1_1717_604" fill="white">
<path fill-rule="evenodd" clip-rule="evenodd" d="M471.334 83.1728V166.346L468.703 169.221L466.076 172.101V177.055V182.01H463.969H461.867V187.199C461.867 191.569 462.032 192.599 462.902 193.708C463.937 195.019 463.937 195.028 462.902 195.962C462.042 196.744 461.867 197.591 461.867 201.032V205.158H458.711H455.555V200.949V196.74H433.856L412.156 196.735L409.787 195.13C379.632 174.672 335.668 182.718 315.404 212.408L312.809 216.203H291.85H270.891L265.293 211.663C206.837 164.294 119.911 181.987 86.1354 248.129L83.9043 252.495L61.5056 252.499H39.1069L38.4628 256.713C38.1086 259.032 37.9384 261.125 38.0902 261.364C38.2374 261.603 37.6532 262.321 36.7975 262.956C29.2163 268.559 30.2284 277.175 40.3259 293.005C51.0354 309.805 54.7064 317.676 54.7064 323.854V328.381L45.6347 328.008C28.8851 327.327 23.3602 328.951 15.4339 336.878C11.0268 341.285 7.41103 347.334 6.51858 351.801L6.21036 353.347L11.3903 354.359L16.5702 355.371L16.7082 374.66L16.8462 393.949L15.2913 396.396C12.6277 400.601 12.6231 400.683 12.6231 453.476V502.897H6.31157H0V511.84V520.782H6.30237H12.6047L12.7473 573.308L12.8853 625.834L14.7301 629.445C18.8657 637.556 26.999 640.104 46.8169 639.511C72.8498 638.724 75.7388 635.453 75.748 606.725V592.459L77.2845 592.151C84.0285 590.803 87.1981 579.215 88.1549 552.465C88.5367 541.686 88.3021 542.238 92.7782 541.589C97.5625 540.895 98.9012 537.905 96.7114 532.817C95.0783 529.022 95.589 528.672 103.294 528.295L109.417 527.991V540.89C109.417 553.757 109.422 553.799 110.765 556.205L112.113 558.615L110.954 560.179C106.45 566.27 114.312 573.759 120.674 569.444C123.011 567.857 123.094 567.848 123.094 569.182C123.094 570.203 123.444 570.231 136.771 570.231C150.098 570.231 150.447 570.203 150.447 569.182C150.447 568.478 150.797 568.128 151.501 568.128C152.476 568.128 152.554 567.779 152.554 563.395C152.554 559.439 152.416 558.661 151.726 558.661C149.536 558.661 149.394 557.769 149.394 543.706C149.394 536.304 149.587 530.254 149.822 530.254C152.025 530.254 160.315 539.165 165.472 547.087C170.021 554.065 173.867 557.957 178.44 560.207C181.375 561.647 182.069 562.245 182.566 563.754C185.262 571.924 206.538 574.541 211.207 567.282C212.22 565.709 212.436 565.63 216.889 565.313C228.495 564.476 236.744 559.475 245.042 548.228C247.333 545.127 250.673 541.235 252.463 539.579L255.715 536.566H260.421H265.127V533.884V531.207L267.395 532.536L269.668 533.866L323.288 532.072C352.781 531.082 377.323 530.268 377.829 530.264C378.685 530.254 378.749 531.266 378.749 544.23C378.749 558.854 378.62 559.71 376.422 559.71C375.731 559.71 375.593 560.492 375.593 564.444C375.593 568.828 375.672 569.182 376.647 569.182C377.351 569.182 377.7 569.532 377.7 570.231C377.7 571.257 378.05 571.284 391.377 571.284C404.704 571.284 405.054 571.257 405.054 570.231C405.054 568.998 405.385 568.957 407.156 569.969C413.219 573.433 420.299 565.801 416.182 560.234L415.068 558.73L416.366 556.458C417.649 554.222 417.668 554.006 417.672 541.751C417.681 527.214 417.014 528.433 424.678 528.976C430.976 529.422 431.749 529.928 430.479 532.785C427.935 538.48 429.973 542.353 435.512 542.353C438.217 542.353 438.718 543.407 438.723 549.097C438.732 574.675 442.647 590.739 449.345 592.652L451.084 593.154L451.346 609.443C451.778 636.093 455.56 639.695 483.056 639.658C501.268 639.635 508.445 637.137 512.369 629.445L514.209 625.839L514.351 573.308L514.494 520.782H521.321H528.148V511.84V502.897H521.312H514.471V453.563C514.471 415.841 514.314 403.614 513.813 401.617C512.571 396.69 513.16 351.396 514.462 351.396C515.028 351.396 517.295 351 519.494 350.517L523.497 349.639L523.152 347.757C522.439 343.907 519.655 339.127 515.966 335.428C511.803 331.256 511.959 332.149 513.408 321.149C517.107 293.092 507.985 277.516 488.719 278.969C471.941 280.234 464.714 293.814 467.396 319.047C468.307 327.622 468.33 328.252 467.732 328.252C467.484 328.252 467.125 326.182 466.932 323.647C465.142 300.126 457.175 286.413 440.729 278.528L436.91 276.697L464.774 276.683L492.638 276.674L499.345 270.597L506.052 264.525V258.512V252.499H495.532H485.011V241.289V230.078L483.539 228.665C482.724 227.888 481.777 227.249 481.432 227.249C480.972 227.249 480.806 224.967 480.806 218.637C480.806 211.686 480.654 209.896 480.029 209.377C479.357 208.82 479.426 208.503 480.553 207.026C482.209 204.855 482.485 197.779 480.976 196.114C480.148 195.199 480.181 195.056 481.505 193.676C482.83 192.296 482.909 191.919 482.909 187.111V182.01H480.806H478.699V177.119V172.229L476.597 170.173L474.49 168.121V84.0607V0H472.912H471.334V83.1728ZM474.067 171.852C475.451 173.177 475.543 173.531 475.543 177.639V182.01H472.388H469.232V177.699C469.232 173.738 469.347 173.269 470.644 171.912C472.369 170.113 472.259 170.118 474.067 171.852ZM479.753 188.156C479.753 192.852 478.773 193.584 472.461 193.584C466.012 193.584 465.023 192.871 465.023 188.229V185.165H472.388H479.753V188.156ZM385.59 188.257C412.299 194.407 432.066 215.187 436.354 241.624C437.665 249.698 437.481 252.499 435.632 252.499H434.123L433.75 248.161C432.848 237.664 427.089 220.224 424.816 221.121C409.433 227.175 382.715 237.843 382.563 237.99C382.452 238.105 382.848 239.154 383.451 240.327C385.475 244.297 386.211 244.086 370.358 244.086H356.18L356.903 241.693C357.298 240.378 358.255 238.469 359.033 237.452C359.81 236.431 360.362 235.525 360.261 235.432C359.244 234.517 320.146 216.728 319.903 217.064C314.465 224.493 309.837 236.1 309.837 242.31C309.837 243.994 309.745 244.086 307.965 244.086C306.428 244.086 306.134 243.915 306.346 243.161C306.488 242.655 306.769 241.178 306.967 239.876C312.197 205.301 350.471 180.169 385.59 188.257ZM206.736 189.099C226.913 192.084 245.401 200.079 261.971 212.983L266.443 216.466L252.499 216.792C244.835 216.972 222.699 217.151 203.313 217.188C166.134 217.261 161.497 217.496 154.656 219.663C144.435 222.897 136.14 230.828 132.552 240.796L131.37 244.086H121.024H110.678L107.283 248.267L103.892 252.449L95.8696 252.476C91.4579 252.49 87.8467 252.357 87.8467 252.187C87.8467 251.354 92.6264 242.839 95.5522 238.464C115.131 209.183 144.738 191.992 182.272 188.114C186.371 187.691 201.289 188.289 206.736 189.099ZM361.917 190.681C349.059 192.875 337.807 198.722 328.381 208.107C325.708 210.77 323.518 213.172 323.518 213.443C323.518 213.715 332.222 218.094 342.867 223.182L362.216 232.429L365.091 231.435C370.004 229.737 375.087 230.395 379.228 233.266L381.183 234.618L402.316 226.595C413.937 222.184 423.45 218.333 423.45 218.043C423.459 216.999 418.174 210.522 414.341 206.879C400.375 193.616 380.576 187.498 361.917 190.681ZM386.188 194.803C395.076 197.117 402.422 200.898 409.649 206.874C412.911 209.57 418.744 215.909 418.726 216.728C418.721 216.875 410.422 220.137 400.283 223.982L381.845 230.97L378.588 229.374C374.273 227.258 369.866 226.793 365.441 227.989L362.142 228.886L348.746 222.474C341.381 218.95 333.699 215.302 331.675 214.372L327.994 212.675L331.146 209.634C345.678 195.622 367.147 189.835 386.188 194.803ZM478.069 197.37C479.049 198.35 478.874 204.091 477.83 205.246C476.652 206.547 467.999 206.653 466.191 205.388C464.691 204.339 464.494 199.247 465.892 197.701C466.955 196.528 476.956 196.257 478.069 197.37ZM452.4 204.105V208.314H458.527C464.434 208.314 464.627 208.346 463.79 209.275C463.031 210.113 462.92 211.805 462.92 222.202V234.167L465.018 235.051L467.116 235.929L467.12 244.214L467.125 252.499H453.793H440.457L440.112 247.108C439.082 231.117 432.706 216.843 421.233 204.845L416.504 199.895H434.449H452.4V204.105ZM476.684 210.237C478.221 211.626 478.138 226.499 476.592 226.986C474.522 227.644 472.388 229.912 472.388 231.449C472.388 233.303 471.606 233.606 468.523 232.948L466.076 232.424V222.115C466.076 209.45 466.113 209.363 472.043 209.363C474.729 209.363 475.985 209.602 476.684 210.237ZM309.064 223.237C306.741 228.33 304.841 234.439 303.779 240.203C303.066 244.072 302.495 245.525 300.462 248.681L298.005 252.486H264.86L231.72 252.481L228.863 248.281L226.011 244.086H180.34H134.673L135.694 241.394C139.361 231.743 147.333 224.852 158.277 221.871C162.155 220.817 163.99 220.767 215.076 220.367C244.109 220.137 267.998 219.819 268.163 219.654C268.324 219.493 277.99 219.359 289.647 219.359H310.831L309.064 223.237ZM338.773 228.79C350.209 234.181 355.274 236.826 355.122 237.319C355.003 237.714 354.437 239.393 353.866 241.059L352.827 244.086H332.912H312.998V242.328C312.998 236.891 319.41 220.896 321.568 220.955C321.918 220.965 329.66 224.488 338.773 228.79ZM425.81 228.96C428.515 234.844 430.829 244.794 430.829 250.512C430.829 253.305 425.893 251.69 422.415 247.766L419.149 244.086H403.531H387.913L387.315 241.854C386.988 240.626 386.763 239.596 386.814 239.559C387.412 239.163 422.861 225.234 423.367 225.197C423.749 225.169 424.849 226.862 425.81 228.96ZM480.838 230.423C481.8 230.938 481.855 231.642 481.855 242.788V254.606H478.699H475.543V242.793C475.543 232.102 475.631 230.933 476.464 230.45C477.664 229.751 479.559 229.742 480.838 230.423ZM472.388 244.348C472.388 252.15 472.342 252.499 471.334 252.499C470.331 252.499 470.285 252.15 470.285 244.651C470.285 236.96 470.396 236.403 471.992 236.233C472.208 236.21 472.388 239.863 472.388 244.348ZM225.349 248.557C225.818 249.279 226.582 250.462 227.046 251.184L227.897 252.499H167.836H107.775L109.992 249.868L112.21 247.241H168.356H224.498L225.349 248.557ZM420.046 249.868L422.636 252.499H362.234H301.828L302.679 251.184C303.144 250.462 303.907 249.279 304.377 248.557L305.228 247.241H361.342H417.456L420.046 249.868ZM502.864 259.469L502.837 263.283L497.133 268.398L491.428 273.514L458.886 273.56C437.495 273.587 425.479 273.408 423.827 273.04C410.261 269.999 343.787 268.495 243.819 268.964C150.061 269.41 121.258 270.349 107.421 273.422C106.469 273.633 93.1508 273.744 77.8273 273.665L49.9635 273.523L45.5196 266.825C41.2874 260.449 41.0896 260.021 41.384 257.891L41.6968 255.655H272.294H502.897L502.864 259.469ZM41.6876 266.668C43.3713 269.047 43.4265 269.451 42.2857 271.195C39.4151 275.574 41.0712 281.973 47.3782 290.921C57.945 305.895 62.7568 315.795 63.0329 323.123L63.2215 328.252H60.5441H57.8622V323.284V318.316L53.9473 310.527C50.2073 303.089 46.8491 297.288 40.3397 287.038C34.065 277.157 33.3979 270.353 38.265 265.84C39.9809 264.249 39.9763 264.249 41.6876 266.668ZM373.491 272.966C385.498 273.283 399.552 273.785 404.718 274.084C445.324 276.448 461.407 290.051 463.781 324.043L464.093 328.514L459.691 332.061L455.293 335.603L447.008 335.613C442.449 335.613 438.718 335.507 438.718 335.369C438.718 335.235 439.431 334.007 440.301 332.636C450.412 316.687 440.756 293.948 422.788 291.409C373.289 284.398 276.674 280.221 215.375 282.438C166.709 284.2 107.504 289.067 99.8304 291.942C82.9244 298.277 77.6663 317.694 88.3389 334.375L91.4901 339.297L85.5926 339.288L79.695 339.274L74.3449 334.421C68.176 328.823 68.4612 329.724 69.7493 319.751C73.4755 291.018 86.9819 278.565 118.429 274.884C140.046 272.354 303.139 271.126 373.491 272.966ZM47.0193 274.595L48.4086 276.697L72.2058 276.724L96.003 276.747L92.769 278.243C78.6692 284.77 70.3473 296.427 67.4353 313.747L66.5015 319.286L64.2105 313.812C61.3722 307.022 56.1095 297.78 50.902 290.438C44.6824 281.67 42.9159 276.899 44.6732 273.619C45.4506 272.161 45.3908 272.138 47.0193 274.595ZM496.024 282.778C508.992 286.422 513.376 298.981 510.068 323.049L509.084 330.207L505.905 329.218C504.157 328.671 500.638 328.077 498.08 327.898L493.429 327.567V325.584C493.429 323.771 493.577 323.569 495.141 323.238C515.58 318.918 513.054 287.512 492.091 285.322C471.698 283.188 462.746 312.202 480.935 321.48L482.959 322.511L482.803 325.515L482.646 328.514L477.089 328.661L471.532 328.809L470.87 322.612C469.172 306.755 469.545 299.629 472.383 293.626C476.565 284.789 486.667 280.156 496.024 282.778ZM306.419 285.644C358.31 287.554 420.566 292.954 427.503 296.151C438.594 301.262 444.289 315.146 439.919 326.412C439.1 328.519 407.552 379.044 400.504 389.528L398.742 392.15V414.383V436.616H386.611H374.476L361.788 441.879L349.096 447.137H264.106H179.116L167.809 442.403C156.975 437.867 156.331 437.669 152.554 437.665C150.383 437.665 144.522 437.508 139.531 437.32L130.459 436.975V415.855V394.735L109.877 362.414C98.5607 344.638 88.5874 328.593 87.7179 326.766C82.3816 315.555 87.9157 301.065 99.628 295.586C106.395 292.421 160.453 287.646 211.732 285.681C227.575 285.074 290.268 285.051 306.419 285.644ZM497.33 290.07C512.635 297.554 507.308 320.611 490.274 320.611C481.036 320.611 474.251 313.816 474.251 304.579C474.251 292.439 486.469 284.757 497.33 290.07ZM259.078 293.469C256.575 294.62 255.453 295.793 254.363 298.401C253.65 300.108 253.553 307.914 253.553 364.157V427.977L254.735 430.318C258.222 437.223 267.818 437.223 271.305 430.318L272.492 427.977L272.478 364.042C272.469 303.13 272.423 300.006 271.499 298.005C269.286 293.18 263.95 291.234 259.078 293.469ZM210.678 295.328C208.719 296.207 206.455 298.58 205.715 300.535C204.799 302.96 204.947 427.728 205.867 429.936C206.828 432.237 209.988 434.909 212.247 435.333C216.328 436.101 220.744 433.736 222.331 429.936C223.398 427.383 223.384 302.716 222.317 300.223C220.367 295.659 214.998 293.4 210.678 295.328ZM235.929 295.328C233.97 296.207 231.706 298.58 230.966 300.535C230.05 302.96 230.197 427.728 231.117 429.936C232.705 433.736 237.121 436.101 241.201 435.333C243.46 434.909 246.62 432.237 247.582 429.936C248.649 427.383 248.635 302.716 247.568 300.223C245.613 295.659 240.249 293.4 235.929 295.328ZM284.324 295.328C282.364 296.207 280.101 298.58 279.36 300.535C278.445 302.96 278.592 427.728 279.512 429.936C280.474 432.237 283.634 434.909 285.893 435.333C289.973 436.101 294.39 433.736 295.977 429.936C297.044 427.383 297.03 302.716 295.963 300.223C294.012 295.659 288.644 293.4 284.324 295.328ZM309.575 295.328C307.615 296.207 305.352 298.58 304.611 300.535C303.696 302.96 303.843 427.728 304.763 429.936C305.725 432.237 308.885 434.909 311.144 435.333C315.224 436.101 319.64 433.736 321.227 429.936C322.295 427.383 322.281 302.716 321.214 300.223C319.263 295.659 313.895 293.4 309.575 295.328ZM267.446 297.711L269.07 299.339V364.024V428.704L267.349 430.424C265.872 431.905 265.27 432.145 263.02 432.145C260.775 432.145 260.173 431.905 258.691 430.424L256.971 428.704V364.056V299.404L258.287 297.987C260.982 295.089 264.709 294.974 267.446 297.711ZM185.428 298.728C182.925 299.878 181.807 301.051 180.717 303.659C180.004 305.366 179.907 312.86 179.907 366.26V426.923L181.09 429.269C184.577 436.17 194.173 436.17 197.66 429.269L198.842 426.923L198.833 366.145C198.824 308.296 198.773 305.265 197.853 303.263C195.64 298.442 190.299 296.492 185.428 298.728ZM217.137 298.797C218.085 299.372 219.092 300.453 219.373 301.193C220.072 303.033 220.072 427.116 219.373 428.952C218.057 432.411 212.693 433.345 209.942 430.594L208.576 429.228V365.119C208.576 301.745 208.59 300.996 209.63 299.836C211.686 297.55 214.464 297.163 217.137 298.797ZM242.388 298.797C243.336 299.372 244.339 300.453 244.624 301.193C245.323 303.033 245.323 427.116 244.624 428.952C243.308 432.411 237.944 433.345 235.193 430.594L233.827 429.228V365.119C233.827 301.745 233.836 300.996 234.876 299.836C236.937 297.55 239.711 297.163 242.388 298.797ZM291.901 299.556L293.267 300.922V365.073V429.228L291.809 430.686C290.608 431.887 289.89 432.145 287.747 432.145C285.598 432.145 284.881 431.887 283.68 430.686L282.222 429.228V365.119C282.222 301.745 282.236 300.996 283.275 299.836C285.534 297.324 289.541 297.191 291.901 299.556ZM317.152 299.556L318.518 300.922V365.073V429.228L317.06 430.686C315.859 431.887 315.141 432.145 312.998 432.145C310.849 432.145 310.132 431.887 308.931 430.686L307.473 429.228V365.119C307.473 301.745 307.486 300.996 308.526 299.836C310.785 297.324 314.792 297.191 317.152 299.556ZM333.772 298.728C331.27 299.878 330.152 301.051 329.062 303.659C328.349 305.366 328.252 312.86 328.252 366.26V426.923L329.434 429.269C332.024 434.399 338.221 436 343.051 432.784C344.026 432.14 345.356 430.557 346.005 429.269L347.187 426.923L347.178 366.145C347.164 308.296 347.118 305.265 346.198 303.263C343.985 298.442 338.644 296.492 333.772 298.728ZM160.181 301.888C154.275 304.597 154.656 300.227 154.656 365.211V421.665L155.839 424.007C159.326 430.912 168.922 430.912 172.409 424.007L173.596 421.665L173.582 365.096C173.573 311.328 173.522 308.42 172.602 306.419C170.389 301.598 165.053 299.648 160.181 301.888ZM193.795 302.974L195.424 304.598V366.126V427.655L193.703 429.375C192.227 430.852 191.62 431.091 189.375 431.091C187.13 431.091 186.527 430.852 185.046 429.375L183.325 427.655V366.158V304.662L184.641 303.25C187.337 300.347 191.063 300.236 193.795 302.974ZM342.14 302.974L343.769 304.598V366.126V427.655L342.048 429.375C340.572 430.852 339.964 431.091 337.719 431.091C335.475 431.091 334.872 430.852 333.391 429.375L331.67 427.655V366.158V304.662L332.986 303.25C335.682 300.347 339.408 300.236 342.14 302.974ZM359.023 301.644C357.064 302.518 354.8 304.892 354.06 306.847C353.144 309.271 353.291 421.417 354.211 423.62C357.229 430.838 367.658 430.838 370.676 423.62C371.743 421.072 371.729 309.023 370.662 306.534C368.711 301.971 363.343 299.712 359.023 301.644ZM168.549 306.129L170.173 307.753V365.073V422.392L168.453 424.112C165.964 426.606 162.288 426.606 159.795 424.112L158.074 422.392V365.105V307.818L159.39 306.405C162.086 303.507 165.812 303.392 168.549 306.129ZM366.6 305.867L367.966 307.233V365.073V422.916L366.508 424.375C365.307 425.575 364.59 425.833 362.446 425.833C360.298 425.833 359.58 425.575 358.379 424.375L356.921 422.916V365.119C356.921 308.062 356.935 307.302 357.974 306.152C360.233 303.636 364.24 303.503 366.6 305.867ZM117.725 306.088C98.0317 312.602 94.1721 338.718 111.234 350.044C130.97 363.141 155.494 344.256 148.253 321.545C144.407 309.474 129.815 302.09 117.725 306.088ZM395.586 305.858C368.366 313.444 373.684 354.115 401.898 354.138C422.751 354.161 434.04 331.044 421.371 314.263C415.924 307.049 404.58 303.351 395.586 305.858ZM133.748 309.966C150.015 317.455 150.631 340.71 134.769 348.714C117.767 357.298 98.8322 341.183 104.651 323.081C108.502 311.111 122.51 304.795 133.748 309.966ZM408.246 309.097C423.459 313.545 428.57 332.733 417.621 344.307C403.241 359.515 378.239 347.325 380.985 326.444C382.655 313.729 395.701 305.43 408.246 309.097ZM488.631 323.845C491.506 324.42 491.106 328.252 488.167 328.252H486.064V325.883C486.064 323.367 486.096 323.339 488.631 323.845ZM58.6534 331.413L66.5429 331.422L70.7521 335.392L74.9614 339.362L47.0837 339.044C31.751 338.87 19.0083 338.529 18.7737 338.294C18.2263 337.747 22.7897 334.366 25.9685 332.963C29.6211 331.343 33.6694 330.911 42.6077 331.169C47.0929 331.297 54.3108 331.408 58.6534 331.413ZM502.446 331.642C504.369 332.047 506.972 332.931 508.233 333.602L510.524 334.826L500.003 335.148C494.221 335.327 482.973 335.493 475.019 335.521L460.551 335.571L462.893 333.515L465.23 331.463L472.098 331.725C475.875 331.872 481.685 331.776 485.011 331.514C494.119 330.787 498.586 330.824 502.446 331.642ZM515.294 339.38C516.822 340.746 519.527 346.557 518.91 347.145C516.596 349.354 499.469 350.329 462.92 350.333H430.042L428.556 352.049C427.208 353.609 427.236 353.503 428.86 350.872C434.086 342.412 435.287 340.535 436 339.693C436.722 338.842 438.718 338.768 462.87 338.704C477.218 338.667 494.285 338.488 500.794 338.308C513.689 337.954 513.707 337.954 515.294 339.38ZM57.1951 342.278L93.6108 342.623L96.9644 347.932C98.8091 350.849 101.187 354.598 102.25 356.263C104.633 359.985 104.389 360.196 101.79 356.659L99.858 354.027L67.1547 354.018C34.1708 354.009 26.3181 353.715 16.3862 352.109C9.89978 351.056 9.84917 350.982 12.4069 346.115C14.5874 341.97 15.5489 341.289 18.6725 341.676C19.8318 341.814 37.1656 342.085 57.1951 342.278ZM510.262 373.326V394.202L508.817 392.849C500.974 385.498 465.878 385.41 457.193 392.72C451.76 397.293 451.364 399.795 451.355 429.647L451.346 454.502H434.514H417.677V448.958C417.677 444.381 417.488 443.038 416.586 441.271L415.496 439.132L417.378 437.407C421.73 433.419 421.996 427.402 418.013 423.022C414.093 418.712 406.066 419.356 402.942 424.227L401.916 425.833L401.907 409.608C401.898 393.691 401.921 393.346 403.066 391.722C403.706 390.807 410.353 381.836 417.838 371.78L431.445 353.503L464.144 353.448C482.131 353.42 498.862 353.222 501.319 353.006C503.78 352.79 506.798 352.574 508.026 352.532L510.262 352.45V373.326ZM61.9288 356.985L98.3445 357.271L100.217 359.824L102.094 362.381L102.066 384.9L102.034 407.423L104.587 415.05C106.745 421.504 107.31 422.7 108.276 422.843C109.638 423.045 109.652 423.137 108.576 424.789C106.142 428.501 106.892 434.164 110.204 437.071C112.403 438.999 112.403 439.004 110.733 441.465C109.532 443.227 109.417 443.894 109.417 448.949V454.502H92.5804H75.748V430.139C75.748 397.67 75.0764 394.809 66.3957 390.383C58.7132 386.464 29.8235 386.482 21.9617 390.411L19.9882 391.4V373.712V356.029L22.7483 356.364C24.271 356.548 41.8992 356.829 61.9288 356.985ZM134.213 362.639C128.439 364.728 124.745 371.504 126.254 377.245C129.58 389.933 147.6 389.744 150.433 376.987C152.499 367.709 143.124 359.414 134.213 362.639ZM386.639 362.409C372.175 366.807 375.938 387.513 391.027 386.551C396.681 386.192 401.36 381.914 402.197 376.334C403.489 367.709 394.8 359.93 386.639 362.409ZM142.424 366.191C151.188 370.432 148.11 383.488 138.348 383.488C135.239 383.488 133.228 382.586 131.356 380.364C124.86 372.645 133.339 361.793 142.424 366.191ZM393.783 366.071C402.602 370.078 399.782 383.488 390.121 383.488C384.463 383.488 380.819 379.991 380.773 374.531C380.723 367.598 387.476 363.21 393.783 366.071ZM127.303 407.924V419.784H118.402H109.505L107.356 413.339L105.208 406.894V386.662V366.43L116.253 381.243L127.303 396.06V407.924ZM58.98 391.704C64.873 392.711 65.9356 393.208 68.7648 396.276C72.284 400.094 72.2518 399.814 72.4588 428.593L72.6474 454.502H61.8138C51.0078 454.502 50.9756 454.506 49.6875 455.794L48.3948 457.083V477.121V497.16L49.6875 498.453C50.971 499.736 51.0124 499.741 61.7954 499.741H72.6198L72.4726 562.208L72.33 624.68L71.0787 627.444C67.8309 634.634 59.9829 636.958 41.0298 636.327C27.2106 635.872 22.9185 634.777 19.3119 630.784C15.4983 626.561 15.7559 635.509 15.9077 512.346L16.0411 401.636L17.619 398.742C20.4482 393.557 23.8248 392.081 35.7717 390.816C41.223 390.236 53.0549 390.692 58.98 391.704ZM497.639 391.658C505.836 392.973 510.252 396.925 511.048 403.664C511.886 410.795 511.071 625.158 510.197 627.081C506.876 634.391 501.337 636.249 482.909 636.249C467.479 636.249 461.825 635.058 458.315 631.06C454.483 626.694 454.782 632.256 454.621 562.475L454.479 499.741H465.299C476.086 499.741 476.123 499.736 477.407 498.453L478.699 497.16V477.121V457.083L477.407 455.794C476.123 454.506 476.086 454.502 465.285 454.502H454.447L454.608 428.331C454.824 392.66 454.907 392.513 476.068 390.641C480.342 390.264 492.541 390.839 497.639 391.658ZM119.713 423.938C124.663 426.183 124.828 433.299 119.984 435.802C113.355 439.229 106.758 430.258 112.173 425.171C114.625 422.87 116.635 422.539 119.713 423.938ZM127.303 431.551V440.167L141.638 440.545L155.972 440.922L167.243 445.61L178.518 450.293H264.101H349.685L362.391 445.034L375.101 439.772H388.497H401.898V437.122V434.468L404.042 436.722L406.19 438.981L405.095 441.23C404.203 443.075 404 444.487 404 448.991V454.502H264.074H124.147V448.968C124.147 443.921 124.028 443.245 122.781 441.276L121.419 439.114L123.388 437.209C126.99 433.718 127.717 429.711 125.532 425.396L124.29 422.939H125.794H127.303V431.551ZM414.935 424.402C417.667 426.192 418.463 430.327 416.646 433.304C413.541 438.396 406.167 437.306 404.566 431.514C402.933 425.603 409.691 420.966 414.935 424.402ZM119.625 442.104C120.835 444.17 120.987 444.998 120.987 449.465V454.502H116.782H112.573V449.428C112.573 440.733 116.456 436.694 119.625 442.104ZM413.366 442.155C414.309 444.096 414.521 445.458 414.521 449.52V454.502H410.841H407.156V449.221C407.156 440.278 410.569 436.395 413.366 442.155ZM475.281 477.121V496.323H263.549H51.8128L51.6748 477.65C51.6012 467.383 51.6518 458.683 51.7898 458.32C51.9922 457.786 94.1767 457.685 263.664 457.791L475.281 457.92V477.121ZM146.238 508.159V516.573H137.295H128.352V508.159V499.741H137.295H146.238V508.159ZM378.749 502.427V505.114L377.273 503.531C374.618 500.693 379.062 500.799 265.127 500.808C161.216 500.817 158.548 500.84 156.377 501.825C153.391 503.182 152.25 505.224 151.85 509.935C151.478 514.351 151.192 515.327 150.144 515.727C149.518 515.971 149.394 514.701 149.394 507.879V499.741H264.074H378.749V502.427ZM399.795 508.159V516.573H390.853H381.91V508.159V499.741H390.853H399.795V508.159ZM404 500.794C404 501.374 403.765 501.848 403.476 501.848C403.186 501.848 402.951 501.374 402.951 500.794C402.951 500.215 403.186 499.741 403.476 499.741C403.765 499.741 404 500.215 404 500.794ZM414.521 500.794C414.521 501.747 414.171 501.848 410.841 501.848C407.51 501.848 407.156 501.747 407.156 500.794C407.156 499.842 407.51 499.741 410.841 499.741C414.171 499.741 414.521 499.842 414.521 500.794ZM451.346 500.794C451.346 501.825 450.996 501.848 434.514 501.848C418.031 501.848 417.677 501.825 417.677 500.794C417.677 499.764 418.031 499.741 434.514 499.741C450.996 499.741 451.346 499.764 451.346 500.794ZM124.147 504.475V506.052H99.9454H75.748V504.475V502.897H99.9454H124.147V504.475ZM374.591 505.339C375.455 506.204 375.814 507.446 376.141 510.694C376.974 518.965 377.691 519.421 390.103 519.632L399.795 519.798V521.344V522.889H388.014C373.717 522.889 374.158 523.069 373.468 516.904C372.898 511.853 371.794 509.825 368.767 508.288L366.43 507.106H265.652H164.874L162.56 508.288C158.833 510.193 157.762 512.668 157.311 520.387C157.177 522.646 155.664 522.889 141.766 522.889H128.352V521.339V519.789L139.365 519.628C153.529 519.421 154.247 519.016 154.978 510.74C155.328 506.752 156.055 505.275 158.074 504.447C158.654 504.208 207.352 504.056 266.296 504.111L373.464 504.212L374.591 505.339ZM450.293 506.581V508.159H426.62H402.951V506.581V505.004H426.62H450.293V506.581ZM12.6231 511.84V517.627H7.88946H3.15578V511.84V506.052H7.88946H12.6231V511.84ZM524.992 511.84V517.627H519.734H514.471V511.84V506.052H519.734H524.992V511.84ZM109.417 517.019V524.831L103.129 525.148C92.654 525.673 91.0577 527.513 94.2273 535.375C95.1151 537.583 94.5447 538.158 90.9059 538.724C85.7582 539.524 85.4086 540.334 84.9899 552.414C84.2769 573.042 82.1884 584.524 78.5358 587.905C75.6146 590.615 75.748 592.505 75.748 549.189V509.213H92.5804H109.417V517.019ZM120.987 512.893V516.573H117.831H114.675V520.782C114.675 524.642 114.588 524.992 113.627 524.992C112.619 524.992 112.573 524.642 112.573 517.102V509.213H116.782H120.987V512.893ZM125.196 512.893C125.196 514.995 124.971 516.573 124.672 516.573C124.373 516.573 124.147 514.995 124.147 512.893C124.147 510.791 124.373 509.213 124.672 509.213C124.971 509.213 125.196 510.791 125.196 512.893ZM170.449 525.125L170.463 539.984L172.197 542.772C179.259 554.111 189.476 558.551 207.214 557.985C223.214 557.479 233.404 552.727 240.088 542.657L241.979 539.805V525.033V510.262H251.975H261.971V521.836V533.41H258.779C253.659 533.41 250.176 536.083 243.276 545.316C233.928 557.824 226.729 562.051 214.759 562.07L209.363 562.079V563.455C209.363 571.284 186.384 569.292 185.322 561.371C185.055 559.374 184.899 559.218 182.341 558.39C176.793 556.586 173.361 553.311 167.054 543.802C162.454 536.865 157.725 531.8 152.72 528.442L149.325 526.165L153.028 525.958C158.567 525.645 160.968 522.646 160.968 516.049C160.968 512.267 163.323 510.321 167.937 510.285L170.435 510.262L170.449 525.125ZM238.823 524.67V539.078L236.458 542.293C230.299 550.657 221.793 554.341 207.523 554.82C191.146 555.367 181.734 551.627 175.606 542.142L173.596 539.032V524.647V510.262H206.207H238.823V524.67ZM368.532 511.904C369.654 513.026 369.99 514.015 370.354 517.263C371.039 523.368 373.183 526.045 377.383 526.045C378.137 526.045 378.749 526.28 378.749 526.57C378.749 526.859 378.22 527.103 377.567 527.112C376.918 527.122 352.606 527.922 323.546 528.897L270.707 530.668L267.915 529.298L265.127 527.931V519.09V510.248L316.14 510.386L367.157 510.524L368.532 511.904ZM404 513.946C404 515.391 403.765 516.573 403.476 516.573C403.186 516.573 402.951 515.391 402.951 513.946C402.951 512.497 403.186 511.315 403.476 511.315C403.765 511.315 404 512.497 404 513.946ZM414.521 513.946V516.573H410.841H407.156V513.946V511.315H410.841H414.521V513.946ZM451.346 550.505C451.346 593.706 451.525 591.535 448.199 588.209C444.597 584.607 441.925 568.142 441.888 549.355C441.874 541.819 440.301 539.202 435.797 539.197C432.48 539.193 431.974 538.176 433.345 534.316C435.673 527.779 430.309 524.449 419.388 525.645L417.677 525.834V518.574V511.315H434.514H451.346V550.505ZM125.196 521.312V522.889H121.516H117.831V521.312V519.734H121.516H125.196V521.312ZM412.419 521.312V522.889H407.685H402.951V521.312V519.734H407.685H412.419V521.312ZM399.749 526.234C399.22 526.698 381.91 526.988 381.91 526.533C381.91 526.252 385.709 526.045 390.94 526.045C395.904 526.045 399.869 526.128 399.749 526.234ZM118.751 528.667L120.987 528.677V540.812C120.987 555.055 120.306 557.621 116.649 557.194C113.047 556.775 112.573 554.824 112.573 540.467V528.01L114.547 528.336C115.628 528.516 117.523 528.667 118.751 528.667ZM125.196 543.14C125.196 557.258 125.173 557.608 124.147 557.608C123.568 557.608 123.094 557.842 123.094 558.132C123.094 558.422 122.74 558.661 122.303 558.661C121.254 558.661 121.295 558.463 122.832 556.03C124.138 553.955 124.147 553.881 124.147 541.309C124.147 533.235 124.336 528.677 124.672 528.677C125.008 528.677 125.196 533.847 125.196 543.14ZM139.531 529.022L146.238 529.362V543.485V557.608H137.295H128.352V543.14V528.677H130.588C131.821 528.677 135.841 528.833 139.531 529.022ZM404 541.585C404 553.067 404.078 554.121 405.09 556.099C405.711 557.318 406.024 558.606 405.817 559.103C405.569 559.71 405.385 559.774 405.21 559.314C405.077 558.956 404.511 558.661 403.959 558.661C402.988 558.661 402.951 558.095 402.951 543.931C402.951 534.459 403.135 529.201 403.476 529.201C403.811 529.201 404 533.677 404 541.585ZM414.521 541.056C414.521 554.728 413.983 557.079 410.841 557.079C407.699 557.079 407.156 554.728 407.156 541.056V529.201H410.841H414.521V541.056ZM399.795 544.193V558.661H390.853H381.91V544.483V530.31L384.408 530.112C385.778 530.006 389.804 529.873 393.35 529.822L399.795 529.725V544.193ZM119.11 561.591C120.191 562.672 120.168 565.423 119.064 566.638C117.353 568.533 113.429 567.438 113.084 564.973C112.707 562.268 113.939 560.763 116.516 560.763C117.491 560.763 118.655 561.136 119.11 561.591ZM147.291 563.919V567.075H136.771H126.25V563.919V560.763H136.771H147.291V563.919ZM413.168 561.591C414.466 562.884 414.424 565.18 413.076 566.679C411.416 568.538 407.483 567.406 407.142 564.973C406.765 562.268 407.998 560.763 410.578 560.763C411.549 560.763 412.713 561.136 413.168 561.591ZM401.898 564.973V568.128H391.377H380.856V564.973V561.817H391.377H401.898V564.973Z"/>
</mask>
<path fill-rule="evenodd" clip-rule="evenodd" d="M471.334 83.1728V166.346L468.703 169.221L466.076 172.101V177.055V182.01H463.969H461.867V187.199C461.867 191.569 462.032 192.599 462.902 193.708C463.937 195.019 463.937 195.028 462.902 195.962C462.042 196.744 461.867 197.591 461.867 201.032V205.158H458.711H455.555V200.949V196.74H433.856L412.156 196.735L409.787 195.13C379.632 174.672 335.668 182.718 315.404 212.408L312.809 216.203H291.85H270.891L265.293 211.663C206.837 164.294 119.911 181.987 86.1354 248.129L83.9043 252.495L61.5056 252.499H39.1069L38.4628 256.713C38.1086 259.032 37.9384 261.125 38.0902 261.364C38.2374 261.603 37.6532 262.321 36.7975 262.956C29.2163 268.559 30.2284 277.175 40.3259 293.005C51.0354 309.805 54.7064 317.676 54.7064 323.854V328.381L45.6347 328.008C28.8851 327.327 23.3602 328.951 15.4339 336.878C11.0268 341.285 7.41103 347.334 6.51858 351.801L6.21036 353.347L11.3903 354.359L16.5702 355.371L16.7082 374.66L16.8462 393.949L15.2913 396.396C12.6277 400.601 12.6231 400.683 12.6231 453.476V502.897H6.31157H0V511.84V520.782H6.30237H12.6047L12.7473 573.308L12.8853 625.834L14.7301 629.445C18.8657 637.556 26.999 640.104 46.8169 639.511C72.8498 638.724 75.7388 635.453 75.748 606.725V592.459L77.2845 592.151C84.0285 590.803 87.1981 579.215 88.1549 552.465C88.5367 541.686 88.3021 542.238 92.7782 541.589C97.5625 540.895 98.9012 537.905 96.7114 532.817C95.0783 529.022 95.589 528.672 103.294 528.295L109.417 527.991V540.89C109.417 553.757 109.422 553.799 110.765 556.205L112.113 558.615L110.954 560.179C106.45 566.27 114.312 573.759 120.674 569.444C123.011 567.857 123.094 567.848 123.094 569.182C123.094 570.203 123.444 570.231 136.771 570.231C150.098 570.231 150.447 570.203 150.447 569.182C150.447 568.478 150.797 568.128 151.501 568.128C152.476 568.128 152.554 567.779 152.554 563.395C152.554 559.439 152.416 558.661 151.726 558.661C149.536 558.661 149.394 557.769 149.394 543.706C149.394 536.304 149.587 530.254 149.822 530.254C152.025 530.254 160.315 539.165 165.472 547.087C170.021 554.065 173.867 557.957 178.44 560.207C181.375 561.647 182.069 562.245 182.566 563.754C185.262 571.924 206.538 574.541 211.207 567.282C212.22 565.709 212.436 565.63 216.889 565.313C228.495 564.476 236.744 559.475 245.042 548.228C247.333 545.127 250.673 541.235 252.463 539.579L255.715 536.566H260.421H265.127V533.884V531.207L267.395 532.536L269.668 533.866L323.288 532.072C352.781 531.082 377.323 530.268 377.829 530.264C378.685 530.254 378.749 531.266 378.749 544.23C378.749 558.854 378.62 559.71 376.422 559.71C375.731 559.71 375.593 560.492 375.593 564.444C375.593 568.828 375.672 569.182 376.647 569.182C377.351 569.182 377.7 569.532 377.7 570.231C377.7 571.257 378.05 571.284 391.377 571.284C404.704 571.284 405.054 571.257 405.054 570.231C405.054 568.998 405.385 568.957 407.156 569.969C413.219 573.433 420.299 565.801 416.182 560.234L415.068 558.73L416.366 556.458C417.649 554.222 417.668 554.006 417.672 541.751C417.681 527.214 417.014 528.433 424.678 528.976C430.976 529.422 431.749 529.928 430.479 532.785C427.935 538.48 429.973 542.353 435.512 542.353C438.217 542.353 438.718 543.407 438.723 549.097C438.732 574.675 442.647 590.739 449.345 592.652L451.084 593.154L451.346 609.443C451.778 636.093 455.56 639.695 483.056 639.658C501.268 639.635 508.445 637.137 512.369 629.445L514.209 625.839L514.351 573.308L514.494 520.782H521.321H528.148V511.84V502.897H521.312H514.471V453.563C514.471 415.841 514.314 403.614 513.813 401.617C512.571 396.69 513.16 351.396 514.462 351.396C515.028 351.396 517.295 351 519.494 350.517L523.497 349.639L523.152 347.757C522.439 343.907 519.655 339.127 515.966 335.428C511.803 331.256 511.959 332.149 513.408 321.149C517.107 293.092 507.985 277.516 488.719 278.969C471.941 280.234 464.714 293.814 467.396 319.047C468.307 327.622 468.33 328.252 467.732 328.252C467.484 328.252 467.125 326.182 466.932 323.647C465.142 300.126 457.175 286.413 440.729 278.528L436.91 276.697L464.774 276.683L492.638 276.674L499.345 270.597L506.052 264.525V258.512V252.499H495.532H485.011V241.289V230.078L483.539 228.665C482.724 227.888 481.777 227.249 481.432 227.249C480.972 227.249 480.806 224.967 480.806 218.637C480.806 211.686 480.654 209.896 480.029 209.377C479.357 208.82 479.426 208.503 480.553 207.026C482.209 204.855 482.485 197.779 480.976 196.114C480.148 195.199 480.181 195.056 481.505 193.676C482.83 192.296 482.909 191.919 482.909 187.111V182.01H480.806H478.699V177.119V172.229L476.597 170.173L474.49 168.121V84.0607V0H472.912H471.334V83.1728ZM474.067 171.852C475.451 173.177 475.543 173.531 475.543 177.639V182.01H472.388H469.232V177.699C469.232 173.738 469.347 173.269 470.644 171.912C472.369 170.113 472.259 170.118 474.067 171.852ZM479.753 188.156C479.753 192.852 478.773 193.584 472.461 193.584C466.012 193.584 465.023 192.871 465.023 188.229V185.165H472.388H479.753V188.156ZM385.59 188.257C412.299 194.407 432.066 215.187 436.354 241.624C437.665 249.698 437.481 252.499 435.632 252.499H434.123L433.75 248.161C432.848 237.664 427.089 220.224 424.816 221.121C409.433 227.175 382.715 237.843 382.563 237.99C382.452 238.105 382.848 239.154 383.451 240.327C385.475 244.297 386.211 244.086 370.358 244.086H356.18L356.903 241.693C357.298 240.378 358.255 238.469 359.033 237.452C359.81 236.431 360.362 235.525 360.261 235.432C359.244 234.517 320.146 216.728 319.903 217.064C314.465 224.493 309.837 236.1 309.837 242.31C309.837 243.994 309.745 244.086 307.965 244.086C306.428 244.086 306.134 243.915 306.346 243.161C306.488 242.655 306.769 241.178 306.967 239.876C312.197 205.301 350.471 180.169 385.59 188.257ZM206.736 189.099C226.913 192.084 245.401 200.079 261.971 212.983L266.443 216.466L252.499 216.792C244.835 216.972 222.699 217.151 203.313 217.188C166.134 217.261 161.497 217.496 154.656 219.663C144.435 222.897 136.14 230.828 132.552 240.796L131.37 244.086H121.024H110.678L107.283 248.267L103.892 252.449L95.8696 252.476C91.4579 252.49 87.8467 252.357 87.8467 252.187C87.8467 251.354 92.6264 242.839 95.5522 238.464C115.131 209.183 144.738 191.992 182.272 188.114C186.371 187.691 201.289 188.289 206.736 189.099ZM361.917 190.681C349.059 192.875 337.807 198.722 328.381 208.107C325.708 210.77 323.518 213.172 323.518 213.443C323.518 213.715 332.222 218.094 342.867 223.182L362.216 232.429L365.091 231.435C370.004 229.737 375.087 230.395 379.228 233.266L381.183 234.618L402.316 226.595C413.937 222.184 423.45 218.333 423.45 218.043C423.459 216.999 418.174 210.522 414.341 206.879C400.375 193.616 380.576 187.498 361.917 190.681ZM386.188 194.803C395.076 197.117 402.422 200.898 409.649 206.874C412.911 209.57 418.744 215.909 418.726 216.728C418.721 216.875 410.422 220.137 400.283 223.982L381.845 230.97L378.588 229.374C374.273 227.258 369.866 226.793 365.441 227.989L362.142 228.886L348.746 222.474C341.381 218.95 333.699 215.302 331.675 214.372L327.994 212.675L331.146 209.634C345.678 195.622 367.147 189.835 386.188 194.803ZM478.069 197.37C479.049 198.35 478.874 204.091 477.83 205.246C476.652 206.547 467.999 206.653 466.191 205.388C464.691 204.339 464.494 199.247 465.892 197.701C466.955 196.528 476.956 196.257 478.069 197.37ZM452.4 204.105V208.314H458.527C464.434 208.314 464.627 208.346 463.79 209.275C463.031 210.113 462.92 211.805 462.92 222.202V234.167L465.018 235.051L467.116 235.929L467.12 244.214L467.125 252.499H453.793H440.457L440.112 247.108C439.082 231.117 432.706 216.843 421.233 204.845L416.504 199.895H434.449H452.4V204.105ZM476.684 210.237C478.221 211.626 478.138 226.499 476.592 226.986C474.522 227.644 472.388 229.912 472.388 231.449C472.388 233.303 471.606 233.606 468.523 232.948L466.076 232.424V222.115C466.076 209.45 466.113 209.363 472.043 209.363C474.729 209.363 475.985 209.602 476.684 210.237ZM309.064 223.237C306.741 228.33 304.841 234.439 303.779 240.203C303.066 244.072 302.495 245.525 300.462 248.681L298.005 252.486H264.86L231.72 252.481L228.863 248.281L226.011 244.086H180.34H134.673L135.694 241.394C139.361 231.743 147.333 224.852 158.277 221.871C162.155 220.817 163.99 220.767 215.076 220.367C244.109 220.137 267.998 219.819 268.163 219.654C268.324 219.493 277.99 219.359 289.647 219.359H310.831L309.064 223.237ZM338.773 228.79C350.209 234.181 355.274 236.826 355.122 237.319C355.003 237.714 354.437 239.393 353.866 241.059L352.827 244.086H332.912H312.998V242.328C312.998 236.891 319.41 220.896 321.568 220.955C321.918 220.965 329.66 224.488 338.773 228.79ZM425.81 228.96C428.515 234.844 430.829 244.794 430.829 250.512C430.829 253.305 425.893 251.69 422.415 247.766L419.149 244.086H403.531H387.913L387.315 241.854C386.988 240.626 386.763 239.596 386.814 239.559C387.412 239.163 422.861 225.234 423.367 225.197C423.749 225.169 424.849 226.862 425.81 228.96ZM480.838 230.423C481.8 230.938 481.855 231.642 481.855 242.788V254.606H478.699H475.543V242.793C475.543 232.102 475.631 230.933 476.464 230.45C477.664 229.751 479.559 229.742 480.838 230.423ZM472.388 244.348C472.388 252.15 472.342 252.499 471.334 252.499C470.331 252.499 470.285 252.15 470.285 244.651C470.285 236.96 470.396 236.403 471.992 236.233C472.208 236.21 472.388 239.863 472.388 244.348ZM225.349 248.557C225.818 249.279 226.582 250.462 227.046 251.184L227.897 252.499H167.836H107.775L109.992 249.868L112.21 247.241H168.356H224.498L225.349 248.557ZM420.046 249.868L422.636 252.499H362.234H301.828L302.679 251.184C303.144 250.462 303.907 249.279 304.377 248.557L305.228 247.241H361.342H417.456L420.046 249.868ZM502.864 259.469L502.837 263.283L497.133 268.398L491.428 273.514L458.886 273.56C437.495 273.587 425.479 273.408 423.827 273.04C410.261 269.999 343.787 268.495 243.819 268.964C150.061 269.41 121.258 270.349 107.421 273.422C106.469 273.633 93.1508 273.744 77.8273 273.665L49.9635 273.523L45.5196 266.825C41.2874 260.449 41.0896 260.021 41.384 257.891L41.6968 255.655H272.294H502.897L502.864 259.469ZM41.6876 266.668C43.3713 269.047 43.4265 269.451 42.2857 271.195C39.4151 275.574 41.0712 281.973 47.3782 290.921C57.945 305.895 62.7568 315.795 63.0329 323.123L63.2215 328.252H60.5441H57.8622V323.284V318.316L53.9473 310.527C50.2073 303.089 46.8491 297.288 40.3397 287.038C34.065 277.157 33.3979 270.353 38.265 265.84C39.9809 264.249 39.9763 264.249 41.6876 266.668ZM373.491 272.966C385.498 273.283 399.552 273.785 404.718 274.084C445.324 276.448 461.407 290.051 463.781 324.043L464.093 328.514L459.691 332.061L455.293 335.603L447.008 335.613C442.449 335.613 438.718 335.507 438.718 335.369C438.718 335.235 439.431 334.007 440.301 332.636C450.412 316.687 440.756 293.948 422.788 291.409C373.289 284.398 276.674 280.221 215.375 282.438C166.709 284.2 107.504 289.067 99.8304 291.942C82.9244 298.277 77.6663 317.694 88.3389 334.375L91.4901 339.297L85.5926 339.288L79.695 339.274L74.3449 334.421C68.176 328.823 68.4612 329.724 69.7493 319.751C73.4755 291.018 86.9819 278.565 118.429 274.884C140.046 272.354 303.139 271.126 373.491 272.966ZM47.0193 274.595L48.4086 276.697L72.2058 276.724L96.003 276.747L92.769 278.243C78.6692 284.77 70.3473 296.427 67.4353 313.747L66.5015 319.286L64.2105 313.812C61.3722 307.022 56.1095 297.78 50.902 290.438C44.6824 281.67 42.9159 276.899 44.6732 273.619C45.4506 272.161 45.3908 272.138 47.0193 274.595ZM496.024 282.778C508.992 286.422 513.376 298.981 510.068 323.049L509.084 330.207L505.905 329.218C504.157 328.671 500.638 328.077 498.08 327.898L493.429 327.567V325.584C493.429 323.771 493.577 323.569 495.141 323.238C515.58 318.918 513.054 287.512 492.091 285.322C471.698 283.188 462.746 312.202 480.935 321.48L482.959 322.511L482.803 325.515L482.646 328.514L477.089 328.661L471.532 328.809L470.87 322.612C469.172 306.755 469.545 299.629 472.383 293.626C476.565 284.789 486.667 280.156 496.024 282.778ZM306.419 285.644C358.31 287.554 420.566 292.954 427.503 296.151C438.594 301.262 444.289 315.146 439.919 326.412C439.1 328.519 407.552 379.044 400.504 389.528L398.742 392.15V414.383V436.616H386.611H374.476L361.788 441.879L349.096 447.137H264.106H179.116L167.809 442.403C156.975 437.867 156.331 437.669 152.554 437.665C150.383 437.665 144.522 437.508 139.531 437.32L130.459 436.975V415.855V394.735L109.877 362.414C98.5607 344.638 88.5874 328.593 87.7179 326.766C82.3816 315.555 87.9157 301.065 99.628 295.586C106.395 292.421 160.453 287.646 211.732 285.681C227.575 285.074 290.268 285.051 306.419 285.644ZM497.33 290.07C512.635 297.554 507.308 320.611 490.274 320.611C481.036 320.611 474.251 313.816 474.251 304.579C474.251 292.439 486.469 284.757 497.33 290.07ZM259.078 293.469C256.575 294.62 255.453 295.793 254.363 298.401C253.65 300.108 253.553 307.914 253.553 364.157V427.977L254.735 430.318C258.222 437.223 267.818 437.223 271.305 430.318L272.492 427.977L272.478 364.042C272.469 303.13 272.423 300.006 271.499 298.005C269.286 293.18 263.95 291.234 259.078 293.469ZM210.678 295.328C208.719 296.207 206.455 298.58 205.715 300.535C204.799 302.96 204.947 427.728 205.867 429.936C206.828 432.237 209.988 434.909 212.247 435.333C216.328 436.101 220.744 433.736 222.331 429.936C223.398 427.383 223.384 302.716 222.317 300.223C220.367 295.659 214.998 293.4 210.678 295.328ZM235.929 295.328C233.97 296.207 231.706 298.58 230.966 300.535C230.05 302.96 230.197 427.728 231.117 429.936C232.705 433.736 237.121 436.101 241.201 435.333C243.46 434.909 246.62 432.237 247.582 429.936C248.649 427.383 248.635 302.716 247.568 300.223C245.613 295.659 240.249 293.4 235.929 295.328ZM284.324 295.328C282.364 296.207 280.101 298.58 279.36 300.535C278.445 302.96 278.592 427.728 279.512 429.936C280.474 432.237 283.634 434.909 285.893 435.333C289.973 436.101 294.39 433.736 295.977 429.936C297.044 427.383 297.03 302.716 295.963 300.223C294.012 295.659 288.644 293.4 284.324 295.328ZM309.575 295.328C307.615 296.207 305.352 298.58 304.611 300.535C303.696 302.96 303.843 427.728 304.763 429.936C305.725 432.237 308.885 434.909 311.144 435.333C315.224 436.101 319.64 433.736 321.227 429.936C322.295 427.383 322.281 302.716 321.214 300.223C319.263 295.659 313.895 293.4 309.575 295.328ZM267.446 297.711L269.07 299.339V364.024V428.704L267.349 430.424C265.872 431.905 265.27 432.145 263.02 432.145C260.775 432.145 260.173 431.905 258.691 430.424L256.971 428.704V364.056V299.404L258.287 297.987C260.982 295.089 264.709 294.974 267.446 297.711ZM185.428 298.728C182.925 299.878 181.807 301.051 180.717 303.659C180.004 305.366 179.907 312.86 179.907 366.26V426.923L181.09 429.269C184.577 436.17 194.173 436.17 197.66 429.269L198.842 426.923L198.833 366.145C198.824 308.296 198.773 305.265 197.853 303.263C195.64 298.442 190.299 296.492 185.428 298.728ZM217.137 298.797C218.085 299.372 219.092 300.453 219.373 301.193C220.072 303.033 220.072 427.116 219.373 428.952C218.057 432.411 212.693 433.345 209.942 430.594L208.576 429.228V365.119C208.576 301.745 208.59 300.996 209.63 299.836C211.686 297.55 214.464 297.163 217.137 298.797ZM242.388 298.797C243.336 299.372 244.339 300.453 244.624 301.193C245.323 303.033 245.323 427.116 244.624 428.952C243.308 432.411 237.944 433.345 235.193 430.594L233.827 429.228V365.119C233.827 301.745 233.836 300.996 234.876 299.836C236.937 297.55 239.711 297.163 242.388 298.797ZM291.901 299.556L293.267 300.922V365.073V429.228L291.809 430.686C290.608 431.887 289.89 432.145 287.747 432.145C285.598 432.145 284.881 431.887 283.68 430.686L282.222 429.228V365.119C282.222 301.745 282.236 300.996 283.275 299.836C285.534 297.324 289.541 297.191 291.901 299.556ZM317.152 299.556L318.518 300.922V365.073V429.228L317.06 430.686C315.859 431.887 315.141 432.145 312.998 432.145C310.849 432.145 310.132 431.887 308.931 430.686L307.473 429.228V365.119C307.473 301.745 307.486 300.996 308.526 299.836C310.785 297.324 314.792 297.191 317.152 299.556ZM333.772 298.728C331.27 299.878 330.152 301.051 329.062 303.659C328.349 305.366 328.252 312.86 328.252 366.26V426.923L329.434 429.269C332.024 434.399 338.221 436 343.051 432.784C344.026 432.14 345.356 430.557 346.005 429.269L347.187 426.923L347.178 366.145C347.164 308.296 347.118 305.265 346.198 303.263C343.985 298.442 338.644 296.492 333.772 298.728ZM160.181 301.888C154.275 304.597 154.656 300.227 154.656 365.211V421.665L155.839 424.007C159.326 430.912 168.922 430.912 172.409 424.007L173.596 421.665L173.582 365.096C173.573 311.328 173.522 308.42 172.602 306.419C170.389 301.598 165.053 299.648 160.181 301.888ZM193.795 302.974L195.424 304.598V366.126V427.655L193.703 429.375C192.227 430.852 191.62 431.091 189.375 431.091C187.13 431.091 186.527 430.852 185.046 429.375L183.325 427.655V366.158V304.662L184.641 303.25C187.337 300.347 191.063 300.236 193.795 302.974ZM342.14 302.974L343.769 304.598V366.126V427.655L342.048 429.375C340.572 430.852 339.964 431.091 337.719 431.091C335.475 431.091 334.872 430.852 333.391 429.375L331.67 427.655V366.158V304.662L332.986 303.25C335.682 300.347 339.408 300.236 342.14 302.974ZM359.023 301.644C357.064 302.518 354.8 304.892 354.06 306.847C353.144 309.271 353.291 421.417 354.211 423.62C357.229 430.838 367.658 430.838 370.676 423.62C371.743 421.072 371.729 309.023 370.662 306.534C368.711 301.971 363.343 299.712 359.023 301.644ZM168.549 306.129L170.173 307.753V365.073V422.392L168.453 424.112C165.964 426.606 162.288 426.606 159.795 424.112L158.074 422.392V365.105V307.818L159.39 306.405C162.086 303.507 165.812 303.392 168.549 306.129ZM366.6 305.867L367.966 307.233V365.073V422.916L366.508 424.375C365.307 425.575 364.59 425.833 362.446 425.833C360.298 425.833 359.58 425.575 358.379 424.375L356.921 422.916V365.119C356.921 308.062 356.935 307.302 357.974 306.152C360.233 303.636 364.24 303.503 366.6 305.867ZM117.725 306.088C98.0317 312.602 94.1721 338.718 111.234 350.044C130.97 363.141 155.494 344.256 148.253 321.545C144.407 309.474 129.815 302.09 117.725 306.088ZM395.586 305.858C368.366 313.444 373.684 354.115 401.898 354.138C422.751 354.161 434.04 331.044 421.371 314.263C415.924 307.049 404.58 303.351 395.586 305.858ZM133.748 309.966C150.015 317.455 150.631 340.71 134.769 348.714C117.767 357.298 98.8322 341.183 104.651 323.081C108.502 311.111 122.51 304.795 133.748 309.966ZM408.246 309.097C423.459 313.545 428.57 332.733 417.621 344.307C403.241 359.515 378.239 347.325 380.985 326.444C382.655 313.729 395.701 305.43 408.246 309.097ZM488.631 323.845C491.506 324.42 491.106 328.252 488.167 328.252H486.064V325.883C486.064 323.367 486.096 323.339 488.631 323.845ZM58.6534 331.413L66.5429 331.422L70.7521 335.392L74.9614 339.362L47.0837 339.044C31.751 338.87 19.0083 338.529 18.7737 338.294C18.2263 337.747 22.7897 334.366 25.9685 332.963C29.6211 331.343 33.6694 330.911 42.6077 331.169C47.0929 331.297 54.3108 331.408 58.6534 331.413ZM502.446 331.642C504.369 332.047 506.972 332.931 508.233 333.602L510.524 334.826L500.003 335.148C494.221 335.327 482.973 335.493 475.019 335.521L460.551 335.571L462.893 333.515L465.23 331.463L472.098 331.725C475.875 331.872 481.685 331.776 485.011 331.514C494.119 330.787 498.586 330.824 502.446 331.642ZM515.294 339.38C516.822 340.746 519.527 346.557 518.91 347.145C516.596 349.354 499.469 350.329 462.92 350.333H430.042L428.556 352.049C427.208 353.609 427.236 353.503 428.86 350.872C434.086 342.412 435.287 340.535 436 339.693C436.722 338.842 438.718 338.768 462.87 338.704C477.218 338.667 494.285 338.488 500.794 338.308C513.689 337.954 513.707 337.954 515.294 339.38ZM57.1951 342.278L93.6108 342.623L96.9644 347.932C98.8091 350.849 101.187 354.598 102.25 356.263C104.633 359.985 104.389 360.196 101.79 356.659L99.858 354.027L67.1547 354.018C34.1708 354.009 26.3181 353.715 16.3862 352.109C9.89978 351.056 9.84917 350.982 12.4069 346.115C14.5874 341.97 15.5489 341.289 18.6725 341.676C19.8318 341.814 37.1656 342.085 57.1951 342.278ZM510.262 373.326V394.202L508.817 392.849C500.974 385.498 465.878 385.41 457.193 392.72C451.76 397.293 451.364 399.795 451.355 429.647L451.346 454.502H434.514H417.677V448.958C417.677 444.381 417.488 443.038 416.586 441.271L415.496 439.132L417.378 437.407C421.73 433.419 421.996 427.402 418.013 423.022C414.093 418.712 406.066 419.356 402.942 424.227L401.916 425.833L401.907 409.608C401.898 393.691 401.921 393.346 403.066 391.722C403.706 390.807 410.353 381.836 417.838 371.78L431.445 353.503L464.144 353.448C482.131 353.42 498.862 353.222 501.319 353.006C503.78 352.79 506.798 352.574 508.026 352.532L510.262 352.45V373.326ZM61.9288 356.985L98.3445 357.271L100.217 359.824L102.094 362.381L102.066 384.9L102.034 407.423L104.587 415.05C106.745 421.504 107.31 422.7 108.276 422.843C109.638 423.045 109.652 423.137 108.576 424.789C106.142 428.501 106.892 434.164 110.204 437.071C112.403 438.999 112.403 439.004 110.733 441.465C109.532 443.227 109.417 443.894 109.417 448.949V454.502H92.5804H75.748V430.139C75.748 397.67 75.0764 394.809 66.3957 390.383C58.7132 386.464 29.8235 386.482 21.9617 390.411L19.9882 391.4V373.712V356.029L22.7483 356.364C24.271 356.548 41.8992 356.829 61.9288 356.985ZM134.213 362.639C128.439 364.728 124.745 371.504 126.254 377.245C129.58 389.933 147.6 389.744 150.433 376.987C152.499 367.709 143.124 359.414 134.213 362.639ZM386.639 362.409C372.175 366.807 375.938 387.513 391.027 386.551C396.681 386.192 401.36 381.914 402.197 376.334C403.489 367.709 394.8 359.93 386.639 362.409ZM142.424 366.191C151.188 370.432 148.11 383.488 138.348 383.488C135.239 383.488 133.228 382.586 131.356 380.364C124.86 372.645 133.339 361.793 142.424 366.191ZM393.783 366.071C402.602 370.078 399.782 383.488 390.121 383.488C384.463 383.488 380.819 379.991 380.773 374.531C380.723 367.598 387.476 363.21 393.783 366.071ZM127.303 407.924V419.784H118.402H109.505L107.356 413.339L105.208 406.894V386.662V366.43L116.253 381.243L127.303 396.06V407.924ZM58.98 391.704C64.873 392.711 65.9356 393.208 68.7648 396.276C72.284 400.094 72.2518 399.814 72.4588 428.593L72.6474 454.502H61.8138C51.0078 454.502 50.9756 454.506 49.6875 455.794L48.3948 457.083V477.121V497.16L49.6875 498.453C50.971 499.736 51.0124 499.741 61.7954 499.741H72.6198L72.4726 562.208L72.33 624.68L71.0787 627.444C67.8309 634.634 59.9829 636.958 41.0298 636.327C27.2106 635.872 22.9185 634.777 19.3119 630.784C15.4983 626.561 15.7559 635.509 15.9077 512.346L16.0411 401.636L17.619 398.742C20.4482 393.557 23.8248 392.081 35.7717 390.816C41.223 390.236 53.0549 390.692 58.98 391.704ZM497.639 391.658C505.836 392.973 510.252 396.925 511.048 403.664C511.886 410.795 511.071 625.158 510.197 627.081C506.876 634.391 501.337 636.249 482.909 636.249C467.479 636.249 461.825 635.058 458.315 631.06C454.483 626.694 454.782 632.256 454.621 562.475L454.479 499.741H465.299C476.086 499.741 476.123 499.736 477.407 498.453L478.699 497.16V477.121V457.083L477.407 455.794C476.123 454.506 476.086 454.502 465.285 454.502H454.447L454.608 428.331C454.824 392.66 454.907 392.513 476.068 390.641C480.342 390.264 492.541 390.839 497.639 391.658ZM119.713 423.938C124.663 426.183 124.828 433.299 119.984 435.802C113.355 439.229 106.758 430.258 112.173 425.171C114.625 422.87 116.635 422.539 119.713 423.938ZM127.303 431.551V440.167L141.638 440.545L155.972 440.922L167.243 445.61L178.518 450.293H264.101H349.685L362.391 445.034L375.101 439.772H388.497H401.898V437.122V434.468L404.042 436.722L406.19 438.981L405.095 441.23C404.203 443.075 404 444.487 404 448.991V454.502H264.074H124.147V448.968C124.147 443.921 124.028 443.245 122.781 441.276L121.419 439.114L123.388 437.209C126.99 433.718 127.717 429.711 125.532 425.396L124.29 422.939H125.794H127.303V431.551ZM414.935 424.402C417.667 426.192 418.463 430.327 416.646 433.304C413.541 438.396 406.167 437.306 404.566 431.514C402.933 425.603 409.691 420.966 414.935 424.402ZM119.625 442.104C120.835 444.17 120.987 444.998 120.987 449.465V454.502H116.782H112.573V449.428C112.573 440.733 116.456 436.694 119.625 442.104ZM413.366 442.155C414.309 444.096 414.521 445.458 414.521 449.52V454.502H410.841H407.156V449.221C407.156 440.278 410.569 436.395 413.366 442.155ZM475.281 477.121V496.323H263.549H51.8128L51.6748 477.65C51.6012 467.383 51.6518 458.683 51.7898 458.32C51.9922 457.786 94.1767 457.685 263.664 457.791L475.281 457.92V477.121ZM146.238 508.159V516.573H137.295H128.352V508.159V499.741H137.295H146.238V508.159ZM378.749 502.427V505.114L377.273 503.531C374.618 500.693 379.062 500.799 265.127 500.808C161.216 500.817 158.548 500.84 156.377 501.825C153.391 503.182 152.25 505.224 151.85 509.935C151.478 514.351 151.192 515.327 150.144 515.727C149.518 515.971 149.394 514.701 149.394 507.879V499.741H264.074H378.749V502.427ZM399.795 508.159V516.573H390.853H381.91V508.159V499.741H390.853H399.795V508.159ZM404 500.794C404 501.374 403.765 501.848 403.476 501.848C403.186 501.848 402.951 501.374 402.951 500.794C402.951 500.215 403.186 499.741 403.476 499.741C403.765 499.741 404 500.215 404 500.794ZM414.521 500.794C414.521 501.747 414.171 501.848 410.841 501.848C407.51 501.848 407.156 501.747 407.156 500.794C407.156 499.842 407.51 499.741 410.841 499.741C414.171 499.741 414.521 499.842 414.521 500.794ZM451.346 500.794C451.346 501.825 450.996 501.848 434.514 501.848C418.031 501.848 417.677 501.825 417.677 500.794C417.677 499.764 418.031 499.741 434.514 499.741C450.996 499.741 451.346 499.764 451.346 500.794ZM124.147 504.475V506.052H99.9454H75.748V504.475V502.897H99.9454H124.147V504.475ZM374.591 505.339C375.455 506.204 375.814 507.446 376.141 510.694C376.974 518.965 377.691 519.421 390.103 519.632L399.795 519.798V521.344V522.889H388.014C373.717 522.889 374.158 523.069 373.468 516.904C372.898 511.853 371.794 509.825 368.767 508.288L366.43 507.106H265.652H164.874L162.56 508.288C158.833 510.193 157.762 512.668 157.311 520.387C157.177 522.646 155.664 522.889 141.766 522.889H128.352V521.339V519.789L139.365 519.628C153.529 519.421 154.247 519.016 154.978 510.74C155.328 506.752 156.055 505.275 158.074 504.447C158.654 504.208 207.352 504.056 266.296 504.111L373.464 504.212L374.591 505.339ZM450.293 506.581V508.159H426.62H402.951V506.581V505.004H426.62H450.293V506.581ZM12.6231 511.84V517.627H7.88946H3.15578V511.84V506.052H7.88946H12.6231V511.84ZM524.992 511.84V517.627H519.734H514.471V511.84V506.052H519.734H524.992V511.84ZM109.417 517.019V524.831L103.129 525.148C92.654 525.673 91.0577 527.513 94.2273 535.375C95.1151 537.583 94.5447 538.158 90.9059 538.724C85.7582 539.524 85.4086 540.334 84.9899 552.414C84.2769 573.042 82.1884 584.524 78.5358 587.905C75.6146 590.615 75.748 592.505 75.748 549.189V509.213H92.5804H109.417V517.019ZM120.987 512.893V516.573H117.831H114.675V520.782C114.675 524.642 114.588 524.992 113.627 524.992C112.619 524.992 112.573 524.642 112.573 517.102V509.213H116.782H120.987V512.893ZM125.196 512.893C125.196 514.995 124.971 516.573 124.672 516.573C124.373 516.573 124.147 514.995 124.147 512.893C124.147 510.791 124.373 509.213 124.672 509.213C124.971 509.213 125.196 510.791 125.196 512.893ZM170.449 525.125L170.463 539.984L172.197 542.772C179.259 554.111 189.476 558.551 207.214 557.985C223.214 557.479 233.404 552.727 240.088 542.657L241.979 539.805V525.033V510.262H251.975H261.971V521.836V533.41H258.779C253.659 533.41 250.176 536.083 243.276 545.316C233.928 557.824 226.729 562.051 214.759 562.07L209.363 562.079V563.455C209.363 571.284 186.384 569.292 185.322 561.371C185.055 559.374 184.899 559.218 182.341 558.39C176.793 556.586 173.361 553.311 167.054 543.802C162.454 536.865 157.725 531.8 152.72 528.442L149.325 526.165L153.028 525.958C158.567 525.645 160.968 522.646 160.968 516.049C160.968 512.267 163.323 510.321 167.937 510.285L170.435 510.262L170.449 525.125ZM238.823 524.67V539.078L236.458 542.293C230.299 550.657 221.793 554.341 207.523 554.82C191.146 555.367 181.734 551.627 175.606 542.142L173.596 539.032V524.647V510.262H206.207H238.823V524.67ZM368.532 511.904C369.654 513.026 369.99 514.015 370.354 517.263C371.039 523.368 373.183 526.045 377.383 526.045C378.137 526.045 378.749 526.28 378.749 526.57C378.749 526.859 378.22 527.103 377.567 527.112C376.918 527.122 352.606 527.922 323.546 528.897L270.707 530.668L267.915 529.298L265.127 527.931V519.09V510.248L316.14 510.386L367.157 510.524L368.532 511.904ZM404 513.946C404 515.391 403.765 516.573 403.476 516.573C403.186 516.573 402.951 515.391 402.951 513.946C402.951 512.497 403.186 511.315 403.476 511.315C403.765 511.315 404 512.497 404 513.946ZM414.521 513.946V516.573H410.841H407.156V513.946V511.315H410.841H414.521V513.946ZM451.346 550.505C451.346 593.706 451.525 591.535 448.199 588.209C444.597 584.607 441.925 568.142 441.888 549.355C441.874 541.819 440.301 539.202 435.797 539.197C432.48 539.193 431.974 538.176 433.345 534.316C435.673 527.779 430.309 524.449 419.388 525.645L417.677 525.834V518.574V511.315H434.514H451.346V550.505ZM125.196 521.312V522.889H121.516H117.831V521.312V519.734H121.516H125.196V521.312ZM412.419 521.312V522.889H407.685H402.951V521.312V519.734H407.685H412.419V521.312ZM399.749 526.234C399.22 526.698 381.91 526.988 381.91 526.533C381.91 526.252 385.709 526.045 390.94 526.045C395.904 526.045 399.869 526.128 399.749 526.234ZM118.751 528.667L120.987 528.677V540.812C120.987 555.055 120.306 557.621 116.649 557.194C113.047 556.775 112.573 554.824 112.573 540.467V528.01L114.547 528.336C115.628 528.516 117.523 528.667 118.751 528.667ZM125.196 543.14C125.196 557.258 125.173 557.608 124.147 557.608C123.568 557.608 123.094 557.842 123.094 558.132C123.094 558.422 122.74 558.661 122.303 558.661C121.254 558.661 121.295 558.463 122.832 556.03C124.138 553.955 124.147 553.881 124.147 541.309C124.147 533.235 124.336 528.677 124.672 528.677C125.008 528.677 125.196 533.847 125.196 543.14ZM139.531 529.022L146.238 529.362V543.485V557.608H137.295H128.352V543.14V528.677H130.588C131.821 528.677 135.841 528.833 139.531 529.022ZM404 541.585C404 553.067 404.078 554.121 405.09 556.099C405.711 557.318 406.024 558.606 405.817 559.103C405.569 559.71 405.385 559.774 405.21 559.314C405.077 558.956 404.511 558.661 403.959 558.661C402.988 558.661 402.951 558.095 402.951 543.931C402.951 534.459 403.135 529.201 403.476 529.201C403.811 529.201 404 533.677 404 541.585ZM414.521 541.056C414.521 554.728 413.983 557.079 410.841 557.079C407.699 557.079 407.156 554.728 407.156 541.056V529.201H410.841H414.521V541.056ZM399.795 544.193V558.661H390.853H381.91V544.483V530.31L384.408 530.112C385.778 530.006 389.804 529.873 393.35 529.822L399.795 529.725V544.193ZM119.11 561.591C120.191 562.672 120.168 565.423 119.064 566.638C117.353 568.533 113.429 567.438 113.084 564.973C112.707 562.268 113.939 560.763 116.516 560.763C117.491 560.763 118.655 561.136 119.11 561.591ZM147.291 563.919V567.075H136.771H126.25V563.919V560.763H136.771H147.291V563.919ZM413.168 561.591C414.466 562.884 414.424 565.18 413.076 566.679C411.416 568.538 407.483 567.406 407.142 564.973C406.765 562.268 407.998 560.763 410.578 560.763C411.549 560.763 412.713 561.136 413.168 561.591ZM401.898 564.973V568.128H391.377H380.856V564.973V561.817H391.377H401.898V564.973Z" stroke="black" stroke-width="14" mask="url(#path-2-inside-1_1717_604)"/>
</svg>
