<svg width="2049" height="697" viewBox="0 0 2049 697" fill="none" xmlns="http://www.w3.org/2000/svg">
<path fill-rule="evenodd" clip-rule="evenodd" d="M1150.64 217.828L1150.51 309.656L1132.58 313.99C1112.14 318.936 1110.15 319.733 1104.77 325.139C1097.28 332.673 1096.43 336.339 1096.42 361.097L1096.41 380.043H1091.71H1087V389.976C1087 396.249 1087.19 399.91 1087.52 399.91C1087.87 399.91 1088.05 443.949 1088.05 530.984C1088.05 677.619 1087.7 664.627 1091.71 666.631C1094.49 668.021 1133.88 668.021 1136.66 666.631C1140.5 664.71 1140.31 667.045 1140.32 619.786V577.52L1150.38 577.833C1155.92 578.008 1166.71 578.293 1174.36 578.473L1188.28 578.795L1188.62 573.642C1188.81 570.805 1189.09 567.632 1189.25 566.591L1189.53 564.699L1194.06 564.381C1196.56 564.21 1204.13 564.008 1210.89 563.934L1223.17 563.801L1222.97 575.945L1222.78 588.089H1224.94H1227.09V590.704V593.315H1235.98H1244.86V590.704C1244.86 588.148 1244.9 588.089 1246.43 588.089H1248V576.202V564.316L1250.43 567.968C1263.5 587.573 1283 599.477 1299.23 597.75C1312.64 596.323 1321.17 591.28 1337.05 575.378C1352.9 559.504 1354.26 559.053 1381.82 560.581C1390.01 561.033 1403.77 561.654 1412.4 561.954C1421.02 562.258 1430.7 562.635 1433.9 562.801L1439.71 563.096L1439.44 575.59L1439.17 588.089H1441.86H1444.55V590.704V593.315H1452.91H1461.27V590.704C1461.27 588.148 1461.31 588.089 1462.84 588.089H1464.41V575.806V563.52L1476.56 563.501L1488.71 563.483L1495.25 570.229L1501.78 576.976L1518.51 576.548C1527.71 576.313 1538.35 576.046 1542.17 575.949L1549.09 575.774V618.916C1549.09 658.94 1549.16 662.187 1550 663.886C1551.81 667.501 1552.09 667.542 1575.23 667.542C1598.37 667.542 1598.64 667.501 1600.45 663.886C1601.31 662.159 1601.36 654.721 1601.36 530.984C1601.36 443.949 1601.54 399.91 1601.89 399.91C1602.21 399.91 1602.41 396.249 1602.41 389.976V380.043H1597.71H1593V361.074C1593 336.371 1592.23 333.267 1584.13 325.107C1578.55 319.484 1576.73 318.756 1556.02 313.852L1538.64 309.739L1538.64 217.87L1538.63 126H1344.7H1150.78L1150.64 217.828ZM1535.5 215.963V302.795L1533.24 299.732C1528.58 293.405 1521.18 288.449 1513.74 286.681C1510.21 285.843 1189.96 286.437 1180.31 287.303C1170.32 288.196 1160.26 293.971 1155.39 301.607L1153.91 303.932V216.534V129.136H1344.7H1535.5V215.963ZM1157.05 192.384V253.546H1344.18H1531.32V192.384V131.227H1344.18H1157.05V192.384ZM1528.18 192.384V250.406H1344.18H1160.18V192.384V134.363H1344.18H1528.18V192.384ZM1164.36 192.384V248.315H1252.71H1341.05V192.384V136.454H1252.71H1164.36V192.384ZM1348.37 192.384V248.315H1436.7H1525.04V192.384V136.454H1436.7H1348.37V192.384ZM1337.91 192.384C1337.91 250.838 1338.15 247.435 1334.4 241.895C1309.58 205.242 1251.56 205.099 1227.09 241.637L1224.74 245.146L1196.12 245.165L1167.5 245.179V192.384V139.59H1252.71H1337.91V192.384ZM1521.91 192.384V245.179H1436.7H1351.5V192.384V139.59H1436.7H1521.91V192.384ZM1287.47 217.497C1301.19 219.049 1313.79 224.939 1323.73 234.453C1327.63 238.188 1332.68 244.069 1332.68 244.879C1332.68 245.045 1309.26 245.179 1280.64 245.179H1228.6L1229.55 243.558C1239.15 227.025 1265.79 215.042 1287.47 217.497ZM1513.55 289.863C1520.93 291.816 1528.42 297.407 1532.21 303.78C1535.83 309.878 1534.94 309.97 1529.09 304.103C1524.4 299.396 1520.31 296.992 1515.12 295.905C1512.97 295.459 1469.39 295.348 1343.92 295.463L1175.6 295.624L1172.46 296.877C1167.91 298.701 1164.2 301.224 1160.44 305.056C1157.23 308.326 1154.96 309.504 1155.71 307.515C1158.17 300.934 1165.02 294.837 1173.39 291.779L1177.17 290.397L1206.44 290.241C1446.98 288.947 1509.8 288.868 1513.55 289.863ZM1518.77 300.386C1522.3 302.076 1528.18 306.428 1527.32 306.714C1527.05 306.806 1520.37 305.3 1512.48 303.37C1499.73 300.257 1497.57 299.87 1493.16 299.893C1481.66 299.962 1470.52 306.87 1465.43 317.094C1464.44 319.083 1463.55 320.829 1463.45 320.972C1463.36 321.114 1463.03 320.773 1462.72 320.216C1461.38 317.826 1457.86 314.685 1454.59 312.977C1447.17 309.085 1449.91 309.283 1400.24 309.09C1372.15 308.98 1355.68 308.726 1355.68 308.413C1355.68 308.132 1355.92 307.906 1356.2 307.906C1356.5 307.906 1356.73 306.341 1356.73 304.25V300.589H1344.18H1331.63V304.25C1331.63 307.561 1331.74 307.906 1332.68 307.906C1333.26 307.906 1333.73 308.132 1333.73 308.408C1333.73 308.726 1318.23 308.975 1292.04 309.076C1250.82 309.237 1250.31 309.251 1246.23 310.398C1238.09 312.691 1229.98 317.854 1227.64 322.233C1226.62 324.145 1226.35 323.969 1225.32 320.681C1223.15 313.81 1216.4 306.456 1209.06 302.965C1200.23 298.77 1195.42 298.802 1177.5 303.158C1170.21 304.936 1164.13 306.285 1164.01 306.161C1163.68 305.83 1167.97 302.449 1170.12 301.349C1176.02 298.314 1161.26 298.539 1346.53 298.655L1515.37 298.76L1518.77 300.386ZM1204.35 304.342C1218.98 309.205 1223.95 318.439 1223.95 340.686V353.908H1215.4H1206.84L1207.55 350.901C1211.88 332.512 1195.28 315.293 1176.91 319.106C1162.06 322.187 1152.79 336.417 1156.2 350.901L1156.91 353.908H1155.36H1153.81L1154.03 338.881C1154.27 321.916 1155.83 314.437 1159.8 311.144C1160.38 310.66 1185.88 304.25 1192.07 303.03C1194.44 302.564 1201.16 303.283 1204.35 304.342ZM1512.49 306.64C1520.4 308.524 1527.76 310.297 1528.83 310.573C1533.63 311.821 1535.1 317.955 1535.36 337.836L1535.58 353.908H1533.91C1532.42 353.908 1532.28 353.784 1532.62 352.734C1536.38 341.05 1529.92 326.613 1518.51 321.179C1498.02 311.425 1476.19 330.099 1481.93 352.471L1482.29 353.908H1473.35H1464.41L1464.44 350.643C1464.72 318.485 1469.19 308.763 1485.86 304.056C1492.49 302.187 1494.7 302.399 1512.49 306.64ZM1353.59 304.25C1353.59 304.535 1353.36 304.77 1353.07 304.77C1352.78 304.77 1352.55 305.714 1352.55 306.861V308.952H1344.7H1336.87V306.861C1336.87 305.12 1336.69 304.77 1335.82 304.77C1335.24 304.77 1334.78 304.535 1334.78 304.25C1334.78 303.918 1338.26 303.725 1344.18 303.725C1350.11 303.725 1353.59 303.918 1353.59 304.25ZM1154.76 313.479L1153.95 314.966L1153.93 313.571C1153.92 312.802 1154.2 312.07 1154.56 311.945C1155.58 311.577 1155.62 311.881 1154.76 313.479ZM1444.96 312.908C1453.86 314.722 1460.11 319.392 1461.47 325.254C1461.65 326.028 1461.33 360.369 1460.76 401.572C1460.18 442.775 1459.71 476.9 1459.71 477.402C1459.71 478.272 1453.82 478.318 1343.39 478.318H1227.08L1227.22 403.958L1227.35 329.602L1228.77 326.585C1232 319.682 1240.98 314.137 1251.38 312.604C1257.28 311.738 1440.62 312.028 1444.96 312.908ZM1150.77 333.521V353.908H1148.09H1145.41L1145.74 351.394C1146.43 346.254 1144.38 340.336 1140.57 336.413C1128.32 323.813 1106.56 334.331 1108.98 351.688L1109.28 353.908H1104.42H1099.54V348.004C1099.54 335.897 1104.81 326.369 1113.76 322.293C1116.2 321.188 1147.46 313.29 1149.86 313.179C1150.71 313.138 1150.77 314.437 1150.77 333.521ZM1555.95 317.052C1574.66 321.52 1577.24 322.514 1581.76 326.986C1587.51 332.669 1589.86 338.867 1589.86 348.267V353.908H1585.03H1580.19V349.321C1580.19 329.767 1553.97 323.679 1545.16 341.188C1543.79 343.901 1543.62 344.771 1543.61 349.073L1543.6 353.908H1541.12H1538.63V333.521C1538.63 322.307 1538.84 313.133 1539.09 313.133C1539.34 313.133 1546.92 314.897 1555.95 317.052ZM1185.53 322.012C1199.37 324.264 1208.04 338.246 1204.08 351.946L1203.52 353.908H1181.9H1160.28L1159.67 352.209C1153.99 336.473 1168.72 319.281 1185.53 322.012ZM1511.23 322.068C1524.9 324.564 1534.29 340.346 1529.32 352.471L1528.73 353.908H1507.27H1485.82L1485.32 352.596C1479.19 336.487 1494.09 318.936 1511.23 322.068ZM1333.03 328.082C1317.04 330.974 1318.02 340.318 1334.51 342.128C1336.23 342.317 1338.3 342.598 1339.1 342.745L1340.55 343.017L1338.84 344.154C1337.89 344.781 1336.59 346.337 1335.95 347.617L1334.78 349.948V407.227V464.503L1335.95 466.833C1339.41 473.69 1348.95 473.69 1352.41 466.833L1353.59 464.503V407.227V349.948L1352.41 347.617C1351.77 346.337 1350.47 344.776 1349.52 344.145L1347.79 343.003L1350.3 342.694C1364.34 340.977 1370.53 336.896 1366.17 332.254C1362.2 328.022 1345.2 325.881 1333.03 328.082ZM1354.96 331.19C1365.85 333.079 1366.77 336.289 1357.06 338.494C1341.64 342.004 1316.36 337.048 1327.66 332.733C1333.65 330.444 1346.49 329.721 1354.96 331.19ZM1134.62 335.731C1139.87 338.831 1142.59 343.468 1142.61 349.331C1142.63 354.207 1143.56 353.945 1126.95 353.784L1112.35 353.646L1112.08 351.555C1110.49 339.093 1124.11 329.528 1134.62 335.731ZM1568.17 335.289C1574.46 338.255 1578.09 344.859 1577.09 351.532L1576.73 353.908H1561.88H1547.02L1546.68 352.554C1543.74 340.834 1557.12 330.076 1568.17 335.289ZM1246.17 343.39C1243.68 344.532 1242.57 345.697 1241.49 348.29C1240.78 349.984 1240.68 357.118 1240.68 407.361V464.503L1241.86 466.833C1245.32 473.69 1254.86 473.69 1258.32 466.833L1259.5 464.503L1259.49 407.246C1259.48 352.803 1259.43 349.883 1258.52 347.898C1256.32 343.104 1251.01 341.17 1246.17 343.39ZM1269.17 343.39C1266.68 344.532 1265.57 345.697 1264.49 348.29C1263.78 349.984 1263.68 357.118 1263.68 407.361V464.503L1264.86 466.833C1268.32 473.69 1277.86 473.69 1281.32 466.833L1282.5 464.503L1282.49 407.246C1282.48 352.803 1282.43 349.883 1281.52 347.898C1279.31 343.104 1274.01 341.17 1269.17 343.39ZM1293.22 343.39C1290.73 344.532 1289.62 345.697 1288.53 348.29C1287.82 349.984 1287.73 357.118 1287.73 407.361V464.503L1288.9 466.833C1292.37 473.69 1301.9 473.69 1305.37 466.833L1306.54 464.503L1306.54 407.246C1306.52 352.803 1306.48 349.883 1305.56 347.898C1303.36 343.104 1298.06 341.17 1293.22 343.39ZM1316.22 343.39C1313.73 344.532 1312.61 345.697 1311.53 348.29C1310.82 349.984 1310.73 357.118 1310.73 407.361V464.503L1311.91 466.833C1315.37 473.69 1324.91 473.69 1328.37 466.833L1329.54 464.503L1329.53 407.246C1329.53 352.803 1329.47 349.883 1328.56 347.898C1326.36 343.104 1321.06 341.17 1316.22 343.39ZM1363.78 343.394C1361.26 344.564 1359.66 346.217 1358.58 348.801C1357.22 352.052 1357.39 463.066 1358.76 466.032C1361.66 472.313 1369.39 473.911 1374.43 469.274C1377.8 466.179 1377.61 469.835 1377.61 407.227C1377.61 353.19 1377.57 350.413 1376.65 348.419C1374.28 343.298 1368.72 341.119 1363.78 343.394ZM1387.31 343.39C1384.82 344.532 1383.71 345.697 1382.62 348.29C1381.91 349.984 1381.82 357.118 1381.82 407.361V464.503L1383 466.833C1383.64 468.113 1384.96 469.688 1385.93 470.328C1390.73 473.52 1396.89 471.931 1399.46 466.833L1400.63 464.503L1400.63 407.246C1400.62 352.803 1400.57 349.883 1399.65 347.898C1397.45 343.104 1392.15 341.17 1387.31 343.39ZM1410.83 343.394C1408.3 344.564 1406.71 346.217 1405.63 348.801C1404.27 352.052 1404.44 463.066 1405.81 466.032C1408.71 472.313 1416.43 473.911 1421.48 469.274C1424.85 466.179 1424.66 469.835 1424.66 407.227C1424.66 353.19 1424.61 350.413 1423.69 348.419C1421.33 343.298 1415.76 341.119 1410.83 343.394ZM1434.35 343.39C1431.87 344.532 1430.75 345.697 1429.67 348.29C1428.96 349.984 1428.86 357.118 1428.86 407.361V464.503L1430.04 466.833C1430.69 468.113 1432.01 469.688 1432.97 470.328C1437.78 473.52 1443.93 471.931 1446.51 466.833L1447.68 464.503L1447.67 407.246C1447.66 352.803 1447.61 349.883 1446.7 347.898C1444.5 343.104 1439.19 341.17 1434.35 343.39ZM1254.49 347.608L1256.1 349.225V407.227V465.23L1254.4 466.939C1252.92 468.408 1252.32 468.647 1250.09 468.647C1247.86 468.647 1247.26 468.408 1245.79 466.939L1244.08 465.23V407.26V349.289L1245.39 347.88C1248.06 345.002 1251.77 344.886 1254.49 347.608ZM1277.49 347.608L1279.1 349.225V407.227V465.23L1277.39 466.939C1275.92 468.408 1275.32 468.647 1273.09 468.647C1270.86 468.647 1270.26 468.408 1268.79 466.939L1267.08 465.23V407.26V349.289L1268.39 347.88C1271.07 345.002 1274.77 344.886 1277.49 347.608ZM1301.53 347.608L1303.15 349.225V407.227V465.23L1301.44 466.939C1299.97 468.408 1299.37 468.647 1297.14 468.647C1294.9 468.647 1294.3 468.408 1292.84 466.939L1291.13 465.23V407.26V349.289L1292.43 347.88C1295.11 345.002 1298.81 344.886 1301.53 347.608ZM1324.53 347.608L1326.15 349.225V407.227V465.23L1324.44 466.939C1322.97 468.408 1322.37 468.647 1320.14 468.647C1317.91 468.647 1317.3 468.408 1315.83 466.939L1314.13 465.23V407.26V349.289L1315.43 347.88C1318.11 345.002 1321.81 344.886 1324.53 347.608ZM1348.58 347.608L1350.19 349.225V407.227V465.23L1348.48 466.939C1347.02 468.408 1346.41 468.647 1344.18 468.647C1341.95 468.647 1341.35 468.408 1339.88 466.939L1338.17 465.23V407.26V349.289L1339.48 347.88C1342.16 345.002 1345.86 344.886 1348.58 347.608ZM1371.69 346.844C1374.63 348.769 1374.53 346.429 1374.38 407.973C1374.24 464.544 1374.24 464.655 1373.15 466.124C1370.6 469.559 1364.81 469.559 1362.26 466.124C1360.68 463.987 1360.26 352.319 1361.82 349.202C1363.54 345.766 1368.31 344.629 1371.69 346.844ZM1395.62 347.608L1397.24 349.225V407.227V465.23L1395.53 466.939C1394.06 468.408 1393.46 468.647 1391.23 468.647C1389 468.647 1388.39 468.408 1386.92 466.939L1385.22 465.23V407.26V349.289L1386.52 347.88C1389.2 345.002 1392.9 344.886 1395.62 347.608ZM1418.73 346.844C1421.68 348.769 1421.57 346.429 1421.42 407.973C1421.28 464.544 1421.28 464.655 1420.19 466.124C1417.65 469.559 1411.85 469.559 1409.31 466.124C1407.73 463.987 1407.3 352.319 1408.87 349.202C1410.59 345.766 1415.35 344.629 1418.73 346.844ZM1442.67 347.608L1444.28 349.225V407.227V465.23L1442.57 466.939C1441.11 468.408 1440.51 468.647 1438.27 468.647C1436.04 468.647 1435.44 468.408 1433.97 466.939L1432.26 465.23V407.26V349.289L1433.57 347.88C1436.25 345.002 1439.95 344.886 1442.67 347.608ZM1111.96 359.665C1113.89 362.612 1117.68 365.633 1120.59 366.531L1122.55 367.144V373.591V380.043H1111.04H1099.54V368.543V357.044L1104.91 357.053L1110.26 357.063L1111.96 359.665ZM1140.32 357.505C1140.32 360.226 1132.51 364.532 1127.51 364.569C1122.45 364.611 1114.18 360.199 1114.18 357.459C1114.18 357.228 1120.06 357.044 1127.25 357.044C1134.45 357.044 1140.32 357.252 1140.32 357.505ZM1150.77 368.543V380.043H1141.89H1133V373.536V367.024L1135.31 366.001C1138.13 364.753 1141.88 361.392 1143.22 358.891C1144.2 357.081 1144.28 357.044 1147.49 357.044H1150.77V368.543ZM1159.79 359.324C1161.86 362.594 1166.41 366.706 1169.8 368.373L1172.73 369.805V374.926V380.043H1163.32H1153.91V368.543V357.044H1156.13C1158.18 357.044 1158.46 357.219 1159.79 359.324ZM1201.48 357.339C1201.48 361.502 1189.51 368.023 1181.88 368.023C1174.2 368.023 1162.27 361.548 1162.27 357.38C1162.27 357.196 1171.1 357.044 1181.88 357.044C1192.66 357.044 1201.48 357.178 1201.48 357.339ZM1223.95 368.543V380.043H1207.23H1190.5L1190.51 374.949L1190.52 369.851L1193.46 368.576C1196.84 367.116 1201.79 362.759 1203.93 359.37L1205.4 357.044H1214.68H1223.95V368.543ZM1485.76 360.185C1488.22 363.68 1492.26 367.139 1495.64 368.645L1497.86 369.64V374.843V380.043H1481.14H1464.41V368.543V357.044H1473.98H1483.54L1485.76 360.185ZM1526.16 358.513C1517.21 371.081 1497.33 371.081 1488.38 358.513L1487.34 357.044H1507.27H1527.21L1526.16 358.513ZM1535.5 368.543V380.043H1526.09H1516.68V374.862V369.681L1519.07 368.53C1522.72 366.761 1526.34 363.653 1528.78 360.185C1530.91 357.173 1531.1 357.044 1533.25 357.044H1535.5V368.543ZM1546.21 359.218C1548.18 362.193 1550.86 364.555 1553.88 365.969L1556.41 367.153V373.6V380.043H1547.52H1538.63V368.543V357.044H1541.7C1544.72 357.044 1544.79 357.076 1546.21 359.218ZM1574.07 358.744C1568.79 365.72 1558.28 366.637 1551.53 360.705C1547.22 356.925 1546.88 357.044 1561.95 357.044H1575.36L1574.07 358.744ZM1589.86 368.543V380.043H1578.36H1566.86V373.641L1566.87 367.236L1569.35 366.222C1572.23 365.044 1576.93 360.825 1577.85 358.587L1578.49 357.044H1584.18H1589.86V368.543ZM1129.87 373.77V380.043H1127.77H1125.68V374.065V368.083L1127.64 367.88C1128.72 367.765 1129.66 367.636 1129.73 367.586C1129.81 367.54 1129.87 370.321 1129.87 373.77ZM1563.73 374.033V380.043H1561.64H1559.55V374.033V368.023H1561.64H1563.73V374.033ZM1187.36 375.47V380.043H1181.61H1175.86V375.47V370.897H1181.61H1187.36V375.47ZM1513.55 375.47V380.043H1507.27H1501V375.47V370.897H1507.27H1513.55V375.47ZM1223.95 389.976V396.774H1157.05H1090.14V389.976V383.179H1157.05H1223.95V389.976ZM1599.27 389.976V396.774H1531.58H1463.89V389.976V383.179H1531.58H1599.27V389.976ZM1171.98 422.024C1194.67 434.186 1215.65 445.419 1218.59 446.984L1223.95 449.83V476.094L1223.95 502.362H1209.84H1195.73V497.729V493.096L1198.11 492.185C1217.39 484.821 1211.29 455.066 1190.5 455.066C1169.85 455.066 1163.56 483.099 1182.26 491.816L1185.26 493.216L1185.27 497.789L1185.27 502.362H1162.8H1140.32V474.266C1140.31 442.83 1140.39 443.457 1136.66 441.596C1134.55 440.542 1095.18 440.182 1092.52 441.191L1091.18 441.702V420.804V399.91H1110.96H1130.73L1171.98 422.024ZM1223.95 423.125V446.34L1218.34 443.314C1215.25 441.647 1197.9 432.349 1179.79 422.646C1161.67 412.942 1144.74 403.861 1142.15 402.466L1137.44 399.924L1180.7 399.914L1223.95 399.91V423.125ZM1549.46 400.232C1547.19 402.502 1463.6 446.243 1463.44 445.248C1463.33 444.603 1463.42 434.14 1463.63 421.992L1464.01 399.91H1506.9C1530.49 399.91 1549.64 400.052 1549.46 400.232ZM1598.23 420.804V441.702L1596.89 441.191C1594.23 440.182 1554.86 440.542 1552.75 441.596C1549.02 443.457 1549.09 442.83 1549.09 474.266V502.362H1528.18H1507.27V497.72V493.078L1510.04 491.724C1528.43 482.725 1522.01 455.057 1501.53 455.057C1480.61 455.057 1474.65 485.327 1494.22 492.272L1496.82 493.198V497.78V502.362H1480.61H1464.41V491.125C1464.41 481.482 1464.3 479.884 1463.62 479.884C1462.77 479.884 1462.62 468.491 1463.3 455.914L1463.62 449.978L1510.15 424.976L1556.67 399.974L1577.45 399.942L1598.23 399.91V420.804ZM1135.97 444.953L1137.18 446.091V474.224V502.362H1130.12H1123.07V506.981C1123.07 509.523 1122.91 517.992 1122.72 525.798L1122.38 540.001H1129.78H1137.18V600.992V661.989L1136.05 663.2L1134.91 664.406H1114.42C1094.49 664.406 1093.9 664.379 1092.56 663.324L1091.18 662.242V554.24V446.238L1092.32 445.027L1093.46 443.816H1114.11C1134.6 443.816 1134.77 443.825 1135.97 444.953ZM1597.14 445.193L1598.23 446.57V554.281V661.989L1597.09 663.2L1595.96 664.406H1575.3C1554.81 664.406 1554.64 664.397 1553.44 663.273L1552.23 662.136V601.066V540.001H1561.11H1570V521.179V502.362H1561.11H1552.23V474.468C1552.23 447.04 1552.25 446.547 1553.31 445.193L1554.39 443.816H1575.23H1596.06L1597.14 445.193ZM1197.61 459.649C1212.85 467.409 1207.58 490.43 1190.57 490.43C1172.24 490.43 1167.99 465.005 1185.27 458.764C1188.73 457.516 1194.2 457.908 1197.61 459.649ZM1508.51 459.469C1520.92 465.474 1520.78 483.398 1508.29 489.007C1497.54 493.829 1485.32 486.078 1485.32 474.436C1485.32 462.527 1497.97 454.362 1508.51 459.469ZM1243.82 491.908V502.362H1235.45H1227.09V491.908V481.454H1235.45H1243.82V491.908ZM1327.45 491.908V502.362H1287.2H1246.95V491.908V481.454H1287.2H1327.45V491.908ZM1357.77 491.908V502.362H1344.18H1330.59V491.908V481.454H1344.18H1357.77V491.908ZM1440.36 491.908V502.362H1400.63H1360.91V491.908V481.454H1400.63H1440.36V491.908ZM1461.27 491.908V502.362H1452.39H1443.5V491.908V481.454H1452.39H1461.27V491.908ZM1340.52 485.245C1337.66 487.188 1336.66 488.947 1336.7 491.964C1336.82 499.963 1347.12 502.537 1351.19 495.583C1354.09 490.628 1350.25 484.066 1344.44 484.066C1343.02 484.066 1341.63 484.485 1340.52 485.245ZM1346.87 487.768C1349.77 489.316 1349.7 494.331 1346.77 495.846C1342.65 497.969 1338.47 494.289 1340.22 490.089C1341.35 487.395 1344.27 486.377 1346.87 487.768ZM1192.59 497.992V502.362H1190.5H1188.41V497.992V493.617H1190.5H1192.59V497.992ZM1504.14 497.946V502.362H1502.05H1499.96V498.029V493.7L1502.05 493.617L1504.14 493.529V497.946ZM1566.86 521.179V536.865H1346.19H1125.51L1125.86 525.015C1126.05 518.504 1126.2 511.444 1126.2 509.335V505.498H1346.53H1566.86V521.179ZM1223.68 550.063C1223.48 555.594 1223.21 560.231 1223.09 560.36C1222.97 560.489 1215.41 560.766 1206.29 560.973C1197.18 561.18 1188.97 561.369 1188.07 561.392L1186.42 561.429L1186.08 566.527C1185.9 569.331 1185.62 572.523 1185.46 573.619L1185.17 575.618L1172.8 575.309C1166.01 575.139 1155.92 574.862 1150.38 574.692L1140.32 574.383V557.192V540.001H1182.19H1224.06L1223.68 550.063ZM1243.82 544.703V549.409H1235.45H1227.09V544.703V540.001H1235.45H1243.82V544.703ZM1440.1 549.801C1439.89 555.189 1439.68 559.651 1439.62 559.716C1439.42 559.955 1409.14 558.795 1392.8 557.924C1352.34 555.764 1352.63 555.686 1334.51 573.462C1317.53 590.119 1309.5 594.531 1296.09 594.559C1281.44 594.586 1264.24 583.336 1253.41 566.647C1251.64 563.92 1249.7 561.153 1249.1 560.499C1248.15 559.458 1248 558.652 1248 554.355C1248 551.403 1247.79 549.409 1247.48 549.409C1247.17 549.409 1246.95 547.493 1246.95 544.703V540.001H1343.71H1440.48L1440.1 549.801ZM1461.27 544.703V549.409H1452.39H1443.5V544.703V540.001H1452.39H1461.27V544.703ZM1549.09 556.202C1549.09 565.118 1549.03 572.44 1548.96 572.477C1548.89 572.518 1538.49 572.813 1525.85 573.131L1502.87 573.716L1499.15 569.792C1497.11 567.637 1494.3 564.639 1492.92 563.128L1490.4 560.383H1477.4H1464.41V550.192V540.001H1506.75H1549.09V556.202ZM1244.86 568.415V584.289L1242.44 584.621C1241.1 584.805 1236.83 584.952 1232.94 584.952H1225.88L1226.22 572.799C1226.41 566.117 1226.57 558.822 1226.57 556.593V552.545H1235.72H1244.86V568.415ZM1461.27 568.415V584.289L1458.85 584.621C1457.51 584.805 1453.24 584.952 1449.35 584.952H1442.29L1442.63 572.799C1442.82 566.117 1442.97 558.822 1442.97 556.593L1442.98 552.545H1452.13H1461.27V568.415ZM1241.73 589.134C1241.73 590.119 1241.38 590.179 1235.98 590.179C1230.58 590.179 1230.23 590.119 1230.23 589.134C1230.23 588.153 1230.58 588.089 1235.98 588.089C1241.38 588.089 1241.73 588.153 1241.73 589.134ZM1458.14 589.134C1458.14 590.11 1457.79 590.179 1452.91 590.179C1448.03 590.179 1447.68 590.11 1447.68 589.134C1447.68 588.158 1448.03 588.089 1452.91 588.089C1457.79 588.089 1458.14 588.158 1458.14 589.134Z" fill="black"/>
<mask id="path-2-inside-1_1717_605" fill="white">
<path fill-rule="evenodd" clip-rule="evenodd" d="M917.334 111.173V194.346L914.703 197.221L912.076 200.101V205.055V210.01H909.969H907.867V215.199C907.867 219.569 908.032 220.599 908.902 221.708C909.937 223.019 909.937 223.028 908.902 223.962C908.042 224.744 907.867 225.591 907.867 229.032V233.158H904.711H901.555V228.949V224.74H879.856L858.156 224.735L855.787 223.13C825.632 202.672 781.668 210.718 761.404 240.408L758.809 244.203H737.85H716.891L711.293 239.663C652.837 192.294 565.911 209.987 532.135 276.129L529.904 280.495L507.506 280.499H485.107L484.463 284.713C484.109 287.032 483.938 289.125 484.09 289.364C484.237 289.603 483.653 290.321 482.798 290.956C475.216 296.559 476.228 305.175 486.326 321.005C497.035 337.805 500.706 345.676 500.706 351.854V356.381L491.635 356.008C474.885 355.327 469.36 356.951 461.434 364.878C457.027 369.285 453.411 375.334 452.519 379.801L452.21 381.347L457.39 382.359L462.57 383.371L462.708 402.66L462.846 421.949L461.291 424.396C458.628 428.601 458.623 428.683 458.623 481.476V530.897H452.312H446V539.84V548.782H452.302H458.605L458.747 601.308L458.885 653.834L460.73 657.445C464.866 665.556 472.999 668.104 492.817 667.511C518.85 666.724 521.739 663.453 521.748 634.725V620.459L523.284 620.151C530.028 618.803 533.198 607.215 534.155 580.465C534.537 569.686 534.302 570.238 538.778 569.589C543.562 568.895 544.901 565.905 542.711 560.817C541.078 557.022 541.589 556.672 549.294 556.295L555.417 555.991V568.89C555.417 581.757 555.422 581.799 556.765 584.205L558.113 586.615L556.954 588.179C552.45 594.27 560.312 601.759 566.674 597.444C569.011 595.857 569.094 595.848 569.094 597.182C569.094 598.203 569.444 598.231 582.771 598.231C596.098 598.231 596.447 598.203 596.447 597.182C596.447 596.478 596.797 596.128 597.501 596.128C598.476 596.128 598.554 595.779 598.554 591.395C598.554 587.439 598.416 586.661 597.726 586.661C595.536 586.661 595.394 585.769 595.394 571.706C595.394 564.304 595.587 558.254 595.822 558.254C598.025 558.254 606.315 567.165 611.472 575.087C616.021 582.065 619.867 585.957 624.44 588.207C627.375 589.647 628.069 590.245 628.566 591.754C631.262 599.924 652.538 602.541 657.207 595.282C658.22 593.709 658.436 593.63 662.889 593.313C674.495 592.476 682.744 587.475 691.042 576.228C693.333 573.127 696.673 569.235 698.463 567.579L701.715 564.566H706.421H711.127V561.884V559.207L713.395 560.536L715.668 561.866L769.288 560.072C798.781 559.082 823.323 558.268 823.829 558.264C824.685 558.254 824.749 559.266 824.749 572.23C824.749 586.854 824.62 587.71 822.422 587.71C821.731 587.71 821.593 588.492 821.593 592.444C821.593 596.828 821.672 597.182 822.647 597.182C823.351 597.182 823.7 597.532 823.7 598.231C823.7 599.257 824.05 599.284 837.377 599.284C850.704 599.284 851.054 599.257 851.054 598.231C851.054 596.998 851.385 596.957 853.156 597.969C859.219 601.433 866.299 593.801 862.182 588.234L861.068 586.73L862.366 584.458C863.649 582.222 863.668 582.006 863.672 569.751C863.681 555.214 863.014 556.433 870.678 556.976C876.976 557.422 877.749 557.928 876.479 560.785C873.935 566.48 875.973 570.353 881.512 570.353C884.217 570.353 884.718 571.407 884.723 577.097C884.732 602.675 888.647 618.739 895.345 620.652L897.084 621.154L897.346 637.443C897.778 664.093 901.56 667.695 929.056 667.658C947.268 667.635 954.445 665.137 958.369 657.445L960.209 653.839L960.351 601.308L960.494 548.782H967.321H974.148V539.84V530.897H967.312H960.471V481.563C960.471 443.841 960.314 431.614 959.813 429.617C958.571 424.69 959.16 379.396 960.462 379.396C961.028 379.396 963.295 379 965.494 378.517L969.497 377.639L969.152 375.757C968.439 371.907 965.655 367.127 961.966 363.428C957.803 359.256 957.959 360.149 959.408 349.149C963.107 321.092 953.985 305.516 934.719 306.969C917.941 308.234 910.714 321.814 913.396 347.047C914.307 355.622 914.33 356.252 913.732 356.252C913.484 356.252 913.125 354.182 912.932 351.647C911.142 328.126 903.175 314.413 886.729 306.528L882.91 304.697L910.774 304.683L938.638 304.674L945.345 298.597L952.052 292.525V286.512V280.499H941.532H931.011V269.289V258.078L929.539 256.665C928.724 255.888 927.777 255.249 927.432 255.249C926.972 255.249 926.806 252.967 926.806 246.637C926.806 239.686 926.654 237.896 926.029 237.377C925.357 236.82 925.426 236.503 926.553 235.026C928.209 232.855 928.485 225.779 926.976 224.114C926.148 223.199 926.181 223.056 927.505 221.676C928.83 220.296 928.909 219.919 928.909 215.111V210.01H926.806H924.699V205.119V200.229L922.597 198.173L920.49 196.121V112.061V28H918.912H917.334V111.173ZM920.067 199.852C921.451 201.177 921.543 201.531 921.543 205.639V210.01H918.388H915.232V205.699C915.232 201.738 915.347 201.269 916.644 199.912C918.369 198.113 918.259 198.118 920.067 199.852ZM925.753 216.156C925.753 220.852 924.773 221.584 918.461 221.584C912.012 221.584 911.023 220.871 911.023 216.229V213.165H918.388H925.753V216.156ZM831.59 216.257C858.299 222.407 878.066 243.187 882.354 269.624C883.665 277.698 883.481 280.499 881.632 280.499H880.123L879.75 276.161C878.848 265.664 873.089 248.224 870.816 249.121C855.433 255.175 828.715 265.843 828.563 265.99C828.452 266.105 828.848 267.154 829.451 268.327C831.475 272.297 832.211 272.086 816.358 272.086H802.18L802.903 269.693C803.298 268.378 804.255 266.469 805.033 265.452C805.81 264.431 806.362 263.525 806.261 263.432C805.244 262.517 766.146 244.728 765.903 245.064C760.465 252.493 755.837 264.1 755.837 270.31C755.837 271.994 755.745 272.086 753.965 272.086C752.428 272.086 752.134 271.915 752.346 271.161C752.488 270.655 752.769 269.178 752.967 267.876C758.197 233.301 796.471 208.169 831.59 216.257ZM652.736 217.099C672.913 220.084 691.401 228.079 707.971 240.983L712.443 244.466L698.499 244.792C690.835 244.972 668.699 245.151 649.313 245.188C612.134 245.261 607.497 245.496 600.656 247.663C590.435 250.897 582.14 258.828 578.552 268.796L577.37 272.086H567.024H556.678L553.283 276.267L549.892 280.449L541.87 280.476C537.458 280.49 533.847 280.357 533.847 280.187C533.847 279.354 538.626 270.839 541.552 266.464C561.131 237.183 590.738 219.992 628.272 216.114C632.371 215.691 647.289 216.289 652.736 217.099ZM807.917 218.681C795.059 220.875 783.807 226.722 774.381 236.107C771.708 238.77 769.518 241.172 769.518 241.443C769.518 241.715 778.222 246.094 788.867 251.182L808.216 260.429L811.091 259.435C816.004 257.737 821.087 258.395 825.228 261.266L827.183 262.618L848.316 254.595C859.937 250.184 869.45 246.333 869.45 246.043C869.459 244.999 864.174 238.522 860.341 234.879C846.375 221.616 826.576 215.498 807.917 218.681ZM832.188 222.803C841.076 225.117 848.422 228.898 855.649 234.874C858.911 237.57 864.744 243.909 864.726 244.728C864.721 244.875 856.422 248.137 846.283 251.982L827.845 258.97L824.588 257.374C820.273 255.258 815.866 254.793 811.441 255.989L808.142 256.886L794.746 250.474C787.381 246.95 779.699 243.302 777.675 242.372L773.994 240.675L777.146 237.634C791.678 223.622 813.147 217.835 832.188 222.803ZM924.069 225.37C925.049 226.35 924.874 232.091 923.83 233.246C922.652 234.547 913.999 234.653 912.191 233.388C910.691 232.339 910.494 227.247 911.892 225.701C912.955 224.528 922.956 224.257 924.069 225.37ZM898.4 232.105V236.314H904.527C910.434 236.314 910.627 236.346 909.79 237.275C909.031 238.113 908.92 239.805 908.92 250.202V262.167L911.018 263.051L913.116 263.929L913.12 272.214L913.125 280.499H899.793H886.457L886.112 275.108C885.082 259.117 878.706 244.843 867.233 232.845L862.504 227.895H880.449H898.4V232.105ZM922.684 238.237C924.221 239.626 924.138 254.499 922.592 254.986C920.522 255.644 918.388 257.912 918.388 259.449C918.388 261.303 917.606 261.606 914.523 260.948L912.076 260.424V250.115C912.076 237.45 912.113 237.363 918.043 237.363C920.729 237.363 921.985 237.602 922.684 238.237ZM755.064 251.237C752.741 256.33 750.841 262.439 749.779 268.203C749.066 272.072 748.495 273.525 746.462 276.681L744.005 280.486H710.86L677.72 280.481L674.863 276.281L672.011 272.086H626.34H580.673L581.694 269.394C585.361 259.743 593.333 252.852 604.277 249.871C608.155 248.817 609.99 248.767 661.076 248.367C690.109 248.137 713.998 247.819 714.163 247.654C714.324 247.493 723.99 247.359 735.647 247.359H756.831L755.064 251.237ZM784.773 256.79C796.209 262.181 801.274 264.826 801.122 265.319C801.003 265.714 800.437 267.393 799.866 269.059L798.827 272.086H778.912H758.998V270.328C758.998 264.891 765.41 248.896 767.568 248.955C767.918 248.965 775.66 252.488 784.773 256.79ZM871.81 256.96C874.515 262.844 876.829 272.794 876.829 278.512C876.829 281.305 871.893 279.69 868.415 275.766L865.149 272.086H849.531H833.913L833.315 269.854C832.988 268.626 832.763 267.596 832.814 267.559C833.412 267.163 868.861 253.234 869.367 253.197C869.749 253.169 870.849 254.862 871.81 256.96ZM926.838 258.423C927.8 258.938 927.855 259.642 927.855 270.788V282.606H924.699H921.543V270.793C921.543 260.102 921.631 258.933 922.464 258.45C923.664 257.751 925.559 257.742 926.838 258.423ZM918.388 272.348C918.388 280.15 918.342 280.499 917.334 280.499C916.331 280.499 916.285 280.15 916.285 272.651C916.285 264.96 916.396 264.403 917.992 264.233C918.208 264.21 918.388 267.863 918.388 272.348ZM671.349 276.557C671.818 277.279 672.582 278.462 673.046 279.184L673.897 280.499H613.836H553.775L555.992 277.868L558.21 275.241H614.356H670.498L671.349 276.557ZM866.046 277.868L868.636 280.499H808.234H747.828L748.679 279.184C749.144 278.462 749.907 277.279 750.377 276.557L751.228 275.241H807.342H863.456L866.046 277.868ZM948.864 287.469L948.837 291.283L943.133 296.398L937.428 301.514L904.886 301.56C883.495 301.587 871.479 301.408 869.827 301.04C856.261 297.999 789.787 296.495 689.819 296.964C596.061 297.41 567.258 298.349 553.421 301.422C552.469 301.633 539.151 301.744 523.827 301.665L495.964 301.523L491.52 294.825C487.287 288.449 487.09 288.021 487.384 285.891L487.697 283.655H718.294H948.897L948.864 287.469ZM487.688 294.668C489.371 297.047 489.427 297.451 488.286 299.195C485.415 303.574 487.071 309.973 493.378 318.921C503.945 333.895 508.757 343.795 509.033 351.123L509.221 356.252H506.544H503.862V351.284V346.316L499.947 338.527C496.207 331.089 492.849 325.288 486.34 315.038C480.065 305.157 479.398 298.353 484.265 293.84C485.981 292.249 485.976 292.249 487.688 294.668ZM819.491 300.966C831.498 301.283 845.552 301.785 850.718 302.084C891.324 304.448 907.407 318.051 909.781 352.043L910.093 356.514L905.691 360.061L901.293 363.603L893.008 363.613C888.449 363.613 884.718 363.507 884.718 363.369C884.718 363.235 885.431 362.007 886.301 360.636C896.412 344.687 886.756 321.948 868.788 319.409C819.289 312.398 722.674 308.221 661.375 310.438C612.709 312.2 553.504 317.067 545.83 319.942C528.924 326.277 523.666 345.694 534.339 362.375L537.49 367.297L531.593 367.288L525.695 367.274L520.345 362.421C514.176 356.823 514.461 357.724 515.749 347.751C519.475 319.018 532.982 306.565 564.429 302.884C586.046 300.354 749.139 299.126 819.491 300.966ZM493.019 302.595L494.409 304.697L518.206 304.724L542.003 304.747L538.769 306.243C524.669 312.77 516.347 324.427 513.435 341.747L512.501 347.286L510.211 341.812C507.372 335.022 502.109 325.78 496.902 318.438C490.682 309.67 488.916 304.899 490.673 301.619C491.451 300.161 491.391 300.138 493.019 302.595ZM942.024 310.778C954.992 314.422 959.376 326.981 956.068 351.049L955.084 358.207L951.905 357.218C950.157 356.671 946.638 356.077 944.08 355.898L939.429 355.567V353.584C939.429 351.771 939.577 351.569 941.141 351.238C961.58 346.918 959.054 315.512 938.091 313.322C917.698 311.188 908.746 340.202 926.935 349.48L928.959 350.511L928.803 353.515L928.646 356.514L923.089 356.661L917.532 356.809L916.87 350.612C915.172 334.755 915.545 327.629 918.383 321.626C922.565 312.789 932.667 308.156 942.024 310.778ZM752.419 313.644C804.31 315.554 866.566 320.954 873.503 324.151C884.594 329.262 890.289 343.146 885.919 354.412C885.1 356.519 853.552 407.044 846.504 417.528L844.742 420.15V442.383V464.616H832.611H820.476L807.788 469.879L795.096 475.137H710.106H625.116L613.809 470.403C602.975 465.867 602.331 465.669 598.554 465.665C596.383 465.665 590.522 465.508 585.531 465.32L576.459 464.975V443.855V422.735L555.877 390.414C544.561 372.638 534.587 356.593 533.718 354.766C528.382 343.555 533.916 329.065 545.628 323.586C552.395 320.421 606.453 315.646 657.732 313.681C673.575 313.074 736.268 313.051 752.419 313.644ZM943.33 318.07C958.635 325.554 953.308 348.611 936.274 348.611C927.036 348.611 920.251 341.816 920.251 332.579C920.251 320.439 932.469 312.757 943.33 318.07ZM705.078 321.469C702.575 322.62 701.453 323.793 700.363 326.401C699.65 328.108 699.553 335.914 699.553 392.157V455.977L700.735 458.318C704.222 465.223 713.818 465.223 717.305 458.318L718.492 455.977L718.478 392.042C718.469 331.13 718.423 328.006 717.499 326.005C715.286 321.18 709.95 319.234 705.078 321.469ZM656.678 323.328C654.719 324.207 652.455 326.58 651.715 328.535C650.799 330.96 650.947 455.728 651.867 457.936C652.828 460.237 655.988 462.909 658.247 463.333C662.328 464.101 666.744 461.736 668.331 457.936C669.398 455.383 669.384 330.716 668.317 328.223C666.367 323.659 660.998 321.4 656.678 323.328ZM681.929 323.328C679.97 324.207 677.706 326.58 676.966 328.535C676.05 330.96 676.197 455.728 677.117 457.936C678.705 461.736 683.121 464.101 687.201 463.333C689.46 462.909 692.62 460.237 693.582 457.936C694.649 455.383 694.635 330.716 693.568 328.223C691.613 323.659 686.249 321.4 681.929 323.328ZM730.324 323.328C728.364 324.207 726.101 326.58 725.36 328.535C724.445 330.96 724.592 455.728 725.512 457.936C726.474 460.237 729.634 462.909 731.893 463.333C735.973 464.101 740.39 461.736 741.977 457.936C743.044 455.383 743.03 330.716 741.963 328.223C740.012 323.659 734.644 321.4 730.324 323.328ZM755.575 323.328C753.615 324.207 751.352 326.58 750.611 328.535C749.696 330.96 749.843 455.728 750.763 457.936C751.725 460.237 754.885 462.909 757.144 463.333C761.224 464.101 765.64 461.736 767.227 457.936C768.295 455.383 768.281 330.716 767.214 328.223C765.263 323.659 759.895 321.4 755.575 323.328ZM713.446 325.711L715.07 327.339V392.024V456.704L713.349 458.424C711.872 459.905 711.27 460.145 709.02 460.145C706.775 460.145 706.173 459.905 704.691 458.424L702.971 456.704V392.056V327.404L704.287 325.987C706.982 323.089 710.709 322.974 713.446 325.711ZM631.428 326.728C628.925 327.878 627.807 329.051 626.717 331.659C626.004 333.366 625.907 340.86 625.907 394.26V454.923L627.09 457.269C630.577 464.17 640.173 464.17 643.66 457.269L644.842 454.923L644.833 394.145C644.824 336.296 644.773 333.265 643.853 331.263C641.64 326.442 636.299 324.492 631.428 326.728ZM663.137 326.797C664.085 327.372 665.092 328.453 665.373 329.193C666.072 331.033 666.072 455.116 665.373 456.952C664.057 460.411 658.693 461.345 655.942 458.594L654.576 457.228V393.119C654.576 329.745 654.59 328.996 655.63 327.836C657.686 325.55 660.464 325.163 663.137 326.797ZM688.388 326.797C689.336 327.372 690.339 328.453 690.624 329.193C691.323 331.033 691.323 455.116 690.624 456.952C689.308 460.411 683.944 461.345 681.193 458.594L679.827 457.228V393.119C679.827 329.745 679.836 328.996 680.876 327.836C682.937 325.55 685.711 325.163 688.388 326.797ZM737.901 327.556L739.267 328.922V393.073V457.228L737.809 458.686C736.608 459.887 735.89 460.145 733.747 460.145C731.598 460.145 730.881 459.887 729.68 458.686L728.222 457.228V393.119C728.222 329.745 728.236 328.996 729.275 327.836C731.534 325.324 735.541 325.191 737.901 327.556ZM763.152 327.556L764.518 328.922V393.073V457.228L763.06 458.686C761.859 459.887 761.141 460.145 758.998 460.145C756.849 460.145 756.132 459.887 754.931 458.686L753.473 457.228V393.119C753.473 329.745 753.486 328.996 754.526 327.836C756.785 325.324 760.792 325.191 763.152 327.556ZM779.772 326.728C777.27 327.878 776.152 329.051 775.062 331.659C774.349 333.366 774.252 340.86 774.252 394.26V454.923L775.434 457.269C778.024 462.399 784.221 464 789.051 460.784C790.026 460.14 791.356 458.557 792.005 457.269L793.187 454.923L793.178 394.145C793.164 336.296 793.118 333.265 792.198 331.263C789.985 326.442 784.644 324.492 779.772 326.728ZM606.181 329.888C600.275 332.597 600.656 328.227 600.656 393.211V449.665L601.839 452.007C605.326 458.912 614.922 458.912 618.409 452.007L619.596 449.665L619.582 393.096C619.573 339.328 619.522 336.42 618.602 334.419C616.389 329.598 611.053 327.648 606.181 329.888ZM639.795 330.974L641.424 332.598V394.126V455.655L639.703 457.375C638.227 458.852 637.62 459.091 635.375 459.091C633.13 459.091 632.527 458.852 631.046 457.375L629.325 455.655V394.158V332.662L630.641 331.25C633.337 328.347 637.063 328.236 639.795 330.974ZM788.14 330.974L789.769 332.598V394.126V455.655L788.048 457.375C786.572 458.852 785.964 459.091 783.719 459.091C781.475 459.091 780.872 458.852 779.391 457.375L777.67 455.655V394.158V332.662L778.986 331.25C781.682 328.347 785.408 328.236 788.14 330.974ZM805.023 329.644C803.064 330.518 800.8 332.892 800.06 334.847C799.144 337.271 799.291 449.417 800.211 451.62C803.229 458.838 813.658 458.838 816.676 451.62C817.743 449.072 817.729 337.023 816.662 334.534C814.711 329.971 809.343 327.712 805.023 329.644ZM614.549 334.129L616.173 335.753V393.073V450.392L614.453 452.112C611.964 454.606 608.288 454.606 605.795 452.112L604.074 450.392V393.105V335.818L605.39 334.405C608.086 331.507 611.812 331.392 614.549 334.129ZM812.6 333.867L813.966 335.233V393.073V450.916L812.508 452.375C811.307 453.575 810.59 453.833 808.446 453.833C806.298 453.833 805.58 453.575 804.379 452.375L802.921 450.916V393.119C802.921 336.062 802.935 335.302 803.974 334.152C806.233 331.636 810.24 331.503 812.6 333.867ZM563.725 334.088C544.032 340.602 540.172 366.718 557.234 378.044C576.97 391.141 601.494 372.256 594.253 349.545C590.407 337.474 575.815 330.09 563.725 334.088ZM841.586 333.858C814.366 341.444 819.684 382.115 847.898 382.138C868.751 382.161 880.04 359.044 867.371 342.263C861.924 335.049 850.58 331.351 841.586 333.858ZM579.748 337.966C596.015 345.455 596.631 368.71 580.769 376.714C563.767 385.298 544.832 369.183 550.651 351.081C554.502 339.111 568.51 332.795 579.748 337.966ZM854.246 337.097C869.459 341.545 874.57 360.733 863.621 372.307C849.241 387.515 824.239 375.325 826.985 354.444C828.655 341.729 841.701 333.43 854.246 337.097ZM934.631 351.845C937.506 352.42 937.106 356.252 934.167 356.252H932.064V353.883C932.064 351.367 932.096 351.339 934.631 351.845ZM504.653 359.413L512.543 359.422L516.752 363.392L520.961 367.362L493.084 367.044C477.751 366.87 465.008 366.529 464.774 366.294C464.226 365.747 468.79 362.366 471.969 360.963C475.621 359.343 479.669 358.911 488.608 359.169C493.093 359.297 500.311 359.408 504.653 359.413ZM948.446 359.642C950.369 360.047 952.972 360.931 954.233 361.602L956.524 362.826L946.003 363.148C940.221 363.327 928.973 363.493 921.019 363.521L906.551 363.571L908.893 361.515L911.23 359.463L918.098 359.725C921.875 359.872 927.685 359.776 931.011 359.514C940.119 358.787 944.586 358.824 948.446 359.642ZM961.294 367.38C962.822 368.746 965.527 374.557 964.91 375.145C962.596 377.354 945.469 378.329 908.92 378.333H876.042L874.556 380.049C873.208 381.609 873.236 381.503 874.86 378.872C880.086 370.412 881.287 368.535 882 367.693C882.722 366.842 884.718 366.768 908.87 366.704C923.218 366.667 940.285 366.488 946.794 366.308C959.689 365.954 959.707 365.954 961.294 367.38ZM503.195 370.278L539.611 370.623L542.964 375.932C544.809 378.849 547.187 382.598 548.25 384.263C550.633 387.985 550.389 388.196 547.79 384.659L545.858 382.027L513.155 382.018C480.171 382.009 472.318 381.715 462.386 380.109C455.9 379.056 455.849 378.982 458.407 374.115C460.587 369.97 461.549 369.289 464.672 369.676C465.832 369.814 483.166 370.085 503.195 370.278ZM956.262 401.326V422.202L954.817 420.849C946.974 413.498 911.878 413.41 903.193 420.72C897.76 425.293 897.364 427.795 897.355 457.647L897.346 482.502H880.514H863.677V476.958C863.677 472.381 863.488 471.038 862.586 469.271L861.496 467.132L863.378 465.407C867.73 461.419 867.996 455.402 864.013 451.022C860.093 446.712 852.066 447.356 848.942 452.227L847.916 453.833L847.907 437.608C847.898 421.691 847.921 421.346 849.066 419.722C849.706 418.807 856.353 409.836 863.838 399.78L877.445 381.503L910.144 381.448C928.131 381.42 944.862 381.222 947.319 381.006C949.78 380.79 952.798 380.574 954.026 380.532L956.262 380.45V401.326ZM507.929 384.985L544.345 385.271L546.217 387.824L548.094 390.381L548.066 412.9L548.034 435.423L550.587 443.05C552.745 449.504 553.31 450.7 554.276 450.843C555.638 451.045 555.652 451.137 554.576 452.789C552.142 456.501 552.892 462.164 556.204 465.071C558.403 466.999 558.403 467.004 556.733 469.465C555.532 471.227 555.417 471.894 555.417 476.949V482.502H538.58H521.748V458.139C521.748 425.67 521.076 422.809 512.396 418.383C504.713 414.464 475.824 414.482 467.962 418.411L465.988 419.4V401.712V384.029L468.748 384.364C470.271 384.548 487.899 384.829 507.929 384.985ZM580.213 390.639C574.439 392.728 570.745 399.504 572.254 405.245C575.58 417.933 593.6 417.744 596.433 404.987C598.499 395.709 589.124 387.414 580.213 390.639ZM832.639 390.409C818.175 394.807 821.938 415.513 837.027 414.551C842.681 414.192 847.36 409.914 848.197 404.334C849.489 395.709 840.8 387.93 832.639 390.409ZM588.424 394.191C597.188 398.432 594.11 411.488 584.348 411.488C581.239 411.488 579.228 410.586 577.356 408.364C570.86 400.645 579.339 389.793 588.424 394.191ZM839.783 394.071C848.602 398.078 845.782 411.488 836.121 411.488C830.463 411.488 826.819 407.991 826.773 402.531C826.723 395.598 833.476 391.21 839.783 394.071ZM573.303 435.924V447.784H564.402H555.505L553.356 441.339L551.208 434.894V414.662V394.43L562.253 409.243L573.303 424.06V435.924ZM504.98 419.704C510.873 420.711 511.936 421.208 514.765 424.276C518.284 428.094 518.252 427.814 518.459 456.593L518.647 482.502H507.814C497.008 482.502 496.976 482.506 495.687 483.794L494.395 485.083V505.121V525.16L495.687 526.453C496.971 527.736 497.012 527.741 507.795 527.741H518.62L518.473 590.208L518.33 652.68L517.079 655.444C513.831 662.634 505.983 664.958 487.03 664.327C473.211 663.872 468.919 662.777 465.312 658.784C461.498 654.561 461.756 663.509 461.908 540.346L462.041 429.636L463.619 426.742C466.448 421.557 469.825 420.081 481.772 418.816C487.223 418.236 499.055 418.692 504.98 419.704ZM943.639 419.658C951.836 420.973 956.252 424.925 957.048 431.664C957.886 438.795 957.071 653.158 956.197 655.081C952.876 662.391 947.337 664.249 928.909 664.249C913.479 664.249 907.825 663.058 904.315 659.06C900.483 654.694 900.782 660.256 900.621 590.475L900.479 527.741H911.299C922.086 527.741 922.123 527.736 923.407 526.453L924.699 525.16V505.121V485.083L923.407 483.794C922.123 482.506 922.086 482.502 911.285 482.502H900.447L900.608 456.331C900.824 420.66 900.907 420.513 922.068 418.641C926.342 418.264 938.541 418.839 943.639 419.658ZM565.713 451.938C570.663 454.183 570.828 461.299 565.984 463.802C559.355 467.229 552.758 458.258 558.173 453.171C560.625 450.87 562.635 450.539 565.713 451.938ZM573.303 459.551V468.167L587.638 468.545L601.972 468.922L613.243 473.61L624.518 478.293H710.101H795.685L808.391 473.034L821.101 467.772H834.497H847.898V465.122V462.468L850.042 464.722L852.19 466.981L851.095 469.23C850.203 471.075 850 472.487 850 476.991V482.502H710.074H570.147V476.968C570.147 471.921 570.028 471.245 568.781 469.276L567.419 467.114L569.388 465.209C572.99 461.718 573.717 457.711 571.532 453.396L570.29 450.939H571.794H573.303V459.551ZM860.935 452.402C863.667 454.192 864.463 458.327 862.646 461.304C859.541 466.396 852.167 465.306 850.566 459.514C848.933 453.603 855.691 448.966 860.935 452.402ZM565.625 470.104C566.835 472.17 566.987 472.998 566.987 477.465V482.502H562.782H558.573V477.428C558.573 468.733 562.456 464.694 565.625 470.104ZM859.366 470.155C860.309 472.096 860.521 473.458 860.521 477.52V482.502H856.841H853.156V477.221C853.156 468.278 856.569 464.395 859.366 470.155ZM921.281 505.121V524.323H709.549H497.813L497.675 505.65C497.601 495.383 497.652 486.683 497.79 486.32C497.992 485.786 540.177 485.685 709.664 485.791L921.281 485.92V505.121ZM592.238 536.159V544.573H583.295H574.352V536.159V527.741H583.295H592.238V536.159ZM824.749 530.427V533.114L823.273 531.531C820.618 528.693 825.062 528.799 711.127 528.808C607.216 528.817 604.548 528.84 602.377 529.825C599.391 531.182 598.25 533.224 597.85 537.935C597.478 542.351 597.192 543.327 596.144 543.727C595.518 543.971 595.394 542.701 595.394 535.879V527.741H710.074H824.749V530.427ZM845.795 536.159V544.573H836.853H827.91V536.159V527.741H836.853H845.795V536.159ZM850 528.794C850 529.374 849.765 529.848 849.476 529.848C849.186 529.848 848.951 529.374 848.951 528.794C848.951 528.215 849.186 527.741 849.476 527.741C849.765 527.741 850 528.215 850 528.794ZM860.521 528.794C860.521 529.747 860.171 529.848 856.841 529.848C853.51 529.848 853.156 529.747 853.156 528.794C853.156 527.842 853.51 527.741 856.841 527.741C860.171 527.741 860.521 527.842 860.521 528.794ZM897.346 528.794C897.346 529.825 896.996 529.848 880.514 529.848C864.031 529.848 863.677 529.825 863.677 528.794C863.677 527.764 864.031 527.741 880.514 527.741C896.996 527.741 897.346 527.764 897.346 528.794ZM570.147 532.475V534.052H545.945H521.748V532.475V530.897H545.945H570.147V532.475ZM820.591 533.339C821.455 534.204 821.814 535.446 822.141 538.694C822.974 546.965 823.691 547.421 836.103 547.632L845.795 547.798V549.344V550.889H834.014C819.717 550.889 820.158 551.069 819.468 544.904C818.898 539.853 817.794 537.825 814.767 536.288L812.43 535.106H711.652H610.874L608.56 536.288C604.833 538.193 603.762 540.668 603.311 548.387C603.177 550.646 601.664 550.889 587.766 550.889H574.352V549.339V547.789L585.365 547.628C599.529 547.421 600.247 547.016 600.978 538.74C601.328 534.752 602.055 533.275 604.074 532.447C604.654 532.208 653.352 532.056 712.296 532.111L819.464 532.212L820.591 533.339ZM896.293 534.581V536.159H872.62H848.951V534.581V533.004H872.62H896.293V534.581ZM458.623 539.84V545.627H453.889H449.156V539.84V534.052H453.889H458.623V539.84ZM970.992 539.84V545.627H965.734H960.471V539.84V534.052H965.734H970.992V539.84ZM555.417 545.019V552.831L549.129 553.148C538.654 553.673 537.058 555.513 540.227 563.375C541.115 565.583 540.545 566.158 536.906 566.724C531.758 567.524 531.409 568.334 530.99 580.414C530.277 601.042 528.188 612.524 524.536 615.905C521.615 618.615 521.748 620.505 521.748 577.189V537.213H538.58H555.417V545.019ZM566.987 540.893V544.573H563.831H560.675V548.782C560.675 552.642 560.588 552.992 559.627 552.992C558.619 552.992 558.573 552.642 558.573 545.102V537.213H562.782H566.987V540.893ZM571.196 540.893C571.196 542.995 570.971 544.573 570.672 544.573C570.373 544.573 570.147 542.995 570.147 540.893C570.147 538.791 570.373 537.213 570.672 537.213C570.971 537.213 571.196 538.791 571.196 540.893ZM616.449 553.125L616.463 567.984L618.197 570.772C625.259 582.111 635.476 586.551 653.214 585.985C669.214 585.479 679.404 580.727 686.088 570.657L687.979 567.805V553.033V538.262H697.975H707.971V549.836V561.41H704.779C699.659 561.41 696.176 564.083 689.276 573.316C679.928 585.824 672.729 590.051 660.759 590.07L655.363 590.079V591.455C655.363 599.284 632.384 597.292 631.322 589.371C631.055 587.374 630.899 587.218 628.341 586.39C622.793 584.586 619.361 581.311 613.054 571.802C608.454 564.865 603.725 559.8 598.72 556.442L595.325 554.165L599.028 553.958C604.567 553.645 606.968 550.646 606.968 544.049C606.968 540.267 609.323 538.321 613.937 538.285L616.435 538.262L616.449 553.125ZM684.823 552.67V567.078L682.458 570.293C676.299 578.657 667.793 582.341 653.523 582.82C637.146 583.367 627.734 579.627 621.606 570.142L619.596 567.032V552.647V538.262H652.207H684.823V552.67ZM814.532 539.904C815.654 541.026 815.99 542.015 816.354 545.263C817.039 551.368 819.183 554.045 823.383 554.045C824.137 554.045 824.749 554.28 824.749 554.57C824.749 554.859 824.22 555.103 823.567 555.112C822.918 555.122 798.606 555.922 769.546 556.897L716.707 558.668L713.915 557.298L711.127 555.931V547.09V538.248L762.14 538.386L813.157 538.524L814.532 539.904ZM850 541.946C850 543.391 849.765 544.573 849.476 544.573C849.186 544.573 848.951 543.391 848.951 541.946C848.951 540.497 849.186 539.315 849.476 539.315C849.765 539.315 850 540.497 850 541.946ZM860.521 541.946V544.573H856.841H853.156V541.946V539.315H856.841H860.521V541.946ZM897.346 578.505C897.346 621.706 897.525 619.535 894.199 616.209C890.597 612.607 887.925 596.142 887.888 577.355C887.874 569.819 886.301 567.202 881.797 567.197C878.48 567.193 877.974 566.176 879.345 562.316C881.673 555.779 876.309 552.449 865.388 553.645L863.677 553.834V546.574V539.315H880.514H897.346V578.505ZM571.196 549.312V550.889H567.516H563.831V549.312V547.734H567.516H571.196V549.312ZM858.419 549.312V550.889H853.685H848.951V549.312V547.734H853.685H858.419V549.312ZM845.749 554.234C845.22 554.698 827.91 554.988 827.91 554.533C827.91 554.252 831.709 554.045 836.94 554.045C841.904 554.045 845.869 554.128 845.749 554.234ZM564.751 556.667L566.987 556.677V568.812C566.987 583.055 566.306 585.621 562.649 585.194C559.047 584.775 558.573 582.824 558.573 568.467V556.01L560.547 556.336C561.628 556.516 563.523 556.667 564.751 556.667ZM571.196 571.14C571.196 585.258 571.173 585.608 570.147 585.608C569.568 585.608 569.094 585.842 569.094 586.132C569.094 586.422 568.74 586.661 568.303 586.661C567.254 586.661 567.295 586.463 568.832 584.03C570.138 581.955 570.147 581.881 570.147 569.309C570.147 561.235 570.336 556.677 570.672 556.677C571.008 556.677 571.196 561.847 571.196 571.14ZM585.531 557.022L592.238 557.362V571.485V585.608H583.295H574.352V571.14V556.677H576.588C577.821 556.677 581.841 556.833 585.531 557.022ZM850 569.585C850 581.067 850.078 582.121 851.09 584.099C851.711 585.318 852.024 586.606 851.817 587.103C851.569 587.71 851.385 587.774 851.21 587.314C851.077 586.956 850.511 586.661 849.959 586.661C848.988 586.661 848.951 586.095 848.951 571.931C848.951 562.459 849.135 557.201 849.476 557.201C849.811 557.201 850 561.677 850 569.585ZM860.521 569.056C860.521 582.728 859.983 585.079 856.841 585.079C853.699 585.079 853.156 582.728 853.156 569.056V557.201H856.841H860.521V569.056ZM845.795 572.193V586.661H836.853H827.91V572.483V558.31L830.408 558.112C831.778 558.006 835.804 557.873 839.35 557.822L845.795 557.725V572.193ZM565.11 589.591C566.191 590.672 566.168 593.423 565.064 594.638C563.353 596.533 559.429 595.438 559.084 592.973C558.707 590.268 559.939 588.763 562.516 588.763C563.491 588.763 564.655 589.136 565.11 589.591ZM593.291 591.919V595.075H582.771H572.25V591.919V588.763H582.771H593.291V591.919ZM859.168 589.591C860.466 590.884 860.424 593.18 859.076 594.679C857.416 596.538 853.483 595.406 853.142 592.973C852.765 590.268 853.998 588.763 856.578 588.763C857.549 588.763 858.713 589.136 859.168 589.591ZM847.898 592.973V596.128H837.377H826.856V592.973V589.817H837.377H847.898V592.973Z"/>
</mask>
<path fill-rule="evenodd" clip-rule="evenodd" d="M917.334 111.173V194.346L914.703 197.221L912.076 200.101V205.055V210.01H909.969H907.867V215.199C907.867 219.569 908.032 220.599 908.902 221.708C909.937 223.019 909.937 223.028 908.902 223.962C908.042 224.744 907.867 225.591 907.867 229.032V233.158H904.711H901.555V228.949V224.74H879.856L858.156 224.735L855.787 223.13C825.632 202.672 781.668 210.718 761.404 240.408L758.809 244.203H737.85H716.891L711.293 239.663C652.837 192.294 565.911 209.987 532.135 276.129L529.904 280.495L507.506 280.499H485.107L484.463 284.713C484.109 287.032 483.938 289.125 484.09 289.364C484.237 289.603 483.653 290.321 482.798 290.956C475.216 296.559 476.228 305.175 486.326 321.005C497.035 337.805 500.706 345.676 500.706 351.854V356.381L491.635 356.008C474.885 355.327 469.36 356.951 461.434 364.878C457.027 369.285 453.411 375.334 452.519 379.801L452.21 381.347L457.39 382.359L462.57 383.371L462.708 402.66L462.846 421.949L461.291 424.396C458.628 428.601 458.623 428.683 458.623 481.476V530.897H452.312H446V539.84V548.782H452.302H458.605L458.747 601.308L458.885 653.834L460.73 657.445C464.866 665.556 472.999 668.104 492.817 667.511C518.85 666.724 521.739 663.453 521.748 634.725V620.459L523.284 620.151C530.028 618.803 533.198 607.215 534.155 580.465C534.537 569.686 534.302 570.238 538.778 569.589C543.562 568.895 544.901 565.905 542.711 560.817C541.078 557.022 541.589 556.672 549.294 556.295L555.417 555.991V568.89C555.417 581.757 555.422 581.799 556.765 584.205L558.113 586.615L556.954 588.179C552.45 594.27 560.312 601.759 566.674 597.444C569.011 595.857 569.094 595.848 569.094 597.182C569.094 598.203 569.444 598.231 582.771 598.231C596.098 598.231 596.447 598.203 596.447 597.182C596.447 596.478 596.797 596.128 597.501 596.128C598.476 596.128 598.554 595.779 598.554 591.395C598.554 587.439 598.416 586.661 597.726 586.661C595.536 586.661 595.394 585.769 595.394 571.706C595.394 564.304 595.587 558.254 595.822 558.254C598.025 558.254 606.315 567.165 611.472 575.087C616.021 582.065 619.867 585.957 624.44 588.207C627.375 589.647 628.069 590.245 628.566 591.754C631.262 599.924 652.538 602.541 657.207 595.282C658.22 593.709 658.436 593.63 662.889 593.313C674.495 592.476 682.744 587.475 691.042 576.228C693.333 573.127 696.673 569.235 698.463 567.579L701.715 564.566H706.421H711.127V561.884V559.207L713.395 560.536L715.668 561.866L769.288 560.072C798.781 559.082 823.323 558.268 823.829 558.264C824.685 558.254 824.749 559.266 824.749 572.23C824.749 586.854 824.62 587.71 822.422 587.71C821.731 587.71 821.593 588.492 821.593 592.444C821.593 596.828 821.672 597.182 822.647 597.182C823.351 597.182 823.7 597.532 823.7 598.231C823.7 599.257 824.05 599.284 837.377 599.284C850.704 599.284 851.054 599.257 851.054 598.231C851.054 596.998 851.385 596.957 853.156 597.969C859.219 601.433 866.299 593.801 862.182 588.234L861.068 586.73L862.366 584.458C863.649 582.222 863.668 582.006 863.672 569.751C863.681 555.214 863.014 556.433 870.678 556.976C876.976 557.422 877.749 557.928 876.479 560.785C873.935 566.48 875.973 570.353 881.512 570.353C884.217 570.353 884.718 571.407 884.723 577.097C884.732 602.675 888.647 618.739 895.345 620.652L897.084 621.154L897.346 637.443C897.778 664.093 901.56 667.695 929.056 667.658C947.268 667.635 954.445 665.137 958.369 657.445L960.209 653.839L960.351 601.308L960.494 548.782H967.321H974.148V539.84V530.897H967.312H960.471V481.563C960.471 443.841 960.314 431.614 959.813 429.617C958.571 424.69 959.16 379.396 960.462 379.396C961.028 379.396 963.295 379 965.494 378.517L969.497 377.639L969.152 375.757C968.439 371.907 965.655 367.127 961.966 363.428C957.803 359.256 957.959 360.149 959.408 349.149C963.107 321.092 953.985 305.516 934.719 306.969C917.941 308.234 910.714 321.814 913.396 347.047C914.307 355.622 914.33 356.252 913.732 356.252C913.484 356.252 913.125 354.182 912.932 351.647C911.142 328.126 903.175 314.413 886.729 306.528L882.91 304.697L910.774 304.683L938.638 304.674L945.345 298.597L952.052 292.525V286.512V280.499H941.532H931.011V269.289V258.078L929.539 256.665C928.724 255.888 927.777 255.249 927.432 255.249C926.972 255.249 926.806 252.967 926.806 246.637C926.806 239.686 926.654 237.896 926.029 237.377C925.357 236.82 925.426 236.503 926.553 235.026C928.209 232.855 928.485 225.779 926.976 224.114C926.148 223.199 926.181 223.056 927.505 221.676C928.83 220.296 928.909 219.919 928.909 215.111V210.01H926.806H924.699V205.119V200.229L922.597 198.173L920.49 196.121V112.061V28H918.912H917.334V111.173ZM920.067 199.852C921.451 201.177 921.543 201.531 921.543 205.639V210.01H918.388H915.232V205.699C915.232 201.738 915.347 201.269 916.644 199.912C918.369 198.113 918.259 198.118 920.067 199.852ZM925.753 216.156C925.753 220.852 924.773 221.584 918.461 221.584C912.012 221.584 911.023 220.871 911.023 216.229V213.165H918.388H925.753V216.156ZM831.59 216.257C858.299 222.407 878.066 243.187 882.354 269.624C883.665 277.698 883.481 280.499 881.632 280.499H880.123L879.75 276.161C878.848 265.664 873.089 248.224 870.816 249.121C855.433 255.175 828.715 265.843 828.563 265.99C828.452 266.105 828.848 267.154 829.451 268.327C831.475 272.297 832.211 272.086 816.358 272.086H802.18L802.903 269.693C803.298 268.378 804.255 266.469 805.033 265.452C805.81 264.431 806.362 263.525 806.261 263.432C805.244 262.517 766.146 244.728 765.903 245.064C760.465 252.493 755.837 264.1 755.837 270.31C755.837 271.994 755.745 272.086 753.965 272.086C752.428 272.086 752.134 271.915 752.346 271.161C752.488 270.655 752.769 269.178 752.967 267.876C758.197 233.301 796.471 208.169 831.59 216.257ZM652.736 217.099C672.913 220.084 691.401 228.079 707.971 240.983L712.443 244.466L698.499 244.792C690.835 244.972 668.699 245.151 649.313 245.188C612.134 245.261 607.497 245.496 600.656 247.663C590.435 250.897 582.14 258.828 578.552 268.796L577.37 272.086H567.024H556.678L553.283 276.267L549.892 280.449L541.87 280.476C537.458 280.49 533.847 280.357 533.847 280.187C533.847 279.354 538.626 270.839 541.552 266.464C561.131 237.183 590.738 219.992 628.272 216.114C632.371 215.691 647.289 216.289 652.736 217.099ZM807.917 218.681C795.059 220.875 783.807 226.722 774.381 236.107C771.708 238.77 769.518 241.172 769.518 241.443C769.518 241.715 778.222 246.094 788.867 251.182L808.216 260.429L811.091 259.435C816.004 257.737 821.087 258.395 825.228 261.266L827.183 262.618L848.316 254.595C859.937 250.184 869.45 246.333 869.45 246.043C869.459 244.999 864.174 238.522 860.341 234.879C846.375 221.616 826.576 215.498 807.917 218.681ZM832.188 222.803C841.076 225.117 848.422 228.898 855.649 234.874C858.911 237.57 864.744 243.909 864.726 244.728C864.721 244.875 856.422 248.137 846.283 251.982L827.845 258.97L824.588 257.374C820.273 255.258 815.866 254.793 811.441 255.989L808.142 256.886L794.746 250.474C787.381 246.95 779.699 243.302 777.675 242.372L773.994 240.675L777.146 237.634C791.678 223.622 813.147 217.835 832.188 222.803ZM924.069 225.37C925.049 226.35 924.874 232.091 923.83 233.246C922.652 234.547 913.999 234.653 912.191 233.388C910.691 232.339 910.494 227.247 911.892 225.701C912.955 224.528 922.956 224.257 924.069 225.37ZM898.4 232.105V236.314H904.527C910.434 236.314 910.627 236.346 909.79 237.275C909.031 238.113 908.92 239.805 908.92 250.202V262.167L911.018 263.051L913.116 263.929L913.12 272.214L913.125 280.499H899.793H886.457L886.112 275.108C885.082 259.117 878.706 244.843 867.233 232.845L862.504 227.895H880.449H898.4V232.105ZM922.684 238.237C924.221 239.626 924.138 254.499 922.592 254.986C920.522 255.644 918.388 257.912 918.388 259.449C918.388 261.303 917.606 261.606 914.523 260.948L912.076 260.424V250.115C912.076 237.45 912.113 237.363 918.043 237.363C920.729 237.363 921.985 237.602 922.684 238.237ZM755.064 251.237C752.741 256.33 750.841 262.439 749.779 268.203C749.066 272.072 748.495 273.525 746.462 276.681L744.005 280.486H710.86L677.72 280.481L674.863 276.281L672.011 272.086H626.34H580.673L581.694 269.394C585.361 259.743 593.333 252.852 604.277 249.871C608.155 248.817 609.99 248.767 661.076 248.367C690.109 248.137 713.998 247.819 714.163 247.654C714.324 247.493 723.99 247.359 735.647 247.359H756.831L755.064 251.237ZM784.773 256.79C796.209 262.181 801.274 264.826 801.122 265.319C801.003 265.714 800.437 267.393 799.866 269.059L798.827 272.086H778.912H758.998V270.328C758.998 264.891 765.41 248.896 767.568 248.955C767.918 248.965 775.66 252.488 784.773 256.79ZM871.81 256.96C874.515 262.844 876.829 272.794 876.829 278.512C876.829 281.305 871.893 279.69 868.415 275.766L865.149 272.086H849.531H833.913L833.315 269.854C832.988 268.626 832.763 267.596 832.814 267.559C833.412 267.163 868.861 253.234 869.367 253.197C869.749 253.169 870.849 254.862 871.81 256.96ZM926.838 258.423C927.8 258.938 927.855 259.642 927.855 270.788V282.606H924.699H921.543V270.793C921.543 260.102 921.631 258.933 922.464 258.45C923.664 257.751 925.559 257.742 926.838 258.423ZM918.388 272.348C918.388 280.15 918.342 280.499 917.334 280.499C916.331 280.499 916.285 280.15 916.285 272.651C916.285 264.96 916.396 264.403 917.992 264.233C918.208 264.21 918.388 267.863 918.388 272.348ZM671.349 276.557C671.818 277.279 672.582 278.462 673.046 279.184L673.897 280.499H613.836H553.775L555.992 277.868L558.21 275.241H614.356H670.498L671.349 276.557ZM866.046 277.868L868.636 280.499H808.234H747.828L748.679 279.184C749.144 278.462 749.907 277.279 750.377 276.557L751.228 275.241H807.342H863.456L866.046 277.868ZM948.864 287.469L948.837 291.283L943.133 296.398L937.428 301.514L904.886 301.56C883.495 301.587 871.479 301.408 869.827 301.04C856.261 297.999 789.787 296.495 689.819 296.964C596.061 297.41 567.258 298.349 553.421 301.422C552.469 301.633 539.151 301.744 523.827 301.665L495.964 301.523L491.52 294.825C487.287 288.449 487.09 288.021 487.384 285.891L487.697 283.655H718.294H948.897L948.864 287.469ZM487.688 294.668C489.371 297.047 489.427 297.451 488.286 299.195C485.415 303.574 487.071 309.973 493.378 318.921C503.945 333.895 508.757 343.795 509.033 351.123L509.221 356.252H506.544H503.862V351.284V346.316L499.947 338.527C496.207 331.089 492.849 325.288 486.34 315.038C480.065 305.157 479.398 298.353 484.265 293.84C485.981 292.249 485.976 292.249 487.688 294.668ZM819.491 300.966C831.498 301.283 845.552 301.785 850.718 302.084C891.324 304.448 907.407 318.051 909.781 352.043L910.093 356.514L905.691 360.061L901.293 363.603L893.008 363.613C888.449 363.613 884.718 363.507 884.718 363.369C884.718 363.235 885.431 362.007 886.301 360.636C896.412 344.687 886.756 321.948 868.788 319.409C819.289 312.398 722.674 308.221 661.375 310.438C612.709 312.2 553.504 317.067 545.83 319.942C528.924 326.277 523.666 345.694 534.339 362.375L537.49 367.297L531.593 367.288L525.695 367.274L520.345 362.421C514.176 356.823 514.461 357.724 515.749 347.751C519.475 319.018 532.982 306.565 564.429 302.884C586.046 300.354 749.139 299.126 819.491 300.966ZM493.019 302.595L494.409 304.697L518.206 304.724L542.003 304.747L538.769 306.243C524.669 312.77 516.347 324.427 513.435 341.747L512.501 347.286L510.211 341.812C507.372 335.022 502.109 325.78 496.902 318.438C490.682 309.67 488.916 304.899 490.673 301.619C491.451 300.161 491.391 300.138 493.019 302.595ZM942.024 310.778C954.992 314.422 959.376 326.981 956.068 351.049L955.084 358.207L951.905 357.218C950.157 356.671 946.638 356.077 944.08 355.898L939.429 355.567V353.584C939.429 351.771 939.577 351.569 941.141 351.238C961.58 346.918 959.054 315.512 938.091 313.322C917.698 311.188 908.746 340.202 926.935 349.48L928.959 350.511L928.803 353.515L928.646 356.514L923.089 356.661L917.532 356.809L916.87 350.612C915.172 334.755 915.545 327.629 918.383 321.626C922.565 312.789 932.667 308.156 942.024 310.778ZM752.419 313.644C804.31 315.554 866.566 320.954 873.503 324.151C884.594 329.262 890.289 343.146 885.919 354.412C885.1 356.519 853.552 407.044 846.504 417.528L844.742 420.15V442.383V464.616H832.611H820.476L807.788 469.879L795.096 475.137H710.106H625.116L613.809 470.403C602.975 465.867 602.331 465.669 598.554 465.665C596.383 465.665 590.522 465.508 585.531 465.32L576.459 464.975V443.855V422.735L555.877 390.414C544.561 372.638 534.587 356.593 533.718 354.766C528.382 343.555 533.916 329.065 545.628 323.586C552.395 320.421 606.453 315.646 657.732 313.681C673.575 313.074 736.268 313.051 752.419 313.644ZM943.33 318.07C958.635 325.554 953.308 348.611 936.274 348.611C927.036 348.611 920.251 341.816 920.251 332.579C920.251 320.439 932.469 312.757 943.33 318.07ZM705.078 321.469C702.575 322.62 701.453 323.793 700.363 326.401C699.65 328.108 699.553 335.914 699.553 392.157V455.977L700.735 458.318C704.222 465.223 713.818 465.223 717.305 458.318L718.492 455.977L718.478 392.042C718.469 331.13 718.423 328.006 717.499 326.005C715.286 321.18 709.95 319.234 705.078 321.469ZM656.678 323.328C654.719 324.207 652.455 326.58 651.715 328.535C650.799 330.96 650.947 455.728 651.867 457.936C652.828 460.237 655.988 462.909 658.247 463.333C662.328 464.101 666.744 461.736 668.331 457.936C669.398 455.383 669.384 330.716 668.317 328.223C666.367 323.659 660.998 321.4 656.678 323.328ZM681.929 323.328C679.97 324.207 677.706 326.58 676.966 328.535C676.05 330.96 676.197 455.728 677.117 457.936C678.705 461.736 683.121 464.101 687.201 463.333C689.46 462.909 692.62 460.237 693.582 457.936C694.649 455.383 694.635 330.716 693.568 328.223C691.613 323.659 686.249 321.4 681.929 323.328ZM730.324 323.328C728.364 324.207 726.101 326.58 725.36 328.535C724.445 330.96 724.592 455.728 725.512 457.936C726.474 460.237 729.634 462.909 731.893 463.333C735.973 464.101 740.39 461.736 741.977 457.936C743.044 455.383 743.03 330.716 741.963 328.223C740.012 323.659 734.644 321.4 730.324 323.328ZM755.575 323.328C753.615 324.207 751.352 326.58 750.611 328.535C749.696 330.96 749.843 455.728 750.763 457.936C751.725 460.237 754.885 462.909 757.144 463.333C761.224 464.101 765.64 461.736 767.227 457.936C768.295 455.383 768.281 330.716 767.214 328.223C765.263 323.659 759.895 321.4 755.575 323.328ZM713.446 325.711L715.07 327.339V392.024V456.704L713.349 458.424C711.872 459.905 711.27 460.145 709.02 460.145C706.775 460.145 706.173 459.905 704.691 458.424L702.971 456.704V392.056V327.404L704.287 325.987C706.982 323.089 710.709 322.974 713.446 325.711ZM631.428 326.728C628.925 327.878 627.807 329.051 626.717 331.659C626.004 333.366 625.907 340.86 625.907 394.26V454.923L627.09 457.269C630.577 464.17 640.173 464.17 643.66 457.269L644.842 454.923L644.833 394.145C644.824 336.296 644.773 333.265 643.853 331.263C641.64 326.442 636.299 324.492 631.428 326.728ZM663.137 326.797C664.085 327.372 665.092 328.453 665.373 329.193C666.072 331.033 666.072 455.116 665.373 456.952C664.057 460.411 658.693 461.345 655.942 458.594L654.576 457.228V393.119C654.576 329.745 654.59 328.996 655.63 327.836C657.686 325.55 660.464 325.163 663.137 326.797ZM688.388 326.797C689.336 327.372 690.339 328.453 690.624 329.193C691.323 331.033 691.323 455.116 690.624 456.952C689.308 460.411 683.944 461.345 681.193 458.594L679.827 457.228V393.119C679.827 329.745 679.836 328.996 680.876 327.836C682.937 325.55 685.711 325.163 688.388 326.797ZM737.901 327.556L739.267 328.922V393.073V457.228L737.809 458.686C736.608 459.887 735.89 460.145 733.747 460.145C731.598 460.145 730.881 459.887 729.68 458.686L728.222 457.228V393.119C728.222 329.745 728.236 328.996 729.275 327.836C731.534 325.324 735.541 325.191 737.901 327.556ZM763.152 327.556L764.518 328.922V393.073V457.228L763.06 458.686C761.859 459.887 761.141 460.145 758.998 460.145C756.849 460.145 756.132 459.887 754.931 458.686L753.473 457.228V393.119C753.473 329.745 753.486 328.996 754.526 327.836C756.785 325.324 760.792 325.191 763.152 327.556ZM779.772 326.728C777.27 327.878 776.152 329.051 775.062 331.659C774.349 333.366 774.252 340.86 774.252 394.26V454.923L775.434 457.269C778.024 462.399 784.221 464 789.051 460.784C790.026 460.14 791.356 458.557 792.005 457.269L793.187 454.923L793.178 394.145C793.164 336.296 793.118 333.265 792.198 331.263C789.985 326.442 784.644 324.492 779.772 326.728ZM606.181 329.888C600.275 332.597 600.656 328.227 600.656 393.211V449.665L601.839 452.007C605.326 458.912 614.922 458.912 618.409 452.007L619.596 449.665L619.582 393.096C619.573 339.328 619.522 336.42 618.602 334.419C616.389 329.598 611.053 327.648 606.181 329.888ZM639.795 330.974L641.424 332.598V394.126V455.655L639.703 457.375C638.227 458.852 637.62 459.091 635.375 459.091C633.13 459.091 632.527 458.852 631.046 457.375L629.325 455.655V394.158V332.662L630.641 331.25C633.337 328.347 637.063 328.236 639.795 330.974ZM788.14 330.974L789.769 332.598V394.126V455.655L788.048 457.375C786.572 458.852 785.964 459.091 783.719 459.091C781.475 459.091 780.872 458.852 779.391 457.375L777.67 455.655V394.158V332.662L778.986 331.25C781.682 328.347 785.408 328.236 788.14 330.974ZM805.023 329.644C803.064 330.518 800.8 332.892 800.06 334.847C799.144 337.271 799.291 449.417 800.211 451.62C803.229 458.838 813.658 458.838 816.676 451.62C817.743 449.072 817.729 337.023 816.662 334.534C814.711 329.971 809.343 327.712 805.023 329.644ZM614.549 334.129L616.173 335.753V393.073V450.392L614.453 452.112C611.964 454.606 608.288 454.606 605.795 452.112L604.074 450.392V393.105V335.818L605.39 334.405C608.086 331.507 611.812 331.392 614.549 334.129ZM812.6 333.867L813.966 335.233V393.073V450.916L812.508 452.375C811.307 453.575 810.59 453.833 808.446 453.833C806.298 453.833 805.58 453.575 804.379 452.375L802.921 450.916V393.119C802.921 336.062 802.935 335.302 803.974 334.152C806.233 331.636 810.24 331.503 812.6 333.867ZM563.725 334.088C544.032 340.602 540.172 366.718 557.234 378.044C576.97 391.141 601.494 372.256 594.253 349.545C590.407 337.474 575.815 330.09 563.725 334.088ZM841.586 333.858C814.366 341.444 819.684 382.115 847.898 382.138C868.751 382.161 880.04 359.044 867.371 342.263C861.924 335.049 850.58 331.351 841.586 333.858ZM579.748 337.966C596.015 345.455 596.631 368.71 580.769 376.714C563.767 385.298 544.832 369.183 550.651 351.081C554.502 339.111 568.51 332.795 579.748 337.966ZM854.246 337.097C869.459 341.545 874.57 360.733 863.621 372.307C849.241 387.515 824.239 375.325 826.985 354.444C828.655 341.729 841.701 333.43 854.246 337.097ZM934.631 351.845C937.506 352.42 937.106 356.252 934.167 356.252H932.064V353.883C932.064 351.367 932.096 351.339 934.631 351.845ZM504.653 359.413L512.543 359.422L516.752 363.392L520.961 367.362L493.084 367.044C477.751 366.87 465.008 366.529 464.774 366.294C464.226 365.747 468.79 362.366 471.969 360.963C475.621 359.343 479.669 358.911 488.608 359.169C493.093 359.297 500.311 359.408 504.653 359.413ZM948.446 359.642C950.369 360.047 952.972 360.931 954.233 361.602L956.524 362.826L946.003 363.148C940.221 363.327 928.973 363.493 921.019 363.521L906.551 363.571L908.893 361.515L911.23 359.463L918.098 359.725C921.875 359.872 927.685 359.776 931.011 359.514C940.119 358.787 944.586 358.824 948.446 359.642ZM961.294 367.38C962.822 368.746 965.527 374.557 964.91 375.145C962.596 377.354 945.469 378.329 908.92 378.333H876.042L874.556 380.049C873.208 381.609 873.236 381.503 874.86 378.872C880.086 370.412 881.287 368.535 882 367.693C882.722 366.842 884.718 366.768 908.87 366.704C923.218 366.667 940.285 366.488 946.794 366.308C959.689 365.954 959.707 365.954 961.294 367.38ZM503.195 370.278L539.611 370.623L542.964 375.932C544.809 378.849 547.187 382.598 548.25 384.263C550.633 387.985 550.389 388.196 547.79 384.659L545.858 382.027L513.155 382.018C480.171 382.009 472.318 381.715 462.386 380.109C455.9 379.056 455.849 378.982 458.407 374.115C460.587 369.97 461.549 369.289 464.672 369.676C465.832 369.814 483.166 370.085 503.195 370.278ZM956.262 401.326V422.202L954.817 420.849C946.974 413.498 911.878 413.41 903.193 420.72C897.76 425.293 897.364 427.795 897.355 457.647L897.346 482.502H880.514H863.677V476.958C863.677 472.381 863.488 471.038 862.586 469.271L861.496 467.132L863.378 465.407C867.73 461.419 867.996 455.402 864.013 451.022C860.093 446.712 852.066 447.356 848.942 452.227L847.916 453.833L847.907 437.608C847.898 421.691 847.921 421.346 849.066 419.722C849.706 418.807 856.353 409.836 863.838 399.78L877.445 381.503L910.144 381.448C928.131 381.42 944.862 381.222 947.319 381.006C949.78 380.79 952.798 380.574 954.026 380.532L956.262 380.45V401.326ZM507.929 384.985L544.345 385.271L546.217 387.824L548.094 390.381L548.066 412.9L548.034 435.423L550.587 443.05C552.745 449.504 553.31 450.7 554.276 450.843C555.638 451.045 555.652 451.137 554.576 452.789C552.142 456.501 552.892 462.164 556.204 465.071C558.403 466.999 558.403 467.004 556.733 469.465C555.532 471.227 555.417 471.894 555.417 476.949V482.502H538.58H521.748V458.139C521.748 425.67 521.076 422.809 512.396 418.383C504.713 414.464 475.824 414.482 467.962 418.411L465.988 419.4V401.712V384.029L468.748 384.364C470.271 384.548 487.899 384.829 507.929 384.985ZM580.213 390.639C574.439 392.728 570.745 399.504 572.254 405.245C575.58 417.933 593.6 417.744 596.433 404.987C598.499 395.709 589.124 387.414 580.213 390.639ZM832.639 390.409C818.175 394.807 821.938 415.513 837.027 414.551C842.681 414.192 847.36 409.914 848.197 404.334C849.489 395.709 840.8 387.93 832.639 390.409ZM588.424 394.191C597.188 398.432 594.11 411.488 584.348 411.488C581.239 411.488 579.228 410.586 577.356 408.364C570.86 400.645 579.339 389.793 588.424 394.191ZM839.783 394.071C848.602 398.078 845.782 411.488 836.121 411.488C830.463 411.488 826.819 407.991 826.773 402.531C826.723 395.598 833.476 391.21 839.783 394.071ZM573.303 435.924V447.784H564.402H555.505L553.356 441.339L551.208 434.894V414.662V394.43L562.253 409.243L573.303 424.06V435.924ZM504.98 419.704C510.873 420.711 511.936 421.208 514.765 424.276C518.284 428.094 518.252 427.814 518.459 456.593L518.647 482.502H507.814C497.008 482.502 496.976 482.506 495.687 483.794L494.395 485.083V505.121V525.16L495.687 526.453C496.971 527.736 497.012 527.741 507.795 527.741H518.62L518.473 590.208L518.33 652.68L517.079 655.444C513.831 662.634 505.983 664.958 487.03 664.327C473.211 663.872 468.919 662.777 465.312 658.784C461.498 654.561 461.756 663.509 461.908 540.346L462.041 429.636L463.619 426.742C466.448 421.557 469.825 420.081 481.772 418.816C487.223 418.236 499.055 418.692 504.98 419.704ZM943.639 419.658C951.836 420.973 956.252 424.925 957.048 431.664C957.886 438.795 957.071 653.158 956.197 655.081C952.876 662.391 947.337 664.249 928.909 664.249C913.479 664.249 907.825 663.058 904.315 659.06C900.483 654.694 900.782 660.256 900.621 590.475L900.479 527.741H911.299C922.086 527.741 922.123 527.736 923.407 526.453L924.699 525.16V505.121V485.083L923.407 483.794C922.123 482.506 922.086 482.502 911.285 482.502H900.447L900.608 456.331C900.824 420.66 900.907 420.513 922.068 418.641C926.342 418.264 938.541 418.839 943.639 419.658ZM565.713 451.938C570.663 454.183 570.828 461.299 565.984 463.802C559.355 467.229 552.758 458.258 558.173 453.171C560.625 450.87 562.635 450.539 565.713 451.938ZM573.303 459.551V468.167L587.638 468.545L601.972 468.922L613.243 473.61L624.518 478.293H710.101H795.685L808.391 473.034L821.101 467.772H834.497H847.898V465.122V462.468L850.042 464.722L852.19 466.981L851.095 469.23C850.203 471.075 850 472.487 850 476.991V482.502H710.074H570.147V476.968C570.147 471.921 570.028 471.245 568.781 469.276L567.419 467.114L569.388 465.209C572.99 461.718 573.717 457.711 571.532 453.396L570.29 450.939H571.794H573.303V459.551ZM860.935 452.402C863.667 454.192 864.463 458.327 862.646 461.304C859.541 466.396 852.167 465.306 850.566 459.514C848.933 453.603 855.691 448.966 860.935 452.402ZM565.625 470.104C566.835 472.17 566.987 472.998 566.987 477.465V482.502H562.782H558.573V477.428C558.573 468.733 562.456 464.694 565.625 470.104ZM859.366 470.155C860.309 472.096 860.521 473.458 860.521 477.52V482.502H856.841H853.156V477.221C853.156 468.278 856.569 464.395 859.366 470.155ZM921.281 505.121V524.323H709.549H497.813L497.675 505.65C497.601 495.383 497.652 486.683 497.79 486.32C497.992 485.786 540.177 485.685 709.664 485.791L921.281 485.92V505.121ZM592.238 536.159V544.573H583.295H574.352V536.159V527.741H583.295H592.238V536.159ZM824.749 530.427V533.114L823.273 531.531C820.618 528.693 825.062 528.799 711.127 528.808C607.216 528.817 604.548 528.84 602.377 529.825C599.391 531.182 598.25 533.224 597.85 537.935C597.478 542.351 597.192 543.327 596.144 543.727C595.518 543.971 595.394 542.701 595.394 535.879V527.741H710.074H824.749V530.427ZM845.795 536.159V544.573H836.853H827.91V536.159V527.741H836.853H845.795V536.159ZM850 528.794C850 529.374 849.765 529.848 849.476 529.848C849.186 529.848 848.951 529.374 848.951 528.794C848.951 528.215 849.186 527.741 849.476 527.741C849.765 527.741 850 528.215 850 528.794ZM860.521 528.794C860.521 529.747 860.171 529.848 856.841 529.848C853.51 529.848 853.156 529.747 853.156 528.794C853.156 527.842 853.51 527.741 856.841 527.741C860.171 527.741 860.521 527.842 860.521 528.794ZM897.346 528.794C897.346 529.825 896.996 529.848 880.514 529.848C864.031 529.848 863.677 529.825 863.677 528.794C863.677 527.764 864.031 527.741 880.514 527.741C896.996 527.741 897.346 527.764 897.346 528.794ZM570.147 532.475V534.052H545.945H521.748V532.475V530.897H545.945H570.147V532.475ZM820.591 533.339C821.455 534.204 821.814 535.446 822.141 538.694C822.974 546.965 823.691 547.421 836.103 547.632L845.795 547.798V549.344V550.889H834.014C819.717 550.889 820.158 551.069 819.468 544.904C818.898 539.853 817.794 537.825 814.767 536.288L812.43 535.106H711.652H610.874L608.56 536.288C604.833 538.193 603.762 540.668 603.311 548.387C603.177 550.646 601.664 550.889 587.766 550.889H574.352V549.339V547.789L585.365 547.628C599.529 547.421 600.247 547.016 600.978 538.74C601.328 534.752 602.055 533.275 604.074 532.447C604.654 532.208 653.352 532.056 712.296 532.111L819.464 532.212L820.591 533.339ZM896.293 534.581V536.159H872.62H848.951V534.581V533.004H872.62H896.293V534.581ZM458.623 539.84V545.627H453.889H449.156V539.84V534.052H453.889H458.623V539.84ZM970.992 539.84V545.627H965.734H960.471V539.84V534.052H965.734H970.992V539.84ZM555.417 545.019V552.831L549.129 553.148C538.654 553.673 537.058 555.513 540.227 563.375C541.115 565.583 540.545 566.158 536.906 566.724C531.758 567.524 531.409 568.334 530.99 580.414C530.277 601.042 528.188 612.524 524.536 615.905C521.615 618.615 521.748 620.505 521.748 577.189V537.213H538.58H555.417V545.019ZM566.987 540.893V544.573H563.831H560.675V548.782C560.675 552.642 560.588 552.992 559.627 552.992C558.619 552.992 558.573 552.642 558.573 545.102V537.213H562.782H566.987V540.893ZM571.196 540.893C571.196 542.995 570.971 544.573 570.672 544.573C570.373 544.573 570.147 542.995 570.147 540.893C570.147 538.791 570.373 537.213 570.672 537.213C570.971 537.213 571.196 538.791 571.196 540.893ZM616.449 553.125L616.463 567.984L618.197 570.772C625.259 582.111 635.476 586.551 653.214 585.985C669.214 585.479 679.404 580.727 686.088 570.657L687.979 567.805V553.033V538.262H697.975H707.971V549.836V561.41H704.779C699.659 561.41 696.176 564.083 689.276 573.316C679.928 585.824 672.729 590.051 660.759 590.07L655.363 590.079V591.455C655.363 599.284 632.384 597.292 631.322 589.371C631.055 587.374 630.899 587.218 628.341 586.39C622.793 584.586 619.361 581.311 613.054 571.802C608.454 564.865 603.725 559.8 598.72 556.442L595.325 554.165L599.028 553.958C604.567 553.645 606.968 550.646 606.968 544.049C606.968 540.267 609.323 538.321 613.937 538.285L616.435 538.262L616.449 553.125ZM684.823 552.67V567.078L682.458 570.293C676.299 578.657 667.793 582.341 653.523 582.82C637.146 583.367 627.734 579.627 621.606 570.142L619.596 567.032V552.647V538.262H652.207H684.823V552.67ZM814.532 539.904C815.654 541.026 815.99 542.015 816.354 545.263C817.039 551.368 819.183 554.045 823.383 554.045C824.137 554.045 824.749 554.28 824.749 554.57C824.749 554.859 824.22 555.103 823.567 555.112C822.918 555.122 798.606 555.922 769.546 556.897L716.707 558.668L713.915 557.298L711.127 555.931V547.09V538.248L762.14 538.386L813.157 538.524L814.532 539.904ZM850 541.946C850 543.391 849.765 544.573 849.476 544.573C849.186 544.573 848.951 543.391 848.951 541.946C848.951 540.497 849.186 539.315 849.476 539.315C849.765 539.315 850 540.497 850 541.946ZM860.521 541.946V544.573H856.841H853.156V541.946V539.315H856.841H860.521V541.946ZM897.346 578.505C897.346 621.706 897.525 619.535 894.199 616.209C890.597 612.607 887.925 596.142 887.888 577.355C887.874 569.819 886.301 567.202 881.797 567.197C878.48 567.193 877.974 566.176 879.345 562.316C881.673 555.779 876.309 552.449 865.388 553.645L863.677 553.834V546.574V539.315H880.514H897.346V578.505ZM571.196 549.312V550.889H567.516H563.831V549.312V547.734H567.516H571.196V549.312ZM858.419 549.312V550.889H853.685H848.951V549.312V547.734H853.685H858.419V549.312ZM845.749 554.234C845.22 554.698 827.91 554.988 827.91 554.533C827.91 554.252 831.709 554.045 836.94 554.045C841.904 554.045 845.869 554.128 845.749 554.234ZM564.751 556.667L566.987 556.677V568.812C566.987 583.055 566.306 585.621 562.649 585.194C559.047 584.775 558.573 582.824 558.573 568.467V556.01L560.547 556.336C561.628 556.516 563.523 556.667 564.751 556.667ZM571.196 571.14C571.196 585.258 571.173 585.608 570.147 585.608C569.568 585.608 569.094 585.842 569.094 586.132C569.094 586.422 568.74 586.661 568.303 586.661C567.254 586.661 567.295 586.463 568.832 584.03C570.138 581.955 570.147 581.881 570.147 569.309C570.147 561.235 570.336 556.677 570.672 556.677C571.008 556.677 571.196 561.847 571.196 571.14ZM585.531 557.022L592.238 557.362V571.485V585.608H583.295H574.352V571.14V556.677H576.588C577.821 556.677 581.841 556.833 585.531 557.022ZM850 569.585C850 581.067 850.078 582.121 851.09 584.099C851.711 585.318 852.024 586.606 851.817 587.103C851.569 587.71 851.385 587.774 851.21 587.314C851.077 586.956 850.511 586.661 849.959 586.661C848.988 586.661 848.951 586.095 848.951 571.931C848.951 562.459 849.135 557.201 849.476 557.201C849.811 557.201 850 561.677 850 569.585ZM860.521 569.056C860.521 582.728 859.983 585.079 856.841 585.079C853.699 585.079 853.156 582.728 853.156 569.056V557.201H856.841H860.521V569.056ZM845.795 572.193V586.661H836.853H827.91V572.483V558.31L830.408 558.112C831.778 558.006 835.804 557.873 839.35 557.822L845.795 557.725V572.193ZM565.11 589.591C566.191 590.672 566.168 593.423 565.064 594.638C563.353 596.533 559.429 595.438 559.084 592.973C558.707 590.268 559.939 588.763 562.516 588.763C563.491 588.763 564.655 589.136 565.11 589.591ZM593.291 591.919V595.075H582.771H572.25V591.919V588.763H582.771H593.291V591.919ZM859.168 589.591C860.466 590.884 860.424 593.18 859.076 594.679C857.416 596.538 853.483 595.406 853.142 592.973C852.765 590.268 853.998 588.763 856.578 588.763C857.549 588.763 858.713 589.136 859.168 589.591ZM847.898 592.973V596.128H837.377H826.856V592.973V589.817H837.377H847.898V592.973Z" stroke="black" stroke-width="14" mask="url(#path-2-inside-1_1717_605)"/>
</svg>
