<svg id="svg" xmlns="http://www.w3.org/2000/svg" xmlns:xlink="http://www.w3.org/1999/xlink" width="400" height="300" viewBox="0, 0, 400,300"><g id="svgg"><path id="path0" d="M145.250 85.839 C 124.924 88.559,112.919 91.316,109.915 93.956 C 108.724 95.002,107.300 96.012,106.750 96.201 C 105.783 96.533,99.164 104.655,89.470 117.406 C 85.555 122.554,84.623 123.510,83.770 123.249 C 79.711 122.003,69.137 122.500,40.750 125.269 C 17.740 127.515,19.068 127.303,18.698 128.780 C 18.529 129.451,18.086 130.000,17.713 130.000 C 16.053 130.000,14.879 147.797,16.417 149.650 C 17.443 150.886,16.630 152.892,14.954 153.260 C 10.533 154.231,10.773 161.995,15.225 162.004 C 17.409 162.008,19.303 164.085,17.689 164.704 C 16.703 165.083,16.837 166.883,17.875 167.197 C 18.720 167.453,26.667 168.500,27.760 168.500 C 28.055 168.500,28.540 169.921,28.838 171.658 C 32.748 194.485,67.130 194.410,69.835 171.567 L 70.139 169.000 72.140 169.000 C 73.458 169.000,74.366 169.298,74.804 169.875 C 75.414 170.678,75.470 170.681,75.484 169.909 C 75.493 169.446,75.918 168.935,76.429 168.773 C 76.940 168.610,78.318 167.592,79.491 166.509 L 81.624 164.539 127.545 164.510 C 152.802 164.494,173.799 164.354,174.204 164.198 C 174.610 164.043,175.947 161.853,177.176 159.333 C 182.683 148.035,185.818 144.618,191.321 143.913 C 198.228 143.027,214.847 143.613,215.947 144.781 C 217.887 146.843,219.955 151.205,219.433 152.138 C 218.744 153.368,220.010 157.502,223.052 163.955 C 225.776 169.732,225.764 169.433,223.290 169.991 L 221.500 170.395 221.500 168.302 C 221.500 141.811,181.282 140.906,180.089 167.370 L 179.881 171.989 178.566 171.674 C 177.842 171.501,176.642 171.054,175.900 170.680 C 175.157 170.306,173.357 169.998,171.900 169.995 C 169.629 169.991,168.936 169.740,167.055 168.245 L 164.859 166.500 127.770 166.500 C 95.543 166.500,90.335 166.397,88.041 165.716 C 84.543 164.677,84.161 165.183,87.576 166.332 C 90.040 167.161,93.216 167.244,128.048 167.384 L 165.847 167.536 167.267 169.018 C 168.472 170.275,169.071 170.501,171.219 170.508 C 176.299 170.525,179.907 172.394,181.253 175.706 C 188.920 194.571,217.682 192.551,220.820 172.928 C 221.112 171.099,224.608 169.390,226.130 170.331 C 226.358 170.471,226.815 170.367,227.147 170.099 C 228.288 169.178,245.960 167.038,252.637 167.013 C 255.785 167.001,256.058 166.912,256.500 165.750 C 256.962 164.534,257.108 164.500,261.888 164.500 C 267.803 164.500,268.000 164.355,268.000 160.000 C 268.000 155.673,267.775 155.500,262.150 155.500 C 256.961 155.500,257.017 155.528,258.750 153.795 C 259.956 152.590,260.000 152.314,260.000 146.023 L 260.000 139.500 261.189 139.500 C 261.843 139.500,262.657 139.164,262.998 138.753 C 263.816 137.767,262.415 135.500,260.988 135.500 C 260.274 135.500,260.000 135.162,260.000 134.280 C 260.000 133.608,259.775 132.920,259.500 132.750 C 259.225 132.580,259.000 131.566,259.000 130.496 C 259.000 125.900,251.575 92.903,249.841 89.792 C 247.430 85.466,251.281 85.757,195.750 85.694 C 168.800 85.663,146.075 85.728,145.250 85.839 M246.448 87.250 C 248.428 88.417,249.821 90.188,250.282 92.125 L 250.608 93.500 200.179 93.505 C 128.573 93.512,115.678 94.354,109.199 99.451 C 107.534 100.760,97.852 112.469,93.136 118.875 C 91.061 121.694,89.029 124.000,88.622 124.000 C 87.802 124.000,87.795 124.011,95.291 114.250 C 97.825 110.950,101.717 106.112,103.940 103.500 C 106.769 100.175,107.984 98.351,107.991 97.419 C 108.001 95.942,109.902 94.080,113.031 92.484 C 114.940 91.510,125.644 89.430,140.000 87.244 L 147.750 86.063 196.250 86.157 C 243.764 86.248,244.785 86.270,246.448 87.250 M292.353 86.758 C 286.606 88.893,286.001 90.342,283.915 106.937 C 282.559 117.724,282.179 119.792,281.827 118.301 C 281.305 116.097,280.145 115.395,277.356 115.597 L 275.250 115.750 275.108 120.875 L 274.965 126.000 278.031 126.000 L 281.096 126.000 280.923 138.625 L 280.750 151.250 281.875 151.410 C 282.845 151.548,283.000 151.869,283.000 153.750 C 283.000 155.631,282.845 155.952,281.875 156.090 C 280.226 156.324,279.924 161.924,281.477 163.477 C 282.448 164.448,282.500 165.080,282.500 175.889 C 282.500 190.018,282.282 189.500,288.243 189.500 C 294.104 189.500,294.000 189.663,294.000 180.494 C 294.000 176.077,294.203 172.934,294.500 172.750 C 294.775 172.580,295.000 172.004,295.000 171.470 C 295.000 169.410,297.709 170.236,298.789 172.625 L 299.750 174.750 304.184 174.895 L 308.619 175.041 308.287 173.270 L 307.955 171.500 314.859 171.500 C 321.539 171.500,321.779 171.536,322.256 172.625 C 322.558 173.313,323.275 173.811,324.101 173.906 C 324.909 173.999,325.576 174.452,325.760 175.031 C 326.307 176.756,328.045 177.303,329.047 176.067 C 329.522 175.480,330.265 175.000,330.698 175.000 C 331.131 175.000,332.081 174.100,332.809 173.000 C 334.381 170.625,335.000 170.473,335.000 172.464 C 335.000 174.773,336.127 175.500,339.708 175.500 C 343.234 175.500,344.500 174.664,344.500 172.336 C 344.500 171.293,344.741 171.000,345.600 171.000 C 346.433 171.000,346.560 170.860,346.121 170.421 C 345.325 169.625,344.000 170.757,344.000 172.234 C 344.000 174.207,342.599 174.894,339.125 174.623 C 336.269 174.401,336.000 174.281,336.000 173.231 C 336.000 169.929,334.104 169.540,332.440 172.500 C 331.762 173.706,330.949 174.500,330.392 174.500 C 329.884 174.500,329.339 174.838,329.181 175.250 C 328.715 176.463,327.272 176.114,326.079 174.500 C 325.469 173.675,324.581 173.000,324.105 173.000 C 323.630 173.000,322.956 172.544,322.608 171.987 C 322.012 171.033,321.545 170.981,314.612 171.112 C 306.869 171.257,307.002 171.212,307.565 173.500 C 307.715 174.108,307.033 174.277,303.969 174.394 L 300.188 174.539 299.219 172.394 C 298.182 170.100,296.216 169.283,294.720 170.525 C 294.106 171.035,294.000 170.636,294.000 167.811 L 294.000 164.500 320.477 164.500 L 346.955 164.500 346.933 172.875 C 346.886 190.786,346.435 189.500,352.757 189.500 C 358.715 189.500,358.500 190.007,358.500 175.966 C 358.500 165.214,358.550 164.609,359.521 163.731 C 361.086 162.314,360.776 156.325,359.125 156.090 C 357.272 155.827,357.447 151.500,359.311 151.500 L 360.623 151.500 360.255 138.750 L 359.887 126.000 362.890 126.000 C 366.462 126.000,366.500 125.943,366.500 120.559 C 366.500 116.123,366.114 115.500,363.367 115.500 C 360.064 115.500,359.500 116.098,359.500 119.601 C 359.500 124.778,359.109 122.751,357.259 107.979 C 355.201 91.543,354.782 90.240,350.762 87.754 L 348.330 86.250 321.290 86.152 C 299.077 86.071,293.911 86.179,292.353 86.758 M347.559 87.008 C 350.308 87.772,352.622 89.558,353.929 91.924 L 355.108 94.059 353.946 96.250 L 352.784 98.440 354.644 110.095 C 355.667 116.505,356.503 122.613,356.502 123.668 L 356.500 125.586 350.797 125.418 C 347.660 125.326,345.211 125.439,345.354 125.670 C 345.696 126.221,341.998 130.000,341.117 130.000 C 340.304 130.000,343.298 125.643,344.584 124.955 C 345.052 124.705,347.481 124.500,349.983 124.500 C 353.690 124.500,354.588 124.352,354.838 123.700 C 355.131 122.937,351.261 98.327,350.707 97.431 C 350.351 96.854,290.639 96.870,290.283 97.447 C 289.766 98.283,285.919 123.067,286.194 123.785 C 286.406 124.337,287.586 124.502,291.359 124.508 C 294.702 124.513,296.013 124.669,295.500 125.000 C 295.087 125.267,292.444 125.488,289.625 125.492 L 284.500 125.500 284.506 123.375 C 284.510 122.206,285.295 116.638,286.250 111.000 C 288.285 98.989,288.320 98.281,286.972 96.070 L 285.947 94.389 287.099 92.096 C 288.380 89.543,289.847 88.290,292.779 87.246 C 295.208 86.381,344.529 86.166,347.559 87.008 M248.908 96.125 L 249.066 97.500 181.658 97.485 C 143.446 97.476,114.575 97.282,115.000 97.037 C 115.638 96.669,127.581 95.351,135.000 94.831 C 136.238 94.744,162.337 94.690,193.000 94.711 L 248.750 94.750 248.908 96.125 M251.243 95.625 C 251.387 96.244,252.275 100.013,253.217 104.000 C 257.690 122.949,259.136 131.698,257.748 131.424 C 257.017 131.280,256.380 128.829,253.998 117.000 C 252.420 109.162,250.681 100.894,250.135 98.625 C 249.176 94.646,249.174 94.500,250.061 94.500 C 250.604 94.500,251.088 94.961,251.243 95.625 M287.494 98.750 C 287.600 102.924,284.007 120.674,283.216 119.883 C 282.945 119.612,285.166 99.922,285.791 97.064 C 286.106 95.620,287.448 96.949,287.494 98.750 M356.735 108.149 C 357.999 118.552,358.081 121.250,357.087 119.642 C 356.055 117.972,353.428 98.882,354.030 97.428 C 355.010 95.061,355.271 96.095,356.735 108.149 M107.500 97.674 C 107.500 98.045,105.067 101.261,102.093 104.822 C 99.119 108.382,94.612 114.041,92.077 117.398 C 88.237 122.484,86.000 124.629,86.000 123.226 C 86.000 122.832,92.680 114.031,99.928 104.875 C 105.655 97.640,107.500 95.885,107.500 97.674 M350.201 97.921 C 350.691 98.713,354.542 122.670,354.286 123.336 C 353.981 124.131,287.269 124.339,286.779 123.547 C 286.493 123.084,290.313 98.707,290.794 97.929 C 291.137 97.374,349.858 97.365,350.201 97.921 M194.754 111.125 C 196.652 123.089,196.733 124.000,195.898 124.000 C 195.404 124.000,195.000 123.869,195.000 123.708 C 195.000 123.247,191.523 102.377,191.237 101.125 L 190.981 100.000 169.740 100.000 L 148.500 100.000 148.500 112.000 L 148.500 124.000 144.750 124.000 L 141.000 124.000 141.000 111.263 L 141.000 98.526 148.625 98.371 C 152.819 98.286,164.454 98.224,174.481 98.233 L 192.712 98.250 194.754 111.125 M250.471 102.625 C 251.050 105.169,252.280 110.963,253.206 115.500 L 254.888 123.750 226.365 123.879 C 210.677 123.950,197.724 123.890,197.579 123.746 C 197.282 123.449,193.561 100.858,193.524 99.125 L 193.500 98.000 221.459 98.000 L 249.418 98.000 250.471 102.625 M140.384 111.375 L 140.517 124.000 139.018 124.000 L 137.518 124.000 137.384 112.125 L 137.250 100.250 125.062 100.116 C 116.321 100.020,112.675 100.147,112.170 100.566 C 111.476 101.143,95.072 122.107,94.280 123.431 C 93.587 124.587,95.021 124.984,99.917 124.992 C 104.504 125.000,106.083 125.772,103.000 126.500 C 102.353 126.653,101.723 127.109,101.600 127.514 C 101.418 128.107,101.503 128.129,102.038 127.625 C 102.882 126.828,106.611 126.811,107.400 127.600 C 107.832 128.032,108.000 128.040,108.000 127.630 C 108.000 127.316,107.764 126.913,107.476 126.735 C 107.118 126.514,107.141 126.182,107.547 125.693 C 107.875 125.299,108.016 124.850,107.862 124.695 C 107.707 124.541,107.330 124.884,107.023 125.457 C 106.716 126.031,106.018 126.500,105.471 126.500 C 104.526 126.500,104.517 126.439,105.296 125.250 C 106.126 123.983,107.686 123.587,108.250 124.500 C 108.448 124.820,115.672 125.000,128.280 125.000 L 148.000 125.000 148.000 127.750 L 148.000 130.500 117.750 130.500 L 87.500 130.500 87.500 129.063 C 87.500 126.248,88.081 124.589,89.179 124.268 C 89.769 124.095,92.145 121.371,94.464 118.211 C 100.208 110.382,107.661 101.538,109.901 99.891 L 111.750 98.532 126.000 98.641 L 140.250 98.750 140.384 111.375 M202.000 100.000 C 200.650 101.350,200.676 101.547,203.462 111.164 C 205.968 119.816,206.762 121.321,209.600 122.798 C 211.115 123.586,249.000 123.871,249.000 123.094 C 249.000 121.546,244.396 100.227,243.944 99.683 C 242.885 98.407,203.294 98.706,202.000 100.000 M243.323 99.883 C 243.638 100.085,244.833 104.975,245.978 110.750 C 247.124 116.525,248.175 121.644,248.314 122.125 C 248.552 122.947,247.446 123.000,229.984 123.000 C 205.660 123.000,207.692 124.008,203.712 109.967 C 200.409 98.318,198.239 99.498,222.952 99.508 C 233.841 99.512,243.008 99.681,243.323 99.883 M136.884 112.375 L 137.018 124.000 123.624 124.000 L 110.231 124.000 110.420 120.251 C 110.719 114.323,110.545 114.000,107.049 114.000 C 103.582 114.000,103.517 114.111,103.507 120.125 L 103.500 124.000 98.968 124.000 L 94.437 124.000 97.843 119.610 C 99.717 117.196,103.821 111.905,106.963 107.852 L 112.676 100.483 124.713 100.616 L 136.750 100.750 136.884 112.375 M179.825 102.625 C 179.666 103.794,179.262 109.081,178.927 114.375 L 178.318 124.000 163.659 124.000 L 149.000 124.000 149.000 112.250 L 149.000 100.500 164.557 100.500 L 180.114 100.500 179.825 102.625 M181.496 102.125 C 181.490 105.035,179.989 123.678,179.741 123.926 C 178.839 124.828,179.029 118.315,180.326 103.875 C 180.634 100.450,181.503 99.150,181.496 102.125 M190.737 101.625 C 190.878 102.244,191.673 106.912,192.505 112.000 C 193.337 117.088,194.144 121.869,194.298 122.625 L 194.579 124.000 187.484 124.000 L 180.389 124.000 180.667 122.375 C 180.820 121.481,181.225 116.194,181.568 110.625 L 182.190 100.500 186.336 100.500 C 190.225 100.500,190.497 100.569,190.737 101.625 M109.500 119.000 L 109.500 123.500 106.750 123.500 L 104.000 123.500 104.006 120.875 C 104.018 115.109,104.310 114.500,107.065 114.500 L 109.500 114.500 109.500 119.000 M280.461 116.703 C 280.827 117.144,280.989 118.866,280.897 121.328 L 280.750 125.250 278.250 125.250 L 275.750 125.250 275.603 121.294 C 275.521 119.119,275.571 117.037,275.712 116.669 C 276.056 115.772,279.709 115.797,280.461 116.703 M365.394 120.902 L 365.538 125.554 362.894 125.402 L 360.250 125.250 360.103 121.328 C 359.926 116.596,360.345 115.890,363.207 116.100 L 365.250 116.250 365.394 120.902 M284.000 123.500 C 284.000 126.673,283.857 126.928,282.714 125.786 C 281.891 124.962,281.767 123.203,282.500 122.750 C 282.775 122.580,283.000 122.004,283.000 121.470 C 283.000 120.937,283.225 120.500,283.500 120.500 C 283.778 120.500,284.000 121.833,284.000 123.500 M358.000 121.516 C 358.000 122.074,358.337 122.661,358.750 122.819 C 359.738 123.198,359.703 124.447,358.673 125.586 C 357.326 127.074,357.000 126.668,357.000 123.500 C 357.000 121.833,357.222 120.500,357.500 120.500 C 357.775 120.500,358.000 120.957,358.000 121.516 M82.000 123.457 C 82.788 123.682,80.384 124.044,75.500 124.436 C 56.077 125.996,25.235 128.990,20.875 129.739 C 19.470 129.980,18.891 128.935,20.037 128.227 C 20.673 127.834,50.379 124.830,61.500 124.034 C 65.763 123.729,70.150 123.410,71.250 123.324 C 75.031 123.029,80.752 123.100,82.000 123.457 M87.000 127.173 L 87.000 130.347 73.125 130.695 C 60.947 131.000,53.029 131.340,23.625 132.819 C 17.046 133.150,17.000 133.145,17.000 132.060 C 17.000 131.460,17.281 130.873,17.625 130.756 C 19.342 130.172,55.627 126.609,78.250 124.804 C 82.925 124.430,86.806 124.097,86.875 124.063 C 86.944 124.028,87.000 125.428,87.000 127.173 M322.500 127.750 L 322.500 131.000 320.500 131.000 L 318.500 131.000 318.500 127.750 L 318.500 124.500 320.500 124.500 L 322.500 124.500 322.500 127.750 M197.956 125.875 C 199.305 126.643,199.494 127.019,199.497 128.944 L 199.500 131.139 174.375 130.771 C 160.556 130.569,149.187 130.343,149.109 130.270 C 149.032 130.196,148.832 128.980,148.665 127.568 L 148.361 125.000 172.390 125.000 C 194.356 125.000,196.551 125.075,197.956 125.875 M255.180 125.875 C 255.316 126.356,255.576 127.706,255.757 128.875 L 256.088 131.000 228.294 131.000 L 200.500 131.000 200.492 129.125 C 200.483 126.868,200.111 126.205,198.486 125.557 C 197.650 125.223,206.596 125.053,226.091 125.032 C 253.147 125.002,254.948 125.054,255.180 125.875 M298.917 127.709 C 300.995 130.603,299.955 130.770,297.230 127.980 C 295.644 126.355,295.399 125.872,295.980 125.513 C 296.904 124.941,296.958 124.982,298.917 127.709 M318.000 127.500 L 318.000 130.000 309.625 129.980 L 301.250 129.961 299.625 127.752 C 298.731 126.536,298.000 125.420,298.000 125.271 C 298.000 125.122,302.500 125.000,308.000 125.000 L 318.000 125.000 318.000 127.500 M343.000 125.235 C 343.000 125.365,342.282 126.490,341.404 127.735 L 339.807 130.000 331.404 130.000 L 323.000 130.000 323.000 127.500 L 323.000 125.000 333.000 125.000 C 338.500 125.000,343.000 125.106,343.000 125.235 M290.142 128.713 C 294.109 131.880,293.845 132.911,289.793 130.073 C 288.267 129.004,286.342 127.849,285.515 127.506 C 284.689 127.164,284.136 126.685,284.286 126.442 C 284.933 125.395,286.978 126.188,290.142 128.713 M296.658 128.237 L 298.528 130.474 297.139 130.779 C 296.375 130.946,295.457 131.175,295.099 131.286 C 294.569 131.451,288.000 126.708,288.000 126.160 C 288.000 126.072,289.527 126.000,291.394 126.000 L 294.788 126.000 296.658 128.237 M353.000 126.160 C 353.000 126.708,346.431 131.451,345.901 131.286 C 345.543 131.175,344.597 130.939,343.799 130.763 L 342.348 130.443 344.528 128.221 C 346.451 126.262,353.000 124.669,353.000 126.160 M356.656 126.323 C 356.834 126.501,355.312 127.622,353.274 128.815 C 351.236 130.008,349.428 131.213,349.255 131.492 C 348.865 132.122,348.000 132.160,348.000 131.547 C 348.000 129.890,355.623 125.290,356.656 126.323 M285.439 128.075 C 290.596 130.965,291.335 131.690,291.109 133.628 L 290.908 135.351 288.329 134.455 C 286.911 133.962,284.906 133.423,283.875 133.257 L 282.000 132.955 282.000 129.727 C 282.000 125.969,281.828 126.052,285.439 128.075 M359.000 129.727 L 359.000 132.955 357.125 133.257 C 356.094 133.423,354.089 133.962,352.671 134.455 L 350.092 135.351 349.892 133.641 C 349.723 132.194,349.926 131.765,351.211 130.850 C 352.489 129.940,358.482 126.547,358.875 126.511 C 358.944 126.505,359.000 127.952,359.000 129.727 M318.250 131.000 C 318.420 131.275,319.432 131.500,320.500 131.500 C 321.568 131.500,322.580 131.275,322.750 131.000 C 323.817 129.274,348.102 131.142,349.275 133.041 C 349.446 133.318,338.004 133.500,320.430 133.500 C 301.660 133.500,291.472 133.328,291.784 133.016 C 293.715 131.085,317.197 129.297,318.250 131.000 M86.661 133.125 C 86.527 134.294,86.331 135.531,86.225 135.875 C 86.073 136.365,80.206 136.503,59.141 136.516 C 36.288 136.529,32.104 136.642,31.279 137.266 C 29.752 138.421,29.500 138.171,29.500 135.500 C 29.500 133.040,29.525 133.000,31.043 133.000 C 31.891 133.000,36.898 132.761,42.168 132.469 C 51.640 131.944,71.987 131.231,81.827 131.079 L 86.905 131.000 86.661 133.125 M131.125 131.332 L 148.000 131.662 148.000 134.081 L 148.000 136.500 141.500 136.500 C 134.719 136.500,134.460 136.426,135.854 134.885 C 137.456 133.114,136.174 132.250,131.946 132.250 C 128.284 132.250,128.249 132.263,128.092 133.628 C 127.988 134.526,128.206 135.110,128.717 135.306 C 131.265 136.284,127.565 136.500,108.250 136.500 L 87.000 136.500 87.000 135.313 C 87.000 134.659,87.141 133.422,87.313 132.563 L 87.625 131.000 100.938 131.001 C 108.259 131.001,121.844 131.150,131.125 131.332 M199.500 134.000 L 199.500 136.500 190.000 136.500 C 180.861 136.500,179.851 136.349,181.042 135.158 C 181.341 134.859,181.509 134.083,181.417 133.433 C 181.135 131.437,173.823 131.619,173.592 133.628 C 173.488 134.526,173.706 135.110,174.217 135.306 C 176.605 136.223,173.770 136.500,162.000 136.500 L 149.000 136.500 149.000 134.000 L 149.000 131.500 174.250 131.500 L 199.500 131.500 199.500 134.000 M230.500 134.000 L 230.500 136.500 215.500 136.500 L 200.500 136.500 200.500 134.000 L 200.500 131.500 215.500 131.500 L 230.500 131.500 230.500 134.000 M233.000 134.000 C 233.000 136.167,232.867 136.500,232.000 136.500 C 231.133 136.500,231.000 136.167,231.000 134.000 C 231.000 131.833,231.133 131.500,232.000 131.500 C 232.867 131.500,233.000 131.833,233.000 134.000 M235.500 134.000 C 235.500 136.167,235.367 136.500,234.500 136.500 C 233.633 136.500,233.500 136.167,233.500 134.000 C 233.500 131.833,233.633 131.500,234.500 131.500 C 235.367 131.500,235.500 131.833,235.500 134.000 M238.000 134.000 C 238.000 136.167,237.867 136.500,237.000 136.500 C 236.133 136.500,236.000 136.167,236.000 134.000 C 236.000 131.833,236.133 131.500,237.000 131.500 C 237.867 131.500,238.000 131.833,238.000 134.000 M240.500 134.000 C 240.500 136.167,240.367 136.500,239.500 136.500 C 238.633 136.500,238.500 136.167,238.500 134.000 C 238.500 131.833,238.633 131.500,239.500 131.500 C 240.367 131.500,240.500 131.833,240.500 134.000 M243.500 134.000 C 243.500 136.167,243.367 136.500,242.500 136.500 C 241.633 136.500,241.500 136.167,241.500 134.000 C 241.500 131.833,241.633 131.500,242.500 131.500 C 243.367 131.500,243.500 131.833,243.500 134.000 M257.500 132.000 C 258.684 132.379,258.665 132.403,257.125 132.450 C 255.571 132.498,255.500 132.587,255.500 134.500 L 255.500 136.500 249.750 136.500 L 244.000 136.500 244.000 134.000 L 244.000 131.500 250.125 131.550 C 253.494 131.577,256.813 131.780,257.500 132.000 M135.500 133.750 C 135.500 134.964,135.400 135.000,132.000 135.000 C 128.600 135.000,128.500 134.964,128.500 133.750 C 128.500 132.536,128.600 132.500,132.000 132.500 C 135.400 132.500,135.500 132.536,135.500 133.750 M181.000 133.750 C 181.000 134.964,180.900 135.000,177.500 135.000 C 174.100 135.000,174.000 134.964,174.000 133.750 C 174.000 132.536,174.100 132.500,177.500 132.500 C 180.900 132.500,181.000 132.536,181.000 133.750 M29.000 135.000 L 29.000 137.000 25.000 137.000 L 21.000 137.000 21.000 135.273 L 21.000 133.546 24.375 133.371 C 26.231 133.275,28.031 133.152,28.375 133.098 C 28.787 133.033,29.000 133.681,29.000 135.000 M259.391 138.875 L 259.533 144.500 257.766 144.500 L 256.000 144.500 256.000 138.718 L 256.000 132.937 257.625 133.093 L 259.250 133.250 259.391 138.875 M20.605 137.618 L 20.750 141.736 22.730 142.056 C 24.535 142.348,25.065 142.139,28.726 139.688 L 32.741 137.000 59.371 137.000 C 82.493 137.000,86.000 137.097,86.000 137.737 C 86.000 138.374,82.603 138.492,60.822 138.612 L 35.644 138.750 31.197 142.551 L 26.750 146.352 22.875 146.390 C 18.284 146.435,18.347 146.523,21.519 144.488 C 22.904 143.599,23.936 142.769,23.811 142.644 C 23.686 142.519,22.387 143.223,20.924 144.209 C 19.460 145.194,17.979 146.000,17.632 146.000 C 16.882 146.000,16.784 144.693,17.500 144.250 C 17.778 144.078,18.000 141.773,18.000 139.054 C 18.000 133.918,18.118 133.500,19.563 133.500 C 20.341 133.500,20.479 134.046,20.605 137.618 M17.369 141.625 C 17.268 143.069,17.185 141.887,17.185 139.000 C 17.185 136.113,17.268 134.931,17.369 136.375 C 17.470 137.819,17.470 140.181,17.369 141.625 M287.750 134.692 L 289.750 135.308 287.641 135.657 C 286.292 135.881,285.339 136.366,284.998 137.003 C 283.955 138.953,282.000 138.299,282.000 136.000 C 282.000 133.725,283.498 133.384,287.750 134.692 M293.000 140.000 C 293.000 145.486,292.592 147.263,291.803 145.209 C 291.098 143.370,291.471 134.000,292.250 134.000 C 292.875 134.000,293.000 135.000,293.000 140.000 M304.500 140.000 L 304.500 146.000 299.250 146.000 L 294.000 146.000 294.000 140.000 L 294.000 134.000 299.250 134.000 L 304.500 134.000 304.500 140.000 M336.000 134.500 C 336.000 134.823,330.500 135.000,320.500 135.000 C 310.500 135.000,305.000 134.823,305.000 134.500 C 305.000 134.177,310.500 134.000,320.500 134.000 C 330.500 134.000,336.000 134.177,336.000 134.500 M347.000 140.000 L 347.000 146.000 341.750 146.000 L 336.500 146.000 336.500 140.000 L 336.500 134.000 341.750 134.000 L 347.000 134.000 347.000 140.000 M349.500 139.209 C 349.500 144.468,349.262 146.000,348.447 146.000 C 348.201 146.000,348.000 143.300,348.000 140.000 C 348.000 135.000,348.125 134.000,348.750 134.000 C 349.369 134.000,349.500 134.912,349.500 139.209 M359.000 136.000 C 359.000 138.302,357.589 138.797,356.080 137.025 C 355.624 136.489,354.462 135.846,353.500 135.595 L 351.750 135.140 353.500 134.615 C 357.549 133.401,359.000 133.766,359.000 136.000 M296.462 136.462 C 293.512 139.411,295.431 145.000,299.393 145.000 C 303.271 145.000,304.999 139.422,302.038 136.462 C 301.157 135.580,300.050 135.000,299.250 135.000 C 298.450 135.000,297.343 135.580,296.462 136.462 M338.962 136.462 C 337.006 138.418,336.938 141.255,338.794 143.462 C 341.496 146.672,346.000 144.460,346.000 139.923 C 346.000 137.485,343.854 135.000,341.750 135.000 C 340.950 135.000,339.843 135.580,338.962 136.462 M134.500 136.000 C 134.500 136.275,133.600 136.500,132.500 136.500 C 131.400 136.500,130.500 136.275,130.500 136.000 C 130.500 135.725,131.400 135.500,132.500 135.500 C 133.600 135.500,134.500 135.725,134.500 136.000 M180.000 136.000 C 180.000 136.275,178.988 136.500,177.750 136.500 C 176.512 136.500,175.500 136.275,175.500 136.000 C 175.500 135.725,176.512 135.500,177.750 135.500 C 178.988 135.500,180.000 135.725,180.000 136.000 M301.773 136.727 C 304.338 139.292,302.646 144.500,299.249 144.500 C 297.533 144.500,295.500 142.278,295.500 140.402 C 295.500 136.178,299.109 134.064,301.773 136.727 M336.000 136.500 C 336.000 137.478,335.667 137.500,320.500 137.500 C 305.333 137.500,305.000 137.478,305.000 136.500 C 305.000 135.522,305.333 135.500,320.500 135.500 C 335.667 135.500,336.000 135.522,336.000 136.500 M344.273 136.727 C 346.837 139.292,345.147 144.500,341.750 144.500 C 341.037 144.500,339.902 143.948,339.227 143.273 C 336.663 140.708,338.353 135.500,341.750 135.500 C 342.463 135.500,343.598 136.052,344.273 136.727 M261.709 136.303 C 263.080 136.830,262.711 139.000,261.250 139.000 C 260.194 139.000,260.000 138.767,260.000 137.500 C 260.000 135.974,260.301 135.763,261.709 136.303 M291.000 138.275 L 291.000 140.050 288.130 139.900 C 283.448 139.655,283.849 136.500,288.561 136.500 L 291.000 136.500 291.000 138.275 M355.653 137.557 C 356.677 139.189,355.719 140.000,352.766 140.000 L 350.000 140.000 350.000 138.224 L 350.000 136.448 352.574 136.599 C 354.273 136.699,355.319 137.024,355.653 137.557 M148.000 137.750 C 148.000 138.409,144.250 138.500,117.250 138.500 C 90.250 138.500,86.500 138.409,86.500 137.750 C 86.500 137.091,90.250 137.000,117.250 137.000 C 144.250 137.000,148.000 137.091,148.000 137.750 M199.500 137.750 C 199.500 138.407,196.335 138.500,174.016 138.500 C 151.568 138.500,148.566 138.411,148.819 137.750 C 149.070 137.097,152.368 137.000,174.303 137.000 C 196.367 137.000,199.500 137.093,199.500 137.750 M255.500 137.750 C 255.500 138.408,252.111 138.500,228.000 138.500 C 203.889 138.500,200.500 138.408,200.500 137.750 C 200.500 137.092,203.889 137.000,228.000 137.000 C 252.111 137.000,255.500 137.092,255.500 137.750 M29.000 138.184 C 29.000 141.330,21.352 142.483,21.095 139.375 L 20.940 137.500 24.970 137.500 C 28.045 137.500,29.000 137.662,29.000 138.184 M28.663 141.896 C 26.141 144.012,24.165 145.832,24.274 145.940 C 24.442 146.108,27.227 143.921,32.929 139.143 C 33.656 138.534,34.025 138.039,33.750 138.042 C 33.475 138.046,31.186 139.780,28.663 141.896 M336.000 138.772 C 336.000 139.749,325.046 139.844,324.070 138.875 C 323.565 138.374,323.512 138.437,323.802 139.197 C 324.289 140.476,322.821 141.500,320.500 141.500 C 318.179 141.500,316.711 140.476,317.198 139.197 C 317.488 138.437,317.435 138.374,316.930 138.875 C 315.954 139.844,305.000 139.749,305.000 138.772 C 305.000 138.151,307.268 138.045,320.500 138.045 C 333.732 138.045,336.000 138.151,336.000 138.772 M147.996 141.625 C 147.994 143.069,147.849 145.770,147.674 147.629 L 147.355 151.008 117.052 150.879 L 86.750 150.750 86.435 147.750 C 86.261 146.100,86.236 143.571,86.378 142.130 L 86.637 139.509 111.443 139.375 C 125.087 139.301,138.894 139.186,142.125 139.120 L 148.000 139.000 147.996 141.625 M199.500 139.720 C 199.500 140.880,198.597 141.152,193.420 141.553 C 186.762 142.069,183.440 143.571,179.535 147.832 L 176.633 151.000 162.247 151.000 L 147.861 151.000 148.176 148.375 C 148.349 146.931,148.493 144.231,148.496 142.375 L 148.500 139.000 174.000 139.000 C 195.869 139.000,199.500 139.103,199.500 139.720 M255.500 144.750 L 255.500 150.500 237.757 150.500 L 220.014 150.500 218.510 147.519 C 217.682 145.879,216.560 144.299,216.016 144.008 C 212.867 142.323,190.366 142.510,187.003 144.248 C 186.212 144.658,184.524 146.344,183.253 147.996 C 181.091 150.806,178.000 152.312,178.000 150.555 C 178.000 147.262,186.760 142.595,193.938 142.064 C 198.207 141.748,198.721 141.598,199.688 140.389 L 200.750 139.062 228.125 139.031 L 255.500 139.000 255.500 144.750 M284.951 139.951 C 285.473 140.473,286.053 141.379,286.238 141.963 C 286.468 142.686,287.280 143.212,288.787 143.616 C 290.004 143.941,291.000 144.485,291.000 144.825 C 291.000 146.936,291.868 147.000,320.500 147.000 C 349.262 147.000,350.000 146.944,350.000 144.766 C 350.000 144.363,350.825 143.949,352.033 143.744 C 353.572 143.484,354.211 143.080,354.658 142.082 C 355.581 140.026,356.865 139.000,358.516 139.000 L 360.032 139.000 359.891 144.875 L 359.750 150.750 352.735 151.000 C 346.429 151.225,345.576 151.364,344.293 152.375 L 342.865 153.500 320.500 153.500 L 298.135 153.500 296.707 152.375 C 295.424 151.364,294.571 151.225,288.265 151.000 L 281.250 150.750 281.107 145.534 C 280.920 138.753,282.075 137.075,284.951 139.951 M85.802 145.264 L 85.853 151.025 78.144 150.887 L 70.435 150.750 68.672 146.751 C 66.400 141.598,67.976 142.015,50.750 142.020 L 35.750 142.025 31.500 145.511 L 27.250 148.997 21.588 148.999 C 16.466 149.000,15.943 148.917,16.094 148.125 C 16.237 147.373,17.038 147.215,21.772 147.000 L 27.284 146.750 31.395 143.125 L 35.506 139.500 60.628 139.501 L 85.750 139.503 85.802 145.264 M231.827 141.414 C 230.645 142.722,230.701 147.074,231.914 148.173 C 234.940 150.910,240.750 148.660,240.750 144.750 C 240.750 140.797,234.500 138.461,231.827 141.414 M291.000 141.750 C 291.000 143.389,287.862 143.612,287.018 142.033 C 286.237 140.575,286.322 140.500,288.750 140.500 C 290.817 140.500,291.000 140.602,291.000 141.750 M317.321 141.250 C 317.988 141.917,317.345 142.000,311.536 142.000 C 306.060 142.000,305.000 141.878,305.000 141.250 C 305.000 140.627,305.976 140.500,310.786 140.500 C 315.262 140.500,316.741 140.670,317.321 141.250 M336.000 141.250 C 336.000 141.879,334.934 142.000,329.404 142.000 C 323.498 142.000,322.910 141.923,323.779 141.266 C 325.209 140.185,336.000 140.171,336.000 141.250 M354.500 141.150 C 354.500 142.265,353.367 143.000,351.650 143.000 C 350.223 143.000,350.000 142.831,350.000 141.750 C 350.000 140.602,350.183 140.500,352.250 140.500 C 353.763 140.500,354.500 140.713,354.500 141.150 M239.214 141.786 C 241.765 144.337,239.697 148.500,235.879 148.500 C 231.848 148.500,229.802 144.705,232.327 141.914 C 233.411 140.717,238.059 140.630,239.214 141.786 M67.550 145.700 C 68.373 147.460,69.580 151.453,70.232 154.575 C 70.883 157.696,71.974 161.994,72.655 164.125 L 73.894 168.000 72.011 168.000 C 70.132 168.000,70.127 167.994,69.878 165.625 C 67.431 142.349,33.255 141.776,28.853 164.937 L 28.306 167.816 25.528 167.611 C 19.593 167.172,17.768 166.771,17.594 165.869 C 17.490 165.327,17.737 165.000,18.253 165.000 C 18.911 165.000,19.012 164.695,18.750 163.500 C 18.431 162.048,18.479 162.000,20.235 162.000 C 27.547 162.000,27.416 153.806,20.093 153.142 C 17.635 152.919,17.008 152.699,17.224 152.137 C 17.376 151.742,17.500 151.120,17.500 150.756 C 17.500 150.263,18.750 150.050,22.386 149.922 L 27.272 149.750 31.669 146.125 L 36.066 142.500 51.059 142.500 L 66.053 142.500 67.550 145.700 M336.000 143.750 C 336.000 144.401,333.944 144.500,320.500 144.500 C 307.056 144.500,305.000 144.401,305.000 143.750 C 305.000 143.099,307.056 143.000,320.500 143.000 C 333.944 143.000,336.000 143.099,336.000 143.750 M259.500 146.750 C 259.500 148.417,259.417 148.500,257.750 148.500 C 256.083 148.500,256.000 148.417,256.000 146.750 C 256.000 145.083,256.083 145.000,257.750 145.000 C 259.417 145.000,259.500 145.083,259.500 146.750 M336.000 145.500 C 336.000 145.823,330.500 146.000,320.500 146.000 C 310.500 146.000,305.000 145.823,305.000 145.500 C 305.000 145.177,310.500 145.000,320.500 145.000 C 330.500 145.000,336.000 145.177,336.000 145.500 M53.057 148.507 C 64.874 150.732,72.120 162.792,68.573 174.332 C 63.542 190.700,40.906 193.558,32.144 178.932 C 23.173 163.956,35.999 145.296,53.057 148.507 M204.600 148.554 C 215.094 150.750,222.379 161.277,220.558 171.614 C 217.661 188.061,197.401 194.259,185.987 182.190 C 172.594 168.028,185.573 144.573,204.600 148.554 M259.500 150.586 C 259.500 152.391,258.285 154.000,256.923 154.000 C 256.149 154.000,256.000 153.597,256.000 151.500 L 256.000 149.000 257.750 149.000 C 259.382 149.000,259.500 149.107,259.500 150.586 M307.020 149.726 C 305.507 151.549,306.546 152.250,310.757 152.250 C 314.822 152.250,316.646 150.851,314.419 149.439 C 313.258 148.703,307.690 148.919,307.020 149.726 M316.757 149.814 C 316.309 150.262,316.068 150.956,316.221 151.355 C 316.375 151.755,316.500 152.176,316.500 152.291 C 316.500 153.240,324.466 152.395,324.778 151.413 C 325.495 149.154,318.760 147.812,316.757 149.814 M326.581 149.439 C 326.213 149.672,325.988 150.400,326.081 151.057 C 326.310 152.671,334.102 152.947,334.409 151.351 C 334.803 149.308,329.018 147.895,326.581 149.439 M314.407 150.875 C 314.217 151.872,308.259 152.459,307.369 151.569 C 306.355 150.555,307.662 150.000,311.066 150.000 C 314.136 150.000,314.553 150.109,314.407 150.875 M324.000 151.023 C 324.000 152.455,317.368 152.313,317.094 150.875 C 316.947 150.108,317.365 150.000,320.463 150.000 C 323.693 150.000,324.000 150.089,324.000 151.023 M333.750 151.000 C 333.750 152.221,326.827 152.078,326.591 150.852 C 326.435 150.044,326.784 149.969,330.084 150.102 C 332.944 150.218,333.750 150.415,333.750 151.000 M146.817 153.823 C 146.642 155.101,146.266 157.014,145.980 158.073 L 145.461 160.000 117.713 160.000 L 89.964 160.000 89.016 157.788 C 87.488 154.222,87.007 152.087,87.672 151.815 C 87.990 151.685,101.499 151.561,117.693 151.539 L 147.136 151.500 146.817 153.823 M176.000 151.710 C 176.000 151.826,174.748 153.738,173.217 155.960 L 170.434 160.000 158.467 160.000 C 148.828 160.000,146.500 159.870,146.500 159.333 C 146.500 158.619,147.470 153.162,147.781 152.125 C 147.959 151.532,176.000 151.120,176.000 151.710 M180.500 151.656 C 180.500 151.742,179.544 153.598,178.375 155.781 L 176.249 159.750 173.842 159.904 C 171.014 160.084,171.025 160.024,174.842 154.625 C 176.769 151.898,180.500 149.940,180.500 151.656 M255.500 152.975 C 255.500 153.853,255.855 154.657,256.375 154.960 C 256.992 155.319,254.484 155.474,247.859 155.485 C 237.261 155.502,237.012 155.599,239.209 158.833 C 241.060 161.556,241.183 161.500,233.293 161.500 L 226.086 161.500 223.543 156.782 C 222.144 154.188,221.000 151.938,221.000 151.782 C 221.000 151.627,228.762 151.500,238.250 151.500 L 255.500 151.500 255.500 152.975 M296.409 152.750 L 297.894 154.000 320.500 154.000 L 343.106 154.000 344.591 152.750 C 345.986 151.576,346.425 151.500,351.788 151.500 L 357.500 151.500 357.500 153.750 L 357.500 156.000 320.500 156.000 L 283.500 156.000 283.500 153.750 L 283.500 151.500 289.212 151.500 C 294.575 151.500,295.014 151.576,296.409 152.750 M84.500 152.552 C 84.500 152.855,83.685 154.655,82.688 156.552 L 80.876 160.000 77.676 160.000 C 74.821 160.000,74.427 159.878,74.032 158.875 C 73.788 158.256,73.009 156.456,72.300 154.875 L 71.013 152.000 77.756 152.000 C 82.341 152.000,84.500 152.177,84.500 152.552 M87.685 155.704 C 88.408 157.741,89.000 159.541,89.000 159.704 C 89.000 159.867,87.360 160.000,85.354 160.000 L 81.709 160.000 83.648 156.000 C 86.018 151.114,86.055 151.111,87.685 155.704 M223.128 157.250 C 225.514 161.601,225.904 162.705,226.133 165.750 L 226.396 169.250 223.974 164.437 C 221.128 158.780,219.384 153.883,219.816 152.758 C 220.198 151.763,219.893 151.349,223.128 157.250 M74.845 165.000 L 75.027 168.750 74.228 167.000 C 73.391 165.165,70.472 154.361,70.538 153.341 C 70.698 150.861,74.682 161.648,74.845 165.000 M23.666 154.627 C 25.232 155.772,25.310 158.736,23.813 160.232 C 22.568 161.477,22.294 161.531,17.879 161.394 L 13.250 161.250 13.099 158.333 C 13.010 156.612,13.189 155.125,13.535 154.708 C 14.306 153.778,22.417 153.713,23.666 154.627 M47.073 156.064 C 40.310 157.311,35.762 163.951,37.038 170.716 C 39.276 182.576,55.217 184.516,60.721 173.598 C 65.163 164.787,56.955 154.242,47.073 156.064 M198.060 156.066 C 188.685 157.794,184.786 170.022,191.427 176.865 C 196.599 182.194,204.286 182.274,209.485 177.053 C 218.111 168.389,210.186 153.832,198.060 156.066 M267.250 160.000 L 267.250 163.750 254.750 163.879 L 242.250 164.009 240.530 160.379 C 239.584 158.383,238.721 156.578,238.611 156.367 C 238.501 156.157,244.900 156.044,252.831 156.117 L 267.250 156.250 267.250 160.000 M53.891 157.275 C 61.714 160.538,63.749 170.778,57.763 176.763 C 50.189 184.338,37.552 179.093,37.511 168.359 C 37.479 159.841,46.083 154.019,53.891 157.275 M205.892 157.701 C 217.212 163.463,213.162 180.249,200.461 180.207 C 189.861 180.172,184.665 167.412,192.188 159.889 C 195.705 156.372,201.473 155.451,205.892 157.701 M359.903 159.430 C 360.188 164.425,363.844 164.000,320.587 164.000 C 277.619 164.000,281.000 164.363,281.000 159.756 C 281.000 158.332,281.151 157.015,281.336 156.830 C 281.521 156.645,299.240 156.552,320.711 156.622 L 359.750 156.750 359.903 159.430 M45.750 158.751 C 40.126 160.741,37.543 167.380,40.267 172.845 C 44.049 180.436,55.099 180.391,58.560 172.771 C 62.344 164.441,54.361 155.705,45.750 158.751 M196.065 159.311 C 188.537 163.063,188.636 174.111,196.229 177.560 C 206.631 182.285,215.812 169.291,207.760 161.240 C 204.361 157.841,200.345 157.179,196.065 159.311 M51.750 159.052 C 54.548 159.816,56.945 161.774,58.043 164.192 C 61.848 172.571,53.162 181.009,44.988 176.875 C 34.831 171.738,40.781 156.056,51.750 159.052 M203.139 159.030 C 208.960 160.647,211.888 167.467,209.083 172.874 C 204.724 181.275,191.788 178.553,191.103 169.092 C 190.610 162.270,196.642 157.226,203.139 159.030 M80.500 161.000 C 80.500 161.275,79.263 161.500,77.750 161.500 C 76.237 161.500,75.000 161.275,75.000 161.000 C 75.000 160.725,76.237 160.500,77.750 160.500 C 79.263 160.500,80.500 160.725,80.500 161.000 M89.500 161.000 C 89.500 161.292,87.833 161.500,85.500 161.500 C 83.167 161.500,81.500 161.292,81.500 161.000 C 81.500 160.708,83.167 160.500,85.500 160.500 C 87.833 160.500,89.500 160.708,89.500 161.000 M175.750 161.000 C 175.548 161.327,160.661 161.500,132.720 161.500 C 104.573 161.500,90.000 161.329,90.000 161.000 C 90.000 160.671,104.677 160.500,133.030 160.500 C 161.589 160.500,175.955 160.668,175.750 161.000 M44.941 163.941 C 39.142 169.741,47.176 178.494,53.452 173.214 C 58.230 169.193,55.353 162.000,48.966 162.000 C 47.212 162.000,46.575 162.307,44.941 163.941 M197.095 162.983 C 193.837 165.028,193.231 169.415,195.786 172.452 C 199.989 177.446,207.725 173.923,206.852 167.412 C 206.253 162.952,200.968 160.552,197.095 162.983 M236.785 163.759 C 236.966 164.726,237.634 165.926,238.270 166.426 C 239.415 167.327,239.374 167.342,233.431 168.219 C 226.426 169.253,227.167 169.576,226.909 165.375 L 226.703 162.000 231.579 162.000 L 236.455 162.000 236.785 163.759 M241.256 163.125 C 241.731 164.206,242.028 164.255,248.909 164.389 C 255.371 164.514,256.052 164.612,255.903 165.389 C 255.631 166.814,240.829 167.439,239.028 166.101 C 236.919 164.534,236.963 162.000,239.100 162.000 C 240.345 162.000,240.887 162.283,241.256 163.125 M53.300 164.200 C 55.139 166.039,55.605 168.883,54.441 171.158 C 51.926 176.077,43.500 174.242,43.500 168.775 C 43.500 163.201,49.500 160.400,53.300 164.200 M174.500 163.250 C 173.582 164.356,75.500 164.027,75.500 162.918 C 75.500 162.688,97.915 162.500,125.311 162.500 C 169.531 162.500,175.053 162.584,174.500 163.250 M203.516 163.258 C 206.895 165.006,207.434 170.024,204.523 172.625 C 202.273 174.636,198.670 174.593,196.607 172.530 C 191.765 167.688,197.416 160.104,203.516 163.258 M48.868 163.799 C 48.703 163.963,48.666 164.357,48.785 164.674 C 49.049 165.380,46.617 166.594,46.221 165.953 C 45.766 165.216,45.000 165.436,45.000 166.303 C 45.000 166.787,45.279 167.000,45.700 166.839 C 46.220 166.639,46.387 167.009,46.350 168.285 C 46.321 169.335,46.049 170.000,45.651 170.000 C 44.898 170.000,44.779 170.805,45.469 171.231 C 45.727 171.391,46.138 171.165,46.382 170.729 C 46.784 170.011,46.886 170.010,47.474 170.718 C 49.135 172.720,52.848 170.614,52.319 167.970 C 52.104 166.895,52.202 166.609,52.716 166.806 C 53.092 166.950,53.538 166.843,53.708 166.569 C 54.137 165.873,53.023 165.277,52.420 165.880 C 51.626 166.674,49.461 165.434,49.793 164.375 C 50.057 163.534,49.488 163.179,48.868 163.799 M200.130 164.118 C 200.311 164.589,199.872 165.277,198.960 165.951 C 197.786 166.818,197.500 166.880,197.500 166.265 C 197.500 165.844,197.162 165.500,196.750 165.500 C 196.338 165.500,196.000 165.732,196.000 166.016 C 196.000 166.299,196.338 166.661,196.750 166.819 C 197.162 166.977,197.500 167.645,197.500 168.303 C 197.500 170.831,200.245 172.223,202.338 170.757 C 203.281 170.097,203.432 170.100,203.696 170.789 C 203.859 171.215,204.220 171.423,204.496 171.252 C 205.255 170.783,205.101 170.000,204.250 170.000 C 203.338 170.000,203.190 166.750,204.077 166.202 C 204.435 165.981,204.519 166.065,204.298 166.423 C 204.102 166.740,204.179 167.000,204.470 167.000 C 204.762 167.000,205.000 166.662,205.000 166.250 C 205.000 165.838,204.662 165.500,204.250 165.500 C 203.838 165.500,203.500 165.704,203.500 165.953 C 203.500 166.202,202.942 166.146,202.260 165.828 C 201.578 165.510,201.071 164.936,201.135 164.552 C 201.198 164.168,200.933 163.743,200.545 163.609 C 200.077 163.446,199.938 163.617,200.130 164.118 M79.462 165.798 C 78.795 166.511,77.631 167.417,76.875 167.810 L 75.500 168.526 75.500 166.513 L 75.500 164.500 78.087 164.500 L 80.674 164.500 79.462 165.798 M284.500 176.500 C 284.500 184.167,284.319 188.500,284.000 188.500 C 283.681 188.500,283.500 184.167,283.500 176.500 C 283.500 168.833,283.681 164.500,284.000 164.500 C 284.319 164.500,284.500 168.833,284.500 176.500 M291.500 176.750 L 291.500 189.000 288.250 189.000 L 285.000 189.000 285.000 176.750 L 285.000 164.500 288.250 164.500 L 291.500 164.500 291.500 176.750 M293.384 176.334 C 293.283 185.259,293.096 188.218,292.625 188.375 C 292.137 188.538,292.000 185.953,292.000 176.542 C 292.000 166.107,292.101 164.500,292.759 164.500 C 293.420 164.500,293.501 166.027,293.384 176.334 M348.984 176.875 C 348.970 187.865,348.886 189.141,348.234 188.279 C 347.129 186.818,347.144 164.500,348.250 164.500 C 348.897 164.500,348.998 166.201,348.984 176.875 M356.000 176.750 L 356.000 189.000 352.750 189.000 L 349.500 189.000 349.500 176.750 L 349.500 164.500 352.750 164.500 L 356.000 164.500 356.000 176.750 M357.500 176.500 C 357.500 184.167,357.319 188.500,357.000 188.500 C 356.681 188.500,356.500 184.167,356.500 176.500 C 356.500 168.833,356.681 164.500,357.000 164.500 C 357.319 164.500,357.500 168.833,357.500 176.500 M51.510 167.019 C 52.698 169.239,50.270 171.715,48.063 170.534 C 46.875 169.898,46.604 167.596,47.600 166.600 C 48.575 165.625,50.897 165.873,51.510 167.019 M202.648 167.048 C 204.123 169.405,201.031 172.088,198.980 170.232 C 197.873 169.230,197.759 168.385,198.533 166.938 C 199.178 165.734,201.871 165.805,202.648 167.048 M52.750 170.000 C 52.550 170.323,52.612 170.812,52.887 171.087 C 53.220 171.420,53.508 171.391,53.750 171.000 C 53.950 170.677,53.888 170.188,53.613 169.913 C 53.280 169.580,52.992 169.609,52.750 170.000 M196.250 170.000 C 196.050 170.323,196.112 170.812,196.387 171.087 C 196.720 171.420,197.008 171.391,197.250 171.000 C 197.450 170.677,197.388 170.188,197.113 169.913 C 196.780 169.580,196.492 169.609,196.250 170.000 M48.771 172.465 C 48.430 173.018,49.219 173.615,49.680 173.153 C 50.156 172.678,50.067 172.000,49.530 172.000 C 49.271 172.000,48.930 172.209,48.771 172.465 M200.075 172.475 C 200.185 172.805,200.438 173.058,200.637 173.037 C 201.235 172.976,201.120 172.290,200.475 172.075 C 200.145 171.965,199.965 172.145,200.075 172.475 " stroke="none" fill="#000000" fill-rule="evenodd"></path></g></svg>