<svg id="svg" xmlns="http://www.w3.org/2000/svg" xmlns:xlink="http://www.w3.org/1999/xlink" width="400" height="126.74157303370787" viewBox="0, 0, 400,126.74157303370787"><g id="svgg"><path id="path0" d="M18.212 16.656 C 15.898 18.277,15.052 21.045,12.921 33.965 C 11.837 40.536,11.162 42.882,10.794 41.348 C 10.320 39.368,9.780 39.101,6.252 39.101 L 2.247 39.101 2.247 44.494 L 2.247 49.888 6.151 50.168 C 9.654 50.420,10.006 50.650,9.584 52.415 C 8.081 58.699,7.877 79.101,9.317 79.101 C 11.137 79.101,11.296 82.539,9.541 83.946 C 8.519 84.765,8.398 88.172,8.867 102.921 L 9.438 120.899 15.281 120.899 L 21.124 120.899 21.372 107.191 L 21.620 93.483 52.158 93.483 L 82.697 93.483 82.697 97.132 C 82.697 99.466,82.354 100.569,81.747 100.193 C 80.101 99.176,76.639 100.578,76.147 102.462 C 75.391 105.353,67.418 105.143,67.968 102.247 C 68.325 100.362,68.293 100.347,67.497 102.022 C 66.092 104.981,66.319 105.169,71.316 105.169 C 75.564 105.169,76.234 104.910,77.140 102.921 C 77.740 101.603,78.915 100.674,79.981 100.674 C 82.239 100.674,81.932 99.457,82.586 111.011 L 83.146 120.899 88.989 120.899 L 94.831 120.899 95.081 106.988 C 95.280 95.860,95.595 92.930,96.654 92.337 C 98.466 91.322,98.447 84.618,96.629 83.921 C 94.770 83.207,94.857 79.101,96.732 79.101 C 98.033 79.101,98.115 77.629,97.531 64.779 L 96.879 50.457 100.350 50.173 L 103.820 49.888 103.820 44.494 L 103.820 39.101 99.816 39.101 C 96.310 39.101,95.733 39.381,95.186 41.348 C 94.843 42.584,94.518 43.191,94.466 42.697 C 93.075 29.613,89.814 17.584,87.293 16.234 C 84.178 14.567,20.641 14.955,18.212 16.656 M226.762 16.766 C 220.369 18.281,214.118 24.792,200.824 43.784 L 197.546 48.467 190.683 47.974 C 186.258 47.656,173.318 48.469,154.253 50.265 C 118.789 53.605,120.698 52.773,120.854 64.825 C 120.907 68.969,120.540 73.490,120.038 74.872 C 119.358 76.744,119.417 77.564,120.268 78.090 C 121.858 79.073,120.775 81.361,118.153 82.556 C 114.230 84.343,114.916 91.685,119.005 91.685 C 122.169 91.685,123.740 93.429,122.075 95.093 C 120.376 96.793,122.205 97.830,127.999 98.450 L 133.733 99.064 134.306 102.648 C 138.347 127.921,175.523 128.299,180.248 103.115 C 180.822 100.054,181.817 99.246,184.494 99.669 C 185.474 99.824,185.315 98.153,183.820 92.584 C 181.964 85.668,182.183 84.227,184.366 88.989 C 185.696 91.891,186.109 94.240,185.826 97.303 C 185.610 99.652,185.778 101.573,186.199 101.573 C 186.621 101.573,186.966 101.236,186.966 100.825 C 186.966 100.413,188.496 98.846,190.367 97.343 L 193.767 94.611 200.030 96.242 C 205.576 97.687,210.569 97.880,243.682 97.926 C 273.562 97.967,281.596 98.227,283.682 99.220 C 285.118 99.904,290.068 101.174,294.683 102.043 C 300.641 103.165,303.207 104.043,303.532 105.070 C 311.104 129.042,343.954 128.779,349.130 104.705 C 349.724 101.944,363.494 96.775,364.246 99.031 C 364.403 99.501,368.169 99.260,373.046 98.469 C 377.736 97.708,381.920 97.084,382.343 97.082 C 382.767 97.080,382.868 96.472,382.568 95.730 C 382.268 94.989,381.791 93.811,381.507 93.112 C 381.108 92.128,382.322 91.700,386.900 91.210 C 390.150 90.862,392.809 90.520,392.809 90.451 C 392.809 90.382,392.410 88.933,391.922 87.231 C 391.321 85.136,391.335 83.951,391.965 83.562 C 394.497 81.997,396.947 62.022,394.607 62.022 C 394.112 62.022,393.708 61.416,393.708 60.674 C 393.708 59.933,394.112 59.326,394.607 59.326 C 395.101 59.326,395.506 58.315,395.506 57.079 L 395.506 54.831 337.669 54.831 L 279.832 54.831 276.118 50.427 L 272.404 46.022 272.157 30.876 C 271.921 16.412,271.829 15.730,270.112 15.730 C 268.395 15.730,268.293 16.489,267.835 32.809 L 267.356 49.888 267.161 33.663 C 267.027 22.476,266.631 17.103,265.888 16.360 C 264.265 14.737,233.997 15.052,226.762 16.766 M87.191 17.079 C 88.074 17.649,76.284 17.950,53.034 17.950 C 29.783 17.950,17.993 17.649,18.876 17.079 C 20.684 15.911,85.384 15.911,87.191 17.079 M265.863 33.034 L 266.108 49.438 263.391 49.438 L 260.674 49.438 260.674 34.607 L 260.674 19.775 244.178 19.775 C 223.349 19.775,224.584 19.079,209.901 39.101 C 207.725 42.067,204.861 45.910,203.535 47.640 L 201.125 50.787 204.158 47.481 C 205.826 45.663,208.900 41.820,210.990 38.942 C 224.812 19.898,223.402 20.682,243.820 20.678 L 259.775 20.674 259.775 35.056 C 259.775 47.241,259.569 49.438,258.427 49.438 C 257.288 49.438,257.079 47.341,257.079 35.955 L 257.079 22.472 242.279 22.472 C 228.661 22.472,227.406 22.608,226.565 24.179 C 226.063 25.118,221.338 31.286,216.066 37.887 C 205.470 51.152,205.497 50.847,214.954 50.191 C 217.359 50.024,219.326 50.090,219.326 50.337 C 219.325 50.584,228.830 50.656,240.449 50.497 L 261.573 50.208 261.573 53.419 L 261.573 56.629 231.011 56.629 L 200.449 56.629 200.298 53.258 L 200.147 49.888 199.795 53.258 L 199.442 56.629 192.065 56.629 C 188.008 56.629,178.426 57.008,170.771 57.471 C 142.112 59.204,121.127 59.540,121.551 58.260 C 122.141 56.479,126.233 55.894,160.899 52.639 C 178.449 50.990,191.463 49.596,189.818 49.540 C 186.385 49.423,129.123 54.596,126.067 55.299 C 124.955 55.555,124.045 55.352,124.045 54.849 C 124.045 54.345,124.228 53.933,124.451 53.933 C 124.674 53.933,138.082 52.703,154.246 51.200 C 173.066 49.451,186.654 48.612,192.033 48.868 L 200.433 49.268 206.877 40.589 C 210.422 35.816,215.419 29.483,217.983 26.517 C 220.546 23.551,222.840 20.517,223.080 19.775 C 223.873 17.324,231.716 16.327,248.989 16.481 L 265.618 16.629 265.863 33.034 M271.461 31.461 C 271.461 44.444,271.258 46.742,270.112 46.742 C 268.967 46.742,268.764 44.444,268.764 31.461 C 268.764 18.477,268.967 16.180,270.112 16.180 C 271.258 16.180,271.461 18.477,271.461 31.461 M89.870 22.247 C 90.394 24.101,91.594 30.472,92.536 36.404 C 93.478 42.337,94.481 47.798,94.764 48.539 C 95.120 49.472,93.608 50.962,89.855 53.377 C 83.199 57.661,81.836 57.217,88.125 52.814 L 92.681 49.625 81.622 49.014 C 75.539 48.677,67.326 48.554,63.371 48.739 C 57.550 49.012,58.290 49.111,67.252 49.257 L 78.325 49.438 76.404 52.135 L 74.484 54.831 65.164 54.831 L 55.844 54.831 55.482 51.910 C 55.125 49.034,55.117 49.041,54.975 52.360 C 54.859 55.083,54.486 55.730,53.034 55.730 C 51.581 55.730,51.208 55.083,51.092 52.360 C 50.950 49.041,50.943 49.034,50.586 51.910 L 50.223 54.831 41.353 54.831 C 32.544 54.831,32.469 54.813,30.582 52.164 L 28.683 49.496 38.836 49.146 C 44.420 48.954,41.362 48.922,32.041 49.076 C 18.502 49.298,14.660 49.638,12.940 50.765 C 11.755 51.541,10.787 51.956,10.787 51.687 C 10.787 50.179,16.311 20.291,16.708 19.647 C 16.970 19.223,33.324 18.876,53.051 18.876 L 88.917 18.876 89.870 22.247 M216.920 26.725 C 214.041 30.083,209.068 36.400,205.869 40.764 C 202.670 45.127,199.904 48.253,199.724 47.710 C 199.543 47.168,200.745 44.938,202.394 42.754 C 215.307 25.663,221.415 18.402,221.831 19.651 C 222.009 20.183,219.799 23.367,216.920 26.725 M19.793 21.798 C 18.453 25.014,15.143 43.287,15.657 44.627 C 16.232 46.126,89.401 46.459,90.323 44.967 C 90.932 43.981,87.614 24.921,86.290 21.798 L 85.432 19.775 53.034 19.775 L 20.636 19.775 19.793 21.798 M85.750 22.247 C 86.748 25.530,89.867 44.365,89.477 44.755 C 88.724 45.508,71.910 43.888,71.910 43.062 C 71.910 42.614,67.056 42.247,61.124 42.247 C 48.556 42.247,46.388 43.797,58.202 44.336 C 62.528 44.533,60.205 44.556,53.039 44.387 C 45.269 44.203,39.888 43.709,39.706 43.163 C 39.308 41.970,18.876 41.923,18.876 43.115 C 18.876 43.597,22.971 44.112,28.090 44.273 L 37.303 44.565 26.742 44.754 C 18.787 44.897,16.182 44.666,16.188 43.820 C 16.196 42.776,19.171 27.252,20.236 22.697 L 20.708 20.674 52.990 20.674 C 82.953 20.674,85.306 20.787,85.750 22.247 M256.180 36.404 L 256.180 49.438 240.674 49.440 L 225.169 49.441 225.169 43.822 L 225.169 38.202 222.022 38.202 L 218.876 38.202 218.077 43.820 L 217.277 49.438 212.908 49.438 C 207.342 49.438,207.029 50.260,217.620 37.058 C 222.614 30.831,226.904 25.205,227.154 24.554 C 227.503 23.644,230.910 23.371,241.894 23.371 L 256.180 23.371 256.180 36.404 M224.719 43.499 C 224.719 48.688,223.824 49.741,220.215 48.797 C 218.496 48.348,218.305 47.851,218.770 45.038 C 219.065 43.256,219.311 41.090,219.316 40.225 C 219.323 39.078,220.057 38.652,222.022 38.652 C 224.685 38.652,224.719 38.712,224.719 43.499 M10.290 43.593 C 11.061 48.737,10.575 49.438,6.239 49.438 L 2.697 49.438 2.697 44.494 L 2.697 39.551 6.190 39.551 C 9.641 39.551,9.691 39.600,10.290 43.593 M103.371 44.494 L 103.371 49.438 99.828 49.438 C 95.492 49.438,95.006 48.737,95.778 43.593 C 96.377 39.600,96.426 39.551,99.877 39.551 L 103.371 39.551 103.371 44.494 M275.955 51.236 L 278.803 54.831 273.783 54.831 L 268.764 54.831 268.764 51.236 C 268.764 48.033,269.001 47.640,270.936 47.640 C 272.395 47.640,274.041 48.819,275.955 51.236 M269.663 51.236 C 269.663 53.646,269.956 53.933,272.421 53.933 L 275.179 53.933 273.258 51.236 C 272.202 49.753,270.961 48.539,270.501 48.539 C 270.040 48.539,269.663 49.753,269.663 51.236 M30.122 52.661 L 32.827 55.884 54.436 55.854 C 69.937 55.833,77.301 56.170,80.494 57.045 C 84.491 58.142,81.895 58.274,54.967 58.347 L 24.990 58.427 19.686 55.153 C 16.769 53.353,14.382 51.532,14.382 51.108 C 14.382 49.743,15.471 50.264,20.421 54.002 C 24.737 57.261,25.559 57.568,27.842 56.772 C 29.254 56.280,30.646 56.114,30.935 56.403 C 31.224 56.692,31.431 56.558,31.396 56.105 C 31.360 55.652,29.843 54.087,28.025 52.627 L 24.719 49.974 27.251 52.740 L 29.784 55.505 27.452 56.090 C 25.638 56.546,24.215 55.984,21.038 53.558 L 16.956 50.441 21.287 50.101 C 23.669 49.915,26.022 49.689,26.517 49.600 C 27.011 49.511,28.633 50.888,30.122 52.661 M88.805 50.804 C 90.505 52.178,81.656 56.445,78.764 55.647 L 75.454 54.733 77.306 52.131 C 78.970 49.795,86.484 48.928,88.805 50.804 M272.360 51.236 C 273.127 52.671,273.043 53.034,271.942 53.034 C 271.161 53.034,270.562 52.253,270.562 51.236 C 270.562 50.247,270.750 49.438,270.980 49.438 C 271.209 49.438,271.830 50.247,272.360 51.236 M266.067 53.483 C 266.067 56.030,265.725 56.629,264.270 56.629 C 262.814 56.629,262.472 56.030,262.472 53.483 C 262.472 50.936,262.814 50.337,264.270 50.337 C 265.725 50.337,266.067 50.936,266.067 53.483 M269.312 89.896 C 269.903 90.487,274.159 90.751,280.525 90.593 L 290.787 90.337 291.065 86.966 L 291.344 83.596 297.083 83.596 L 302.821 83.596 305.738 78.718 C 309.630 72.211,310.559 71.910,326.784 71.910 C 342.402 71.910,341.750 71.659,346.270 79.400 L 348.720 83.596 369.390 83.596 L 390.061 83.596 390.827 86.517 L 391.593 89.438 386.421 90.337 C 380.340 91.394,379.754 91.823,381.060 94.263 C 381.938 95.905,381.736 96.145,379.110 96.572 C 377.498 96.835,373.780 97.460,370.846 97.963 C 364.130 99.113,363.964 99.092,366.966 97.463 C 370.109 95.758,370.070 95.290,366.517 92.078 L 363.596 89.438 366.227 92.350 C 367.674 93.952,368.638 95.482,368.369 95.751 C 366.959 97.161,351.157 100.730,350.266 99.839 C 349.737 99.310,349.485 98.876,349.708 98.875 C 351.174 98.871,365.288 96.135,365.635 95.788 C 366.478 94.945,365.011 92.685,362.972 91.684 C 361.015 90.723,361.025 90.769,363.146 92.517 C 365.946 94.824,364.877 95.723,358.312 96.579 C 355.780 96.909,352.837 97.393,351.773 97.654 C 350.163 98.049,349.730 97.626,349.192 95.132 C 343.800 70.164,307.301 70.949,303.276 96.120 C 302.825 98.941,302.338 99.727,301.230 99.427 C 300.430 99.211,297.551 98.562,294.831 97.986 C 287.165 96.362,287.246 96.406,288.647 94.596 C 289.609 93.353,289.445 93.385,287.844 94.751 C 285.312 96.911,284.924 96.669,294.253 98.748 C 302.159 100.509,303.681 101.113,302.695 102.099 C 302.153 102.641,284.082 99.213,283.286 98.417 C 283.040 98.171,283.717 97.036,284.790 95.894 C 285.864 94.751,286.742 93.485,286.742 93.079 C 286.742 92.674,285.903 93.408,284.879 94.710 L 283.016 97.079 244.654 96.992 C 216.581 96.929,205.087 96.596,201.798 95.751 C 197.895 94.748,201.891 94.582,232.135 94.489 L 266.966 94.382 267.125 72.135 L 267.283 49.888 267.822 69.416 C 268.147 81.229,268.736 89.321,269.312 89.896 M96.180 54.831 C 96.180 58.115,96.162 58.130,91.271 59.016 C 84.688 60.209,84.079 58.243,89.812 54.307 C 95.119 50.664,96.180 50.751,96.180 54.831 M217.303 51.941 C 214.433 52.536,215.675 53.483,219.326 53.483 C 221.303 53.483,222.797 53.110,222.645 52.655 C 222.346 51.758,219.817 51.419,217.303 51.941 M17.491 54.600 C 23.523 58.243,21.640 60.218,14.223 58.028 C 10.092 56.808,9.115 55.497,10.812 53.453 C 12.291 51.670,12.780 51.754,17.491 54.600 M282.318 56.854 C 282.369 57.652,282.530 57.622,282.876 56.752 C 283.288 55.718,283.485 55.718,284.140 56.752 C 284.708 57.649,284.920 57.677,284.930 56.854 C 284.940 56.018,287.708 55.730,295.730 55.730 C 303.722 55.730,306.535 56.021,306.588 56.854 C 306.638 57.652,306.800 57.622,307.146 56.752 C 307.557 55.718,307.754 55.718,308.410 56.752 C 308.978 57.649,309.190 57.677,309.200 56.854 C 309.210 56.011,312.247 55.730,321.348 55.730 C 330.419 55.730,333.501 56.014,333.554 56.854 C 333.604 57.652,333.766 57.622,334.112 56.752 C 334.524 55.718,334.721 55.718,335.376 56.752 C 335.944 57.649,336.156 57.677,336.166 56.854 C 336.176 56.018,338.944 55.730,346.966 55.730 C 354.958 55.730,357.771 56.021,357.824 56.854 C 357.874 57.652,358.036 57.622,358.382 56.752 C 358.793 55.718,358.990 55.718,359.646 56.752 C 360.214 57.649,360.426 57.677,360.436 56.854 C 360.446 56.018,363.213 55.730,371.236 55.730 C 379.228 55.730,382.041 56.021,382.093 56.854 C 382.144 57.652,382.306 57.622,382.652 56.752 C 383.063 55.718,383.260 55.718,383.915 56.752 C 384.484 57.649,384.695 57.677,384.705 56.854 C 384.715 56.093,386.314 55.730,389.663 55.730 C 393.458 55.730,394.607 56.044,394.607 57.079 C 394.607 58.264,387.073 58.427,332.197 58.427 L 269.788 58.427 269.398 60.449 C 269.157 61.701,268.962 61.188,268.886 59.101 L 268.764 55.730 275.506 55.730 C 280.262 55.730,282.268 56.061,282.318 56.854 M15.434 60.344 C 14.361 60.741,13.483 61.483,13.483 61.994 C 13.483 62.504,12.674 62.921,11.685 62.921 C 10.302 62.921,9.888 62.322,9.888 60.320 L 9.888 57.719 13.636 58.671 C 16.925 59.506,17.146 59.711,15.434 60.344 M198.843 60.225 L 198.448 62.921 168.490 62.921 C 149.488 62.921,138.330 63.250,137.978 63.820 C 136.882 65.592,135.730 64.670,135.730 62.022 L 135.730 59.326 148.539 59.220 C 155.584 59.162,165.393 58.824,170.337 58.470 C 175.281 58.115,183.806 57.758,189.283 57.676 L 199.239 57.528 198.843 60.225 M261.573 60.225 L 261.573 62.921 230.562 62.921 L 199.551 62.921 199.551 60.824 C 199.551 57.497,199.251 57.528,231.161 57.528 L 261.573 57.528 261.573 60.225 M246.292 60.225 C 246.292 61.783,246.891 62.022,250.787 62.022 C 254.682 62.022,255.281 61.783,255.281 60.225 C 255.281 58.667,254.682 58.427,250.787 58.427 C 246.891 58.427,246.292 58.667,246.292 60.225 M21.573 66.120 C 21.573 70.421,21.243 72.711,20.674 72.360 C 20.180 72.054,19.775 68.996,19.775 65.565 C 19.775 62.005,20.161 59.326,20.674 59.326 C 21.194 59.326,21.573 62.190,21.573 66.120 M34.157 66.067 L 34.157 72.809 28.315 72.809 L 22.472 72.809 22.472 66.067 L 22.472 59.326 28.315 59.326 L 34.157 59.326 34.157 66.067 M61.846 59.995 C 57.052 60.157,48.962 60.157,43.868 59.997 C 38.774 59.836,42.697 59.704,52.584 59.704 C 62.472 59.703,66.639 59.834,61.846 59.995 M82.697 66.067 L 82.697 72.809 76.854 72.809 L 71.011 72.809 71.011 66.067 L 71.011 59.326 76.854 59.326 L 82.697 59.326 82.697 66.067 M85.393 65.565 C 85.393 68.996,84.989 72.054,84.494 72.360 C 83.925 72.711,83.596 70.421,83.596 66.120 C 83.596 62.190,83.974 59.326,84.494 59.326 C 85.007 59.326,85.393 62.005,85.393 65.565 M96.180 61.573 C 96.180 64.264,94.976 64.418,92.034 62.103 C 89.727 60.289,90.322 59.531,94.157 59.397 C 95.734 59.341,96.180 59.821,96.180 61.573 M254.382 60.225 C 254.382 60.719,252.764 61.124,250.787 61.124 C 248.809 61.124,247.191 60.719,247.191 60.225 C 247.191 59.730,248.809 59.326,250.787 59.326 C 252.764 59.326,254.382 59.730,254.382 60.225 M392.809 60.674 C 392.809 61.859,385.418 62.022,331.685 62.022 C 277.953 62.022,270.562 61.859,270.562 60.674 C 270.562 59.489,277.953 59.326,331.685 59.326 C 385.418 59.326,392.809 59.489,392.809 60.674 M25.169 62.022 C 21.971 65.221,24.099 71.910,28.315 71.910 C 30.417 71.910,33.258 68.552,33.258 66.067 C 33.258 63.583,30.417 60.225,28.315 60.225 C 27.573 60.225,26.157 61.034,25.169 62.022 M73.708 62.022 C 70.510 65.221,72.638 71.910,76.854 71.910 C 78.956 71.910,81.798 68.552,81.798 66.067 C 81.798 63.583,78.956 60.225,76.854 60.225 C 76.112 60.225,74.697 61.034,73.708 62.022 M124.944 64.719 C 124.944 69.022,125.049 69.214,127.416 69.217 L 129.888 69.220 126.966 71.001 C 125.360 71.981,124.045 72.980,124.045 73.222 C 124.045 73.820,132.615 68.726,136.169 66.014 L 139.046 63.820 200.310 63.820 C 240.553 63.820,261.573 64.129,261.573 64.719 C 261.573 65.309,241.118 65.618,202.006 65.618 L 142.439 65.618 137.062 70.090 C 134.105 72.549,131.159 74.571,130.515 74.584 C 129.871 74.596,131.793 72.570,134.785 70.080 C 137.777 67.590,140.225 65.350,140.225 65.103 C 140.225 64.856,137.781 66.687,134.794 69.173 C 125.183 77.172,122.577 76.710,122.992 67.083 C 123.318 59.523,124.944 57.554,124.944 64.719 M134.831 62.022 C 134.831 63.581,134.232 63.820,130.337 63.820 C 126.442 63.820,125.843 63.581,125.843 62.022 C 125.843 60.464,126.442 60.225,130.337 60.225 C 134.232 60.225,134.831 60.464,134.831 62.022 M18.876 63.433 C 18.876 65.314,18.501 65.690,16.854 65.456 C 13.751 65.015,13.493 61.124,16.567 61.124 C 18.448 61.124,18.876 61.552,18.876 63.433 M30.947 62.536 C 33.632 65.221,31.834 71.011,28.315 71.011 C 26.406 71.011,24.270 68.400,24.270 66.067 C 24.270 63.735,26.406 61.124,28.315 61.124 C 28.986 61.124,30.170 61.759,30.947 62.536 M70.112 62.022 C 70.112 62.821,65.368 63.129,53.034 63.129 C 40.088 63.129,35.056 62.819,35.056 62.022 C 35.056 61.454,41.498 61.124,52.584 61.124 C 63.670 61.124,70.112 61.454,70.112 62.022 M79.486 62.536 C 82.172 65.221,80.373 71.011,76.854 71.011 C 74.946 71.011,72.809 68.400,72.809 66.067 C 72.809 63.735,74.946 61.124,76.854 61.124 C 77.525 61.124,78.709 61.759,79.486 62.536 M92.418 64.045 C 92.657 65.305,92.077 65.618,89.504 65.618 C 86.859 65.618,86.292 65.291,86.292 63.763 C 86.292 61.306,91.949 61.566,92.418 64.045 M332.397 63.595 L 269.738 63.832 269.432 70.793 L 269.126 77.753 268.945 70.337 L 268.764 62.921 331.910 63.140 L 395.056 63.358 332.397 63.595 M14.100 65.393 C 14.409 66.258,16.115 68.476,17.892 70.322 L 21.124 73.678 52.801 73.693 C 83.514 73.707,84.513 73.653,85.602 71.910 C 86.219 70.921,87.409 70.112,88.245 70.112 C 89.081 70.112,90.629 68.899,91.685 67.416 C 95.283 62.364,97.079 63.710,97.079 71.461 L 97.079 78.202 89.099 78.202 C 83.102 78.202,80.841 78.537,80.000 79.551 C 79.053 80.692,74.912 80.899,53.034 80.899 C 31.155 80.899,27.015 80.692,26.067 79.551 C 25.227 78.537,22.965 78.202,16.969 78.202 L 8.989 78.202 8.989 72.433 C 8.989 64.430,12.187 60.026,14.100 65.393 M50.143 64.885 C 51.634 66.375,54.669 66.447,55.854 65.019 C 57.097 63.522,70.112 63.312,70.112 64.790 C 70.112 65.423,67.809 65.657,63.482 65.464 C 59.807 65.300,56.479 65.569,56.015 66.067 C 55.461 66.663,57.696 66.859,62.646 66.649 C 67.679 66.436,70.112 66.655,70.112 67.323 C 70.112 68.728,55.525 68.648,54.112 67.236 C 53.273 66.397,52.794 66.397,51.955 67.236 C 50.540 68.651,35.056 68.733,35.056 67.326 C 35.056 66.659,37.626 66.440,42.973 66.652 C 48.223 66.860,50.608 66.663,50.053 66.067 C 49.584 65.563,46.105 65.297,42.136 65.462 C 37.500 65.654,35.056 65.421,35.056 64.788 C 35.056 63.422,48.769 63.511,50.143 64.885 M266.067 64.719 C 266.067 65.213,265.258 65.618,264.270 65.618 C 263.281 65.618,262.472 65.213,262.472 64.719 C 262.472 64.225,263.281 63.820,264.270 63.820 C 265.258 63.820,266.067 64.225,266.067 64.719 M133.034 66.517 C 129.963 68.919,125.843 68.919,125.843 66.517 C 125.843 64.945,126.435 64.722,130.562 64.739 L 135.281 64.759 133.034 66.517 M388.315 71.011 L 388.315 77.303 371.011 77.296 L 353.708 77.288 350.238 71.902 L 346.768 66.517 326.742 66.517 L 306.715 66.517 303.245 71.902 L 299.775 77.288 285.169 77.296 L 270.562 77.303 270.562 71.011 L 270.562 64.719 329.438 64.719 L 388.315 64.719 388.315 71.011 M391.910 73.708 C 391.910 82.456,390.351 86.246,388.953 80.899 C 388.502 79.176,387.724 79.101,370.197 79.093 L 351.910 79.085 348.440 73.700 L 344.971 68.315 326.604 68.315 L 308.237 68.315 304.905 73.698 L 301.573 79.081 284.944 78.889 L 268.315 78.696 284.184 78.429 L 300.053 78.161 303.510 72.796 L 306.966 67.431 326.742 67.431 L 346.517 67.431 349.999 72.835 L 353.480 78.240 371.122 77.996 L 388.764 77.753 389.028 71.236 C 389.477 60.154,391.910 62.240,391.910 73.708 M394.517 69.438 C 394.362 77.632,392.999 79.523,392.899 71.685 C 392.846 67.581,393.178 64.719,393.708 64.719 C 394.204 64.719,394.567 66.832,394.517 69.438 M18.876 67.897 C 18.876 68.998,18.514 69.083,17.079 68.315 C 16.090 67.785,15.281 67.164,15.281 66.935 C 15.281 66.705,16.090 66.517,17.079 66.517 C 18.096 66.517,18.876 67.116,18.876 67.897 M90.566 67.640 C 89.997 69.369,86.292 69.618,86.292 67.928 C 86.292 67.010,87.104 66.517,88.614 66.517 C 90.070 66.517,90.798 66.936,90.566 67.640 M197.753 71.387 C 197.753 74.066,197.998 76.897,198.298 77.679 C 198.773 78.917,197.689 79.101,189.924 79.101 L 181.005 79.101 178.956 74.157 L 176.907 69.213 159.683 69.213 L 142.459 69.213 137.528 73.258 C 132.631 77.275,120.449 79.519,120.449 76.404 C 120.449 75.904,122.937 75.496,126.067 75.483 C 131.472 75.461,131.890 75.290,137.062 70.988 L 142.439 66.517 170.096 66.517 L 197.753 66.517 197.753 71.387 M261.565 68.090 C 261.561 68.955,261.302 71.787,260.991 74.382 L 260.424 79.101 230.083 79.101 C 195.818 79.101,198.652 79.797,198.652 71.387 L 198.652 66.517 230.112 66.517 C 259.479 66.517,261.573 66.622,261.565 68.090 M266.067 72.809 C 266.067 79.010,266.033 79.101,263.695 79.101 C 261.360 79.101,261.332 79.026,261.889 74.382 C 262.201 71.787,262.460 68.955,262.464 68.090 C 262.469 67.119,263.160 66.517,264.270 66.517 C 265.896 66.517,266.067 67.116,266.067 72.809 M70.112 70.112 C 70.112 70.681,63.670 71.011,52.584 71.011 C 41.498 71.011,35.056 70.681,35.056 70.112 C 35.056 69.544,41.498 69.213,52.584 69.213 C 63.670 69.213,70.112 69.544,70.112 70.112 M348.189 74.615 L 351.659 80.000 369.987 80.000 C 385.679 80.000,388.315 80.194,388.315 81.348 C 388.315 82.506,385.525 82.697,368.605 82.697 L 348.896 82.697 346.064 77.748 C 342.277 71.128,341.934 71.011,326.307 71.011 C 310.403 71.011,309.072 71.459,305.204 78.117 L 302.544 82.697 285.654 82.697 C 271.240 82.697,268.764 82.499,268.764 81.348 C 268.764 80.199,271.204 80.000,285.328 80.000 L 301.892 80.000 305.169 74.607 L 308.445 69.213 326.582 69.221 L 344.719 69.229 348.189 74.615 M178.103 74.231 C 179.105 76.497,180.067 79.469,180.240 80.836 C 180.514 83.006,182.649 92.038,183.893 96.293 C 184.160 97.206,183.672 97.924,182.594 98.206 C 181.166 98.579,180.771 98.042,180.298 95.089 C 176.248 69.757,139.080 69.475,134.340 94.740 L 133.694 98.183 128.201 97.561 C 122.255 96.889,121.233 96.463,122.978 95.385 C 123.598 95.001,123.847 94.012,123.530 93.187 C 123.107 92.084,123.445 91.685,124.805 91.685 C 128.729 91.685,131.236 89.758,131.236 86.742 C 131.236 83.512,128.695 81.798,123.906 81.798 C 121.768 81.798,121.277 81.482,121.702 80.376 C 122.002 79.594,122.247 78.785,122.247 78.578 C 122.247 78.371,124.576 78.202,127.422 78.202 C 132.226 78.202,132.951 77.912,137.528 74.157 L 142.459 70.112 159.370 70.112 L 176.281 70.112 178.103 74.231 M61.846 72.580 C 57.052 72.741,48.962 72.742,43.868 72.581 C 38.774 72.421,42.697 72.289,52.584 72.288 C 62.472 72.287,66.639 72.418,61.846 72.580 M36.383 77.338 C 35.262 79.151,37.396 80.115,41.897 79.830 C 45.081 79.628,46.292 79.179,46.292 78.202 C 46.292 76.520,37.370 75.741,36.383 77.338 M48.070 77.336 C 46.976 79.105,49.048 80.126,53.136 79.833 C 55.916 79.634,57.079 79.153,57.079 78.202 C 57.079 76.528,49.047 75.755,48.070 77.336 M58.855 77.338 C 57.734 79.151,59.868 80.115,64.369 79.830 C 67.552 79.628,68.764 79.179,68.764 78.202 C 68.764 76.520,59.842 75.741,58.855 77.338 M167.667 78.899 C 188.567 89.644,180.857 120.857,157.303 120.857 C 131.295 120.857,126.172 85.338,151.005 77.190 C 154.708 75.976,163.792 76.907,167.667 78.899 M45.843 78.202 C 45.843 78.697,43.820 79.101,41.348 79.101 C 38.876 79.101,36.854 78.697,36.854 78.202 C 36.854 77.708,38.876 77.303,41.348 77.303 C 43.820 77.303,45.843 77.708,45.843 78.202 M56.629 78.202 C 56.629 78.697,54.809 79.101,52.584 79.101 C 50.360 79.101,48.539 78.697,48.539 78.202 C 48.539 77.708,50.360 77.303,52.584 77.303 C 54.809 77.303,56.629 77.708,56.629 78.202 M68.315 78.202 C 68.315 78.697,66.292 79.101,63.820 79.101 C 61.348 79.101,59.326 78.697,59.326 78.202 C 59.326 77.708,61.348 77.303,63.820 77.303 C 66.292 77.303,68.315 77.708,68.315 78.202 M336.656 79.798 C 357.533 90.531,349.821 121.756,326.292 121.756 C 300.284 121.756,295.161 86.237,319.994 78.089 C 323.697 76.874,332.781 77.806,336.656 79.798 M26.067 80.449 C 27.015 81.591,31.155 81.798,53.034 81.798 C 74.912 81.798,79.053 81.591,80.000 80.449 C 82.182 77.820,94.382 78.583,94.382 81.348 L 94.382 83.596 53.034 83.596 L 11.685 83.596 11.685 81.348 C 11.685 78.583,23.886 77.820,26.067 80.449 M196.854 80.375 C 196.854 84.437,193.009 89.001,189.470 89.140 L 185.618 89.291 188.989 89.644 C 193.180 90.082,193.450 91.685,189.333 91.685 C 186.161 91.685,186.325 91.917,181.847 81.124 C 181.495 80.276,183.279 80.000,189.117 80.000 C 193.372 80.000,196.854 80.169,196.854 80.375 M200.848 86.966 C 201.421 88.831,201.188 88.989,197.863 88.989 L 194.257 88.989 196.191 84.336 L 198.124 79.683 199.176 82.313 C 199.754 83.760,200.507 85.854,200.848 86.966 M260.352 81.573 C 260.109 82.438,259.645 84.461,259.322 86.067 L 258.734 88.989 230.575 88.989 L 202.416 88.989 200.983 84.784 C 200.195 82.471,199.551 80.448,199.551 80.289 C 199.551 80.130,213.331 80.000,230.173 80.000 C 258.907 80.000,260.768 80.097,260.352 81.573 M266.067 84.494 L 266.067 88.989 262.850 88.989 C 259.429 88.989,259.314 88.455,261.251 81.573 C 262.390 77.527,266.067 79.757,266.067 84.494 M128.598 83.627 C 133.727 86.372,129.569 90.787,121.857 90.787 L 116.854 90.787 116.854 87.266 C 116.854 85.290,117.347 83.546,117.978 83.292 C 120.024 82.466,126.831 82.681,128.598 83.627 M272.525 86.067 C 272.807 88.519,272.864 88.539,279.551 88.539 C 286.237 88.539,286.294 88.519,286.577 86.067 C 287.037 82.070,290.337 82.661,290.337 86.742 L 290.337 89.888 280.000 89.888 L 269.663 89.888 269.663 86.742 C 269.663 82.884,272.092 82.311,272.525 86.067 M285.843 85.843 C 285.843 88.026,285.663 88.090,279.551 88.090 C 273.438 88.090,273.258 88.026,273.258 85.843 C 273.258 83.660,273.438 83.596,279.551 83.596 C 285.663 83.596,285.843 83.660,285.843 85.843 M97.079 87.994 C 97.079 92.810,99.240 92.584,53.034 92.584 C 6.827 92.584,8.989 92.810,8.989 87.994 L 8.989 84.494 53.034 84.494 L 97.079 84.494 97.079 87.994 M152.315 85.759 C 150.807 86.415,148.498 88.232,147.182 89.795 C 136.471 102.525,154.232 119.627,166.750 108.636 C 178.342 98.458,166.446 79.604,152.315 85.759 M165.271 87.830 C 175.841 95.574,169.503 112.481,156.527 111.159 C 143.653 109.848,140.483 92.965,151.974 86.917 C 155.770 84.920,161.870 85.339,165.271 87.830 M321.304 86.658 C 319.796 87.314,317.486 89.131,316.171 90.694 C 305.460 103.423,323.221 120.526,335.738 109.535 C 347.331 99.357,335.435 80.502,321.304 86.658 M334.260 88.729 C 344.830 96.473,338.492 113.380,325.515 112.058 C 312.642 110.747,309.471 93.864,320.963 87.816 C 324.758 85.819,330.859 86.238,334.260 88.729 M152.178 88.952 C 146.723 92.279,145.055 98.715,148.278 104.001 C 152.767 111.364,162.738 111.364,167.227 104.001 C 173.211 94.188,161.991 82.969,152.178 88.952 M162.687 89.433 C 172.021 94.260,168.319 108.764,157.753 108.764 C 154.295 108.764,150.326 106.392,148.779 103.400 C 144.010 94.177,153.476 84.670,162.687 89.433 M321.167 89.851 C 315.711 93.178,314.044 99.614,317.267 104.900 C 321.756 112.263,331.727 112.263,336.216 104.900 C 342.199 95.087,330.980 83.868,321.167 89.851 M331.675 90.332 C 341.010 95.159,337.308 109.663,326.742 109.663 C 323.284 109.663,319.315 107.291,317.768 104.299 C 312.998 95.076,322.465 85.569,331.675 90.332 M202.247 90.787 C 202.247 91.281,200.225 91.685,197.753 91.685 C 195.281 91.685,193.258 91.281,193.258 90.787 C 193.258 90.292,195.281 89.888,197.753 89.888 C 200.225 89.888,202.247 90.292,202.247 90.787 M266.067 90.787 C 266.067 91.369,254.981 91.685,234.607 91.685 C 214.232 91.685,203.146 91.369,203.146 90.787 C 203.146 90.204,214.232 89.888,234.607 89.888 C 254.981 89.888,266.067 90.204,266.067 90.787 M153.218 93.892 C 149.169 97.940,152.076 105.169,157.753 105.169 C 160.750 105.169,164.494 101.424,164.494 98.427 C 164.494 95.430,160.750 91.685,157.753 91.685 C 156.472 91.685,154.431 92.678,153.218 93.892 M20.674 107.046 L 20.674 120.449 15.281 120.449 L 9.888 120.449 9.886 106.742 L 9.884 93.034 15.279 93.338 L 20.674 93.643 20.674 107.046 M161.798 94.382 C 162.787 95.371,163.596 97.191,163.596 98.427 C 163.596 99.663,162.787 101.483,161.798 102.472 C 160.809 103.461,158.989 104.270,157.753 104.270 C 156.517 104.270,154.697 103.461,153.708 102.472 C 152.719 101.483,151.910 99.663,151.910 98.427 C 151.910 97.191,152.719 95.371,153.708 94.382 C 154.697 93.393,156.517 92.584,157.753 92.584 C 158.989 92.584,160.809 93.393,161.798 94.382 M246.517 93.258 C 235.517 93.401,217.517 93.401,206.517 93.258 C 195.517 93.115,204.517 92.998,226.517 92.998 C 248.517 92.998,257.517 93.115,246.517 93.258 M322.206 94.791 C 318.158 98.839,321.065 106.067,326.742 106.067 C 329.739 106.067,333.483 102.323,333.483 99.326 C 333.483 96.329,329.739 92.584,326.742 92.584 C 325.461 92.584,323.420 93.577,322.206 94.791 M94.382 106.966 L 94.382 120.449 88.989 120.449 L 83.596 120.449 83.596 106.966 L 83.596 93.483 88.989 93.483 L 94.382 93.483 94.382 106.966 M330.787 95.281 C 334.347 98.841,331.758 105.169,326.742 105.169 C 323.857 105.169,320.899 102.211,320.899 99.326 C 320.899 96.441,323.857 93.483,326.742 93.483 C 327.978 93.483,329.798 94.292,330.787 95.281 M192.360 94.770 C 192.360 94.984,191.146 96.023,189.663 97.079 L 186.966 98.999 186.966 96.690 C 186.966 94.725,187.367 94.382,189.663 94.382 C 191.146 94.382,192.360 94.557,192.360 94.770 M155.547 96.579 C 153.120 99.504,157.137 103.024,159.830 100.331 C 160.975 99.186,161.092 98.484,160.338 97.287 C 159.025 95.202,156.945 94.895,155.547 96.579 M324.536 97.478 C 322.108 100.403,326.126 103.922,328.819 101.230 C 329.963 100.085,330.081 99.383,329.327 98.185 C 328.014 96.101,325.934 95.794,324.536 97.478 M23.062 101.758 C 22.392 104.320,23.022 104.988,23.799 102.540 C 24.503 100.321,26.067 100.051,26.067 102.148 C 26.067 104.511,28.509 105.651,32.832 105.307 C 36.453 105.019,36.854 104.761,36.854 102.710 L 36.854 100.432 38.717 102.800 C 39.742 104.103,41.157 105.169,41.863 105.169 C 42.569 105.169,43.146 105.573,43.146 106.067 C 43.146 107.659,45.052 107.032,48.490 104.308 C 51.501 101.924,52.624 101.619,59.406 101.345 L 66.966 101.040 58.652 100.857 C 54.079 100.756,50.337 101.003,50.337 101.404 C 50.337 105.971,41.038 106.031,38.602 101.480 C 37.517 99.453,35.955 100.014,35.955 102.431 C 35.955 103.701,35.123 104.160,32.340 104.426 C 28.452 104.796,26.966 103.958,26.966 101.393 C 26.966 99.025,23.697 99.331,23.062 101.758 " stroke="none" fill="#000000" fill-rule="evenodd"></path></g></svg>