<svg width="796" height="297" viewBox="0 0 796 297" fill="none" xmlns="http://www.w3.org/2000/svg">
<path d="M737 43.5L731.549 23.1582C730.174 18.0233 725.583 14.4056 720.269 14.2681L599.411 11.14C595.974 11.0511 592.745 9.47578 590.559 6.822V6.822C588.306 4.08539 584.946 2.5 581.401 2.5H216.971C213.788 2.5 210.736 3.76428 208.485 6.01472L206.408 8.09246C204.221 10.2793 201.274 11.5374 198.182 11.6044L73.8944 14.2965C68.3767 14.416 63.6519 18.2837 62.4448 23.6692L58 43.5" stroke="black" stroke-width="4"/>
<path d="M770.5 119.5C770.5 119.5 778.383 118.895 785.191 123.25C790.437 126.605 792.759 130.578 793.548 132.225C793.791 132.731 793.883 133.286 793.883 133.847V199C793.883 201.761 791.644 204 788.883 204H772.571C771.245 204 769.973 203.473 769.036 202.535L767 200.5" stroke="black" stroke-width="4"/>
<path d="M25.3828 119.5C25.3828 119.5 17.5 118.895 10.6914 123.25C5.44556 126.605 3.12384 130.578 2.33439 132.225C2.09194 132.731 2 133.286 2 133.847V199C2 201.761 4.23858 204 7 204H23.3117C24.6378 204 25.9096 203.473 26.8473 202.535L28.8828 200.5" stroke="black" stroke-width="4"/>
<path d="M738 43.5H58C57.4477 43.5 57 43.9477 57 44.5V104.249C57 104.416 57.0375 104.573 57.1191 104.719C58.0576 106.401 64.3932 117.516 70.75 122.752C77.5932 128.388 90.904 132.517 92.3683 132.96C92.46 132.988 92.5486 133 92.6444 133H711.021C711.163 133 711.302 132.97 711.431 132.911C713.362 132.024 729.075 124.67 732.618 118.75C736.417 112.403 738.747 101.696 738.981 100.593C738.995 100.526 739 100.466 739 100.398V44.5C739 43.9477 738.552 43.5 738 43.5Z" stroke="black" stroke-width="4"/>
<path d="M146.5 49C155.815 49 167.845 49.795 177.335 50.5684C185.522 51.2355 192.041 57.5291 192.85 65.6602C193.469 71.8891 194 78.8802 194 84.5C194 90.1198 193.469 97.1109 192.85 103.34C192.041 111.471 185.522 117.764 177.335 118.432C167.845 119.205 155.815 120 146.5 120C137.184 120 125.153 119.205 115.662 118.432C107.476 117.765 100.958 111.472 100.149 103.343C99.5305 97.1181 99 90.1291 99 84.5C99 78.8709 99.5305 71.8819 100.149 65.6572C100.958 57.5277 107.476 51.2354 115.662 50.5684C125.153 49.795 137.184 49 146.5 49Z" stroke="black" stroke-width="4"/>
<path d="M650.5 49C659.815 49 671.845 49.795 681.335 50.5684C689.522 51.2355 696.041 57.5291 696.85 65.6602C697.469 71.8891 698 78.8802 698 84.5C698 90.1198 697.469 97.1109 696.85 103.34C696.041 111.471 689.522 117.764 681.335 118.432C671.845 119.205 659.815 120 650.5 120C641.184 120 629.153 119.205 619.662 118.432C611.476 117.765 604.958 111.472 604.149 103.343C603.531 97.1181 603 90.1291 603 84.5C603 78.8709 603.531 71.8819 604.149 65.6572C604.958 57.5277 611.476 51.2354 619.662 50.5684C629.153 49.795 641.184 49 650.5 49Z" stroke="black" stroke-width="4"/>
<line x1="92" y1="133" x2="92" y2="43" stroke="black" stroke-width="4"/>
<line x1="705" y1="133" x2="705" y2="43" stroke="black" stroke-width="4"/>
<line x1="204" y1="65" x2="595" y2="65" stroke="black" stroke-width="4"/>
<line x1="204" y1="86" x2="331" y2="86" stroke="black" stroke-width="4"/>
<line x1="467" y1="86" x2="593" y2="86" stroke="black" stroke-width="4"/>
<line x1="204" y1="107" x2="595" y2="107" stroke="black" stroke-width="4"/>
<line x1="202" y1="45" x2="202" y2="133" stroke="black" stroke-width="4"/>
<line x1="595" y1="45" x2="595" y2="133" stroke="black" stroke-width="4"/>
<path d="M739 75.5L767.071 103.571C768.946 105.446 770 107.99 770 110.642V194C770 199.523 765.523 204 760 204H585.179C583.424 204 581.7 203.538 580.179 202.66L570.964 197.34C569.444 196.462 567.719 196 565.964 196H236.679C234.924 196 233.2 196.462 231.679 197.34L222.464 202.66C220.944 203.538 219.219 204 217.464 204H37C31.4772 204 27 199.523 27 194V110.642C27 107.99 28.0536 105.446 29.9289 103.571L42.5 91L58 75.5" stroke="black" stroke-width="4"/>
<line x1="716" y1="129" x2="716" y2="204" stroke="black" stroke-width="4"/>
<line x1="85" y1="129" x2="85" y2="204" stroke="black" stroke-width="4"/>
<rect x="101" y="157" width="98" height="28" rx="6" stroke="black" stroke-width="4"/>
<rect x="600" y="157" width="98" height="28" rx="6" stroke="black" stroke-width="4"/>
<rect x="406" y="163" width="131" height="22" rx="10" stroke="black" stroke-width="4"/>
<rect x="257" y="163" width="131" height="22" rx="10" stroke="black" stroke-width="4"/>
<path d="M331.643 70.957H350.469V75.9062H344.152V91H337.959V75.9062H331.643V70.957ZM352.506 80.9922C352.506 77.7201 353.417 75.1725 355.24 73.3496C357.063 71.5267 359.602 70.6152 362.855 70.6152C366.191 70.6152 368.762 71.513 370.566 73.3086C372.371 75.0951 373.273 77.6016 373.273 80.8281C373.273 83.1706 372.877 85.0938 372.084 86.5977C371.3 88.0924 370.161 89.2591 368.666 90.0977C367.18 90.9271 365.326 91.3418 363.102 91.3418C360.841 91.3418 358.968 90.9818 357.482 90.2617C356.006 89.5417 354.807 88.4023 353.887 86.8438C352.966 85.2852 352.506 83.3346 352.506 80.9922ZM358.699 81.0195C358.699 83.043 359.073 84.4967 359.82 85.3809C360.577 86.265 361.602 86.707 362.896 86.707C364.227 86.707 365.257 86.2741 365.986 85.4082C366.715 84.5423 367.08 82.9883 367.08 80.7461C367.08 78.8594 366.697 77.4831 365.932 76.6172C365.175 75.7422 364.145 75.3047 362.842 75.3047C361.593 75.3047 360.59 75.7467 359.834 76.6309C359.077 77.515 358.699 78.9779 358.699 81.0195ZM374.586 70.957H381.463L385.51 77.7246L389.557 70.957H396.393L388.6 82.6055V91H382.393V82.6055L374.586 70.957ZM397.623 80.9922C397.623 77.7201 398.535 75.1725 400.357 73.3496C402.18 71.5267 404.719 70.6152 407.973 70.6152C411.309 70.6152 413.879 71.513 415.684 73.3086C417.488 75.0951 418.391 77.6016 418.391 80.8281C418.391 83.1706 417.994 85.0938 417.201 86.5977C416.417 88.0924 415.278 89.2591 413.783 90.0977C412.298 90.9271 410.443 91.3418 408.219 91.3418C405.958 91.3418 404.085 90.9818 402.6 90.2617C401.123 89.5417 399.924 88.4023 399.004 86.8438C398.083 85.2852 397.623 83.3346 397.623 80.9922ZM403.816 81.0195C403.816 83.043 404.19 84.4967 404.938 85.3809C405.694 86.265 406.719 86.707 408.014 86.707C409.344 86.707 410.374 86.2741 411.104 85.4082C411.833 84.5423 412.197 82.9883 412.197 80.7461C412.197 78.8594 411.814 77.4831 411.049 76.6172C410.292 75.7422 409.262 75.3047 407.959 75.3047C406.71 75.3047 405.708 75.7467 404.951 76.6309C404.195 77.515 403.816 78.9779 403.816 81.0195ZM420.318 70.957H439.145V75.9062H432.828V91H426.635V75.9062H420.318V70.957ZM454.293 87.6914H447.238L446.268 91H439.938L447.471 70.957H454.225L461.758 91H455.277L454.293 87.6914ZM452.994 83.3574L450.779 76.1523L448.578 83.3574H452.994Z" fill="black"/>
<path d="M711 294.037L755.87 272.235C759.314 270.562 761.5 267.07 761.5 263.241V226.5C761.5 220.977 757.023 216.5 751.5 216.5H725.167M711 294.037H83.5M711 294.037L723.827 271.821C724.705 270.3 725.167 268.576 725.167 266.821V216.5M83.5 294.037L38.2552 275.764C34.4749 274.238 32 270.569 32 266.492V226.5C32 220.977 36.4772 216.5 42 216.5H72M83.5 294.037L73.1345 274.174C72.3892 272.746 72 271.159 72 269.548V216.5M72 216.5H725.167" stroke="black" stroke-width="4"/>
<rect x="278" y="237" width="239" height="44" rx="5" stroke="black" stroke-width="4"/>
</svg>
