<svg id="svg" xmlns="http://www.w3.org/2000/svg" xmlns:xlink="http://www.w3.org/1999/xlink" width="400" height="146.01941747572815" viewBox="0, 0, 400,146.01941747572815"><g id="svgg"><path id="path0" d="M154.563 19.397 L 141.942 19.667 126.408 22.264 C 107.547 25.418,108.822 25.154,108.612 25.948 C 108.517 26.308,108.419 26.034,108.395 25.340 C 108.370 24.646,108.000 23.728,107.573 23.301 C 107.146 22.874,106.796 22.262,106.796 21.942 C 106.796 21.470,106.170 21.359,103.495 21.359 C 100.899 21.359,100.194 21.477,100.194 21.912 C 100.194 22.216,99.757 22.984,99.223 23.618 C 97.831 25.273,97.819 28.226,99.203 28.573 C 100.321 28.854,101.359 30.284,101.359 31.542 C 101.359 32.193,98.045 35.736,89.029 44.724 L 76.699 57.017 70.485 57.275 C 53.194 57.994,17.195 62.490,14.872 64.220 C 13.154 65.500,11.671 69.457,12.771 69.823 C 13.483 70.061,13.252 72.732,12.427 73.786 C 11.783 74.610,11.666 75.387,11.659 78.909 C 11.654 81.248,11.481 83.166,11.262 83.301 C 10.102 84.018,10.839 88.866,12.274 89.961 C 14.048 91.314,13.534 91.585,9.126 91.622 L 6.019 91.649 6.139 96.310 L 6.259 100.971 10.146 100.971 C 14.532 100.971,14.353 100.749,12.787 104.230 L 12.070 105.825 13.317 105.919 C 14.002 105.970,16.180 106.118,18.155 106.246 L 21.748 106.480 21.748 107.589 C 21.748 109.549,23.625 114.686,25.242 117.150 C 36.323 134.038,61.935 129.756,67.076 110.156 L 67.753 107.573 71.171 107.573 L 74.589 107.573 78.641 104.854 C 83.393 101.666,82.732 101.814,84.881 103.455 C 86.403 104.617,86.989 104.807,89.809 105.054 C 91.750 105.224,93.614 105.641,94.545 106.113 C 96.062 106.883,96.519 106.889,132.154 106.603 L 168.227 106.314 170.099 108.157 L 171.971 110.001 174.476 109.732 C 179.200 109.226,181.642 109.758,182.169 111.408 C 189.239 133.545,221.604 132.541,226.787 110.024 L 227.251 108.009 229.256 107.801 C 230.360 107.686,234.583 107.414,238.641 107.196 C 244.897 106.860,246.950 106.582,252.136 105.364 L 258.252 103.927 258.252 101.090 L 258.252 98.252 259.593 98.252 C 262.661 98.252,262.960 97.793,263.508 92.233 C 263.952 87.731,265.009 85.856,265.315 89.028 C 265.509 91.042,272.176 91.972,276.904 90.645 L 279.102 90.029 278.961 72.684 C 278.884 63.145,278.719 53.192,278.594 50.568 L 278.367 45.796 276.021 44.612 C 272.885 43.029,269.222 43.244,266.321 45.182 L 264.486 46.408 264.476 52.330 C 264.468 57.126,264.363 58.252,263.926 58.252 C 263.250 58.252,263.504 59.465,260.175 40.357 L 257.361 24.209 253.438 21.827 L 249.515 19.446 208.350 19.286 C 185.709 19.198,161.505 19.248,154.563 19.397 M252.922 22.387 C 254.893 23.578,256.537 24.580,256.577 24.614 C 256.616 24.647,257.984 32.267,259.615 41.547 C 262.834 59.859,262.642 59.029,263.671 59.029 C 264.641 59.029,264.854 59.770,264.854 63.139 L 264.854 66.019 218.122 66.019 C 192.418 66.019,166.117 66.135,159.675 66.276 L 147.961 66.533 147.961 63.599 C 147.961 61.465,148.107 60.610,148.496 60.460 C 149.012 60.262,149.931 27.083,149.435 26.587 C 149.339 26.491,142.459 26.672,134.145 26.988 C 125.831 27.305,117.718 27.590,116.117 27.621 C 114.515 27.653,113.641 27.762,114.175 27.864 C 115.162 28.053,137.842 27.375,145.196 26.937 L 149.226 26.697 148.942 43.154 C 148.714 56.393,148.552 59.732,148.116 60.225 C 147.758 60.628,147.573 61.789,147.573 63.623 L 147.573 66.408 145.452 66.408 L 143.331 66.408 143.219 63.023 L 143.107 59.639 141.618 59.288 L 140.129 58.936 140.349 55.391 C 140.470 53.440,140.679 46.733,140.813 40.485 L 141.056 29.126 137.227 29.135 C 127.815 29.156,111.509 29.896,110.519 30.346 C 109.927 30.616,104.714 36.663,98.404 44.399 L 87.328 57.977 89.004 59.705 L 90.680 61.433 96.019 61.272 L 101.359 61.112 101.359 62.426 C 101.359 64.250,101.980 65.243,103.120 65.243 C 104.161 65.243,104.360 65.696,103.592 66.316 C 103.320 66.536,99.052 66.832,93.883 66.990 L 84.660 67.271 84.660 64.809 C 84.660 59.491,84.667 59.482,101.396 39.731 C 106.187 34.075,106.845 33.117,107.932 30.216 C 108.598 28.442,109.285 26.734,109.460 26.420 C 109.688 26.010,114.235 25.099,125.665 23.171 L 141.553 20.492 154.369 20.196 C 161.417 20.033,185.669 19.972,208.262 20.061 L 249.339 20.222 252.922 22.387 M318.641 22.104 C 308.514 22.473,308.137 22.979,305.016 40.388 C 304.461 43.485,303.848 46.078,303.654 46.149 C 303.460 46.220,303.301 47.127,303.301 48.165 C 303.301 50.482,302.615 51.101,302.450 48.934 C 302.280 46.706,301.577 46.819,301.432 49.097 C 301.342 50.519,301.467 51.097,301.918 51.350 C 302.334 51.583,302.524 52.265,302.524 53.525 C 302.524 56.190,301.776 56.699,297.860 56.699 L 294.757 56.699 294.757 51.845 L 294.757 46.990 298.058 46.990 C 300.000 46.990,301.359 46.830,301.359 46.602 C 301.359 46.375,300.066 46.214,298.257 46.214 C 293.757 46.214,293.592 46.412,293.592 51.845 C 293.592 57.277,293.757 57.476,298.257 57.476 L 301.359 57.476 301.359 58.618 C 301.359 59.246,301.184 59.868,300.971 60.000 C 300.739 60.143,300.583 62.658,300.583 66.237 C 300.583 70.072,300.439 72.233,300.185 72.233 C 299.925 72.233,299.824 74.423,299.893 78.540 L 300.000 84.847 301.165 85.049 C 302.646 85.305,303.009 88.985,301.581 89.260 C 300.125 89.540,299.806 90.310,299.806 93.542 C 299.806 95.253,299.981 96.761,300.194 96.893 C 300.441 97.046,300.583 102.055,300.583 110.642 C 300.583 126.917,299.976 125.437,306.643 125.437 C 313.138 125.437,312.587 126.714,312.713 111.361 L 312.816 98.835 341.942 98.835 L 371.068 98.835 371.182 101.905 C 371.289 104.767,370.728 106.751,370.210 105.340 C 369.999 104.764,366.990 104.673,366.990 105.243 C 366.990 105.456,366.553 105.631,366.019 105.631 C 365.211 105.631,365.049 105.816,365.049 106.736 C 365.049 108.628,364.054 109.126,360.284 109.126 C 357.262 109.126,355.365 108.535,356.824 108.049 C 357.379 107.864,357.442 105.631,356.893 105.631 C 356.680 105.631,356.505 106.145,356.505 106.773 C 356.505 107.401,356.330 108.023,356.117 108.155 C 354.277 109.292,355.771 109.903,360.388 109.903 L 365.049 109.903 365.049 108.932 C 365.049 108.398,365.223 107.961,365.437 107.961 C 365.650 107.961,365.825 107.726,365.825 107.439 C 365.825 106.510,367.209 105.631,368.671 105.631 C 369.914 105.631,370.097 105.750,370.097 106.554 C 370.097 107.062,370.359 107.695,370.680 107.961 C 371.162 108.362,371.262 109.791,371.262 116.298 C 371.262 126.037,370.871 125.437,377.215 125.437 C 383.851 125.437,383.301 126.752,383.301 110.874 C 383.301 99.076,383.360 97.864,383.938 97.864 C 385.130 97.864,385.606 96.619,385.619 93.467 C 385.631 90.341,385.211 89.320,383.911 89.320 C 383.430 89.320,383.301 88.867,383.301 87.184 C 383.301 85.070,383.313 85.049,384.466 85.049 L 385.631 85.049 385.631 78.058 C 385.631 73.657,385.487 71.068,385.243 71.068 C 384.999 71.068,384.854 68.544,384.854 64.272 L 384.854 57.476 387.707 57.476 C 391.680 57.476,391.845 57.248,391.845 51.777 C 391.845 46.389,391.705 46.214,387.417 46.214 C 383.961 46.214,383.301 46.610,383.301 48.687 C 383.301 50.379,382.623 50.902,382.332 49.433 C 382.214 48.837,381.948 47.563,381.740 46.602 C 381.532 45.641,380.918 42.058,380.377 38.641 C 378.671 27.877,377.125 24.083,373.863 22.656 C 372.144 21.903,334.474 21.526,318.641 22.104 M104.951 22.805 C 104.257 22.891,103.121 22.891,102.427 22.805 C 101.733 22.719,102.301 22.649,103.689 22.649 C 105.078 22.649,105.646 22.719,104.951 22.805 M373.657 23.397 C 377.112 25.008,378.732 30.685,381.333 50.291 C 381.832 54.058,382.164 55.289,382.775 55.650 C 383.588 56.130,383.398 57.070,382.411 57.445 C 381.922 57.631,381.289 58.064,381.004 58.406 C 380.720 58.749,380.159 59.029,379.758 59.029 C 379.357 59.029,379.029 59.291,379.029 59.612 C 379.029 59.932,378.767 60.194,378.447 60.194 C 378.126 60.194,377.864 60.369,377.864 60.583 C 377.864 60.796,377.553 60.971,377.173 60.971 C 376.793 60.971,376.230 61.320,375.922 61.748 C 375.614 62.175,375.062 62.524,374.694 62.524 C 374.327 62.524,373.918 62.699,373.786 62.913 C 373.535 63.320,372.039 63.462,372.039 63.079 C 372.039 62.623,373.170 61.748,373.759 61.748 C 374.094 61.748,374.369 61.573,374.369 61.359 C 374.369 60.578,373.099 61.001,372.039 62.136 C 370.998 63.250,369.320 63.729,369.320 62.913 C 369.320 62.699,368.534 62.524,367.573 62.524 C 365.420 62.524,365.374 62.738,368.150 59.874 L 370.475 57.476 373.781 57.476 C 377.185 57.476,377.430 57.559,376.602 58.431 C 375.446 59.649,374.715 60.669,374.879 60.834 C 374.977 60.932,375.408 60.566,375.837 60.020 C 376.266 59.475,376.876 59.029,377.193 59.029 C 377.510 59.029,378.002 58.749,378.286 58.406 C 378.570 58.064,379.247 57.583,379.790 57.338 C 380.602 56.972,379.851 56.874,375.543 56.784 C 371.380 56.698,370.242 56.556,369.983 56.094 C 369.657 55.510,348.038 55.231,346.577 55.791 C 344.852 56.454,347.525 56.699,356.463 56.699 C 367.060 56.699,367.514 56.758,366.006 57.944 C 365.047 58.699,364.708 59.806,365.437 59.806 C 365.650 59.806,365.825 59.535,365.825 59.205 C 365.825 58.285,367.830 56.725,369.029 56.711 C 369.617 56.705,370.097 56.831,370.097 56.993 C 370.097 57.648,365.723 61.748,365.024 61.748 C 364.166 61.748,364.059 61.339,364.738 60.660 C 365.535 59.863,364.675 60.150,363.786 60.978 C 362.987 61.723,362.512 61.757,354.191 61.658 L 345.437 61.553 345.321 59.126 C 345.158 55.704,344.466 56.097,344.466 59.612 L 344.466 62.524 342.718 62.524 L 340.971 62.524 340.971 59.612 C 340.971 57.929,340.807 56.699,340.583 56.699 C 340.363 56.699,340.194 57.799,340.194 59.223 L 340.194 61.748 331.748 61.747 C 322.605 61.747,321.165 61.395,321.165 59.167 C 321.165 58.758,320.816 58.172,320.388 57.864 C 318.926 56.810,319.628 56.712,329.417 56.609 C 335.627 56.543,339.223 56.362,339.223 56.117 C 339.223 55.406,316.532 55.400,316.259 56.111 C 316.074 56.594,315.144 56.699,311.049 56.699 C 308.146 56.699,305.965 56.861,305.825 57.087 C 305.693 57.301,305.321 57.476,304.998 57.476 C 304.427 57.476,303.301 58.360,303.301 58.807 C 303.301 58.929,303.762 59.029,304.326 59.029 C 304.890 59.029,305.562 59.318,305.820 59.670 C 306.153 60.125,306.370 60.181,306.567 59.862 C 306.722 59.611,306.577 59.309,306.238 59.179 C 305.904 59.051,305.631 58.615,305.631 58.211 C 305.631 57.207,307.228 57.235,307.961 58.252 C 308.269 58.680,308.790 59.029,309.119 59.029 C 309.447 59.029,310.239 59.637,310.877 60.380 C 311.516 61.123,312.301 61.735,312.621 61.740 C 313.345 61.751,315.340 63.428,315.340 64.026 C 315.340 64.688,317.550 64.561,317.810 63.883 C 317.939 63.548,318.519 63.301,319.179 63.301 C 319.808 63.301,320.426 63.083,320.550 62.816 C 320.731 62.427,320.822 62.427,321.003 62.816 C 321.355 63.570,321.942 63.387,321.942 62.524 C 321.942 62.093,322.201 61.748,322.524 61.748 C 322.845 61.748,323.107 61.922,323.107 62.136 C 323.107 62.383,326.141 62.524,331.433 62.524 C 336.566 62.524,339.852 62.673,340.000 62.913 C 340.313 63.419,345.124 63.419,345.437 62.913 C 345.587 62.670,349.454 62.524,355.751 62.524 C 362.208 62.524,365.825 62.664,365.825 62.913 C 365.825 63.126,366.593 63.301,367.531 63.301 C 368.689 63.301,369.309 63.488,369.461 63.883 C 369.609 64.270,370.219 64.466,371.273 64.466 C 372.233 64.466,372.766 64.620,372.621 64.854 C 372.465 65.108,362.456 65.243,343.861 65.243 C 325.106 65.243,315.340 65.110,315.340 64.854 C 315.340 64.641,315.001 64.466,314.586 64.466 C 314.171 64.466,313.724 64.291,313.592 64.078 C 313.186 63.421,312.621 63.647,312.621 64.466 C 312.621 65.067,312.362 65.243,311.479 65.243 C 310.851 65.243,310.229 65.417,310.097 65.631 C 309.965 65.845,309.518 66.019,309.103 66.019 C 308.689 66.019,308.350 66.194,308.350 66.408 C 308.350 66.621,307.883 66.796,307.312 66.796 C 306.070 66.796,304.854 67.797,304.854 68.820 C 304.854 69.449,304.609 69.541,303.204 69.440 L 301.553 69.320 301.438 66.893 C 301.343 64.912,301.432 64.466,301.923 64.466 C 302.254 64.466,302.524 64.641,302.524 64.854 C 302.524 65.068,303.213 65.243,304.055 65.243 C 304.897 65.243,305.693 65.417,305.825 65.631 C 305.957 65.845,306.579 66.019,307.207 66.019 C 307.836 66.019,308.350 65.845,308.350 65.631 C 308.350 65.417,307.738 65.243,306.990 65.243 C 306.243 65.243,305.631 65.068,305.631 64.854 C 305.631 64.641,305.019 64.466,304.272 64.466 C 301.575 64.466,300.618 62.387,302.427 60.456 C 303.143 59.692,303.335 59.257,303.010 59.140 C 302.429 58.930,302.338 55.534,302.913 55.534 C 303.126 55.534,303.301 54.660,303.301 53.592 C 303.301 52.524,303.476 51.650,303.689 51.650 C 303.903 51.650,304.078 51.325,304.078 50.927 C 304.078 49.874,306.662 35.400,307.643 30.964 C 308.506 27.058,309.819 24.823,311.976 23.588 C 314.048 22.401,371.142 22.225,373.657 23.397 M107.111 24.951 C 107.228 25.562,106.846 25.631,103.329 25.631 C 99.465 25.631,98.959 25.469,99.897 24.530 C 100.704 23.723,106.946 24.088,107.111 24.951 M106.505 27.270 C 106.024 27.502,105.631 28.014,105.631 28.409 C 105.631 29.331,101.861 29.486,101.513 28.579 C 101.398 28.278,100.879 27.925,100.360 27.795 C 98.188 27.250,99.601 26.797,103.398 26.822 C 106.551 26.843,107.197 26.936,106.505 27.270 M153.981 28.184 C 153.245 28.739,153.198 29.297,153.088 38.725 C 152.960 49.684,153.005 49.964,155.267 52.143 L 156.699 53.522 201.942 53.794 L 247.184 54.066 248.205 52.955 C 249.817 51.202,249.858 49.720,248.561 40.085 C 247.134 29.481,246.924 28.621,245.616 28.025 C 244.903 27.700,239.108 27.573,225.013 27.573 L 205.402 27.573 204.448 28.526 L 203.495 29.479 203.495 39.357 C 203.495 48.503,203.550 49.302,204.237 50.151 L 204.980 51.068 226.568 51.068 C 238.441 51.068,248.155 51.172,248.155 51.299 C 248.155 51.426,247.810 51.843,247.388 52.225 C 246.340 53.173,157.511 52.768,156.519 51.811 C 156.029 51.338,158.808 51.262,176.633 51.262 L 197.317 51.262 198.270 50.309 L 199.223 49.356 199.223 39.417 L 199.223 29.479 198.270 28.526 L 197.317 27.573 176.037 27.585 C 157.675 27.596,154.651 27.678,153.981 28.184 M107.299 29.806 C 106.480 32.260,106.257 32.416,106.605 30.291 C 106.838 28.870,107.294 28.011,107.841 27.967 C 107.881 27.964,107.637 28.791,107.299 29.806 M308.953 38.350 C 306.095 50.972,306.214 50.154,306.997 51.803 L 307.661 53.204 342.594 53.204 C 365.931 53.204,377.776 53.070,378.278 52.802 C 379.069 52.379,379.382 49.584,378.687 49.155 C 378.290 48.909,378.451 49.580,376.159 38.641 C 375.175 33.942,374.279 29.704,374.168 29.223 L 373.966 28.350 342.592 28.350 L 311.218 28.350 308.953 38.350 M176.699 39.417 L 176.699 50.097 166.047 50.097 C 152.711 50.097,154.175 51.396,154.175 39.558 C 154.175 27.376,152.706 28.738,165.839 28.738 L 176.699 28.738 176.699 39.417 M197.307 29.140 C 198.352 29.699,198.482 48.453,197.448 49.487 C 196.927 50.008,195.457 50.097,187.351 50.097 L 177.864 50.097 177.864 39.417 L 177.864 28.738 187.210 28.738 C 192.910 28.738,196.849 28.895,197.307 29.140 M226.408 39.417 L 226.408 50.097 216.144 50.097 C 203.260 50.097,204.660 51.382,204.660 39.558 C 204.660 27.391,203.257 28.738,215.936 28.738 L 226.408 28.738 226.408 39.417 M245.465 29.354 C 246.215 30.258,248.637 48.421,248.132 49.364 C 247.763 50.054,247.142 50.097,237.656 50.097 L 227.573 50.097 227.573 39.417 L 227.573 28.738 236.263 28.738 C 243.724 28.738,245.026 28.825,245.465 29.354 M374.832 36.311 C 376.335 43.634,377.393 49.036,377.742 51.165 L 377.949 52.427 373.488 52.427 C 369.997 52.427,368.922 52.301,368.544 51.845 C 368.177 51.403,367.182 51.262,364.418 51.262 C 361.036 51.262,360.777 51.207,360.777 50.485 C 360.777 49.728,360.518 49.709,350.485 49.709 C 340.490 49.709,340.194 49.731,340.194 50.477 C 340.194 51.213,340.516 51.250,347.864 51.351 C 358.447 51.496,357.907 52.200,347.108 52.338 C 340.070 52.428,338.827 52.357,338.544 51.853 C 338.280 51.380,337.363 51.262,333.961 51.262 C 329.956 51.262,329.709 51.217,329.709 50.479 C 329.709 49.711,329.512 49.697,319.903 49.799 C 311.492 49.888,310.097 49.986,310.097 50.485 C 310.097 50.979,311.381 51.097,318.545 51.262 C 330.537 51.538,329.813 52.205,317.379 52.337 L 307.573 52.441 307.573 50.321 C 307.573 49.155,307.737 48.100,307.937 47.976 C 308.137 47.853,308.299 47.100,308.298 46.303 C 308.295 45.154,309.751 38.082,311.654 29.998 L 311.861 29.122 342.629 29.221 L 373.398 29.320 374.832 36.311 M105.243 31.826 C 105.243 33.304,94.378 46.704,86.576 54.848 L 84.803 56.699 81.918 56.699 L 79.034 56.699 90.779 44.949 C 101.997 33.727,102.524 33.134,102.524 31.745 C 102.524 30.342,102.572 30.291,103.883 30.291 C 105.208 30.291,105.243 30.331,105.243 31.826 M139.639 41.068 C 139.508 46.995,139.302 53.442,139.181 55.395 L 138.963 58.945 130.549 59.179 C 125.922 59.307,119.646 59.502,116.602 59.610 L 111.068 59.809 111.068 55.554 C 111.068 49.338,111.054 49.320,106.291 49.320 C 101.326 49.320,101.388 49.247,101.372 55.192 L 101.359 59.704 99.903 59.945 C 95.635 60.650,91.070 60.248,89.938 59.066 L 88.857 57.937 99.399 44.988 C 105.197 37.866,110.393 31.800,110.944 31.508 C 111.933 30.984,121.675 30.511,134.696 30.354 L 139.878 30.291 139.639 41.068 M275.301 45.611 L 277.178 46.563 277.410 49.980 C 277.538 51.860,277.693 61.419,277.753 71.223 L 277.864 89.048 276.311 89.606 C 275.199 90.005,273.819 90.102,271.456 89.947 C 265.942 89.585,266.420 90.237,266.331 82.964 C 266.288 79.518,266.234 75.913,266.209 74.951 C 266.185 73.990,266.026 67.350,265.856 60.194 L 265.547 47.184 266.851 46.227 C 268.084 45.322,269.905 44.818,272.343 44.709 C 272.937 44.682,274.269 45.088,275.301 45.611 M391.068 51.845 L 391.068 56.699 387.864 56.687 C 383.827 56.671,383.301 56.323,383.301 53.669 C 383.301 52.584,383.476 51.588,383.689 51.456 C 383.903 51.324,384.078 50.265,384.078 49.103 L 384.078 46.990 387.573 46.990 L 391.068 46.990 391.068 51.845 M109.709 57.476 L 109.709 64.272 106.408 64.133 C 104.592 64.056,102.976 63.915,102.816 63.819 C 102.447 63.597,102.429 51.098,102.797 50.730 C 102.947 50.580,104.564 50.507,106.389 50.569 L 109.709 50.680 109.709 57.476 M319.320 57.618 C 319.908 58.124,320.388 58.795,320.388 59.111 C 320.388 59.427,320.738 60.002,321.165 60.388 C 322.104 61.238,322.160 61.748,321.315 61.748 C 320.970 61.748,320.126 61.135,319.440 60.386 C 318.754 59.637,318.074 59.143,317.929 59.288 C 317.784 59.433,318.278 60.113,319.027 60.799 C 320.683 62.317,320.710 62.524,319.246 62.524 C 318.618 62.524,317.996 62.699,317.864 62.913 C 317.380 63.696,315.529 63.293,314.293 62.134 C 313.610 61.494,312.844 60.971,312.589 60.971 C 312.334 60.971,311.604 60.359,310.965 59.612 C 310.327 58.864,309.477 58.252,309.077 58.252 C 308.677 58.252,308.350 58.078,308.350 57.864 C 308.350 56.993,315.765 57.400,316.559 58.315 C 316.959 58.776,317.401 59.039,317.540 58.900 C 317.680 58.760,317.417 58.318,316.955 57.918 C 315.849 56.958,315.897 56.699,317.184 56.700 C 317.772 56.700,318.733 57.113,319.320 57.618 M74.369 58.105 C 73.942 58.179,67.388 58.948,59.806 59.815 C 32.370 62.950,19.426 64.795,14.660 66.252 C 13.525 66.599,13.913 65.885,15.449 64.799 C 17.026 63.685,28.786 61.975,51.262 59.593 C 62.555 58.396,78.667 57.358,74.369 58.105 M84.251 60.061 C 83.812 61.335,83.495 63.292,83.495 64.721 L 83.495 67.184 81.350 67.184 C 68.748 67.184,19.711 68.533,15.392 68.999 C 13.194 69.236,12.630 68.637,13.773 67.278 C 14.751 66.116,36.496 63.167,81.165 58.141 C 81.913 58.057,83.083 57.960,83.765 57.926 L 85.007 57.864 84.251 60.061 M382.342 58.660 C 382.514 58.938,382.765 58.925,383.137 58.616 C 383.933 57.955,384.135 58.785,383.999 62.172 L 383.883 65.049 381.845 65.166 C 380.723 65.230,379.806 65.449,379.806 65.651 C 379.806 65.854,378.845 66.019,377.670 66.019 C 376.395 66.019,375.534 66.189,375.534 66.440 C 375.534 67.260,374.562 66.524,374.518 65.670 C 374.493 65.193,374.274 64.605,374.032 64.362 C 373.350 63.680,373.509 63.301,374.477 63.301 C 374.964 63.301,375.614 62.951,375.922 62.524 C 376.230 62.097,376.793 61.748,377.173 61.748 C 377.553 61.748,377.864 61.593,377.864 61.403 C 377.864 61.214,378.432 60.788,379.126 60.457 C 379.820 60.126,380.645 59.494,380.960 59.053 C 381.596 58.160,381.968 58.055,382.342 58.660 M141.522 60.430 C 142.005 60.615,142.136 61.277,142.136 63.537 L 142.136 66.408 135.209 66.408 C 131.399 66.408,123.529 66.523,117.721 66.665 C 107.975 66.902,107.180 66.872,107.408 66.276 C 107.550 65.907,108.082 65.631,108.652 65.631 C 110.222 65.631,111.068 64.590,111.068 62.658 C 111.068 61.182,111.177 60.964,111.942 60.920 C 119.214 60.496,140.763 60.139,141.522 60.430 M306.796 60.583 C 306.796 60.796,307.135 60.971,307.550 60.971 C 307.964 60.971,308.412 61.146,308.544 61.359 C 308.676 61.573,309.059 61.748,309.395 61.748 C 309.731 61.748,310.322 62.112,310.708 62.557 C 311.101 63.010,311.720 63.294,312.113 63.201 C 312.703 63.061,312.658 62.970,311.829 62.626 C 311.286 62.401,310.609 61.936,310.325 61.594 C 310.040 61.251,309.480 60.971,309.079 60.971 C 308.678 60.971,308.350 60.796,308.350 60.583 C 308.350 60.369,308.000 60.194,307.573 60.194 C 307.146 60.194,306.796 60.369,306.796 60.583 M106.255 65.857 C 106.125 66.195,106.019 66.544,106.019 66.634 C 106.019 66.723,105.751 66.796,105.423 66.796 C 104.947 66.796,104.911 66.639,105.243 66.019 C 105.733 65.103,106.598 64.964,106.255 65.857 M312.621 72.427 C 312.621 78.670,312.500 79.335,311.534 78.369 C 310.617 77.452,310.904 66.019,311.845 66.019 C 312.590 66.019,312.621 66.278,312.621 72.427 M324.660 72.438 L 324.660 78.856 319.126 78.749 L 313.592 78.641 313.484 72.833 C 313.345 65.315,312.753 66.019,319.211 66.019 L 324.660 66.019 324.660 72.438 M358.835 66.408 C 358.835 66.661,353.074 66.796,342.330 66.796 C 331.586 66.796,325.825 66.661,325.825 66.408 C 325.825 66.155,331.586 66.019,342.330 66.019 C 353.074 66.019,358.835 66.155,358.835 66.408 M371.068 72.427 L 371.068 78.641 365.534 78.749 L 360.000 78.856 360.000 72.427 L 360.000 65.998 365.534 66.106 L 371.068 66.214 371.068 72.427 M373.592 71.961 C 373.592 77.664,373.381 78.835,372.350 78.835 C 372.179 78.835,372.039 75.951,372.039 72.427 C 372.039 66.278,372.070 66.019,372.816 66.019 C 373.558 66.019,373.592 66.278,373.592 71.961 M384.001 68.252 C 384.153 70.899,382.710 71.176,380.466 68.932 C 379.718 68.184,378.817 67.573,378.463 67.573 C 378.108 67.573,377.926 67.398,378.058 67.184 C 378.190 66.971,378.637 66.796,379.052 66.796 C 379.467 66.796,379.806 66.612,379.806 66.387 C 379.806 66.138,380.602 66.025,381.845 66.096 L 383.883 66.214 384.001 68.252 M317.446 67.322 C 316.231 67.999,315.340 68.997,315.340 69.681 C 315.340 70.017,315.165 70.291,314.951 70.291 C 314.738 70.291,314.563 71.252,314.563 72.427 C 314.563 73.602,314.738 74.563,314.951 74.563 C 315.165 74.563,315.340 74.886,315.340 75.280 C 315.340 76.010,316.015 76.705,317.568 77.573 C 318.607 78.154,320.388 78.215,320.388 77.670 C 320.388 77.456,320.738 77.282,321.165 77.282 C 321.592 77.282,321.942 77.107,321.942 76.893 C 321.942 76.680,321.592 76.505,321.165 76.505 C 320.738 76.505,320.388 76.680,320.388 76.893 C 320.388 77.107,319.777 77.282,319.029 77.282 C 318.282 77.282,317.670 77.107,317.670 76.893 C 317.670 76.680,317.320 76.505,316.893 76.505 C 316.383 76.505,316.117 76.246,316.117 75.751 C 316.117 75.336,315.942 74.889,315.728 74.757 C 315.515 74.625,315.340 73.566,315.340 72.404 C 315.340 71.242,315.515 70.291,315.728 70.291 C 315.942 70.291,316.117 69.942,316.117 69.515 C 316.117 68.997,316.375 68.738,316.893 68.738 C 317.325 68.738,317.670 68.479,317.670 68.155 C 317.670 67.747,318.082 67.573,319.052 67.573 C 319.875 67.573,320.337 67.416,320.194 67.184 C 319.882 66.680,318.470 66.751,317.446 67.322 M363.786 67.441 C 363.199 67.750,362.718 68.169,362.718 68.371 C 362.718 68.573,362.456 68.738,362.136 68.738 C 361.816 68.738,361.553 69.077,361.553 69.492 C 361.553 69.906,361.379 70.353,361.165 70.485 C 360.951 70.617,360.777 71.589,360.777 72.644 C 360.777 73.700,360.951 74.563,361.165 74.563 C 361.379 74.563,361.553 74.902,361.553 75.317 C 361.553 76.325,362.184 76.668,362.505 75.833 C 362.659 75.431,362.521 74.991,362.157 74.725 C 361.330 74.120,361.313 70.467,362.136 70.151 C 362.456 70.028,362.718 69.660,362.718 69.333 C 362.718 69.005,362.986 68.738,363.313 68.738 C 363.640 68.738,364.008 68.476,364.131 68.155 C 364.260 67.821,364.839 67.573,365.491 67.573 C 366.142 67.573,366.722 67.821,366.850 68.155 C 366.973 68.476,367.404 68.738,367.809 68.738 C 368.285 68.738,368.544 69.011,368.544 69.515 C 368.544 69.942,368.718 70.291,368.932 70.291 C 369.146 70.291,369.320 71.242,369.320 72.404 C 369.320 73.566,369.146 74.625,368.932 74.757 C 368.718 74.889,368.544 75.336,368.544 75.751 C 368.544 76.246,368.277 76.505,367.767 76.505 C 367.340 76.505,366.990 76.680,366.990 76.893 C 366.990 77.107,366.379 77.282,365.631 77.282 C 364.883 77.282,364.272 77.107,364.272 76.893 C 364.272 76.680,363.922 76.505,363.495 76.505 C 363.068 76.505,362.718 76.680,362.718 76.893 C 362.718 77.107,363.068 77.282,363.495 77.282 C 363.922 77.282,364.272 77.456,364.272 77.670 C 364.272 78.215,366.053 78.154,367.093 77.573 C 368.645 76.705,369.320 76.010,369.320 75.280 C 369.320 74.886,369.495 74.563,369.709 74.563 C 369.922 74.563,370.097 73.602,370.097 72.427 C 370.097 71.252,369.922 70.291,369.709 70.291 C 369.495 70.291,369.320 70.017,369.320 69.681 C 369.320 67.683,365.931 66.311,363.786 67.441 M235.340 69.271 L 235.340 71.357 189.417 71.544 C 164.160 71.646,143.363 71.615,143.201 71.474 C 143.039 71.333,143.019 70.400,143.156 69.402 L 143.405 67.586 153.547 67.475 C 159.125 67.415,179.811 67.325,199.515 67.275 L 235.340 67.184 235.340 69.271 M264.778 69.417 L 264.895 71.456 257.496 71.456 L 250.097 71.456 250.097 69.312 L 250.097 67.167 257.379 67.273 L 264.660 67.379 264.778 69.417 M126.602 68.932 L 126.602 70.291 132.039 70.291 L 137.476 70.291 137.476 68.932 L 137.476 67.573 139.856 67.573 L 142.236 67.573 141.966 69.605 C 141.818 70.722,141.665 71.659,141.625 71.687 C 141.586 71.715,128.752 71.843,113.107 71.972 L 84.660 72.206 84.660 70.278 L 84.660 68.350 87.282 68.296 C 88.723 68.267,96.981 68.126,105.631 67.982 C 114.282 67.839,122.539 67.688,123.981 67.647 L 126.602 67.573 126.602 68.932 M309.709 69.903 C 309.709 71.940,309.660 72.044,308.650 72.161 C 306.900 72.362,305.658 71.155,305.643 69.241 L 305.631 67.607 307.670 67.687 L 309.709 67.767 309.709 69.903 M320.566 67.987 C 320.425 68.216,320.677 68.498,321.126 68.615 C 321.575 68.732,321.942 69.076,321.942 69.378 C 321.942 69.680,322.204 70.028,322.524 70.151 C 323.377 70.478,323.327 74.122,322.461 74.755 C 322.066 75.045,321.914 75.484,322.070 75.891 C 322.389 76.723,323.107 76.325,323.107 75.317 C 323.107 74.902,323.282 74.563,323.495 74.563 C 323.709 74.563,323.883 73.797,323.883 72.860 C 323.883 70.082,321.466 66.531,320.566 67.987 M359.029 68.544 C 359.029 69.283,358.734 69.325,352.825 69.428 C 349.412 69.487,346.450 69.705,346.242 69.913 C 345.747 70.408,344.466 70.401,344.466 69.903 C 344.466 69.689,343.680 69.515,342.718 69.515 C 341.757 69.515,340.971 69.689,340.971 69.903 C 340.971 70.117,340.632 70.291,340.217 70.291 C 339.803 70.291,339.355 70.117,339.223 69.903 C 339.079 69.669,336.379 69.515,332.427 69.515 C 325.863 69.515,325.114 69.363,325.586 68.133 C 325.984 67.096,359.029 67.502,359.029 68.544 M83.495 70.245 L 83.495 72.141 63.398 72.379 C 52.345 72.511,39.150 72.721,34.078 72.845 L 24.854 73.073 24.854 71.337 L 24.854 69.602 34.272 69.330 C 45.641 69.002,69.406 68.498,77.573 68.412 L 83.495 68.350 83.495 70.245 M380.028 69.293 C 380.333 69.598,380.583 70.297,380.583 70.846 C 380.583 71.850,381.107 72.179,381.553 71.456 C 381.685 71.243,382.486 71.068,383.333 71.068 L 384.873 71.068 384.767 77.564 L 384.660 84.059 377.117 84.197 L 369.574 84.334 368.515 85.468 L 367.455 86.602 342.718 86.602 L 317.982 86.602 316.847 85.388 L 315.713 84.174 308.688 84.194 C 304.825 84.206,301.420 84.122,301.123 84.008 C 300.295 83.690,300.354 73.199,301.193 71.516 C 302.225 69.449,305.631 69.999,305.631 72.232 C 305.631 73.107,308.448 76.216,309.615 76.629 C 309.991 76.763,310.253 77.014,310.198 77.188 C 310.142 77.363,310.570 77.979,311.147 78.558 L 312.198 79.612 342.330 79.612 L 372.462 79.612 373.513 78.561 C 374.090 77.984,374.563 77.328,374.563 77.105 C 374.563 76.882,375.169 76.641,375.909 76.571 C 376.683 76.498,377.655 76.044,378.195 75.503 C 378.712 74.986,379.286 74.563,379.470 74.563 C 379.655 74.563,379.806 74.249,379.806 73.864 C 379.806 73.480,380.016 72.955,380.272 72.699 C 380.634 72.337,380.122 72.233,377.965 72.233 C 376.227 72.233,375.084 72.059,374.904 71.767 C 374.578 71.240,374.413 69.471,374.648 69.029 C 374.937 68.486,379.442 68.707,380.028 69.293 M24.078 71.262 L 24.078 73.398 22.524 73.398 L 20.971 73.398 20.971 71.485 C 20.971 69.479,21.166 69.276,23.204 69.171 C 24.010 69.130,24.078 69.293,24.078 71.262 M17.476 71.215 C 17.476 72.252,17.249 73.103,16.893 73.398 C 16.466 73.752,16.311 74.693,16.311 76.922 L 16.311 79.963 14.563 81.165 L 12.816 82.367 12.816 78.818 C 12.816 75.856,12.944 75.105,13.592 74.281 C 14.095 73.641,14.369 72.705,14.369 71.624 C 14.369 69.869,14.342 69.890,16.990 69.573 C 17.314 69.534,17.476 70.082,17.476 71.215 M19.806 71.008 C 19.806 72.008,19.549 72.733,19.029 73.204 C 18.409 73.765,18.252 74.400,18.252 76.348 C 18.252 77.691,18.078 78.897,17.864 79.029 C 17.193 79.444,17.381 74.348,18.058 73.786 C 18.430 73.478,18.641 72.619,18.641 71.409 C 18.641 69.984,18.785 69.515,19.223 69.515 C 19.640 69.515,19.806 69.939,19.806 71.008 M340.194 71.650 C 341.165 72.988,341.748 73.352,341.748 72.621 C 341.748 72.408,342.184 72.233,342.718 72.233 C 343.252 72.233,343.689 72.408,343.689 72.621 C 343.689 73.354,344.273 72.987,345.243 71.644 L 346.214 70.300 352.621 70.392 C 358.739 70.481,359.029 70.521,359.029 71.262 C 359.029 72.317,348.045 72.687,347.193 71.661 C 346.471 70.791,346.019 70.936,346.019 72.039 C 346.019 72.751,345.812 73.010,345.243 73.010 C 344.816 73.010,344.466 73.184,344.466 73.398 C 344.466 73.612,344.816 73.786,345.243 73.786 C 345.670 73.786,346.019 73.607,346.019 73.389 C 346.019 73.129,348.275 73.028,352.524 73.097 C 358.000 73.187,359.029 73.296,359.029 73.786 C 359.029 74.832,344.992 74.841,344.085 73.795 C 343.218 72.795,342.219 72.795,341.352 73.795 C 340.445 74.841,325.631 74.833,325.631 73.786 C 325.631 73.294,326.703 73.187,332.524 73.098 C 337.034 73.028,339.417 73.129,339.417 73.389 C 339.417 73.608,339.767 73.786,340.194 73.786 C 340.621 73.786,340.971 73.612,340.971 73.398 C 340.971 73.184,340.621 73.010,340.194 73.010 C 339.625 73.010,339.417 72.751,339.417 72.039 C 339.417 70.919,339.204 70.838,338.391 71.650 C 337.680 72.361,326.049 72.521,325.620 71.826 C 324.792 70.488,325.681 70.291,332.512 70.302 L 339.223 70.313 340.194 71.650 M344.466 70.680 C 344.466 70.893,343.680 71.068,342.718 71.068 C 341.757 71.068,340.971 70.893,340.971 70.680 C 340.971 70.466,341.757 70.291,342.718 70.291 C 343.680 70.291,344.466 70.466,344.466 70.680 M264.854 73.005 C 264.854 73.397,143.887 73.788,143.107 73.398 C 142.274 72.981,161.520 72.789,212.136 72.707 C 246.642 72.651,264.854 72.754,264.854 73.005 M141.748 73.398 C 141.748 73.654,131.999 73.757,113.107 73.701 C 96.461 73.651,88.126 73.524,93.204 73.398 C 109.700 72.989,141.748 72.989,141.748 73.398 M309.962 74.175 C 309.801 75.330,309.475 75.722,309.235 75.049 C 309.140 74.782,308.801 74.563,308.484 74.563 C 307.907 74.563,306.796 73.672,306.796 73.209 C 306.796 73.075,307.539 73.019,308.447 73.084 C 309.959 73.194,310.086 73.285,309.962 74.175 M378.896 73.611 C 379.225 74.468,377.926 75.313,376.259 75.327 C 374.926 75.339,373.914 73.982,374.683 73.213 C 375.195 72.702,378.673 73.030,378.896 73.611 M74.951 73.807 C 70.146 73.954,58.699 74.056,49.515 74.034 L 32.816 73.994 48.350 73.786 C 56.893 73.672,68.340 73.570,73.786 73.560 L 83.689 73.540 74.951 73.807 M23.689 74.896 C 23.689 75.080,22.728 75.868,21.553 76.648 L 19.417 78.066 19.417 76.315 L 19.417 74.563 21.553 74.563 C 22.728 74.563,23.689 74.713,23.689 74.896 M264.996 76.365 C 265.667 81.261,265.303 86.990,264.321 86.990 C 263.292 86.990,263.166 87.445,262.686 92.874 C 262.542 94.507,262.311 96.027,262.173 96.251 C 261.438 97.440,233.352 98.453,231.575 97.355 C 231.339 97.209,230.939 96.172,230.687 95.050 C 228.988 87.501,225.931 79.842,223.691 77.519 L 221.485 75.231 206.179 75.623 L 190.874 76.014 188.492 77.522 L 186.111 79.029 182.716 87.379 C 180.849 91.971,179.185 95.878,179.017 96.061 C 178.761 96.341,140.597 96.455,140.319 96.177 C 140.267 96.125,140.742 94.474,141.375 92.507 C 142.265 89.737,142.525 88.211,142.526 85.728 C 142.531 77.859,142.927 75.007,144.038 74.836 C 144.594 74.750,171.981 74.653,204.899 74.621 L 264.749 74.563 264.996 76.365 M83.107 80.470 C 83.107 85.915,83.085 86.054,81.463 90.967 L 79.820 95.947 75.813 95.837 L 71.806 95.728 69.940 91.008 C 67.299 84.329,63.896 79.508,61.165 78.575 C 58.818 77.773,34.566 77.322,31.958 78.032 C 30.954 78.305,29.188 79.616,26.408 82.151 L 22.330 85.870 20.040 85.653 C 18.781 85.534,16.378 85.437,14.700 85.437 C 10.054 85.437,10.406 84.860,18.145 79.789 L 24.640 75.534 46.592 75.333 C 58.665 75.223,71.820 75.092,75.825 75.042 L 83.107 74.951 83.107 80.470 M141.524 81.845 C 141.284 88.610,140.528 92.732,139.010 95.570 C 138.621 96.296,137.909 96.313,112.509 96.216 L 86.408 96.117 85.372 92.233 C 84.350 88.401,83.738 76.003,84.531 75.210 C 84.673 75.068,97.610 74.951,113.280 74.951 L 141.770 74.951 141.524 81.845 M359.029 76.311 C 359.029 77.074,358.736 77.089,342.548 77.189 C 326.082 77.290,325.081 77.217,325.569 75.944 C 325.982 74.868,359.029 75.230,359.029 76.311 M222.926 78.708 C 224.938 80.796,224.957 80.835,223.301 79.451 L 221.553 77.991 206.408 78.127 L 191.262 78.263 189.131 79.714 C 187.959 80.512,186.861 81.165,186.691 81.165 C 185.899 81.165,187.374 79.560,189.217 78.417 L 191.262 77.147 200.583 76.893 C 205.709 76.753,212.355 76.608,215.353 76.572 L 220.803 76.505 222.926 78.708 M358.835 78.447 C 358.835 78.699,353.074 78.835,342.330 78.835 C 331.586 78.835,325.825 78.699,325.825 78.447 C 325.825 78.194,331.586 78.058,342.330 78.058 C 353.074 78.058,358.835 78.194,358.835 78.447 M59.746 79.632 C 63.297 80.728,65.928 84.263,68.803 91.803 C 69.871 94.603,71.100 97.811,71.534 98.932 L 72.323 100.971 77.350 100.971 C 83.179 100.971,83.154 100.863,78.132 104.260 L 74.333 106.830 71.094 106.716 L 67.854 106.602 67.706 103.588 C 66.311 75.280,25.310 74.227,21.672 102.405 L 21.249 105.685 17.323 105.415 C 15.164 105.267,13.372 105.124,13.341 105.097 C 12.930 104.749,15.108 100.968,15.728 100.955 C 17.529 100.915,19.417 97.463,19.417 94.211 L 19.417 91.262 17.224 91.262 C 14.628 91.262,11.650 89.291,11.650 87.572 L 11.650 86.653 17.276 86.881 L 22.901 87.109 26.759 83.549 C 32.124 78.598,31.064 78.868,45.182 78.850 C 56.193 78.836,57.370 78.899,59.746 79.632 M223.080 80.914 C 224.979 82.576,225.018 82.658,227.740 90.712 L 230.485 98.835 235.728 99.165 C 240.530 99.467,252.534 99.007,256.214 98.381 L 257.476 98.166 257.476 100.726 C 257.476 103.201,257.440 103.294,256.408 103.530 C 255.820 103.665,253.302 104.278,250.812 104.894 C 246.875 105.867,228.291 107.550,227.653 106.992 C 227.590 106.937,227.468 105.583,227.380 103.983 C 225.730 73.744,180.453 74.922,181.431 105.179 L 181.553 108.974 176.869 108.953 L 172.184 108.932 170.267 107.238 L 168.350 105.544 132.427 105.820 C 97.297 106.090,96.466 106.079,94.755 105.335 C 93.793 104.917,91.610 104.444,89.904 104.284 C 86.840 103.997,86.292 103.752,83.408 101.378 C 83.254 101.251,104.671 101.215,131.003 101.299 L 178.879 101.451 179.377 99.789 C 179.651 98.875,179.932 97.849,180.003 97.510 C 180.073 97.171,181.730 93.614,183.686 89.606 C 188.974 78.765,187.435 79.407,208.350 79.303 L 221.165 79.239 223.080 80.914 M327.087 82.911 C 325.407 84.820,326.950 85.825,331.563 85.825 C 336.269 85.825,337.946 84.744,335.989 82.973 C 335.033 82.108,327.838 82.058,327.087 82.911 M338.118 83.040 C 336.523 84.803,338.069 85.825,342.330 85.825 C 345.602 85.825,347.184 85.256,347.184 84.078 C 347.184 82.305,339.572 81.434,338.118 83.040 M348.604 83.040 C 346.918 84.903,348.429 85.825,353.165 85.825 C 357.083 85.825,358.058 85.477,358.058 84.078 C 358.058 82.219,350.134 81.349,348.604 83.040 M52.148 84.024 C 67.165 89.718,71.465 108.788,60.251 119.961 C 46.225 133.935,22.662 124.184,22.807 104.466 C 22.919 89.343,38.163 78.722,52.148 84.024 M209.530 83.308 C 226.057 87.517,231.777 107.950,219.806 120.016 C 205.999 133.933,182.533 124.265,182.533 104.660 C 182.533 90.362,195.855 79.825,209.530 83.308 M335.922 84.078 L 335.922 85.049 331.650 85.049 L 327.379 85.049 327.379 84.078 L 327.379 83.107 331.650 83.107 L 335.922 83.107 335.922 84.078 M346.019 84.078 C 346.019 85.044,346.003 85.049,342.375 85.049 C 338.797 85.049,338.728 85.031,338.546 84.078 L 338.360 83.107 342.190 83.107 C 346.016 83.107,346.019 83.108,346.019 84.078 M357.282 84.078 L 357.282 85.049 353.010 85.049 L 348.738 85.049 348.738 84.078 L 348.738 83.107 353.010 83.107 L 357.282 83.107 357.282 84.078 M316.954 86.214 L 318.173 87.379 342.814 87.379 L 367.455 87.379 368.544 86.214 L 369.632 85.049 375.884 85.049 L 382.136 85.049 382.136 87.184 L 382.136 89.320 342.718 89.320 L 303.301 89.320 303.301 87.184 L 303.301 85.049 309.518 85.049 L 315.735 85.049 316.954 86.214 M84.239 92.298 C 85.336 96.596,85.377 96.448,83.204 96.124 C 80.841 95.773,80.930 96.107,82.178 92.275 C 82.773 90.449,83.298 88.994,83.344 89.041 C 83.391 89.088,83.794 90.553,84.239 92.298 M384.854 93.592 C 384.854 96.828,384.797 97.087,384.078 97.087 C 383.650 97.087,383.301 97.262,383.301 97.476 C 383.301 97.732,369.587 97.864,342.936 97.864 C 316.444 97.864,302.488 97.731,302.330 97.476 C 302.198 97.262,301.751 97.087,301.336 97.087 C 300.646 97.087,300.583 96.793,300.583 93.592 L 300.583 90.097 342.718 90.097 L 384.854 90.097 384.854 93.592 M41.959 90.894 C 33.024 92.728,28.141 102.621,32.150 110.764 C 37.261 121.145,52.060 121.145,57.170 110.764 C 62.195 100.557,53.054 88.616,41.959 90.894 M50.372 93.240 C 62.399 99.036,58.057 117.359,44.657 117.359 C 33.596 117.359,27.861 104.538,35.125 96.051 C 38.746 91.821,45.026 90.663,50.372 93.240 M18.252 94.604 C 18.252 96.451,18.071 97.011,17.055 98.294 L 15.857 99.806 11.618 99.806 L 7.379 99.806 7.379 96.328 L 7.379 92.850 10.194 92.716 C 11.743 92.642,14.189 92.547,15.631 92.504 L 18.252 92.427 18.252 94.604 M41.232 93.757 C 28.978 97.752,31.795 115.916,44.660 115.859 C 59.195 115.796,59.776 94.220,45.266 93.350 C 43.901 93.268,42.207 93.439,41.232 93.757 M200.863 93.775 C 192.671 96.333,190.302 107.071,196.640 112.914 C 203.993 119.692,215.516 114.636,215.530 104.625 C 215.541 96.879,208.233 91.473,200.863 93.775 M49.187 95.466 C 55.611 98.743,56.695 107.687,51.235 112.360 C 46.123 116.736,38.323 115.049,35.485 108.954 C 31.466 100.322,40.765 91.169,49.187 95.466 M208.776 95.454 C 215.015 98.637,216.348 106.697,211.464 111.711 C 205.079 118.268,194.182 113.822,194.182 104.660 C 194.182 97.166,202.207 92.103,208.776 95.454 M79.126 97.961 C 79.014 98.298,77.972 98.447,75.728 98.447 C 73.484 98.447,72.442 98.298,72.330 97.961 C 72.208 97.596,73.053 97.476,75.728 97.476 C 78.403 97.476,79.248 97.596,79.126 97.961 M85.730 98.155 C 85.848 98.515,85.130 98.641,82.957 98.641 C 80.474 98.641,80.060 98.549,80.254 98.042 C 80.547 97.279,85.474 97.381,85.730 98.155 M137.476 97.786 C 137.476 98.708,136.282 99.035,132.641 99.110 L 128.738 99.192 132.524 99.319 C 134.659 99.390,136.311 99.612,136.311 99.827 C 136.311 100.257,88.360 99.918,87.379 99.482 C 87.058 99.340,96.233 99.134,107.767 99.024 L 128.738 98.825 107.906 98.733 C 89.804 98.653,87.044 98.564,86.850 98.058 C 86.653 97.544,89.611 97.476,112.051 97.476 C 126.035 97.476,137.476 97.616,137.476 97.786 M42.524 98.444 C 37.320 100.271,36.599 107.328,41.334 110.103 C 46.849 113.335,53.183 107.715,50.532 101.942 C 49.014 98.637,45.877 97.266,42.524 98.444 M178.641 98.447 C 178.641 98.957,176.160 99.029,158.641 99.029 C 147.641 99.029,138.641 98.883,138.641 98.706 C 138.641 97.928,140.170 97.864,158.900 97.864 C 176.188 97.864,178.641 97.936,178.641 98.447 M302.524 98.240 C 302.524 98.455,304.479 98.663,307.087 98.726 L 311.650 98.835 311.753 111.545 L 311.855 124.254 310.934 124.486 C 310.428 124.613,308.110 124.659,305.783 124.587 L 301.553 124.458 301.451 111.650 C 301.395 104.605,301.433 98.621,301.536 98.352 C 301.756 97.780,302.524 97.692,302.524 98.240 M201.360 98.864 C 194.965 102.199,197.664 111.583,204.846 110.988 C 210.998 110.477,212.974 102.563,207.807 99.129 C 206.217 98.073,203.121 97.946,201.360 98.864 M382.136 111.594 L 382.136 124.547 377.087 124.615 L 372.039 124.683 372.039 111.662 L 372.039 98.641 377.087 98.641 L 382.136 98.641 382.136 111.594 M46.863 99.782 C 52.322 102.260,50.090 110.352,44.102 109.793 C 37.438 109.172,37.938 99.602,44.660 99.091 C 44.981 99.066,45.972 99.377,46.863 99.782 M78.641 99.417 C 78.509 99.631,77.188 99.806,75.705 99.806 C 74.167 99.806,73.010 99.639,73.010 99.417 C 73.010 99.193,74.247 99.029,75.945 99.029 C 77.803 99.029,78.793 99.172,78.641 99.417 M86.019 99.417 C 86.172 99.665,85.045 99.806,82.913 99.806 C 80.780 99.806,79.653 99.665,79.806 99.417 C 79.938 99.204,81.336 99.029,82.913 99.029 C 84.489 99.029,85.887 99.204,86.019 99.417 M178.252 99.806 C 178.252 100.060,171.190 100.194,157.841 100.194 C 144.333 100.194,137.511 100.063,137.670 99.806 C 137.825 99.555,145.053 99.417,158.081 99.417 C 171.270 99.417,178.252 99.552,178.252 99.806 M207.216 100.150 C 210.426 102.108,210.414 107.130,207.194 109.120 C 202.847 111.807,197.568 107.506,199.383 102.755 C 200.562 99.669,204.357 98.407,207.216 100.150 M42.626 100.802 C 38.839 102.857,40.347 108.738,44.660 108.738 C 45.997 108.738,46.529 108.500,47.612 107.417 C 51.050 103.979,46.906 98.480,42.626 100.802 M202.105 100.926 C 198.476 103.139,200.079 108.738,204.340 108.738 C 205.600 108.738,206.159 108.482,207.223 107.417 C 210.769 103.872,206.387 98.315,202.105 100.926 M314.563 106.019 C 314.563 106.660,314.738 107.184,314.951 107.184 C 315.165 107.184,315.340 106.835,315.340 106.408 C 315.340 104.701,316.839 105.503,316.968 107.278 C 317.061 108.561,317.258 108.958,317.859 109.072 C 318.283 109.152,318.948 109.585,319.337 110.034 C 319.832 110.605,320.128 110.713,320.325 110.393 C 320.495 110.118,321.914 109.892,323.896 109.823 L 327.184 109.709 327.302 107.670 C 327.405 105.886,328.155 104.629,328.155 106.241 C 328.155 107.010,329.265 108.153,329.630 107.760 C 329.780 107.599,329.684 107.388,329.417 107.293 C 329.150 107.198,328.932 106.860,328.932 106.542 C 328.932 104.120,326.736 104.925,326.532 107.421 L 326.408 108.932 323.506 109.048 C 321.911 109.112,320.487 109.355,320.343 109.588 C 319.832 110.414,317.670 107.674,317.670 106.200 C 317.670 104.889,317.630 104.854,316.117 104.854 C 314.649 104.854,314.563 104.919,314.563 106.019 M340.194 106.375 C 340.194 106.785,339.976 107.198,339.709 107.293 C 339.442 107.388,339.343 107.595,339.489 107.753 C 339.635 107.910,340.148 107.672,340.630 107.224 C 341.451 106.458,341.932 106.408,348.400 106.408 C 352.577 106.408,355.389 106.255,355.534 106.019 C 355.691 105.765,353.078 105.631,347.984 105.631 C 340.566 105.631,340.194 105.667,340.194 106.375 M313.553 107.728 C 313.411 108.099,313.487 108.594,313.722 108.829 C 314.033 109.140,314.220 109.072,314.408 108.583 C 314.550 108.212,314.474 107.717,314.239 107.482 C 313.928 107.171,313.741 107.238,313.553 107.728 M329.982 108.221 C 329.633 108.786,331.132 109.903,332.237 109.903 C 332.945 109.903,333.204 110.111,333.204 110.680 C 333.204 111.959,335.365 111.719,336.699 110.291 C 337.298 109.650,338.056 109.126,338.385 109.126 C 339.251 109.126,339.577 108.386,338.836 108.102 C 338.416 107.941,337.776 108.329,336.915 109.270 C 335.439 110.881,334.854 110.995,333.682 109.903 C 333.223 109.476,332.467 109.126,332.001 109.126 C 331.535 109.126,330.943 108.838,330.685 108.485 C 330.418 108.120,330.115 108.007,329.982 108.221 " stroke="none" fill="#000000" fill-rule="evenodd"></path></g></svg>