<svg id="svg" xmlns="http://www.w3.org/2000/svg" xmlns:xlink="http://www.w3.org/1999/xlink" width="400" height="133.54166666666666" viewBox="0, 0, 400,133.54166666666666"><g id="svgg"><path id="path0" d="M309.386 14.010 C 309.431 17.307,309.412 17.470,308.682 20.208 C 308.270 21.755,307.889 23.275,307.836 23.585 C 307.620 24.844,307.385 24.890,306.903 23.768 L 306.447 22.708 303.866 22.708 L 301.284 22.708 300.920 23.698 C 299.727 26.938,299.706 26.975,298.999 27.044 C 297.806 27.161,298.048 28.125,299.271 28.125 L 300.208 28.125 300.208 29.583 L 300.208 31.042 301.106 31.042 L 302.005 31.042 300.699 38.385 C 299.981 42.424,299.389 45.753,299.384 45.781 C 299.379 45.810,298.022 45.833,296.368 45.833 L 293.362 45.833 292.931 46.438 C 292.527 47.006,292.500 47.327,292.500 51.624 C 292.500 57.609,292.112 57.123,296.823 57.041 C 300.847 56.972,300.831 56.964,299.688 58.333 C 299.087 59.052,298.957 59.377,298.953 60.176 C 298.950 60.709,298.812 65.130,298.646 70.000 C 298.480 74.870,298.342 79.815,298.339 80.990 L 298.333 83.125 306.413 83.125 L 314.492 83.125 315.729 84.375 L 316.966 85.625 341.868 85.605 L 366.771 85.585 367.917 84.271 L 369.063 82.956 377.031 82.937 L 385.000 82.917 385.000 80.990 C 384.999 79.930,384.900 74.720,384.779 69.414 L 384.560 59.765 383.952 59.205 C 383.470 58.761,383.320 58.410,383.222 57.500 C 383.128 56.615,383.152 56.437,383.331 56.719 C 383.536 57.042,383.956 57.083,387.055 57.083 L 390.548 57.083 390.899 56.347 C 391.498 55.091,391.415 47.290,390.794 46.450 L 390.338 45.833 386.951 45.833 L 383.563 45.833 383.031 46.530 C 382.576 47.127,382.500 47.440,382.500 48.718 C 382.500 50.206,382.221 50.718,381.999 49.635 C 381.935 49.320,380.981 43.722,379.878 37.195 C 378.698 30.201,377.767 25.239,377.612 25.112 C 377.468 24.993,377.186 24.099,376.985 23.125 C 376.784 22.151,376.285 20.417,375.876 19.271 C 375.165 17.278,375.130 17.045,375.057 13.906 L 374.980 10.625 342.160 10.625 L 309.341 10.625 309.386 14.010 M29.539 10.990 C 29.502 11.076,29.503 12.482,29.543 14.115 L 29.615 17.083 31.891 17.083 L 34.167 17.083 34.167 18.258 C 34.167 19.404,34.136 19.467,32.850 20.914 C 29.973 24.153,28.705 27.148,25.252 38.854 L 22.240 49.063 21.876 52.708 L 21.511 56.354 21.485 50.998 L 21.458 45.643 20.573 45.132 C 17.675 43.461,13.569 43.290,10.408 44.708 L 9.230 45.237 9.095 47.879 C 9.021 49.332,8.960 57.753,8.959 66.592 L 8.958 82.663 9.816 83.006 C 12.403 84.042,16.054 84.258,18.854 83.542 C 19.750 83.313,20.504 83.125,20.529 83.125 C 20.875 83.125,20.698 85.898,20.293 86.823 L 19.815 87.917 15.026 87.917 L 10.237 87.917 9.837 88.490 L 9.436 89.063 10.419 92.170 C 11.474 95.506,11.471 95.502,13.379 96.475 L 14.571 97.083 22.859 97.076 C 32.441 97.068,31.857 97.195,32.360 95.018 C 32.523 94.311,32.702 93.687,32.757 93.632 C 32.812 93.577,34.518 93.557,36.549 93.589 L 40.240 93.646 38.428 96.250 C 37.431 97.682,36.577 98.953,36.531 99.073 C 36.296 99.678,49.346 103.495,56.071 104.789 L 58.497 105.256 58.738 106.534 C 61.819 122.829,81.805 129.011,93.565 117.307 C 96.286 114.600,98.109 111.322,99.029 107.479 L 99.459 105.686 102.073 105.234 C 106.099 104.537,110.809 103.441,114.479 102.348 L 117.813 101.354 160.764 101.250 C 184.387 101.193,203.771 101.090,203.840 101.021 C 203.908 100.953,204.018 99.828,204.083 98.521 L 204.202 96.146 205.888 92.346 C 206.815 90.256,207.610 88.583,207.656 88.628 C 207.701 88.673,207.122 91.724,206.369 95.407 C 205.616 99.091,205.000 102.230,205.000 102.384 C 205.000 102.803,205.956 103.021,207.794 103.021 L 209.441 103.021 209.805 104.699 C 214.562 126.644,246.434 126.060,250.217 103.958 C 250.364 103.099,250.496 102.377,250.510 102.354 C 250.524 102.331,252.829 102.069,255.632 101.773 C 262.349 101.064,261.700 101.273,261.625 99.842 C 261.562 98.651,261.409 98.442,260.320 98.061 C 260.210 98.023,260.327 97.727,260.581 97.405 C 260.834 97.083,261.042 96.538,261.042 96.195 L 261.042 95.572 263.930 95.664 L 266.818 95.756 266.951 93.888 C 267.024 92.860,267.083 91.300,267.083 90.421 L 267.083 88.823 265.546 87.849 C 264.700 87.313,263.775 86.875,263.490 86.875 C 263.054 86.875,262.883 86.672,262.423 85.611 C 261.726 84.003,261.730 83.958,262.604 83.958 L 263.333 83.958 263.333 82.502 C 263.333 81.067,263.322 81.038,262.607 80.575 L 261.880 80.104 261.878 74.010 L 261.875 67.917 262.500 67.917 L 263.125 67.917 263.125 66.450 L 263.125 64.983 261.786 64.382 C 260.486 63.799,260.443 63.754,260.309 62.862 C 260.233 62.357,260.107 61.840,260.029 61.714 C 259.477 60.821,209.766 56.401,202.603 56.608 L 198.644 56.722 189.374 45.659 C 179.577 33.967,179.389 33.707,179.380 31.823 L 179.375 30.625 180.521 30.625 L 181.667 30.625 181.667 29.167 L 181.667 27.708 182.500 27.708 C 183.628 27.708,183.785 26.738,182.675 26.628 C 182.055 26.566,181.966 26.443,181.129 24.479 L 180.241 22.396 177.674 22.396 L 175.107 22.396 174.346 24.479 C 173.611 26.490,173.560 26.566,172.886 26.667 C 171.723 26.840,171.777 27.663,172.956 27.748 L 173.854 27.813 173.916 29.219 L 173.977 30.625 174.801 30.625 L 175.625 30.625 175.621 32.031 L 175.618 33.438 171.507 29.214 L 167.396 24.990 150.625 22.078 C 141.401 20.476,133.596 19.112,133.281 19.045 C 132.761 18.936,132.708 18.841,132.708 18.004 L 132.708 17.083 138.698 17.083 L 144.688 17.083 144.688 13.958 L 144.688 10.833 87.148 10.833 C 55.501 10.833,29.577 10.904,29.539 10.990 M341.622 13.594 L 341.563 15.729 325.938 15.729 L 310.313 15.729 310.253 13.594 L 310.194 11.458 325.938 11.458 L 341.681 11.458 341.622 13.594 M374.122 13.594 L 374.063 15.729 358.281 15.783 L 342.500 15.836 342.500 13.647 L 342.500 11.458 358.341 11.458 L 374.181 11.458 374.122 13.594 M58.125 13.969 L 58.125 16.270 44.271 16.224 L 30.417 16.178 30.417 13.922 L 30.417 11.667 44.271 11.667 L 58.125 11.667 58.125 13.969 M86.667 13.947 L 86.667 16.228 72.813 16.224 L 58.958 16.220 58.958 13.943 L 58.958 11.667 72.813 11.667 L 86.667 11.667 86.667 13.947 M117.247 13.906 L 117.188 16.146 102.396 16.146 L 87.604 16.146 87.544 14.182 C 87.511 13.102,87.531 12.095,87.589 11.943 C 87.676 11.717,90.401 11.667,102.501 11.667 L 117.306 11.667 117.247 13.906 M143.750 13.944 L 143.750 16.221 130.938 16.222 L 118.125 16.223 118.125 13.945 L 118.125 11.667 130.938 11.667 L 143.750 11.667 143.750 13.944 M374.680 18.177 C 374.989 19.008,375.458 20.497,375.724 21.486 L 376.207 23.284 374.891 22.288 C 370.964 19.315,364.222 18.544,342.188 18.547 C 320.904 18.550,312.886 19.345,309.712 21.766 C 309.298 22.082,308.958 22.299,308.958 22.248 C 308.958 22.065,310.183 17.801,310.397 17.240 L 310.615 16.667 342.367 16.667 L 374.118 16.667 374.680 18.177 M36.667 18.229 L 36.667 19.375 35.833 19.375 L 35.000 19.375 35.000 18.229 L 35.000 17.083 35.833 17.083 L 36.667 17.083 36.667 18.229 M70.417 17.999 L 70.417 18.914 67.240 19.044 C 65.492 19.115,58.086 19.195,50.781 19.222 L 37.500 19.271 37.500 18.177 L 37.500 17.083 53.958 17.083 L 70.417 17.083 70.417 17.999 M72.917 18.021 L 72.917 18.958 72.083 18.958 L 71.250 18.958 71.250 18.021 L 71.250 17.083 72.083 17.083 L 72.917 17.083 72.917 18.021 M101.250 17.883 L 101.250 18.683 96.406 18.820 C 93.742 18.896,87.555 18.958,82.656 18.958 L 73.750 18.958 73.750 18.021 L 73.750 17.083 87.500 17.083 L 101.250 17.083 101.250 17.883 M103.750 17.917 L 103.750 18.750 102.917 18.750 L 102.083 18.750 102.083 17.917 L 102.083 17.083 102.917 17.083 L 103.750 17.083 103.750 17.917 M129.375 17.779 L 129.375 18.475 124.029 18.612 C 121.088 18.688,115.510 18.750,111.633 18.750 L 104.583 18.750 104.583 17.917 L 104.583 17.083 116.979 17.083 L 129.375 17.083 129.375 17.779 M131.875 17.917 C 131.875 18.799,131.710 18.895,130.677 18.619 C 129.724 18.363,130.027 17.083,131.042 17.083 L 131.875 17.083 131.875 17.917 M129.375 21.667 L 129.375 23.958 131.042 23.958 L 132.708 23.958 132.708 21.858 L 132.708 19.759 133.281 19.883 C 133.596 19.951,141.330 21.312,150.468 22.907 L 167.081 25.807 168.728 27.539 C 169.634 28.491,170.358 29.289,170.337 29.312 C 170.317 29.335,168.474 28.990,166.244 28.546 L 162.188 27.739 145.625 27.092 C 136.516 26.736,128.945 26.448,128.802 26.452 C 127.828 26.476,128.628 27.292,129.635 27.301 C 130.237 27.306,138.089 27.628,147.083 28.017 L 163.438 28.723 166.875 29.464 C 168.766 29.872,170.523 30.255,170.781 30.315 C 171.171 30.406,171.254 30.573,171.275 31.306 C 171.319 32.905,171.535 33.255,174.728 36.911 C 181.646 44.831,188.356 53.643,190.721 57.917 C 191.060 58.529,190.386 57.705,180.652 45.625 L 170.832 33.438 169.010 32.456 L 167.188 31.474 152.448 31.466 L 137.708 31.458 137.708 44.688 L 137.708 57.917 80.000 57.917 C 33.973 57.917,22.291 57.864,22.291 57.656 C 22.290 57.513,22.435 55.708,22.613 53.646 L 22.937 49.896 25.967 39.479 L 28.998 29.063 30.659 25.890 C 31.631 24.033,32.699 22.306,33.235 21.724 L 34.150 20.729 34.158 22.865 L 34.167 25.000 35.833 25.000 L 37.500 25.000 37.500 22.625 L 37.500 20.249 39.844 20.124 C 41.133 20.055,48.539 19.975,56.302 19.947 L 70.417 19.896 70.417 22.448 L 70.417 25.000 72.083 25.000 L 73.750 25.000 73.750 22.396 L 73.750 19.792 82.656 19.791 C 87.555 19.791,93.742 19.729,96.406 19.654 L 101.250 19.517 101.250 22.050 L 101.250 24.583 102.917 24.583 L 104.583 24.583 104.583 22.086 L 104.583 19.588 113.490 19.531 C 118.388 19.500,123.966 19.452,125.885 19.425 L 129.375 19.375 129.375 21.667 M131.510 19.580 C 131.829 19.583,131.875 19.808,131.875 21.354 L 131.875 23.125 131.042 23.125 L 130.208 23.125 130.208 21.226 C 130.208 19.358,130.216 19.328,130.677 19.452 C 130.935 19.521,131.310 19.579,131.510 19.580 M358.438 19.588 C 368.411 20.132,372.694 21.210,375.297 23.830 L 376.563 25.104 342.396 25.221 C 323.604 25.285,308.194 25.313,308.152 25.282 C 307.965 25.149,309.222 23.328,309.929 22.707 C 311.773 21.088,317.210 19.974,325.104 19.597 C 330.086 19.360,354.135 19.353,358.438 19.588 M103.750 21.667 L 103.750 23.750 102.917 23.750 L 102.083 23.750 102.083 21.667 L 102.083 19.583 102.917 19.583 L 103.750 19.583 103.750 21.667 M72.872 22.031 L 72.931 24.167 72.091 24.167 L 71.250 24.167 71.250 21.967 L 71.250 19.767 72.031 19.831 L 72.813 19.896 72.872 22.031 M36.667 22.188 L 36.667 24.167 35.833 24.167 L 35.000 24.167 35.000 22.188 L 35.000 20.208 35.833 20.208 L 36.667 20.208 36.667 22.188 M180.324 24.699 C 180.719 25.565,181.042 26.362,181.042 26.470 C 181.042 26.585,179.671 26.667,177.734 26.667 L 174.427 26.667 174.926 25.290 C 175.759 22.995,175.591 23.125,177.728 23.125 L 179.607 23.125 180.324 24.699 M306.615 25.159 C 306.987 26.046,307.292 26.841,307.292 26.927 C 307.292 27.013,305.792 27.083,303.958 27.083 C 302.125 27.083,300.625 27.040,300.625 26.987 C 300.625 26.934,300.826 26.348,301.071 25.685 C 301.317 25.022,301.596 24.268,301.691 24.010 C 301.855 23.568,301.978 23.542,303.901 23.544 L 305.938 23.547 306.615 25.159 M379.097 37.500 C 381.038 48.883,382.502 57.975,382.409 58.074 C 382.382 58.103,381.550 57.565,380.560 56.879 L 378.761 55.631 374.151 55.212 C 370.124 54.845,367.910 54.792,356.650 54.792 L 343.760 54.792 343.703 58.281 L 343.646 61.771 341.719 61.831 L 339.792 61.891 339.792 58.237 L 339.792 54.583 327.240 54.589 C 311.998 54.595,304.924 55.131,302.576 56.456 C 301.117 57.279,301.171 57.459,301.890 54.169 C 302.227 52.627,303.204 47.004,304.061 41.673 C 304.919 36.341,305.670 31.768,305.731 31.510 C 305.825 31.110,305.978 31.042,306.775 31.042 L 307.708 31.042 307.708 29.583 L 307.708 28.125 308.646 28.125 C 309.876 28.125,310.110 27.161,308.908 27.044 C 308.464 27.002,308.209 26.855,308.164 26.615 C 308.093 26.242,321.138 26.136,366.341 26.144 L 377.161 26.146 379.097 37.500 M40.313 26.909 C 38.756 27.768,38.654 28.026,35.926 38.021 C 33.791 45.841,33.733 46.918,35.358 48.425 C 36.376 49.369,36.907 49.391,57.318 49.329 L 76.593 49.271 77.431 48.717 C 79.072 47.630,79.063 47.696,79.063 37.917 L 79.063 29.271 78.569 28.410 C 77.499 26.542,78.924 26.666,58.617 26.673 C 45.976 26.677,40.607 26.747,40.313 26.909 M84.790 27.344 C 83.158 28.454,83.236 27.951,83.171 37.721 C 83.107 47.246,83.088 47.078,84.314 48.214 C 85.312 49.140,85.900 49.167,105.521 49.167 C 126.144 49.167,125.807 49.186,126.957 47.914 C 127.947 46.818,127.945 46.839,127.875 37.359 C 127.805 27.999,127.878 28.451,126.252 27.344 L 125.563 26.875 105.521 26.875 L 85.478 26.875 84.790 27.344 M57.450 37.969 L 57.396 48.438 47.083 48.438 C 33.070 48.438,33.805 49.143,36.682 38.443 C 39.251 28.887,39.444 28.344,40.467 27.776 C 40.822 27.579,42.979 27.513,49.221 27.507 L 57.504 27.500 57.450 37.969 M76.882 27.816 C 78.221 28.508,78.229 28.573,78.229 38.030 C 78.229 49.650,79.511 48.416,67.353 48.500 L 58.333 48.562 58.333 38.031 L 58.333 27.500 67.302 27.500 C 74.911 27.500,76.363 27.548,76.882 27.816 M104.792 38.031 L 104.792 48.353 95.260 48.291 C 84.719 48.223,84.986 48.257,84.260 46.854 C 83.802 45.969,83.814 29.841,84.273 28.953 C 84.913 27.716,84.827 27.726,95.260 27.717 L 104.792 27.708 104.792 38.031 M125.825 28.049 C 127.091 28.797,127.083 28.738,127.083 37.907 C 127.083 49.457,128.493 48.208,115.365 48.289 L 105.625 48.349 105.625 38.029 L 105.625 27.708 115.437 27.708 C 124.145 27.708,125.313 27.747,125.825 28.049 M180.793 28.802 L 180.856 29.792 177.824 29.792 L 174.792 29.792 174.792 28.889 C 174.792 27.663,174.718 27.690,177.905 27.755 L 180.729 27.813 180.793 28.802 M306.875 29.167 L 306.875 30.208 303.958 30.208 L 301.042 30.208 301.042 29.167 L 301.042 28.125 303.958 28.125 L 306.875 28.125 306.875 29.167 M310.366 28.698 C 309.875 29.214,309.590 30.356,307.473 40.290 L 305.125 51.309 305.948 52.006 L 306.771 52.702 341.989 52.705 L 377.207 52.708 377.954 51.927 L 378.700 51.146 376.469 40.400 C 373.887 27.962,374.205 29.092,373.143 28.551 C 372.313 28.128,372.123 28.125,341.610 28.125 L 310.911 28.125 310.366 28.698 M372.795 29.330 C 373.353 29.669,377.644 48.419,377.698 50.757 C 377.723 51.848,377.434 51.879,367.664 51.825 L 358.646 51.776 366.823 51.719 L 375.000 51.662 375.000 50.727 L 375.000 49.792 364.688 49.792 L 354.375 49.792 354.375 50.417 L 354.375 51.042 350.313 51.042 C 346.389 51.042,346.250 51.056,346.250 51.458 C 346.250 51.869,346.128 51.874,337.031 51.825 L 327.813 51.776 336.094 51.719 L 344.375 51.662 344.375 50.727 L 344.375 49.792 334.063 49.792 L 323.750 49.792 323.750 50.417 L 323.750 51.042 319.712 51.042 C 315.849 51.042,315.669 51.060,315.565 51.458 C 315.383 52.152,307.157 52.098,306.501 51.399 L 306.054 50.924 308.313 40.351 C 309.901 32.918,310.682 29.657,310.943 29.369 C 311.495 28.759,371.792 28.720,372.795 29.330 M178.554 31.927 C 178.575 34.030,178.880 34.455,189.167 46.720 C 200.884 60.691,198.116 58.925,209.479 59.675 C 226.358 60.788,229.946 61.504,230.791 63.926 C 230.986 64.487,230.952 64.549,230.264 64.877 C 229.280 65.346,198.673 65.390,197.103 64.925 L 196.185 64.653 187.228 51.129 C 175.189 32.951,176.586 35.338,176.491 32.773 L 176.411 30.625 177.476 30.625 L 178.542 30.625 178.554 31.927 M304.862 31.510 C 304.473 33.780,301.875 50.042,301.875 50.205 C 301.875 50.321,301.688 50.417,301.458 50.417 C 301.078 50.417,301.042 50.278,301.042 48.834 C 301.042 47.577,300.955 47.130,300.618 46.657 L 300.194 46.062 301.464 38.812 C 302.163 34.825,302.772 31.445,302.819 31.302 C 302.992 30.769,304.955 30.969,304.862 31.510 M174.134 33.101 C 175.064 34.120,175.918 35.196,176.031 35.494 C 176.144 35.791,176.973 37.138,177.872 38.486 C 179.470 40.882,179.968 41.669,179.751 41.458 C 179.692 41.401,178.769 40.323,177.700 39.063 C 176.631 37.802,175.027 35.965,174.136 34.981 C 172.553 33.233,172.083 32.471,172.083 31.653 C 172.083 30.973,172.379 31.182,174.134 33.101 M168.494 33.102 L 170.104 33.912 180.104 46.318 C 188.058 56.185,190.243 58.772,190.781 58.961 L 191.458 59.199 191.458 61.370 L 191.458 63.542 181.180 63.542 C 175.527 63.542,163.293 63.479,153.993 63.403 L 137.083 63.265 137.083 61.141 L 137.083 59.016 138.177 58.885 C 138.779 58.813,146.608 58.753,155.576 58.752 L 171.881 58.750 172.295 59.427 L 172.708 60.104 171.979 60.169 C 171.095 60.247,170.797 61.875,171.667 61.875 C 171.927 61.875,172.083 61.736,172.083 61.505 C 172.083 61.171,172.331 61.136,174.687 61.141 C 176.629 61.145,177.291 61.212,177.291 61.406 C 177.292 61.549,177.479 61.667,177.708 61.667 C 178.046 61.667,178.125 61.528,178.125 60.938 L 178.125 60.208 176.914 60.208 C 175.775 60.208,174.792 59.585,174.792 58.863 C 174.792 58.801,177.126 58.750,179.978 58.750 L 185.165 58.750 185.264 57.865 C 185.340 57.189,185.259 56.827,184.921 56.337 C 183.295 53.975,167.747 34.715,167.268 34.467 C 166.770 34.209,164.758 34.172,153.913 34.217 L 141.146 34.271 141.092 46.094 L 141.038 57.917 139.790 57.917 L 138.542 57.917 138.542 45.104 L 138.542 32.292 152.713 32.292 L 166.884 32.292 168.494 33.102 M167.283 35.573 C 168.755 36.926,184.535 57.120,184.431 57.517 C 184.332 57.896,184.087 57.917,179.726 57.917 C 176.147 57.917,175.181 57.861,175.375 57.667 C 175.763 57.279,175.716 52.283,175.319 51.759 C 175.104 51.474,175.011 50.795,175.007 49.469 C 175.002 48.288,174.907 47.490,174.750 47.333 C 174.408 46.992,170.383 46.992,170.042 47.333 C 169.687 47.688,169.687 57.312,170.042 57.667 C 170.236 57.861,167.134 57.917,156.083 57.917 L 141.875 57.917 141.875 46.597 C 141.875 40.372,141.938 35.215,142.014 35.139 C 142.090 35.063,147.667 35.000,154.406 35.000 L 166.660 35.000 167.283 35.573 M75.345 39.548 C 74.431 40.558,75.065 43.125,76.228 43.125 C 77.296 43.125,77.500 42.808,77.500 41.146 C 77.500 39.829,77.440 39.566,77.097 39.382 C 76.482 39.053,75.728 39.124,75.345 39.548 M85.052 39.508 C 84.875 39.583,84.792 40.145,84.792 41.263 C 84.792 43.076,84.946 43.253,86.381 43.089 L 86.979 43.021 86.979 41.250 L 86.979 39.479 86.146 39.439 C 85.688 39.416,85.195 39.448,85.052 39.508 M123.375 39.625 C 123.231 39.769,123.125 40.458,123.125 41.250 C 123.125 42.832,123.320 43.125,124.375 43.125 C 125.430 43.125,125.625 42.832,125.625 41.250 C 125.625 39.668,125.430 39.375,124.375 39.375 C 123.963 39.375,123.513 39.487,123.375 39.625 M37.827 40.119 C 36.880 41.067,37.561 43.750,38.750 43.750 C 39.700 43.750,40.000 43.275,40.000 41.771 C 40.000 40.266,39.700 39.792,38.750 39.792 C 38.423 39.792,38.007 39.939,37.827 40.119 M17.775 44.895 C 18.433 45.066,19.358 45.404,19.831 45.645 L 20.691 46.084 20.525 56.636 C 20.433 62.439,20.301 70.609,20.231 74.792 L 20.104 82.396 18.646 82.772 C 16.723 83.269,12.743 83.169,11.042 82.583 L 9.896 82.188 9.896 64.125 C 9.896 50.266,9.955 46.004,10.148 45.810 C 11.186 44.773,15.375 44.270,17.775 44.895 M299.827 47.011 C 300.145 47.299,300.208 47.682,300.208 49.303 L 300.208 51.250 300.952 51.250 C 301.560 51.250,301.676 51.316,301.592 51.615 C 301.536 51.815,301.428 52.307,301.353 52.708 C 301.016 54.504,300.817 55.000,300.435 55.000 C 300.176 55.000,300.011 55.203,299.926 55.630 L 299.800 56.261 296.619 56.203 L 293.438 56.146 293.381 51.693 C 293.342 48.584,293.397 47.154,293.563 46.954 C 293.942 46.497,299.313 46.546,299.827 47.011 M390.167 46.917 C 390.489 47.239,390.519 55.252,390.201 55.847 C 390.003 56.217,389.738 56.250,386.954 56.250 L 383.922 56.250 383.691 55.639 C 383.564 55.302,383.305 54.987,383.115 54.937 C 382.872 54.874,382.726 54.513,382.625 53.725 C 382.545 53.109,382.426 52.253,382.359 51.823 C 382.246 51.088,382.271 51.042,382.786 51.042 C 383.333 51.042,383.333 51.040,383.333 49.317 C 383.333 46.660,383.325 46.667,386.949 46.667 C 388.979 46.667,389.996 46.746,390.167 46.917 M174.167 49.752 C 174.167 51.043,174.257 51.707,174.473 51.991 C 174.700 52.292,174.780 53.022,174.785 54.844 L 174.792 57.292 172.708 57.292 L 170.625 57.292 170.625 52.604 L 170.625 47.917 172.396 47.917 L 174.167 47.917 174.167 49.752 M318.675 57.954 C 321.093 61.277,320.975 61.042,320.216 61.042 C 319.603 61.042,313.958 56.130,313.958 55.596 C 313.958 55.497,314.604 55.417,315.394 55.417 L 316.830 55.417 318.675 57.954 M338.958 58.229 L 338.958 61.042 330.456 61.042 L 321.954 61.042 320.092 58.504 C 319.067 57.109,318.154 55.843,318.063 55.692 C 317.925 55.465,319.753 55.417,328.427 55.417 L 338.958 55.417 338.958 58.229 M315.417 58.267 C 316.964 59.713,318.255 60.960,318.287 61.037 C 318.346 61.182,314.562 62.087,313.905 62.085 C 313.462 62.083,305.968 56.671,306.152 56.486 C 306.257 56.380,308.080 56.139,312.396 55.660 C 312.510 55.647,313.870 56.820,315.417 58.267 M364.254 56.719 C 363.823 57.320,362.947 58.537,362.308 59.422 L 361.146 61.031 352.865 61.036 L 344.583 61.042 344.583 58.333 L 344.583 55.625 354.811 55.625 L 365.039 55.625 364.254 56.719 M368.633 56.270 C 365.847 59.205,363.117 61.491,362.602 61.319 C 362.071 61.142,362.075 61.134,364.081 58.383 L 366.092 55.625 367.668 55.625 L 369.245 55.625 368.633 56.270 M374.985 56.115 L 377.366 56.354 373.229 59.271 C 370.954 60.875,368.987 62.252,368.860 62.330 C 368.648 62.460,364.639 61.792,364.441 61.594 C 364.395 61.548,365.696 60.233,367.333 58.672 L 370.310 55.833 371.457 55.854 C 372.088 55.866,373.676 55.983,374.985 56.115 M308.704 59.590 C 312.641 62.480,312.781 62.658,311.146 62.692 C 310.550 62.705,302.921 57.990,302.748 57.501 C 302.644 57.209,303.804 56.660,304.375 56.730 C 304.661 56.766,306.610 58.053,308.704 59.590 M379.360 57.065 L 379.866 57.454 377.381 59.073 C 376.014 59.963,374.123 61.192,373.179 61.804 C 371.519 62.880,370.822 63.101,370.247 62.737 C 369.951 62.549,377.954 56.715,378.542 56.690 C 378.714 56.682,379.082 56.851,379.360 57.065 M217.408 58.128 C 226.108 58.788,255.505 61.686,258.675 62.197 C 259.248 62.289,259.801 63.178,259.485 63.500 C 259.451 63.534,250.905 62.662,240.493 61.561 C 230.081 60.460,216.875 59.108,211.146 58.556 C 201.807 57.657,200.945 57.544,202.813 57.466 C 203.958 57.418,205.229 57.359,205.637 57.335 C 206.044 57.311,211.341 57.668,217.408 58.128 M305.880 60.665 C 308.203 62.177,310.130 63.429,310.161 63.448 C 310.334 63.552,309.910 64.167,309.665 64.167 C 309.494 64.167,309.375 64.382,309.375 64.691 C 309.375 65.132,309.300 65.197,308.906 65.097 C 308.648 65.031,306.516 64.442,304.167 63.788 L 299.896 62.598 299.836 61.018 L 299.775 59.438 300.617 58.677 C 301.664 57.732,300.971 57.471,305.880 60.665 M382.252 59.063 L 383.761 60.104 383.703 61.334 L 383.646 62.565 379.375 63.886 C 377.026 64.613,375.081 65.207,375.052 65.208 C 375.023 65.208,375.000 64.974,375.000 64.688 C 375.000 64.311,374.888 64.167,374.595 64.167 C 373.962 64.167,372.643 63.315,372.892 63.066 C 373.230 62.729,380.510 57.952,380.632 57.988 C 380.693 58.006,381.422 58.490,382.252 59.063 M136.250 60.938 L 136.250 63.125 79.038 63.125 L 21.825 63.125 21.976 61.094 C 22.059 59.977,22.170 58.992,22.222 58.906 C 22.274 58.820,47.951 58.750,79.283 58.750 L 136.250 58.750 136.250 60.938 M173.891 59.219 C 174.610 60.018,174.653 60.208,174.113 60.208 C 173.753 60.208,173.524 60.010,173.271 59.479 C 172.856 58.609,173.209 58.461,173.891 59.219 M194.052 62.969 L 194.423 63.542 193.357 63.542 L 192.292 63.542 192.292 61.930 L 192.292 60.318 192.987 61.357 C 193.369 61.928,193.848 62.654,194.052 62.969 M245.521 62.925 C 261.905 64.628,262.292 64.706,262.292 66.302 L 262.292 67.124 261.094 66.999 C 260.435 66.930,253.708 66.448,246.146 65.928 C 230.316 64.840,232.026 65.077,231.683 63.928 C 231.504 63.327,231.086 62.714,230.446 62.114 L 229.479 61.207 230.417 61.329 C 230.932 61.396,237.729 62.115,245.521 62.925 M338.996 62.344 C 339.061 62.802,339.121 62.813,341.771 62.813 C 344.421 62.813,344.481 62.802,344.546 62.344 L 344.612 61.875 352.845 61.875 L 361.077 61.875 366.632 62.936 C 369.688 63.520,372.227 64.036,372.274 64.082 C 372.322 64.129,358.497 64.167,341.553 64.167 C 306.999 64.167,308.323 64.238,315.000 62.741 L 318.646 61.924 328.788 61.900 L 338.929 61.875 338.996 62.344 M383.943 66.719 L 383.958 68.333 381.979 68.333 L 380.000 68.333 380.000 67.296 C 380.000 66.188,379.150 65.433,377.873 65.407 C 377.611 65.402,378.802 64.953,380.521 64.411 L 383.646 63.425 383.787 64.264 C 383.864 64.726,383.934 65.831,383.943 66.719 M303.542 64.473 C 305.318 64.977,306.610 65.396,306.413 65.403 C 305.111 65.452,304.603 66.045,304.540 67.587 L 304.479 69.063 302.031 69.121 L 299.583 69.180 299.583 66.361 C 299.583 63.013,299.143 63.223,303.542 64.473 M35.938 66.562 L 35.938 69.166 28.574 69.166 L 21.211 69.167 21.329 68.177 C 21.395 67.633,21.508 66.461,21.582 65.573 L 21.716 63.958 28.827 63.958 L 35.938 63.958 35.938 66.562 M136.250 66.563 L 136.250 69.167 92.500 69.167 L 48.750 69.167 48.750 66.892 C 48.750 65.641,48.693 64.469,48.624 64.288 C 48.508 63.988,52.450 63.958,92.374 63.958 L 136.250 63.958 136.250 66.563 M181.180 64.375 L 191.458 64.375 191.458 64.824 C 191.458 65.071,191.693 65.580,191.979 65.956 C 192.423 66.538,192.500 66.860,192.500 68.139 L 192.500 69.639 186.510 69.509 C 183.216 69.437,172.083 69.329,161.771 69.269 C 151.458 69.209,141.685 69.105,140.052 69.038 L 137.083 68.915 137.083 66.507 L 137.083 64.098 153.993 64.237 C 163.293 64.313,175.527 64.375,181.180 64.375 M195.263 64.850 C 196.021 66.006,196.367 66.028,213.793 66.048 C 223.595 66.059,229.917 65.989,230.147 65.867 C 230.394 65.735,233.339 65.870,238.854 66.264 C 243.438 66.592,247.586 66.864,248.073 66.868 L 248.958 66.875 248.958 69.167 C 248.958 71.758,249.005 71.704,247.591 70.752 L 246.543 70.046 222.907 69.813 C 209.907 69.685,197.935 69.581,196.302 69.582 L 193.333 69.583 193.333 67.876 C 193.333 66.316,193.286 66.119,192.785 65.597 C 191.956 64.731,192.227 64.375,193.720 64.375 C 194.772 64.375,194.997 64.444,195.263 64.850 M47.917 66.667 L 47.917 68.542 42.292 68.542 L 36.667 68.542 36.667 66.667 L 36.667 64.792 42.292 64.792 L 47.917 64.792 47.917 66.667 M142.335 66.615 L 142.396 68.229 146.510 68.286 L 150.625 68.342 150.625 66.671 L 150.625 65.000 146.450 65.000 L 142.274 65.000 142.335 66.615 M312.083 71.042 C 312.083 74.135,312.032 76.667,311.969 76.667 C 311.906 76.667,311.578 76.524,311.240 76.349 L 310.625 76.031 310.625 70.724 L 310.625 65.417 311.354 65.417 L 312.083 65.417 312.083 71.042 M324.583 71.250 L 324.583 77.083 318.750 77.083 L 312.917 77.083 312.917 71.250 L 312.917 65.417 318.750 65.417 L 324.583 65.417 324.583 71.250 M359.129 65.990 L 359.196 66.458 342.306 66.458 L 325.417 66.458 325.417 65.936 L 325.417 65.414 342.240 65.468 L 359.063 65.521 359.129 65.990 M371.667 71.250 L 371.667 77.083 365.833 77.083 L 360.000 77.083 360.007 74.531 L 360.014 71.979 360.396 73.087 C 362.358 78.767,370.833 77.289,370.833 71.267 C 370.833 65.161,362.113 63.759,360.320 69.577 C 360.034 70.504,360.029 70.475,360.015 67.969 L 360.000 65.417 365.833 65.417 L 371.667 65.417 371.667 71.250 M373.750 70.377 L 373.750 75.338 373.125 75.800 L 372.500 76.262 372.500 70.840 L 372.500 65.417 373.125 65.417 L 373.750 65.417 373.750 70.377 M149.792 66.672 L 149.792 67.511 146.510 67.453 L 143.229 67.396 143.165 66.615 L 143.100 65.833 146.446 65.833 L 149.792 65.833 149.792 66.672 M316.555 66.313 C 311.076 68.933,313.114 77.079,319.135 76.625 C 323.708 76.280,325.808 70.840,322.644 67.534 C 321.083 65.902,318.498 65.383,316.555 66.313 M309.375 68.438 L 309.375 70.625 307.646 70.625 C 305.474 70.625,305.417 70.568,305.417 68.406 C 305.417 66.327,305.483 66.265,307.760 66.256 L 309.375 66.250 309.375 68.438 M378.636 66.492 C 379.141 66.722,379.167 66.814,379.167 68.429 C 379.167 70.579,379.118 70.625,376.833 70.625 L 375.000 70.625 375.000 68.438 L 375.000 66.250 376.553 66.250 C 377.407 66.250,378.344 66.359,378.636 66.492 M320.858 67.249 C 325.288 69.563,323.337 76.155,318.330 75.793 C 313.789 75.464,312.581 69.304,316.653 67.240 C 318.164 66.474,319.380 66.476,320.858 67.249 M366.875 66.872 C 370.081 67.764,371.092 72.272,368.613 74.624 C 366.606 76.529,363.067 76.082,361.621 73.741 C 359.363 70.087,362.709 65.713,366.875 66.872 M254.219 67.325 L 257.917 67.569 257.917 69.201 L 257.917 70.833 253.854 70.833 L 249.792 70.833 249.792 68.958 C 249.792 67.312,249.836 67.083,250.156 67.082 C 250.357 67.081,252.185 67.191,254.219 67.325 M359.167 68.021 L 359.167 68.750 352.213 68.750 C 346.503 68.750,345.125 68.694,344.511 68.438 C 343.561 68.040,341.005 68.044,339.896 68.444 C 339.235 68.682,337.650 68.744,332.240 68.747 L 325.417 68.750 325.417 68.021 L 325.417 67.292 342.292 67.292 L 359.167 67.292 359.167 68.021 M260.993 73.594 C 261.023 76.773,260.997 79.375,260.934 79.375 C 260.870 79.375,259.628 78.602,258.172 77.656 L 255.526 75.938 257.138 75.877 L 258.750 75.816 258.750 71.751 L 258.750 67.687 259.844 67.750 L 260.938 67.813 260.993 73.594 M344.591 69.427 C 346.919 70.601,344.930 72.532,341.695 72.239 C 337.581 71.866,338.020 68.990,342.195 68.966 C 343.313 68.960,343.883 69.070,344.591 69.427 M384.029 73.698 C 384.104 76.190,384.166 79.096,384.166 80.156 L 384.167 82.083 376.471 82.083 L 368.776 82.083 367.565 83.437 L 366.354 84.791 341.868 84.792 L 317.383 84.792 316.146 83.542 L 314.909 82.292 307.005 82.292 L 299.101 82.292 299.237 78.073 C 299.312 75.753,299.374 72.987,299.374 71.927 L 299.375 70.000 301.979 70.000 C 304.003 70.000,304.583 70.062,304.583 70.276 C 304.583 70.428,304.818 70.773,305.104 71.042 C 305.391 71.311,305.625 71.723,305.625 71.958 C 305.625 72.563,308.291 75.208,308.901 75.208 C 309.311 75.208,309.375 75.315,309.375 75.996 C 309.375 76.769,309.405 76.798,310.941 77.558 L 312.507 78.333 342.269 78.333 L 372.030 78.333 373.463 77.162 C 374.251 76.518,374.926 75.815,374.962 75.600 C 375.008 75.332,375.203 75.208,375.582 75.208 C 376.369 75.208,378.958 72.634,378.958 71.852 C 378.958 71.491,379.140 71.179,379.479 70.957 C 379.869 70.701,380.000 70.434,380.000 69.891 L 380.000 69.167 381.946 69.167 L 383.892 69.167 384.029 73.698 M171.740 70.201 C 183.066 70.305,192.377 70.433,192.431 70.486 C 192.990 71.045,193.474 81.555,192.999 82.795 C 192.884 83.094,190.243 83.125,165.217 83.125 L 137.561 83.125 137.426 81.531 C 137.352 80.654,137.292 77.670,137.292 74.899 L 137.292 69.861 144.219 69.937 C 148.029 69.979,160.413 70.098,171.740 70.201 M136.316 75.990 C 136.381 79.284,136.498 82.236,136.575 82.550 L 136.714 83.121 117.019 83.175 L 97.325 83.229 96.673 81.652 C 95.577 78.995,94.110 77.143,92.283 76.105 L 90.729 75.222 76.979 75.214 L 63.229 75.207 61.665 76.278 C 60.111 77.342,60.090 77.369,58.613 80.185 L 57.125 83.021 39.357 83.074 C 25.280 83.116,21.554 83.073,21.422 82.866 C 21.331 82.722,21.255 79.768,21.253 76.302 L 21.250 70.000 78.724 70.000 L 136.197 70.000 136.316 75.990 M49.230 70.711 C 48.242 71.561,48.227 75.746,49.208 76.661 C 49.666 77.087,56.205 77.328,57.178 76.954 C 58.543 76.430,58.524 71.063,57.155 70.440 C 56.041 69.932,49.891 70.143,49.230 70.711 M125.596 70.607 C 125.126 70.987,125.104 71.122,125.104 73.646 C 125.104 77.240,124.889 77.083,129.824 77.083 C 134.691 77.083,134.583 77.161,134.583 73.646 C 134.583 70.130,134.691 70.208,129.824 70.208 C 126.456 70.208,126.039 70.248,125.596 70.607 M222.881 70.646 L 246.283 70.877 254.339 76.142 L 262.396 81.407 262.461 82.298 L 262.527 83.188 257.314 83.075 L 252.100 82.961 247.621 79.292 L 243.142 75.622 227.778 75.676 L 212.414 75.729 210.752 79.427 L 209.091 83.125 201.472 83.125 L 193.854 83.125 193.916 78.073 C 193.972 73.459,193.900 72.409,193.414 70.781 C 193.280 70.331,191.772 70.338,222.881 70.646 M57.076 71.445 C 57.195 71.666,57.292 72.657,57.292 73.646 C 57.292 76.384,57.496 76.250,53.333 76.250 C 49.162 76.250,49.375 76.394,49.375 73.570 C 49.375 70.957,49.239 71.042,53.445 71.042 C 56.608 71.042,56.876 71.071,57.076 71.445 M133.500 71.292 C 133.661 71.453,133.750 72.287,133.750 73.646 C 133.750 76.394,133.971 76.250,129.757 76.250 C 125.634 76.250,125.833 76.382,125.833 73.646 C 125.833 70.910,125.634 71.042,129.757 71.042 C 132.196 71.042,133.325 71.117,133.500 71.292 M309.375 72.917 C 309.375 74.722,309.239 74.744,307.662 73.184 C 306.077 71.615,306.100 71.458,307.917 71.458 L 309.375 71.458 309.375 72.917 M378.125 71.725 C 378.125 72.123,375.774 74.375,375.359 74.375 C 375.054 74.375,375.000 74.157,375.000 72.917 L 375.000 71.458 376.563 71.458 C 377.694 71.458,378.125 71.532,378.125 71.725 M257.917 73.333 L 257.917 75.000 255.999 75.000 L 254.082 75.000 251.941 73.594 C 248.998 71.661,248.992 71.667,253.854 71.667 L 257.917 71.667 257.917 73.333 M340.000 72.708 C 341.484 73.230,343.037 73.229,344.592 72.705 C 345.752 72.315,346.290 72.290,352.450 72.341 L 359.063 72.396 359.063 73.229 L 359.063 74.063 342.240 74.116 L 325.417 74.169 325.417 73.230 L 325.417 72.292 332.135 72.298 C 338.234 72.305,338.960 72.342,340.000 72.708 M157.083 75.417 C 157.083 76.901,157.678 77.716,157.729 76.302 L 157.750 75.729 157.895 76.250 C 158.094 76.966,158.613 76.905,158.775 76.146 L 158.909 75.521 158.934 76.198 C 158.988 77.695,159.583 76.979,159.583 75.417 C 159.583 73.777,158.894 73.187,158.614 74.588 C 158.467 75.322,158.125 75.631,158.125 75.029 C 158.125 74.342,157.893 73.958,157.478 73.958 C 157.128 73.958,157.083 74.125,157.083 75.417 M160.000 75.417 C 160.000 76.832,160.322 77.458,160.455 76.302 C 160.502 75.892,160.654 75.710,160.990 75.663 C 161.247 75.626,161.458 75.515,161.458 75.417 C 161.458 75.318,161.247 75.207,160.990 75.171 C 160.317 75.075,160.397 74.493,161.094 74.413 C 161.975 74.312,161.773 73.958,160.833 73.958 L 160.000 73.958 160.000 75.417 M162.083 75.417 L 162.083 76.875 162.917 76.875 C 163.375 76.875,163.750 76.781,163.750 76.667 C 163.750 76.552,163.516 76.458,163.229 76.458 C 162.731 76.458,162.708 76.403,162.708 75.208 C 162.708 74.236,162.639 73.958,162.396 73.958 C 162.148 73.958,162.083 74.259,162.083 75.417 M163.750 74.167 C 163.750 74.281,163.891 74.375,164.063 74.375 C 164.306 74.375,164.375 74.653,164.375 75.625 C 164.375 76.597,164.444 76.875,164.688 76.875 C 164.931 76.875,165.000 76.597,165.000 75.625 C 165.000 74.653,165.069 74.375,165.313 74.375 C 165.484 74.375,165.625 74.281,165.625 74.167 C 165.625 74.052,165.203 73.958,164.688 73.958 C 164.172 73.958,163.750 74.052,163.750 74.167 M359.126 75.990 L 359.063 76.979 342.240 77.032 L 325.417 77.086 325.417 76.043 L 325.417 75.000 342.303 75.000 L 359.189 75.000 359.126 75.990 M91.878 76.849 C 94.075 78.041,94.613 78.965,98.726 88.622 L 102.197 96.771 107.456 96.875 L 112.714 96.979 112.212 97.717 C 111.681 98.498,109.036 99.266,102.122 100.647 C 99.470 101.176,99.470 101.176,99.302 99.565 C 97.957 86.703,82.639 78.563,70.305 84.155 C 63.966 87.029,58.542 94.678,58.542 100.743 C 58.542 101.648,58.550 101.648,54.134 100.821 C 48.515 99.770,41.667 98.048,41.667 97.687 C 41.667 97.587,42.229 96.713,42.917 95.746 C 43.604 94.779,44.167 93.889,44.167 93.769 C 44.167 93.625,45.637 93.531,48.452 93.494 L 52.738 93.438 56.709 85.722 L 60.680 78.007 62.057 77.024 L 63.435 76.042 76.913 76.042 L 90.391 76.042 91.878 76.849 M247.260 80.073 L 251.697 83.689 253.902 83.823 C 255.114 83.898,257.166 83.958,258.460 83.958 L 260.814 83.958 261.246 84.936 C 261.484 85.474,261.733 86.130,261.800 86.395 L 261.920 86.875 259.155 86.875 L 256.391 86.875 254.758 87.832 L 253.125 88.790 253.125 91.328 L 253.125 93.865 254.899 94.745 C 256.564 95.571,256.782 95.625,258.441 95.625 C 260.553 95.625,260.683 95.861,259.475 97.506 L 258.741 98.505 259.787 98.853 C 260.838 99.202,261.294 100.051,260.573 100.318 C 260.367 100.394,250.956 101.458,250.488 101.458 C 250.422 101.458,250.418 101.266,250.480 101.032 C 250.897 99.434,249.738 94.041,248.408 91.398 C 238.861 72.426,210.427 78.360,209.434 99.531 L 209.314 102.083 208.749 102.083 C 208.438 102.083,207.772 102.134,207.269 102.196 C 205.718 102.388,205.700 102.793,207.693 93.085 L 209.518 84.194 211.255 80.326 L 212.992 76.458 227.907 76.458 L 242.823 76.458 247.260 80.073 M153.490 78.558 C 152.707 79.014,153.224 80.547,154.105 80.380 C 154.578 80.289,154.749 79.375,154.292 79.375 C 154.081 79.375,154.016 79.491,154.102 79.716 C 154.192 79.950,154.141 80.026,153.939 79.959 C 153.397 79.778,153.576 78.847,154.142 78.909 C 154.563 78.955,154.599 78.916,154.377 78.648 C 154.073 78.282,153.981 78.272,153.490 78.558 M155.119 78.661 C 154.738 79.041,154.705 79.448,155.007 80.014 C 155.428 80.799,156.458 80.292,156.458 79.299 C 156.458 78.963,155.915 78.333,155.625 78.333 C 155.527 78.333,155.299 78.481,155.119 78.661 M156.742 79.271 C 156.786 80.843,157.777 80.871,157.877 79.303 C 157.920 78.632,157.867 78.339,157.721 78.430 C 157.599 78.505,157.500 78.897,157.500 79.300 C 157.500 80.302,157.020 80.115,156.846 79.046 C 156.721 78.281,156.714 78.295,156.742 79.271 M158.264 78.472 C 158.046 78.690,158.102 80.169,158.333 80.313 C 158.453 80.386,158.545 80.191,158.550 79.856 L 158.558 79.271 158.869 79.844 C 159.040 80.159,159.271 80.417,159.382 80.417 C 159.649 80.417,159.643 78.603,159.375 78.438 C 159.256 78.364,159.163 78.559,159.158 78.894 L 159.150 79.479 158.839 78.906 C 158.503 78.287,158.473 78.264,158.264 78.472 M160.042 78.583 C 159.686 78.939,159.732 79.900,160.122 80.223 C 160.573 80.597,161.126 80.230,161.213 79.498 C 161.323 78.569,160.612 78.013,160.042 78.583 M161.615 78.453 C 161.047 79.029,161.787 80.686,162.436 80.291 C 162.866 80.030,163.059 78.809,162.724 78.474 C 162.564 78.314,162.500 78.502,162.500 79.125 C 162.500 80.334,161.926 80.354,161.835 79.147 C 161.800 78.678,161.701 78.366,161.615 78.453 M164.115 78.558 C 163.332 79.014,163.849 80.547,164.730 80.380 C 165.203 80.289,165.374 79.375,164.917 79.375 C 164.718 79.375,164.642 79.493,164.716 79.688 C 164.793 79.889,164.712 80.000,164.488 80.000 C 164.230 80.000,164.156 79.850,164.205 79.427 C 164.258 78.962,164.364 78.864,164.767 78.909 C 165.188 78.955,165.224 78.916,165.002 78.648 C 164.698 78.282,164.606 78.272,164.115 78.558 M165.830 78.863 C 165.336 80.163,165.326 80.477,165.789 80.188 C 166.141 79.968,166.280 79.973,166.580 80.221 C 166.914 80.496,166.933 80.475,166.804 79.957 C 166.596 79.123,166.276 78.333,166.146 78.333 C 166.083 78.333,165.941 78.572,165.830 78.863 M166.983 78.750 C 167.060 79.036,167.171 79.529,167.231 79.844 C 167.290 80.159,167.411 80.417,167.500 80.417 C 167.589 80.417,167.710 80.159,167.769 79.844 C 167.829 79.529,167.940 79.036,168.017 78.750 C 168.151 78.248,168.144 78.244,167.828 78.634 C 167.503 79.034,167.497 79.034,167.172 78.634 C 166.856 78.244,166.849 78.248,166.983 78.750 M168.442 79.019 C 167.979 80.127,168.013 80.490,168.548 80.158 C 168.897 79.942,169.004 79.950,169.162 80.202 C 169.500 80.745,169.633 80.260,169.371 79.441 C 168.991 78.255,168.798 78.167,168.442 79.019 M155.938 79.375 C 155.938 79.946,155.474 80.182,155.290 79.705 C 155.118 79.255,155.358 78.696,155.677 78.802 C 155.820 78.850,155.938 79.108,155.938 79.375 M160.909 79.063 C 161.073 79.491,160.850 80.000,160.499 80.000 C 160.333 80.000,160.208 79.791,160.208 79.514 C 160.208 78.761,160.677 78.459,160.909 79.063 M326.927 80.556 C 325.874 80.776,325.670 83.396,326.667 83.898 C 327.496 84.316,334.969 84.269,335.579 83.842 C 336.177 83.423,336.261 81.275,335.698 80.807 C 335.356 80.523,328.081 80.315,326.927 80.556 M338.229 80.555 C 337.315 80.786,336.912 82.734,337.587 83.658 C 337.988 84.207,346.746 84.291,347.088 83.750 C 347.433 83.204,347.334 81.128,346.948 80.807 C 346.602 80.519,339.214 80.306,338.229 80.555 M349.479 80.563 C 348.567 80.776,348.161 82.733,348.837 83.658 C 349.185 84.134,356.866 84.397,357.986 83.972 C 358.907 83.621,358.763 80.801,357.813 80.599 C 357.095 80.446,350.106 80.416,349.479 80.563 M234.241 81.174 C 249.198 84.549,254.759 102.950,244.172 114.036 C 231.785 127.005,210.236 118.267,210.330 100.313 C 210.397 87.591,221.895 78.389,234.241 81.174 M334.962 81.431 C 335.135 81.540,335.212 81.908,335.171 82.417 L 335.104 83.229 331.042 83.229 L 326.979 83.229 326.913 82.417 C 326.820 81.284,326.918 81.256,331.042 81.256 C 333.047 81.256,334.811 81.335,334.962 81.431 M346.212 81.431 C 346.385 81.540,346.462 81.908,346.421 82.417 L 346.354 83.229 342.292 83.229 L 338.229 83.229 338.163 82.417 C 338.070 81.284,338.168 81.256,342.292 81.256 C 344.297 81.256,346.061 81.335,346.212 81.431 M357.379 81.376 C 357.610 81.465,357.708 81.776,357.708 82.423 L 357.708 83.342 353.594 83.286 L 349.479 83.229 349.413 82.417 C 349.371 81.908,349.449 81.540,349.621 81.431 C 349.934 81.232,356.876 81.184,357.379 81.376 M84.153 83.743 C 97.669 87.636,103.173 103.802,94.712 114.755 C 83.157 129.714,59.324 121.676,59.302 102.813 C 59.287 89.898,71.905 80.215,84.153 83.743 M300.208 85.469 L 300.207 87.188 299.270 87.573 L 298.333 87.958 298.333 91.273 L 298.333 94.589 299.271 95.044 L 300.208 95.500 300.208 108.103 L 300.208 120.706 300.768 121.291 L 301.328 121.875 306.095 121.875 L 310.861 121.875 311.576 121.329 L 312.292 120.784 312.292 113.204 L 312.292 105.625 312.917 105.625 C 313.518 105.625,313.542 105.589,313.542 104.697 C 313.542 103.044,313.830 102.708,315.250 102.708 C 316.977 102.708,317.708 103.257,317.708 104.552 C 317.708 105.176,317.884 105.785,318.240 106.392 L 318.772 107.299 323.501 107.243 L 328.229 107.188 328.296 106.602 C 328.333 106.281,328.175 105.460,327.945 104.779 L 327.527 103.542 335.118 103.542 L 342.708 103.542 342.708 104.034 C 342.708 105.014,344.155 106.457,345.140 106.458 C 345.936 106.458,346.092 106.555,346.988 107.604 L 347.967 108.750 349.296 108.750 C 350.467 108.750,350.625 108.703,350.625 108.350 C 350.625 107.478,350.845 107.292,351.876 107.292 C 353.085 107.292,355.417 105.008,355.417 103.824 C 355.417 103.164,356.026 102.635,356.554 102.838 C 356.808 102.935,356.875 103.327,356.875 104.704 L 356.875 106.447 359.940 106.505 L 363.006 106.563 363.200 107.240 C 363.442 108.085,363.507 108.083,364.375 107.188 C 364.936 106.609,365.243 106.458,365.865 106.458 L 366.649 106.458 366.710 104.844 L 366.771 103.229 367.823 103.168 L 368.875 103.106 369.566 104.678 C 370.230 106.189,370.284 106.250,370.962 106.250 L 371.667 106.250 371.667 113.513 L 371.667 120.777 372.459 121.326 L 373.252 121.875 377.990 121.875 L 382.728 121.875 383.233 121.302 L 383.737 120.729 383.743 108.090 L 383.750 95.451 384.479 95.000 L 385.208 94.549 385.208 91.222 L 385.208 87.895 384.479 87.591 L 383.750 87.286 383.750 85.518 C 383.750 83.889,383.717 83.750,383.333 83.750 C 382.949 83.750,382.917 83.889,382.917 85.521 L 382.917 87.292 341.979 87.292 L 301.042 87.292 301.042 85.521 C 301.042 83.889,301.009 83.750,300.625 83.750 C 300.242 83.750,300.208 83.889,300.208 85.469 M54.442 88.331 L 52.188 92.704 42.552 92.706 C 37.253 92.707,32.917 92.668,32.917 92.619 C 32.917 92.570,33.204 91.287,33.555 89.769 C 34.508 85.642,34.894 85.833,25.619 85.833 L 21.719 85.833 21.589 85.182 C 21.517 84.824,21.458 84.402,21.458 84.245 C 21.458 84.004,24.267 83.958,39.077 83.958 L 56.696 83.958 54.442 88.331 M136.739 84.635 C 136.804 85.008,136.972 86.484,137.112 87.917 C 137.309 89.929,137.499 90.817,137.946 91.823 L 138.524 93.125 121.033 93.125 C 103.681 93.125,103.542 93.128,103.542 93.542 C 103.542 93.955,103.681 93.958,121.257 93.958 L 138.973 93.958 139.382 94.913 C 139.607 95.438,139.792 95.907,139.792 95.955 C 139.792 96.003,131.467 96.042,121.292 96.042 L 102.792 96.042 100.329 90.260 C 98.974 87.081,97.820 84.362,97.765 84.219 C 97.684 84.012,101.644 83.958,117.142 83.958 L 136.620 83.958 136.739 84.635 M192.708 84.040 C 192.708 85.134,191.283 89.672,190.465 91.183 L 189.470 93.021 164.514 93.074 L 139.558 93.127 138.964 91.818 C 138.414 90.603,137.708 86.507,137.708 84.523 L 137.708 83.958 165.208 83.958 C 180.333 83.958,192.708 83.995,192.708 84.040 M208.527 84.219 C 208.519 84.362,207.645 86.401,206.585 88.750 L 204.657 93.021 197.518 93.076 L 190.380 93.131 191.317 91.368 C 192.020 90.047,192.422 88.898,192.922 86.782 L 193.588 83.958 201.065 83.958 C 206.915 83.958,208.539 84.015,208.527 84.219 M33.226 86.906 C 33.351 87.032,31.568 95.061,31.254 95.781 L 31.051 96.250 22.869 96.244 L 14.688 96.238 13.438 95.567 L 12.188 94.896 11.286 92.119 C 10.088 88.428,9.687 88.750,15.479 88.750 L 20.345 88.750 20.846 87.682 L 21.346 86.615 27.230 86.705 C 30.467 86.755,33.165 86.845,33.226 86.906 M265.034 88.490 L 266.246 89.271 266.248 90.855 C 266.249 91.726,266.192 92.992,266.122 93.667 L 265.994 94.896 261.278 94.792 L 256.563 94.688 255.260 94.007 L 253.958 93.327 253.958 91.292 L 253.958 89.257 255.260 88.493 L 256.563 87.729 260.192 87.718 L 263.821 87.708 265.034 88.490 M383.906 88.256 C 384.364 88.379,384.375 88.452,384.375 91.250 L 384.375 94.118 383.110 94.871 L 381.845 95.625 341.957 95.625 L 302.069 95.625 300.621 94.844 L 299.174 94.063 299.170 91.312 C 299.167 88.911,299.213 88.535,299.531 88.350 C 299.927 88.120,383.052 88.027,383.906 88.256 M226.875 88.663 C 219.607 90.581,215.705 98.840,218.888 105.572 C 223.166 114.621,236.065 114.949,240.676 106.124 C 245.533 96.828,236.974 85.999,226.875 88.663 M232.804 89.486 C 240.984 91.616,244.017 101.953,238.261 108.087 C 231.926 114.839,220.758 111.779,218.849 102.768 C 217.120 94.611,224.718 87.380,232.804 89.486 M228.333 90.632 C 219.058 92.280,216.948 104.747,225.200 109.145 C 233.045 113.327,241.988 106.036,239.407 97.564 C 237.964 92.824,233.107 89.784,228.333 90.632 M76.341 90.933 C 70.890 92.119,66.875 97.128,66.875 102.742 C 66.875 114.710,82.098 119.521,88.976 109.727 C 95.256 100.784,87.064 88.599,76.341 90.933 M231.331 91.453 C 238.563 92.638,241.492 101.429,236.435 106.776 C 231.613 111.874,222.877 109.553,221.128 102.708 C 219.837 97.656,223.272 92.305,228.333 91.485 C 229.917 91.228,229.951 91.227,231.331 91.453 M82.746 92.138 C 90.799 95.075,92.931 105.314,86.693 111.088 C 79.124 118.093,67.220 112.431,67.761 102.084 C 68.151 94.636,75.755 89.589,82.746 92.138 M76.419 93.210 C 69.082 95.329,66.629 104.208,71.873 109.669 C 78.120 116.175,88.923 111.742,88.835 102.708 C 88.772 96.255,82.497 91.455,76.419 93.210 M43.206 93.802 C 43.122 93.945,42.475 94.906,41.768 95.938 C 41.061 96.969,40.420 97.923,40.343 98.057 C 40.186 98.332,40.877 98.557,45.729 99.813 C 48.842 100.619,55.175 101.935,57.221 102.201 L 58.296 102.340 58.367 103.358 C 58.406 103.917,58.380 104.375,58.310 104.375 C 57.575 104.374,50.256 102.696,46.877 101.753 C 44.549 101.104,37.920 98.992,37.743 98.843 C 37.705 98.811,38.431 97.702,39.358 96.379 C 40.284 95.056,41.042 93.876,41.042 93.758 C 41.042 93.634,41.539 93.542,42.200 93.542 C 43.069 93.542,43.320 93.607,43.206 93.802 M81.648 94.145 C 89.511 96.592,90.366 107.327,82.989 110.974 C 78.449 113.218,72.830 111.234,70.747 106.652 C 67.495 99.499,74.185 91.822,81.648 94.145 M189.167 94.688 L 189.167 95.417 164.901 95.417 L 140.636 95.417 140.318 94.802 C 140.143 94.464,140.000 94.136,140.000 94.073 C 140.000 94.010,151.063 93.958,164.583 93.958 L 189.167 93.958 189.167 94.688 M204.167 94.073 C 204.167 94.136,204.005 94.487,203.808 94.854 C 203.563 95.308,203.409 96.236,203.325 97.757 C 203.256 98.987,203.129 100.066,203.041 100.153 C 202.954 100.241,184.585 100.330,162.222 100.351 L 121.563 100.389 127.396 98.839 C 130.604 97.987,133.392 97.196,133.591 97.082 C 133.793 96.966,135.568 96.875,137.624 96.875 C 140.801 96.875,141.278 96.833,141.175 96.563 C 141.068 96.286,143.860 96.250,165.527 96.250 L 190.000 96.250 190.000 95.104 L 190.000 93.958 197.083 93.958 C 200.979 93.958,204.167 94.010,204.167 94.073 M227.600 95.270 C 222.023 97.936,223.828 106.148,229.986 106.122 C 235.749 106.097,237.761 98.410,232.769 95.485 C 231.375 94.667,229.061 94.571,227.600 95.270 M231.991 96.018 C 234.292 97.063,235.447 100.121,234.399 102.396 C 232.320 106.908,225.755 105.919,225.079 100.991 C 224.583 97.369,228.601 94.478,231.991 96.018 M306.653 96.458 L 311.458 96.458 311.458 108.426 L 311.458 120.393 310.995 120.717 C 310.260 121.232,301.726 121.197,301.332 120.677 C 300.812 119.992,300.923 95.963,301.445 96.243 C 301.689 96.373,303.739 96.458,306.653 96.458 M382.917 108.139 C 382.917 116.079,382.843 120.374,382.701 120.639 C 382.398 121.204,373.864 121.263,373.014 120.705 L 372.500 120.369 372.500 108.414 L 372.500 96.458 377.384 96.458 C 380.415 96.458,382.316 96.379,382.396 96.250 C 382.855 95.507,382.917 96.909,382.917 108.139 M228.674 96.754 C 224.763 98.194,225.432 103.929,229.557 104.325 C 232.638 104.621,234.827 101.243,233.307 98.539 C 232.426 96.972,230.304 96.154,228.674 96.754 M371.667 100.938 C 371.667 105.319,371.657 105.417,371.238 105.417 C 370.907 105.417,370.647 105.060,370.094 103.846 L 369.378 102.275 367.658 102.335 L 365.938 102.396 365.877 104.010 C 365.821 105.480,365.777 105.625,365.388 105.625 C 365.153 105.625,364.695 105.814,364.370 106.045 L 363.780 106.465 363.647 106.045 C 363.522 105.650,363.338 105.625,360.611 105.625 L 357.708 105.625 357.706 104.115 C 357.703 102.619,357.696 102.600,356.976 102.133 L 356.248 101.662 355.416 102.213 C 354.736 102.663,354.583 102.885,354.583 103.424 C 354.583 103.922,354.325 104.374,353.525 105.271 L 352.467 106.458 351.247 106.458 L 350.026 106.458 349.961 107.135 C 349.840 108.394,348.631 108.228,347.396 106.782 C 346.484 105.714,346.339 105.625,345.520 105.625 C 344.416 105.625,343.542 104.665,343.542 103.451 L 343.542 102.708 335.000 102.708 C 329.805 102.708,326.458 102.785,326.458 102.904 C 326.458 103.012,326.698 103.763,326.990 104.574 C 327.701 106.544,327.872 106.458,323.222 106.458 L 319.177 106.458 318.860 105.844 C 318.685 105.506,318.542 104.772,318.542 104.212 C 318.542 102.673,317.375 101.875,315.126 101.875 L 313.550 101.875 313.129 102.700 C 312.898 103.154,312.708 103.810,312.708 104.158 C 312.708 104.507,312.615 104.792,312.500 104.792 C 312.368 104.792,312.292 103.264,312.292 100.625 L 312.292 96.458 341.979 96.458 L 371.667 96.458 371.667 100.938 M130.938 96.987 C 130.823 97.031,127.917 97.816,124.479 98.732 C 121.042 99.648,117.292 100.688,116.146 101.044 C 112.202 102.268,101.174 104.792,99.772 104.792 C 99.668 104.792,99.583 104.159,99.583 103.385 L 99.583 101.979 102.552 101.404 C 104.185 101.087,107.073 100.443,108.970 99.972 L 112.419 99.115 113.025 97.995 L 113.631 96.875 122.389 96.891 C 127.205 96.900,131.052 96.943,130.938 96.987 M77.267 97.358 C 71.383 99.561,72.319 107.922,78.512 108.484 C 83.605 108.945,86.585 102.963,83.235 99.000 C 81.967 97.499,79.040 96.694,77.267 97.358 M80.446 98.158 C 82.385 98.739,83.821 100.720,83.821 102.813 C 83.821 106.975,78.998 109.223,75.850 106.528 C 71.860 103.113,75.409 96.649,80.446 98.158 M77.392 99.237 C 73.647 100.937,74.843 106.667,78.943 106.667 C 83.997 106.667,84.245 99.307,79.200 99.019 C 78.503 98.979,77.763 99.069,77.392 99.237 " stroke="none" fill="#000000" fill-rule="evenodd"></path></g></svg>